G04 #@! TF.FileFunction,Copper,L2,Bot,Signal*
%FSLAX46Y46*%
G04 Gerber Fmt 4.6, Leading zero omitted, Abs format (unit mm)*
G04 Created by KiCad (PCBNEW 4.0.1-stable) date 24.01.2016 23:52:10*
%MOMM*%
G01*
G04 APERTURE LIST*
%ADD10C,0.100000*%
%ADD11C,6.000000*%
%ADD12R,1.100000X1.100000*%
%ADD13R,1.500000X1.500000*%
%ADD14C,1.500000*%
%ADD15R,1.080000X1.000000*%
%ADD16C,1.200000*%
%ADD17R,1.270000X0.760000*%
%ADD18R,2.000000X2.000000*%
%ADD19C,2.000000*%
%ADD20R,1.600000X1.600000*%
%ADD21C,1.600000*%
%ADD22R,3.200000X1.600000*%
%ADD23O,3.200000X1.600000*%
%ADD24C,0.900000*%
%ADD25C,0.700000*%
%ADD26C,0.500000*%
%ADD27C,0.200000*%
%ADD28C,1.000000*%
%ADD29C,0.254000*%
G04 APERTURE END LIST*
D10*
D11*
X152000000Y-108000000D03*
D12*
X143952000Y-100619000D03*
X145052000Y-100619000D03*
X143952000Y-101719000D03*
X145052000Y-101719000D03*
D13*
X103000000Y-92400000D03*
D14*
X100460000Y-92400000D03*
D15*
X96760000Y-102000000D03*
X95440000Y-102000000D03*
X96760000Y-100400000D03*
X95440000Y-100400000D03*
X96760000Y-98800000D03*
X95440000Y-98800000D03*
X96760000Y-97200000D03*
X95440000Y-97200000D03*
D16*
X102800000Y-97100000D03*
X102800000Y-99600000D03*
X102800000Y-102100000D03*
D15*
X96760000Y-95600000D03*
X95440000Y-95600000D03*
X96760000Y-94000000D03*
X95440000Y-94000000D03*
D11*
X108000000Y-108000000D03*
D17*
X92132000Y-101220000D03*
X92132000Y-99950000D03*
X92132000Y-98680000D03*
X92132000Y-97410000D03*
X92132000Y-96140000D03*
X92132000Y-94870000D03*
X99752000Y-94870000D03*
X99752000Y-96140000D03*
X99752000Y-97410000D03*
X99752000Y-98680000D03*
X99752000Y-99950000D03*
X99752000Y-101220000D03*
D18*
X106500000Y-97400000D03*
D19*
X153500000Y-97400000D03*
D18*
X153500000Y-118600000D03*
D19*
X106500000Y-118600000D03*
D20*
X113000000Y-106250000D03*
D21*
X113000000Y-109750000D03*
D13*
X100610000Y-115500000D03*
D14*
X98070000Y-115500000D03*
X95530000Y-115500000D03*
X92990000Y-115500000D03*
D13*
X128800000Y-106300000D03*
D14*
X131340000Y-106300000D03*
X133880000Y-106300000D03*
D13*
X128800000Y-109700000D03*
D14*
X131340000Y-109700000D03*
X133880000Y-109700000D03*
X136420000Y-109700000D03*
D22*
X101889000Y-109270000D03*
D23*
X101889000Y-106730000D03*
D24*
X145828300Y-97924300D03*
X145225000Y-110738000D03*
X139298800Y-102785300D03*
X149396700Y-99387600D03*
X149625000Y-103468600D03*
X151065300Y-102538000D03*
X154412400Y-102665900D03*
X148055200Y-95731500D03*
X143968600Y-104689300D03*
X143717300Y-106999200D03*
X139562800Y-120924100D03*
X141968300Y-119490000D03*
X133059500Y-101116000D03*
X134758400Y-101048800D03*
X93849900Y-98997600D03*
X98043800Y-93308700D03*
X141866200Y-98036800D03*
X137186200Y-120907300D03*
X134500600Y-120286200D03*
X134024900Y-122426200D03*
X127609900Y-114164100D03*
X129697900Y-111741900D03*
X122248300Y-116888900D03*
X124041900Y-120915400D03*
X108657900Y-92992200D03*
X154500000Y-91300000D03*
X154500000Y-93100000D03*
X154500000Y-95000000D03*
X154600000Y-99400000D03*
X152500000Y-99400000D03*
X150800000Y-99400000D03*
X151100000Y-97600000D03*
X151900000Y-94800000D03*
X152000000Y-91300000D03*
X149700000Y-91300000D03*
X147400000Y-91300000D03*
X145000000Y-91300000D03*
X142600000Y-91300000D03*
X140100000Y-91300000D03*
X137500000Y-91300000D03*
X149700000Y-93500000D03*
X152500000Y-93200000D03*
X147400000Y-93300000D03*
X145000000Y-93800000D03*
X142500000Y-93900000D03*
X140100000Y-93900000D03*
X137400000Y-93800000D03*
X137500000Y-96400000D03*
X134900000Y-91300000D03*
X134800000Y-93300000D03*
X132200000Y-91300000D03*
X132200000Y-93300000D03*
X129600000Y-91300000D03*
X129600000Y-93800000D03*
X127000000Y-91300000D03*
X126900000Y-94300000D03*
X123900000Y-91300000D03*
X121100000Y-91300000D03*
X117900000Y-91300000D03*
X114800000Y-91300000D03*
X111600000Y-91300000D03*
X108500000Y-91300000D03*
X105000000Y-91300000D03*
X101600000Y-91300000D03*
X98400000Y-91300000D03*
X94900000Y-91400000D03*
X93900000Y-94200000D03*
X93900000Y-96600000D03*
X93800000Y-102000000D03*
X92200000Y-103400000D03*
X94300000Y-103600000D03*
X103900000Y-104400000D03*
X108200000Y-99000000D03*
X111600000Y-100500000D03*
X109900000Y-95900000D03*
X110900000Y-93600000D03*
X114900000Y-93800000D03*
X117900000Y-93800000D03*
X114800000Y-97000000D03*
X112200000Y-97500000D03*
X114700000Y-99900000D03*
X117000000Y-102000000D03*
X117800000Y-99600000D03*
X117900000Y-96900000D03*
X121100000Y-93700000D03*
X121000000Y-96800000D03*
X121000000Y-99300000D03*
X120800000Y-101600000D03*
X123900000Y-93900000D03*
X124100000Y-96900000D03*
X123900000Y-99800000D03*
X126000000Y-98900000D03*
X135200000Y-102500000D03*
X131900000Y-103500000D03*
X129800000Y-103100000D03*
X128400000Y-103800000D03*
X125600000Y-102700000D03*
X122900000Y-103300000D03*
X120800000Y-104900000D03*
X118500000Y-105200000D03*
X110900000Y-111200000D03*
X104300000Y-111100000D03*
X105500000Y-113600000D03*
X108600000Y-113500000D03*
X112700000Y-113500000D03*
X115500000Y-113900000D03*
X110700000Y-115300000D03*
X113800000Y-116800000D03*
X117400000Y-116900000D03*
X120600000Y-115200000D03*
X118300000Y-114400000D03*
X114600000Y-111800000D03*
X125200000Y-111400000D03*
X126600000Y-108100000D03*
X127100000Y-111500000D03*
X129800000Y-108100000D03*
X139900000Y-111600000D03*
X147800000Y-110700000D03*
X142000000Y-111600000D03*
X135400000Y-115400000D03*
X141200000Y-113300000D03*
X144300000Y-115900000D03*
X144200000Y-113400000D03*
X150200000Y-112200000D03*
X152900000Y-112200000D03*
X153900000Y-113700000D03*
X153900000Y-116500000D03*
X153900000Y-120400000D03*
X150900000Y-120500000D03*
X150800000Y-124700000D03*
X147700000Y-124700000D03*
X144400000Y-124700000D03*
X144400000Y-121900000D03*
X147600000Y-122000000D03*
X147600000Y-119300000D03*
X144400000Y-119000000D03*
X147100000Y-116100000D03*
X150800000Y-115600000D03*
X147700000Y-112800000D03*
X139000000Y-122300000D03*
X120500000Y-124700000D03*
X116700000Y-124700000D03*
X112800000Y-124700000D03*
X110200000Y-124700000D03*
X104900000Y-124700000D03*
X101400000Y-124700000D03*
X99000000Y-123700000D03*
X91900000Y-124700000D03*
X91900000Y-121400000D03*
X91900000Y-118500000D03*
X102400000Y-115900000D03*
X103300000Y-118000000D03*
X108254500Y-119229500D03*
X101300000Y-111300000D03*
X130485300Y-99205300D03*
X126057100Y-105149500D03*
D25*
X125783300Y-117736400D03*
X134046400Y-119245400D03*
X138617900Y-108130900D03*
X134775000Y-114228800D03*
X140057700Y-99265300D03*
X141762600Y-99533800D03*
X119586000Y-107602200D03*
X132493900Y-116451000D03*
X120049500Y-108374300D03*
X133019700Y-117471300D03*
X130184000Y-117471800D03*
X131100300Y-116546600D03*
X131538500Y-117334100D03*
X131907600Y-118170600D03*
X120376100Y-112205600D03*
X130307700Y-121936200D03*
X101412900Y-97499200D03*
X130797200Y-119484600D03*
X103911200Y-114145700D03*
X129709900Y-122612200D03*
X126743000Y-124428000D03*
X131210800Y-122613500D03*
X129044800Y-122005100D03*
X131816200Y-120878300D03*
X132478400Y-120268100D03*
X104737400Y-99689000D03*
X112013400Y-104463500D03*
X126258500Y-120643600D03*
X96196200Y-116809400D03*
X108457900Y-120862500D03*
X93464100Y-117681600D03*
X103314600Y-120566100D03*
X98878400Y-120992600D03*
X113025600Y-120875600D03*
D24*
X139346000Y-116181500D03*
X136932600Y-122835700D03*
X125323500Y-123356600D03*
X122873600Y-121189900D03*
X121521100Y-115952300D03*
X147986700Y-96873900D03*
X142543900Y-96815700D03*
X145408900Y-106847500D03*
X146940400Y-104559400D03*
X138651500Y-105153500D03*
X139314100Y-100570600D03*
D25*
X125717900Y-119638400D03*
X113090700Y-104399400D03*
X109357700Y-98568700D03*
X128493500Y-117172200D03*
X101433000Y-99299400D03*
X133731500Y-116868900D03*
X100282600Y-121878400D03*
X115347600Y-121270700D03*
D26*
X95150000Y-95350000D02*
X95440000Y-95600000D01*
X94900000Y-95350000D02*
X95150000Y-95350000D01*
X93900000Y-94200000D02*
X94900000Y-95350000D01*
X94900000Y-91400000D02*
X98400000Y-91300000D01*
X94300000Y-103600000D02*
X92200000Y-103400000D01*
X95150000Y-102250000D02*
X95440000Y-102000000D01*
X95150000Y-102500000D02*
X95150000Y-102250000D01*
X94300000Y-103600000D02*
X95150000Y-102500000D01*
X94300000Y-103600000D02*
X93800000Y-102000000D01*
X103900000Y-104400000D02*
X108000000Y-108000000D01*
X135400000Y-115400000D02*
X139900000Y-111600000D01*
X105500000Y-113600000D02*
X108600000Y-113500000D01*
X105500000Y-113600000D02*
X104300000Y-111100000D01*
X117400000Y-116900000D02*
X118300000Y-114400000D01*
X112700000Y-113500000D02*
X108600000Y-113500000D01*
X112700000Y-113500000D02*
X113800000Y-116800000D01*
X112700000Y-113500000D02*
X115500000Y-113900000D01*
X112700000Y-113500000D02*
X110900000Y-111200000D01*
X112700000Y-113500000D02*
X110700000Y-115300000D01*
X112700000Y-113500000D02*
X114600000Y-111800000D01*
X92517000Y-96010000D02*
X92132000Y-96140000D01*
X92767000Y-96010000D02*
X92517000Y-96010000D01*
X92796100Y-96009300D02*
X92805300Y-96008500D01*
X92776700Y-96010000D02*
X92796100Y-96009300D01*
X92767000Y-96010000D02*
X92776700Y-96010000D01*
X93900000Y-96600000D02*
X92805300Y-96008500D01*
X100242500Y-93681800D02*
X98043800Y-93308700D01*
X100404800Y-93700100D02*
X100460000Y-93700100D01*
X100296200Y-93690900D02*
X100404800Y-93700100D01*
X100242500Y-93681800D02*
X100296200Y-93690900D01*
X103750000Y-93700100D02*
X100460000Y-93700100D01*
X103809400Y-93697200D02*
X103829200Y-93694400D01*
X103770200Y-93700100D02*
X103809400Y-93697200D01*
X103750000Y-93700100D02*
X103770200Y-93700100D01*
X108657900Y-92992200D02*
X103829200Y-93694400D01*
X139562800Y-120924100D02*
X141968300Y-119490000D01*
X97586000Y-93030100D02*
X98043800Y-93308700D01*
X97375600Y-92949900D02*
X97300000Y-92949900D01*
X97521600Y-92990900D02*
X97375600Y-92949900D01*
X97586000Y-93030100D02*
X97521600Y-92990900D01*
X96320000Y-92949900D02*
X97300000Y-92949900D01*
X96060900Y-93006500D02*
X95989400Y-93060300D01*
X96230900Y-92949800D02*
X96060900Y-93006500D01*
X96320000Y-92949900D02*
X96230900Y-92949800D01*
X95925500Y-93108400D02*
X95989400Y-93060300D01*
X95730000Y-93384600D02*
X95730000Y-93500000D01*
X95833000Y-93178100D02*
X95730000Y-93384600D01*
X95925500Y-93108400D02*
X95833000Y-93178100D01*
X95730000Y-93750000D02*
X95730000Y-93500000D01*
X95440000Y-94000000D02*
X95730000Y-93750000D01*
X103317900Y-105535300D02*
X108000000Y-108000000D01*
X103317900Y-105535300D02*
X103290100Y-105521100D01*
X100245100Y-104007100D02*
X103290100Y-105521100D01*
X100157000Y-103971400D02*
X100126500Y-103964200D01*
X100216700Y-103993000D02*
X100157000Y-103971400D01*
X100245100Y-104007100D02*
X100216700Y-103993000D01*
X96193600Y-103035400D02*
X100126500Y-103964200D01*
X96137800Y-103022200D02*
X96193600Y-103035400D01*
X96034800Y-102973900D02*
X96137800Y-103022200D01*
X95989400Y-102939700D02*
X96034800Y-102973900D01*
X95925500Y-102891600D02*
X95989400Y-102939700D01*
X95833200Y-102822300D02*
X95925500Y-102891600D01*
X95730100Y-102615800D02*
X95833200Y-102822300D01*
X95730000Y-102500000D02*
X95730100Y-102615800D01*
X95730000Y-102250000D02*
X95730000Y-102500000D01*
X95440000Y-102000000D02*
X95730000Y-102250000D01*
X95150000Y-98997600D02*
X95440000Y-98800000D01*
X94900000Y-98997600D02*
X95150000Y-98997600D01*
X93849900Y-98997600D02*
X94900000Y-98997600D01*
X95440000Y-101750000D02*
X95440000Y-102000000D01*
X95440000Y-101500000D02*
X95440000Y-101750000D01*
X95440000Y-100900000D02*
X95440000Y-101500000D01*
X95440000Y-100650000D02*
X95440000Y-100900000D01*
X95440000Y-100400000D02*
X95440000Y-100650000D01*
X145352000Y-101419000D02*
X145052000Y-101719000D01*
X145602000Y-101419000D02*
X145352000Y-101419000D01*
X145602000Y-101419000D02*
X145614700Y-101418800D01*
X148329200Y-101349900D02*
X145614700Y-101418800D01*
X122248300Y-116888900D02*
X124041900Y-120915400D01*
X95440000Y-100150000D02*
X95440000Y-100400000D01*
X95440000Y-99900000D02*
X95440000Y-100150000D01*
X95440000Y-99300000D02*
X95440000Y-99900000D01*
X95440000Y-99050000D02*
X95440000Y-99300000D01*
X95440000Y-98800000D02*
X95440000Y-99050000D01*
X92132000Y-98810000D02*
X92132000Y-98680000D01*
X92132000Y-99060000D02*
X92132000Y-98810000D01*
X92132000Y-99570000D02*
X92132000Y-99060000D01*
X92132000Y-99820000D02*
X92132000Y-99570000D01*
X92132000Y-99950000D02*
X92132000Y-99820000D01*
X143968600Y-102019000D02*
X143952000Y-101719000D01*
X143968600Y-102269000D02*
X143968600Y-102019000D01*
X143968600Y-104689300D02*
X143968600Y-102269000D01*
X95440000Y-94250000D02*
X95440000Y-94000000D01*
X95440000Y-94500000D02*
X95440000Y-94250000D01*
X95440000Y-95100000D02*
X95440000Y-94500000D01*
X95440000Y-95350000D02*
X95440000Y-95100000D01*
X95440000Y-95600000D02*
X95440000Y-95350000D01*
X92132000Y-97540000D02*
X92132000Y-97410000D01*
X92132000Y-97790000D02*
X92132000Y-97540000D01*
X92132000Y-98300000D02*
X92132000Y-97790000D01*
X92132000Y-98550000D02*
X92132000Y-98300000D01*
X92132000Y-98680000D02*
X92132000Y-98550000D01*
X127609900Y-114164100D02*
X129697900Y-111741900D01*
X92132000Y-96270000D02*
X92132000Y-96140000D01*
X92132000Y-96520000D02*
X92132000Y-96270000D01*
X92132000Y-97030000D02*
X92132000Y-96520000D01*
X92132000Y-97280000D02*
X92132000Y-97030000D01*
X92132000Y-97410000D02*
X92132000Y-97280000D01*
X145352000Y-100319000D02*
X145052000Y-100619000D01*
X145352000Y-100069000D02*
X145352000Y-100319000D01*
X145352000Y-100055100D02*
X145352000Y-100069000D01*
X145355000Y-100027700D02*
X145352000Y-100055100D01*
X145358100Y-100014100D02*
X145355000Y-100027700D01*
X145828300Y-97924300D02*
X145358100Y-100014100D01*
X143585700Y-99899400D02*
X141866200Y-98036800D01*
X143617700Y-99934200D02*
X143585700Y-99899400D01*
X143652000Y-100021800D02*
X143617700Y-99934200D01*
X143652000Y-100069000D02*
X143652000Y-100021800D01*
X143652000Y-100319000D02*
X143652000Y-100069000D01*
X143952000Y-100619000D02*
X143652000Y-100319000D01*
X143652000Y-102019000D02*
X143952000Y-101719000D01*
X143402000Y-102019000D02*
X143652000Y-102019000D01*
X143367200Y-102021200D02*
X143355900Y-102023300D01*
X143390200Y-102019000D02*
X143367200Y-102021200D01*
X143402000Y-102019000D02*
X143390200Y-102019000D01*
X139298800Y-102785300D02*
X143355900Y-102023300D01*
X92132000Y-95000000D02*
X92132000Y-94870000D01*
X92132000Y-95250000D02*
X92132000Y-95000000D01*
X92132000Y-95760000D02*
X92132000Y-95250000D01*
X92132000Y-96010000D02*
X92132000Y-95760000D01*
X92132000Y-96140000D02*
X92132000Y-96010000D01*
X92132000Y-100080000D02*
X92132000Y-99950000D01*
X92132000Y-100330000D02*
X92132000Y-100080000D01*
X92132000Y-100840000D02*
X92132000Y-100330000D01*
X92132000Y-101090000D02*
X92132000Y-100840000D01*
X92132000Y-101220000D02*
X92132000Y-101090000D01*
X145225000Y-110738000D02*
X143717300Y-106999200D01*
X94881000Y-95850700D02*
X93900000Y-96600000D01*
X94885600Y-95850400D02*
X94881000Y-95850700D01*
X94895200Y-95850000D02*
X94885600Y-95850400D01*
X94900000Y-95850000D02*
X94895200Y-95850000D01*
X95150000Y-95850000D02*
X94900000Y-95850000D01*
X95440000Y-95600000D02*
X95150000Y-95850000D01*
X133059500Y-101116000D02*
X134758400Y-101048800D01*
X95440000Y-96950000D02*
X95440000Y-97200000D01*
X95440000Y-96700000D02*
X95440000Y-96950000D01*
X95440000Y-96100000D02*
X95440000Y-96700000D01*
X95440000Y-95850000D02*
X95440000Y-96100000D01*
X95440000Y-95600000D02*
X95440000Y-95850000D01*
X134500600Y-120286200D02*
X134024900Y-122426200D01*
X149396700Y-99387600D02*
X148329200Y-101349900D01*
X148329200Y-101349900D02*
X149625000Y-103468600D01*
X151065300Y-102538000D02*
X149625000Y-103468600D01*
X95440000Y-98550000D02*
X95440000Y-98800000D01*
X95440000Y-98300000D02*
X95440000Y-98550000D01*
X95440000Y-97700000D02*
X95440000Y-98300000D01*
X95440000Y-97450000D02*
X95440000Y-97700000D01*
X95440000Y-97200000D02*
X95440000Y-97450000D01*
X137186200Y-120907300D02*
X134500600Y-120286200D01*
X154412400Y-102665900D02*
X151065300Y-102538000D01*
X130485300Y-99205300D02*
X126057100Y-105149500D01*
D27*
X133001000Y-120655500D02*
X134046400Y-119245400D01*
X132982800Y-120680100D02*
X133001000Y-120655500D01*
X132941800Y-120725700D02*
X132982800Y-120680100D01*
X132919200Y-120746500D02*
X132941800Y-120725700D01*
X132257000Y-121356700D02*
X132919200Y-120746500D01*
X132146000Y-121459200D02*
X132257000Y-121356700D01*
X131854500Y-121545200D02*
X132146000Y-121459200D01*
X131705300Y-121519300D02*
X131854500Y-121545200D01*
X130481700Y-121307500D02*
X131705300Y-121519300D01*
X130257600Y-121268900D02*
X130481700Y-121307500D01*
X129839200Y-121083700D02*
X130257600Y-121268900D01*
X129657600Y-120941900D02*
X129839200Y-121083700D01*
X127106000Y-118946600D02*
X129657600Y-120941900D01*
X127057300Y-118908600D02*
X127106000Y-118946600D01*
X126962600Y-118825700D02*
X127057300Y-118908600D01*
X126917600Y-118781700D02*
X126962600Y-118825700D01*
X126733400Y-118601300D02*
X126917600Y-118781700D01*
X126733400Y-118601300D02*
X126694200Y-118564300D01*
X125783300Y-117736400D02*
X126694200Y-118564300D01*
X137305400Y-110265300D02*
X134775000Y-114228800D01*
X137305400Y-110265300D02*
X137314900Y-110250200D01*
X138617900Y-108130900D02*
X137314900Y-110250200D01*
X140057700Y-99265300D02*
X141762600Y-99533800D01*
X132374400Y-117389100D02*
X132493900Y-116451000D01*
X132389500Y-117656100D02*
X132426300Y-117737900D01*
X132363100Y-117478600D02*
X132389500Y-117656100D01*
X132374400Y-117389100D02*
X132363100Y-117478600D01*
X132501000Y-117904000D02*
X132426300Y-117737900D01*
X132558500Y-118032300D02*
X132501000Y-117904000D01*
X132557700Y-118312500D02*
X132558500Y-118032300D01*
X132441800Y-118567400D02*
X132557700Y-118312500D01*
X132231100Y-118752100D02*
X132441800Y-118567400D01*
X131963200Y-118833700D02*
X132231100Y-118752100D01*
X131685400Y-118797800D02*
X131963200Y-118833700D01*
X131565700Y-118724000D02*
X131685400Y-118797800D01*
X131349600Y-118590500D02*
X131565700Y-118724000D01*
X131195100Y-118510100D02*
X131141000Y-118491400D01*
X131299600Y-118559700D02*
X131195100Y-118510100D01*
X131349600Y-118590500D02*
X131299600Y-118559700D01*
X129971200Y-118086500D02*
X131141000Y-118491400D01*
X129871800Y-118052000D02*
X129971200Y-118086500D01*
X129705400Y-117924600D02*
X129871800Y-118052000D01*
X129587400Y-117751400D02*
X129705400Y-117924600D01*
X129529800Y-117550000D02*
X129587400Y-117751400D01*
X129534100Y-117444700D02*
X129529800Y-117550000D01*
X129543600Y-117215900D02*
X129534100Y-117444700D01*
X129219500Y-116401300D02*
X129115700Y-116325200D01*
X129384400Y-116599900D02*
X129219500Y-116401300D01*
X129497000Y-116834100D02*
X129384400Y-116599900D01*
X129549000Y-117087000D02*
X129497000Y-116834100D01*
X129543600Y-117215900D02*
X129549000Y-117087000D01*
X127106600Y-114849200D02*
X129115700Y-116325200D01*
X127072400Y-114824000D02*
X127106600Y-114849200D01*
X127009500Y-114767400D02*
X127072400Y-114824000D01*
X126981500Y-114736600D02*
X127009500Y-114767400D01*
X125110000Y-112682500D02*
X126981500Y-114736600D01*
X125110000Y-112682500D02*
X125014100Y-112580200D01*
X120517500Y-107922500D02*
X125014100Y-112580200D01*
X120286300Y-107761000D02*
X120193300Y-107739900D01*
X120451600Y-107854200D02*
X120286300Y-107761000D01*
X120517500Y-107922500D02*
X120451600Y-107854200D01*
X119586000Y-107602200D02*
X120193300Y-107739900D01*
X132955100Y-118256800D02*
X133019700Y-117471300D01*
X132940400Y-118436000D02*
X132955100Y-118256800D01*
X132792600Y-118765500D02*
X132940400Y-118436000D01*
X132543300Y-119026800D02*
X132792600Y-118765500D01*
X132221000Y-119189900D02*
X132543300Y-119026800D01*
X131862800Y-119236000D02*
X132221000Y-119189900D01*
X131509700Y-119160000D02*
X131862800Y-119236000D01*
X131355200Y-119064700D02*
X131509700Y-119160000D01*
X131139100Y-118931200D02*
X131355200Y-119064700D01*
X131043400Y-118881400D02*
X131010000Y-118869900D01*
X131108100Y-118912100D02*
X131043400Y-118881400D01*
X131139100Y-118931200D02*
X131108100Y-118912100D01*
X129840200Y-118465000D02*
X131010000Y-118869900D01*
X129679600Y-118409300D02*
X129840200Y-118465000D01*
X129410700Y-118203500D02*
X129679600Y-118409300D01*
X129220100Y-117923700D02*
X129410700Y-118203500D01*
X129126900Y-117598200D02*
X129220100Y-117923700D01*
X129133900Y-117428100D02*
X129126900Y-117598200D01*
X129143400Y-117199300D02*
X129133900Y-117428100D01*
X129009200Y-116743800D02*
X128878600Y-116648000D01*
X129150200Y-117037200D02*
X129009200Y-116743800D01*
X129143400Y-117199300D02*
X129150200Y-117037200D01*
X126869500Y-115172000D02*
X128878600Y-116648000D01*
X126819100Y-115135000D02*
X126869500Y-115172000D01*
X126726600Y-115051600D02*
X126819100Y-115135000D01*
X126685400Y-115006400D02*
X126726600Y-115051600D01*
X124814000Y-112952200D02*
X126685400Y-115006400D01*
X124814000Y-112952200D02*
X124705400Y-112837200D01*
X122272500Y-110350400D02*
X124705400Y-112837200D01*
X122169700Y-110250200D02*
X122134100Y-110218700D01*
X122240100Y-110317300D02*
X122169700Y-110250200D01*
X122272500Y-110350400D02*
X122240100Y-110317300D01*
X120049500Y-108374300D02*
X122134100Y-110218700D01*
X130062500Y-116712700D02*
X130184000Y-117471800D01*
X130051600Y-116644800D02*
X130062500Y-116712700D01*
X130047900Y-116505200D02*
X130051600Y-116644800D01*
X130055200Y-116435800D02*
X130047900Y-116505200D01*
X130543300Y-111831500D02*
X130055200Y-116435800D01*
X130547200Y-111678800D02*
X130540400Y-111628100D01*
X130548700Y-111781300D02*
X130547200Y-111678800D01*
X130543300Y-111831500D02*
X130548700Y-111781300D01*
X130299000Y-109840600D02*
X130540400Y-111628100D01*
X130283100Y-109724000D02*
X130299000Y-109840600D01*
X130304400Y-109487500D02*
X130283100Y-109724000D01*
X130340900Y-109375400D02*
X130304400Y-109487500D01*
X131340000Y-106300000D02*
X130340900Y-109375400D01*
X132760000Y-109438500D02*
X131100300Y-116546600D01*
X132767400Y-109406700D02*
X132760000Y-109438500D01*
X132786200Y-109343100D02*
X132767400Y-109406700D01*
X132797700Y-109311000D02*
X132786200Y-109343100D01*
X133880000Y-106300000D02*
X132797700Y-109311000D01*
X131872700Y-116258100D02*
X131538500Y-117334100D01*
X131887500Y-116210200D02*
X131872700Y-116258100D01*
X131932100Y-116119300D02*
X131887500Y-116210200D01*
X131960800Y-116078300D02*
X131932100Y-116119300D01*
X136420000Y-109700000D02*
X131960800Y-116078300D01*
X131307100Y-117942100D02*
X131907600Y-118170600D01*
X131183200Y-117895000D02*
X131307100Y-117942100D01*
X130991600Y-117710600D02*
X131183200Y-117895000D01*
X130939500Y-117587700D02*
X130991600Y-117710600D01*
X130783000Y-117218200D02*
X130939500Y-117587700D01*
X130699600Y-117071200D02*
X130660800Y-117029300D01*
X130760800Y-117165800D02*
X130699600Y-117071200D01*
X130783000Y-117218200D02*
X130760800Y-117165800D01*
X130623500Y-116989100D02*
X130660800Y-117029300D01*
X130524500Y-116882300D02*
X130623500Y-116989100D01*
X130436500Y-116606400D02*
X130524500Y-116882300D01*
X130455300Y-116462200D02*
X130436500Y-116606400D01*
X131340000Y-109700000D02*
X130455300Y-116462200D01*
X129441600Y-121283500D02*
X130307700Y-121936200D01*
X129408600Y-121258100D02*
X129441600Y-121283500D01*
X126858000Y-119261100D02*
X129408600Y-121258100D01*
X126801900Y-119217200D02*
X126858000Y-119261100D01*
X126690400Y-119119600D02*
X126801900Y-119217200D01*
X126637400Y-119067800D02*
X126690400Y-119119600D01*
X126453200Y-118887400D02*
X126637400Y-119067800D01*
X126283900Y-118749800D02*
X126220700Y-118715500D01*
X126400600Y-118836000D02*
X126283900Y-118749800D01*
X126453200Y-118887400D02*
X126400600Y-118836000D01*
X125472100Y-118307600D02*
X126220700Y-118715500D01*
X125389600Y-118262700D02*
X125472100Y-118307600D01*
X125256300Y-118129200D02*
X125389600Y-118262700D01*
X125211600Y-118046800D02*
X125256300Y-118129200D01*
X124051200Y-115909900D02*
X125211600Y-118046800D01*
X123919800Y-115696500D02*
X123868800Y-115630700D01*
X124011900Y-115837500D02*
X123919800Y-115696500D01*
X124051200Y-115909900D02*
X124011900Y-115837500D01*
X123141600Y-114694100D02*
X123868800Y-115630700D01*
X122949700Y-114476700D02*
X122878600Y-114414000D01*
X123082200Y-114617700D02*
X122949700Y-114476700D01*
X123141600Y-114694100D02*
X123082200Y-114617700D01*
X120376100Y-112205600D02*
X122878600Y-114414000D01*
X129470600Y-118735900D02*
X130797200Y-119484600D01*
X129423700Y-118709500D02*
X129470600Y-118735900D01*
X129335100Y-118650500D02*
X129423700Y-118709500D01*
X129293100Y-118617800D02*
X129335100Y-118650500D01*
X128094300Y-117685800D02*
X129293100Y-118617800D01*
X128060500Y-117659400D02*
X128094300Y-117685800D01*
X128000600Y-117598800D02*
X128060500Y-117659400D01*
X127974500Y-117564300D02*
X128000600Y-117598800D01*
X127261000Y-116620000D02*
X127974500Y-117564300D01*
X127060700Y-116391600D02*
X126984700Y-116326900D01*
X127200600Y-116539900D02*
X127060700Y-116391600D01*
X127261000Y-116620000D02*
X127200600Y-116539900D01*
X126279000Y-115725500D02*
X126984700Y-116326900D01*
X126229400Y-115683100D02*
X126279000Y-115725500D01*
X126136700Y-115593500D02*
X126229400Y-115683100D01*
X126093300Y-115545800D02*
X126136700Y-115593500D01*
X124221900Y-113491700D02*
X126093300Y-115545800D01*
X124221900Y-113491700D02*
X124132800Y-113397300D01*
X121700000Y-110910500D02*
X124132800Y-113397300D01*
X121530800Y-110755500D02*
X121467400Y-110709300D01*
X121645700Y-110855000D02*
X121530800Y-110755500D01*
X121700000Y-110910500D02*
X121645700Y-110855000D01*
X119430200Y-109223400D02*
X121467400Y-110709300D01*
X119345100Y-109161400D02*
X119430200Y-109223400D01*
X119202300Y-109005200D02*
X119345100Y-109161400D01*
X119148400Y-108915200D02*
X119202300Y-109005200D01*
X118684900Y-108143100D02*
X119148400Y-108915200D01*
X118684800Y-108142900D02*
X118684900Y-108143100D01*
X116203600Y-104007800D02*
X118684800Y-108142900D01*
X115517400Y-103206600D02*
X115211300Y-103028100D01*
X116021400Y-103704100D02*
X115517400Y-103206600D01*
X116203600Y-104007800D02*
X116021400Y-103704100D01*
X114224800Y-102453200D02*
X115211300Y-103028100D01*
X113976300Y-102326200D02*
X113886900Y-102292300D01*
X114143200Y-102405700D02*
X113976300Y-102326200D01*
X114224800Y-102453200D02*
X114143200Y-102405700D01*
X103295100Y-98289800D02*
X113886900Y-102292300D01*
X103216600Y-98262500D02*
X103190800Y-98255000D01*
X103269900Y-98280300D02*
X103216600Y-98262500D01*
X103295100Y-98289800D02*
X103269900Y-98280300D01*
X102520900Y-98060400D02*
X103190800Y-98255000D01*
X102472300Y-98046200D02*
X102520900Y-98060400D01*
X102378300Y-98008200D02*
X102472300Y-98046200D01*
X102333500Y-97984600D02*
X102378300Y-98008200D01*
X101412900Y-97499200D02*
X102333500Y-97984600D01*
X129088600Y-122654100D02*
X129709900Y-122612200D01*
X129052400Y-122656600D02*
X129088600Y-122654100D01*
X128980800Y-122653500D02*
X129052400Y-122656600D01*
X128946000Y-122648100D02*
X128980800Y-122653500D01*
X125513500Y-122120500D02*
X128946000Y-122648100D01*
X125396400Y-122107500D02*
X125356800Y-122106400D01*
X125474700Y-122114500D02*
X125396400Y-122107500D01*
X125513500Y-122120500D02*
X125474700Y-122114500D01*
X122851000Y-122039700D02*
X125356800Y-122106400D01*
X122772600Y-122037700D02*
X122851000Y-122039700D01*
X122617000Y-122004200D02*
X122772600Y-122037700D01*
X122544300Y-121973600D02*
X122617000Y-122004200D01*
X103911200Y-114145700D02*
X122544300Y-121973600D01*
X125198000Y-124197400D02*
X126743000Y-124428000D01*
X125153200Y-124190700D02*
X125198000Y-124197400D01*
X125064100Y-124167500D02*
X125153200Y-124190700D01*
X125021100Y-124151100D02*
X125064100Y-124167500D01*
X106998000Y-117291500D02*
X125021100Y-124151100D01*
X106727600Y-117215400D02*
X106634600Y-117206400D01*
X106911100Y-117258400D02*
X106727600Y-117215400D01*
X106998000Y-117291500D02*
X106911100Y-117258400D01*
X99831100Y-116549100D02*
X106634600Y-117206400D01*
X99796900Y-116545800D02*
X99831100Y-116549100D01*
X99731500Y-116523800D02*
X99796900Y-116545800D01*
X99702400Y-116505800D02*
X99731500Y-116523800D01*
X98070000Y-115500000D02*
X99702400Y-116505800D01*
X129991300Y-123198700D02*
X131210800Y-122613500D01*
X129899400Y-123242800D02*
X129991300Y-123198700D01*
X129696400Y-123270600D02*
X129899400Y-123242800D01*
X129596100Y-123252700D02*
X129696400Y-123270600D01*
X125472300Y-122519600D02*
X129596100Y-123252700D01*
X125378100Y-122507600D02*
X125346100Y-122506800D01*
X125441600Y-122514100D02*
X125378100Y-122507600D01*
X125472300Y-122519600D02*
X125441600Y-122514100D01*
X122840300Y-122440100D02*
X125346100Y-122506800D01*
X122735400Y-122437200D02*
X122840300Y-122440100D01*
X122531400Y-122397200D02*
X122735400Y-122437200D01*
X122433100Y-122360300D02*
X122531400Y-122397200D01*
X101465900Y-114468800D02*
X122433100Y-122360300D01*
X101391200Y-114450000D02*
X101365100Y-114449500D01*
X101441800Y-114459700D02*
X101391200Y-114450000D01*
X101465900Y-114468800D02*
X101441800Y-114459700D01*
X95549700Y-114350100D02*
X101365100Y-114449500D01*
X95135300Y-114410700D02*
X95009200Y-114474600D01*
X95408500Y-114347700D02*
X95135300Y-114410700D01*
X95549700Y-114350100D02*
X95408500Y-114347700D01*
X92990000Y-115500000D02*
X95009200Y-114474600D01*
D26*
X105500000Y-97100000D02*
X102800000Y-97100000D01*
X105750000Y-97100000D02*
X105500000Y-97100000D01*
X106500000Y-97400000D02*
X105750000Y-97100000D01*
D28*
X153000000Y-118100000D02*
X153500000Y-118600000D01*
X152500000Y-118100000D02*
X153000000Y-118100000D01*
X152427700Y-118100000D02*
X152500000Y-118100000D01*
X152288700Y-118058900D02*
X152427700Y-118100000D01*
X152227500Y-118019200D02*
X152288700Y-118058900D01*
X150118600Y-116648100D02*
X152227500Y-118019200D01*
X150080800Y-116623500D02*
X150118600Y-116648100D01*
X150011200Y-116570800D02*
X150080800Y-116623500D01*
X149978300Y-116542100D02*
X150011200Y-116570800D01*
X144403300Y-111680100D02*
X149978300Y-116542100D01*
X144400200Y-111677400D02*
X144403300Y-111680100D01*
X139376700Y-107266700D02*
X144400200Y-111677400D01*
X139325800Y-107224300D02*
X139308900Y-107211600D01*
X139360100Y-107252100D02*
X139325800Y-107224300D01*
X139376700Y-107266700D02*
X139360100Y-107252100D01*
X137900400Y-106152800D02*
X139308900Y-107211600D01*
X137681900Y-105988500D02*
X137900400Y-106152800D01*
X137421700Y-105506900D02*
X137681900Y-105988500D01*
X137404100Y-105234900D02*
X137421700Y-105506900D01*
X137252900Y-102918800D02*
X137404100Y-105234900D01*
X137242700Y-102761700D02*
X137252900Y-102918800D01*
X137270000Y-102450900D02*
X137242700Y-102761700D01*
X137307400Y-102297700D02*
X137270000Y-102450900D01*
X138163500Y-98801500D02*
X137307400Y-102297700D01*
X138243700Y-98473100D02*
X138163500Y-98801500D01*
X138616900Y-97908000D02*
X138243700Y-98473100D01*
X138889200Y-97703900D02*
X138616900Y-97908000D01*
X140637800Y-96395300D02*
X138889200Y-97703900D01*
X140715000Y-96337600D02*
X140637800Y-96395300D01*
X140880000Y-96236800D02*
X140715000Y-96337600D01*
X140966900Y-96194400D02*
X140880000Y-96236800D01*
X141995600Y-95692300D02*
X140966900Y-96194400D01*
X142069800Y-95656000D02*
X141995600Y-95692300D01*
X142227400Y-95603500D02*
X142069800Y-95656000D01*
X142308900Y-95587900D02*
X142227400Y-95603500D01*
X145235000Y-95027800D02*
X142308900Y-95587900D01*
X145235000Y-95027800D02*
X145248500Y-95025200D01*
X147806700Y-94506300D02*
X145248500Y-95025200D01*
X148029000Y-94461200D02*
X147806700Y-94506300D01*
X148477600Y-94533200D02*
X148029000Y-94461200D01*
X148674900Y-94645800D02*
X148477600Y-94533200D01*
X153500000Y-97400000D02*
X148674900Y-94645800D01*
D27*
X100287000Y-101500000D02*
X99752000Y-101220000D01*
X100387000Y-101500000D02*
X100287000Y-101500000D01*
X100407500Y-101500000D02*
X100387000Y-101500000D01*
X100445200Y-101516100D02*
X100407500Y-101500000D01*
X100459400Y-101531000D02*
X100445200Y-101516100D01*
X101858600Y-102997900D02*
X100459400Y-101531000D01*
X102500500Y-103391500D02*
X102756200Y-103400300D01*
X102034700Y-103182600D02*
X102500500Y-103391500D01*
X101858600Y-102997900D02*
X102034700Y-103182600D01*
X113112600Y-103749300D02*
X102756200Y-103400300D01*
X113193600Y-103752100D02*
X113112600Y-103749300D01*
X113348200Y-103796600D02*
X113193600Y-103752100D01*
X113418200Y-103837400D02*
X113348200Y-103796600D01*
X114404700Y-104412200D02*
X113418200Y-103837400D01*
X114535900Y-104488700D02*
X114404700Y-104412200D01*
X114751800Y-104701900D02*
X114535900Y-104488700D01*
X114829900Y-104832000D02*
X114751800Y-104701900D01*
X117311100Y-108967200D02*
X114829900Y-104832000D01*
X117311400Y-108967700D02*
X117311100Y-108967200D01*
X117774900Y-109739800D02*
X117311400Y-108967700D01*
X117875100Y-109895500D02*
X117910200Y-109943300D01*
X117805900Y-109791400D02*
X117875100Y-109895500D01*
X117774900Y-109739800D02*
X117805900Y-109791400D01*
X119851600Y-112590300D02*
X117910200Y-109943300D01*
X119954600Y-112703700D02*
X119996700Y-112734000D01*
X119881900Y-112631600D02*
X119954600Y-112703700D01*
X119851600Y-112590300D02*
X119881900Y-112631600D01*
X121563100Y-113858900D02*
X119996700Y-112734000D01*
X121644400Y-113921200D02*
X121563100Y-113858900D01*
X122565500Y-114673500D02*
X121644400Y-113921200D01*
X122637800Y-114732500D02*
X122565500Y-114673500D01*
X122768700Y-114866700D02*
X122637800Y-114732500D01*
X122825300Y-114939700D02*
X122768700Y-114866700D01*
X123552500Y-115876300D02*
X122825300Y-114939700D01*
X123593600Y-115929200D02*
X123552500Y-115876300D01*
X123667700Y-116042700D02*
X123593600Y-115929200D01*
X123699300Y-116101000D02*
X123667700Y-116042700D01*
X124859700Y-118237900D02*
X123699300Y-116101000D01*
X125147200Y-118586700D02*
X125280500Y-118659300D01*
X124931900Y-118371000D02*
X125147200Y-118586700D01*
X124859700Y-118237900D02*
X124931900Y-118371000D01*
X126029100Y-119067200D02*
X125280500Y-118659300D01*
X126069200Y-119089000D02*
X126029100Y-119067200D01*
X126142200Y-119143300D02*
X126069200Y-119089000D01*
X126174600Y-119175200D02*
X126142200Y-119143300D01*
X129044800Y-122005100D02*
X126174600Y-119175200D01*
X99217000Y-101500000D02*
X99752000Y-101220000D01*
X99117000Y-101500000D02*
X99217000Y-101500000D01*
X99111500Y-101500200D02*
X99117000Y-101500000D01*
X97305500Y-101599800D02*
X99111500Y-101500200D01*
X97300000Y-101600000D02*
X97305500Y-101599800D01*
X97200000Y-101600000D02*
X97300000Y-101600000D01*
X96760000Y-102000000D02*
X97200000Y-101600000D01*
X130880600Y-120932200D02*
X131816200Y-120878300D01*
X130616700Y-120947400D02*
X130880600Y-120932200D01*
X130111300Y-120789200D02*
X130616700Y-120947400D01*
X129903800Y-120626700D02*
X130111300Y-120789200D01*
X127352400Y-118630900D02*
X129903800Y-120626700D01*
X127258200Y-118557300D02*
X127352400Y-118630900D01*
X127088000Y-118384200D02*
X127258200Y-118557300D01*
X127015800Y-118288600D02*
X127088000Y-118384200D01*
X126302300Y-117344300D02*
X127015800Y-118288600D01*
X126232000Y-117264100D02*
X126205300Y-117241300D01*
X126281100Y-117316200D02*
X126232000Y-117264100D01*
X126302300Y-117344300D02*
X126281100Y-117316200D01*
X125499600Y-116639900D02*
X126205300Y-117241300D01*
X125421000Y-116572800D02*
X125499600Y-116639900D01*
X125274000Y-116430600D02*
X125421000Y-116572800D01*
X125205200Y-116355000D02*
X125274000Y-116430600D01*
X123333700Y-114300900D02*
X125205200Y-116355000D01*
X123333700Y-114300900D02*
X123273900Y-114237500D01*
X120841100Y-111750700D02*
X123273900Y-114237500D01*
X120781700Y-111696300D02*
X120759400Y-111680000D01*
X120822000Y-111731200D02*
X120781700Y-111696300D01*
X120841100Y-111750700D02*
X120822000Y-111731200D01*
X118722200Y-110194200D02*
X120759400Y-111680000D01*
X118539900Y-110061300D02*
X118722200Y-110194200D01*
X118233900Y-109726400D02*
X118539900Y-110061300D01*
X118118300Y-109533600D02*
X118233900Y-109726400D01*
X117654800Y-108761500D02*
X118118300Y-109533600D01*
X117654500Y-108761100D02*
X117654800Y-108761500D01*
X115173400Y-104626000D02*
X117654500Y-108761100D01*
X114781400Y-104168200D02*
X114606400Y-104066200D01*
X115069300Y-104452500D02*
X114781400Y-104168200D01*
X115173400Y-104626000D02*
X115069300Y-104452500D01*
X113619900Y-103491300D02*
X114606400Y-104066200D01*
X113257000Y-103353400D02*
X113126100Y-103349000D01*
X113506800Y-103425400D02*
X113257000Y-103353400D01*
X113619900Y-103491300D02*
X113506800Y-103425400D01*
X102769700Y-103000000D02*
X113126100Y-103349000D01*
X102554300Y-102992800D02*
X102769700Y-103000000D01*
X102176900Y-102785000D02*
X102554300Y-102992800D01*
X102055300Y-102606300D02*
X102176900Y-102785000D01*
X100469700Y-100273800D02*
X102055300Y-102606300D01*
X100411800Y-100230000D02*
X100387000Y-100230000D01*
X100455700Y-100253200D02*
X100411800Y-100230000D01*
X100469700Y-100273800D02*
X100455700Y-100253200D01*
X100287000Y-100230000D02*
X100387000Y-100230000D01*
X99752000Y-99950000D02*
X100287000Y-100230000D01*
X99217000Y-100175000D02*
X99752000Y-99950000D01*
X99117000Y-100175000D02*
X99217000Y-100175000D01*
X97300000Y-100175000D02*
X99117000Y-100175000D01*
X97200000Y-100175000D02*
X97300000Y-100175000D01*
X96760000Y-100400000D02*
X97200000Y-100175000D01*
X131857000Y-120229100D02*
X132478400Y-120268100D01*
X131604700Y-120257300D02*
X131528800Y-120294700D01*
X131771500Y-120223800D02*
X131604700Y-120257300D01*
X131857000Y-120229100D02*
X131771500Y-120223800D01*
X131261100Y-120426600D02*
X131528800Y-120294700D01*
X131127600Y-120492200D02*
X131261100Y-120426600D01*
X130837100Y-120544300D02*
X131127600Y-120492200D01*
X130541600Y-120513800D02*
X130837100Y-120544300D01*
X130266300Y-120402500D02*
X130541600Y-120513800D01*
X130150100Y-120311500D02*
X130266300Y-120402500D01*
X127599000Y-118315300D02*
X130150100Y-120311500D01*
X127525400Y-118257800D02*
X127599000Y-118315300D01*
X127392000Y-118122100D02*
X127525400Y-118257800D01*
X127335400Y-118047200D02*
X127392000Y-118122100D01*
X126621900Y-117102800D02*
X127335400Y-118047200D01*
X126508200Y-116973200D02*
X126465100Y-116936500D01*
X126587600Y-117057400D02*
X126508200Y-116973200D01*
X126621900Y-117102800D02*
X126587600Y-117057400D01*
X125759400Y-116335100D02*
X126465100Y-116936500D01*
X125690400Y-116276300D02*
X125759400Y-116335100D01*
X125561600Y-116151600D02*
X125690400Y-116276300D01*
X125501200Y-116085300D02*
X125561600Y-116151600D01*
X123629800Y-114031100D02*
X125501200Y-116085300D01*
X123629800Y-114031100D02*
X123560200Y-113957500D01*
X121127400Y-111470600D02*
X123560200Y-113957500D01*
X121031400Y-111382700D02*
X120995400Y-111356500D01*
X121096600Y-111439100D02*
X121031400Y-111382700D01*
X121127400Y-111470600D02*
X121096600Y-111439100D01*
X118958200Y-109870600D02*
X120995400Y-111356500D01*
X118808300Y-109761400D02*
X118958200Y-109870600D01*
X118556700Y-109486100D02*
X118808300Y-109761400D01*
X118461600Y-109327500D02*
X118556700Y-109486100D01*
X117998100Y-108555400D02*
X118461600Y-109327500D01*
X117997900Y-108555100D02*
X117998100Y-108555400D01*
X115516800Y-104419900D02*
X117997900Y-108555100D01*
X115026700Y-103847600D02*
X114808000Y-103720200D01*
X115386700Y-104203000D02*
X115026700Y-103847600D01*
X115516800Y-104419900D02*
X115386700Y-104203000D01*
X113821500Y-103145300D02*
X114808000Y-103720200D01*
X113478300Y-102995000D02*
X113354100Y-102972000D01*
X113714000Y-103082600D02*
X113478300Y-102995000D01*
X113821500Y-103145300D02*
X113714000Y-103082600D01*
X102545800Y-100977300D02*
X113354100Y-102972000D01*
X102338700Y-100939200D02*
X102545800Y-100977300D01*
X101963300Y-100742900D02*
X102338700Y-100939200D01*
X101813000Y-100593700D02*
X101963300Y-100742900D01*
X100974600Y-99760900D02*
X101813000Y-100593700D01*
X100949100Y-99735600D02*
X100974600Y-99760900D01*
X100904800Y-99680700D02*
X100949100Y-99735600D01*
X100885800Y-99651100D02*
X100904800Y-99680700D01*
X100471100Y-99005900D02*
X100885800Y-99651100D01*
X100412600Y-98960000D02*
X100387000Y-98960000D01*
X100457300Y-98984500D02*
X100412600Y-98960000D01*
X100471100Y-99005900D02*
X100457300Y-98984500D01*
X100287000Y-98960000D02*
X100387000Y-98960000D01*
X99752000Y-98680000D02*
X100287000Y-98960000D01*
X99217000Y-98740000D02*
X99752000Y-98680000D01*
X99117000Y-98740000D02*
X99217000Y-98740000D01*
X97300000Y-98740000D02*
X99117000Y-98740000D01*
X97200000Y-98740000D02*
X97300000Y-98740000D01*
X96760000Y-98800000D02*
X97200000Y-98740000D01*
X103354500Y-98767700D02*
X104737400Y-99689000D01*
X103144300Y-98657700D02*
X103068800Y-98636700D01*
X103289000Y-98724000D02*
X103144300Y-98657700D01*
X103354500Y-98767700D02*
X103289000Y-98724000D01*
X101238000Y-98125800D02*
X103068800Y-98636700D01*
X101201700Y-98115600D02*
X101238000Y-98125800D01*
X101131200Y-98086800D02*
X101201700Y-98115600D01*
X101098400Y-98068600D02*
X101131200Y-98086800D01*
X100435300Y-97702500D02*
X101098400Y-98068600D01*
X100399600Y-97690000D02*
X100387000Y-97690000D01*
X100424200Y-97696400D02*
X100399600Y-97690000D01*
X100435300Y-97702500D02*
X100424200Y-97696400D01*
X100287000Y-97690000D02*
X100387000Y-97690000D01*
X99752000Y-97410000D02*
X100287000Y-97690000D01*
X125422800Y-120218100D02*
X126258500Y-120643600D01*
X125357300Y-120184800D02*
X125422800Y-120218100D01*
X125244400Y-120090500D02*
X125357300Y-120184800D01*
X125199600Y-120031500D02*
X125244400Y-120090500D01*
X124307700Y-118855600D02*
X125199600Y-120031500D01*
X124265200Y-118799500D02*
X124307700Y-118855600D01*
X124189800Y-118682700D02*
X124265200Y-118799500D01*
X124155800Y-118620200D02*
X124189800Y-118682700D01*
X122995400Y-116483200D02*
X124155800Y-118620200D01*
X122941000Y-116394800D02*
X122919800Y-116367600D01*
X122979100Y-116453200D02*
X122941000Y-116394800D01*
X122995400Y-116483200D02*
X122979100Y-116453200D01*
X122192600Y-115431000D02*
X122919800Y-116367600D01*
X122096100Y-115324300D02*
X122058800Y-115293900D01*
X122163500Y-115393400D02*
X122096100Y-115324300D01*
X122192600Y-115431000D02*
X122163500Y-115393400D01*
X121137700Y-114541600D02*
X122058800Y-115293900D01*
X121137700Y-114541600D02*
X121095900Y-114509500D01*
X119529400Y-113384600D02*
X121095900Y-114509500D01*
X119435500Y-113317000D02*
X119529400Y-113384600D01*
X119273200Y-113156100D02*
X119435500Y-113317000D01*
X119205700Y-113064000D02*
X119273200Y-113156100D01*
X117264300Y-110417000D02*
X119205700Y-113064000D01*
X117218600Y-110354800D02*
X117264300Y-110417000D01*
X117128400Y-110219200D02*
X117218600Y-110354800D01*
X117088100Y-110152000D02*
X117128400Y-110219200D01*
X116624600Y-109379900D02*
X117088100Y-110152000D01*
X116624200Y-109379300D02*
X116624600Y-109379900D01*
X114143100Y-105244100D02*
X116624200Y-109379300D01*
X113905200Y-105049800D02*
X113800000Y-105049900D01*
X114088600Y-105153500D02*
X113905200Y-105049800D01*
X114143100Y-105244100D02*
X114088600Y-105153500D01*
X113090700Y-105049900D02*
X113800000Y-105049900D01*
X112993900Y-105049800D02*
X113090700Y-105049900D01*
X112810000Y-104994100D02*
X112993900Y-105049800D01*
X112730100Y-104940800D02*
X112810000Y-104994100D01*
X112013400Y-104463500D02*
X112730100Y-104940800D01*
X99217000Y-97305000D02*
X99752000Y-97410000D01*
X99117000Y-97305000D02*
X99217000Y-97305000D01*
X97300000Y-97305000D02*
X99117000Y-97305000D01*
X97200000Y-97305000D02*
X97300000Y-97305000D01*
X96760000Y-97200000D02*
X97200000Y-97305000D01*
X96196200Y-116809400D02*
X108457900Y-120862500D01*
X93464100Y-117681600D02*
X103314600Y-120566100D01*
X108548700Y-121506600D02*
X113025600Y-120875600D01*
X108517800Y-121511000D02*
X108548700Y-121506600D01*
X108454300Y-121513700D02*
X108517800Y-121511000D01*
X108422500Y-121512000D02*
X108454300Y-121513700D01*
X98878400Y-120992600D02*
X108422500Y-121512000D01*
D26*
X121306600Y-116552200D02*
X121521100Y-115952300D01*
X121251200Y-117086800D02*
X121318300Y-117256700D01*
X121245400Y-116723300D02*
X121251200Y-117086800D01*
X121306600Y-116552200D02*
X121245400Y-116723300D01*
X122873600Y-121189900D02*
X121318300Y-117256700D01*
X134231100Y-123404800D02*
X136932600Y-122835700D01*
X134208200Y-123409700D02*
X134231100Y-123404800D01*
X134161700Y-123417200D02*
X134208200Y-123409700D01*
X134137400Y-123420000D02*
X134161700Y-123417200D01*
X129856200Y-123904500D02*
X134137400Y-123420000D01*
X129776200Y-123913600D02*
X129856200Y-123904500D01*
X129614900Y-123911800D02*
X129776200Y-123913600D01*
X129533800Y-123900800D02*
X129614900Y-123911800D01*
X126864800Y-123536200D02*
X129533800Y-123900800D01*
X126864800Y-123536200D02*
X126847100Y-123533900D01*
X125323500Y-123356600D02*
X126847100Y-123533900D01*
X137969600Y-121529000D02*
X136932600Y-122835700D01*
X138133200Y-121247000D02*
X138158800Y-121140200D01*
X138037200Y-121443900D02*
X138133200Y-121247000D01*
X137969600Y-121529000D02*
X138037200Y-121443900D01*
X139346000Y-116181500D02*
X138158800Y-121140200D01*
X141603400Y-97071800D02*
X142543900Y-96815700D01*
X141342300Y-97179600D02*
X141267000Y-97236100D01*
X141512200Y-97096700D02*
X141342300Y-97179600D01*
X141603400Y-97071800D02*
X141512200Y-97096700D01*
X139518400Y-98544700D02*
X141267000Y-97236100D01*
X139149800Y-99259100D02*
X139164600Y-99377200D01*
X139182800Y-99022800D02*
X139149800Y-99259100D01*
X139276100Y-98803300D02*
X139182800Y-99022800D01*
X139423500Y-98615600D02*
X139276100Y-98803300D01*
X139518400Y-98544700D02*
X139423500Y-98615600D01*
X139314100Y-100570600D02*
X139164600Y-99377200D01*
X145408900Y-106847500D02*
X146940400Y-104559400D01*
X142543900Y-96815700D02*
X147986700Y-96873900D01*
X138310300Y-102937500D02*
X138651500Y-105153500D01*
X138286200Y-102781000D02*
X138310300Y-102937500D01*
X138337100Y-102468300D02*
X138286200Y-102781000D01*
X138409600Y-102327500D02*
X138337100Y-102468300D01*
X139314100Y-100570600D02*
X138409600Y-102327500D01*
X144231700Y-106141500D02*
X145408900Y-106847500D01*
X143973100Y-106027700D02*
X143879400Y-106012300D01*
X144150600Y-106092900D02*
X143973100Y-106027700D01*
X144231700Y-106141500D02*
X144150600Y-106092900D01*
X138651500Y-105153500D02*
X143879400Y-106012300D01*
D27*
X100287000Y-95999900D02*
X99752000Y-96140000D01*
X100387000Y-95999900D02*
X100287000Y-95999900D01*
X107500000Y-95999900D02*
X100387000Y-95999900D01*
X107602500Y-96000000D02*
X107500000Y-95999900D01*
X107782000Y-96098300D02*
X107602500Y-96000000D01*
X107837300Y-96184900D02*
X107782000Y-96098300D01*
X109357700Y-98568700D02*
X107837300Y-96184900D01*
X114031500Y-104683600D02*
X113090700Y-104399400D01*
X114174000Y-104726600D02*
X114031500Y-104683600D01*
X114409300Y-104909700D02*
X114174000Y-104726600D01*
X114486500Y-105038100D02*
X114409300Y-104909700D01*
X116967700Y-109173200D02*
X114486500Y-105038100D01*
X116968000Y-109173800D02*
X116967700Y-109173200D01*
X117431500Y-109945900D02*
X116968000Y-109173800D01*
X117546800Y-110125200D02*
X117587200Y-110180200D01*
X117467100Y-110005300D02*
X117546800Y-110125200D01*
X117431500Y-109945900D02*
X117467100Y-110005300D01*
X119528600Y-112827200D02*
X117587200Y-110180200D01*
X119695000Y-113010400D02*
X119763000Y-113059300D01*
X119577500Y-112893900D02*
X119695000Y-113010400D01*
X119528600Y-112827200D02*
X119577500Y-112893900D01*
X121329500Y-114184200D02*
X119763000Y-113059300D01*
X121391100Y-114231400D02*
X121329500Y-114184200D01*
X122312200Y-114983700D02*
X121391100Y-114231400D01*
X122366900Y-115028400D02*
X122312200Y-114983700D01*
X122466000Y-115130000D02*
X122366900Y-115028400D01*
X122508900Y-115185300D02*
X122466000Y-115130000D01*
X123236100Y-116121900D02*
X122508900Y-115185300D01*
X123267200Y-116162000D02*
X123236100Y-116121900D01*
X123323400Y-116247900D02*
X123267200Y-116162000D01*
X123347300Y-116292100D02*
X123323400Y-116247900D01*
X124507700Y-118429100D02*
X123347300Y-116292100D01*
X124716300Y-118728100D02*
X124807000Y-118810500D01*
X124565900Y-118536200D02*
X124716300Y-118728100D01*
X124507700Y-118429100D02*
X124565900Y-118536200D01*
X125717900Y-119638400D02*
X124807000Y-118810500D01*
X99217000Y-95870000D02*
X99752000Y-96140000D01*
X99117000Y-95870000D02*
X99217000Y-95870000D01*
X97300000Y-95870000D02*
X99117000Y-95870000D01*
X97200000Y-95870000D02*
X97300000Y-95870000D01*
X96760000Y-95600000D02*
X97200000Y-95870000D01*
X127310800Y-116080900D02*
X128493500Y-117172200D01*
X127310800Y-116080900D02*
X127244500Y-116022100D01*
X126538800Y-115420700D02*
X127244500Y-116022100D01*
X126498900Y-115386600D02*
X126538800Y-115420700D01*
X126424300Y-115314500D02*
X126498900Y-115386600D01*
X126389400Y-115276100D02*
X126424300Y-115314500D01*
X124517900Y-113222000D02*
X126389400Y-115276100D01*
X124517900Y-113222000D02*
X124419100Y-113117300D01*
X121986200Y-110630400D02*
X124419100Y-113117300D01*
X121780400Y-110441900D02*
X121703400Y-110385700D01*
X121920200Y-110562900D02*
X121780400Y-110441900D01*
X121986200Y-110630400D02*
X121920200Y-110562900D01*
X119666200Y-108899900D02*
X121703400Y-110385700D01*
X119613600Y-108861500D02*
X119666200Y-108899900D01*
X119525200Y-108764800D02*
X119613600Y-108861500D01*
X119491800Y-108709100D02*
X119525200Y-108764800D01*
X119028300Y-107937000D02*
X119491800Y-108709100D01*
X119028200Y-107936900D02*
X119028300Y-107937000D01*
X116547000Y-103801700D02*
X119028200Y-107936900D01*
X116138800Y-103248700D02*
X115967200Y-103090700D01*
X116428900Y-103604800D02*
X116138800Y-103248700D01*
X116547000Y-103801700D02*
X116428900Y-103604800D01*
X108041600Y-95810400D02*
X115967200Y-103090700D01*
X107687800Y-95609700D02*
X107550300Y-95601000D01*
X107940900Y-95717700D02*
X107687800Y-95609700D01*
X108041600Y-95810400D02*
X107940900Y-95717700D01*
X100393300Y-95150200D02*
X107550300Y-95601000D01*
X100387000Y-95150000D02*
X100393300Y-95150200D01*
X100287000Y-95150000D02*
X100387000Y-95150000D01*
X99752000Y-94870000D02*
X100287000Y-95150000D01*
X99217000Y-94590000D02*
X99752000Y-94870000D01*
X99217000Y-94490000D02*
X99217000Y-94590000D01*
X99158400Y-94390000D02*
X99117000Y-94390000D01*
X99217000Y-94448600D02*
X99158400Y-94390000D01*
X99217000Y-94490000D02*
X99217000Y-94448600D01*
X97300000Y-94390000D02*
X99117000Y-94390000D01*
X97200000Y-94390000D02*
X97300000Y-94390000D01*
X96760000Y-94000000D02*
X97200000Y-94390000D01*
X133667200Y-117533900D02*
X133731500Y-116868900D01*
X133663200Y-117575100D02*
X133667200Y-117533900D01*
X133644500Y-117657100D02*
X133663200Y-117575100D01*
X133629900Y-117696600D02*
X133644500Y-117657100D01*
X133269200Y-118673400D02*
X133629900Y-117696600D01*
X133215200Y-118819800D02*
X133269200Y-118673400D01*
X133046900Y-119083400D02*
X133215200Y-118819800D01*
X132826200Y-119305200D02*
X133046900Y-119083400D01*
X132563500Y-119474800D02*
X132826200Y-119305200D01*
X132418200Y-119529300D02*
X132563500Y-119474800D01*
X131446500Y-119894500D02*
X132418200Y-119529300D01*
X131373600Y-119924700D02*
X131350300Y-119936200D01*
X131422500Y-119903500D02*
X131373600Y-119924700D01*
X131446500Y-119894500D02*
X131422500Y-119903500D01*
X131085300Y-120067200D02*
X131350300Y-119936200D01*
X130917600Y-120150200D02*
X131085300Y-120067200D01*
X130544300Y-120112000D02*
X130917600Y-120150200D01*
X130396600Y-119996400D02*
X130544300Y-120112000D01*
X127845700Y-117999800D02*
X130396600Y-119996400D01*
X127792500Y-117958300D02*
X127845700Y-117999800D01*
X127695900Y-117860000D02*
X127792500Y-117958300D01*
X127654900Y-117805800D02*
X127695900Y-117860000D01*
X126941400Y-116861400D02*
X127654900Y-117805800D01*
X126784400Y-116682400D02*
X126724900Y-116631700D01*
X126894000Y-116798700D02*
X126784400Y-116682400D01*
X126941400Y-116861400D02*
X126894000Y-116798700D01*
X126019200Y-116030300D02*
X126724900Y-116631700D01*
X125959900Y-115979700D02*
X126019200Y-116030300D01*
X125849200Y-115872500D02*
X125959900Y-115979700D01*
X125797300Y-115815500D02*
X125849200Y-115872500D01*
X123925800Y-113761400D02*
X125797300Y-115815500D01*
X123925800Y-113761400D02*
X123846500Y-113677400D01*
X121413700Y-111190600D02*
X123846500Y-113677400D01*
X121281100Y-111069200D02*
X121231400Y-111032900D01*
X121371100Y-111147100D02*
X121281100Y-111069200D01*
X121413700Y-111190600D02*
X121371100Y-111147100D01*
X119194200Y-109547000D02*
X121231400Y-111032900D01*
X119076700Y-109461400D02*
X119194200Y-109547000D01*
X118879500Y-109245700D02*
X119076700Y-109461400D01*
X118805000Y-109121400D02*
X118879500Y-109245700D01*
X118341500Y-108349300D02*
X118805000Y-109121400D01*
X118341400Y-108349000D02*
X118341500Y-108349300D01*
X115860200Y-104213800D02*
X118341400Y-108349000D01*
X115272100Y-103527000D02*
X115009700Y-103374100D01*
X115704000Y-103953500D02*
X115272100Y-103527000D01*
X115860200Y-104213800D02*
X115704000Y-103953500D01*
X114023200Y-102799300D02*
X115009700Y-103374100D01*
X113585400Y-102607500D02*
X113426800Y-102578200D01*
X113886100Y-102719200D02*
X113585400Y-102607500D01*
X114023200Y-102799300D02*
X113886100Y-102719200D01*
X102618500Y-100583500D02*
X113426800Y-102578200D01*
X102412100Y-100545600D02*
X102618500Y-100583500D01*
X102063500Y-100308600D02*
X102412100Y-100545600D01*
X101951800Y-100129900D02*
X102063500Y-100308600D01*
X101433000Y-99299400D02*
X101951800Y-100129900D01*
X113097800Y-121522100D02*
X115347600Y-121270700D01*
X113080800Y-121523800D02*
X113097800Y-121522100D01*
X108547000Y-121909700D02*
X113080800Y-121523800D01*
X108523100Y-121911700D02*
X108547000Y-121909700D01*
X108477300Y-121913600D02*
X108523100Y-121911700D01*
X108453400Y-121913500D02*
X108477300Y-121913600D01*
X100282600Y-121878400D02*
X108453400Y-121913500D01*
D29*
G36*
X143788578Y-112373997D02*
X143788723Y-112374101D01*
X143791364Y-112376434D01*
X143794464Y-112379134D01*
X143794469Y-112379138D01*
X149368901Y-117240643D01*
X149368919Y-117240659D01*
X149401819Y-117269359D01*
X149422728Y-117284273D01*
X149441344Y-117301959D01*
X149451608Y-117309844D01*
X149521208Y-117362544D01*
X149543849Y-117376436D01*
X149564363Y-117393320D01*
X149575162Y-117400455D01*
X149612962Y-117425055D01*
X149612986Y-117425067D01*
X149613314Y-117425284D01*
X151722214Y-118796384D01*
X151722270Y-118796413D01*
X151723011Y-118796901D01*
X151784211Y-118836602D01*
X151816582Y-118853361D01*
X151846771Y-118873779D01*
X151896728Y-118894853D01*
X151944875Y-118919779D01*
X151979877Y-118929929D01*
X152013465Y-118944098D01*
X152025851Y-118947854D01*
X152070934Y-118961184D01*
X152070934Y-119600000D01*
X152076356Y-119667998D01*
X152112073Y-119783330D01*
X152178506Y-119884146D01*
X152270395Y-119962463D01*
X152380465Y-120012079D01*
X152500000Y-120029066D01*
X154500000Y-120029066D01*
X154567998Y-120023644D01*
X154683330Y-119987927D01*
X154784146Y-119921494D01*
X154862463Y-119829605D01*
X154873000Y-119806229D01*
X154873000Y-125023000D01*
X127244945Y-125023000D01*
X127334031Y-124938165D01*
X127421867Y-124813650D01*
X127483844Y-124674446D01*
X127517603Y-124525855D01*
X127520034Y-124351811D01*
X127511321Y-124307806D01*
X129442169Y-124571570D01*
X129442209Y-124571572D01*
X129442808Y-124571657D01*
X129523909Y-124582657D01*
X129561031Y-124584034D01*
X129597895Y-124588586D01*
X129607346Y-124588758D01*
X129768646Y-124590558D01*
X129805914Y-124587323D01*
X129843316Y-124587265D01*
X129852715Y-124586262D01*
X129932303Y-124577209D01*
X129932330Y-124577206D01*
X134213530Y-124092706D01*
X134213610Y-124092689D01*
X134214895Y-124092550D01*
X134239196Y-124089750D01*
X134249566Y-124087513D01*
X134260158Y-124087002D01*
X134269500Y-124085562D01*
X134316000Y-124078062D01*
X134328120Y-124074868D01*
X134340597Y-124073628D01*
X134349854Y-124071715D01*
X134371903Y-124066997D01*
X136523016Y-123613842D01*
X136660281Y-123673812D01*
X136828257Y-123710744D01*
X137000208Y-123714346D01*
X137169584Y-123684480D01*
X137329933Y-123622285D01*
X137475147Y-123530129D01*
X137599697Y-123411522D01*
X137698836Y-123270983D01*
X137768790Y-123113864D01*
X137806894Y-122946149D01*
X137808643Y-122820882D01*
X138499637Y-121950176D01*
X138499704Y-121950093D01*
X138567304Y-121864993D01*
X138568819Y-121862648D01*
X138570743Y-121860627D01*
X138604634Y-121807206D01*
X138638999Y-121754009D01*
X138640030Y-121751412D01*
X138641524Y-121749058D01*
X138645726Y-121740591D01*
X138741726Y-121543691D01*
X138742785Y-121540841D01*
X138744355Y-121538237D01*
X138765801Y-121478928D01*
X138787764Y-121419844D01*
X138788249Y-121416844D01*
X138789284Y-121413983D01*
X138791551Y-121404807D01*
X138817151Y-121298007D01*
X138817153Y-121297994D01*
X138817193Y-121297831D01*
X139873604Y-116885412D01*
X139888547Y-116875929D01*
X140013097Y-116757322D01*
X140112236Y-116616783D01*
X140182190Y-116459664D01*
X140220294Y-116291949D01*
X140223037Y-116095506D01*
X140189631Y-115926793D01*
X140124091Y-115767781D01*
X140028914Y-115624529D01*
X139907725Y-115502491D01*
X139765141Y-115406316D01*
X139606591Y-115339668D01*
X139438115Y-115305085D01*
X139266131Y-115303884D01*
X139097189Y-115336111D01*
X138937724Y-115400539D01*
X138793810Y-115494714D01*
X138670929Y-115615048D01*
X138573761Y-115756958D01*
X138506007Y-115915039D01*
X138470249Y-116083269D01*
X138467848Y-116255241D01*
X138498895Y-116424403D01*
X138556736Y-116570493D01*
X137500453Y-120982375D01*
X137500449Y-120982393D01*
X137492149Y-121017019D01*
X137461089Y-121080723D01*
X137439496Y-121107907D01*
X137439484Y-121107926D01*
X137439301Y-121108153D01*
X136749107Y-121977851D01*
X136683789Y-121990311D01*
X136524324Y-122054739D01*
X136380410Y-122148914D01*
X136257529Y-122269248D01*
X136244083Y-122288885D01*
X134091546Y-122742340D01*
X134091438Y-122742374D01*
X134089446Y-122742786D01*
X134083390Y-122744082D01*
X134069011Y-122746401D01*
X134060646Y-122747365D01*
X131892526Y-122992729D01*
X131951644Y-122859946D01*
X131985403Y-122711355D01*
X131987834Y-122537311D01*
X131958237Y-122387836D01*
X131900170Y-122246955D01*
X131815846Y-122120037D01*
X131759853Y-122063652D01*
X131764364Y-122064435D01*
X131778554Y-122065489D01*
X131792443Y-122068533D01*
X131829730Y-122069290D01*
X131866935Y-122072053D01*
X131881054Y-122070331D01*
X131895275Y-122070620D01*
X131932008Y-122064118D01*
X131969030Y-122059604D01*
X131982543Y-122055174D01*
X131996552Y-122052694D01*
X132003624Y-122050661D01*
X132295124Y-121964661D01*
X132308295Y-121959329D01*
X132322091Y-121955910D01*
X132355886Y-121940065D01*
X132390462Y-121926069D01*
X132402342Y-121918284D01*
X132415216Y-121912248D01*
X132445290Y-121890140D01*
X132476488Y-121869696D01*
X132486632Y-121859749D01*
X132498086Y-121851329D01*
X132503526Y-121846375D01*
X132614118Y-121744251D01*
X132958404Y-121427000D01*
X134900000Y-121427000D01*
X134946159Y-121418315D01*
X134988553Y-121391035D01*
X135016994Y-121349410D01*
X135027000Y-121300000D01*
X135027000Y-117300000D01*
X135018315Y-117253841D01*
X134991035Y-117211447D01*
X134949410Y-117183006D01*
X134900000Y-117173000D01*
X134446675Y-117173000D01*
X134472344Y-117115346D01*
X134506103Y-116966755D01*
X134508534Y-116792711D01*
X134478937Y-116643236D01*
X134420870Y-116502355D01*
X134336546Y-116375437D01*
X134229175Y-116267314D01*
X134102848Y-116182106D01*
X133962377Y-116123057D01*
X133813112Y-116092417D01*
X133660738Y-116091353D01*
X133511059Y-116119906D01*
X133369777Y-116176988D01*
X133247595Y-116256941D01*
X133241337Y-116225336D01*
X133183270Y-116084455D01*
X133098946Y-115957537D01*
X132991575Y-115849414D01*
X132865248Y-115764206D01*
X132832913Y-115750613D01*
X134017199Y-114056646D01*
X133999106Y-114141770D01*
X133996978Y-114294132D01*
X134024485Y-114444007D01*
X134080579Y-114585684D01*
X134163123Y-114713767D01*
X134268974Y-114823379D01*
X134394099Y-114910343D01*
X134533732Y-114971347D01*
X134682555Y-115004068D01*
X134834899Y-115007259D01*
X134984962Y-114980799D01*
X135127027Y-114925695D01*
X135255684Y-114844047D01*
X135366031Y-114738965D01*
X135453867Y-114614450D01*
X135515844Y-114475246D01*
X135549603Y-114326655D01*
X135552034Y-114152611D01*
X135527615Y-114029288D01*
X137749594Y-110548885D01*
X137749652Y-110548772D01*
X137751463Y-110545936D01*
X137760963Y-110530836D01*
X137761006Y-110530750D01*
X137763836Y-110526217D01*
X138767664Y-108893513D01*
X138827862Y-108882899D01*
X138969927Y-108827795D01*
X139098584Y-108746147D01*
X139208931Y-108641065D01*
X139296767Y-108516550D01*
X139324431Y-108454416D01*
X143788578Y-112373997D01*
X143788578Y-112373997D01*
G37*
X143788578Y-112373997D02*
X143788723Y-112374101D01*
X143791364Y-112376434D01*
X143794464Y-112379134D01*
X143794469Y-112379138D01*
X149368901Y-117240643D01*
X149368919Y-117240659D01*
X149401819Y-117269359D01*
X149422728Y-117284273D01*
X149441344Y-117301959D01*
X149451608Y-117309844D01*
X149521208Y-117362544D01*
X149543849Y-117376436D01*
X149564363Y-117393320D01*
X149575162Y-117400455D01*
X149612962Y-117425055D01*
X149612986Y-117425067D01*
X149613314Y-117425284D01*
X151722214Y-118796384D01*
X151722270Y-118796413D01*
X151723011Y-118796901D01*
X151784211Y-118836602D01*
X151816582Y-118853361D01*
X151846771Y-118873779D01*
X151896728Y-118894853D01*
X151944875Y-118919779D01*
X151979877Y-118929929D01*
X152013465Y-118944098D01*
X152025851Y-118947854D01*
X152070934Y-118961184D01*
X152070934Y-119600000D01*
X152076356Y-119667998D01*
X152112073Y-119783330D01*
X152178506Y-119884146D01*
X152270395Y-119962463D01*
X152380465Y-120012079D01*
X152500000Y-120029066D01*
X154500000Y-120029066D01*
X154567998Y-120023644D01*
X154683330Y-119987927D01*
X154784146Y-119921494D01*
X154862463Y-119829605D01*
X154873000Y-119806229D01*
X154873000Y-125023000D01*
X127244945Y-125023000D01*
X127334031Y-124938165D01*
X127421867Y-124813650D01*
X127483844Y-124674446D01*
X127517603Y-124525855D01*
X127520034Y-124351811D01*
X127511321Y-124307806D01*
X129442169Y-124571570D01*
X129442209Y-124571572D01*
X129442808Y-124571657D01*
X129523909Y-124582657D01*
X129561031Y-124584034D01*
X129597895Y-124588586D01*
X129607346Y-124588758D01*
X129768646Y-124590558D01*
X129805914Y-124587323D01*
X129843316Y-124587265D01*
X129852715Y-124586262D01*
X129932303Y-124577209D01*
X129932330Y-124577206D01*
X134213530Y-124092706D01*
X134213610Y-124092689D01*
X134214895Y-124092550D01*
X134239196Y-124089750D01*
X134249566Y-124087513D01*
X134260158Y-124087002D01*
X134269500Y-124085562D01*
X134316000Y-124078062D01*
X134328120Y-124074868D01*
X134340597Y-124073628D01*
X134349854Y-124071715D01*
X134371903Y-124066997D01*
X136523016Y-123613842D01*
X136660281Y-123673812D01*
X136828257Y-123710744D01*
X137000208Y-123714346D01*
X137169584Y-123684480D01*
X137329933Y-123622285D01*
X137475147Y-123530129D01*
X137599697Y-123411522D01*
X137698836Y-123270983D01*
X137768790Y-123113864D01*
X137806894Y-122946149D01*
X137808643Y-122820882D01*
X138499637Y-121950176D01*
X138499704Y-121950093D01*
X138567304Y-121864993D01*
X138568819Y-121862648D01*
X138570743Y-121860627D01*
X138604634Y-121807206D01*
X138638999Y-121754009D01*
X138640030Y-121751412D01*
X138641524Y-121749058D01*
X138645726Y-121740591D01*
X138741726Y-121543691D01*
X138742785Y-121540841D01*
X138744355Y-121538237D01*
X138765801Y-121478928D01*
X138787764Y-121419844D01*
X138788249Y-121416844D01*
X138789284Y-121413983D01*
X138791551Y-121404807D01*
X138817151Y-121298007D01*
X138817153Y-121297994D01*
X138817193Y-121297831D01*
X139873604Y-116885412D01*
X139888547Y-116875929D01*
X140013097Y-116757322D01*
X140112236Y-116616783D01*
X140182190Y-116459664D01*
X140220294Y-116291949D01*
X140223037Y-116095506D01*
X140189631Y-115926793D01*
X140124091Y-115767781D01*
X140028914Y-115624529D01*
X139907725Y-115502491D01*
X139765141Y-115406316D01*
X139606591Y-115339668D01*
X139438115Y-115305085D01*
X139266131Y-115303884D01*
X139097189Y-115336111D01*
X138937724Y-115400539D01*
X138793810Y-115494714D01*
X138670929Y-115615048D01*
X138573761Y-115756958D01*
X138506007Y-115915039D01*
X138470249Y-116083269D01*
X138467848Y-116255241D01*
X138498895Y-116424403D01*
X138556736Y-116570493D01*
X137500453Y-120982375D01*
X137500449Y-120982393D01*
X137492149Y-121017019D01*
X137461089Y-121080723D01*
X137439496Y-121107907D01*
X137439484Y-121107926D01*
X137439301Y-121108153D01*
X136749107Y-121977851D01*
X136683789Y-121990311D01*
X136524324Y-122054739D01*
X136380410Y-122148914D01*
X136257529Y-122269248D01*
X136244083Y-122288885D01*
X134091546Y-122742340D01*
X134091438Y-122742374D01*
X134089446Y-122742786D01*
X134083390Y-122744082D01*
X134069011Y-122746401D01*
X134060646Y-122747365D01*
X131892526Y-122992729D01*
X131951644Y-122859946D01*
X131985403Y-122711355D01*
X131987834Y-122537311D01*
X131958237Y-122387836D01*
X131900170Y-122246955D01*
X131815846Y-122120037D01*
X131759853Y-122063652D01*
X131764364Y-122064435D01*
X131778554Y-122065489D01*
X131792443Y-122068533D01*
X131829730Y-122069290D01*
X131866935Y-122072053D01*
X131881054Y-122070331D01*
X131895275Y-122070620D01*
X131932008Y-122064118D01*
X131969030Y-122059604D01*
X131982543Y-122055174D01*
X131996552Y-122052694D01*
X132003624Y-122050661D01*
X132295124Y-121964661D01*
X132308295Y-121959329D01*
X132322091Y-121955910D01*
X132355886Y-121940065D01*
X132390462Y-121926069D01*
X132402342Y-121918284D01*
X132415216Y-121912248D01*
X132445290Y-121890140D01*
X132476488Y-121869696D01*
X132486632Y-121859749D01*
X132498086Y-121851329D01*
X132503526Y-121846375D01*
X132614118Y-121744251D01*
X132958404Y-121427000D01*
X134900000Y-121427000D01*
X134946159Y-121418315D01*
X134988553Y-121391035D01*
X135016994Y-121349410D01*
X135027000Y-121300000D01*
X135027000Y-117300000D01*
X135018315Y-117253841D01*
X134991035Y-117211447D01*
X134949410Y-117183006D01*
X134900000Y-117173000D01*
X134446675Y-117173000D01*
X134472344Y-117115346D01*
X134506103Y-116966755D01*
X134508534Y-116792711D01*
X134478937Y-116643236D01*
X134420870Y-116502355D01*
X134336546Y-116375437D01*
X134229175Y-116267314D01*
X134102848Y-116182106D01*
X133962377Y-116123057D01*
X133813112Y-116092417D01*
X133660738Y-116091353D01*
X133511059Y-116119906D01*
X133369777Y-116176988D01*
X133247595Y-116256941D01*
X133241337Y-116225336D01*
X133183270Y-116084455D01*
X133098946Y-115957537D01*
X132991575Y-115849414D01*
X132865248Y-115764206D01*
X132832913Y-115750613D01*
X134017199Y-114056646D01*
X133999106Y-114141770D01*
X133996978Y-114294132D01*
X134024485Y-114444007D01*
X134080579Y-114585684D01*
X134163123Y-114713767D01*
X134268974Y-114823379D01*
X134394099Y-114910343D01*
X134533732Y-114971347D01*
X134682555Y-115004068D01*
X134834899Y-115007259D01*
X134984962Y-114980799D01*
X135127027Y-114925695D01*
X135255684Y-114844047D01*
X135366031Y-114738965D01*
X135453867Y-114614450D01*
X135515844Y-114475246D01*
X135549603Y-114326655D01*
X135552034Y-114152611D01*
X135527615Y-114029288D01*
X137749594Y-110548885D01*
X137749652Y-110548772D01*
X137751463Y-110545936D01*
X137760963Y-110530836D01*
X137761006Y-110530750D01*
X137763836Y-110526217D01*
X138767664Y-108893513D01*
X138827862Y-108882899D01*
X138969927Y-108827795D01*
X139098584Y-108746147D01*
X139208931Y-108641065D01*
X139296767Y-108516550D01*
X139324431Y-108454416D01*
X143788578Y-112373997D01*
G36*
X154873000Y-96987046D02*
X154872705Y-96985556D01*
X154766063Y-96726822D01*
X154611197Y-96493730D01*
X154414005Y-96295157D01*
X154182000Y-96138668D01*
X153924017Y-96030222D01*
X153649884Y-95973950D01*
X153370041Y-95971996D01*
X153095149Y-96024435D01*
X153016073Y-96056384D01*
X149134443Y-93840723D01*
X149134440Y-93840722D01*
X149134382Y-93840688D01*
X148937081Y-93728088D01*
X148873659Y-93699700D01*
X148811591Y-93668458D01*
X148791233Y-93662805D01*
X148771950Y-93654174D01*
X148704228Y-93638647D01*
X148637268Y-93620054D01*
X148624503Y-93617914D01*
X148175903Y-93545914D01*
X148106612Y-93541654D01*
X148037600Y-93534240D01*
X148016484Y-93536113D01*
X147995325Y-93534812D01*
X147926540Y-93544090D01*
X147857389Y-93550223D01*
X147844686Y-93552708D01*
X147622386Y-93597808D01*
X147622383Y-93597809D01*
X145068733Y-94115786D01*
X145059688Y-94117528D01*
X145059687Y-94117528D01*
X142134659Y-94677423D01*
X142134626Y-94677429D01*
X142053126Y-94693029D01*
X142000449Y-94708569D01*
X141946732Y-94720010D01*
X141934424Y-94724015D01*
X141776824Y-94776515D01*
X141726251Y-94799057D01*
X141674096Y-94817699D01*
X141662430Y-94823306D01*
X141588255Y-94859594D01*
X140560288Y-95361336D01*
X140560284Y-95361339D01*
X140473506Y-95403679D01*
X140441691Y-95423259D01*
X140407824Y-95439066D01*
X140396732Y-95445736D01*
X140231732Y-95546537D01*
X140202285Y-95568744D01*
X140170453Y-95587401D01*
X140160032Y-95595078D01*
X140082832Y-95652778D01*
X140082808Y-95652800D01*
X140082374Y-95653120D01*
X138333774Y-96961720D01*
X138333738Y-96961753D01*
X138333218Y-96962137D01*
X138060918Y-97166237D01*
X138014937Y-97208301D01*
X137966480Y-97247483D01*
X137948331Y-97269234D01*
X137927431Y-97288354D01*
X137890500Y-97338544D01*
X137850572Y-97386396D01*
X137843364Y-97397146D01*
X137470164Y-97962246D01*
X137441012Y-98017442D01*
X137408569Y-98070751D01*
X137398856Y-98097260D01*
X137385671Y-98122223D01*
X137367800Y-98182011D01*
X137346323Y-98240625D01*
X137343165Y-98253177D01*
X137262965Y-98581576D01*
X137262964Y-98581582D01*
X136407001Y-102077223D01*
X136406995Y-102077262D01*
X136406847Y-102077852D01*
X136369447Y-102231052D01*
X136360427Y-102294282D01*
X136347778Y-102356901D01*
X136346556Y-102369786D01*
X136319256Y-102680587D01*
X136319906Y-102744734D01*
X136316899Y-102808839D01*
X136317648Y-102821761D01*
X136327848Y-102978861D01*
X136327851Y-102978879D01*
X136327869Y-102979188D01*
X136479069Y-105295288D01*
X136496635Y-105566757D01*
X136498577Y-105578611D01*
X136498489Y-105590619D01*
X136513182Y-105667777D01*
X136525879Y-105745297D01*
X136530085Y-105756546D01*
X136532332Y-105768345D01*
X136561734Y-105841184D01*
X136589244Y-105914756D01*
X136595556Y-105924975D01*
X136600051Y-105936111D01*
X136606124Y-105947541D01*
X136866324Y-106429141D01*
X136873028Y-106439087D01*
X136877955Y-106450020D01*
X136923530Y-106514011D01*
X136967444Y-106579162D01*
X136975951Y-106587615D01*
X136982909Y-106597385D01*
X137040062Y-106651321D01*
X137095778Y-106706685D01*
X137105761Y-106713323D01*
X137114487Y-106721557D01*
X137124778Y-106729408D01*
X137343278Y-106893708D01*
X137343290Y-106893715D01*
X137343384Y-106893787D01*
X138155924Y-107504591D01*
X138128673Y-107522424D01*
X138019803Y-107629037D01*
X137933715Y-107754766D01*
X137873687Y-107894822D01*
X137842006Y-108043870D01*
X137839878Y-108196232D01*
X137867284Y-108345558D01*
X137418375Y-109075699D01*
X137336523Y-108952502D01*
X137173878Y-108788718D01*
X136982518Y-108659644D01*
X136769732Y-108570197D01*
X136543625Y-108523784D01*
X136312809Y-108522173D01*
X136086076Y-108565424D01*
X135872062Y-108651891D01*
X135678919Y-108778281D01*
X135514003Y-108939778D01*
X135383596Y-109130232D01*
X135292666Y-109342389D01*
X135244676Y-109568166D01*
X135241453Y-109798965D01*
X135283121Y-110025995D01*
X135368092Y-110240607D01*
X135382932Y-110263634D01*
X131967974Y-115148282D01*
X133273196Y-109558328D01*
X133273199Y-109558308D01*
X133273286Y-109557944D01*
X133277174Y-109541234D01*
X133287355Y-109506793D01*
X133293823Y-109488739D01*
X134019219Y-107470660D01*
X134198050Y-107439128D01*
X134413251Y-107355657D01*
X134608140Y-107231976D01*
X134775294Y-107072797D01*
X134908347Y-106884183D01*
X135002231Y-106673317D01*
X135053369Y-106448231D01*
X135057050Y-106184589D01*
X135012217Y-105958164D01*
X134924258Y-105744758D01*
X134796523Y-105552502D01*
X134633878Y-105388718D01*
X134442518Y-105259644D01*
X134229732Y-105170197D01*
X134003625Y-105123784D01*
X133772809Y-105122173D01*
X133546076Y-105165424D01*
X133332062Y-105251891D01*
X133138919Y-105378281D01*
X132974003Y-105539778D01*
X132843596Y-105730232D01*
X132752666Y-105942389D01*
X132704676Y-106168166D01*
X132701453Y-106398965D01*
X132743121Y-106625995D01*
X132828092Y-106840607D01*
X132953130Y-107034628D01*
X133028043Y-107112203D01*
X132327922Y-109059966D01*
X132256523Y-108952502D01*
X132093878Y-108788718D01*
X131902518Y-108659644D01*
X131689732Y-108570197D01*
X131463625Y-108523784D01*
X131232809Y-108522173D01*
X131168194Y-108534499D01*
X131515903Y-107464192D01*
X131658050Y-107439128D01*
X131873251Y-107355657D01*
X132068140Y-107231976D01*
X132235294Y-107072797D01*
X132368347Y-106884183D01*
X132462231Y-106673317D01*
X132513369Y-106448231D01*
X132517050Y-106184589D01*
X132472217Y-105958164D01*
X132384258Y-105744758D01*
X132256523Y-105552502D01*
X132093878Y-105388718D01*
X131902518Y-105259644D01*
X131689732Y-105170197D01*
X131463625Y-105123784D01*
X131232809Y-105122173D01*
X131006076Y-105165424D01*
X130792062Y-105251891D01*
X130598919Y-105378281D01*
X130434003Y-105539778D01*
X130303596Y-105730232D01*
X130212666Y-105942389D01*
X130164676Y-106168166D01*
X130161453Y-106398965D01*
X130203121Y-106625995D01*
X130288092Y-106840607D01*
X130413130Y-107034628D01*
X130513474Y-107138538D01*
X129960678Y-108840136D01*
X129937927Y-108766670D01*
X129871494Y-108665854D01*
X129779605Y-108587537D01*
X129669535Y-108537921D01*
X129550000Y-108520934D01*
X128050000Y-108520934D01*
X127982002Y-108526356D01*
X127866670Y-108562073D01*
X127765854Y-108628506D01*
X127687537Y-108720395D01*
X127637921Y-108830465D01*
X127620934Y-108950000D01*
X127620934Y-110450000D01*
X127626356Y-110517998D01*
X127662073Y-110633330D01*
X127728506Y-110734146D01*
X127820395Y-110812463D01*
X127930465Y-110862079D01*
X128050000Y-110879066D01*
X129550000Y-110879066D01*
X129617998Y-110873644D01*
X129733330Y-110837927D01*
X129834146Y-110771494D01*
X129884891Y-110711955D01*
X130018077Y-111698155D01*
X130020714Y-111717817D01*
X130021286Y-111756888D01*
X130019323Y-111775136D01*
X130019323Y-111775179D01*
X130019236Y-111775945D01*
X129570323Y-116010590D01*
X129551842Y-115992304D01*
X129543960Y-115987088D01*
X129537000Y-115980677D01*
X129531096Y-115976286D01*
X129427670Y-115900461D01*
X127418879Y-114424688D01*
X127405760Y-114415021D01*
X127381663Y-114393338D01*
X127371448Y-114382101D01*
X127371424Y-114382079D01*
X127371058Y-114381672D01*
X125499558Y-112327572D01*
X125499510Y-112327529D01*
X125499473Y-112327479D01*
X125494478Y-112322076D01*
X125398578Y-112219776D01*
X125398436Y-112219652D01*
X125398318Y-112219498D01*
X125393245Y-112214169D01*
X120896644Y-107556469D01*
X120896643Y-107556468D01*
X120830849Y-107488278D01*
X120814693Y-107474516D01*
X120800217Y-107458984D01*
X120775625Y-107441238D01*
X120752551Y-107421583D01*
X120734029Y-107411221D01*
X120716814Y-107398798D01*
X120710429Y-107395140D01*
X120545129Y-107301940D01*
X120525619Y-107293329D01*
X120507209Y-107282535D01*
X120478663Y-107272604D01*
X120451034Y-107260409D01*
X120430224Y-107255751D01*
X120410068Y-107248739D01*
X120402904Y-107247062D01*
X120309903Y-107225962D01*
X120309902Y-107225962D01*
X120309834Y-107225946D01*
X120261662Y-107215024D01*
X120191046Y-107108737D01*
X120083675Y-107000614D01*
X119957348Y-106915406D01*
X119816877Y-106856357D01*
X119667612Y-106825717D01*
X119515238Y-106824653D01*
X119365559Y-106853206D01*
X119224277Y-106910288D01*
X119096773Y-106993724D01*
X119084232Y-107006005D01*
X118014540Y-105223241D01*
X125178948Y-105223241D01*
X125209995Y-105392403D01*
X125273308Y-105552314D01*
X125366476Y-105696882D01*
X125485949Y-105820600D01*
X125627177Y-105918756D01*
X125784781Y-105987612D01*
X125952757Y-106024544D01*
X126124708Y-106028146D01*
X126294084Y-105998280D01*
X126454433Y-105936085D01*
X126599647Y-105843929D01*
X126724197Y-105725322D01*
X126823336Y-105584783D01*
X126893290Y-105427664D01*
X126931394Y-105259949D01*
X126933540Y-105106232D01*
X130693406Y-100059172D01*
X130722284Y-100054080D01*
X130882633Y-99991885D01*
X131027847Y-99899729D01*
X131152397Y-99781122D01*
X131251536Y-99640583D01*
X131321490Y-99483464D01*
X131359594Y-99315749D01*
X131362337Y-99119306D01*
X131328931Y-98950593D01*
X131263391Y-98791581D01*
X131168214Y-98648329D01*
X131047025Y-98526291D01*
X130904441Y-98430116D01*
X130745891Y-98363468D01*
X130577415Y-98328885D01*
X130405431Y-98327684D01*
X130236489Y-98359911D01*
X130077024Y-98424339D01*
X129933110Y-98518514D01*
X129810229Y-98638848D01*
X129713061Y-98780758D01*
X129645307Y-98938839D01*
X129609549Y-99107069D01*
X129607549Y-99250327D01*
X125848371Y-104296465D01*
X125808289Y-104304111D01*
X125648824Y-104368539D01*
X125504910Y-104462714D01*
X125382029Y-104583048D01*
X125284861Y-104724958D01*
X125217107Y-104883039D01*
X125181349Y-105051269D01*
X125178948Y-105223241D01*
X118014540Y-105223241D01*
X116998895Y-103530554D01*
X116998893Y-103530551D01*
X116880839Y-103333728D01*
X116860540Y-103306351D01*
X116842088Y-103277684D01*
X116837480Y-103271947D01*
X116547380Y-102915847D01*
X116523439Y-102891712D01*
X116501144Y-102866030D01*
X116495766Y-102861009D01*
X116324165Y-102703008D01*
X116324137Y-102702987D01*
X116323711Y-102702590D01*
X108398110Y-95422290D01*
X108297826Y-95329972D01*
X108270208Y-95309137D01*
X108243990Y-95286579D01*
X108229241Y-95278232D01*
X108215717Y-95268029D01*
X108184591Y-95252961D01*
X108154480Y-95235919D01*
X108147732Y-95232984D01*
X107894632Y-95124984D01*
X107861795Y-95114626D01*
X107829701Y-95102164D01*
X107812855Y-95099187D01*
X107796544Y-95094042D01*
X107762331Y-95090260D01*
X107728418Y-95084267D01*
X107721078Y-95083752D01*
X107583578Y-95075052D01*
X107583573Y-95075052D01*
X107583428Y-95075042D01*
X100816066Y-94648784D01*
X100816066Y-94490000D01*
X100810644Y-94422002D01*
X100774927Y-94306670D01*
X100708494Y-94205854D01*
X100616605Y-94127537D01*
X100506535Y-94077921D01*
X100387000Y-94060934D01*
X99574624Y-94060934D01*
X99531045Y-94017355D01*
X99493480Y-93986499D01*
X99456138Y-93955165D01*
X99453706Y-93953828D01*
X99451567Y-93952071D01*
X99408654Y-93929061D01*
X99366007Y-93905616D01*
X99363370Y-93904779D01*
X99360924Y-93903468D01*
X99314383Y-93889240D01*
X99267969Y-93874516D01*
X99265209Y-93874206D01*
X99262565Y-93873398D01*
X99214196Y-93868484D01*
X99165758Y-93863051D01*
X99160343Y-93863013D01*
X99160240Y-93863003D01*
X99160144Y-93863012D01*
X99158400Y-93863000D01*
X97729066Y-93863000D01*
X97729066Y-93500000D01*
X97723644Y-93432002D01*
X97687927Y-93316670D01*
X97621494Y-93215854D01*
X97529605Y-93137537D01*
X97419535Y-93087921D01*
X97300000Y-93070934D01*
X96220000Y-93070934D01*
X96152002Y-93076356D01*
X96036670Y-93112073D01*
X95935854Y-93178506D01*
X95857537Y-93270395D01*
X95807921Y-93380465D01*
X95790934Y-93500000D01*
X95790934Y-94500000D01*
X95796356Y-94567998D01*
X95832073Y-94683330D01*
X95898506Y-94784146D01*
X95917355Y-94800211D01*
X95857537Y-94870395D01*
X95807921Y-94980465D01*
X95790934Y-95100000D01*
X95790934Y-96100000D01*
X95796356Y-96167998D01*
X95832073Y-96283330D01*
X95898506Y-96384146D01*
X95917355Y-96400211D01*
X95857537Y-96470395D01*
X95807921Y-96580465D01*
X95790934Y-96700000D01*
X95790934Y-97700000D01*
X95796356Y-97767998D01*
X95832073Y-97883330D01*
X95898506Y-97984146D01*
X95917355Y-98000211D01*
X95857537Y-98070395D01*
X95807921Y-98180465D01*
X95790934Y-98300000D01*
X95790934Y-99300000D01*
X95796356Y-99367998D01*
X95832073Y-99483330D01*
X95898506Y-99584146D01*
X95917355Y-99600211D01*
X95857537Y-99670395D01*
X95807921Y-99780465D01*
X95790934Y-99900000D01*
X95790934Y-100900000D01*
X95796356Y-100967998D01*
X95832073Y-101083330D01*
X95898506Y-101184146D01*
X95917355Y-101200211D01*
X95857537Y-101270395D01*
X95807921Y-101380465D01*
X95790934Y-101500000D01*
X95790934Y-102500000D01*
X95796356Y-102567998D01*
X95832073Y-102683330D01*
X95898506Y-102784146D01*
X95990395Y-102862463D01*
X96100465Y-102912079D01*
X96220000Y-102929066D01*
X97300000Y-102929066D01*
X97367998Y-102923644D01*
X97483330Y-102887927D01*
X97584146Y-102821494D01*
X97662463Y-102729605D01*
X97712079Y-102619535D01*
X97729066Y-102500000D01*
X97729066Y-102104241D01*
X99110060Y-102028080D01*
X99117000Y-102029066D01*
X100206184Y-102029066D01*
X101477181Y-103361560D01*
X101653281Y-103546260D01*
X101688806Y-103576887D01*
X101723785Y-103608112D01*
X101727719Y-103610435D01*
X101731181Y-103613419D01*
X101771981Y-103636564D01*
X101812355Y-103660399D01*
X101819048Y-103663457D01*
X102284848Y-103872357D01*
X102329212Y-103887248D01*
X102373266Y-103902910D01*
X102377905Y-103903593D01*
X102382354Y-103905086D01*
X102428751Y-103911075D01*
X102475022Y-103917884D01*
X102482374Y-103918188D01*
X102738073Y-103926988D01*
X102738096Y-103926987D01*
X102738451Y-103927001D01*
X111274656Y-104214662D01*
X111269187Y-104227422D01*
X111237506Y-104376470D01*
X111235378Y-104528832D01*
X111262885Y-104678707D01*
X111318979Y-104820384D01*
X111401523Y-104948467D01*
X111507374Y-105058079D01*
X111632499Y-105145043D01*
X111772132Y-105206047D01*
X111837524Y-105220424D01*
X111787921Y-105330465D01*
X111770934Y-105450000D01*
X111770934Y-107050000D01*
X111776356Y-107117998D01*
X111812073Y-107233330D01*
X111878506Y-107334146D01*
X111970395Y-107412463D01*
X112080465Y-107462079D01*
X112200000Y-107479066D01*
X113800000Y-107479066D01*
X113867998Y-107473644D01*
X113983330Y-107437927D01*
X114084146Y-107371494D01*
X114162463Y-107279605D01*
X114212079Y-107169535D01*
X114229066Y-107050000D01*
X114229066Y-106411689D01*
X116172300Y-109650438D01*
X116172528Y-109650746D01*
X116172763Y-109651143D01*
X116636142Y-110423040D01*
X116676442Y-110490241D01*
X116681608Y-110497209D01*
X116685578Y-110504924D01*
X116689611Y-110511079D01*
X116779811Y-110646679D01*
X116785277Y-110653374D01*
X116789591Y-110660874D01*
X116793907Y-110666833D01*
X116839607Y-110729034D01*
X116839610Y-110729037D01*
X118780625Y-113375512D01*
X118780637Y-113375529D01*
X118848137Y-113467629D01*
X118873307Y-113495743D01*
X118896983Y-113525139D01*
X118902172Y-113530356D01*
X119064472Y-113691256D01*
X119093704Y-113715056D01*
X119121654Y-113740356D01*
X119127595Y-113744696D01*
X119221495Y-113812296D01*
X119221534Y-113812319D01*
X119222008Y-113812664D01*
X120781623Y-114932620D01*
X120810457Y-114954763D01*
X121092174Y-115184852D01*
X120968910Y-115265514D01*
X120846029Y-115385848D01*
X120748861Y-115527758D01*
X120681107Y-115685839D01*
X120645349Y-115854069D01*
X120642948Y-116026041D01*
X120673995Y-116195203D01*
X120695685Y-116249985D01*
X120669184Y-116324101D01*
X120669150Y-116324193D01*
X120607950Y-116495293D01*
X120595601Y-116544526D01*
X120581033Y-116593127D01*
X120579558Y-116608479D01*
X120575803Y-116623451D01*
X120573252Y-116674142D01*
X120568401Y-116724649D01*
X120568486Y-116734101D01*
X120574286Y-117097601D01*
X120580071Y-117148264D01*
X120583584Y-117199131D01*
X120587552Y-117213785D01*
X120589275Y-117228875D01*
X120604792Y-117277453D01*
X120618118Y-117326666D01*
X120621528Y-117335481D01*
X120688628Y-117505381D01*
X120688637Y-117505398D01*
X120688734Y-117505649D01*
X122037050Y-120915406D01*
X122033607Y-120923439D01*
X121997849Y-121091669D01*
X121996728Y-121171945D01*
X104642711Y-113881396D01*
X104600570Y-113779155D01*
X104516246Y-113652237D01*
X104408875Y-113544114D01*
X104282548Y-113458906D01*
X104142077Y-113399857D01*
X103992812Y-113369217D01*
X103840438Y-113368153D01*
X103690759Y-113396706D01*
X103549477Y-113453788D01*
X103421973Y-113537224D01*
X103313103Y-113643837D01*
X103227015Y-113769566D01*
X103166987Y-113909622D01*
X103135306Y-114058670D01*
X103133178Y-114211032D01*
X103160685Y-114360907D01*
X103216779Y-114502584D01*
X103269624Y-114584584D01*
X101652101Y-113975791D01*
X101652063Y-113975776D01*
X101627963Y-113966676D01*
X101587886Y-113955873D01*
X101548236Y-113943560D01*
X101541019Y-113942124D01*
X101490419Y-113932424D01*
X101449447Y-113928658D01*
X101408650Y-113923289D01*
X101401294Y-113923097D01*
X101375194Y-113922597D01*
X101375134Y-113922602D01*
X101374106Y-113922577D01*
X95558706Y-113823177D01*
X95558704Y-113823177D01*
X95558656Y-113823176D01*
X95417456Y-113820776D01*
X95408445Y-113821505D01*
X95399436Y-113820778D01*
X95357250Y-113825648D01*
X95314938Y-113829072D01*
X95306245Y-113831536D01*
X95297263Y-113832573D01*
X95290082Y-113834177D01*
X95016881Y-113897177D01*
X95008623Y-113899954D01*
X95000029Y-113901357D01*
X94959951Y-113916320D01*
X94919392Y-113929958D01*
X94911833Y-113934284D01*
X94903673Y-113937331D01*
X94897087Y-113940611D01*
X94770987Y-114004511D01*
X94770962Y-114004527D01*
X94770581Y-114004717D01*
X93690919Y-114552997D01*
X93552518Y-114459644D01*
X93339732Y-114370197D01*
X93113625Y-114323784D01*
X92882809Y-114322173D01*
X92656076Y-114365424D01*
X92442062Y-114451891D01*
X92248919Y-114578281D01*
X92084003Y-114739778D01*
X91953596Y-114930232D01*
X91862666Y-115142389D01*
X91814676Y-115368166D01*
X91811453Y-115598965D01*
X91853121Y-115825995D01*
X91938092Y-116040607D01*
X92063130Y-116234628D01*
X92223472Y-116400668D01*
X92413011Y-116532401D01*
X92624527Y-116624810D01*
X92849964Y-116674375D01*
X93080735Y-116679209D01*
X93308050Y-116639128D01*
X93523251Y-116555657D01*
X93718140Y-116431976D01*
X93885294Y-116272797D01*
X94018347Y-116084183D01*
X94112231Y-115873317D01*
X94163369Y-115648231D01*
X94165521Y-115494100D01*
X95247379Y-114944706D01*
X95247413Y-114944689D01*
X95316261Y-114909801D01*
X95464051Y-114875720D01*
X95540743Y-114877024D01*
X95540745Y-114877024D01*
X97052337Y-114902861D01*
X97033596Y-114930232D01*
X96942666Y-115142389D01*
X96894676Y-115368166D01*
X96891453Y-115598965D01*
X96933121Y-115825995D01*
X97018092Y-116040607D01*
X97143130Y-116234628D01*
X97303472Y-116400668D01*
X97493011Y-116532401D01*
X97704527Y-116624810D01*
X97929964Y-116674375D01*
X98160735Y-116679209D01*
X98388050Y-116639128D01*
X98603251Y-116555657D01*
X98689671Y-116500813D01*
X99425401Y-116954131D01*
X99454270Y-116971988D01*
X99459020Y-116974319D01*
X99463295Y-116977447D01*
X99505185Y-116996974D01*
X99546604Y-117017300D01*
X99551713Y-117018663D01*
X99556516Y-117020902D01*
X99563474Y-117023296D01*
X99628874Y-117045296D01*
X99633739Y-117046418D01*
X99638328Y-117048377D01*
X99683825Y-117057974D01*
X99729094Y-117068419D01*
X99734077Y-117068575D01*
X99738965Y-117069606D01*
X99746284Y-117070364D01*
X99780410Y-117073657D01*
X99780421Y-117073658D01*
X106583922Y-117730958D01*
X106583930Y-117730958D01*
X106641712Y-117736550D01*
X106756501Y-117763449D01*
X106810414Y-117783984D01*
X106810420Y-117783986D01*
X106810542Y-117784033D01*
X112911955Y-120106233D01*
X112805159Y-120126606D01*
X112663877Y-120183688D01*
X112536373Y-120267124D01*
X112427503Y-120373737D01*
X112386614Y-120433454D01*
X109233655Y-120877850D01*
X109234934Y-120786311D01*
X109205337Y-120636836D01*
X109147270Y-120495955D01*
X109062946Y-120369037D01*
X108955575Y-120260914D01*
X108829248Y-120175706D01*
X108688777Y-120116657D01*
X108539512Y-120086017D01*
X108387138Y-120084953D01*
X108237459Y-120113506D01*
X108096177Y-120170588D01*
X108078613Y-120182082D01*
X96904358Y-116488437D01*
X96885570Y-116442855D01*
X96801246Y-116315937D01*
X96693875Y-116207814D01*
X96567548Y-116122606D01*
X96427077Y-116063557D01*
X96277812Y-116032917D01*
X96125438Y-116031853D01*
X95975759Y-116060406D01*
X95834477Y-116117488D01*
X95706973Y-116200924D01*
X95598103Y-116307537D01*
X95512015Y-116433266D01*
X95451987Y-116573322D01*
X95420306Y-116722370D01*
X95418178Y-116874732D01*
X95445685Y-117024607D01*
X95501779Y-117166284D01*
X95584323Y-117294367D01*
X95690174Y-117403979D01*
X95815299Y-117490943D01*
X95954932Y-117551947D01*
X96103755Y-117584668D01*
X96256099Y-117587859D01*
X96406162Y-117561399D01*
X96548227Y-117506295D01*
X96574635Y-117489536D01*
X106895594Y-120901125D01*
X104070252Y-120747367D01*
X104089203Y-120663955D01*
X104091634Y-120489911D01*
X104062037Y-120340436D01*
X104003970Y-120199555D01*
X103919646Y-120072637D01*
X103812275Y-119964514D01*
X103685948Y-119879306D01*
X103545477Y-119820257D01*
X103396212Y-119789617D01*
X103243838Y-119788553D01*
X103094159Y-119817106D01*
X102952877Y-119874188D01*
X102913963Y-119899652D01*
X97427000Y-118292917D01*
X97427000Y-118200000D01*
X97418315Y-118153841D01*
X97391035Y-118111447D01*
X97349410Y-118083006D01*
X97300000Y-118073000D01*
X96675988Y-118073000D01*
X94162508Y-117336983D01*
X94153470Y-117315055D01*
X94069146Y-117188137D01*
X93961775Y-117080014D01*
X93835448Y-116994806D01*
X93694977Y-116935757D01*
X93545712Y-116905117D01*
X93393338Y-116904053D01*
X93243659Y-116932606D01*
X93102377Y-116989688D01*
X92974873Y-117073124D01*
X92866003Y-117179737D01*
X92779915Y-117305466D01*
X92719887Y-117445522D01*
X92688206Y-117594570D01*
X92686078Y-117746932D01*
X92713585Y-117896807D01*
X92769679Y-118038484D01*
X92852223Y-118166567D01*
X92958074Y-118276179D01*
X93083199Y-118363143D01*
X93222832Y-118424147D01*
X93371655Y-118456868D01*
X93523999Y-118460059D01*
X93674062Y-118433599D01*
X93816127Y-118378495D01*
X93864304Y-118347921D01*
X94173000Y-118438316D01*
X94173000Y-121200000D01*
X94181685Y-121246159D01*
X94208965Y-121288553D01*
X94250590Y-121316994D01*
X94300000Y-121327000D01*
X97300000Y-121327000D01*
X97346159Y-121318315D01*
X97388553Y-121291035D01*
X97416994Y-121249410D01*
X97427000Y-121200000D01*
X97427000Y-119391177D01*
X101599099Y-120612884D01*
X99481988Y-120497668D01*
X99376075Y-120391014D01*
X99249748Y-120305806D01*
X99109277Y-120246757D01*
X98960012Y-120216117D01*
X98807638Y-120215053D01*
X98657959Y-120243606D01*
X98516677Y-120300688D01*
X98389173Y-120384124D01*
X98280303Y-120490737D01*
X98194215Y-120616466D01*
X98134187Y-120756522D01*
X98102506Y-120905570D01*
X98100378Y-121057932D01*
X98127885Y-121207807D01*
X98183979Y-121349484D01*
X98266523Y-121477567D01*
X98372374Y-121587179D01*
X98497499Y-121674143D01*
X98637132Y-121735147D01*
X98785955Y-121767868D01*
X98938299Y-121771059D01*
X99088362Y-121744599D01*
X99230427Y-121689495D01*
X99359084Y-121607847D01*
X99419984Y-121549853D01*
X99574417Y-121558257D01*
X99538387Y-121642322D01*
X99506706Y-121791370D01*
X99504578Y-121943732D01*
X99532085Y-122093607D01*
X99588179Y-122235284D01*
X99670723Y-122363367D01*
X99776574Y-122472979D01*
X99901699Y-122559943D01*
X100041332Y-122620947D01*
X100190155Y-122653668D01*
X100342499Y-122656859D01*
X100492562Y-122630399D01*
X100634627Y-122575295D01*
X100763284Y-122493647D01*
X100853373Y-122407857D01*
X108451136Y-122440495D01*
X108451142Y-122440494D01*
X108451195Y-122440495D01*
X108475095Y-122440595D01*
X108483431Y-122439813D01*
X108491790Y-122440401D01*
X108499144Y-122440147D01*
X108544943Y-122438247D01*
X108552290Y-122437218D01*
X108559710Y-122437427D01*
X108567047Y-122436864D01*
X108590947Y-122434864D01*
X108590990Y-122434856D01*
X108591695Y-122434801D01*
X113125495Y-122048901D01*
X113125698Y-122048863D01*
X113125912Y-122048866D01*
X113133238Y-122048185D01*
X113150239Y-122046485D01*
X113150315Y-122046470D01*
X113156324Y-122045840D01*
X114834815Y-121858280D01*
X114841574Y-121865279D01*
X114966699Y-121952243D01*
X115106332Y-122013247D01*
X115255155Y-122045968D01*
X115407499Y-122049159D01*
X115557562Y-122022699D01*
X115699627Y-121967595D01*
X115828284Y-121885947D01*
X115938631Y-121780865D01*
X116026467Y-121656350D01*
X116088444Y-121517146D01*
X116122203Y-121368555D01*
X116122766Y-121328270D01*
X124833642Y-124643633D01*
X124833647Y-124643634D01*
X124876300Y-124659902D01*
X124900634Y-124666548D01*
X124924199Y-124675592D01*
X124931307Y-124677495D01*
X125020407Y-124700695D01*
X125044450Y-124704501D01*
X125067983Y-124710765D01*
X125075252Y-124711904D01*
X125120052Y-124718604D01*
X125120069Y-124718605D01*
X125120204Y-124718626D01*
X126100137Y-124864887D01*
X126131123Y-124912967D01*
X126236974Y-125022579D01*
X126237580Y-125023000D01*
X91477000Y-125023000D01*
X91477000Y-111977000D01*
X100000000Y-111977000D01*
X100044730Y-111972614D01*
X100089381Y-111968551D01*
X100090983Y-111968079D01*
X100092650Y-111967916D01*
X100135619Y-111954942D01*
X100178687Y-111942267D01*
X100180171Y-111941491D01*
X100181771Y-111941008D01*
X100221335Y-111919972D01*
X100261188Y-111899137D01*
X100262495Y-111898086D01*
X100263968Y-111897303D01*
X100298757Y-111868930D01*
X100333739Y-111840803D01*
X100334812Y-111839525D01*
X100336111Y-111838465D01*
X100364777Y-111803813D01*
X100393579Y-111769489D01*
X100394384Y-111768025D01*
X100395451Y-111766735D01*
X100416812Y-111727228D01*
X100438428Y-111687910D01*
X100438934Y-111686316D01*
X100439729Y-111684845D01*
X100453001Y-111641968D01*
X100466576Y-111599174D01*
X100466762Y-111597512D01*
X100467257Y-111595914D01*
X100471942Y-111551336D01*
X100476954Y-111506660D01*
X100476976Y-111503442D01*
X100476988Y-111503330D01*
X100476978Y-111503218D01*
X100477000Y-111500000D01*
X100477000Y-110499066D01*
X103489000Y-110499066D01*
X103556998Y-110493644D01*
X103672330Y-110457927D01*
X103773146Y-110391494D01*
X103851463Y-110299605D01*
X103901079Y-110189535D01*
X103918066Y-110070000D01*
X103918066Y-108470000D01*
X103912644Y-108402002D01*
X103876927Y-108286670D01*
X103810494Y-108185854D01*
X103718605Y-108107537D01*
X103608535Y-108057921D01*
X103489000Y-108040934D01*
X100477000Y-108040934D01*
X100477000Y-107792454D01*
X100595825Y-107857779D01*
X100824084Y-107930187D01*
X101062060Y-107956880D01*
X101079192Y-107957000D01*
X102698808Y-107957000D01*
X102937134Y-107933632D01*
X103166381Y-107864418D01*
X103377819Y-107751994D01*
X103563394Y-107600643D01*
X103716037Y-107416130D01*
X103829934Y-107205482D01*
X103900747Y-106976723D01*
X103925778Y-106738566D01*
X103904074Y-106500083D01*
X103836463Y-106270358D01*
X103725518Y-106058140D01*
X103575466Y-105871513D01*
X103392023Y-105717586D01*
X103182175Y-105602221D01*
X102953916Y-105529813D01*
X102715940Y-105503120D01*
X102698808Y-105503000D01*
X101079192Y-105503000D01*
X100840866Y-105526368D01*
X100611619Y-105595582D01*
X100477000Y-105667160D01*
X100477000Y-104500000D01*
X100472614Y-104455270D01*
X100468551Y-104410619D01*
X100468079Y-104409017D01*
X100467916Y-104407350D01*
X100454942Y-104364381D01*
X100442267Y-104321313D01*
X100441491Y-104319829D01*
X100441008Y-104318229D01*
X100419972Y-104278665D01*
X100399137Y-104238812D01*
X100398086Y-104237505D01*
X100397303Y-104236032D01*
X100368930Y-104201243D01*
X100340803Y-104166261D01*
X100339525Y-104165188D01*
X100338465Y-104163889D01*
X100303813Y-104135223D01*
X100269489Y-104106421D01*
X100268025Y-104105616D01*
X100266735Y-104104549D01*
X100227228Y-104083188D01*
X100187910Y-104061572D01*
X100186316Y-104061066D01*
X100184845Y-104060271D01*
X100141968Y-104046999D01*
X100099174Y-104033424D01*
X100097512Y-104033238D01*
X100095914Y-104032743D01*
X100051336Y-104028058D01*
X100006660Y-104023046D01*
X100003442Y-104023024D01*
X100003330Y-104023012D01*
X100003218Y-104023022D01*
X100000000Y-104023000D01*
X91477000Y-104023000D01*
X91477000Y-92498965D01*
X99281453Y-92498965D01*
X99323121Y-92725995D01*
X99408092Y-92940607D01*
X99533130Y-93134628D01*
X99693472Y-93300668D01*
X99883011Y-93432401D01*
X100094527Y-93524810D01*
X100319964Y-93574375D01*
X100550735Y-93579209D01*
X100778050Y-93539128D01*
X100993251Y-93455657D01*
X101188140Y-93331976D01*
X101355294Y-93172797D01*
X101488347Y-92984183D01*
X101582231Y-92773317D01*
X101633369Y-92548231D01*
X101637050Y-92284589D01*
X101592217Y-92058164D01*
X101504258Y-91844758D01*
X101376523Y-91652502D01*
X101374039Y-91650000D01*
X101820934Y-91650000D01*
X101820934Y-93150000D01*
X101826356Y-93217998D01*
X101862073Y-93333330D01*
X101928506Y-93434146D01*
X102020395Y-93512463D01*
X102130465Y-93562079D01*
X102250000Y-93579066D01*
X103750000Y-93579066D01*
X103817998Y-93573644D01*
X103933330Y-93537927D01*
X104034146Y-93471494D01*
X104112463Y-93379605D01*
X104162079Y-93269535D01*
X104179066Y-93150000D01*
X104179066Y-91650000D01*
X104173644Y-91582002D01*
X104137927Y-91466670D01*
X104071494Y-91365854D01*
X103979605Y-91287537D01*
X103869535Y-91237921D01*
X103750000Y-91220934D01*
X102250000Y-91220934D01*
X102182002Y-91226356D01*
X102066670Y-91262073D01*
X101965854Y-91328506D01*
X101887537Y-91420395D01*
X101837921Y-91530465D01*
X101820934Y-91650000D01*
X101374039Y-91650000D01*
X101213878Y-91488718D01*
X101022518Y-91359644D01*
X100809732Y-91270197D01*
X100583625Y-91223784D01*
X100352809Y-91222173D01*
X100126076Y-91265424D01*
X99912062Y-91351891D01*
X99718919Y-91478281D01*
X99554003Y-91639778D01*
X99423596Y-91830232D01*
X99332666Y-92042389D01*
X99284676Y-92268166D01*
X99281453Y-92498965D01*
X91477000Y-92498965D01*
X91477000Y-90977000D01*
X154873000Y-90977000D01*
X154873000Y-96987046D01*
X154873000Y-96987046D01*
G37*
X154873000Y-96987046D02*
X154872705Y-96985556D01*
X154766063Y-96726822D01*
X154611197Y-96493730D01*
X154414005Y-96295157D01*
X154182000Y-96138668D01*
X153924017Y-96030222D01*
X153649884Y-95973950D01*
X153370041Y-95971996D01*
X153095149Y-96024435D01*
X153016073Y-96056384D01*
X149134443Y-93840723D01*
X149134440Y-93840722D01*
X149134382Y-93840688D01*
X148937081Y-93728088D01*
X148873659Y-93699700D01*
X148811591Y-93668458D01*
X148791233Y-93662805D01*
X148771950Y-93654174D01*
X148704228Y-93638647D01*
X148637268Y-93620054D01*
X148624503Y-93617914D01*
X148175903Y-93545914D01*
X148106612Y-93541654D01*
X148037600Y-93534240D01*
X148016484Y-93536113D01*
X147995325Y-93534812D01*
X147926540Y-93544090D01*
X147857389Y-93550223D01*
X147844686Y-93552708D01*
X147622386Y-93597808D01*
X147622383Y-93597809D01*
X145068733Y-94115786D01*
X145059688Y-94117528D01*
X145059687Y-94117528D01*
X142134659Y-94677423D01*
X142134626Y-94677429D01*
X142053126Y-94693029D01*
X142000449Y-94708569D01*
X141946732Y-94720010D01*
X141934424Y-94724015D01*
X141776824Y-94776515D01*
X141726251Y-94799057D01*
X141674096Y-94817699D01*
X141662430Y-94823306D01*
X141588255Y-94859594D01*
X140560288Y-95361336D01*
X140560284Y-95361339D01*
X140473506Y-95403679D01*
X140441691Y-95423259D01*
X140407824Y-95439066D01*
X140396732Y-95445736D01*
X140231732Y-95546537D01*
X140202285Y-95568744D01*
X140170453Y-95587401D01*
X140160032Y-95595078D01*
X140082832Y-95652778D01*
X140082808Y-95652800D01*
X140082374Y-95653120D01*
X138333774Y-96961720D01*
X138333738Y-96961753D01*
X138333218Y-96962137D01*
X138060918Y-97166237D01*
X138014937Y-97208301D01*
X137966480Y-97247483D01*
X137948331Y-97269234D01*
X137927431Y-97288354D01*
X137890500Y-97338544D01*
X137850572Y-97386396D01*
X137843364Y-97397146D01*
X137470164Y-97962246D01*
X137441012Y-98017442D01*
X137408569Y-98070751D01*
X137398856Y-98097260D01*
X137385671Y-98122223D01*
X137367800Y-98182011D01*
X137346323Y-98240625D01*
X137343165Y-98253177D01*
X137262965Y-98581576D01*
X137262964Y-98581582D01*
X136407001Y-102077223D01*
X136406995Y-102077262D01*
X136406847Y-102077852D01*
X136369447Y-102231052D01*
X136360427Y-102294282D01*
X136347778Y-102356901D01*
X136346556Y-102369786D01*
X136319256Y-102680587D01*
X136319906Y-102744734D01*
X136316899Y-102808839D01*
X136317648Y-102821761D01*
X136327848Y-102978861D01*
X136327851Y-102978879D01*
X136327869Y-102979188D01*
X136479069Y-105295288D01*
X136496635Y-105566757D01*
X136498577Y-105578611D01*
X136498489Y-105590619D01*
X136513182Y-105667777D01*
X136525879Y-105745297D01*
X136530085Y-105756546D01*
X136532332Y-105768345D01*
X136561734Y-105841184D01*
X136589244Y-105914756D01*
X136595556Y-105924975D01*
X136600051Y-105936111D01*
X136606124Y-105947541D01*
X136866324Y-106429141D01*
X136873028Y-106439087D01*
X136877955Y-106450020D01*
X136923530Y-106514011D01*
X136967444Y-106579162D01*
X136975951Y-106587615D01*
X136982909Y-106597385D01*
X137040062Y-106651321D01*
X137095778Y-106706685D01*
X137105761Y-106713323D01*
X137114487Y-106721557D01*
X137124778Y-106729408D01*
X137343278Y-106893708D01*
X137343290Y-106893715D01*
X137343384Y-106893787D01*
X138155924Y-107504591D01*
X138128673Y-107522424D01*
X138019803Y-107629037D01*
X137933715Y-107754766D01*
X137873687Y-107894822D01*
X137842006Y-108043870D01*
X137839878Y-108196232D01*
X137867284Y-108345558D01*
X137418375Y-109075699D01*
X137336523Y-108952502D01*
X137173878Y-108788718D01*
X136982518Y-108659644D01*
X136769732Y-108570197D01*
X136543625Y-108523784D01*
X136312809Y-108522173D01*
X136086076Y-108565424D01*
X135872062Y-108651891D01*
X135678919Y-108778281D01*
X135514003Y-108939778D01*
X135383596Y-109130232D01*
X135292666Y-109342389D01*
X135244676Y-109568166D01*
X135241453Y-109798965D01*
X135283121Y-110025995D01*
X135368092Y-110240607D01*
X135382932Y-110263634D01*
X131967974Y-115148282D01*
X133273196Y-109558328D01*
X133273199Y-109558308D01*
X133273286Y-109557944D01*
X133277174Y-109541234D01*
X133287355Y-109506793D01*
X133293823Y-109488739D01*
X134019219Y-107470660D01*
X134198050Y-107439128D01*
X134413251Y-107355657D01*
X134608140Y-107231976D01*
X134775294Y-107072797D01*
X134908347Y-106884183D01*
X135002231Y-106673317D01*
X135053369Y-106448231D01*
X135057050Y-106184589D01*
X135012217Y-105958164D01*
X134924258Y-105744758D01*
X134796523Y-105552502D01*
X134633878Y-105388718D01*
X134442518Y-105259644D01*
X134229732Y-105170197D01*
X134003625Y-105123784D01*
X133772809Y-105122173D01*
X133546076Y-105165424D01*
X133332062Y-105251891D01*
X133138919Y-105378281D01*
X132974003Y-105539778D01*
X132843596Y-105730232D01*
X132752666Y-105942389D01*
X132704676Y-106168166D01*
X132701453Y-106398965D01*
X132743121Y-106625995D01*
X132828092Y-106840607D01*
X132953130Y-107034628D01*
X133028043Y-107112203D01*
X132327922Y-109059966D01*
X132256523Y-108952502D01*
X132093878Y-108788718D01*
X131902518Y-108659644D01*
X131689732Y-108570197D01*
X131463625Y-108523784D01*
X131232809Y-108522173D01*
X131168194Y-108534499D01*
X131515903Y-107464192D01*
X131658050Y-107439128D01*
X131873251Y-107355657D01*
X132068140Y-107231976D01*
X132235294Y-107072797D01*
X132368347Y-106884183D01*
X132462231Y-106673317D01*
X132513369Y-106448231D01*
X132517050Y-106184589D01*
X132472217Y-105958164D01*
X132384258Y-105744758D01*
X132256523Y-105552502D01*
X132093878Y-105388718D01*
X131902518Y-105259644D01*
X131689732Y-105170197D01*
X131463625Y-105123784D01*
X131232809Y-105122173D01*
X131006076Y-105165424D01*
X130792062Y-105251891D01*
X130598919Y-105378281D01*
X130434003Y-105539778D01*
X130303596Y-105730232D01*
X130212666Y-105942389D01*
X130164676Y-106168166D01*
X130161453Y-106398965D01*
X130203121Y-106625995D01*
X130288092Y-106840607D01*
X130413130Y-107034628D01*
X130513474Y-107138538D01*
X129960678Y-108840136D01*
X129937927Y-108766670D01*
X129871494Y-108665854D01*
X129779605Y-108587537D01*
X129669535Y-108537921D01*
X129550000Y-108520934D01*
X128050000Y-108520934D01*
X127982002Y-108526356D01*
X127866670Y-108562073D01*
X127765854Y-108628506D01*
X127687537Y-108720395D01*
X127637921Y-108830465D01*
X127620934Y-108950000D01*
X127620934Y-110450000D01*
X127626356Y-110517998D01*
X127662073Y-110633330D01*
X127728506Y-110734146D01*
X127820395Y-110812463D01*
X127930465Y-110862079D01*
X128050000Y-110879066D01*
X129550000Y-110879066D01*
X129617998Y-110873644D01*
X129733330Y-110837927D01*
X129834146Y-110771494D01*
X129884891Y-110711955D01*
X130018077Y-111698155D01*
X130020714Y-111717817D01*
X130021286Y-111756888D01*
X130019323Y-111775136D01*
X130019323Y-111775179D01*
X130019236Y-111775945D01*
X129570323Y-116010590D01*
X129551842Y-115992304D01*
X129543960Y-115987088D01*
X129537000Y-115980677D01*
X129531096Y-115976286D01*
X129427670Y-115900461D01*
X127418879Y-114424688D01*
X127405760Y-114415021D01*
X127381663Y-114393338D01*
X127371448Y-114382101D01*
X127371424Y-114382079D01*
X127371058Y-114381672D01*
X125499558Y-112327572D01*
X125499510Y-112327529D01*
X125499473Y-112327479D01*
X125494478Y-112322076D01*
X125398578Y-112219776D01*
X125398436Y-112219652D01*
X125398318Y-112219498D01*
X125393245Y-112214169D01*
X120896644Y-107556469D01*
X120896643Y-107556468D01*
X120830849Y-107488278D01*
X120814693Y-107474516D01*
X120800217Y-107458984D01*
X120775625Y-107441238D01*
X120752551Y-107421583D01*
X120734029Y-107411221D01*
X120716814Y-107398798D01*
X120710429Y-107395140D01*
X120545129Y-107301940D01*
X120525619Y-107293329D01*
X120507209Y-107282535D01*
X120478663Y-107272604D01*
X120451034Y-107260409D01*
X120430224Y-107255751D01*
X120410068Y-107248739D01*
X120402904Y-107247062D01*
X120309903Y-107225962D01*
X120309902Y-107225962D01*
X120309834Y-107225946D01*
X120261662Y-107215024D01*
X120191046Y-107108737D01*
X120083675Y-107000614D01*
X119957348Y-106915406D01*
X119816877Y-106856357D01*
X119667612Y-106825717D01*
X119515238Y-106824653D01*
X119365559Y-106853206D01*
X119224277Y-106910288D01*
X119096773Y-106993724D01*
X119084232Y-107006005D01*
X118014540Y-105223241D01*
X125178948Y-105223241D01*
X125209995Y-105392403D01*
X125273308Y-105552314D01*
X125366476Y-105696882D01*
X125485949Y-105820600D01*
X125627177Y-105918756D01*
X125784781Y-105987612D01*
X125952757Y-106024544D01*
X126124708Y-106028146D01*
X126294084Y-105998280D01*
X126454433Y-105936085D01*
X126599647Y-105843929D01*
X126724197Y-105725322D01*
X126823336Y-105584783D01*
X126893290Y-105427664D01*
X126931394Y-105259949D01*
X126933540Y-105106232D01*
X130693406Y-100059172D01*
X130722284Y-100054080D01*
X130882633Y-99991885D01*
X131027847Y-99899729D01*
X131152397Y-99781122D01*
X131251536Y-99640583D01*
X131321490Y-99483464D01*
X131359594Y-99315749D01*
X131362337Y-99119306D01*
X131328931Y-98950593D01*
X131263391Y-98791581D01*
X131168214Y-98648329D01*
X131047025Y-98526291D01*
X130904441Y-98430116D01*
X130745891Y-98363468D01*
X130577415Y-98328885D01*
X130405431Y-98327684D01*
X130236489Y-98359911D01*
X130077024Y-98424339D01*
X129933110Y-98518514D01*
X129810229Y-98638848D01*
X129713061Y-98780758D01*
X129645307Y-98938839D01*
X129609549Y-99107069D01*
X129607549Y-99250327D01*
X125848371Y-104296465D01*
X125808289Y-104304111D01*
X125648824Y-104368539D01*
X125504910Y-104462714D01*
X125382029Y-104583048D01*
X125284861Y-104724958D01*
X125217107Y-104883039D01*
X125181349Y-105051269D01*
X125178948Y-105223241D01*
X118014540Y-105223241D01*
X116998895Y-103530554D01*
X116998893Y-103530551D01*
X116880839Y-103333728D01*
X116860540Y-103306351D01*
X116842088Y-103277684D01*
X116837480Y-103271947D01*
X116547380Y-102915847D01*
X116523439Y-102891712D01*
X116501144Y-102866030D01*
X116495766Y-102861009D01*
X116324165Y-102703008D01*
X116324137Y-102702987D01*
X116323711Y-102702590D01*
X108398110Y-95422290D01*
X108297826Y-95329972D01*
X108270208Y-95309137D01*
X108243990Y-95286579D01*
X108229241Y-95278232D01*
X108215717Y-95268029D01*
X108184591Y-95252961D01*
X108154480Y-95235919D01*
X108147732Y-95232984D01*
X107894632Y-95124984D01*
X107861795Y-95114626D01*
X107829701Y-95102164D01*
X107812855Y-95099187D01*
X107796544Y-95094042D01*
X107762331Y-95090260D01*
X107728418Y-95084267D01*
X107721078Y-95083752D01*
X107583578Y-95075052D01*
X107583573Y-95075052D01*
X107583428Y-95075042D01*
X100816066Y-94648784D01*
X100816066Y-94490000D01*
X100810644Y-94422002D01*
X100774927Y-94306670D01*
X100708494Y-94205854D01*
X100616605Y-94127537D01*
X100506535Y-94077921D01*
X100387000Y-94060934D01*
X99574624Y-94060934D01*
X99531045Y-94017355D01*
X99493480Y-93986499D01*
X99456138Y-93955165D01*
X99453706Y-93953828D01*
X99451567Y-93952071D01*
X99408654Y-93929061D01*
X99366007Y-93905616D01*
X99363370Y-93904779D01*
X99360924Y-93903468D01*
X99314383Y-93889240D01*
X99267969Y-93874516D01*
X99265209Y-93874206D01*
X99262565Y-93873398D01*
X99214196Y-93868484D01*
X99165758Y-93863051D01*
X99160343Y-93863013D01*
X99160240Y-93863003D01*
X99160144Y-93863012D01*
X99158400Y-93863000D01*
X97729066Y-93863000D01*
X97729066Y-93500000D01*
X97723644Y-93432002D01*
X97687927Y-93316670D01*
X97621494Y-93215854D01*
X97529605Y-93137537D01*
X97419535Y-93087921D01*
X97300000Y-93070934D01*
X96220000Y-93070934D01*
X96152002Y-93076356D01*
X96036670Y-93112073D01*
X95935854Y-93178506D01*
X95857537Y-93270395D01*
X95807921Y-93380465D01*
X95790934Y-93500000D01*
X95790934Y-94500000D01*
X95796356Y-94567998D01*
X95832073Y-94683330D01*
X95898506Y-94784146D01*
X95917355Y-94800211D01*
X95857537Y-94870395D01*
X95807921Y-94980465D01*
X95790934Y-95100000D01*
X95790934Y-96100000D01*
X95796356Y-96167998D01*
X95832073Y-96283330D01*
X95898506Y-96384146D01*
X95917355Y-96400211D01*
X95857537Y-96470395D01*
X95807921Y-96580465D01*
X95790934Y-96700000D01*
X95790934Y-97700000D01*
X95796356Y-97767998D01*
X95832073Y-97883330D01*
X95898506Y-97984146D01*
X95917355Y-98000211D01*
X95857537Y-98070395D01*
X95807921Y-98180465D01*
X95790934Y-98300000D01*
X95790934Y-99300000D01*
X95796356Y-99367998D01*
X95832073Y-99483330D01*
X95898506Y-99584146D01*
X95917355Y-99600211D01*
X95857537Y-99670395D01*
X95807921Y-99780465D01*
X95790934Y-99900000D01*
X95790934Y-100900000D01*
X95796356Y-100967998D01*
X95832073Y-101083330D01*
X95898506Y-101184146D01*
X95917355Y-101200211D01*
X95857537Y-101270395D01*
X95807921Y-101380465D01*
X95790934Y-101500000D01*
X95790934Y-102500000D01*
X95796356Y-102567998D01*
X95832073Y-102683330D01*
X95898506Y-102784146D01*
X95990395Y-102862463D01*
X96100465Y-102912079D01*
X96220000Y-102929066D01*
X97300000Y-102929066D01*
X97367998Y-102923644D01*
X97483330Y-102887927D01*
X97584146Y-102821494D01*
X97662463Y-102729605D01*
X97712079Y-102619535D01*
X97729066Y-102500000D01*
X97729066Y-102104241D01*
X99110060Y-102028080D01*
X99117000Y-102029066D01*
X100206184Y-102029066D01*
X101477181Y-103361560D01*
X101653281Y-103546260D01*
X101688806Y-103576887D01*
X101723785Y-103608112D01*
X101727719Y-103610435D01*
X101731181Y-103613419D01*
X101771981Y-103636564D01*
X101812355Y-103660399D01*
X101819048Y-103663457D01*
X102284848Y-103872357D01*
X102329212Y-103887248D01*
X102373266Y-103902910D01*
X102377905Y-103903593D01*
X102382354Y-103905086D01*
X102428751Y-103911075D01*
X102475022Y-103917884D01*
X102482374Y-103918188D01*
X102738073Y-103926988D01*
X102738096Y-103926987D01*
X102738451Y-103927001D01*
X111274656Y-104214662D01*
X111269187Y-104227422D01*
X111237506Y-104376470D01*
X111235378Y-104528832D01*
X111262885Y-104678707D01*
X111318979Y-104820384D01*
X111401523Y-104948467D01*
X111507374Y-105058079D01*
X111632499Y-105145043D01*
X111772132Y-105206047D01*
X111837524Y-105220424D01*
X111787921Y-105330465D01*
X111770934Y-105450000D01*
X111770934Y-107050000D01*
X111776356Y-107117998D01*
X111812073Y-107233330D01*
X111878506Y-107334146D01*
X111970395Y-107412463D01*
X112080465Y-107462079D01*
X112200000Y-107479066D01*
X113800000Y-107479066D01*
X113867998Y-107473644D01*
X113983330Y-107437927D01*
X114084146Y-107371494D01*
X114162463Y-107279605D01*
X114212079Y-107169535D01*
X114229066Y-107050000D01*
X114229066Y-106411689D01*
X116172300Y-109650438D01*
X116172528Y-109650746D01*
X116172763Y-109651143D01*
X116636142Y-110423040D01*
X116676442Y-110490241D01*
X116681608Y-110497209D01*
X116685578Y-110504924D01*
X116689611Y-110511079D01*
X116779811Y-110646679D01*
X116785277Y-110653374D01*
X116789591Y-110660874D01*
X116793907Y-110666833D01*
X116839607Y-110729034D01*
X116839610Y-110729037D01*
X118780625Y-113375512D01*
X118780637Y-113375529D01*
X118848137Y-113467629D01*
X118873307Y-113495743D01*
X118896983Y-113525139D01*
X118902172Y-113530356D01*
X119064472Y-113691256D01*
X119093704Y-113715056D01*
X119121654Y-113740356D01*
X119127595Y-113744696D01*
X119221495Y-113812296D01*
X119221534Y-113812319D01*
X119222008Y-113812664D01*
X120781623Y-114932620D01*
X120810457Y-114954763D01*
X121092174Y-115184852D01*
X120968910Y-115265514D01*
X120846029Y-115385848D01*
X120748861Y-115527758D01*
X120681107Y-115685839D01*
X120645349Y-115854069D01*
X120642948Y-116026041D01*
X120673995Y-116195203D01*
X120695685Y-116249985D01*
X120669184Y-116324101D01*
X120669150Y-116324193D01*
X120607950Y-116495293D01*
X120595601Y-116544526D01*
X120581033Y-116593127D01*
X120579558Y-116608479D01*
X120575803Y-116623451D01*
X120573252Y-116674142D01*
X120568401Y-116724649D01*
X120568486Y-116734101D01*
X120574286Y-117097601D01*
X120580071Y-117148264D01*
X120583584Y-117199131D01*
X120587552Y-117213785D01*
X120589275Y-117228875D01*
X120604792Y-117277453D01*
X120618118Y-117326666D01*
X120621528Y-117335481D01*
X120688628Y-117505381D01*
X120688637Y-117505398D01*
X120688734Y-117505649D01*
X122037050Y-120915406D01*
X122033607Y-120923439D01*
X121997849Y-121091669D01*
X121996728Y-121171945D01*
X104642711Y-113881396D01*
X104600570Y-113779155D01*
X104516246Y-113652237D01*
X104408875Y-113544114D01*
X104282548Y-113458906D01*
X104142077Y-113399857D01*
X103992812Y-113369217D01*
X103840438Y-113368153D01*
X103690759Y-113396706D01*
X103549477Y-113453788D01*
X103421973Y-113537224D01*
X103313103Y-113643837D01*
X103227015Y-113769566D01*
X103166987Y-113909622D01*
X103135306Y-114058670D01*
X103133178Y-114211032D01*
X103160685Y-114360907D01*
X103216779Y-114502584D01*
X103269624Y-114584584D01*
X101652101Y-113975791D01*
X101652063Y-113975776D01*
X101627963Y-113966676D01*
X101587886Y-113955873D01*
X101548236Y-113943560D01*
X101541019Y-113942124D01*
X101490419Y-113932424D01*
X101449447Y-113928658D01*
X101408650Y-113923289D01*
X101401294Y-113923097D01*
X101375194Y-113922597D01*
X101375134Y-113922602D01*
X101374106Y-113922577D01*
X95558706Y-113823177D01*
X95558704Y-113823177D01*
X95558656Y-113823176D01*
X95417456Y-113820776D01*
X95408445Y-113821505D01*
X95399436Y-113820778D01*
X95357250Y-113825648D01*
X95314938Y-113829072D01*
X95306245Y-113831536D01*
X95297263Y-113832573D01*
X95290082Y-113834177D01*
X95016881Y-113897177D01*
X95008623Y-113899954D01*
X95000029Y-113901357D01*
X94959951Y-113916320D01*
X94919392Y-113929958D01*
X94911833Y-113934284D01*
X94903673Y-113937331D01*
X94897087Y-113940611D01*
X94770987Y-114004511D01*
X94770962Y-114004527D01*
X94770581Y-114004717D01*
X93690919Y-114552997D01*
X93552518Y-114459644D01*
X93339732Y-114370197D01*
X93113625Y-114323784D01*
X92882809Y-114322173D01*
X92656076Y-114365424D01*
X92442062Y-114451891D01*
X92248919Y-114578281D01*
X92084003Y-114739778D01*
X91953596Y-114930232D01*
X91862666Y-115142389D01*
X91814676Y-115368166D01*
X91811453Y-115598965D01*
X91853121Y-115825995D01*
X91938092Y-116040607D01*
X92063130Y-116234628D01*
X92223472Y-116400668D01*
X92413011Y-116532401D01*
X92624527Y-116624810D01*
X92849964Y-116674375D01*
X93080735Y-116679209D01*
X93308050Y-116639128D01*
X93523251Y-116555657D01*
X93718140Y-116431976D01*
X93885294Y-116272797D01*
X94018347Y-116084183D01*
X94112231Y-115873317D01*
X94163369Y-115648231D01*
X94165521Y-115494100D01*
X95247379Y-114944706D01*
X95247413Y-114944689D01*
X95316261Y-114909801D01*
X95464051Y-114875720D01*
X95540743Y-114877024D01*
X95540745Y-114877024D01*
X97052337Y-114902861D01*
X97033596Y-114930232D01*
X96942666Y-115142389D01*
X96894676Y-115368166D01*
X96891453Y-115598965D01*
X96933121Y-115825995D01*
X97018092Y-116040607D01*
X97143130Y-116234628D01*
X97303472Y-116400668D01*
X97493011Y-116532401D01*
X97704527Y-116624810D01*
X97929964Y-116674375D01*
X98160735Y-116679209D01*
X98388050Y-116639128D01*
X98603251Y-116555657D01*
X98689671Y-116500813D01*
X99425401Y-116954131D01*
X99454270Y-116971988D01*
X99459020Y-116974319D01*
X99463295Y-116977447D01*
X99505185Y-116996974D01*
X99546604Y-117017300D01*
X99551713Y-117018663D01*
X99556516Y-117020902D01*
X99563474Y-117023296D01*
X99628874Y-117045296D01*
X99633739Y-117046418D01*
X99638328Y-117048377D01*
X99683825Y-117057974D01*
X99729094Y-117068419D01*
X99734077Y-117068575D01*
X99738965Y-117069606D01*
X99746284Y-117070364D01*
X99780410Y-117073657D01*
X99780421Y-117073658D01*
X106583922Y-117730958D01*
X106583930Y-117730958D01*
X106641712Y-117736550D01*
X106756501Y-117763449D01*
X106810414Y-117783984D01*
X106810420Y-117783986D01*
X106810542Y-117784033D01*
X112911955Y-120106233D01*
X112805159Y-120126606D01*
X112663877Y-120183688D01*
X112536373Y-120267124D01*
X112427503Y-120373737D01*
X112386614Y-120433454D01*
X109233655Y-120877850D01*
X109234934Y-120786311D01*
X109205337Y-120636836D01*
X109147270Y-120495955D01*
X109062946Y-120369037D01*
X108955575Y-120260914D01*
X108829248Y-120175706D01*
X108688777Y-120116657D01*
X108539512Y-120086017D01*
X108387138Y-120084953D01*
X108237459Y-120113506D01*
X108096177Y-120170588D01*
X108078613Y-120182082D01*
X96904358Y-116488437D01*
X96885570Y-116442855D01*
X96801246Y-116315937D01*
X96693875Y-116207814D01*
X96567548Y-116122606D01*
X96427077Y-116063557D01*
X96277812Y-116032917D01*
X96125438Y-116031853D01*
X95975759Y-116060406D01*
X95834477Y-116117488D01*
X95706973Y-116200924D01*
X95598103Y-116307537D01*
X95512015Y-116433266D01*
X95451987Y-116573322D01*
X95420306Y-116722370D01*
X95418178Y-116874732D01*
X95445685Y-117024607D01*
X95501779Y-117166284D01*
X95584323Y-117294367D01*
X95690174Y-117403979D01*
X95815299Y-117490943D01*
X95954932Y-117551947D01*
X96103755Y-117584668D01*
X96256099Y-117587859D01*
X96406162Y-117561399D01*
X96548227Y-117506295D01*
X96574635Y-117489536D01*
X106895594Y-120901125D01*
X104070252Y-120747367D01*
X104089203Y-120663955D01*
X104091634Y-120489911D01*
X104062037Y-120340436D01*
X104003970Y-120199555D01*
X103919646Y-120072637D01*
X103812275Y-119964514D01*
X103685948Y-119879306D01*
X103545477Y-119820257D01*
X103396212Y-119789617D01*
X103243838Y-119788553D01*
X103094159Y-119817106D01*
X102952877Y-119874188D01*
X102913963Y-119899652D01*
X97427000Y-118292917D01*
X97427000Y-118200000D01*
X97418315Y-118153841D01*
X97391035Y-118111447D01*
X97349410Y-118083006D01*
X97300000Y-118073000D01*
X96675988Y-118073000D01*
X94162508Y-117336983D01*
X94153470Y-117315055D01*
X94069146Y-117188137D01*
X93961775Y-117080014D01*
X93835448Y-116994806D01*
X93694977Y-116935757D01*
X93545712Y-116905117D01*
X93393338Y-116904053D01*
X93243659Y-116932606D01*
X93102377Y-116989688D01*
X92974873Y-117073124D01*
X92866003Y-117179737D01*
X92779915Y-117305466D01*
X92719887Y-117445522D01*
X92688206Y-117594570D01*
X92686078Y-117746932D01*
X92713585Y-117896807D01*
X92769679Y-118038484D01*
X92852223Y-118166567D01*
X92958074Y-118276179D01*
X93083199Y-118363143D01*
X93222832Y-118424147D01*
X93371655Y-118456868D01*
X93523999Y-118460059D01*
X93674062Y-118433599D01*
X93816127Y-118378495D01*
X93864304Y-118347921D01*
X94173000Y-118438316D01*
X94173000Y-121200000D01*
X94181685Y-121246159D01*
X94208965Y-121288553D01*
X94250590Y-121316994D01*
X94300000Y-121327000D01*
X97300000Y-121327000D01*
X97346159Y-121318315D01*
X97388553Y-121291035D01*
X97416994Y-121249410D01*
X97427000Y-121200000D01*
X97427000Y-119391177D01*
X101599099Y-120612884D01*
X99481988Y-120497668D01*
X99376075Y-120391014D01*
X99249748Y-120305806D01*
X99109277Y-120246757D01*
X98960012Y-120216117D01*
X98807638Y-120215053D01*
X98657959Y-120243606D01*
X98516677Y-120300688D01*
X98389173Y-120384124D01*
X98280303Y-120490737D01*
X98194215Y-120616466D01*
X98134187Y-120756522D01*
X98102506Y-120905570D01*
X98100378Y-121057932D01*
X98127885Y-121207807D01*
X98183979Y-121349484D01*
X98266523Y-121477567D01*
X98372374Y-121587179D01*
X98497499Y-121674143D01*
X98637132Y-121735147D01*
X98785955Y-121767868D01*
X98938299Y-121771059D01*
X99088362Y-121744599D01*
X99230427Y-121689495D01*
X99359084Y-121607847D01*
X99419984Y-121549853D01*
X99574417Y-121558257D01*
X99538387Y-121642322D01*
X99506706Y-121791370D01*
X99504578Y-121943732D01*
X99532085Y-122093607D01*
X99588179Y-122235284D01*
X99670723Y-122363367D01*
X99776574Y-122472979D01*
X99901699Y-122559943D01*
X100041332Y-122620947D01*
X100190155Y-122653668D01*
X100342499Y-122656859D01*
X100492562Y-122630399D01*
X100634627Y-122575295D01*
X100763284Y-122493647D01*
X100853373Y-122407857D01*
X108451136Y-122440495D01*
X108451142Y-122440494D01*
X108451195Y-122440495D01*
X108475095Y-122440595D01*
X108483431Y-122439813D01*
X108491790Y-122440401D01*
X108499144Y-122440147D01*
X108544943Y-122438247D01*
X108552290Y-122437218D01*
X108559710Y-122437427D01*
X108567047Y-122436864D01*
X108590947Y-122434864D01*
X108590990Y-122434856D01*
X108591695Y-122434801D01*
X113125495Y-122048901D01*
X113125698Y-122048863D01*
X113125912Y-122048866D01*
X113133238Y-122048185D01*
X113150239Y-122046485D01*
X113150315Y-122046470D01*
X113156324Y-122045840D01*
X114834815Y-121858280D01*
X114841574Y-121865279D01*
X114966699Y-121952243D01*
X115106332Y-122013247D01*
X115255155Y-122045968D01*
X115407499Y-122049159D01*
X115557562Y-122022699D01*
X115699627Y-121967595D01*
X115828284Y-121885947D01*
X115938631Y-121780865D01*
X116026467Y-121656350D01*
X116088444Y-121517146D01*
X116122203Y-121368555D01*
X116122766Y-121328270D01*
X124833642Y-124643633D01*
X124833647Y-124643634D01*
X124876300Y-124659902D01*
X124900634Y-124666548D01*
X124924199Y-124675592D01*
X124931307Y-124677495D01*
X125020407Y-124700695D01*
X125044450Y-124704501D01*
X125067983Y-124710765D01*
X125075252Y-124711904D01*
X125120052Y-124718604D01*
X125120069Y-124718605D01*
X125120204Y-124718626D01*
X126100137Y-124864887D01*
X126131123Y-124912967D01*
X126236974Y-125022579D01*
X126237580Y-125023000D01*
X91477000Y-125023000D01*
X91477000Y-111977000D01*
X100000000Y-111977000D01*
X100044730Y-111972614D01*
X100089381Y-111968551D01*
X100090983Y-111968079D01*
X100092650Y-111967916D01*
X100135619Y-111954942D01*
X100178687Y-111942267D01*
X100180171Y-111941491D01*
X100181771Y-111941008D01*
X100221335Y-111919972D01*
X100261188Y-111899137D01*
X100262495Y-111898086D01*
X100263968Y-111897303D01*
X100298757Y-111868930D01*
X100333739Y-111840803D01*
X100334812Y-111839525D01*
X100336111Y-111838465D01*
X100364777Y-111803813D01*
X100393579Y-111769489D01*
X100394384Y-111768025D01*
X100395451Y-111766735D01*
X100416812Y-111727228D01*
X100438428Y-111687910D01*
X100438934Y-111686316D01*
X100439729Y-111684845D01*
X100453001Y-111641968D01*
X100466576Y-111599174D01*
X100466762Y-111597512D01*
X100467257Y-111595914D01*
X100471942Y-111551336D01*
X100476954Y-111506660D01*
X100476976Y-111503442D01*
X100476988Y-111503330D01*
X100476978Y-111503218D01*
X100477000Y-111500000D01*
X100477000Y-110499066D01*
X103489000Y-110499066D01*
X103556998Y-110493644D01*
X103672330Y-110457927D01*
X103773146Y-110391494D01*
X103851463Y-110299605D01*
X103901079Y-110189535D01*
X103918066Y-110070000D01*
X103918066Y-108470000D01*
X103912644Y-108402002D01*
X103876927Y-108286670D01*
X103810494Y-108185854D01*
X103718605Y-108107537D01*
X103608535Y-108057921D01*
X103489000Y-108040934D01*
X100477000Y-108040934D01*
X100477000Y-107792454D01*
X100595825Y-107857779D01*
X100824084Y-107930187D01*
X101062060Y-107956880D01*
X101079192Y-107957000D01*
X102698808Y-107957000D01*
X102937134Y-107933632D01*
X103166381Y-107864418D01*
X103377819Y-107751994D01*
X103563394Y-107600643D01*
X103716037Y-107416130D01*
X103829934Y-107205482D01*
X103900747Y-106976723D01*
X103925778Y-106738566D01*
X103904074Y-106500083D01*
X103836463Y-106270358D01*
X103725518Y-106058140D01*
X103575466Y-105871513D01*
X103392023Y-105717586D01*
X103182175Y-105602221D01*
X102953916Y-105529813D01*
X102715940Y-105503120D01*
X102698808Y-105503000D01*
X101079192Y-105503000D01*
X100840866Y-105526368D01*
X100611619Y-105595582D01*
X100477000Y-105667160D01*
X100477000Y-104500000D01*
X100472614Y-104455270D01*
X100468551Y-104410619D01*
X100468079Y-104409017D01*
X100467916Y-104407350D01*
X100454942Y-104364381D01*
X100442267Y-104321313D01*
X100441491Y-104319829D01*
X100441008Y-104318229D01*
X100419972Y-104278665D01*
X100399137Y-104238812D01*
X100398086Y-104237505D01*
X100397303Y-104236032D01*
X100368930Y-104201243D01*
X100340803Y-104166261D01*
X100339525Y-104165188D01*
X100338465Y-104163889D01*
X100303813Y-104135223D01*
X100269489Y-104106421D01*
X100268025Y-104105616D01*
X100266735Y-104104549D01*
X100227228Y-104083188D01*
X100187910Y-104061572D01*
X100186316Y-104061066D01*
X100184845Y-104060271D01*
X100141968Y-104046999D01*
X100099174Y-104033424D01*
X100097512Y-104033238D01*
X100095914Y-104032743D01*
X100051336Y-104028058D01*
X100006660Y-104023046D01*
X100003442Y-104023024D01*
X100003330Y-104023012D01*
X100003218Y-104023022D01*
X100000000Y-104023000D01*
X91477000Y-104023000D01*
X91477000Y-92498965D01*
X99281453Y-92498965D01*
X99323121Y-92725995D01*
X99408092Y-92940607D01*
X99533130Y-93134628D01*
X99693472Y-93300668D01*
X99883011Y-93432401D01*
X100094527Y-93524810D01*
X100319964Y-93574375D01*
X100550735Y-93579209D01*
X100778050Y-93539128D01*
X100993251Y-93455657D01*
X101188140Y-93331976D01*
X101355294Y-93172797D01*
X101488347Y-92984183D01*
X101582231Y-92773317D01*
X101633369Y-92548231D01*
X101637050Y-92284589D01*
X101592217Y-92058164D01*
X101504258Y-91844758D01*
X101376523Y-91652502D01*
X101374039Y-91650000D01*
X101820934Y-91650000D01*
X101820934Y-93150000D01*
X101826356Y-93217998D01*
X101862073Y-93333330D01*
X101928506Y-93434146D01*
X102020395Y-93512463D01*
X102130465Y-93562079D01*
X102250000Y-93579066D01*
X103750000Y-93579066D01*
X103817998Y-93573644D01*
X103933330Y-93537927D01*
X104034146Y-93471494D01*
X104112463Y-93379605D01*
X104162079Y-93269535D01*
X104179066Y-93150000D01*
X104179066Y-91650000D01*
X104173644Y-91582002D01*
X104137927Y-91466670D01*
X104071494Y-91365854D01*
X103979605Y-91287537D01*
X103869535Y-91237921D01*
X103750000Y-91220934D01*
X102250000Y-91220934D01*
X102182002Y-91226356D01*
X102066670Y-91262073D01*
X101965854Y-91328506D01*
X101887537Y-91420395D01*
X101837921Y-91530465D01*
X101820934Y-91650000D01*
X101374039Y-91650000D01*
X101213878Y-91488718D01*
X101022518Y-91359644D01*
X100809732Y-91270197D01*
X100583625Y-91223784D01*
X100352809Y-91222173D01*
X100126076Y-91265424D01*
X99912062Y-91351891D01*
X99718919Y-91478281D01*
X99554003Y-91639778D01*
X99423596Y-91830232D01*
X99332666Y-92042389D01*
X99284676Y-92268166D01*
X99281453Y-92498965D01*
X91477000Y-92498965D01*
X91477000Y-90977000D01*
X154873000Y-90977000D01*
X154873000Y-96987046D01*
G36*
X122503539Y-116690796D02*
X122503578Y-116690837D01*
X122504141Y-116691570D01*
X122511725Y-116701300D01*
X122526151Y-116723413D01*
X122532273Y-116734680D01*
X123692673Y-118871680D01*
X123692685Y-118871698D01*
X123692866Y-118872036D01*
X123726866Y-118934536D01*
X123735915Y-118947878D01*
X123743094Y-118962312D01*
X123747042Y-118968522D01*
X123822442Y-119085322D01*
X123832477Y-119097962D01*
X123840730Y-119111837D01*
X123845132Y-119117733D01*
X123887633Y-119173833D01*
X123887644Y-119173845D01*
X123887816Y-119174075D01*
X124779716Y-120349975D01*
X124779727Y-120349987D01*
X124779885Y-120350198D01*
X124824685Y-120409198D01*
X124827568Y-120412310D01*
X124829853Y-120415893D01*
X124862527Y-120450049D01*
X124894581Y-120484652D01*
X124898012Y-120487144D01*
X124900950Y-120490215D01*
X124906565Y-120494971D01*
X125019465Y-120589271D01*
X125022985Y-120591670D01*
X125026016Y-120594653D01*
X125065457Y-120620610D01*
X125104462Y-120647187D01*
X125108373Y-120648853D01*
X125111932Y-120651195D01*
X125118468Y-120654575D01*
X125183968Y-120687875D01*
X125183972Y-120687876D01*
X125506779Y-120852235D01*
X125507985Y-120858807D01*
X125564079Y-121000484D01*
X125646623Y-121128567D01*
X125752474Y-121238179D01*
X125877599Y-121325143D01*
X126017232Y-121386147D01*
X126166055Y-121418868D01*
X126318399Y-121422059D01*
X126468462Y-121395599D01*
X126610527Y-121340495D01*
X126739184Y-121258847D01*
X126849531Y-121153765D01*
X126937367Y-121029250D01*
X126999344Y-120890046D01*
X127029341Y-120758016D01*
X128268050Y-121979333D01*
X128267613Y-122010638D01*
X125593884Y-121599666D01*
X125555238Y-121593690D01*
X125541973Y-121592951D01*
X125528950Y-121590299D01*
X125521626Y-121589593D01*
X125443327Y-121582593D01*
X125430799Y-121582701D01*
X125418387Y-121580958D01*
X125411033Y-121580703D01*
X125371433Y-121579603D01*
X125371390Y-121579606D01*
X125370823Y-121579587D01*
X123680173Y-121534585D01*
X123709790Y-121468064D01*
X123747894Y-121300349D01*
X123750637Y-121103906D01*
X123717231Y-120935193D01*
X123651691Y-120776181D01*
X123556514Y-120632929D01*
X123435325Y-120510891D01*
X123295928Y-120416865D01*
X121947972Y-117008018D01*
X121926148Y-116952758D01*
X121924276Y-116835488D01*
X121944050Y-116780206D01*
X121944052Y-116780198D01*
X121944075Y-116780135D01*
X121970680Y-116705728D01*
X122063647Y-116646729D01*
X122188197Y-116528122D01*
X122278187Y-116400553D01*
X122503539Y-116690796D01*
X122503539Y-116690796D01*
G37*
X122503539Y-116690796D02*
X122503578Y-116690837D01*
X122504141Y-116691570D01*
X122511725Y-116701300D01*
X122526151Y-116723413D01*
X122532273Y-116734680D01*
X123692673Y-118871680D01*
X123692685Y-118871698D01*
X123692866Y-118872036D01*
X123726866Y-118934536D01*
X123735915Y-118947878D01*
X123743094Y-118962312D01*
X123747042Y-118968522D01*
X123822442Y-119085322D01*
X123832477Y-119097962D01*
X123840730Y-119111837D01*
X123845132Y-119117733D01*
X123887633Y-119173833D01*
X123887644Y-119173845D01*
X123887816Y-119174075D01*
X124779716Y-120349975D01*
X124779727Y-120349987D01*
X124779885Y-120350198D01*
X124824685Y-120409198D01*
X124827568Y-120412310D01*
X124829853Y-120415893D01*
X124862527Y-120450049D01*
X124894581Y-120484652D01*
X124898012Y-120487144D01*
X124900950Y-120490215D01*
X124906565Y-120494971D01*
X125019465Y-120589271D01*
X125022985Y-120591670D01*
X125026016Y-120594653D01*
X125065457Y-120620610D01*
X125104462Y-120647187D01*
X125108373Y-120648853D01*
X125111932Y-120651195D01*
X125118468Y-120654575D01*
X125183968Y-120687875D01*
X125183972Y-120687876D01*
X125506779Y-120852235D01*
X125507985Y-120858807D01*
X125564079Y-121000484D01*
X125646623Y-121128567D01*
X125752474Y-121238179D01*
X125877599Y-121325143D01*
X126017232Y-121386147D01*
X126166055Y-121418868D01*
X126318399Y-121422059D01*
X126468462Y-121395599D01*
X126610527Y-121340495D01*
X126739184Y-121258847D01*
X126849531Y-121153765D01*
X126937367Y-121029250D01*
X126999344Y-120890046D01*
X127029341Y-120758016D01*
X128268050Y-121979333D01*
X128267613Y-122010638D01*
X125593884Y-121599666D01*
X125555238Y-121593690D01*
X125541973Y-121592951D01*
X125528950Y-121590299D01*
X125521626Y-121589593D01*
X125443327Y-121582593D01*
X125430799Y-121582701D01*
X125418387Y-121580958D01*
X125411033Y-121580703D01*
X125371433Y-121579603D01*
X125371390Y-121579606D01*
X125370823Y-121579587D01*
X123680173Y-121534585D01*
X123709790Y-121468064D01*
X123747894Y-121300349D01*
X123750637Y-121103906D01*
X123717231Y-120935193D01*
X123651691Y-120776181D01*
X123556514Y-120632929D01*
X123435325Y-120510891D01*
X123295928Y-120416865D01*
X121947972Y-117008018D01*
X121926148Y-116952758D01*
X121924276Y-116835488D01*
X121944050Y-116780206D01*
X121944052Y-116780198D01*
X121944075Y-116780135D01*
X121970680Y-116705728D01*
X122063647Y-116646729D01*
X122188197Y-116528122D01*
X122278187Y-116400553D01*
X122503539Y-116690796D01*
G36*
X148164399Y-95421795D02*
X148215419Y-95450913D01*
X148215424Y-95450915D01*
X152098142Y-97667198D01*
X152121642Y-97795238D01*
X152224661Y-98055435D01*
X152376258Y-98290667D01*
X152570658Y-98491974D01*
X152800456Y-98651687D01*
X153056899Y-98763725D01*
X153330220Y-98823818D01*
X153610008Y-98829679D01*
X153885605Y-98781084D01*
X154146516Y-98679883D01*
X154382800Y-98529933D01*
X154585459Y-98336943D01*
X154746773Y-98108266D01*
X154860598Y-97852611D01*
X154873000Y-97798023D01*
X154873000Y-117394017D01*
X154821494Y-117315854D01*
X154729605Y-117237537D01*
X154619535Y-117187921D01*
X154500000Y-117170934D01*
X152623454Y-117170934D01*
X150623886Y-115870916D01*
X150623887Y-115870916D01*
X150614092Y-115864542D01*
X150596389Y-115851138D01*
X150587681Y-115843541D01*
X150587668Y-115843532D01*
X150587588Y-115843461D01*
X145012588Y-110981461D01*
X145012563Y-110981443D01*
X145012136Y-110981066D01*
X145010334Y-110979497D01*
X139988850Y-106570567D01*
X139972313Y-106556022D01*
X139962379Y-106548875D01*
X139953788Y-106540156D01*
X139943789Y-106531936D01*
X139909489Y-106504136D01*
X139900677Y-106498320D01*
X139892994Y-106491074D01*
X139882701Y-106483227D01*
X139865954Y-106470642D01*
X139865916Y-106470613D01*
X139131309Y-105918393D01*
X143769658Y-106680346D01*
X143769661Y-106680346D01*
X143799942Y-106685323D01*
X143857307Y-106706395D01*
X143883502Y-106722092D01*
X144581774Y-107140865D01*
X144625108Y-107250314D01*
X144718276Y-107394882D01*
X144837749Y-107518600D01*
X144978977Y-107616756D01*
X145136581Y-107685612D01*
X145304557Y-107722544D01*
X145476508Y-107726146D01*
X145645884Y-107696280D01*
X145806233Y-107634085D01*
X145951447Y-107541929D01*
X146075997Y-107423322D01*
X146175136Y-107282783D01*
X146245090Y-107125664D01*
X146283194Y-106957949D01*
X146285937Y-106761506D01*
X146284836Y-106755946D01*
X147190290Y-105403174D01*
X147337733Y-105345985D01*
X147482947Y-105253829D01*
X147607497Y-105135222D01*
X147706636Y-104994683D01*
X147776590Y-104837564D01*
X147814694Y-104669849D01*
X147817437Y-104473406D01*
X147784031Y-104304693D01*
X147718491Y-104145681D01*
X147623314Y-104002429D01*
X147502125Y-103880391D01*
X147359541Y-103784216D01*
X147200991Y-103717568D01*
X147032515Y-103682985D01*
X146860531Y-103681784D01*
X146691589Y-103714011D01*
X146532124Y-103778439D01*
X146388210Y-103872614D01*
X146265329Y-103992948D01*
X146168161Y-104134858D01*
X146100407Y-104292939D01*
X146064649Y-104461169D01*
X146062248Y-104633141D01*
X146065291Y-104649719D01*
X145204626Y-105935575D01*
X144579898Y-105560908D01*
X144579885Y-105560902D01*
X144579698Y-105560788D01*
X144498598Y-105512188D01*
X144445450Y-105487028D01*
X144392878Y-105460737D01*
X144384029Y-105457416D01*
X144206529Y-105392216D01*
X144149192Y-105377313D01*
X144092211Y-105361261D01*
X144082895Y-105359662D01*
X143989195Y-105344263D01*
X143989194Y-105344263D01*
X143989142Y-105344254D01*
X139314338Y-104576312D01*
X139235362Y-104496783D01*
X138979415Y-102834476D01*
X138979413Y-102834461D01*
X138971632Y-102783935D01*
X138988079Y-102682897D01*
X139011494Y-102637424D01*
X139011497Y-102637416D01*
X139011515Y-102637382D01*
X139660406Y-101376977D01*
X139711433Y-101357185D01*
X139856647Y-101265029D01*
X139981197Y-101146422D01*
X140080336Y-101005883D01*
X140150290Y-100848764D01*
X140188394Y-100681049D01*
X140191137Y-100484606D01*
X140157731Y-100315893D01*
X140092191Y-100156881D01*
X140015613Y-100041623D01*
X140117599Y-100043759D01*
X140267662Y-100017299D01*
X140409727Y-99962195D01*
X140538384Y-99880547D01*
X140543835Y-99875356D01*
X141116414Y-99965529D01*
X141150723Y-100018767D01*
X141256574Y-100128379D01*
X141381699Y-100215343D01*
X141521332Y-100276347D01*
X141670155Y-100309068D01*
X141822499Y-100312259D01*
X141972562Y-100285799D01*
X142114627Y-100230695D01*
X142243284Y-100149047D01*
X142353631Y-100043965D01*
X142441467Y-99919450D01*
X142503444Y-99780246D01*
X142537203Y-99631655D01*
X142539634Y-99457611D01*
X142510037Y-99308136D01*
X142451970Y-99167255D01*
X142367646Y-99040337D01*
X142260275Y-98932214D01*
X142133948Y-98847006D01*
X141993477Y-98787957D01*
X141844212Y-98757317D01*
X141691838Y-98756253D01*
X141542159Y-98784806D01*
X141400877Y-98841888D01*
X141275918Y-98923658D01*
X140703747Y-98833549D01*
X140662746Y-98771837D01*
X140555375Y-98663714D01*
X140520610Y-98640265D01*
X141672634Y-97778124D01*
X141672671Y-97778090D01*
X141673315Y-97777614D01*
X141697083Y-97759780D01*
X141751889Y-97733038D01*
X141781454Y-97724967D01*
X142183723Y-97615428D01*
X142271581Y-97653812D01*
X142439557Y-97690744D01*
X142611508Y-97694346D01*
X142780884Y-97664480D01*
X142941233Y-97602285D01*
X143086447Y-97510129D01*
X143098482Y-97498669D01*
X147415384Y-97544829D01*
X147415549Y-97545000D01*
X147556777Y-97643156D01*
X147714381Y-97712012D01*
X147882357Y-97748944D01*
X148054308Y-97752546D01*
X148223684Y-97722680D01*
X148384033Y-97660485D01*
X148529247Y-97568329D01*
X148653797Y-97449722D01*
X148752936Y-97309183D01*
X148822890Y-97152064D01*
X148860994Y-96984349D01*
X148863737Y-96787906D01*
X148830331Y-96619193D01*
X148764791Y-96460181D01*
X148669614Y-96316929D01*
X148548425Y-96194891D01*
X148405841Y-96098716D01*
X148247291Y-96032068D01*
X148078815Y-95997485D01*
X147906831Y-95996284D01*
X147737889Y-96028511D01*
X147578424Y-96092939D01*
X147434510Y-96187114D01*
X147430628Y-96190916D01*
X144266172Y-96157078D01*
X145409278Y-95938270D01*
X145409336Y-95938253D01*
X145410312Y-95938072D01*
X145423812Y-95935472D01*
X145424001Y-95935416D01*
X145432778Y-95933699D01*
X147990978Y-95414799D01*
X147991014Y-95414792D01*
X148048323Y-95403165D01*
X148164399Y-95421795D01*
X148164399Y-95421795D01*
G37*
X148164399Y-95421795D02*
X148215419Y-95450913D01*
X148215424Y-95450915D01*
X152098142Y-97667198D01*
X152121642Y-97795238D01*
X152224661Y-98055435D01*
X152376258Y-98290667D01*
X152570658Y-98491974D01*
X152800456Y-98651687D01*
X153056899Y-98763725D01*
X153330220Y-98823818D01*
X153610008Y-98829679D01*
X153885605Y-98781084D01*
X154146516Y-98679883D01*
X154382800Y-98529933D01*
X154585459Y-98336943D01*
X154746773Y-98108266D01*
X154860598Y-97852611D01*
X154873000Y-97798023D01*
X154873000Y-117394017D01*
X154821494Y-117315854D01*
X154729605Y-117237537D01*
X154619535Y-117187921D01*
X154500000Y-117170934D01*
X152623454Y-117170934D01*
X150623886Y-115870916D01*
X150623887Y-115870916D01*
X150614092Y-115864542D01*
X150596389Y-115851138D01*
X150587681Y-115843541D01*
X150587668Y-115843532D01*
X150587588Y-115843461D01*
X145012588Y-110981461D01*
X145012563Y-110981443D01*
X145012136Y-110981066D01*
X145010334Y-110979497D01*
X139988850Y-106570567D01*
X139972313Y-106556022D01*
X139962379Y-106548875D01*
X139953788Y-106540156D01*
X139943789Y-106531936D01*
X139909489Y-106504136D01*
X139900677Y-106498320D01*
X139892994Y-106491074D01*
X139882701Y-106483227D01*
X139865954Y-106470642D01*
X139865916Y-106470613D01*
X139131309Y-105918393D01*
X143769658Y-106680346D01*
X143769661Y-106680346D01*
X143799942Y-106685323D01*
X143857307Y-106706395D01*
X143883502Y-106722092D01*
X144581774Y-107140865D01*
X144625108Y-107250314D01*
X144718276Y-107394882D01*
X144837749Y-107518600D01*
X144978977Y-107616756D01*
X145136581Y-107685612D01*
X145304557Y-107722544D01*
X145476508Y-107726146D01*
X145645884Y-107696280D01*
X145806233Y-107634085D01*
X145951447Y-107541929D01*
X146075997Y-107423322D01*
X146175136Y-107282783D01*
X146245090Y-107125664D01*
X146283194Y-106957949D01*
X146285937Y-106761506D01*
X146284836Y-106755946D01*
X147190290Y-105403174D01*
X147337733Y-105345985D01*
X147482947Y-105253829D01*
X147607497Y-105135222D01*
X147706636Y-104994683D01*
X147776590Y-104837564D01*
X147814694Y-104669849D01*
X147817437Y-104473406D01*
X147784031Y-104304693D01*
X147718491Y-104145681D01*
X147623314Y-104002429D01*
X147502125Y-103880391D01*
X147359541Y-103784216D01*
X147200991Y-103717568D01*
X147032515Y-103682985D01*
X146860531Y-103681784D01*
X146691589Y-103714011D01*
X146532124Y-103778439D01*
X146388210Y-103872614D01*
X146265329Y-103992948D01*
X146168161Y-104134858D01*
X146100407Y-104292939D01*
X146064649Y-104461169D01*
X146062248Y-104633141D01*
X146065291Y-104649719D01*
X145204626Y-105935575D01*
X144579898Y-105560908D01*
X144579885Y-105560902D01*
X144579698Y-105560788D01*
X144498598Y-105512188D01*
X144445450Y-105487028D01*
X144392878Y-105460737D01*
X144384029Y-105457416D01*
X144206529Y-105392216D01*
X144149192Y-105377313D01*
X144092211Y-105361261D01*
X144082895Y-105359662D01*
X143989195Y-105344263D01*
X143989194Y-105344263D01*
X143989142Y-105344254D01*
X139314338Y-104576312D01*
X139235362Y-104496783D01*
X138979415Y-102834476D01*
X138979413Y-102834461D01*
X138971632Y-102783935D01*
X138988079Y-102682897D01*
X139011494Y-102637424D01*
X139011497Y-102637416D01*
X139011515Y-102637382D01*
X139660406Y-101376977D01*
X139711433Y-101357185D01*
X139856647Y-101265029D01*
X139981197Y-101146422D01*
X140080336Y-101005883D01*
X140150290Y-100848764D01*
X140188394Y-100681049D01*
X140191137Y-100484606D01*
X140157731Y-100315893D01*
X140092191Y-100156881D01*
X140015613Y-100041623D01*
X140117599Y-100043759D01*
X140267662Y-100017299D01*
X140409727Y-99962195D01*
X140538384Y-99880547D01*
X140543835Y-99875356D01*
X141116414Y-99965529D01*
X141150723Y-100018767D01*
X141256574Y-100128379D01*
X141381699Y-100215343D01*
X141521332Y-100276347D01*
X141670155Y-100309068D01*
X141822499Y-100312259D01*
X141972562Y-100285799D01*
X142114627Y-100230695D01*
X142243284Y-100149047D01*
X142353631Y-100043965D01*
X142441467Y-99919450D01*
X142503444Y-99780246D01*
X142537203Y-99631655D01*
X142539634Y-99457611D01*
X142510037Y-99308136D01*
X142451970Y-99167255D01*
X142367646Y-99040337D01*
X142260275Y-98932214D01*
X142133948Y-98847006D01*
X141993477Y-98787957D01*
X141844212Y-98757317D01*
X141691838Y-98756253D01*
X141542159Y-98784806D01*
X141400877Y-98841888D01*
X141275918Y-98923658D01*
X140703747Y-98833549D01*
X140662746Y-98771837D01*
X140555375Y-98663714D01*
X140520610Y-98640265D01*
X141672634Y-97778124D01*
X141672671Y-97778090D01*
X141673315Y-97777614D01*
X141697083Y-97759780D01*
X141751889Y-97733038D01*
X141781454Y-97724967D01*
X142183723Y-97615428D01*
X142271581Y-97653812D01*
X142439557Y-97690744D01*
X142611508Y-97694346D01*
X142780884Y-97664480D01*
X142941233Y-97602285D01*
X143086447Y-97510129D01*
X143098482Y-97498669D01*
X147415384Y-97544829D01*
X147415549Y-97545000D01*
X147556777Y-97643156D01*
X147714381Y-97712012D01*
X147882357Y-97748944D01*
X148054308Y-97752546D01*
X148223684Y-97722680D01*
X148384033Y-97660485D01*
X148529247Y-97568329D01*
X148653797Y-97449722D01*
X148752936Y-97309183D01*
X148822890Y-97152064D01*
X148860994Y-96984349D01*
X148863737Y-96787906D01*
X148830331Y-96619193D01*
X148764791Y-96460181D01*
X148669614Y-96316929D01*
X148548425Y-96194891D01*
X148405841Y-96098716D01*
X148247291Y-96032068D01*
X148078815Y-95997485D01*
X147906831Y-95996284D01*
X147737889Y-96028511D01*
X147578424Y-96092939D01*
X147434510Y-96187114D01*
X147430628Y-96190916D01*
X144266172Y-96157078D01*
X145409278Y-95938270D01*
X145409336Y-95938253D01*
X145410312Y-95938072D01*
X145423812Y-95935472D01*
X145424001Y-95935416D01*
X145432778Y-95933699D01*
X147990978Y-95414799D01*
X147991014Y-95414792D01*
X148048323Y-95403165D01*
X148164399Y-95421795D01*
G36*
X105561162Y-116573239D02*
X101789066Y-116208809D01*
X101789066Y-115153522D01*
X105561162Y-116573239D01*
X105561162Y-116573239D01*
G37*
X105561162Y-116573239D02*
X101789066Y-116208809D01*
X101789066Y-115153522D01*
X105561162Y-116573239D01*
G36*
X108605632Y-98369577D02*
X108581806Y-98481670D01*
X108579678Y-98634032D01*
X108607185Y-98783907D01*
X108663279Y-98925584D01*
X108745823Y-99053667D01*
X108851674Y-99163279D01*
X108976799Y-99250243D01*
X109116432Y-99311247D01*
X109265255Y-99343968D01*
X109417599Y-99347159D01*
X109567662Y-99320699D01*
X109709727Y-99265595D01*
X109838384Y-99183947D01*
X109948731Y-99078865D01*
X110036567Y-98954350D01*
X110098544Y-98815146D01*
X110132303Y-98666555D01*
X110134734Y-98492511D01*
X110124132Y-98438966D01*
X113579068Y-101612602D01*
X106213007Y-98829066D01*
X107500000Y-98829066D01*
X107567998Y-98823644D01*
X107683330Y-98787927D01*
X107784146Y-98721494D01*
X107862463Y-98629605D01*
X107912079Y-98519535D01*
X107929066Y-98400000D01*
X107929066Y-97308804D01*
X108605632Y-98369577D01*
X108605632Y-98369577D01*
G37*
X108605632Y-98369577D02*
X108581806Y-98481670D01*
X108579678Y-98634032D01*
X108607185Y-98783907D01*
X108663279Y-98925584D01*
X108745823Y-99053667D01*
X108851674Y-99163279D01*
X108976799Y-99250243D01*
X109116432Y-99311247D01*
X109265255Y-99343968D01*
X109417599Y-99347159D01*
X109567662Y-99320699D01*
X109709727Y-99265595D01*
X109838384Y-99183947D01*
X109948731Y-99078865D01*
X110036567Y-98954350D01*
X110098544Y-98815146D01*
X110132303Y-98666555D01*
X110134734Y-98492511D01*
X110124132Y-98438966D01*
X113579068Y-101612602D01*
X106213007Y-98829066D01*
X107500000Y-98829066D01*
X107567998Y-98823644D01*
X107683330Y-98787927D01*
X107784146Y-98721494D01*
X107862463Y-98629605D01*
X107912079Y-98519535D01*
X107929066Y-98400000D01*
X107929066Y-97308804D01*
X108605632Y-98369577D01*
M02*
