G04 #@! TF.FileFunction,Copper,L2,Bot,Signal*
%FSLAX46Y46*%
G04 Gerber Fmt 4.6, Leading zero omitted, Abs format (unit mm)*
G04 Created by KiCad (PCBNEW (after 2015-mar-04 BZR unknown)-product) date 12.05.2015 11:57:38*
%MOMM*%
G01*
G04 APERTURE LIST*
%ADD10C,0.100000*%
%ADD11R,2.000000X2.000000*%
%ADD12C,2.000000*%
%ADD13C,1.500000*%
%ADD14R,1.100000X1.100000*%
%ADD15R,1.500000X1.500000*%
%ADD16R,1.000000X1.080000*%
%ADD17C,1.200000*%
%ADD18R,1.200000X1.600000*%
%ADD19R,3.000000X8.800000*%
%ADD20R,1.100000X2.600000*%
%ADD21O,1.100000X2.600000*%
%ADD22C,0.900000*%
%ADD23C,0.500000*%
%ADD24C,0.200000*%
%ADD25C,0.400000*%
G04 APERTURE END LIST*
D10*
D11*
X140283000Y-59481300D03*
D12*
X140283000Y-106481300D03*
D10*
G36*
X114359786Y-99927454D02*
X115420446Y-100988114D01*
X114359786Y-102048774D01*
X113299126Y-100988114D01*
X114359786Y-99927454D01*
X114359786Y-99927454D01*
G37*
D13*
X117188214Y-98159686D03*
D14*
X133952000Y-65718700D03*
X135052000Y-65718700D03*
X133952000Y-66818700D03*
X135052000Y-66818700D03*
D15*
X126100000Y-109600000D03*
D13*
X128640000Y-109600000D03*
X131180000Y-109600000D03*
D15*
X135200000Y-55100000D03*
D13*
X132660000Y-55100000D03*
D15*
X134600000Y-109600000D03*
D13*
X137140000Y-109600000D03*
X139680000Y-109600000D03*
X142220000Y-109600000D03*
D15*
X119146000Y-75214200D03*
D13*
X119146000Y-77754200D03*
X119146000Y-80294200D03*
X119146000Y-82834200D03*
D15*
X119146000Y-86301100D03*
D13*
X119146000Y-88841100D03*
X119146000Y-91381100D03*
X119146000Y-93921100D03*
D15*
X113086000Y-67200000D03*
D13*
X110546000Y-67200000D03*
X117400000Y-70300000D03*
X117400000Y-67200000D03*
X117400000Y-64100000D03*
D11*
X127195000Y-106481300D03*
D12*
X127195000Y-59481300D03*
D16*
X108200000Y-90260000D03*
X108200000Y-88940000D03*
X110800000Y-90260000D03*
X110800000Y-88940000D03*
X113400000Y-90260000D03*
X113400000Y-88940000D03*
X116000000Y-90260000D03*
X116000000Y-88940000D03*
D17*
X116304500Y-69700000D03*
X116304500Y-67200000D03*
X116304500Y-64700000D03*
D18*
X112700000Y-68400000D03*
X110900000Y-68400000D03*
D19*
X111800000Y-74500000D03*
D20*
X108190000Y-85282000D03*
D21*
X110730000Y-85282000D03*
X113270000Y-85282000D03*
X115810000Y-85282000D03*
X115810000Y-93918000D03*
X113270000Y-93918000D03*
X110730000Y-93918000D03*
X108190000Y-93918000D03*
D22*
X109400000Y-80800000D03*
X116000000Y-61600000D03*
X146200000Y-108000000D03*
X125000000Y-71800000D03*
X134200000Y-83200000D03*
X114600000Y-91800000D03*
X109400000Y-91800000D03*
X125400000Y-76800000D03*
X129000000Y-57600000D03*
X133800000Y-78600000D03*
X134800000Y-76400000D03*
X131800000Y-76400000D03*
X123200000Y-69800000D03*
X113000000Y-64400000D03*
X107800000Y-73600000D03*
X112200000Y-81600000D03*
X107600000Y-77800000D03*
X106200000Y-87600000D03*
X128400000Y-97400000D03*
X141000000Y-62000000D03*
X144474000Y-64548700D03*
X118200000Y-106400000D03*
X121400000Y-108200000D03*
X143940000Y-109949600D03*
X124800000Y-106600000D03*
X137600000Y-107600000D03*
X106200000Y-81600000D03*
X142800000Y-107400000D03*
X137912400Y-103617800D03*
X141144100Y-104287500D03*
X143800000Y-104800000D03*
X146200000Y-104200000D03*
X137876900Y-101988300D03*
X143450000Y-101150000D03*
X146200000Y-101200000D03*
X138100800Y-97550800D03*
X140490900Y-97343500D03*
X143450000Y-98250000D03*
X146200000Y-98400000D03*
X127800000Y-87000000D03*
X140576000Y-95215000D03*
X143450000Y-95350000D03*
X146200000Y-95400000D03*
X137468700Y-93121200D03*
X143450000Y-92450000D03*
X146200000Y-92400000D03*
X137644500Y-88567900D03*
X140550000Y-89550000D03*
X143450000Y-89550000D03*
X146200000Y-89600000D03*
X137650000Y-86650000D03*
X140550000Y-86650000D03*
X143450000Y-86650000D03*
X146200000Y-86600000D03*
X137650000Y-83750000D03*
X140550000Y-83750000D03*
X143450000Y-83750000D03*
X146200000Y-83800000D03*
X137650000Y-80850000D03*
X140550000Y-80850000D03*
X143450000Y-80850000D03*
X146200000Y-80800000D03*
X137650000Y-77950000D03*
X140550000Y-77950000D03*
X143450000Y-77950000D03*
X146200000Y-78000000D03*
X137719100Y-75713200D03*
X140550000Y-75050000D03*
X143450000Y-75050000D03*
X146200000Y-75000000D03*
X137400000Y-71800000D03*
X140550000Y-72150000D03*
X143450000Y-72150000D03*
X146200000Y-72200000D03*
X139400000Y-71000000D03*
X143400000Y-69200000D03*
X146200000Y-69200000D03*
X129800000Y-61600000D03*
X140600000Y-66800000D03*
X142800000Y-66800000D03*
X146226300Y-66834500D03*
X132200000Y-60200000D03*
X124800000Y-59200000D03*
X142800000Y-63600000D03*
X146200000Y-63600000D03*
X138200000Y-60200000D03*
X136200000Y-58000000D03*
X143450000Y-60550000D03*
X146200000Y-60600000D03*
X138600000Y-55600000D03*
X141400000Y-55400000D03*
X143450000Y-57650000D03*
X144600000Y-66800000D03*
X146200000Y-57600000D03*
X120400000Y-67800000D03*
X123600000Y-66000000D03*
X125400000Y-64000000D03*
X123800000Y-61200000D03*
X119200000Y-64000000D03*
X120600000Y-61800000D03*
X120000000Y-59000000D03*
X122800000Y-57800000D03*
X126000000Y-56400000D03*
X129200000Y-55200000D03*
X123999300Y-91880700D03*
X120593400Y-78913700D03*
X122709100Y-96557900D03*
X128460900Y-69225100D03*
X131975000Y-81938000D03*
X131926400Y-99607400D03*
X136600900Y-99170500D03*
X133590000Y-101320200D03*
X140678200Y-92288000D03*
X140175000Y-102452900D03*
X130508400Y-105191300D03*
X135655400Y-94947700D03*
X127389800Y-89698000D03*
X124143400Y-101356000D03*
X131737000Y-107751900D03*
X106989900Y-84550100D03*
X133600000Y-59000000D03*
X131400000Y-68400000D03*
X139566700Y-68613800D03*
X138912900Y-64507600D03*
X132717400Y-70757300D03*
X118724700Y-103080200D03*
X119691300Y-101577700D03*
X114413700Y-73432100D03*
X124402200Y-85116600D03*
X124506200Y-80195400D03*
X141748900Y-64532100D03*
X116808700Y-86864400D03*
X131333300Y-96270000D03*
X135380500Y-91392200D03*
X128636100Y-72365500D03*
X130582200Y-71503100D03*
X129448200Y-73426000D03*
X129230500Y-76059300D03*
X127447400Y-73617700D03*
X129600000Y-92600000D03*
X133227100Y-90498700D03*
X117110100Y-94440300D03*
X137004400Y-97703200D03*
X133303300Y-91701700D03*
X134285000Y-94544800D03*
X135906500Y-97562100D03*
X117054900Y-84848600D03*
X132955100Y-96185600D03*
X117688900Y-82467600D03*
X134642000Y-95701100D03*
X135065500Y-96797800D03*
X126709800Y-104731200D03*
X129591200Y-104066400D03*
X130586900Y-103354700D03*
X135922900Y-103518400D03*
X121081600Y-100447900D03*
X131336100Y-98237200D03*
X130389200Y-97529400D03*
X118534000Y-101895300D03*
X136775400Y-102673700D03*
X121646100Y-103048700D03*
X127942900Y-101546100D03*
X118796900Y-98380900D03*
X126039500Y-96136800D03*
X126216900Y-99091800D03*
X124217800Y-99157000D03*
X133728900Y-102825400D03*
X139263900Y-97316000D03*
X137344500Y-90148600D03*
X132873500Y-62662500D03*
X124480000Y-74515500D03*
X140320000Y-63014200D03*
X137952100Y-62434100D03*
X136800000Y-69400000D03*
X135016600Y-71717700D03*
X129983500Y-65322700D03*
D23*
X133590000Y-101320200D02*
X131926400Y-99607400D01*
X132154500Y-57752900D02*
X127195000Y-59481300D01*
X119691300Y-101577700D02*
X119484000Y-102207800D01*
X119212300Y-102630300D02*
X119306400Y-102543400D01*
X119306400Y-102543400D02*
X119444100Y-102329300D01*
X119444100Y-102329300D02*
X119484000Y-102207800D01*
X119212300Y-102630300D02*
X118724700Y-103080200D01*
X125400000Y-64000000D02*
X127195000Y-59481300D01*
X128460900Y-69225100D02*
X123200000Y-69800000D01*
X124506200Y-80195400D02*
X124402200Y-85116600D01*
X108190000Y-85282000D02*
X107890000Y-84550100D01*
X107890000Y-84550100D02*
X107640000Y-84550100D01*
X107640000Y-84550100D02*
X106989900Y-84550100D01*
X124506200Y-80195400D02*
X122412200Y-78315500D01*
X138912900Y-64507600D02*
X135669000Y-65409600D01*
X135602000Y-65418700D02*
X135619000Y-65418700D01*
X135619000Y-65418700D02*
X135652800Y-65414100D01*
X135652800Y-65414100D02*
X135669000Y-65409600D01*
X135602000Y-65418700D02*
X135352000Y-65418700D01*
X135352000Y-65418700D02*
X135052000Y-65718700D01*
X133590000Y-101320200D02*
X136600900Y-99170500D01*
X131975000Y-81938000D02*
X124506200Y-80195400D01*
X116000000Y-88940000D02*
X115808600Y-88650000D01*
X115808600Y-88650000D02*
X115808600Y-88400000D01*
X115808600Y-88400000D02*
X115808600Y-86864400D01*
X115808600Y-86864400D02*
X115808600Y-86862700D01*
X115808600Y-86862700D02*
X115810000Y-86032000D01*
X115810000Y-86032000D02*
X115810000Y-85282000D01*
X120593400Y-78913700D02*
X122412200Y-78315500D01*
X133952000Y-66818700D02*
X134252000Y-67118700D01*
X134252000Y-67118700D02*
X134252000Y-67368700D01*
X134252000Y-67368700D02*
X134252000Y-67400600D01*
X134252000Y-67400600D02*
X134266600Y-67462700D01*
X134266600Y-67462700D02*
X134280700Y-67491200D01*
X134280700Y-67491200D02*
X134597200Y-68128900D01*
X133600000Y-59000000D02*
X132154500Y-57752900D01*
X111800000Y-74500000D02*
X113050000Y-74332200D01*
X113050000Y-74332200D02*
X113300000Y-74332200D01*
X113300000Y-74332200D02*
X114034800Y-74248600D01*
X113400000Y-88940000D02*
X113270000Y-88650000D01*
X113270000Y-88650000D02*
X113270000Y-88400000D01*
X113270000Y-88400000D02*
X113270000Y-86032000D01*
X113270000Y-86032000D02*
X113270000Y-85282000D01*
X123800000Y-61200000D02*
X125400000Y-64000000D01*
X140576000Y-95215000D02*
X140490900Y-97343500D01*
X108200000Y-88940000D02*
X108195000Y-88650000D01*
X108195000Y-88650000D02*
X108195000Y-88400000D01*
X108195000Y-88400000D02*
X108195000Y-86582000D01*
X108195000Y-86582000D02*
X108195000Y-86332000D01*
X108195000Y-86332000D02*
X108190000Y-85282000D01*
X137912400Y-103617800D02*
X140175000Y-102452900D01*
X132717400Y-70757300D02*
X134597200Y-68128900D01*
X129200000Y-55200000D02*
X126000000Y-56400000D01*
X108200000Y-88940000D02*
X108450000Y-88940000D01*
X108450000Y-88940000D02*
X108700000Y-88940000D01*
X108700000Y-88940000D02*
X110300000Y-88940000D01*
X110300000Y-88940000D02*
X110550000Y-88940000D01*
X110550000Y-88940000D02*
X110800000Y-88940000D01*
X119146000Y-80294200D02*
X117134100Y-81635500D01*
X117134100Y-81635500D02*
X117006700Y-81720300D01*
X117006700Y-81720300D02*
X116813500Y-81960000D01*
X116813500Y-81960000D02*
X116757200Y-82104100D01*
X116757200Y-82104100D02*
X115810000Y-84532000D01*
X115810000Y-84532000D02*
X115810000Y-85282000D01*
X131400000Y-68400000D02*
X133263500Y-67160500D01*
X133402000Y-67118700D02*
X133365100Y-67118700D01*
X133365100Y-67118700D02*
X133294400Y-67140000D01*
X133294400Y-67140000D02*
X133263500Y-67160500D01*
X133402000Y-67118700D02*
X133467800Y-67359900D01*
X133467800Y-67359900D02*
X133952000Y-66818700D01*
X140490900Y-97343500D02*
X140175000Y-102452900D01*
X122412200Y-78315500D02*
X123200000Y-69800000D01*
X141748900Y-64532100D02*
X138912900Y-64507600D01*
X110800000Y-88940000D02*
X110730000Y-88650000D01*
X110730000Y-88650000D02*
X110730000Y-88400000D01*
X110730000Y-88400000D02*
X110730000Y-86032000D01*
X110730000Y-86032000D02*
X110730000Y-85282000D01*
X119146000Y-93921100D02*
X123999300Y-91880700D01*
X124143400Y-101356000D02*
X119691300Y-101577700D01*
X125400000Y-64000000D02*
X123200000Y-69800000D01*
X122800000Y-57800000D02*
X120000000Y-59000000D01*
X132516100Y-110284500D02*
X133599100Y-110839500D01*
X133599100Y-110839500D02*
X133657500Y-110869400D01*
X133657500Y-110869400D02*
X133785000Y-110900100D01*
X133785000Y-110900100D02*
X133850000Y-110900100D01*
X133850000Y-110900100D02*
X137140000Y-110900100D01*
X137140000Y-110900100D02*
X137315800Y-110900100D01*
X137315800Y-110900100D02*
X137654700Y-110806700D01*
X137654700Y-110806700D02*
X137805500Y-110716900D01*
X137805500Y-110716900D02*
X139680000Y-109600000D01*
X139566700Y-68613800D02*
X134597200Y-68128900D01*
X132660000Y-55100000D02*
X132154500Y-57752900D01*
X114413700Y-73432100D02*
X114034800Y-74248600D01*
X123600000Y-66000000D02*
X120400000Y-67800000D01*
X124143400Y-101356000D02*
X126455800Y-101077800D01*
X126455800Y-101077800D02*
X126699600Y-101048400D01*
X126699600Y-101048400D02*
X127158600Y-100873500D01*
X127158600Y-100873500D02*
X127358700Y-100734200D01*
X127358700Y-100734200D02*
X127372000Y-100724900D01*
X127719500Y-100571300D02*
X127625700Y-100592900D01*
X127625700Y-100592900D02*
X127451100Y-100670000D01*
X127451100Y-100670000D02*
X127372000Y-100724900D01*
X127719500Y-100571300D02*
X131926400Y-99607400D01*
X140678200Y-92288000D02*
X140576000Y-95215000D01*
X120600000Y-61800000D02*
X119200000Y-64000000D01*
X127389800Y-89698000D02*
X133192900Y-89499200D01*
X134216500Y-90353000D02*
X134189900Y-90171400D01*
X134189900Y-90171400D02*
X134009800Y-89849400D01*
X134009800Y-89849400D02*
X133726700Y-89612900D01*
X133726700Y-89612900D02*
X133377800Y-89493000D01*
X133377800Y-89493000D02*
X133192900Y-89499200D01*
X134216500Y-90353000D02*
X134391100Y-91537900D01*
X134391100Y-91537900D02*
X134399000Y-91591500D01*
X134399000Y-91591500D02*
X134425700Y-91694600D01*
X134425700Y-91694600D02*
X134445000Y-91745800D01*
X134445000Y-91745800D02*
X135655400Y-94947700D01*
X130508400Y-105191300D02*
X133947200Y-104813800D01*
X133947200Y-104813800D02*
X134015500Y-104805100D01*
X134015500Y-104805100D02*
X136066200Y-104508200D01*
X136066200Y-104508200D02*
X136149300Y-104496100D01*
X136149300Y-104496100D02*
X136307600Y-104445300D01*
X136307600Y-104445300D02*
X136381200Y-104407300D01*
X136381200Y-104407300D02*
X137912400Y-103617800D01*
X131737000Y-107751900D02*
X132352800Y-109038900D01*
X132478500Y-109534800D02*
X132471900Y-109405200D01*
X132471900Y-109405200D02*
X132408700Y-109155800D01*
X132408700Y-109155800D02*
X132352800Y-109038900D01*
X132478500Y-109534800D02*
X132516100Y-110284500D01*
X114413700Y-73432100D02*
X123200000Y-69800000D01*
X119146000Y-93921100D02*
X118029100Y-92046600D01*
X117944300Y-91877100D02*
X117962500Y-91921200D01*
X117962500Y-91921200D02*
X118005200Y-92006400D01*
X118005200Y-92006400D02*
X118029100Y-92046600D01*
X117944300Y-91877100D02*
X117008500Y-89610100D01*
X117008500Y-89610100D02*
X116995300Y-89578100D01*
X116995300Y-89578100D02*
X116960600Y-89517100D01*
X116960600Y-89517100D02*
X116939700Y-89489400D01*
X116939700Y-89489400D02*
X116891600Y-89425500D01*
X116891600Y-89425500D02*
X116821900Y-89333000D01*
X116821900Y-89333000D02*
X116615400Y-89230000D01*
X116615400Y-89230000D02*
X116500000Y-89230000D01*
X116500000Y-89230000D02*
X116250000Y-89230000D01*
X116250000Y-89230000D02*
X116000000Y-88940000D01*
X113400000Y-88940000D02*
X113650000Y-88940000D01*
X113650000Y-88940000D02*
X113900000Y-88940000D01*
X113900000Y-88940000D02*
X115500000Y-88940000D01*
X115500000Y-88940000D02*
X115750000Y-88940000D01*
X115750000Y-88940000D02*
X116000000Y-88940000D01*
X126100000Y-109600000D02*
X126600000Y-110100000D01*
X126600000Y-110100000D02*
X126600000Y-110350000D01*
X126600000Y-110350000D02*
X126600000Y-110441000D01*
X126600000Y-110441000D02*
X126717000Y-110580400D01*
X126717000Y-110580400D02*
X126806500Y-110596200D01*
X126806500Y-110596200D02*
X128413700Y-110880300D01*
X128413700Y-110880300D02*
X128469600Y-110890200D01*
X128469600Y-110890200D02*
X128582700Y-110900100D01*
X128582700Y-110900100D02*
X128640000Y-110900100D01*
X128640000Y-110900100D02*
X131180000Y-110900100D01*
X131180000Y-110900100D02*
X131367400Y-110900200D01*
X131367400Y-110900200D02*
X131728900Y-110793400D01*
X131728900Y-110793400D02*
X131885700Y-110691900D01*
X131885700Y-110691900D02*
X132516100Y-110284500D01*
X110800000Y-88940000D02*
X111050000Y-88940000D01*
X111050000Y-88940000D02*
X111300000Y-88940000D01*
X111300000Y-88940000D02*
X112900000Y-88940000D01*
X112900000Y-88940000D02*
X113150000Y-88940000D01*
X113150000Y-88940000D02*
X113400000Y-88940000D01*
X114034800Y-74248600D02*
X119146000Y-80294200D01*
X112200000Y-81600000D02*
X113270000Y-85282000D01*
X112200000Y-81600000D02*
X109400000Y-80800000D01*
X146200000Y-60600000D02*
X146200000Y-63600000D01*
X116304500Y-69700000D02*
X117400000Y-70300000D01*
X110900000Y-68400000D02*
X110550000Y-67850000D01*
X110550000Y-67850000D02*
X110550000Y-67600000D01*
X110550000Y-67600000D02*
X110546000Y-67200000D01*
D24*
X131333300Y-96270000D02*
X128620100Y-95276800D01*
X127472900Y-94497500D02*
X127705700Y-94758900D01*
X127705700Y-94758900D02*
X128288700Y-95155300D01*
X128288700Y-95155300D02*
X128620100Y-95276800D01*
X127472900Y-94497500D02*
X124633700Y-91314800D01*
X124633700Y-91314800D02*
X124542000Y-91212100D01*
X124542000Y-91212100D02*
X124304600Y-91075500D01*
X124304600Y-91075500D02*
X124170500Y-91048000D01*
X124170500Y-91048000D02*
X118914400Y-89967600D01*
X118127800Y-89375900D02*
X118248400Y-89605300D01*
X118248400Y-89605300D02*
X118661100Y-89915500D01*
X118661100Y-89915500D02*
X118914400Y-89967600D01*
X118127800Y-89375900D02*
X116808700Y-86864400D01*
X128636100Y-72365500D02*
X128598700Y-73395100D01*
X128598700Y-73395100D02*
X128593700Y-73535700D01*
X128593700Y-73535700D02*
X128674000Y-73803900D01*
X128674000Y-73803900D02*
X128754600Y-73917500D01*
X128754600Y-73917500D02*
X129924100Y-75567800D01*
X130000800Y-75699700D02*
X129984500Y-75664700D01*
X129984500Y-75664700D02*
X129946400Y-75599300D01*
X129946400Y-75599300D02*
X129924100Y-75567800D01*
X130000800Y-75699700D02*
X132745300Y-81578400D01*
X132796300Y-81718600D02*
X132786700Y-81682700D01*
X132786700Y-81682700D02*
X132760800Y-81611600D01*
X132760800Y-81611600D02*
X132745300Y-81578400D01*
X132796300Y-81718600D02*
X135380500Y-91392200D01*
X129448200Y-73426000D02*
X130582200Y-71503100D01*
X127447400Y-73617700D02*
X129230500Y-76059300D01*
X133227100Y-90498700D02*
X129600000Y-92600000D01*
X137004400Y-97703200D02*
X136484600Y-98185300D01*
X135670000Y-98378600D02*
X135885700Y-98440900D01*
X135885700Y-98440900D02*
X136321200Y-98337200D01*
X136321200Y-98337200D02*
X136484600Y-98185300D01*
X135670000Y-98378600D02*
X134689800Y-98094700D01*
X134689800Y-98094700D02*
X134689300Y-98094500D01*
X134689300Y-98094500D02*
X132578900Y-97482300D01*
X132553300Y-97474600D02*
X132578900Y-97482300D01*
X132553300Y-97474600D02*
X131099100Y-97021300D01*
X130861200Y-96899700D02*
X130915200Y-96940200D01*
X130915200Y-96940200D02*
X131035400Y-97001500D01*
X131035400Y-97001500D02*
X131099100Y-97021300D01*
X130861200Y-96899700D02*
X130861300Y-96899700D01*
X130861300Y-96899700D02*
X130810600Y-96861700D01*
X130810600Y-96861700D02*
X130699700Y-96803500D01*
X130699700Y-96803500D02*
X130639500Y-96783300D01*
X130639500Y-96783300D02*
X126309900Y-95330800D01*
X126309900Y-95330800D02*
X126250700Y-95311000D01*
X126250700Y-95311000D02*
X126127800Y-95289000D01*
X126127800Y-95289000D02*
X126065900Y-95287100D01*
X126065900Y-95287100D02*
X119110200Y-95070600D01*
X118773800Y-95009300D02*
X118855600Y-95037200D01*
X118855600Y-95037200D02*
X119023800Y-95067900D01*
X119023800Y-95067900D02*
X119110200Y-95070600D01*
X118773800Y-95009300D02*
X117110100Y-94440300D01*
X133303300Y-91701700D02*
X134285000Y-94544800D01*
X117054900Y-84848600D02*
X118026100Y-87203600D01*
X118026100Y-87203600D02*
X118062100Y-87291100D01*
X118062100Y-87291100D02*
X118205500Y-87415500D01*
X118205500Y-87415500D02*
X118297500Y-87438900D01*
X118297500Y-87438900D02*
X119429200Y-87726400D01*
X119722000Y-87845600D02*
X119654200Y-87806300D01*
X119654200Y-87806300D02*
X119507100Y-87746200D01*
X119507100Y-87746200D02*
X119429200Y-87726400D01*
X119722000Y-87845600D02*
X124675500Y-90712100D01*
X125006900Y-90981900D02*
X124934500Y-90900900D01*
X124934500Y-90900900D02*
X124767800Y-90765300D01*
X124767800Y-90765300D02*
X124675500Y-90712100D01*
X125006900Y-90981900D02*
X127846100Y-94164600D01*
X127846100Y-94164600D02*
X128085600Y-94432900D01*
X128085600Y-94432900D02*
X128699200Y-94800300D01*
X128699200Y-94800300D02*
X129049900Y-94885100D01*
X129049900Y-94885100D02*
X131523300Y-95480600D01*
X132144200Y-96227800D02*
X132137300Y-96096500D01*
X132137300Y-96096500D02*
X132041500Y-95851500D01*
X132041500Y-95851500D02*
X131874200Y-95650400D01*
X131874200Y-95650400D02*
X131651000Y-95511300D01*
X131651000Y-95511300D02*
X131523300Y-95480600D01*
X132144200Y-96227800D02*
X132150600Y-96351900D01*
X132150600Y-96351900D02*
X132237800Y-96586100D01*
X132237800Y-96586100D02*
X132391500Y-96783300D01*
X132391500Y-96783300D02*
X132596000Y-96924500D01*
X132596000Y-96924500D02*
X132715400Y-96961400D01*
X132715400Y-96961400D02*
X134814500Y-97610000D01*
X134814500Y-97610000D02*
X134897000Y-97635500D01*
X134897000Y-97635500D02*
X135070400Y-97652300D01*
X135070400Y-97652300D02*
X135156700Y-97643000D01*
X135156700Y-97643000D02*
X135906500Y-97562100D01*
X117688900Y-82467600D02*
X118111700Y-83337100D01*
X118111700Y-83337100D02*
X118161900Y-83440400D01*
X118161900Y-83440400D02*
X118302500Y-83624400D01*
X118302500Y-83624400D02*
X118388400Y-83699500D01*
X118388400Y-83699500D02*
X120159500Y-85250100D01*
X120183600Y-85273000D02*
X120177800Y-85267000D01*
X120177800Y-85267000D02*
X120165600Y-85255400D01*
X120165600Y-85255400D02*
X120159500Y-85250100D01*
X120183600Y-85273000D02*
X125329400Y-90594500D01*
X125380100Y-90649000D02*
X125329400Y-90594500D01*
X125380100Y-90649000D02*
X128219200Y-93831700D01*
X128219200Y-93831700D02*
X128412100Y-94047900D01*
X128412100Y-94047900D02*
X128911600Y-94341800D01*
X128911600Y-94341800D02*
X129194200Y-94405300D01*
X129194200Y-94405300D02*
X131629400Y-94952700D01*
X132415400Y-95462400D02*
X132271700Y-95269500D01*
X132271700Y-95269500D02*
X131866300Y-95006100D01*
X131866300Y-95006100D02*
X131629400Y-94952700D01*
X132415400Y-95462400D02*
X132955100Y-96185600D01*
X119146000Y-77754200D02*
X119816900Y-79259700D01*
X119816900Y-79259700D02*
X119846600Y-79326300D01*
X119846600Y-79326300D02*
X119927700Y-79447400D01*
X119927700Y-79447400D02*
X119978200Y-79500400D01*
X119978200Y-79500400D02*
X119978300Y-79500400D01*
X120130000Y-79698800D02*
X120097800Y-79645500D01*
X120097800Y-79645500D02*
X120022100Y-79546500D01*
X120022100Y-79546500D02*
X119978300Y-79500400D01*
X120130000Y-79698800D02*
X123674900Y-85556700D01*
X123674900Y-85556700D02*
X123690100Y-85581000D01*
X123690100Y-85581000D02*
X126677700Y-90162400D01*
X126677700Y-90162400D02*
X126685800Y-90174800D01*
X126685800Y-90174800D02*
X126703700Y-90200300D01*
X126703700Y-90200300D02*
X126713500Y-90213100D01*
X126713500Y-90213100D02*
X128923700Y-93115100D01*
X128923700Y-93115100D02*
X129014500Y-93234400D01*
X129014500Y-93234400D02*
X129266800Y-93396400D01*
X129266800Y-93396400D02*
X129413600Y-93429400D01*
X129413600Y-93429400D02*
X131848800Y-93976800D01*
X132771300Y-94410800D02*
X132566000Y-94252200D01*
X132566000Y-94252200D02*
X132100000Y-94033200D01*
X132100000Y-94033200D02*
X131848800Y-93976800D01*
X132771300Y-94410800D02*
X133745200Y-95164100D01*
X133768300Y-95182300D02*
X133745200Y-95164100D01*
X133768300Y-95182300D02*
X133768200Y-95182400D01*
X133768200Y-95182400D02*
X133792700Y-95202300D01*
X133792700Y-95202300D02*
X133845800Y-95238900D01*
X133845800Y-95238900D02*
X133872900Y-95254500D01*
X133872900Y-95254500D02*
X134642000Y-95701100D01*
X119146000Y-82834200D02*
X128589300Y-93495300D01*
X128589300Y-93495300D02*
X128729400Y-93653700D01*
X128729400Y-93653700D02*
X129095400Y-93870300D01*
X129095400Y-93870300D02*
X129303900Y-93917300D01*
X129303900Y-93917300D02*
X131739100Y-94464700D01*
X132430400Y-94780100D02*
X132276500Y-94666700D01*
X132276500Y-94666700D02*
X131925600Y-94506600D01*
X131925600Y-94506600D02*
X131739100Y-94464700D01*
X132430400Y-94780100D02*
X133441700Y-95524700D01*
X133636700Y-95728400D02*
X133597500Y-95669900D01*
X133597500Y-95669900D02*
X133499300Y-95567200D01*
X133499300Y-95567200D02*
X133441700Y-95524700D01*
X133636700Y-95728400D02*
X133936000Y-96174700D01*
X133936000Y-96174700D02*
X134005900Y-96278900D01*
X134005900Y-96278900D02*
X134200100Y-96438100D01*
X134200100Y-96438100D02*
X134315700Y-96486100D01*
X134315700Y-96486100D02*
X135065500Y-96797800D01*
D23*
X116304500Y-67200000D02*
X117400000Y-67200000D01*
X140283000Y-106481300D02*
X128195000Y-106481300D01*
X128195000Y-106481300D02*
X127945000Y-106481300D01*
X127945000Y-106481300D02*
X127195000Y-106481300D01*
D24*
X108190000Y-93918000D02*
X108190000Y-94668000D01*
X108190000Y-94668000D02*
X112540700Y-101473000D01*
X112540700Y-101473000D02*
X112567000Y-101514100D01*
X112567000Y-101514100D02*
X112628000Y-101590100D01*
X112628000Y-101590100D02*
X112662600Y-101624600D01*
X112662600Y-101624600D02*
X113723300Y-102685300D01*
X113723300Y-102685300D02*
X113758900Y-102720900D01*
X113758900Y-102720900D02*
X113837500Y-102783700D01*
X113837500Y-102783700D02*
X113880600Y-102810900D01*
X113880600Y-102810900D02*
X117473600Y-105070000D01*
X117473600Y-105070000D02*
X117760300Y-105250300D01*
X117760300Y-105250300D02*
X118412300Y-105434200D01*
X118412300Y-105434200D02*
X118750000Y-105430500D01*
X118750000Y-105430500D02*
X121671400Y-105399000D01*
X121671400Y-105399000D02*
X121745300Y-105398200D01*
X121745300Y-105398200D02*
X121892600Y-105387300D01*
X121892600Y-105387300D02*
X121963300Y-105377600D01*
X121963300Y-105377600D02*
X126709800Y-104731200D01*
X108190000Y-93918000D02*
X108190000Y-93168000D01*
X108190000Y-93168000D02*
X108190000Y-90800000D01*
X108190000Y-90800000D02*
X108190000Y-90700000D01*
X108190000Y-90700000D02*
X108200000Y-90260000D01*
X110730000Y-93918000D02*
X110730000Y-94668000D01*
X110730000Y-94668000D02*
X112920300Y-101116800D01*
X112920300Y-101116800D02*
X112935200Y-101160600D01*
X112935200Y-101160600D02*
X112983800Y-101238600D01*
X112983800Y-101238600D02*
X113016200Y-101271000D01*
X113016200Y-101271000D02*
X114076900Y-102331700D01*
X114076900Y-102331700D02*
X114092700Y-102347500D01*
X114092700Y-102347500D02*
X114127700Y-102375400D01*
X114127700Y-102375400D02*
X114146800Y-102387500D01*
X114146800Y-102387500D02*
X117739800Y-104646600D01*
X117739800Y-104646600D02*
X117965500Y-104788500D01*
X117965500Y-104788500D02*
X118478700Y-104933300D01*
X118478700Y-104933300D02*
X118744600Y-104930400D01*
X118744600Y-104930400D02*
X121666000Y-104898900D01*
X121666000Y-104898900D02*
X121759700Y-104897800D01*
X121759700Y-104897800D02*
X121942800Y-104877400D01*
X121942800Y-104877400D02*
X122031500Y-104858400D01*
X122031500Y-104858400D02*
X126532700Y-103899700D01*
X126764900Y-103882900D02*
X126707100Y-103879100D01*
X126707100Y-103879100D02*
X126590000Y-103887600D01*
X126590000Y-103887600D02*
X126532700Y-103899700D01*
X126764900Y-103882900D02*
X129591200Y-104066400D01*
X110730000Y-93918000D02*
X110730000Y-93168000D01*
X110730000Y-93168000D02*
X110730000Y-90800000D01*
X110730000Y-90800000D02*
X110730000Y-90700000D01*
X110730000Y-90700000D02*
X110800000Y-90260000D01*
X113270000Y-93918000D02*
X113270000Y-94668000D01*
X113270000Y-94668000D02*
X117503200Y-103655500D01*
X117503200Y-103655500D02*
X117586200Y-103831500D01*
X117586200Y-103831500D02*
X117842800Y-104120800D01*
X117842800Y-104120800D02*
X118172500Y-104327500D01*
X118172500Y-104327500D02*
X118544800Y-104432300D01*
X118544800Y-104432300D02*
X118739300Y-104430300D01*
X118739300Y-104430300D02*
X121660700Y-104398800D01*
X121660700Y-104398800D02*
X121729100Y-104398000D01*
X121729100Y-104398000D02*
X121862700Y-104383100D01*
X121862700Y-104383100D02*
X121927400Y-104369300D01*
X121927400Y-104369300D02*
X126428500Y-103410600D01*
X126726900Y-103381100D02*
X126651400Y-103380200D01*
X126651400Y-103380200D02*
X126501200Y-103395100D01*
X126501200Y-103395100D02*
X126428500Y-103410600D01*
X126726900Y-103381100D02*
X127919400Y-103396300D01*
X127919400Y-103396300D02*
X127980800Y-103397100D01*
X127980800Y-103397100D02*
X128103400Y-103390500D01*
X128103400Y-103390500D02*
X128165600Y-103382900D01*
X128165600Y-103382900D02*
X129488900Y-103222500D01*
X129715900Y-103225500D02*
X129660100Y-103217200D01*
X129660100Y-103217200D02*
X129545600Y-103215600D01*
X129545600Y-103215600D02*
X129488900Y-103222500D01*
X129715900Y-103225500D02*
X130586900Y-103354700D01*
X113270000Y-93918000D02*
X113270000Y-93168000D01*
X113270000Y-93168000D02*
X113270000Y-90800000D01*
X113270000Y-90800000D02*
X113270000Y-90700000D01*
X113270000Y-90700000D02*
X113400000Y-90260000D01*
X115810000Y-93918000D02*
X115810000Y-93168000D01*
X115810000Y-93168000D02*
X115810000Y-90800000D01*
X115810000Y-90800000D02*
X115810000Y-90700000D01*
X115810000Y-90700000D02*
X116000000Y-90260000D01*
X115810000Y-93918000D02*
X115810000Y-94668000D01*
X115810000Y-94668000D02*
X116040500Y-98233900D01*
X116040500Y-98233900D02*
X116045900Y-98318200D01*
X116045900Y-98318200D02*
X116081900Y-98485300D01*
X116081900Y-98485300D02*
X116112200Y-98565800D01*
X116112200Y-98565800D02*
X117929400Y-103380400D01*
X117929400Y-103380400D02*
X117975300Y-103502100D01*
X117975300Y-103502100D02*
X118136800Y-103708000D01*
X118136800Y-103708000D02*
X118352800Y-103855700D01*
X118352800Y-103855700D02*
X118603200Y-103931600D01*
X118603200Y-103931600D02*
X118733900Y-103930300D01*
X118733900Y-103930300D02*
X121655300Y-103898800D01*
X121655300Y-103898800D02*
X121698400Y-103898300D01*
X121698400Y-103898300D02*
X121782500Y-103888900D01*
X121782500Y-103888900D02*
X121823200Y-103880200D01*
X121823200Y-103880200D02*
X126324400Y-102921500D01*
X126733300Y-102881000D02*
X126629900Y-102879700D01*
X126629900Y-102879700D02*
X126424000Y-102900200D01*
X126424000Y-102900200D02*
X126324400Y-102921500D01*
X126733300Y-102881000D02*
X127925800Y-102896200D01*
X127925800Y-102896200D02*
X127982400Y-102896900D01*
X127982400Y-102896900D02*
X128097600Y-102888600D01*
X128097600Y-102888600D02*
X128154300Y-102879600D01*
X128154300Y-102879600D02*
X130453800Y-102515100D01*
X131063600Y-102650900D02*
X130929300Y-102560000D01*
X130929300Y-102560000D02*
X130614200Y-102489800D01*
X130614200Y-102489800D02*
X130453800Y-102515100D01*
X131063600Y-102650900D02*
X132971700Y-103943300D01*
X132971700Y-103943300D02*
X133101100Y-104030800D01*
X133101100Y-104030800D02*
X133390600Y-104141700D01*
X133390600Y-104141700D02*
X133697800Y-104184200D01*
X133697800Y-104184200D02*
X134008900Y-104155400D01*
X134008900Y-104155400D02*
X134155200Y-104106600D01*
X134155200Y-104106600D02*
X135922900Y-103518400D01*
X131336100Y-98237200D02*
X127274300Y-100037400D01*
X127274300Y-100037400D02*
X127203100Y-100068900D01*
X127203100Y-100068900D02*
X127065000Y-100146600D01*
X127065000Y-100146600D02*
X127001000Y-100191100D01*
X127001000Y-100191100D02*
X126987600Y-100200400D01*
X126260900Y-100441300D02*
X126455400Y-100435100D01*
X126455400Y-100435100D02*
X126827100Y-100312000D01*
X126827100Y-100312000D02*
X126987600Y-100200400D01*
X126260900Y-100441300D02*
X124261800Y-100506500D01*
X124172100Y-100506500D02*
X124261800Y-100506500D01*
X124172100Y-100506500D02*
X124172100Y-100506400D01*
X124172100Y-100506400D02*
X124159500Y-100506100D01*
X124159500Y-100506100D02*
X121081600Y-100447900D01*
X118534000Y-101895300D02*
X118951800Y-101158400D01*
X119155200Y-100918000D02*
X119094000Y-100967700D01*
X119094000Y-100967700D02*
X118991100Y-101089200D01*
X118991100Y-101089200D02*
X118951800Y-101158400D01*
X119155200Y-100918000D02*
X120545500Y-99788200D01*
X121195700Y-99605500D02*
X121021200Y-99581900D01*
X121021200Y-99581900D02*
X120682300Y-99677100D01*
X120682300Y-99677100D02*
X120545500Y-99788200D01*
X121195700Y-99605500D02*
X124103700Y-99999400D01*
X124103700Y-99999400D02*
X124139000Y-100004200D01*
X124139000Y-100004200D02*
X124210200Y-100007800D01*
X124210200Y-100007800D02*
X124245500Y-100006600D01*
X124245500Y-100006600D02*
X126244600Y-99941400D01*
X126244600Y-99941400D02*
X126367000Y-99937500D01*
X126367000Y-99937500D02*
X126601000Y-99860000D01*
X126601000Y-99860000D02*
X126702100Y-99789800D01*
X126702100Y-99789800D02*
X126715500Y-99780500D01*
X126821000Y-99711700D02*
X126715500Y-99780500D01*
X126821000Y-99711700D02*
X130389200Y-97529400D01*
X121646100Y-103048700D02*
X126392600Y-102402300D01*
X126739600Y-102381000D02*
X126653400Y-102379900D01*
X126653400Y-102379900D02*
X126477300Y-102390700D01*
X126477300Y-102390700D02*
X126392600Y-102402300D01*
X126739600Y-102381000D02*
X127932100Y-102396100D01*
X127932100Y-102396100D02*
X127967700Y-102396600D01*
X127967700Y-102396600D02*
X128040300Y-102391300D01*
X128040300Y-102391300D02*
X128076000Y-102385700D01*
X128076000Y-102385700D02*
X130375500Y-102021200D01*
X131344100Y-102236800D02*
X131130800Y-102092400D01*
X131130800Y-102092400D02*
X130630300Y-101980900D01*
X130630300Y-101980900D02*
X130375500Y-102021200D01*
X131344100Y-102236800D02*
X133252200Y-103529200D01*
X133252200Y-103529200D02*
X133351100Y-103596200D01*
X133351100Y-103596200D02*
X133579700Y-103670800D01*
X133579700Y-103670800D02*
X133818500Y-103679200D01*
X133818500Y-103679200D02*
X134051700Y-103620800D01*
X134051700Y-103620800D02*
X134155400Y-103560800D01*
X134155400Y-103560800D02*
X135496400Y-102783000D01*
X135928300Y-102668300D02*
X135814900Y-102667500D01*
X135814900Y-102667500D02*
X135594200Y-102726200D01*
X135594200Y-102726200D02*
X135496400Y-102783000D01*
X135928300Y-102668300D02*
X136775400Y-102673700D01*
D23*
X126216900Y-99091800D02*
X126039500Y-96136800D01*
X137344500Y-90148600D02*
X138395700Y-92746000D01*
X138452000Y-92938800D02*
X138442700Y-92889000D01*
X138442700Y-92889000D02*
X138414900Y-92793400D01*
X138414900Y-92793400D02*
X138395700Y-92746000D01*
X138452000Y-92938800D02*
X139263900Y-97316000D01*
X133728900Y-102825400D02*
X131566600Y-101610700D01*
X131566600Y-101610700D02*
X131309100Y-101466000D01*
X131309100Y-101466000D02*
X130732400Y-101337900D01*
X130732400Y-101337900D02*
X130438100Y-101359900D01*
X130438100Y-101359900D02*
X127942900Y-101546100D01*
X124217800Y-99157000D02*
X118796900Y-98380900D01*
X124217800Y-99157000D02*
X126216900Y-99091800D01*
X139263900Y-97316000D02*
X139033600Y-97911600D01*
X138834600Y-98230300D02*
X138898800Y-98160900D01*
X138898800Y-98160900D02*
X138999000Y-98000600D01*
X138999000Y-98000600D02*
X139033600Y-97911600D01*
X138834600Y-98230300D02*
X137334700Y-99850000D01*
X137235900Y-99943100D02*
X137261500Y-99922100D01*
X137261500Y-99922100D02*
X137311100Y-99875400D01*
X137311100Y-99875400D02*
X137334700Y-99850000D01*
X137235900Y-99943100D02*
X133728900Y-102825400D01*
X130201600Y-70178300D02*
X128097600Y-71522800D01*
X128097600Y-71522800D02*
X128071100Y-71539700D01*
X128071100Y-71539700D02*
X128021800Y-71575800D01*
X128021800Y-71575800D02*
X127997300Y-71596000D01*
X127997300Y-71596000D02*
X124480000Y-74515500D01*
X132873500Y-62662500D02*
X129983500Y-65322700D01*
X135016600Y-71717700D02*
X132734700Y-71757200D01*
X132036300Y-71489700D02*
X132178700Y-71622000D01*
X132178700Y-71622000D02*
X132540100Y-71760600D01*
X132540100Y-71760600D02*
X132734700Y-71757200D01*
X132036300Y-71489700D02*
X131263300Y-70770700D01*
X131263300Y-70770700D02*
X131213300Y-70724300D01*
X131213300Y-70724300D02*
X131103300Y-70646800D01*
X131103300Y-70646800D02*
X131043300Y-70615600D01*
X131043300Y-70615600D02*
X130201600Y-70178300D01*
X132873500Y-62662500D02*
X137952100Y-62434100D01*
X136800000Y-69400000D02*
X135016600Y-71717700D01*
X129983500Y-65322700D02*
X130201600Y-70178300D01*
X140320000Y-63014200D02*
X137952100Y-62434100D01*
D25*
G36*
X125475046Y-98415623D02*
X124762643Y-98438857D01*
X124647933Y-98361485D01*
X124485225Y-98293089D01*
X124312331Y-98257599D01*
X124135836Y-98256367D01*
X123962463Y-98289440D01*
X123798816Y-98355557D01*
X123755783Y-98383716D01*
X119456950Y-97768261D01*
X119373358Y-97684082D01*
X119227033Y-97585385D01*
X119064325Y-97516989D01*
X118891431Y-97481499D01*
X118714936Y-97480267D01*
X118541563Y-97513340D01*
X118377916Y-97579457D01*
X118274849Y-97646902D01*
X118252878Y-97593594D01*
X118122647Y-97397581D01*
X117956824Y-97230597D01*
X117761725Y-97099000D01*
X117544781Y-97007806D01*
X117314255Y-96960486D01*
X117078929Y-96958843D01*
X116847765Y-97002939D01*
X116629569Y-97091096D01*
X116522314Y-97161281D01*
X116412907Y-95468733D01*
X116509663Y-95390941D01*
X116635113Y-95241435D01*
X116649109Y-95215975D01*
X116668902Y-95229731D01*
X116830639Y-95300393D01*
X117003021Y-95338293D01*
X117179481Y-95341990D01*
X117353299Y-95311341D01*
X117517853Y-95247514D01*
X117606404Y-95191317D01*
X118595816Y-95529705D01*
X118595843Y-95529711D01*
X118596252Y-95529854D01*
X118678051Y-95557754D01*
X118713976Y-95566202D01*
X118749301Y-95576829D01*
X118756845Y-95578261D01*
X118925045Y-95608961D01*
X118962115Y-95612037D01*
X118998947Y-95617338D01*
X119006621Y-95617632D01*
X119093021Y-95620332D01*
X119093026Y-95620331D01*
X119093089Y-95620334D01*
X125200163Y-95810420D01*
X125177477Y-95863350D01*
X125140781Y-96035993D01*
X125138317Y-96212474D01*
X125170178Y-96386074D01*
X125235152Y-96550179D01*
X125330763Y-96698538D01*
X125374694Y-96744029D01*
X125475046Y-98415623D01*
X125475046Y-98415623D01*
G37*
X125475046Y-98415623D02*
X124762643Y-98438857D01*
X124647933Y-98361485D01*
X124485225Y-98293089D01*
X124312331Y-98257599D01*
X124135836Y-98256367D01*
X123962463Y-98289440D01*
X123798816Y-98355557D01*
X123755783Y-98383716D01*
X119456950Y-97768261D01*
X119373358Y-97684082D01*
X119227033Y-97585385D01*
X119064325Y-97516989D01*
X118891431Y-97481499D01*
X118714936Y-97480267D01*
X118541563Y-97513340D01*
X118377916Y-97579457D01*
X118274849Y-97646902D01*
X118252878Y-97593594D01*
X118122647Y-97397581D01*
X117956824Y-97230597D01*
X117761725Y-97099000D01*
X117544781Y-97007806D01*
X117314255Y-96960486D01*
X117078929Y-96958843D01*
X116847765Y-97002939D01*
X116629569Y-97091096D01*
X116522314Y-97161281D01*
X116412907Y-95468733D01*
X116509663Y-95390941D01*
X116635113Y-95241435D01*
X116649109Y-95215975D01*
X116668902Y-95229731D01*
X116830639Y-95300393D01*
X117003021Y-95338293D01*
X117179481Y-95341990D01*
X117353299Y-95311341D01*
X117517853Y-95247514D01*
X117606404Y-95191317D01*
X118595816Y-95529705D01*
X118595843Y-95529711D01*
X118596252Y-95529854D01*
X118678051Y-95557754D01*
X118713976Y-95566202D01*
X118749301Y-95576829D01*
X118756845Y-95578261D01*
X118925045Y-95608961D01*
X118962115Y-95612037D01*
X118998947Y-95617338D01*
X119006621Y-95617632D01*
X119093021Y-95620332D01*
X119093026Y-95620331D01*
X119093089Y-95620334D01*
X125200163Y-95810420D01*
X125177477Y-95863350D01*
X125140781Y-96035993D01*
X125138317Y-96212474D01*
X125170178Y-96386074D01*
X125235152Y-96550179D01*
X125330763Y-96698538D01*
X125374694Y-96744029D01*
X125475046Y-98415623D01*
G36*
X129641328Y-97028557D02*
X129596708Y-97093724D01*
X129527177Y-97255950D01*
X129490481Y-97428593D01*
X129490400Y-97434393D01*
X127096176Y-98898693D01*
X127082657Y-98830413D01*
X127015398Y-98667231D01*
X126917725Y-98520221D01*
X126881666Y-98483909D01*
X126772146Y-96659603D01*
X126825832Y-96583499D01*
X126897621Y-96422259D01*
X126936724Y-96250146D01*
X126938515Y-96121814D01*
X129641328Y-97028557D01*
X129641328Y-97028557D01*
G37*
X129641328Y-97028557D02*
X129596708Y-97093724D01*
X129527177Y-97255950D01*
X129490481Y-97428593D01*
X129490400Y-97434393D01*
X127096176Y-98898693D01*
X127082657Y-98830413D01*
X127015398Y-98667231D01*
X126917725Y-98520221D01*
X126881666Y-98483909D01*
X126772146Y-96659603D01*
X126825832Y-96583499D01*
X126897621Y-96422259D01*
X126936724Y-96250146D01*
X126938515Y-96121814D01*
X129641328Y-97028557D01*
G36*
X146600000Y-108970094D02*
X144487113Y-110037390D01*
X143091744Y-110426983D01*
X143132789Y-110387898D01*
X143268442Y-110195598D01*
X143364160Y-109980612D01*
X143416298Y-109751128D01*
X143420051Y-109482334D01*
X143374342Y-109251484D01*
X143284664Y-109033908D01*
X143154433Y-108837895D01*
X142988610Y-108670911D01*
X142793511Y-108539314D01*
X142576567Y-108448120D01*
X142346041Y-108400800D01*
X142110715Y-108399157D01*
X141879551Y-108443253D01*
X141735177Y-108501583D01*
X141735177Y-60481300D01*
X141735177Y-58481300D01*
X141729242Y-58408277D01*
X141691350Y-58287097D01*
X141621263Y-58181229D01*
X141524506Y-58099018D01*
X141408709Y-58046948D01*
X141283000Y-58029123D01*
X139283000Y-58029123D01*
X139209977Y-58035058D01*
X139088797Y-58072950D01*
X138982929Y-58143037D01*
X138900718Y-58239794D01*
X138848648Y-58355591D01*
X138830823Y-58481300D01*
X138830823Y-60481300D01*
X138836758Y-60554323D01*
X138874650Y-60675503D01*
X138944737Y-60781371D01*
X139041494Y-60863582D01*
X139157291Y-60915652D01*
X139283000Y-60933477D01*
X141283000Y-60933477D01*
X141356023Y-60927542D01*
X141477203Y-60889650D01*
X141583071Y-60819563D01*
X141665282Y-60722806D01*
X141717352Y-60607009D01*
X141735177Y-60481300D01*
X141735177Y-108501583D01*
X141661355Y-108531410D01*
X141464437Y-108660270D01*
X141296299Y-108824923D01*
X141163344Y-109019099D01*
X141070637Y-109235401D01*
X141021709Y-109465590D01*
X141018423Y-109700899D01*
X141060905Y-109932365D01*
X141147536Y-110151171D01*
X141275018Y-110348984D01*
X141438493Y-110518267D01*
X141631736Y-110652575D01*
X141847385Y-110746790D01*
X141902738Y-110758960D01*
X139035797Y-111559425D01*
X138340051Y-111612959D01*
X138340051Y-109482334D01*
X138294342Y-109251484D01*
X138204664Y-109033908D01*
X138074433Y-108837895D01*
X137908610Y-108670911D01*
X137713511Y-108539314D01*
X137496567Y-108448120D01*
X137266041Y-108400800D01*
X137030715Y-108399157D01*
X136799551Y-108443253D01*
X136581355Y-108531410D01*
X136384437Y-108660270D01*
X136216299Y-108824923D01*
X136083344Y-109019099D01*
X135990637Y-109235401D01*
X135941709Y-109465590D01*
X135938423Y-109700899D01*
X135980905Y-109932365D01*
X136067536Y-110151171D01*
X136195018Y-110348984D01*
X136358493Y-110518267D01*
X136551736Y-110652575D01*
X136767385Y-110746790D01*
X136997228Y-110797324D01*
X137232508Y-110802252D01*
X137464265Y-110761387D01*
X137683671Y-110676285D01*
X137882368Y-110550188D01*
X138052789Y-110387898D01*
X138188442Y-110195598D01*
X138284160Y-109980612D01*
X138336298Y-109751128D01*
X138340051Y-109482334D01*
X138340051Y-111612959D01*
X135802177Y-111808238D01*
X135802177Y-110350000D01*
X135802177Y-108850000D01*
X135796242Y-108776977D01*
X135758350Y-108655797D01*
X135688263Y-108549929D01*
X135591506Y-108467718D01*
X135475709Y-108415648D01*
X135350000Y-108397823D01*
X133850000Y-108397823D01*
X133776977Y-108403758D01*
X133655797Y-108441650D01*
X133549929Y-108511737D01*
X133467718Y-108608494D01*
X133415648Y-108724291D01*
X133397823Y-108850000D01*
X133397823Y-110350000D01*
X133403758Y-110423023D01*
X133441650Y-110544203D01*
X133511737Y-110650071D01*
X133608494Y-110732282D01*
X133724291Y-110784352D01*
X133850000Y-110802177D01*
X135350000Y-110802177D01*
X135423023Y-110796242D01*
X135544203Y-110758350D01*
X135650071Y-110688263D01*
X135732282Y-110591506D01*
X135784352Y-110475709D01*
X135802177Y-110350000D01*
X135802177Y-111808238D01*
X133392670Y-111993640D01*
X132380051Y-111872892D01*
X132380051Y-109482334D01*
X132334342Y-109251484D01*
X132244664Y-109033908D01*
X132114433Y-108837895D01*
X131948610Y-108670911D01*
X131753511Y-108539314D01*
X131536567Y-108448120D01*
X131306041Y-108400800D01*
X131070715Y-108399157D01*
X130839551Y-108443253D01*
X130621355Y-108531410D01*
X130424437Y-108660270D01*
X130256299Y-108824923D01*
X130123344Y-109019099D01*
X130030637Y-109235401D01*
X129981709Y-109465590D01*
X129978423Y-109700899D01*
X130020905Y-109932365D01*
X130107536Y-110151171D01*
X130235018Y-110348984D01*
X130398493Y-110518267D01*
X130591736Y-110652575D01*
X130807385Y-110746790D01*
X131037228Y-110797324D01*
X131272508Y-110802252D01*
X131504265Y-110761387D01*
X131723671Y-110676285D01*
X131922368Y-110550188D01*
X132092789Y-110387898D01*
X132228442Y-110195598D01*
X132324160Y-109980612D01*
X132376298Y-109751128D01*
X132380051Y-109482334D01*
X132380051Y-111872892D01*
X129840051Y-111570015D01*
X129840051Y-109482334D01*
X129794342Y-109251484D01*
X129704664Y-109033908D01*
X129574433Y-108837895D01*
X129408610Y-108670911D01*
X129213511Y-108539314D01*
X128996567Y-108448120D01*
X128766041Y-108400800D01*
X128530715Y-108399157D01*
X128299551Y-108443253D01*
X128081355Y-108531410D01*
X127884437Y-108660270D01*
X127716299Y-108824923D01*
X127583344Y-109019099D01*
X127490637Y-109235401D01*
X127441709Y-109465590D01*
X127438423Y-109700899D01*
X127480905Y-109932365D01*
X127567536Y-110151171D01*
X127695018Y-110348984D01*
X127858493Y-110518267D01*
X128051736Y-110652575D01*
X128267385Y-110746790D01*
X128497228Y-110797324D01*
X128732508Y-110802252D01*
X128964265Y-110761387D01*
X129183671Y-110676285D01*
X129382368Y-110550188D01*
X129552789Y-110387898D01*
X129688442Y-110195598D01*
X129784160Y-109980612D01*
X129836298Y-109751128D01*
X129840051Y-109482334D01*
X129840051Y-111570015D01*
X127772676Y-111323496D01*
X122389878Y-109574519D01*
X117449307Y-106813327D01*
X113139146Y-103145093D01*
X109623568Y-98709538D01*
X108058017Y-95663305D01*
X108181859Y-95676322D01*
X112077312Y-101769262D01*
X112077316Y-101769267D01*
X112077430Y-101769448D01*
X112103730Y-101810547D01*
X112119590Y-101830690D01*
X112133309Y-101852348D01*
X112138073Y-101858370D01*
X112199074Y-101934370D01*
X112217647Y-101953368D01*
X112234255Y-101974111D01*
X112239654Y-101979571D01*
X112273691Y-102013509D01*
X112273908Y-102013726D01*
X112274254Y-102014071D01*
X113334320Y-103074137D01*
X113334391Y-103074209D01*
X113369991Y-103109809D01*
X113390689Y-103126810D01*
X113409619Y-103145756D01*
X113415584Y-103150591D01*
X113494184Y-103213391D01*
X113516612Y-103227969D01*
X113537501Y-103244678D01*
X113543966Y-103248821D01*
X113587066Y-103276021D01*
X113587111Y-103276043D01*
X113587846Y-103276513D01*
X117180803Y-105535585D01*
X117180846Y-105535613D01*
X117180853Y-105535616D01*
X117467502Y-105715885D01*
X117486481Y-105725374D01*
X117504201Y-105737037D01*
X117534375Y-105749320D01*
X117563512Y-105763889D01*
X117583968Y-105769510D01*
X117603619Y-105777510D01*
X117610995Y-105779647D01*
X118262995Y-105963547D01*
X118283716Y-105967257D01*
X118303850Y-105973402D01*
X118336430Y-105976695D01*
X118368656Y-105982465D01*
X118389701Y-105982079D01*
X118410647Y-105984197D01*
X118418326Y-105984167D01*
X118755930Y-105980468D01*
X118756025Y-105980467D01*
X118756025Y-105980466D01*
X121677317Y-105948968D01*
X121677330Y-105948968D01*
X121677354Y-105948968D01*
X121751253Y-105948168D01*
X121764708Y-105946701D01*
X121778226Y-105947213D01*
X121785888Y-105946700D01*
X121933189Y-105935800D01*
X121946369Y-105933515D01*
X121959744Y-105933186D01*
X121967359Y-105932195D01*
X122037455Y-105922577D01*
X122037516Y-105922570D01*
X122038059Y-105922495D01*
X125751980Y-105416717D01*
X125742823Y-105481300D01*
X125742823Y-107481300D01*
X125748758Y-107554323D01*
X125786650Y-107675503D01*
X125856737Y-107781371D01*
X125953494Y-107863582D01*
X126069291Y-107915652D01*
X126195000Y-107933477D01*
X128195000Y-107933477D01*
X128268023Y-107927542D01*
X128389203Y-107889650D01*
X128495071Y-107819563D01*
X128577282Y-107722806D01*
X128629352Y-107607009D01*
X128647177Y-107481300D01*
X128647177Y-107181300D01*
X139009018Y-107181300D01*
X139141146Y-107386322D01*
X139338679Y-107590873D01*
X139572181Y-107753161D01*
X139832757Y-107867005D01*
X140110484Y-107928067D01*
X140394781Y-107934022D01*
X140674820Y-107884643D01*
X140939936Y-107781812D01*
X141180029Y-107629444D01*
X141385954Y-107433344D01*
X141549868Y-107200981D01*
X141665528Y-106941206D01*
X141728527Y-106663913D01*
X141733062Y-106339120D01*
X141677830Y-106060176D01*
X141569469Y-105797272D01*
X141412107Y-105560423D01*
X141220039Y-105367010D01*
X141220039Y-62925950D01*
X141185757Y-62752813D01*
X141118498Y-62589631D01*
X141020825Y-62442621D01*
X140896458Y-62317382D01*
X140750133Y-62218685D01*
X140587425Y-62150289D01*
X140414531Y-62114799D01*
X140238036Y-62113567D01*
X140064663Y-62146640D01*
X139934762Y-62199122D01*
X138670836Y-61889479D01*
X138652925Y-61862521D01*
X138528558Y-61737282D01*
X138382233Y-61638585D01*
X138219525Y-61570189D01*
X138046631Y-61534699D01*
X137870136Y-61533467D01*
X137696763Y-61566540D01*
X137533116Y-61632657D01*
X137385428Y-61729302D01*
X137353772Y-61760301D01*
X133408519Y-61937731D01*
X133303633Y-61866985D01*
X133140925Y-61798589D01*
X132968031Y-61763099D01*
X132791536Y-61761867D01*
X132618163Y-61794940D01*
X132454516Y-61861057D01*
X132306828Y-61957702D01*
X132180724Y-62081192D01*
X132081008Y-62226824D01*
X132011477Y-62389050D01*
X131980949Y-62532673D01*
X129928139Y-64422252D01*
X129901536Y-64422067D01*
X129728163Y-64455140D01*
X129564516Y-64521257D01*
X129416828Y-64617902D01*
X129290724Y-64741392D01*
X129191008Y-64887024D01*
X129121477Y-65049250D01*
X129084781Y-65221893D01*
X129082317Y-65398374D01*
X129114178Y-65571974D01*
X129179152Y-65736079D01*
X129274763Y-65884438D01*
X129309648Y-65920562D01*
X129484172Y-69806034D01*
X127720874Y-70932818D01*
X127694711Y-70949504D01*
X127680805Y-70960417D01*
X127665469Y-70969206D01*
X127657543Y-70974925D01*
X127608243Y-71011025D01*
X127596866Y-71021201D01*
X127584081Y-71029538D01*
X127576496Y-71035703D01*
X127551996Y-71055903D01*
X127551906Y-71055992D01*
X127550219Y-71057374D01*
X124468458Y-73615358D01*
X124398036Y-73614867D01*
X124224663Y-73647940D01*
X124061016Y-73714057D01*
X123913328Y-73810702D01*
X123787224Y-73934192D01*
X123687508Y-74079824D01*
X123617977Y-74242050D01*
X123581281Y-74414693D01*
X123578817Y-74591174D01*
X123610678Y-74764774D01*
X123675652Y-74928879D01*
X123771263Y-75077238D01*
X123893870Y-75204201D01*
X124038802Y-75304931D01*
X124200539Y-75375593D01*
X124372921Y-75413493D01*
X124549381Y-75417190D01*
X124723199Y-75386541D01*
X124887753Y-75322714D01*
X125036777Y-75228141D01*
X125164592Y-75106424D01*
X125266332Y-74962199D01*
X125338121Y-74800959D01*
X125362764Y-74692491D01*
X126548893Y-73707957D01*
X126578078Y-73866974D01*
X126643052Y-74031079D01*
X126738663Y-74179438D01*
X126861270Y-74306401D01*
X127006202Y-74407131D01*
X127167939Y-74477793D01*
X127340321Y-74515693D01*
X127423422Y-74517434D01*
X128364254Y-75805716D01*
X128331781Y-75958493D01*
X128329317Y-76134974D01*
X128361178Y-76308574D01*
X128426152Y-76472679D01*
X128521763Y-76621038D01*
X128644370Y-76748001D01*
X128789302Y-76848731D01*
X128951039Y-76919393D01*
X129123421Y-76957293D01*
X129299881Y-76960990D01*
X129473699Y-76930341D01*
X129638253Y-76866514D01*
X129787277Y-76771941D01*
X129861429Y-76701326D01*
X132246935Y-81811064D01*
X132246938Y-81811069D01*
X132252256Y-81822461D01*
X132261625Y-81848181D01*
X132264927Y-81860527D01*
X132264933Y-81860549D01*
X132264969Y-81860683D01*
X134664847Y-90844302D01*
X134588008Y-90956524D01*
X134518477Y-91118750D01*
X134481781Y-91291393D01*
X134479317Y-91467874D01*
X134511178Y-91641474D01*
X134576152Y-91805579D01*
X134671763Y-91953938D01*
X134794370Y-92080901D01*
X134939302Y-92181631D01*
X135101039Y-92252293D01*
X135273421Y-92290193D01*
X135449881Y-92293890D01*
X135623699Y-92263241D01*
X135788253Y-92199414D01*
X135937277Y-92104841D01*
X136065092Y-91983124D01*
X136166832Y-91838899D01*
X136238621Y-91677659D01*
X136277724Y-91505546D01*
X136280539Y-91303950D01*
X136246257Y-91130813D01*
X136178998Y-90967631D01*
X136081325Y-90820621D01*
X135956958Y-90695382D01*
X135810633Y-90596685D01*
X135727993Y-90561946D01*
X133327667Y-81576651D01*
X133327663Y-81576640D01*
X133327631Y-81576517D01*
X133318031Y-81540617D01*
X133310860Y-81521511D01*
X133306058Y-81501683D01*
X133303480Y-81494449D01*
X133277580Y-81423350D01*
X133268827Y-81405094D01*
X133262362Y-81385912D01*
X133259162Y-81378931D01*
X133243700Y-81345813D01*
X133243665Y-81345736D01*
X133243662Y-81345731D01*
X130499165Y-75467036D01*
X130499162Y-75467032D01*
X130483083Y-75432503D01*
X130472194Y-75414071D01*
X130463555Y-75394505D01*
X130459737Y-75387842D01*
X130421636Y-75322442D01*
X130409616Y-75305791D01*
X130399691Y-75287808D01*
X130395298Y-75281509D01*
X130372997Y-75250009D01*
X130372987Y-75249997D01*
X130372845Y-75249794D01*
X129696316Y-74295133D01*
X129855953Y-74233214D01*
X130004977Y-74138641D01*
X130132792Y-74016924D01*
X130234532Y-73872699D01*
X130306321Y-73711459D01*
X130345424Y-73539346D01*
X130348239Y-73337750D01*
X130313957Y-73164613D01*
X130283888Y-73091661D01*
X130693298Y-72397434D01*
X130825399Y-72374141D01*
X130989953Y-72310314D01*
X131138977Y-72215741D01*
X131266792Y-72094024D01*
X131368532Y-71949799D01*
X131407957Y-71861249D01*
X131559552Y-72002254D01*
X131559574Y-72002270D01*
X131559846Y-72002527D01*
X131702246Y-72134827D01*
X131750370Y-72171480D01*
X131797635Y-72209187D01*
X131804642Y-72212816D01*
X131810928Y-72217604D01*
X131865233Y-72244200D01*
X131918943Y-72272021D01*
X131928045Y-72275584D01*
X132289445Y-72414184D01*
X132348190Y-72430345D01*
X132406545Y-72447741D01*
X132413968Y-72448442D01*
X132421167Y-72450423D01*
X132481913Y-72454864D01*
X132542555Y-72460596D01*
X132552328Y-72460493D01*
X132746813Y-72457095D01*
X132746815Y-72457095D01*
X132746929Y-72457093D01*
X134460722Y-72427427D01*
X134575402Y-72507131D01*
X134737139Y-72577793D01*
X134909521Y-72615693D01*
X135085981Y-72619390D01*
X135259799Y-72588741D01*
X135424353Y-72524914D01*
X135573377Y-72430341D01*
X135701192Y-72308624D01*
X135802932Y-72164399D01*
X135874721Y-72003159D01*
X135913824Y-71831046D01*
X135915694Y-71697102D01*
X137008265Y-70277200D01*
X137043199Y-70271041D01*
X137207753Y-70207214D01*
X137356777Y-70112641D01*
X137484592Y-69990924D01*
X137586332Y-69846699D01*
X137658121Y-69685459D01*
X137697224Y-69513346D01*
X137700039Y-69311750D01*
X137665757Y-69138613D01*
X137598498Y-68975431D01*
X137500825Y-68828421D01*
X137376458Y-68703182D01*
X137230133Y-68604485D01*
X137067425Y-68536089D01*
X136894531Y-68500599D01*
X136718036Y-68499367D01*
X136544663Y-68532440D01*
X136381016Y-68598557D01*
X136233328Y-68695202D01*
X136107224Y-68818692D01*
X136007508Y-68964324D01*
X135937977Y-69126550D01*
X135901281Y-69299193D01*
X135899561Y-69422344D01*
X134807738Y-70841274D01*
X134761263Y-70850140D01*
X134597616Y-70916257D01*
X134449928Y-71012902D01*
X134434852Y-71027665D01*
X132722585Y-71057305D01*
X132722577Y-71057305D01*
X132722472Y-71057307D01*
X132663811Y-71058331D01*
X132555878Y-71016938D01*
X132513058Y-70977155D01*
X132513048Y-70977146D01*
X132512754Y-70976873D01*
X131740048Y-70258146D01*
X131740007Y-70258115D01*
X131739459Y-70257599D01*
X131689458Y-70211198D01*
X131655932Y-70185694D01*
X131624418Y-70157747D01*
X131616467Y-70152062D01*
X131506467Y-70074562D01*
X131469842Y-70053784D01*
X131434887Y-70030318D01*
X131426247Y-70025748D01*
X131366247Y-69994548D01*
X131366232Y-69994542D01*
X131366024Y-69994432D01*
X130882769Y-69743360D01*
X130708194Y-65856774D01*
X130769832Y-65769399D01*
X130841621Y-65608159D01*
X130877225Y-65451445D01*
X132927852Y-63563875D01*
X132942881Y-63564190D01*
X133116699Y-63533541D01*
X133281253Y-63469714D01*
X133430277Y-63375141D01*
X133471027Y-63336334D01*
X137417817Y-63158835D01*
X137510902Y-63223531D01*
X137672639Y-63294193D01*
X137845021Y-63332093D01*
X138021481Y-63335790D01*
X138195299Y-63305141D01*
X138338712Y-63249514D01*
X139600038Y-63558520D01*
X139611263Y-63575938D01*
X139733870Y-63702901D01*
X139878802Y-63803631D01*
X140040539Y-63874293D01*
X140212921Y-63912193D01*
X140389381Y-63915890D01*
X140563199Y-63885241D01*
X140727753Y-63821414D01*
X140876777Y-63726841D01*
X141004592Y-63605124D01*
X141106332Y-63460899D01*
X141178121Y-63299659D01*
X141217224Y-63127546D01*
X141220039Y-62925950D01*
X141220039Y-105367010D01*
X141211737Y-105358650D01*
X140975992Y-105199638D01*
X140713851Y-105089444D01*
X140435300Y-105032266D01*
X140150947Y-105030280D01*
X139871624Y-105083564D01*
X139607970Y-105190087D01*
X139370028Y-105345792D01*
X139166861Y-105544748D01*
X139006207Y-105779377D01*
X139005382Y-105781300D01*
X128647177Y-105781300D01*
X128647177Y-105481300D01*
X128641242Y-105408277D01*
X128603350Y-105287097D01*
X128533263Y-105181229D01*
X128436506Y-105099018D01*
X128320709Y-105046948D01*
X128195000Y-105029123D01*
X127562371Y-105029123D01*
X127567921Y-105016659D01*
X127607024Y-104844546D01*
X127609839Y-104642950D01*
X127578942Y-104486909D01*
X128844396Y-104569070D01*
X128882463Y-104628138D01*
X129005070Y-104755101D01*
X129150002Y-104855831D01*
X129311739Y-104926493D01*
X129484121Y-104964393D01*
X129660581Y-104968090D01*
X129834399Y-104937441D01*
X129998953Y-104873614D01*
X130147977Y-104779041D01*
X130275792Y-104657324D01*
X130377532Y-104513099D01*
X130449321Y-104351859D01*
X130472230Y-104251024D01*
X130479821Y-104252693D01*
X130656281Y-104256390D01*
X130830099Y-104225741D01*
X130994653Y-104161914D01*
X131143677Y-104067341D01*
X131271492Y-103945624D01*
X131373232Y-103801399D01*
X131445021Y-103640159D01*
X131458139Y-103582417D01*
X132663264Y-104398676D01*
X132663284Y-104398687D01*
X132663615Y-104398914D01*
X132793015Y-104486414D01*
X132797703Y-104488956D01*
X132801867Y-104492275D01*
X132844814Y-104514499D01*
X132887379Y-104537577D01*
X132892470Y-104539159D01*
X132897200Y-104541607D01*
X132904351Y-104544405D01*
X133193852Y-104655305D01*
X133198885Y-104656687D01*
X133203602Y-104658935D01*
X133250594Y-104670892D01*
X133297359Y-104683739D01*
X133302570Y-104684118D01*
X133307628Y-104685405D01*
X133315227Y-104686511D01*
X133622427Y-104729011D01*
X133628043Y-104729234D01*
X133633527Y-104730431D01*
X133681586Y-104731362D01*
X133729684Y-104733275D01*
X133735236Y-104732403D01*
X133740848Y-104732512D01*
X133748499Y-104731858D01*
X134059599Y-104703058D01*
X134065075Y-104702004D01*
X134070654Y-104701922D01*
X134117753Y-104691870D01*
X134165008Y-104682780D01*
X134170173Y-104680683D01*
X134175631Y-104679519D01*
X134182932Y-104677140D01*
X134328851Y-104628467D01*
X134328957Y-104628431D01*
X134329232Y-104628340D01*
X135420429Y-104265245D01*
X135481702Y-104307831D01*
X135643439Y-104378493D01*
X135815821Y-104416393D01*
X135992281Y-104420090D01*
X136166099Y-104389441D01*
X136330653Y-104325614D01*
X136479677Y-104231041D01*
X136607492Y-104109324D01*
X136709232Y-103965099D01*
X136781021Y-103803859D01*
X136820124Y-103631746D01*
X136820917Y-103574890D01*
X136844781Y-103575390D01*
X137018599Y-103544741D01*
X137183153Y-103480914D01*
X137332177Y-103386341D01*
X137459992Y-103264624D01*
X137561732Y-103120399D01*
X137633521Y-102959159D01*
X137672624Y-102787046D01*
X137675439Y-102585450D01*
X137641157Y-102412313D01*
X137573898Y-102249131D01*
X137476225Y-102102121D01*
X137351858Y-101976882D01*
X137205533Y-101878185D01*
X137042825Y-101809789D01*
X136869931Y-101774299D01*
X136693436Y-101773067D01*
X136520063Y-101806140D01*
X136356416Y-101872257D01*
X136208728Y-101968902D01*
X136082624Y-102092392D01*
X136064298Y-102119155D01*
X135931806Y-102118311D01*
X135931802Y-102118311D01*
X135818780Y-102117514D01*
X135802977Y-102118950D01*
X135787129Y-102118202D01*
X135749631Y-102123802D01*
X135711880Y-102127235D01*
X135696661Y-102131712D01*
X135680965Y-102134057D01*
X135673530Y-102135979D01*
X135668613Y-102137286D01*
X137679857Y-100484305D01*
X137679999Y-100484187D01*
X137680361Y-100483891D01*
X137705457Y-100463305D01*
X137718943Y-100449836D01*
X137734189Y-100438400D01*
X137741351Y-100431749D01*
X137790951Y-100385050D01*
X137803146Y-100371081D01*
X137817209Y-100358985D01*
X137823912Y-100351871D01*
X137847512Y-100326470D01*
X137847554Y-100326414D01*
X137848304Y-100325616D01*
X139348204Y-98705916D01*
X139348218Y-98705896D01*
X139348451Y-98705649D01*
X139412651Y-98636249D01*
X139449360Y-98587834D01*
X139487140Y-98540185D01*
X139492378Y-98531933D01*
X139592578Y-98371633D01*
X139619621Y-98317175D01*
X139647826Y-98263327D01*
X139651431Y-98254242D01*
X139686031Y-98165242D01*
X139686051Y-98165169D01*
X139686492Y-98164053D01*
X139712243Y-98097454D01*
X139820677Y-98028641D01*
X139948492Y-97906924D01*
X140050232Y-97762699D01*
X140122021Y-97601459D01*
X140161124Y-97429346D01*
X140163939Y-97227750D01*
X140129657Y-97054613D01*
X140062398Y-96891431D01*
X139964725Y-96744421D01*
X139848022Y-96626900D01*
X139140261Y-92811139D01*
X139140244Y-92811082D01*
X139140104Y-92810299D01*
X139130804Y-92760499D01*
X139122563Y-92732092D01*
X139117521Y-92702944D01*
X139114857Y-92693540D01*
X139087057Y-92597940D01*
X139075610Y-92569342D01*
X139067301Y-92539682D01*
X139063695Y-92530597D01*
X139044574Y-92483393D01*
X139044574Y-92483392D01*
X139044495Y-92483197D01*
X138207137Y-90414179D01*
X138241724Y-90261946D01*
X138244539Y-90060350D01*
X138210257Y-89887213D01*
X138142998Y-89724031D01*
X138045325Y-89577021D01*
X137920958Y-89451782D01*
X137774633Y-89353085D01*
X137611925Y-89284689D01*
X137439031Y-89249199D01*
X137262536Y-89247967D01*
X137089163Y-89281040D01*
X136925516Y-89347157D01*
X136777828Y-89443802D01*
X136651724Y-89567292D01*
X136552008Y-89712924D01*
X136482477Y-89875150D01*
X136445781Y-90047793D01*
X136443317Y-90224274D01*
X136475178Y-90397874D01*
X136540152Y-90561979D01*
X136635763Y-90710338D01*
X136758370Y-90837301D01*
X136903302Y-90938031D01*
X136910027Y-90940969D01*
X137746826Y-93008607D01*
X137746830Y-93008616D01*
X137746905Y-93008803D01*
X137752709Y-93023131D01*
X137760921Y-93051373D01*
X137763736Y-93066445D01*
X137763739Y-93066461D01*
X138471227Y-96880745D01*
X138401877Y-97042550D01*
X138365181Y-97215193D01*
X138362717Y-97391674D01*
X138394578Y-97565274D01*
X138405924Y-97593932D01*
X138380936Y-97658554D01*
X138370465Y-97685490D01*
X138340170Y-97733956D01*
X138321061Y-97754613D01*
X138320995Y-97754684D01*
X136821521Y-99373924D01*
X136814211Y-99381791D01*
X136799064Y-99396053D01*
X136791943Y-99401895D01*
X136791909Y-99401928D01*
X136791440Y-99402309D01*
X133721638Y-101925288D01*
X133646936Y-101924767D01*
X133578236Y-101937872D01*
X131909524Y-101000452D01*
X131909441Y-101000405D01*
X131909438Y-101000403D01*
X131652024Y-100855752D01*
X131625092Y-100843910D01*
X131599647Y-100829147D01*
X131562711Y-100816484D01*
X131526962Y-100800766D01*
X131498242Y-100794381D01*
X131470415Y-100784841D01*
X131460889Y-100782655D01*
X130884189Y-100654555D01*
X130855044Y-100651015D01*
X130826491Y-100644253D01*
X130787411Y-100642802D01*
X130748569Y-100638086D01*
X130719294Y-100640275D01*
X130689970Y-100639187D01*
X130680218Y-100639848D01*
X130386036Y-100661839D01*
X130386009Y-100661841D01*
X128455089Y-100805932D01*
X128373033Y-100750585D01*
X128210325Y-100682189D01*
X128037431Y-100646699D01*
X127860936Y-100645467D01*
X127687563Y-100678540D01*
X127523916Y-100744657D01*
X127376228Y-100841302D01*
X127250124Y-100964792D01*
X127150408Y-101110424D01*
X127080877Y-101272650D01*
X127044181Y-101445293D01*
X127041717Y-101621774D01*
X127073578Y-101795374D01*
X127089419Y-101835385D01*
X126746564Y-101831044D01*
X126746560Y-101831044D01*
X126660418Y-101829945D01*
X126643929Y-101831349D01*
X126627400Y-101830515D01*
X126619733Y-101830931D01*
X126443632Y-101841731D01*
X126427058Y-101844388D01*
X126410288Y-101844798D01*
X126402672Y-101845787D01*
X126318455Y-101857320D01*
X126318384Y-101857330D01*
X122277873Y-102407585D01*
X122222558Y-102351882D01*
X122076233Y-102253185D01*
X121913525Y-102184789D01*
X121740631Y-102149299D01*
X121564136Y-102148067D01*
X121390763Y-102181140D01*
X121227116Y-102247257D01*
X121079428Y-102343902D01*
X120953324Y-102467392D01*
X120853608Y-102613024D01*
X120784077Y-102775250D01*
X120747381Y-102947893D01*
X120744917Y-103124374D01*
X120776778Y-103297974D01*
X120800537Y-103357984D01*
X118728435Y-103380326D01*
X118728429Y-103380327D01*
X118682046Y-103380788D01*
X118593365Y-103353907D01*
X118517233Y-103301848D01*
X118460137Y-103229055D01*
X118444015Y-103186309D01*
X118444011Y-103186302D01*
X118443968Y-103186184D01*
X118283800Y-102761826D01*
X118426921Y-102793293D01*
X118603381Y-102796990D01*
X118777199Y-102766341D01*
X118941753Y-102702514D01*
X119090777Y-102607941D01*
X119218592Y-102486224D01*
X119320332Y-102341999D01*
X119392121Y-102180759D01*
X119431224Y-102008646D01*
X119434039Y-101807050D01*
X119399757Y-101633913D01*
X119363846Y-101546787D01*
X119430055Y-101430010D01*
X119430250Y-101429667D01*
X119430250Y-101429665D01*
X119443994Y-101405465D01*
X119480546Y-101362305D01*
X119501921Y-101344948D01*
X119501934Y-101344935D01*
X119502059Y-101344835D01*
X120233401Y-100750524D01*
X120277252Y-100861279D01*
X120372863Y-101009638D01*
X120495470Y-101136601D01*
X120640402Y-101237331D01*
X120802139Y-101307993D01*
X120974521Y-101345893D01*
X121150981Y-101349590D01*
X121324799Y-101318941D01*
X121489353Y-101255114D01*
X121638377Y-101160541D01*
X121766192Y-101038824D01*
X121785600Y-101011310D01*
X124147849Y-101055978D01*
X124159009Y-101056244D01*
X124161183Y-101056082D01*
X124164421Y-101056446D01*
X124168117Y-101056471D01*
X124168260Y-101056487D01*
X124168402Y-101056474D01*
X124172100Y-101056500D01*
X124261800Y-101056500D01*
X124266924Y-101055997D01*
X124272052Y-101056404D01*
X124279729Y-101056208D01*
X126278423Y-100991021D01*
X126278750Y-100991010D01*
X126278829Y-100991008D01*
X126472923Y-100984821D01*
X126494365Y-100982026D01*
X126515982Y-100981753D01*
X126547463Y-100975104D01*
X126579364Y-100970947D01*
X126599848Y-100964042D01*
X126621007Y-100959575D01*
X126628314Y-100957212D01*
X127000014Y-100834112D01*
X127019736Y-100825362D01*
X127040339Y-100818980D01*
X127068677Y-100803649D01*
X127098133Y-100790582D01*
X127115778Y-100778169D01*
X127134751Y-100767906D01*
X127141087Y-100763567D01*
X127301191Y-100652241D01*
X127301586Y-100651967D01*
X127301586Y-100651966D01*
X127314591Y-100642941D01*
X127314610Y-100642924D01*
X127314982Y-100642670D01*
X127357498Y-100613108D01*
X127449779Y-100561187D01*
X127496824Y-100540374D01*
X127496840Y-100540364D01*
X127497155Y-100540228D01*
X130903658Y-99030456D01*
X131056639Y-99097293D01*
X131229021Y-99135193D01*
X131405481Y-99138890D01*
X131579299Y-99108241D01*
X131743853Y-99044414D01*
X131892877Y-98949841D01*
X132020692Y-98828124D01*
X132122432Y-98683899D01*
X132194221Y-98522659D01*
X132233324Y-98350546D01*
X132236139Y-98148950D01*
X132201857Y-97975813D01*
X132185464Y-97936041D01*
X132389623Y-97999681D01*
X132389737Y-97999704D01*
X132394881Y-98001291D01*
X132420481Y-98008991D01*
X132420601Y-98009014D01*
X132425669Y-98010524D01*
X134529419Y-98620795D01*
X134529429Y-98620799D01*
X134536790Y-98622988D01*
X135516990Y-98906888D01*
X135517012Y-98906892D01*
X135517383Y-98907002D01*
X135733084Y-98969302D01*
X135762846Y-98974823D01*
X135792025Y-98982864D01*
X135815493Y-98984589D01*
X135838624Y-98988881D01*
X135868887Y-98988516D01*
X135899077Y-98990737D01*
X135922429Y-98987872D01*
X135945958Y-98987589D01*
X135975581Y-98981351D01*
X136005620Y-98977667D01*
X136013102Y-98975941D01*
X136448602Y-98872241D01*
X136477290Y-98862366D01*
X136506703Y-98854972D01*
X136527909Y-98844942D01*
X136550099Y-98837305D01*
X136576320Y-98822047D01*
X136603740Y-98809080D01*
X136622596Y-98795121D01*
X136642878Y-98783320D01*
X136665639Y-98763257D01*
X136690014Y-98745214D01*
X136695675Y-98740026D01*
X136855022Y-98591893D01*
X136897321Y-98601193D01*
X137073781Y-98604890D01*
X137247599Y-98574241D01*
X137412153Y-98510414D01*
X137561177Y-98415841D01*
X137688992Y-98294124D01*
X137790732Y-98149899D01*
X137862521Y-97988659D01*
X137901624Y-97816546D01*
X137904439Y-97614950D01*
X137870157Y-97441813D01*
X137802898Y-97278631D01*
X137705225Y-97131621D01*
X137580858Y-97006382D01*
X137434533Y-96907685D01*
X137271825Y-96839289D01*
X137098931Y-96803799D01*
X136922436Y-96802567D01*
X136749063Y-96835640D01*
X136585416Y-96901757D01*
X136545268Y-96928029D01*
X136482958Y-96865282D01*
X136336633Y-96766585D01*
X136173925Y-96698189D01*
X136001031Y-96662699D01*
X135956200Y-96662386D01*
X135931257Y-96536413D01*
X135863998Y-96373231D01*
X135766325Y-96226221D01*
X135641958Y-96100982D01*
X135495633Y-96002285D01*
X135493515Y-96001394D01*
X135500121Y-95986559D01*
X135539224Y-95814446D01*
X135542039Y-95612850D01*
X135507757Y-95439713D01*
X135440498Y-95276531D01*
X135342825Y-95129521D01*
X135218458Y-95004282D01*
X135100934Y-94925011D01*
X135143121Y-94830259D01*
X135182224Y-94658146D01*
X135185039Y-94456550D01*
X135150757Y-94283413D01*
X135083498Y-94120231D01*
X134985825Y-93973221D01*
X134861458Y-93847982D01*
X134715133Y-93749285D01*
X134571303Y-93688824D01*
X134055911Y-92196200D01*
X134089632Y-92148399D01*
X134161421Y-91987159D01*
X134200524Y-91815046D01*
X134203339Y-91613450D01*
X134169057Y-91440313D01*
X134101798Y-91277131D01*
X134004125Y-91130121D01*
X133933379Y-91058879D01*
X134013432Y-90945399D01*
X134085221Y-90784159D01*
X134124324Y-90612046D01*
X134127139Y-90410450D01*
X134092857Y-90237313D01*
X134025598Y-90074131D01*
X133927925Y-89927121D01*
X133803558Y-89801882D01*
X133657233Y-89703185D01*
X133494525Y-89634789D01*
X133321631Y-89599299D01*
X133145136Y-89598067D01*
X132971763Y-89631140D01*
X132808116Y-89697257D01*
X132660428Y-89793902D01*
X132534324Y-89917392D01*
X132434608Y-90063024D01*
X132365077Y-90225250D01*
X132331815Y-90381736D01*
X129940798Y-91766932D01*
X129867425Y-91736089D01*
X129694531Y-91700599D01*
X129518036Y-91699367D01*
X129344663Y-91732440D01*
X129181016Y-91798557D01*
X129033328Y-91895202D01*
X128907224Y-92018692D01*
X128847000Y-92106646D01*
X127151049Y-89879857D01*
X127150995Y-89879799D01*
X127150203Y-89878749D01*
X127147317Y-89874980D01*
X127141246Y-89866332D01*
X127138398Y-89861972D01*
X127138164Y-89861613D01*
X127138163Y-89861612D01*
X124153641Y-85284932D01*
X124143352Y-85268483D01*
X120600549Y-79414048D01*
X120600545Y-79414043D01*
X120568562Y-79361100D01*
X120552856Y-79340058D01*
X120539331Y-79317551D01*
X120534709Y-79311419D01*
X120459009Y-79212419D01*
X120441540Y-79193688D01*
X120426078Y-79173269D01*
X120420828Y-79167665D01*
X120377028Y-79121565D01*
X120376459Y-79121073D01*
X120376387Y-79120996D01*
X120371415Y-79115778D01*
X120371260Y-79115585D01*
X120371116Y-79115464D01*
X120358432Y-79102152D01*
X120348177Y-79086839D01*
X120348177Y-75964200D01*
X120348177Y-74464200D01*
X120342242Y-74391177D01*
X120304350Y-74269997D01*
X120234263Y-74164129D01*
X120137506Y-74081918D01*
X120021709Y-74029848D01*
X119896000Y-74012023D01*
X118600051Y-74012023D01*
X118600051Y-70182334D01*
X118600051Y-67082334D01*
X118600051Y-63982334D01*
X118554342Y-63751484D01*
X118464664Y-63533908D01*
X118334433Y-63337895D01*
X118168610Y-63170911D01*
X117973511Y-63039314D01*
X117756567Y-62948120D01*
X117526041Y-62900800D01*
X117290715Y-62899157D01*
X117059551Y-62943253D01*
X116841355Y-63031410D01*
X116644437Y-63160270D01*
X116476299Y-63324923D01*
X116343344Y-63519099D01*
X116287321Y-63649808D01*
X116208875Y-63649261D01*
X116006607Y-63687846D01*
X115815685Y-63764983D01*
X115643382Y-63877735D01*
X115496261Y-64021807D01*
X115379925Y-64191711D01*
X115298807Y-64380975D01*
X115255994Y-64582391D01*
X115253119Y-64788287D01*
X115290291Y-64990820D01*
X115366094Y-65182275D01*
X115477640Y-65355361D01*
X115620681Y-65503485D01*
X115789769Y-65621003D01*
X115978462Y-65703442D01*
X116179574Y-65747659D01*
X116385445Y-65751971D01*
X116588232Y-65716215D01*
X116780212Y-65641750D01*
X116954073Y-65531415D01*
X117103191Y-65389412D01*
X117180112Y-65280369D01*
X117257228Y-65297324D01*
X117492508Y-65302252D01*
X117724265Y-65261387D01*
X117943671Y-65176285D01*
X118142368Y-65050188D01*
X118312789Y-64887898D01*
X118448442Y-64695598D01*
X118544160Y-64480612D01*
X118596298Y-64251128D01*
X118600051Y-63982334D01*
X118600051Y-67082334D01*
X118554342Y-66851484D01*
X118464664Y-66633908D01*
X118334433Y-66437895D01*
X118168610Y-66270911D01*
X117973511Y-66139314D01*
X117756567Y-66048120D01*
X117526041Y-66000800D01*
X117290715Y-65999157D01*
X117059551Y-66043253D01*
X116841355Y-66131410D01*
X116696933Y-66225917D01*
X116616496Y-66192104D01*
X116414786Y-66150699D01*
X116208875Y-66149261D01*
X116006607Y-66187846D01*
X115815685Y-66264983D01*
X115643382Y-66377735D01*
X115496261Y-66521807D01*
X115379925Y-66691711D01*
X115298807Y-66880975D01*
X115255994Y-67082391D01*
X115253119Y-67288287D01*
X115290291Y-67490820D01*
X115366094Y-67682275D01*
X115477640Y-67855361D01*
X115620681Y-68003485D01*
X115789769Y-68121003D01*
X115978462Y-68203442D01*
X116179574Y-68247659D01*
X116385445Y-68251971D01*
X116588232Y-68216215D01*
X116698103Y-68173598D01*
X116811736Y-68252575D01*
X117027385Y-68346790D01*
X117257228Y-68397324D01*
X117492508Y-68402252D01*
X117724265Y-68361387D01*
X117943671Y-68276285D01*
X118142368Y-68150188D01*
X118312789Y-67987898D01*
X118448442Y-67795598D01*
X118544160Y-67580612D01*
X118596298Y-67351128D01*
X118600051Y-67082334D01*
X118600051Y-70182334D01*
X118554342Y-69951484D01*
X118464664Y-69733908D01*
X118334433Y-69537895D01*
X118168610Y-69370911D01*
X117973511Y-69239314D01*
X117756567Y-69148120D01*
X117526041Y-69100800D01*
X117290715Y-69099157D01*
X117180009Y-69120274D01*
X117122129Y-69033158D01*
X116977034Y-68887046D01*
X116806322Y-68771900D01*
X116616496Y-68692104D01*
X116414786Y-68650699D01*
X116208875Y-68649261D01*
X116006607Y-68687846D01*
X115815685Y-68764983D01*
X115643382Y-68877735D01*
X115496261Y-69021807D01*
X115379925Y-69191711D01*
X115298807Y-69380975D01*
X115255994Y-69582391D01*
X115253119Y-69788287D01*
X115290291Y-69990820D01*
X115366094Y-70182275D01*
X115477640Y-70355361D01*
X115620681Y-70503485D01*
X115789769Y-70621003D01*
X115978462Y-70703442D01*
X116179574Y-70747659D01*
X116287447Y-70749918D01*
X116327536Y-70851171D01*
X116455018Y-71048984D01*
X116618493Y-71218267D01*
X116811736Y-71352575D01*
X117027385Y-71446790D01*
X117257228Y-71497324D01*
X117492508Y-71502252D01*
X117724265Y-71461387D01*
X117943671Y-71376285D01*
X118142368Y-71250188D01*
X118312789Y-71087898D01*
X118448442Y-70895598D01*
X118544160Y-70680612D01*
X118596298Y-70451128D01*
X118600051Y-70182334D01*
X118600051Y-74012023D01*
X118396000Y-74012023D01*
X118322977Y-74017958D01*
X118201797Y-74055850D01*
X118095929Y-74125937D01*
X118013718Y-74222694D01*
X117961648Y-74338491D01*
X117943823Y-74464200D01*
X117943823Y-75964200D01*
X117949758Y-76037223D01*
X117987650Y-76158403D01*
X118057737Y-76264271D01*
X118154494Y-76346482D01*
X118270291Y-76398552D01*
X118396000Y-76416377D01*
X119896000Y-76416377D01*
X119969023Y-76410442D01*
X120090203Y-76372550D01*
X120196071Y-76302463D01*
X120278282Y-76205706D01*
X120330352Y-76089909D01*
X120348177Y-75964200D01*
X120348177Y-79086839D01*
X120329760Y-79059339D01*
X120319274Y-79035825D01*
X120319216Y-79035694D01*
X120319214Y-79035690D01*
X120083587Y-78506943D01*
X120194442Y-78349798D01*
X120290160Y-78134812D01*
X120342298Y-77905328D01*
X120346051Y-77636534D01*
X120300342Y-77405684D01*
X120210664Y-77188108D01*
X120080433Y-76992095D01*
X119914610Y-76825111D01*
X119719511Y-76693514D01*
X119502567Y-76602320D01*
X119272041Y-76555000D01*
X119036715Y-76553357D01*
X118805551Y-76597453D01*
X118587355Y-76685610D01*
X118390437Y-76814470D01*
X118222299Y-76979123D01*
X118089344Y-77173299D01*
X117996637Y-77389601D01*
X117947709Y-77619790D01*
X117944423Y-77855099D01*
X117986905Y-78086565D01*
X118073536Y-78305371D01*
X118201018Y-78503184D01*
X118364493Y-78672467D01*
X118557736Y-78806775D01*
X118773385Y-78900990D01*
X119003228Y-78951524D01*
X119078125Y-78953092D01*
X119314525Y-79483574D01*
X119314530Y-79483583D01*
X119314584Y-79483706D01*
X119344284Y-79550306D01*
X119365571Y-79587726D01*
X119385384Y-79625932D01*
X119389612Y-79632342D01*
X119470712Y-79753443D01*
X119498139Y-79786821D01*
X119524255Y-79821207D01*
X119529513Y-79826804D01*
X119580014Y-79879804D01*
X119580560Y-79880275D01*
X119585164Y-79885121D01*
X119585240Y-79885215D01*
X119585307Y-79885271D01*
X119603083Y-79903981D01*
X119642604Y-79955667D01*
X119659238Y-79983200D01*
X119659254Y-79983222D01*
X119659451Y-79983552D01*
X123204351Y-85841452D01*
X123204485Y-85841632D01*
X123204582Y-85841833D01*
X123208609Y-85848372D01*
X123223809Y-85872672D01*
X123224639Y-85873748D01*
X123225252Y-85874967D01*
X123229402Y-85881428D01*
X125042144Y-88661217D01*
X120265979Y-83269122D01*
X120290160Y-83214812D01*
X120342298Y-82985328D01*
X120346051Y-82716534D01*
X120300342Y-82485684D01*
X120210664Y-82268108D01*
X120080433Y-82072095D01*
X119914610Y-81905111D01*
X119719511Y-81773514D01*
X119502567Y-81682320D01*
X119272041Y-81635000D01*
X119036715Y-81633357D01*
X118805551Y-81677453D01*
X118587355Y-81765610D01*
X118390437Y-81894470D01*
X118389295Y-81895588D01*
X118265358Y-81770782D01*
X118119033Y-81672085D01*
X117956325Y-81603689D01*
X117783431Y-81568199D01*
X117606936Y-81566967D01*
X117433563Y-81600040D01*
X117269916Y-81666157D01*
X117122228Y-81762802D01*
X116996124Y-81886292D01*
X116896408Y-82031924D01*
X116826877Y-82194150D01*
X116790181Y-82366793D01*
X116787717Y-82543274D01*
X116819578Y-82716874D01*
X116884552Y-82880979D01*
X116980163Y-83029338D01*
X117102770Y-83156301D01*
X117247702Y-83257031D01*
X117409439Y-83327693D01*
X117505858Y-83348891D01*
X117617013Y-83577484D01*
X117617019Y-83577497D01*
X117617076Y-83577614D01*
X117667219Y-83680797D01*
X117693937Y-83724366D01*
X117720262Y-83768204D01*
X117723269Y-83772197D01*
X117723334Y-83772303D01*
X117723414Y-83772389D01*
X117724882Y-83774339D01*
X117865482Y-83958339D01*
X117900317Y-83995715D01*
X117934748Y-84033372D01*
X117938580Y-84036770D01*
X117938667Y-84036863D01*
X117938764Y-84036933D01*
X117940493Y-84038466D01*
X118026105Y-84113314D01*
X118026275Y-84113463D01*
X118026393Y-84113566D01*
X119151870Y-85098923D01*
X118396000Y-85098923D01*
X118322977Y-85104858D01*
X118201797Y-85142750D01*
X118095929Y-85212837D01*
X118013718Y-85309594D01*
X117961648Y-85425391D01*
X117943823Y-85551100D01*
X117943823Y-85561474D01*
X117836701Y-85301721D01*
X117841232Y-85295299D01*
X117913021Y-85134059D01*
X117952124Y-84961946D01*
X117954939Y-84760350D01*
X117920657Y-84587213D01*
X117853398Y-84424031D01*
X117755725Y-84277021D01*
X117631358Y-84151782D01*
X117485033Y-84053085D01*
X117322325Y-83984689D01*
X117149431Y-83949199D01*
X116972936Y-83947967D01*
X116799563Y-83981040D01*
X116635916Y-84047157D01*
X116488228Y-84143802D01*
X116362124Y-84267292D01*
X116262408Y-84412924D01*
X116192877Y-84575150D01*
X116156181Y-84747793D01*
X116153717Y-84924274D01*
X116185578Y-85097874D01*
X116250552Y-85261979D01*
X116346163Y-85410338D01*
X116468770Y-85537301D01*
X116613702Y-85638031D01*
X116775439Y-85708693D01*
X116818578Y-85718177D01*
X116921952Y-85968841D01*
X116903231Y-85964999D01*
X116726736Y-85963767D01*
X116553363Y-85996840D01*
X116389716Y-86062957D01*
X116242028Y-86159602D01*
X116115924Y-86283092D01*
X116016208Y-86428724D01*
X115946677Y-86590950D01*
X115909981Y-86763593D01*
X115907517Y-86940074D01*
X115939378Y-87113674D01*
X116004352Y-87277779D01*
X116099963Y-87426138D01*
X116222570Y-87553101D01*
X116367502Y-87653831D01*
X116529239Y-87724493D01*
X116653549Y-87751823D01*
X117640876Y-89631644D01*
X117640882Y-89631653D01*
X117640975Y-89631833D01*
X117761575Y-89861233D01*
X117767232Y-89869835D01*
X117771464Y-89879220D01*
X117796681Y-89914613D01*
X117820558Y-89950917D01*
X117827776Y-89958254D01*
X117833752Y-89966641D01*
X117865370Y-89996467D01*
X117895837Y-90027436D01*
X117904342Y-90033231D01*
X117911834Y-90040298D01*
X117917940Y-90044955D01*
X118330640Y-90355154D01*
X118339303Y-90360427D01*
X118347028Y-90367007D01*
X118385089Y-90388298D01*
X118422330Y-90410968D01*
X118431666Y-90414390D01*
X118390437Y-90441370D01*
X118222299Y-90606023D01*
X118089344Y-90800199D01*
X117996637Y-91016501D01*
X117947709Y-91246690D01*
X117944423Y-91481999D01*
X117986905Y-91713465D01*
X118073536Y-91932271D01*
X118201018Y-92130084D01*
X118364493Y-92299367D01*
X118557736Y-92433675D01*
X118773385Y-92527890D01*
X119003228Y-92578424D01*
X119238508Y-92583352D01*
X119470265Y-92542487D01*
X119689671Y-92457385D01*
X119888368Y-92331288D01*
X120058789Y-92168998D01*
X120194442Y-91976698D01*
X120290160Y-91761712D01*
X120342298Y-91532228D01*
X120346051Y-91263434D01*
X120300342Y-91032584D01*
X120210664Y-90815008D01*
X120195690Y-90792470D01*
X124059762Y-91586736D01*
X124059768Y-91586736D01*
X124060010Y-91586788D01*
X124107199Y-91596465D01*
X124190816Y-91644578D01*
X124223214Y-91680862D01*
X124223274Y-91680930D01*
X127062172Y-94863290D01*
X127062419Y-94863568D01*
X127062474Y-94863629D01*
X127239670Y-95062595D01*
X126484833Y-94809361D01*
X126484795Y-94809352D01*
X126484353Y-94809201D01*
X126425154Y-94789401D01*
X126389865Y-94781323D01*
X126355163Y-94771012D01*
X126347614Y-94769606D01*
X126224714Y-94747606D01*
X126188405Y-94744717D01*
X126152348Y-94739548D01*
X126144674Y-94739259D01*
X126083047Y-94737367D01*
X126083011Y-94737366D01*
X119127395Y-94520868D01*
X119127379Y-94520868D01*
X119082086Y-94519452D01*
X118994513Y-94503468D01*
X118951824Y-94488908D01*
X118951783Y-94488894D01*
X117964440Y-94151214D01*
X117908598Y-94015731D01*
X117810925Y-93868721D01*
X117686558Y-93743482D01*
X117540233Y-93644785D01*
X117377525Y-93576389D01*
X117204631Y-93540899D01*
X117028136Y-93539667D01*
X116854763Y-93572740D01*
X116810000Y-93590825D01*
X116810000Y-93159532D01*
X116790955Y-92965298D01*
X116734546Y-92778462D01*
X116642921Y-92606140D01*
X116519571Y-92454898D01*
X116369193Y-92330494D01*
X116360000Y-92325523D01*
X116360000Y-91252177D01*
X116500000Y-91252177D01*
X116573023Y-91246242D01*
X116694203Y-91208350D01*
X116800071Y-91138263D01*
X116882282Y-91041506D01*
X116934352Y-90925709D01*
X116952177Y-90800000D01*
X116952177Y-89720000D01*
X116946242Y-89646977D01*
X116908350Y-89525797D01*
X116838263Y-89419929D01*
X116741506Y-89337718D01*
X116625709Y-89285648D01*
X116500000Y-89267823D01*
X115500000Y-89267823D01*
X115426977Y-89273758D01*
X115305797Y-89311650D01*
X115199929Y-89381737D01*
X115117718Y-89478494D01*
X115065648Y-89594291D01*
X115047823Y-89720000D01*
X115047823Y-90800000D01*
X115053758Y-90873023D01*
X115091650Y-90994203D01*
X115161737Y-91100071D01*
X115258494Y-91182282D01*
X115260000Y-91182959D01*
X115260000Y-92324727D01*
X115110337Y-92445059D01*
X114984887Y-92594565D01*
X114890865Y-92765590D01*
X114831852Y-92951620D01*
X114810097Y-93145570D01*
X114810000Y-93159532D01*
X114810000Y-94676468D01*
X114829045Y-94870702D01*
X114885454Y-95057538D01*
X114977079Y-95229860D01*
X115100429Y-95381102D01*
X115250807Y-95505506D01*
X115315240Y-95540344D01*
X115478506Y-98066128D01*
X114123622Y-95189576D01*
X114189135Y-95070410D01*
X114248148Y-94884380D01*
X114269903Y-94690430D01*
X114270000Y-94676468D01*
X114270000Y-93159532D01*
X114250955Y-92965298D01*
X114194546Y-92778462D01*
X114102921Y-92606140D01*
X113979571Y-92454898D01*
X113829193Y-92330494D01*
X113820000Y-92325523D01*
X113820000Y-91252177D01*
X113900000Y-91252177D01*
X113973023Y-91246242D01*
X114094203Y-91208350D01*
X114200071Y-91138263D01*
X114282282Y-91041506D01*
X114334352Y-90925709D01*
X114352177Y-90800000D01*
X114352177Y-89720000D01*
X114346242Y-89646977D01*
X114308350Y-89525797D01*
X114238263Y-89419929D01*
X114141506Y-89337718D01*
X114025709Y-89285648D01*
X113900000Y-89267823D01*
X112900000Y-89267823D01*
X112826977Y-89273758D01*
X112705797Y-89311650D01*
X112599929Y-89381737D01*
X112517718Y-89478494D01*
X112465648Y-89594291D01*
X112447823Y-89720000D01*
X112447823Y-90800000D01*
X112453758Y-90873023D01*
X112491650Y-90994203D01*
X112561737Y-91100071D01*
X112658494Y-91182282D01*
X112720000Y-91209939D01*
X112720000Y-92324727D01*
X112570337Y-92445059D01*
X112444887Y-92594565D01*
X112350865Y-92765590D01*
X112291852Y-92951620D01*
X112270097Y-93145570D01*
X112270000Y-93159532D01*
X112270000Y-94676468D01*
X112289045Y-94870702D01*
X112345454Y-95057538D01*
X112437079Y-95229860D01*
X112560429Y-95381102D01*
X112710807Y-95505506D01*
X112882484Y-95598331D01*
X113068922Y-95656043D01*
X113130470Y-95662512D01*
X115263987Y-100192179D01*
X114679524Y-99607716D01*
X114623692Y-99560278D01*
X114511211Y-99501385D01*
X114386792Y-99476084D01*
X114260243Y-99486370D01*
X114141542Y-99531431D01*
X114040048Y-99607716D01*
X113255181Y-100392582D01*
X111519882Y-95283421D01*
X111555113Y-95241435D01*
X111649135Y-95070410D01*
X111708148Y-94884380D01*
X111729903Y-94690430D01*
X111730000Y-94676468D01*
X111730000Y-93159532D01*
X111710955Y-92965298D01*
X111654546Y-92778462D01*
X111562921Y-92606140D01*
X111439571Y-92454898D01*
X111289193Y-92330494D01*
X111280000Y-92325523D01*
X111280000Y-91252177D01*
X111300000Y-91252177D01*
X111373023Y-91246242D01*
X111494203Y-91208350D01*
X111600071Y-91138263D01*
X111682282Y-91041506D01*
X111734352Y-90925709D01*
X111752177Y-90800000D01*
X111752177Y-89720000D01*
X111746242Y-89646977D01*
X111708350Y-89525797D01*
X111638263Y-89419929D01*
X111541506Y-89337718D01*
X111425709Y-89285648D01*
X111300000Y-89267823D01*
X110300000Y-89267823D01*
X110226977Y-89273758D01*
X110105797Y-89311650D01*
X109999929Y-89381737D01*
X109917718Y-89478494D01*
X109865648Y-89594291D01*
X109847823Y-89720000D01*
X109847823Y-90800000D01*
X109853758Y-90873023D01*
X109891650Y-90994203D01*
X109961737Y-91100071D01*
X110058494Y-91182282D01*
X110174291Y-91234352D01*
X110180000Y-91235161D01*
X110180000Y-92324727D01*
X110030337Y-92445059D01*
X109904887Y-92594565D01*
X109810865Y-92765590D01*
X109751852Y-92951620D01*
X109730097Y-93145570D01*
X109730000Y-93159532D01*
X109730000Y-94676468D01*
X109749045Y-94870702D01*
X109805454Y-95057538D01*
X109897079Y-95229860D01*
X110020429Y-95381102D01*
X110170807Y-95505506D01*
X110342484Y-95598331D01*
X110479533Y-95640754D01*
X111629624Y-99026917D01*
X109104946Y-95078028D01*
X109109135Y-95070410D01*
X109168148Y-94884380D01*
X109189903Y-94690430D01*
X109190000Y-94676468D01*
X109190000Y-93159532D01*
X109170955Y-92965298D01*
X109114546Y-92778462D01*
X109022921Y-92606140D01*
X108899571Y-92454898D01*
X108749193Y-92330494D01*
X108740000Y-92325523D01*
X108740000Y-91248925D01*
X108773023Y-91246242D01*
X108894203Y-91208350D01*
X109000071Y-91138263D01*
X109082282Y-91041506D01*
X109134352Y-90925709D01*
X109152177Y-90800000D01*
X109152177Y-89720000D01*
X109146242Y-89646977D01*
X109108350Y-89525797D01*
X109038263Y-89419929D01*
X108941506Y-89337718D01*
X108825709Y-89285648D01*
X108700000Y-89267823D01*
X107700000Y-89267823D01*
X107626977Y-89273758D01*
X107505797Y-89311650D01*
X107399929Y-89381737D01*
X107317718Y-89478494D01*
X107265648Y-89594291D01*
X107247823Y-89720000D01*
X107247823Y-90800000D01*
X107253758Y-90873023D01*
X107291650Y-90994203D01*
X107361737Y-91100071D01*
X107458494Y-91182282D01*
X107574291Y-91234352D01*
X107640000Y-91243669D01*
X107640000Y-92324727D01*
X107490337Y-92445059D01*
X107364887Y-92594565D01*
X107270865Y-92765590D01*
X107211852Y-92951620D01*
X107190097Y-93145570D01*
X107190000Y-93159532D01*
X107190000Y-93974325D01*
X107036482Y-93675612D01*
X105476427Y-88235055D01*
X105002827Y-82595097D01*
X105633720Y-76970561D01*
X107345075Y-71575685D01*
X109462685Y-67723766D01*
X109473536Y-67751171D01*
X109601018Y-67948984D01*
X109764493Y-68118267D01*
X109847823Y-68176183D01*
X109847823Y-69200000D01*
X109853758Y-69273023D01*
X109891650Y-69394203D01*
X109961737Y-69500071D01*
X110058494Y-69582282D01*
X110174291Y-69634352D01*
X110300000Y-69652177D01*
X111500000Y-69652177D01*
X111573023Y-69646242D01*
X111694203Y-69608350D01*
X111800071Y-69538263D01*
X111802844Y-69534998D01*
X111858494Y-69582282D01*
X111974291Y-69634352D01*
X112100000Y-69652177D01*
X113300000Y-69652177D01*
X113373023Y-69646242D01*
X113494203Y-69608350D01*
X113600071Y-69538263D01*
X113682282Y-69441506D01*
X113734352Y-69325709D01*
X113752177Y-69200000D01*
X113752177Y-68402177D01*
X113836000Y-68402177D01*
X113909023Y-68396242D01*
X114030203Y-68358350D01*
X114136071Y-68288263D01*
X114218282Y-68191506D01*
X114270352Y-68075709D01*
X114288177Y-67950000D01*
X114288177Y-66450000D01*
X114282242Y-66376977D01*
X114244350Y-66255797D01*
X114174263Y-66149929D01*
X114077506Y-66067718D01*
X113961709Y-66015648D01*
X113836000Y-65997823D01*
X112336000Y-65997823D01*
X112262977Y-66003758D01*
X112141797Y-66041650D01*
X112035929Y-66111737D01*
X111953718Y-66208494D01*
X111901648Y-66324291D01*
X111883823Y-66450000D01*
X111883823Y-67206197D01*
X111799929Y-67261737D01*
X111797155Y-67265001D01*
X111744129Y-67219947D01*
X111746051Y-67082334D01*
X111700342Y-66851484D01*
X111610664Y-66633908D01*
X111480433Y-66437895D01*
X111314610Y-66270911D01*
X111119511Y-66139314D01*
X110902567Y-66048120D01*
X110672041Y-66000800D01*
X110588377Y-66000215D01*
X113709763Y-62280292D01*
X118120667Y-58733835D01*
X123136409Y-56111668D01*
X128565942Y-54513670D01*
X134160873Y-54004491D01*
X134149929Y-54011737D01*
X134067718Y-54108494D01*
X134015648Y-54224291D01*
X133997823Y-54350000D01*
X133997823Y-55850000D01*
X134003758Y-55923023D01*
X134041650Y-56044203D01*
X134111737Y-56150071D01*
X134208494Y-56232282D01*
X134324291Y-56284352D01*
X134450000Y-56302177D01*
X135950000Y-56302177D01*
X136023023Y-56296242D01*
X136144203Y-56258350D01*
X136250071Y-56188263D01*
X136332282Y-56091506D01*
X136384352Y-55975709D01*
X136402177Y-55850000D01*
X136402177Y-54350000D01*
X136396242Y-54276977D01*
X136381468Y-54229730D01*
X139831260Y-54592318D01*
X145237952Y-56265969D01*
X146600000Y-57002425D01*
X146600000Y-108970094D01*
X146600000Y-108970094D01*
G37*
X146600000Y-108970094D02*
X144487113Y-110037390D01*
X143091744Y-110426983D01*
X143132789Y-110387898D01*
X143268442Y-110195598D01*
X143364160Y-109980612D01*
X143416298Y-109751128D01*
X143420051Y-109482334D01*
X143374342Y-109251484D01*
X143284664Y-109033908D01*
X143154433Y-108837895D01*
X142988610Y-108670911D01*
X142793511Y-108539314D01*
X142576567Y-108448120D01*
X142346041Y-108400800D01*
X142110715Y-108399157D01*
X141879551Y-108443253D01*
X141735177Y-108501583D01*
X141735177Y-60481300D01*
X141735177Y-58481300D01*
X141729242Y-58408277D01*
X141691350Y-58287097D01*
X141621263Y-58181229D01*
X141524506Y-58099018D01*
X141408709Y-58046948D01*
X141283000Y-58029123D01*
X139283000Y-58029123D01*
X139209977Y-58035058D01*
X139088797Y-58072950D01*
X138982929Y-58143037D01*
X138900718Y-58239794D01*
X138848648Y-58355591D01*
X138830823Y-58481300D01*
X138830823Y-60481300D01*
X138836758Y-60554323D01*
X138874650Y-60675503D01*
X138944737Y-60781371D01*
X139041494Y-60863582D01*
X139157291Y-60915652D01*
X139283000Y-60933477D01*
X141283000Y-60933477D01*
X141356023Y-60927542D01*
X141477203Y-60889650D01*
X141583071Y-60819563D01*
X141665282Y-60722806D01*
X141717352Y-60607009D01*
X141735177Y-60481300D01*
X141735177Y-108501583D01*
X141661355Y-108531410D01*
X141464437Y-108660270D01*
X141296299Y-108824923D01*
X141163344Y-109019099D01*
X141070637Y-109235401D01*
X141021709Y-109465590D01*
X141018423Y-109700899D01*
X141060905Y-109932365D01*
X141147536Y-110151171D01*
X141275018Y-110348984D01*
X141438493Y-110518267D01*
X141631736Y-110652575D01*
X141847385Y-110746790D01*
X141902738Y-110758960D01*
X139035797Y-111559425D01*
X138340051Y-111612959D01*
X138340051Y-109482334D01*
X138294342Y-109251484D01*
X138204664Y-109033908D01*
X138074433Y-108837895D01*
X137908610Y-108670911D01*
X137713511Y-108539314D01*
X137496567Y-108448120D01*
X137266041Y-108400800D01*
X137030715Y-108399157D01*
X136799551Y-108443253D01*
X136581355Y-108531410D01*
X136384437Y-108660270D01*
X136216299Y-108824923D01*
X136083344Y-109019099D01*
X135990637Y-109235401D01*
X135941709Y-109465590D01*
X135938423Y-109700899D01*
X135980905Y-109932365D01*
X136067536Y-110151171D01*
X136195018Y-110348984D01*
X136358493Y-110518267D01*
X136551736Y-110652575D01*
X136767385Y-110746790D01*
X136997228Y-110797324D01*
X137232508Y-110802252D01*
X137464265Y-110761387D01*
X137683671Y-110676285D01*
X137882368Y-110550188D01*
X138052789Y-110387898D01*
X138188442Y-110195598D01*
X138284160Y-109980612D01*
X138336298Y-109751128D01*
X138340051Y-109482334D01*
X138340051Y-111612959D01*
X135802177Y-111808238D01*
X135802177Y-110350000D01*
X135802177Y-108850000D01*
X135796242Y-108776977D01*
X135758350Y-108655797D01*
X135688263Y-108549929D01*
X135591506Y-108467718D01*
X135475709Y-108415648D01*
X135350000Y-108397823D01*
X133850000Y-108397823D01*
X133776977Y-108403758D01*
X133655797Y-108441650D01*
X133549929Y-108511737D01*
X133467718Y-108608494D01*
X133415648Y-108724291D01*
X133397823Y-108850000D01*
X133397823Y-110350000D01*
X133403758Y-110423023D01*
X133441650Y-110544203D01*
X133511737Y-110650071D01*
X133608494Y-110732282D01*
X133724291Y-110784352D01*
X133850000Y-110802177D01*
X135350000Y-110802177D01*
X135423023Y-110796242D01*
X135544203Y-110758350D01*
X135650071Y-110688263D01*
X135732282Y-110591506D01*
X135784352Y-110475709D01*
X135802177Y-110350000D01*
X135802177Y-111808238D01*
X133392670Y-111993640D01*
X132380051Y-111872892D01*
X132380051Y-109482334D01*
X132334342Y-109251484D01*
X132244664Y-109033908D01*
X132114433Y-108837895D01*
X131948610Y-108670911D01*
X131753511Y-108539314D01*
X131536567Y-108448120D01*
X131306041Y-108400800D01*
X131070715Y-108399157D01*
X130839551Y-108443253D01*
X130621355Y-108531410D01*
X130424437Y-108660270D01*
X130256299Y-108824923D01*
X130123344Y-109019099D01*
X130030637Y-109235401D01*
X129981709Y-109465590D01*
X129978423Y-109700899D01*
X130020905Y-109932365D01*
X130107536Y-110151171D01*
X130235018Y-110348984D01*
X130398493Y-110518267D01*
X130591736Y-110652575D01*
X130807385Y-110746790D01*
X131037228Y-110797324D01*
X131272508Y-110802252D01*
X131504265Y-110761387D01*
X131723671Y-110676285D01*
X131922368Y-110550188D01*
X132092789Y-110387898D01*
X132228442Y-110195598D01*
X132324160Y-109980612D01*
X132376298Y-109751128D01*
X132380051Y-109482334D01*
X132380051Y-111872892D01*
X129840051Y-111570015D01*
X129840051Y-109482334D01*
X129794342Y-109251484D01*
X129704664Y-109033908D01*
X129574433Y-108837895D01*
X129408610Y-108670911D01*
X129213511Y-108539314D01*
X128996567Y-108448120D01*
X128766041Y-108400800D01*
X128530715Y-108399157D01*
X128299551Y-108443253D01*
X128081355Y-108531410D01*
X127884437Y-108660270D01*
X127716299Y-108824923D01*
X127583344Y-109019099D01*
X127490637Y-109235401D01*
X127441709Y-109465590D01*
X127438423Y-109700899D01*
X127480905Y-109932365D01*
X127567536Y-110151171D01*
X127695018Y-110348984D01*
X127858493Y-110518267D01*
X128051736Y-110652575D01*
X128267385Y-110746790D01*
X128497228Y-110797324D01*
X128732508Y-110802252D01*
X128964265Y-110761387D01*
X129183671Y-110676285D01*
X129382368Y-110550188D01*
X129552789Y-110387898D01*
X129688442Y-110195598D01*
X129784160Y-109980612D01*
X129836298Y-109751128D01*
X129840051Y-109482334D01*
X129840051Y-111570015D01*
X127772676Y-111323496D01*
X122389878Y-109574519D01*
X117449307Y-106813327D01*
X113139146Y-103145093D01*
X109623568Y-98709538D01*
X108058017Y-95663305D01*
X108181859Y-95676322D01*
X112077312Y-101769262D01*
X112077316Y-101769267D01*
X112077430Y-101769448D01*
X112103730Y-101810547D01*
X112119590Y-101830690D01*
X112133309Y-101852348D01*
X112138073Y-101858370D01*
X112199074Y-101934370D01*
X112217647Y-101953368D01*
X112234255Y-101974111D01*
X112239654Y-101979571D01*
X112273691Y-102013509D01*
X112273908Y-102013726D01*
X112274254Y-102014071D01*
X113334320Y-103074137D01*
X113334391Y-103074209D01*
X113369991Y-103109809D01*
X113390689Y-103126810D01*
X113409619Y-103145756D01*
X113415584Y-103150591D01*
X113494184Y-103213391D01*
X113516612Y-103227969D01*
X113537501Y-103244678D01*
X113543966Y-103248821D01*
X113587066Y-103276021D01*
X113587111Y-103276043D01*
X113587846Y-103276513D01*
X117180803Y-105535585D01*
X117180846Y-105535613D01*
X117180853Y-105535616D01*
X117467502Y-105715885D01*
X117486481Y-105725374D01*
X117504201Y-105737037D01*
X117534375Y-105749320D01*
X117563512Y-105763889D01*
X117583968Y-105769510D01*
X117603619Y-105777510D01*
X117610995Y-105779647D01*
X118262995Y-105963547D01*
X118283716Y-105967257D01*
X118303850Y-105973402D01*
X118336430Y-105976695D01*
X118368656Y-105982465D01*
X118389701Y-105982079D01*
X118410647Y-105984197D01*
X118418326Y-105984167D01*
X118755930Y-105980468D01*
X118756025Y-105980467D01*
X118756025Y-105980466D01*
X121677317Y-105948968D01*
X121677330Y-105948968D01*
X121677354Y-105948968D01*
X121751253Y-105948168D01*
X121764708Y-105946701D01*
X121778226Y-105947213D01*
X121785888Y-105946700D01*
X121933189Y-105935800D01*
X121946369Y-105933515D01*
X121959744Y-105933186D01*
X121967359Y-105932195D01*
X122037455Y-105922577D01*
X122037516Y-105922570D01*
X122038059Y-105922495D01*
X125751980Y-105416717D01*
X125742823Y-105481300D01*
X125742823Y-107481300D01*
X125748758Y-107554323D01*
X125786650Y-107675503D01*
X125856737Y-107781371D01*
X125953494Y-107863582D01*
X126069291Y-107915652D01*
X126195000Y-107933477D01*
X128195000Y-107933477D01*
X128268023Y-107927542D01*
X128389203Y-107889650D01*
X128495071Y-107819563D01*
X128577282Y-107722806D01*
X128629352Y-107607009D01*
X128647177Y-107481300D01*
X128647177Y-107181300D01*
X139009018Y-107181300D01*
X139141146Y-107386322D01*
X139338679Y-107590873D01*
X139572181Y-107753161D01*
X139832757Y-107867005D01*
X140110484Y-107928067D01*
X140394781Y-107934022D01*
X140674820Y-107884643D01*
X140939936Y-107781812D01*
X141180029Y-107629444D01*
X141385954Y-107433344D01*
X141549868Y-107200981D01*
X141665528Y-106941206D01*
X141728527Y-106663913D01*
X141733062Y-106339120D01*
X141677830Y-106060176D01*
X141569469Y-105797272D01*
X141412107Y-105560423D01*
X141220039Y-105367010D01*
X141220039Y-62925950D01*
X141185757Y-62752813D01*
X141118498Y-62589631D01*
X141020825Y-62442621D01*
X140896458Y-62317382D01*
X140750133Y-62218685D01*
X140587425Y-62150289D01*
X140414531Y-62114799D01*
X140238036Y-62113567D01*
X140064663Y-62146640D01*
X139934762Y-62199122D01*
X138670836Y-61889479D01*
X138652925Y-61862521D01*
X138528558Y-61737282D01*
X138382233Y-61638585D01*
X138219525Y-61570189D01*
X138046631Y-61534699D01*
X137870136Y-61533467D01*
X137696763Y-61566540D01*
X137533116Y-61632657D01*
X137385428Y-61729302D01*
X137353772Y-61760301D01*
X133408519Y-61937731D01*
X133303633Y-61866985D01*
X133140925Y-61798589D01*
X132968031Y-61763099D01*
X132791536Y-61761867D01*
X132618163Y-61794940D01*
X132454516Y-61861057D01*
X132306828Y-61957702D01*
X132180724Y-62081192D01*
X132081008Y-62226824D01*
X132011477Y-62389050D01*
X131980949Y-62532673D01*
X129928139Y-64422252D01*
X129901536Y-64422067D01*
X129728163Y-64455140D01*
X129564516Y-64521257D01*
X129416828Y-64617902D01*
X129290724Y-64741392D01*
X129191008Y-64887024D01*
X129121477Y-65049250D01*
X129084781Y-65221893D01*
X129082317Y-65398374D01*
X129114178Y-65571974D01*
X129179152Y-65736079D01*
X129274763Y-65884438D01*
X129309648Y-65920562D01*
X129484172Y-69806034D01*
X127720874Y-70932818D01*
X127694711Y-70949504D01*
X127680805Y-70960417D01*
X127665469Y-70969206D01*
X127657543Y-70974925D01*
X127608243Y-71011025D01*
X127596866Y-71021201D01*
X127584081Y-71029538D01*
X127576496Y-71035703D01*
X127551996Y-71055903D01*
X127551906Y-71055992D01*
X127550219Y-71057374D01*
X124468458Y-73615358D01*
X124398036Y-73614867D01*
X124224663Y-73647940D01*
X124061016Y-73714057D01*
X123913328Y-73810702D01*
X123787224Y-73934192D01*
X123687508Y-74079824D01*
X123617977Y-74242050D01*
X123581281Y-74414693D01*
X123578817Y-74591174D01*
X123610678Y-74764774D01*
X123675652Y-74928879D01*
X123771263Y-75077238D01*
X123893870Y-75204201D01*
X124038802Y-75304931D01*
X124200539Y-75375593D01*
X124372921Y-75413493D01*
X124549381Y-75417190D01*
X124723199Y-75386541D01*
X124887753Y-75322714D01*
X125036777Y-75228141D01*
X125164592Y-75106424D01*
X125266332Y-74962199D01*
X125338121Y-74800959D01*
X125362764Y-74692491D01*
X126548893Y-73707957D01*
X126578078Y-73866974D01*
X126643052Y-74031079D01*
X126738663Y-74179438D01*
X126861270Y-74306401D01*
X127006202Y-74407131D01*
X127167939Y-74477793D01*
X127340321Y-74515693D01*
X127423422Y-74517434D01*
X128364254Y-75805716D01*
X128331781Y-75958493D01*
X128329317Y-76134974D01*
X128361178Y-76308574D01*
X128426152Y-76472679D01*
X128521763Y-76621038D01*
X128644370Y-76748001D01*
X128789302Y-76848731D01*
X128951039Y-76919393D01*
X129123421Y-76957293D01*
X129299881Y-76960990D01*
X129473699Y-76930341D01*
X129638253Y-76866514D01*
X129787277Y-76771941D01*
X129861429Y-76701326D01*
X132246935Y-81811064D01*
X132246938Y-81811069D01*
X132252256Y-81822461D01*
X132261625Y-81848181D01*
X132264927Y-81860527D01*
X132264933Y-81860549D01*
X132264969Y-81860683D01*
X134664847Y-90844302D01*
X134588008Y-90956524D01*
X134518477Y-91118750D01*
X134481781Y-91291393D01*
X134479317Y-91467874D01*
X134511178Y-91641474D01*
X134576152Y-91805579D01*
X134671763Y-91953938D01*
X134794370Y-92080901D01*
X134939302Y-92181631D01*
X135101039Y-92252293D01*
X135273421Y-92290193D01*
X135449881Y-92293890D01*
X135623699Y-92263241D01*
X135788253Y-92199414D01*
X135937277Y-92104841D01*
X136065092Y-91983124D01*
X136166832Y-91838899D01*
X136238621Y-91677659D01*
X136277724Y-91505546D01*
X136280539Y-91303950D01*
X136246257Y-91130813D01*
X136178998Y-90967631D01*
X136081325Y-90820621D01*
X135956958Y-90695382D01*
X135810633Y-90596685D01*
X135727993Y-90561946D01*
X133327667Y-81576651D01*
X133327663Y-81576640D01*
X133327631Y-81576517D01*
X133318031Y-81540617D01*
X133310860Y-81521511D01*
X133306058Y-81501683D01*
X133303480Y-81494449D01*
X133277580Y-81423350D01*
X133268827Y-81405094D01*
X133262362Y-81385912D01*
X133259162Y-81378931D01*
X133243700Y-81345813D01*
X133243665Y-81345736D01*
X133243662Y-81345731D01*
X130499165Y-75467036D01*
X130499162Y-75467032D01*
X130483083Y-75432503D01*
X130472194Y-75414071D01*
X130463555Y-75394505D01*
X130459737Y-75387842D01*
X130421636Y-75322442D01*
X130409616Y-75305791D01*
X130399691Y-75287808D01*
X130395298Y-75281509D01*
X130372997Y-75250009D01*
X130372987Y-75249997D01*
X130372845Y-75249794D01*
X129696316Y-74295133D01*
X129855953Y-74233214D01*
X130004977Y-74138641D01*
X130132792Y-74016924D01*
X130234532Y-73872699D01*
X130306321Y-73711459D01*
X130345424Y-73539346D01*
X130348239Y-73337750D01*
X130313957Y-73164613D01*
X130283888Y-73091661D01*
X130693298Y-72397434D01*
X130825399Y-72374141D01*
X130989953Y-72310314D01*
X131138977Y-72215741D01*
X131266792Y-72094024D01*
X131368532Y-71949799D01*
X131407957Y-71861249D01*
X131559552Y-72002254D01*
X131559574Y-72002270D01*
X131559846Y-72002527D01*
X131702246Y-72134827D01*
X131750370Y-72171480D01*
X131797635Y-72209187D01*
X131804642Y-72212816D01*
X131810928Y-72217604D01*
X131865233Y-72244200D01*
X131918943Y-72272021D01*
X131928045Y-72275584D01*
X132289445Y-72414184D01*
X132348190Y-72430345D01*
X132406545Y-72447741D01*
X132413968Y-72448442D01*
X132421167Y-72450423D01*
X132481913Y-72454864D01*
X132542555Y-72460596D01*
X132552328Y-72460493D01*
X132746813Y-72457095D01*
X132746815Y-72457095D01*
X132746929Y-72457093D01*
X134460722Y-72427427D01*
X134575402Y-72507131D01*
X134737139Y-72577793D01*
X134909521Y-72615693D01*
X135085981Y-72619390D01*
X135259799Y-72588741D01*
X135424353Y-72524914D01*
X135573377Y-72430341D01*
X135701192Y-72308624D01*
X135802932Y-72164399D01*
X135874721Y-72003159D01*
X135913824Y-71831046D01*
X135915694Y-71697102D01*
X137008265Y-70277200D01*
X137043199Y-70271041D01*
X137207753Y-70207214D01*
X137356777Y-70112641D01*
X137484592Y-69990924D01*
X137586332Y-69846699D01*
X137658121Y-69685459D01*
X137697224Y-69513346D01*
X137700039Y-69311750D01*
X137665757Y-69138613D01*
X137598498Y-68975431D01*
X137500825Y-68828421D01*
X137376458Y-68703182D01*
X137230133Y-68604485D01*
X137067425Y-68536089D01*
X136894531Y-68500599D01*
X136718036Y-68499367D01*
X136544663Y-68532440D01*
X136381016Y-68598557D01*
X136233328Y-68695202D01*
X136107224Y-68818692D01*
X136007508Y-68964324D01*
X135937977Y-69126550D01*
X135901281Y-69299193D01*
X135899561Y-69422344D01*
X134807738Y-70841274D01*
X134761263Y-70850140D01*
X134597616Y-70916257D01*
X134449928Y-71012902D01*
X134434852Y-71027665D01*
X132722585Y-71057305D01*
X132722577Y-71057305D01*
X132722472Y-71057307D01*
X132663811Y-71058331D01*
X132555878Y-71016938D01*
X132513058Y-70977155D01*
X132513048Y-70977146D01*
X132512754Y-70976873D01*
X131740048Y-70258146D01*
X131740007Y-70258115D01*
X131739459Y-70257599D01*
X131689458Y-70211198D01*
X131655932Y-70185694D01*
X131624418Y-70157747D01*
X131616467Y-70152062D01*
X131506467Y-70074562D01*
X131469842Y-70053784D01*
X131434887Y-70030318D01*
X131426247Y-70025748D01*
X131366247Y-69994548D01*
X131366232Y-69994542D01*
X131366024Y-69994432D01*
X130882769Y-69743360D01*
X130708194Y-65856774D01*
X130769832Y-65769399D01*
X130841621Y-65608159D01*
X130877225Y-65451445D01*
X132927852Y-63563875D01*
X132942881Y-63564190D01*
X133116699Y-63533541D01*
X133281253Y-63469714D01*
X133430277Y-63375141D01*
X133471027Y-63336334D01*
X137417817Y-63158835D01*
X137510902Y-63223531D01*
X137672639Y-63294193D01*
X137845021Y-63332093D01*
X138021481Y-63335790D01*
X138195299Y-63305141D01*
X138338712Y-63249514D01*
X139600038Y-63558520D01*
X139611263Y-63575938D01*
X139733870Y-63702901D01*
X139878802Y-63803631D01*
X140040539Y-63874293D01*
X140212921Y-63912193D01*
X140389381Y-63915890D01*
X140563199Y-63885241D01*
X140727753Y-63821414D01*
X140876777Y-63726841D01*
X141004592Y-63605124D01*
X141106332Y-63460899D01*
X141178121Y-63299659D01*
X141217224Y-63127546D01*
X141220039Y-62925950D01*
X141220039Y-105367010D01*
X141211737Y-105358650D01*
X140975992Y-105199638D01*
X140713851Y-105089444D01*
X140435300Y-105032266D01*
X140150947Y-105030280D01*
X139871624Y-105083564D01*
X139607970Y-105190087D01*
X139370028Y-105345792D01*
X139166861Y-105544748D01*
X139006207Y-105779377D01*
X139005382Y-105781300D01*
X128647177Y-105781300D01*
X128647177Y-105481300D01*
X128641242Y-105408277D01*
X128603350Y-105287097D01*
X128533263Y-105181229D01*
X128436506Y-105099018D01*
X128320709Y-105046948D01*
X128195000Y-105029123D01*
X127562371Y-105029123D01*
X127567921Y-105016659D01*
X127607024Y-104844546D01*
X127609839Y-104642950D01*
X127578942Y-104486909D01*
X128844396Y-104569070D01*
X128882463Y-104628138D01*
X129005070Y-104755101D01*
X129150002Y-104855831D01*
X129311739Y-104926493D01*
X129484121Y-104964393D01*
X129660581Y-104968090D01*
X129834399Y-104937441D01*
X129998953Y-104873614D01*
X130147977Y-104779041D01*
X130275792Y-104657324D01*
X130377532Y-104513099D01*
X130449321Y-104351859D01*
X130472230Y-104251024D01*
X130479821Y-104252693D01*
X130656281Y-104256390D01*
X130830099Y-104225741D01*
X130994653Y-104161914D01*
X131143677Y-104067341D01*
X131271492Y-103945624D01*
X131373232Y-103801399D01*
X131445021Y-103640159D01*
X131458139Y-103582417D01*
X132663264Y-104398676D01*
X132663284Y-104398687D01*
X132663615Y-104398914D01*
X132793015Y-104486414D01*
X132797703Y-104488956D01*
X132801867Y-104492275D01*
X132844814Y-104514499D01*
X132887379Y-104537577D01*
X132892470Y-104539159D01*
X132897200Y-104541607D01*
X132904351Y-104544405D01*
X133193852Y-104655305D01*
X133198885Y-104656687D01*
X133203602Y-104658935D01*
X133250594Y-104670892D01*
X133297359Y-104683739D01*
X133302570Y-104684118D01*
X133307628Y-104685405D01*
X133315227Y-104686511D01*
X133622427Y-104729011D01*
X133628043Y-104729234D01*
X133633527Y-104730431D01*
X133681586Y-104731362D01*
X133729684Y-104733275D01*
X133735236Y-104732403D01*
X133740848Y-104732512D01*
X133748499Y-104731858D01*
X134059599Y-104703058D01*
X134065075Y-104702004D01*
X134070654Y-104701922D01*
X134117753Y-104691870D01*
X134165008Y-104682780D01*
X134170173Y-104680683D01*
X134175631Y-104679519D01*
X134182932Y-104677140D01*
X134328851Y-104628467D01*
X134328957Y-104628431D01*
X134329232Y-104628340D01*
X135420429Y-104265245D01*
X135481702Y-104307831D01*
X135643439Y-104378493D01*
X135815821Y-104416393D01*
X135992281Y-104420090D01*
X136166099Y-104389441D01*
X136330653Y-104325614D01*
X136479677Y-104231041D01*
X136607492Y-104109324D01*
X136709232Y-103965099D01*
X136781021Y-103803859D01*
X136820124Y-103631746D01*
X136820917Y-103574890D01*
X136844781Y-103575390D01*
X137018599Y-103544741D01*
X137183153Y-103480914D01*
X137332177Y-103386341D01*
X137459992Y-103264624D01*
X137561732Y-103120399D01*
X137633521Y-102959159D01*
X137672624Y-102787046D01*
X137675439Y-102585450D01*
X137641157Y-102412313D01*
X137573898Y-102249131D01*
X137476225Y-102102121D01*
X137351858Y-101976882D01*
X137205533Y-101878185D01*
X137042825Y-101809789D01*
X136869931Y-101774299D01*
X136693436Y-101773067D01*
X136520063Y-101806140D01*
X136356416Y-101872257D01*
X136208728Y-101968902D01*
X136082624Y-102092392D01*
X136064298Y-102119155D01*
X135931806Y-102118311D01*
X135931802Y-102118311D01*
X135818780Y-102117514D01*
X135802977Y-102118950D01*
X135787129Y-102118202D01*
X135749631Y-102123802D01*
X135711880Y-102127235D01*
X135696661Y-102131712D01*
X135680965Y-102134057D01*
X135673530Y-102135979D01*
X135668613Y-102137286D01*
X137679857Y-100484305D01*
X137679999Y-100484187D01*
X137680361Y-100483891D01*
X137705457Y-100463305D01*
X137718943Y-100449836D01*
X137734189Y-100438400D01*
X137741351Y-100431749D01*
X137790951Y-100385050D01*
X137803146Y-100371081D01*
X137817209Y-100358985D01*
X137823912Y-100351871D01*
X137847512Y-100326470D01*
X137847554Y-100326414D01*
X137848304Y-100325616D01*
X139348204Y-98705916D01*
X139348218Y-98705896D01*
X139348451Y-98705649D01*
X139412651Y-98636249D01*
X139449360Y-98587834D01*
X139487140Y-98540185D01*
X139492378Y-98531933D01*
X139592578Y-98371633D01*
X139619621Y-98317175D01*
X139647826Y-98263327D01*
X139651431Y-98254242D01*
X139686031Y-98165242D01*
X139686051Y-98165169D01*
X139686492Y-98164053D01*
X139712243Y-98097454D01*
X139820677Y-98028641D01*
X139948492Y-97906924D01*
X140050232Y-97762699D01*
X140122021Y-97601459D01*
X140161124Y-97429346D01*
X140163939Y-97227750D01*
X140129657Y-97054613D01*
X140062398Y-96891431D01*
X139964725Y-96744421D01*
X139848022Y-96626900D01*
X139140261Y-92811139D01*
X139140244Y-92811082D01*
X139140104Y-92810299D01*
X139130804Y-92760499D01*
X139122563Y-92732092D01*
X139117521Y-92702944D01*
X139114857Y-92693540D01*
X139087057Y-92597940D01*
X139075610Y-92569342D01*
X139067301Y-92539682D01*
X139063695Y-92530597D01*
X139044574Y-92483393D01*
X139044574Y-92483392D01*
X139044495Y-92483197D01*
X138207137Y-90414179D01*
X138241724Y-90261946D01*
X138244539Y-90060350D01*
X138210257Y-89887213D01*
X138142998Y-89724031D01*
X138045325Y-89577021D01*
X137920958Y-89451782D01*
X137774633Y-89353085D01*
X137611925Y-89284689D01*
X137439031Y-89249199D01*
X137262536Y-89247967D01*
X137089163Y-89281040D01*
X136925516Y-89347157D01*
X136777828Y-89443802D01*
X136651724Y-89567292D01*
X136552008Y-89712924D01*
X136482477Y-89875150D01*
X136445781Y-90047793D01*
X136443317Y-90224274D01*
X136475178Y-90397874D01*
X136540152Y-90561979D01*
X136635763Y-90710338D01*
X136758370Y-90837301D01*
X136903302Y-90938031D01*
X136910027Y-90940969D01*
X137746826Y-93008607D01*
X137746830Y-93008616D01*
X137746905Y-93008803D01*
X137752709Y-93023131D01*
X137760921Y-93051373D01*
X137763736Y-93066445D01*
X137763739Y-93066461D01*
X138471227Y-96880745D01*
X138401877Y-97042550D01*
X138365181Y-97215193D01*
X138362717Y-97391674D01*
X138394578Y-97565274D01*
X138405924Y-97593932D01*
X138380936Y-97658554D01*
X138370465Y-97685490D01*
X138340170Y-97733956D01*
X138321061Y-97754613D01*
X138320995Y-97754684D01*
X136821521Y-99373924D01*
X136814211Y-99381791D01*
X136799064Y-99396053D01*
X136791943Y-99401895D01*
X136791909Y-99401928D01*
X136791440Y-99402309D01*
X133721638Y-101925288D01*
X133646936Y-101924767D01*
X133578236Y-101937872D01*
X131909524Y-101000452D01*
X131909441Y-101000405D01*
X131909438Y-101000403D01*
X131652024Y-100855752D01*
X131625092Y-100843910D01*
X131599647Y-100829147D01*
X131562711Y-100816484D01*
X131526962Y-100800766D01*
X131498242Y-100794381D01*
X131470415Y-100784841D01*
X131460889Y-100782655D01*
X130884189Y-100654555D01*
X130855044Y-100651015D01*
X130826491Y-100644253D01*
X130787411Y-100642802D01*
X130748569Y-100638086D01*
X130719294Y-100640275D01*
X130689970Y-100639187D01*
X130680218Y-100639848D01*
X130386036Y-100661839D01*
X130386009Y-100661841D01*
X128455089Y-100805932D01*
X128373033Y-100750585D01*
X128210325Y-100682189D01*
X128037431Y-100646699D01*
X127860936Y-100645467D01*
X127687563Y-100678540D01*
X127523916Y-100744657D01*
X127376228Y-100841302D01*
X127250124Y-100964792D01*
X127150408Y-101110424D01*
X127080877Y-101272650D01*
X127044181Y-101445293D01*
X127041717Y-101621774D01*
X127073578Y-101795374D01*
X127089419Y-101835385D01*
X126746564Y-101831044D01*
X126746560Y-101831044D01*
X126660418Y-101829945D01*
X126643929Y-101831349D01*
X126627400Y-101830515D01*
X126619733Y-101830931D01*
X126443632Y-101841731D01*
X126427058Y-101844388D01*
X126410288Y-101844798D01*
X126402672Y-101845787D01*
X126318455Y-101857320D01*
X126318384Y-101857330D01*
X122277873Y-102407585D01*
X122222558Y-102351882D01*
X122076233Y-102253185D01*
X121913525Y-102184789D01*
X121740631Y-102149299D01*
X121564136Y-102148067D01*
X121390763Y-102181140D01*
X121227116Y-102247257D01*
X121079428Y-102343902D01*
X120953324Y-102467392D01*
X120853608Y-102613024D01*
X120784077Y-102775250D01*
X120747381Y-102947893D01*
X120744917Y-103124374D01*
X120776778Y-103297974D01*
X120800537Y-103357984D01*
X118728435Y-103380326D01*
X118728429Y-103380327D01*
X118682046Y-103380788D01*
X118593365Y-103353907D01*
X118517233Y-103301848D01*
X118460137Y-103229055D01*
X118444015Y-103186309D01*
X118444011Y-103186302D01*
X118443968Y-103186184D01*
X118283800Y-102761826D01*
X118426921Y-102793293D01*
X118603381Y-102796990D01*
X118777199Y-102766341D01*
X118941753Y-102702514D01*
X119090777Y-102607941D01*
X119218592Y-102486224D01*
X119320332Y-102341999D01*
X119392121Y-102180759D01*
X119431224Y-102008646D01*
X119434039Y-101807050D01*
X119399757Y-101633913D01*
X119363846Y-101546787D01*
X119430055Y-101430010D01*
X119430250Y-101429667D01*
X119430250Y-101429665D01*
X119443994Y-101405465D01*
X119480546Y-101362305D01*
X119501921Y-101344948D01*
X119501934Y-101344935D01*
X119502059Y-101344835D01*
X120233401Y-100750524D01*
X120277252Y-100861279D01*
X120372863Y-101009638D01*
X120495470Y-101136601D01*
X120640402Y-101237331D01*
X120802139Y-101307993D01*
X120974521Y-101345893D01*
X121150981Y-101349590D01*
X121324799Y-101318941D01*
X121489353Y-101255114D01*
X121638377Y-101160541D01*
X121766192Y-101038824D01*
X121785600Y-101011310D01*
X124147849Y-101055978D01*
X124159009Y-101056244D01*
X124161183Y-101056082D01*
X124164421Y-101056446D01*
X124168117Y-101056471D01*
X124168260Y-101056487D01*
X124168402Y-101056474D01*
X124172100Y-101056500D01*
X124261800Y-101056500D01*
X124266924Y-101055997D01*
X124272052Y-101056404D01*
X124279729Y-101056208D01*
X126278423Y-100991021D01*
X126278750Y-100991010D01*
X126278829Y-100991008D01*
X126472923Y-100984821D01*
X126494365Y-100982026D01*
X126515982Y-100981753D01*
X126547463Y-100975104D01*
X126579364Y-100970947D01*
X126599848Y-100964042D01*
X126621007Y-100959575D01*
X126628314Y-100957212D01*
X127000014Y-100834112D01*
X127019736Y-100825362D01*
X127040339Y-100818980D01*
X127068677Y-100803649D01*
X127098133Y-100790582D01*
X127115778Y-100778169D01*
X127134751Y-100767906D01*
X127141087Y-100763567D01*
X127301191Y-100652241D01*
X127301586Y-100651967D01*
X127301586Y-100651966D01*
X127314591Y-100642941D01*
X127314610Y-100642924D01*
X127314982Y-100642670D01*
X127357498Y-100613108D01*
X127449779Y-100561187D01*
X127496824Y-100540374D01*
X127496840Y-100540364D01*
X127497155Y-100540228D01*
X130903658Y-99030456D01*
X131056639Y-99097293D01*
X131229021Y-99135193D01*
X131405481Y-99138890D01*
X131579299Y-99108241D01*
X131743853Y-99044414D01*
X131892877Y-98949841D01*
X132020692Y-98828124D01*
X132122432Y-98683899D01*
X132194221Y-98522659D01*
X132233324Y-98350546D01*
X132236139Y-98148950D01*
X132201857Y-97975813D01*
X132185464Y-97936041D01*
X132389623Y-97999681D01*
X132389737Y-97999704D01*
X132394881Y-98001291D01*
X132420481Y-98008991D01*
X132420601Y-98009014D01*
X132425669Y-98010524D01*
X134529419Y-98620795D01*
X134529429Y-98620799D01*
X134536790Y-98622988D01*
X135516990Y-98906888D01*
X135517012Y-98906892D01*
X135517383Y-98907002D01*
X135733084Y-98969302D01*
X135762846Y-98974823D01*
X135792025Y-98982864D01*
X135815493Y-98984589D01*
X135838624Y-98988881D01*
X135868887Y-98988516D01*
X135899077Y-98990737D01*
X135922429Y-98987872D01*
X135945958Y-98987589D01*
X135975581Y-98981351D01*
X136005620Y-98977667D01*
X136013102Y-98975941D01*
X136448602Y-98872241D01*
X136477290Y-98862366D01*
X136506703Y-98854972D01*
X136527909Y-98844942D01*
X136550099Y-98837305D01*
X136576320Y-98822047D01*
X136603740Y-98809080D01*
X136622596Y-98795121D01*
X136642878Y-98783320D01*
X136665639Y-98763257D01*
X136690014Y-98745214D01*
X136695675Y-98740026D01*
X136855022Y-98591893D01*
X136897321Y-98601193D01*
X137073781Y-98604890D01*
X137247599Y-98574241D01*
X137412153Y-98510414D01*
X137561177Y-98415841D01*
X137688992Y-98294124D01*
X137790732Y-98149899D01*
X137862521Y-97988659D01*
X137901624Y-97816546D01*
X137904439Y-97614950D01*
X137870157Y-97441813D01*
X137802898Y-97278631D01*
X137705225Y-97131621D01*
X137580858Y-97006382D01*
X137434533Y-96907685D01*
X137271825Y-96839289D01*
X137098931Y-96803799D01*
X136922436Y-96802567D01*
X136749063Y-96835640D01*
X136585416Y-96901757D01*
X136545268Y-96928029D01*
X136482958Y-96865282D01*
X136336633Y-96766585D01*
X136173925Y-96698189D01*
X136001031Y-96662699D01*
X135956200Y-96662386D01*
X135931257Y-96536413D01*
X135863998Y-96373231D01*
X135766325Y-96226221D01*
X135641958Y-96100982D01*
X135495633Y-96002285D01*
X135493515Y-96001394D01*
X135500121Y-95986559D01*
X135539224Y-95814446D01*
X135542039Y-95612850D01*
X135507757Y-95439713D01*
X135440498Y-95276531D01*
X135342825Y-95129521D01*
X135218458Y-95004282D01*
X135100934Y-94925011D01*
X135143121Y-94830259D01*
X135182224Y-94658146D01*
X135185039Y-94456550D01*
X135150757Y-94283413D01*
X135083498Y-94120231D01*
X134985825Y-93973221D01*
X134861458Y-93847982D01*
X134715133Y-93749285D01*
X134571303Y-93688824D01*
X134055911Y-92196200D01*
X134089632Y-92148399D01*
X134161421Y-91987159D01*
X134200524Y-91815046D01*
X134203339Y-91613450D01*
X134169057Y-91440313D01*
X134101798Y-91277131D01*
X134004125Y-91130121D01*
X133933379Y-91058879D01*
X134013432Y-90945399D01*
X134085221Y-90784159D01*
X134124324Y-90612046D01*
X134127139Y-90410450D01*
X134092857Y-90237313D01*
X134025598Y-90074131D01*
X133927925Y-89927121D01*
X133803558Y-89801882D01*
X133657233Y-89703185D01*
X133494525Y-89634789D01*
X133321631Y-89599299D01*
X133145136Y-89598067D01*
X132971763Y-89631140D01*
X132808116Y-89697257D01*
X132660428Y-89793902D01*
X132534324Y-89917392D01*
X132434608Y-90063024D01*
X132365077Y-90225250D01*
X132331815Y-90381736D01*
X129940798Y-91766932D01*
X129867425Y-91736089D01*
X129694531Y-91700599D01*
X129518036Y-91699367D01*
X129344663Y-91732440D01*
X129181016Y-91798557D01*
X129033328Y-91895202D01*
X128907224Y-92018692D01*
X128847000Y-92106646D01*
X127151049Y-89879857D01*
X127150995Y-89879799D01*
X127150203Y-89878749D01*
X127147317Y-89874980D01*
X127141246Y-89866332D01*
X127138398Y-89861972D01*
X127138164Y-89861613D01*
X127138163Y-89861612D01*
X124153641Y-85284932D01*
X124143352Y-85268483D01*
X120600549Y-79414048D01*
X120600545Y-79414043D01*
X120568562Y-79361100D01*
X120552856Y-79340058D01*
X120539331Y-79317551D01*
X120534709Y-79311419D01*
X120459009Y-79212419D01*
X120441540Y-79193688D01*
X120426078Y-79173269D01*
X120420828Y-79167665D01*
X120377028Y-79121565D01*
X120376459Y-79121073D01*
X120376387Y-79120996D01*
X120371415Y-79115778D01*
X120371260Y-79115585D01*
X120371116Y-79115464D01*
X120358432Y-79102152D01*
X120348177Y-79086839D01*
X120348177Y-75964200D01*
X120348177Y-74464200D01*
X120342242Y-74391177D01*
X120304350Y-74269997D01*
X120234263Y-74164129D01*
X120137506Y-74081918D01*
X120021709Y-74029848D01*
X119896000Y-74012023D01*
X118600051Y-74012023D01*
X118600051Y-70182334D01*
X118600051Y-67082334D01*
X118600051Y-63982334D01*
X118554342Y-63751484D01*
X118464664Y-63533908D01*
X118334433Y-63337895D01*
X118168610Y-63170911D01*
X117973511Y-63039314D01*
X117756567Y-62948120D01*
X117526041Y-62900800D01*
X117290715Y-62899157D01*
X117059551Y-62943253D01*
X116841355Y-63031410D01*
X116644437Y-63160270D01*
X116476299Y-63324923D01*
X116343344Y-63519099D01*
X116287321Y-63649808D01*
X116208875Y-63649261D01*
X116006607Y-63687846D01*
X115815685Y-63764983D01*
X115643382Y-63877735D01*
X115496261Y-64021807D01*
X115379925Y-64191711D01*
X115298807Y-64380975D01*
X115255994Y-64582391D01*
X115253119Y-64788287D01*
X115290291Y-64990820D01*
X115366094Y-65182275D01*
X115477640Y-65355361D01*
X115620681Y-65503485D01*
X115789769Y-65621003D01*
X115978462Y-65703442D01*
X116179574Y-65747659D01*
X116385445Y-65751971D01*
X116588232Y-65716215D01*
X116780212Y-65641750D01*
X116954073Y-65531415D01*
X117103191Y-65389412D01*
X117180112Y-65280369D01*
X117257228Y-65297324D01*
X117492508Y-65302252D01*
X117724265Y-65261387D01*
X117943671Y-65176285D01*
X118142368Y-65050188D01*
X118312789Y-64887898D01*
X118448442Y-64695598D01*
X118544160Y-64480612D01*
X118596298Y-64251128D01*
X118600051Y-63982334D01*
X118600051Y-67082334D01*
X118554342Y-66851484D01*
X118464664Y-66633908D01*
X118334433Y-66437895D01*
X118168610Y-66270911D01*
X117973511Y-66139314D01*
X117756567Y-66048120D01*
X117526041Y-66000800D01*
X117290715Y-65999157D01*
X117059551Y-66043253D01*
X116841355Y-66131410D01*
X116696933Y-66225917D01*
X116616496Y-66192104D01*
X116414786Y-66150699D01*
X116208875Y-66149261D01*
X116006607Y-66187846D01*
X115815685Y-66264983D01*
X115643382Y-66377735D01*
X115496261Y-66521807D01*
X115379925Y-66691711D01*
X115298807Y-66880975D01*
X115255994Y-67082391D01*
X115253119Y-67288287D01*
X115290291Y-67490820D01*
X115366094Y-67682275D01*
X115477640Y-67855361D01*
X115620681Y-68003485D01*
X115789769Y-68121003D01*
X115978462Y-68203442D01*
X116179574Y-68247659D01*
X116385445Y-68251971D01*
X116588232Y-68216215D01*
X116698103Y-68173598D01*
X116811736Y-68252575D01*
X117027385Y-68346790D01*
X117257228Y-68397324D01*
X117492508Y-68402252D01*
X117724265Y-68361387D01*
X117943671Y-68276285D01*
X118142368Y-68150188D01*
X118312789Y-67987898D01*
X118448442Y-67795598D01*
X118544160Y-67580612D01*
X118596298Y-67351128D01*
X118600051Y-67082334D01*
X118600051Y-70182334D01*
X118554342Y-69951484D01*
X118464664Y-69733908D01*
X118334433Y-69537895D01*
X118168610Y-69370911D01*
X117973511Y-69239314D01*
X117756567Y-69148120D01*
X117526041Y-69100800D01*
X117290715Y-69099157D01*
X117180009Y-69120274D01*
X117122129Y-69033158D01*
X116977034Y-68887046D01*
X116806322Y-68771900D01*
X116616496Y-68692104D01*
X116414786Y-68650699D01*
X116208875Y-68649261D01*
X116006607Y-68687846D01*
X115815685Y-68764983D01*
X115643382Y-68877735D01*
X115496261Y-69021807D01*
X115379925Y-69191711D01*
X115298807Y-69380975D01*
X115255994Y-69582391D01*
X115253119Y-69788287D01*
X115290291Y-69990820D01*
X115366094Y-70182275D01*
X115477640Y-70355361D01*
X115620681Y-70503485D01*
X115789769Y-70621003D01*
X115978462Y-70703442D01*
X116179574Y-70747659D01*
X116287447Y-70749918D01*
X116327536Y-70851171D01*
X116455018Y-71048984D01*
X116618493Y-71218267D01*
X116811736Y-71352575D01*
X117027385Y-71446790D01*
X117257228Y-71497324D01*
X117492508Y-71502252D01*
X117724265Y-71461387D01*
X117943671Y-71376285D01*
X118142368Y-71250188D01*
X118312789Y-71087898D01*
X118448442Y-70895598D01*
X118544160Y-70680612D01*
X118596298Y-70451128D01*
X118600051Y-70182334D01*
X118600051Y-74012023D01*
X118396000Y-74012023D01*
X118322977Y-74017958D01*
X118201797Y-74055850D01*
X118095929Y-74125937D01*
X118013718Y-74222694D01*
X117961648Y-74338491D01*
X117943823Y-74464200D01*
X117943823Y-75964200D01*
X117949758Y-76037223D01*
X117987650Y-76158403D01*
X118057737Y-76264271D01*
X118154494Y-76346482D01*
X118270291Y-76398552D01*
X118396000Y-76416377D01*
X119896000Y-76416377D01*
X119969023Y-76410442D01*
X120090203Y-76372550D01*
X120196071Y-76302463D01*
X120278282Y-76205706D01*
X120330352Y-76089909D01*
X120348177Y-75964200D01*
X120348177Y-79086839D01*
X120329760Y-79059339D01*
X120319274Y-79035825D01*
X120319216Y-79035694D01*
X120319214Y-79035690D01*
X120083587Y-78506943D01*
X120194442Y-78349798D01*
X120290160Y-78134812D01*
X120342298Y-77905328D01*
X120346051Y-77636534D01*
X120300342Y-77405684D01*
X120210664Y-77188108D01*
X120080433Y-76992095D01*
X119914610Y-76825111D01*
X119719511Y-76693514D01*
X119502567Y-76602320D01*
X119272041Y-76555000D01*
X119036715Y-76553357D01*
X118805551Y-76597453D01*
X118587355Y-76685610D01*
X118390437Y-76814470D01*
X118222299Y-76979123D01*
X118089344Y-77173299D01*
X117996637Y-77389601D01*
X117947709Y-77619790D01*
X117944423Y-77855099D01*
X117986905Y-78086565D01*
X118073536Y-78305371D01*
X118201018Y-78503184D01*
X118364493Y-78672467D01*
X118557736Y-78806775D01*
X118773385Y-78900990D01*
X119003228Y-78951524D01*
X119078125Y-78953092D01*
X119314525Y-79483574D01*
X119314530Y-79483583D01*
X119314584Y-79483706D01*
X119344284Y-79550306D01*
X119365571Y-79587726D01*
X119385384Y-79625932D01*
X119389612Y-79632342D01*
X119470712Y-79753443D01*
X119498139Y-79786821D01*
X119524255Y-79821207D01*
X119529513Y-79826804D01*
X119580014Y-79879804D01*
X119580560Y-79880275D01*
X119585164Y-79885121D01*
X119585240Y-79885215D01*
X119585307Y-79885271D01*
X119603083Y-79903981D01*
X119642604Y-79955667D01*
X119659238Y-79983200D01*
X119659254Y-79983222D01*
X119659451Y-79983552D01*
X123204351Y-85841452D01*
X123204485Y-85841632D01*
X123204582Y-85841833D01*
X123208609Y-85848372D01*
X123223809Y-85872672D01*
X123224639Y-85873748D01*
X123225252Y-85874967D01*
X123229402Y-85881428D01*
X125042144Y-88661217D01*
X120265979Y-83269122D01*
X120290160Y-83214812D01*
X120342298Y-82985328D01*
X120346051Y-82716534D01*
X120300342Y-82485684D01*
X120210664Y-82268108D01*
X120080433Y-82072095D01*
X119914610Y-81905111D01*
X119719511Y-81773514D01*
X119502567Y-81682320D01*
X119272041Y-81635000D01*
X119036715Y-81633357D01*
X118805551Y-81677453D01*
X118587355Y-81765610D01*
X118390437Y-81894470D01*
X118389295Y-81895588D01*
X118265358Y-81770782D01*
X118119033Y-81672085D01*
X117956325Y-81603689D01*
X117783431Y-81568199D01*
X117606936Y-81566967D01*
X117433563Y-81600040D01*
X117269916Y-81666157D01*
X117122228Y-81762802D01*
X116996124Y-81886292D01*
X116896408Y-82031924D01*
X116826877Y-82194150D01*
X116790181Y-82366793D01*
X116787717Y-82543274D01*
X116819578Y-82716874D01*
X116884552Y-82880979D01*
X116980163Y-83029338D01*
X117102770Y-83156301D01*
X117247702Y-83257031D01*
X117409439Y-83327693D01*
X117505858Y-83348891D01*
X117617013Y-83577484D01*
X117617019Y-83577497D01*
X117617076Y-83577614D01*
X117667219Y-83680797D01*
X117693937Y-83724366D01*
X117720262Y-83768204D01*
X117723269Y-83772197D01*
X117723334Y-83772303D01*
X117723414Y-83772389D01*
X117724882Y-83774339D01*
X117865482Y-83958339D01*
X117900317Y-83995715D01*
X117934748Y-84033372D01*
X117938580Y-84036770D01*
X117938667Y-84036863D01*
X117938764Y-84036933D01*
X117940493Y-84038466D01*
X118026105Y-84113314D01*
X118026275Y-84113463D01*
X118026393Y-84113566D01*
X119151870Y-85098923D01*
X118396000Y-85098923D01*
X118322977Y-85104858D01*
X118201797Y-85142750D01*
X118095929Y-85212837D01*
X118013718Y-85309594D01*
X117961648Y-85425391D01*
X117943823Y-85551100D01*
X117943823Y-85561474D01*
X117836701Y-85301721D01*
X117841232Y-85295299D01*
X117913021Y-85134059D01*
X117952124Y-84961946D01*
X117954939Y-84760350D01*
X117920657Y-84587213D01*
X117853398Y-84424031D01*
X117755725Y-84277021D01*
X117631358Y-84151782D01*
X117485033Y-84053085D01*
X117322325Y-83984689D01*
X117149431Y-83949199D01*
X116972936Y-83947967D01*
X116799563Y-83981040D01*
X116635916Y-84047157D01*
X116488228Y-84143802D01*
X116362124Y-84267292D01*
X116262408Y-84412924D01*
X116192877Y-84575150D01*
X116156181Y-84747793D01*
X116153717Y-84924274D01*
X116185578Y-85097874D01*
X116250552Y-85261979D01*
X116346163Y-85410338D01*
X116468770Y-85537301D01*
X116613702Y-85638031D01*
X116775439Y-85708693D01*
X116818578Y-85718177D01*
X116921952Y-85968841D01*
X116903231Y-85964999D01*
X116726736Y-85963767D01*
X116553363Y-85996840D01*
X116389716Y-86062957D01*
X116242028Y-86159602D01*
X116115924Y-86283092D01*
X116016208Y-86428724D01*
X115946677Y-86590950D01*
X115909981Y-86763593D01*
X115907517Y-86940074D01*
X115939378Y-87113674D01*
X116004352Y-87277779D01*
X116099963Y-87426138D01*
X116222570Y-87553101D01*
X116367502Y-87653831D01*
X116529239Y-87724493D01*
X116653549Y-87751823D01*
X117640876Y-89631644D01*
X117640882Y-89631653D01*
X117640975Y-89631833D01*
X117761575Y-89861233D01*
X117767232Y-89869835D01*
X117771464Y-89879220D01*
X117796681Y-89914613D01*
X117820558Y-89950917D01*
X117827776Y-89958254D01*
X117833752Y-89966641D01*
X117865370Y-89996467D01*
X117895837Y-90027436D01*
X117904342Y-90033231D01*
X117911834Y-90040298D01*
X117917940Y-90044955D01*
X118330640Y-90355154D01*
X118339303Y-90360427D01*
X118347028Y-90367007D01*
X118385089Y-90388298D01*
X118422330Y-90410968D01*
X118431666Y-90414390D01*
X118390437Y-90441370D01*
X118222299Y-90606023D01*
X118089344Y-90800199D01*
X117996637Y-91016501D01*
X117947709Y-91246690D01*
X117944423Y-91481999D01*
X117986905Y-91713465D01*
X118073536Y-91932271D01*
X118201018Y-92130084D01*
X118364493Y-92299367D01*
X118557736Y-92433675D01*
X118773385Y-92527890D01*
X119003228Y-92578424D01*
X119238508Y-92583352D01*
X119470265Y-92542487D01*
X119689671Y-92457385D01*
X119888368Y-92331288D01*
X120058789Y-92168998D01*
X120194442Y-91976698D01*
X120290160Y-91761712D01*
X120342298Y-91532228D01*
X120346051Y-91263434D01*
X120300342Y-91032584D01*
X120210664Y-90815008D01*
X120195690Y-90792470D01*
X124059762Y-91586736D01*
X124059768Y-91586736D01*
X124060010Y-91586788D01*
X124107199Y-91596465D01*
X124190816Y-91644578D01*
X124223214Y-91680862D01*
X124223274Y-91680930D01*
X127062172Y-94863290D01*
X127062419Y-94863568D01*
X127062474Y-94863629D01*
X127239670Y-95062595D01*
X126484833Y-94809361D01*
X126484795Y-94809352D01*
X126484353Y-94809201D01*
X126425154Y-94789401D01*
X126389865Y-94781323D01*
X126355163Y-94771012D01*
X126347614Y-94769606D01*
X126224714Y-94747606D01*
X126188405Y-94744717D01*
X126152348Y-94739548D01*
X126144674Y-94739259D01*
X126083047Y-94737367D01*
X126083011Y-94737366D01*
X119127395Y-94520868D01*
X119127379Y-94520868D01*
X119082086Y-94519452D01*
X118994513Y-94503468D01*
X118951824Y-94488908D01*
X118951783Y-94488894D01*
X117964440Y-94151214D01*
X117908598Y-94015731D01*
X117810925Y-93868721D01*
X117686558Y-93743482D01*
X117540233Y-93644785D01*
X117377525Y-93576389D01*
X117204631Y-93540899D01*
X117028136Y-93539667D01*
X116854763Y-93572740D01*
X116810000Y-93590825D01*
X116810000Y-93159532D01*
X116790955Y-92965298D01*
X116734546Y-92778462D01*
X116642921Y-92606140D01*
X116519571Y-92454898D01*
X116369193Y-92330494D01*
X116360000Y-92325523D01*
X116360000Y-91252177D01*
X116500000Y-91252177D01*
X116573023Y-91246242D01*
X116694203Y-91208350D01*
X116800071Y-91138263D01*
X116882282Y-91041506D01*
X116934352Y-90925709D01*
X116952177Y-90800000D01*
X116952177Y-89720000D01*
X116946242Y-89646977D01*
X116908350Y-89525797D01*
X116838263Y-89419929D01*
X116741506Y-89337718D01*
X116625709Y-89285648D01*
X116500000Y-89267823D01*
X115500000Y-89267823D01*
X115426977Y-89273758D01*
X115305797Y-89311650D01*
X115199929Y-89381737D01*
X115117718Y-89478494D01*
X115065648Y-89594291D01*
X115047823Y-89720000D01*
X115047823Y-90800000D01*
X115053758Y-90873023D01*
X115091650Y-90994203D01*
X115161737Y-91100071D01*
X115258494Y-91182282D01*
X115260000Y-91182959D01*
X115260000Y-92324727D01*
X115110337Y-92445059D01*
X114984887Y-92594565D01*
X114890865Y-92765590D01*
X114831852Y-92951620D01*
X114810097Y-93145570D01*
X114810000Y-93159532D01*
X114810000Y-94676468D01*
X114829045Y-94870702D01*
X114885454Y-95057538D01*
X114977079Y-95229860D01*
X115100429Y-95381102D01*
X115250807Y-95505506D01*
X115315240Y-95540344D01*
X115478506Y-98066128D01*
X114123622Y-95189576D01*
X114189135Y-95070410D01*
X114248148Y-94884380D01*
X114269903Y-94690430D01*
X114270000Y-94676468D01*
X114270000Y-93159532D01*
X114250955Y-92965298D01*
X114194546Y-92778462D01*
X114102921Y-92606140D01*
X113979571Y-92454898D01*
X113829193Y-92330494D01*
X113820000Y-92325523D01*
X113820000Y-91252177D01*
X113900000Y-91252177D01*
X113973023Y-91246242D01*
X114094203Y-91208350D01*
X114200071Y-91138263D01*
X114282282Y-91041506D01*
X114334352Y-90925709D01*
X114352177Y-90800000D01*
X114352177Y-89720000D01*
X114346242Y-89646977D01*
X114308350Y-89525797D01*
X114238263Y-89419929D01*
X114141506Y-89337718D01*
X114025709Y-89285648D01*
X113900000Y-89267823D01*
X112900000Y-89267823D01*
X112826977Y-89273758D01*
X112705797Y-89311650D01*
X112599929Y-89381737D01*
X112517718Y-89478494D01*
X112465648Y-89594291D01*
X112447823Y-89720000D01*
X112447823Y-90800000D01*
X112453758Y-90873023D01*
X112491650Y-90994203D01*
X112561737Y-91100071D01*
X112658494Y-91182282D01*
X112720000Y-91209939D01*
X112720000Y-92324727D01*
X112570337Y-92445059D01*
X112444887Y-92594565D01*
X112350865Y-92765590D01*
X112291852Y-92951620D01*
X112270097Y-93145570D01*
X112270000Y-93159532D01*
X112270000Y-94676468D01*
X112289045Y-94870702D01*
X112345454Y-95057538D01*
X112437079Y-95229860D01*
X112560429Y-95381102D01*
X112710807Y-95505506D01*
X112882484Y-95598331D01*
X113068922Y-95656043D01*
X113130470Y-95662512D01*
X115263987Y-100192179D01*
X114679524Y-99607716D01*
X114623692Y-99560278D01*
X114511211Y-99501385D01*
X114386792Y-99476084D01*
X114260243Y-99486370D01*
X114141542Y-99531431D01*
X114040048Y-99607716D01*
X113255181Y-100392582D01*
X111519882Y-95283421D01*
X111555113Y-95241435D01*
X111649135Y-95070410D01*
X111708148Y-94884380D01*
X111729903Y-94690430D01*
X111730000Y-94676468D01*
X111730000Y-93159532D01*
X111710955Y-92965298D01*
X111654546Y-92778462D01*
X111562921Y-92606140D01*
X111439571Y-92454898D01*
X111289193Y-92330494D01*
X111280000Y-92325523D01*
X111280000Y-91252177D01*
X111300000Y-91252177D01*
X111373023Y-91246242D01*
X111494203Y-91208350D01*
X111600071Y-91138263D01*
X111682282Y-91041506D01*
X111734352Y-90925709D01*
X111752177Y-90800000D01*
X111752177Y-89720000D01*
X111746242Y-89646977D01*
X111708350Y-89525797D01*
X111638263Y-89419929D01*
X111541506Y-89337718D01*
X111425709Y-89285648D01*
X111300000Y-89267823D01*
X110300000Y-89267823D01*
X110226977Y-89273758D01*
X110105797Y-89311650D01*
X109999929Y-89381737D01*
X109917718Y-89478494D01*
X109865648Y-89594291D01*
X109847823Y-89720000D01*
X109847823Y-90800000D01*
X109853758Y-90873023D01*
X109891650Y-90994203D01*
X109961737Y-91100071D01*
X110058494Y-91182282D01*
X110174291Y-91234352D01*
X110180000Y-91235161D01*
X110180000Y-92324727D01*
X110030337Y-92445059D01*
X109904887Y-92594565D01*
X109810865Y-92765590D01*
X109751852Y-92951620D01*
X109730097Y-93145570D01*
X109730000Y-93159532D01*
X109730000Y-94676468D01*
X109749045Y-94870702D01*
X109805454Y-95057538D01*
X109897079Y-95229860D01*
X110020429Y-95381102D01*
X110170807Y-95505506D01*
X110342484Y-95598331D01*
X110479533Y-95640754D01*
X111629624Y-99026917D01*
X109104946Y-95078028D01*
X109109135Y-95070410D01*
X109168148Y-94884380D01*
X109189903Y-94690430D01*
X109190000Y-94676468D01*
X109190000Y-93159532D01*
X109170955Y-92965298D01*
X109114546Y-92778462D01*
X109022921Y-92606140D01*
X108899571Y-92454898D01*
X108749193Y-92330494D01*
X108740000Y-92325523D01*
X108740000Y-91248925D01*
X108773023Y-91246242D01*
X108894203Y-91208350D01*
X109000071Y-91138263D01*
X109082282Y-91041506D01*
X109134352Y-90925709D01*
X109152177Y-90800000D01*
X109152177Y-89720000D01*
X109146242Y-89646977D01*
X109108350Y-89525797D01*
X109038263Y-89419929D01*
X108941506Y-89337718D01*
X108825709Y-89285648D01*
X108700000Y-89267823D01*
X107700000Y-89267823D01*
X107626977Y-89273758D01*
X107505797Y-89311650D01*
X107399929Y-89381737D01*
X107317718Y-89478494D01*
X107265648Y-89594291D01*
X107247823Y-89720000D01*
X107247823Y-90800000D01*
X107253758Y-90873023D01*
X107291650Y-90994203D01*
X107361737Y-91100071D01*
X107458494Y-91182282D01*
X107574291Y-91234352D01*
X107640000Y-91243669D01*
X107640000Y-92324727D01*
X107490337Y-92445059D01*
X107364887Y-92594565D01*
X107270865Y-92765590D01*
X107211852Y-92951620D01*
X107190097Y-93145570D01*
X107190000Y-93159532D01*
X107190000Y-93974325D01*
X107036482Y-93675612D01*
X105476427Y-88235055D01*
X105002827Y-82595097D01*
X105633720Y-76970561D01*
X107345075Y-71575685D01*
X109462685Y-67723766D01*
X109473536Y-67751171D01*
X109601018Y-67948984D01*
X109764493Y-68118267D01*
X109847823Y-68176183D01*
X109847823Y-69200000D01*
X109853758Y-69273023D01*
X109891650Y-69394203D01*
X109961737Y-69500071D01*
X110058494Y-69582282D01*
X110174291Y-69634352D01*
X110300000Y-69652177D01*
X111500000Y-69652177D01*
X111573023Y-69646242D01*
X111694203Y-69608350D01*
X111800071Y-69538263D01*
X111802844Y-69534998D01*
X111858494Y-69582282D01*
X111974291Y-69634352D01*
X112100000Y-69652177D01*
X113300000Y-69652177D01*
X113373023Y-69646242D01*
X113494203Y-69608350D01*
X113600071Y-69538263D01*
X113682282Y-69441506D01*
X113734352Y-69325709D01*
X113752177Y-69200000D01*
X113752177Y-68402177D01*
X113836000Y-68402177D01*
X113909023Y-68396242D01*
X114030203Y-68358350D01*
X114136071Y-68288263D01*
X114218282Y-68191506D01*
X114270352Y-68075709D01*
X114288177Y-67950000D01*
X114288177Y-66450000D01*
X114282242Y-66376977D01*
X114244350Y-66255797D01*
X114174263Y-66149929D01*
X114077506Y-66067718D01*
X113961709Y-66015648D01*
X113836000Y-65997823D01*
X112336000Y-65997823D01*
X112262977Y-66003758D01*
X112141797Y-66041650D01*
X112035929Y-66111737D01*
X111953718Y-66208494D01*
X111901648Y-66324291D01*
X111883823Y-66450000D01*
X111883823Y-67206197D01*
X111799929Y-67261737D01*
X111797155Y-67265001D01*
X111744129Y-67219947D01*
X111746051Y-67082334D01*
X111700342Y-66851484D01*
X111610664Y-66633908D01*
X111480433Y-66437895D01*
X111314610Y-66270911D01*
X111119511Y-66139314D01*
X110902567Y-66048120D01*
X110672041Y-66000800D01*
X110588377Y-66000215D01*
X113709763Y-62280292D01*
X118120667Y-58733835D01*
X123136409Y-56111668D01*
X128565942Y-54513670D01*
X134160873Y-54004491D01*
X134149929Y-54011737D01*
X134067718Y-54108494D01*
X134015648Y-54224291D01*
X133997823Y-54350000D01*
X133997823Y-55850000D01*
X134003758Y-55923023D01*
X134041650Y-56044203D01*
X134111737Y-56150071D01*
X134208494Y-56232282D01*
X134324291Y-56284352D01*
X134450000Y-56302177D01*
X135950000Y-56302177D01*
X136023023Y-56296242D01*
X136144203Y-56258350D01*
X136250071Y-56188263D01*
X136332282Y-56091506D01*
X136384352Y-55975709D01*
X136402177Y-55850000D01*
X136402177Y-54350000D01*
X136396242Y-54276977D01*
X136381468Y-54229730D01*
X139831260Y-54592318D01*
X145237952Y-56265969D01*
X146600000Y-57002425D01*
X146600000Y-108970094D01*
M02*
