G04 #@! TF.FileFunction,Legend,Top*
%FSLAX46Y46*%
G04 Gerber Fmt 4.6, Leading zero omitted, Abs format (unit mm)*
G04 Created by KiCad (PCBNEW 4.0.1-stable) date 20.01.2016 16:11:56*
%MOMM*%
G01*
G04 APERTURE LIST*
%ADD10C,0.100000*%
%ADD11C,0.200000*%
%ADD12C,0.150000*%
%ADD13C,0.149860*%
%ADD14C,0.127000*%
G04 APERTURE END LIST*
D10*
D11*
X133100000Y-68800000D02*
X130300000Y-70500000D01*
X130000000Y-76400000D02*
X130000000Y-74500000D01*
X133700000Y-67900000D02*
X133100000Y-68800000D01*
X133700000Y-66600000D02*
X133700000Y-67900000D01*
X136800000Y-66600000D02*
X133700000Y-66600000D01*
X136800000Y-65400000D02*
X136800000Y-66600000D01*
X137300000Y-65400000D02*
X136800000Y-65400000D01*
X137300000Y-65400000D02*
X137300000Y-55100000D01*
X131000000Y-76400000D02*
X130000000Y-76400000D01*
X131000000Y-79000000D02*
X131000000Y-76400000D01*
X123400000Y-78400000D02*
X123400000Y-65700000D01*
X123400000Y-65700000D02*
X122400000Y-65700000D01*
X122400000Y-65800000D02*
X122400000Y-59600000D01*
X124300000Y-78400000D02*
X125600000Y-78400000D01*
X131000000Y-82600000D02*
X123400000Y-82600000D01*
X131000000Y-87000000D02*
X131000000Y-82600000D01*
X123400000Y-92200000D02*
X123400000Y-78400000D01*
X105000000Y-78400000D02*
X124300000Y-78400000D01*
X113500000Y-91800000D02*
X114600000Y-91800000D01*
X111100000Y-93500000D02*
X113500000Y-91800000D01*
X107500000Y-95600000D02*
X111100000Y-93500000D01*
D10*
X114600000Y-86300000D02*
X114100000Y-86300000D01*
D11*
X114600000Y-92800000D02*
X114600000Y-86300000D01*
X115600000Y-94300000D02*
X114600000Y-92800000D01*
X122600000Y-94300000D02*
X115600000Y-94300000D01*
D10*
X134000000Y-68300000D02*
X133900000Y-68700000D01*
X134000000Y-68300000D02*
X133600000Y-68400000D01*
X132700000Y-69600000D02*
X134000000Y-68300000D01*
X128800000Y-71700000D02*
X132700000Y-69600000D01*
X128800000Y-74100000D02*
X128800000Y-71700000D01*
D11*
X130500000Y-72100000D02*
G75*
G03X130500000Y-72100000I-6500000J0D01*
G01*
D12*
X146338095Y-89019047D02*
X146300000Y-89095238D01*
X146223810Y-89171428D01*
X146109524Y-89285714D01*
X146071429Y-89361905D01*
X146071429Y-89438095D01*
X146261905Y-89400000D02*
X146223810Y-89476190D01*
X146147619Y-89552381D01*
X145995238Y-89590476D01*
X145728571Y-89590476D01*
X145576190Y-89552381D01*
X145500000Y-89476190D01*
X145461905Y-89400000D01*
X145461905Y-89247619D01*
X145500000Y-89171428D01*
X145576190Y-89095238D01*
X145728571Y-89057143D01*
X145995238Y-89057143D01*
X146147619Y-89095238D01*
X146223810Y-89171428D01*
X146261905Y-89247619D01*
X146261905Y-89400000D01*
X145728571Y-88371429D02*
X146261905Y-88371429D01*
X145728571Y-88714286D02*
X146147619Y-88714286D01*
X146223810Y-88676191D01*
X146261905Y-88600000D01*
X146261905Y-88485714D01*
X146223810Y-88409524D01*
X146185714Y-88371429D01*
X146261905Y-87647619D02*
X145842857Y-87647619D01*
X145766667Y-87685714D01*
X145728571Y-87761904D01*
X145728571Y-87914285D01*
X145766667Y-87990476D01*
X146223810Y-87647619D02*
X146261905Y-87723809D01*
X146261905Y-87914285D01*
X146223810Y-87990476D01*
X146147619Y-88028571D01*
X146071429Y-88028571D01*
X145995238Y-87990476D01*
X145957143Y-87914285D01*
X145957143Y-87723809D01*
X145919048Y-87647619D01*
X146261905Y-87266666D02*
X145728571Y-87266666D01*
X145880952Y-87266666D02*
X145804762Y-87228571D01*
X145766667Y-87190475D01*
X145728571Y-87114285D01*
X145728571Y-87038094D01*
X145728571Y-86885714D02*
X145728571Y-86580952D01*
X145461905Y-86771428D02*
X146147619Y-86771428D01*
X146223810Y-86733333D01*
X146261905Y-86657142D01*
X146261905Y-86580952D01*
X145728571Y-86390475D02*
X145728571Y-85971428D01*
X146261905Y-86390475D01*
X146261905Y-85971428D01*
D11*
X146500000Y-85700000D02*
X144500000Y-85700000D01*
X146500000Y-100000000D02*
X146500000Y-85700000D01*
X146100000Y-100000000D02*
X146500000Y-100000000D01*
X140400000Y-100000000D02*
X146100000Y-100000000D01*
X140400000Y-98600000D02*
X140400000Y-100000000D01*
X138600000Y-96800000D02*
X140400000Y-98600000D01*
X138600000Y-95500000D02*
X138600000Y-96800000D01*
X137800000Y-94700000D02*
X138600000Y-95500000D01*
X137800000Y-93200000D02*
X137800000Y-94700000D01*
X137900000Y-93200000D02*
X137800000Y-93200000D01*
X138800000Y-93200000D02*
X137900000Y-93200000D01*
X138800000Y-90800000D02*
X138800000Y-93200000D01*
X141400000Y-90800000D02*
X138800000Y-90800000D01*
X141400000Y-85700000D02*
X141400000Y-90800000D01*
X144500000Y-85700000D02*
X141400000Y-85700000D01*
X135500000Y-100500000D02*
X146800000Y-100500000D01*
X135500000Y-98400000D02*
X135500000Y-100500000D01*
X128400000Y-98400000D02*
X135500000Y-98400000D01*
X125509524Y-99352381D02*
X125700000Y-99352381D01*
X125795239Y-99304762D01*
X125842858Y-99257143D01*
X125938096Y-99114286D01*
X125985715Y-98923810D01*
X125985715Y-98542857D01*
X125938096Y-98447619D01*
X125890477Y-98400000D01*
X125795239Y-98352381D01*
X125604762Y-98352381D01*
X125509524Y-98400000D01*
X125461905Y-98447619D01*
X125414286Y-98542857D01*
X125414286Y-98780952D01*
X125461905Y-98876190D01*
X125509524Y-98923810D01*
X125604762Y-98971429D01*
X125795239Y-98971429D01*
X125890477Y-98923810D01*
X125938096Y-98876190D01*
X125985715Y-98780952D01*
X126414286Y-99352381D02*
X126414286Y-98352381D01*
X126652381Y-98352381D01*
X126795239Y-98400000D01*
X126890477Y-98495238D01*
X126938096Y-98590476D01*
X126985715Y-98780952D01*
X126985715Y-98923810D01*
X126938096Y-99114286D01*
X126890477Y-99209524D01*
X126795239Y-99304762D01*
X126652381Y-99352381D01*
X126414286Y-99352381D01*
X128400000Y-102200000D02*
X128500000Y-102200000D01*
X128400000Y-98000000D02*
X128400000Y-102200000D01*
X124300000Y-98000000D02*
X128400000Y-98000000D01*
X124300000Y-94300000D02*
X124300000Y-98000000D01*
X122600000Y-94300000D02*
X124300000Y-94300000D01*
X123400000Y-92200000D02*
X123400000Y-94300000D01*
X106752381Y-90557143D02*
X105752381Y-90557143D01*
X106752381Y-89509524D02*
X106276190Y-89842858D01*
X106752381Y-90080953D02*
X105752381Y-90080953D01*
X105752381Y-89700000D01*
X105800000Y-89604762D01*
X105847619Y-89557143D01*
X105942857Y-89509524D01*
X106085714Y-89509524D01*
X106180952Y-89557143D01*
X106228571Y-89604762D01*
X106276190Y-89700000D01*
X106276190Y-90080953D01*
X106752381Y-87747619D02*
X106276190Y-88080953D01*
X106752381Y-88319048D02*
X105752381Y-88319048D01*
X105752381Y-87938095D01*
X105800000Y-87842857D01*
X105847619Y-87795238D01*
X105942857Y-87747619D01*
X106085714Y-87747619D01*
X106180952Y-87795238D01*
X106228571Y-87842857D01*
X106276190Y-87938095D01*
X106276190Y-88319048D01*
X105752381Y-87414286D02*
X106752381Y-86747619D01*
X105752381Y-86747619D02*
X106752381Y-87414286D01*
X118461905Y-81952381D02*
X118461905Y-80952381D01*
X119509524Y-81952381D02*
X119176190Y-81476190D01*
X118938095Y-81952381D02*
X118938095Y-80952381D01*
X119319048Y-80952381D01*
X119414286Y-81000000D01*
X119461905Y-81047619D01*
X119509524Y-81142857D01*
X119509524Y-81285714D01*
X119461905Y-81380952D01*
X119414286Y-81428571D01*
X119319048Y-81476190D01*
X118938095Y-81476190D01*
X121176191Y-81952381D02*
X120700000Y-81952381D01*
X120700000Y-80952381D01*
X121509524Y-81428571D02*
X121842858Y-81428571D01*
X121985715Y-81952381D02*
X121509524Y-81952381D01*
X121509524Y-80952381D01*
X121985715Y-80952381D01*
X122414286Y-81952381D02*
X122414286Y-80952381D01*
X122652381Y-80952381D01*
X122795239Y-81000000D01*
X122890477Y-81095238D01*
X122938096Y-81190476D01*
X122985715Y-81380952D01*
X122985715Y-81523810D01*
X122938096Y-81714286D01*
X122890477Y-81809524D01*
X122795239Y-81904762D01*
X122652381Y-81952381D01*
X122414286Y-81952381D01*
X136800000Y-87000000D02*
X136800000Y-84200000D01*
X131000000Y-87000000D02*
X136800000Y-87000000D01*
X136800000Y-84200000D02*
X146800000Y-84200000D01*
X136800000Y-79000000D02*
X136800000Y-84200000D01*
X131000000Y-79000000D02*
X136800000Y-79000000D01*
X134000000Y-83000000D02*
X134000000Y-83750000D01*
X134000000Y-83000000D02*
X133250000Y-83000000D01*
X134000000Y-83000000D02*
X134750000Y-83000000D01*
X134000000Y-83000000D02*
X134000000Y-82250000D01*
X123942857Y-83952381D02*
X123942857Y-82952381D01*
X124276191Y-83666667D01*
X124609524Y-82952381D01*
X124609524Y-83952381D01*
X125657143Y-83857143D02*
X125609524Y-83904762D01*
X125466667Y-83952381D01*
X125371429Y-83952381D01*
X125228571Y-83904762D01*
X125133333Y-83809524D01*
X125085714Y-83714286D01*
X125038095Y-83523810D01*
X125038095Y-83380952D01*
X125085714Y-83190476D01*
X125133333Y-83095238D01*
X125228571Y-83000000D01*
X125371429Y-82952381D01*
X125466667Y-82952381D01*
X125609524Y-83000000D01*
X125657143Y-83047619D01*
X126085714Y-82952381D02*
X126085714Y-83761905D01*
X126133333Y-83857143D01*
X126180952Y-83904762D01*
X126276190Y-83952381D01*
X126466667Y-83952381D01*
X126561905Y-83904762D01*
X126609524Y-83857143D01*
X126657143Y-83761905D01*
X126657143Y-82952381D01*
X128804762Y-107052381D02*
X128804762Y-107861905D01*
X128852381Y-107957143D01*
X128900000Y-108004762D01*
X128995238Y-108052381D01*
X129185715Y-108052381D01*
X129280953Y-108004762D01*
X129328572Y-107957143D01*
X129376191Y-107861905D01*
X129376191Y-107052381D01*
X129804762Y-107766667D02*
X130280953Y-107766667D01*
X129709524Y-108052381D02*
X130042857Y-107052381D01*
X130376191Y-108052381D01*
X131280953Y-108052381D02*
X130947619Y-107576190D01*
X130709524Y-108052381D02*
X130709524Y-107052381D01*
X131090477Y-107052381D01*
X131185715Y-107100000D01*
X131233334Y-107147619D01*
X131280953Y-107242857D01*
X131280953Y-107385714D01*
X131233334Y-107480952D01*
X131185715Y-107528571D01*
X131090477Y-107576190D01*
X130709524Y-107576190D01*
X131566667Y-107052381D02*
X132138096Y-107052381D01*
X131852381Y-108052381D02*
X131852381Y-107052381D01*
X135542857Y-108004762D02*
X135685714Y-108052381D01*
X135923810Y-108052381D01*
X136019048Y-108004762D01*
X136066667Y-107957143D01*
X136114286Y-107861905D01*
X136114286Y-107766667D01*
X136066667Y-107671429D01*
X136019048Y-107623810D01*
X135923810Y-107576190D01*
X135733333Y-107528571D01*
X135638095Y-107480952D01*
X135590476Y-107433333D01*
X135542857Y-107338095D01*
X135542857Y-107242857D01*
X135590476Y-107147619D01*
X135638095Y-107100000D01*
X135733333Y-107052381D01*
X135971429Y-107052381D01*
X136114286Y-107100000D01*
X136447619Y-107052381D02*
X136685714Y-108052381D01*
X136876191Y-107338095D01*
X137066667Y-108052381D01*
X137304762Y-107052381D01*
X137685714Y-108052381D02*
X137685714Y-107052381D01*
X137923809Y-107052381D01*
X138066667Y-107100000D01*
X138161905Y-107195238D01*
X138209524Y-107290476D01*
X138257143Y-107480952D01*
X138257143Y-107623810D01*
X138209524Y-107814286D01*
X138161905Y-107909524D01*
X138066667Y-108004762D01*
X137923809Y-108052381D01*
X137685714Y-108052381D01*
X118852381Y-73785714D02*
X119852381Y-73452381D01*
X118852381Y-73119047D01*
X119852381Y-72785714D02*
X119185714Y-72785714D01*
X118852381Y-72785714D02*
X118900000Y-72833333D01*
X118947619Y-72785714D01*
X118900000Y-72738095D01*
X118852381Y-72785714D01*
X118947619Y-72785714D01*
X119852381Y-72309524D02*
X118852381Y-72309524D01*
X119233333Y-72309524D02*
X119185714Y-72214286D01*
X119185714Y-72023809D01*
X119233333Y-71928571D01*
X119280952Y-71880952D01*
X119376190Y-71833333D01*
X119661905Y-71833333D01*
X119757143Y-71880952D01*
X119804762Y-71928571D01*
X119852381Y-72023809D01*
X119852381Y-72214286D01*
X119804762Y-72309524D01*
X119852381Y-71404762D02*
X119185714Y-71404762D01*
X119376190Y-71404762D02*
X119280952Y-71357143D01*
X119233333Y-71309524D01*
X119185714Y-71214286D01*
X119185714Y-71119047D01*
X119852381Y-70642857D02*
X119804762Y-70738095D01*
X119757143Y-70785714D01*
X119661905Y-70833333D01*
X119376190Y-70833333D01*
X119280952Y-70785714D01*
X119233333Y-70738095D01*
X119185714Y-70642857D01*
X119185714Y-70499999D01*
X119233333Y-70404761D01*
X119280952Y-70357142D01*
X119376190Y-70309523D01*
X119661905Y-70309523D01*
X119757143Y-70357142D01*
X119804762Y-70404761D01*
X119852381Y-70499999D01*
X119852381Y-70642857D01*
X130776190Y-100352381D02*
X130776190Y-99352381D01*
X131157143Y-99352381D01*
X131252381Y-99400000D01*
X131300000Y-99447619D01*
X131347619Y-99542857D01*
X131347619Y-99685714D01*
X131300000Y-99780952D01*
X131252381Y-99828571D01*
X131157143Y-99876190D01*
X130776190Y-99876190D01*
X131776190Y-100352381D02*
X131776190Y-99685714D01*
X131776190Y-99352381D02*
X131728571Y-99400000D01*
X131776190Y-99447619D01*
X131823809Y-99400000D01*
X131776190Y-99352381D01*
X131776190Y-99447619D01*
X132395237Y-100352381D02*
X132299999Y-100304762D01*
X132252380Y-100209524D01*
X132252380Y-99352381D01*
X132919047Y-100352381D02*
X132823809Y-100304762D01*
X132776190Y-100209524D01*
X132776190Y-99352381D01*
X139114286Y-57452381D02*
X138780952Y-56976190D01*
X138542857Y-57452381D02*
X138542857Y-56452381D01*
X138923810Y-56452381D01*
X139019048Y-56500000D01*
X139066667Y-56547619D01*
X139114286Y-56642857D01*
X139114286Y-56785714D01*
X139066667Y-56880952D01*
X139019048Y-56928571D01*
X138923810Y-56976190D01*
X138542857Y-56976190D01*
X139971429Y-57452381D02*
X139971429Y-56928571D01*
X139923810Y-56833333D01*
X139828572Y-56785714D01*
X139638095Y-56785714D01*
X139542857Y-56833333D01*
X139971429Y-57404762D02*
X139876191Y-57452381D01*
X139638095Y-57452381D01*
X139542857Y-57404762D01*
X139495238Y-57309524D01*
X139495238Y-57214286D01*
X139542857Y-57119048D01*
X139638095Y-57071429D01*
X139876191Y-57071429D01*
X139971429Y-57023810D01*
X140876191Y-57452381D02*
X140876191Y-56452381D01*
X140876191Y-57404762D02*
X140780953Y-57452381D01*
X140590476Y-57452381D01*
X140495238Y-57404762D01*
X140447619Y-57357143D01*
X140400000Y-57261905D01*
X140400000Y-56976190D01*
X140447619Y-56880952D01*
X140495238Y-56833333D01*
X140590476Y-56785714D01*
X140780953Y-56785714D01*
X140876191Y-56833333D01*
X141352381Y-57452381D02*
X141352381Y-56785714D01*
X141352381Y-56452381D02*
X141304762Y-56500000D01*
X141352381Y-56547619D01*
X141400000Y-56500000D01*
X141352381Y-56452381D01*
X141352381Y-56547619D01*
X141971428Y-57452381D02*
X141876190Y-57404762D01*
X141828571Y-57357143D01*
X141780952Y-57261905D01*
X141780952Y-56976190D01*
X141828571Y-56880952D01*
X141876190Y-56833333D01*
X141971428Y-56785714D01*
X142114286Y-56785714D01*
X142209524Y-56833333D01*
X142257143Y-56880952D01*
X142304762Y-56976190D01*
X142304762Y-57261905D01*
X142257143Y-57357143D01*
X142209524Y-57404762D01*
X142114286Y-57452381D01*
X141971428Y-57452381D01*
X125271429Y-57452381D02*
X124938095Y-56976190D01*
X124700000Y-57452381D02*
X124700000Y-56452381D01*
X125080953Y-56452381D01*
X125176191Y-56500000D01*
X125223810Y-56547619D01*
X125271429Y-56642857D01*
X125271429Y-56785714D01*
X125223810Y-56880952D01*
X125176191Y-56928571D01*
X125080953Y-56976190D01*
X124700000Y-56976190D01*
X126223810Y-56500000D02*
X126128572Y-56452381D01*
X125985715Y-56452381D01*
X125842857Y-56500000D01*
X125747619Y-56595238D01*
X125700000Y-56690476D01*
X125652381Y-56880952D01*
X125652381Y-57023810D01*
X125700000Y-57214286D01*
X125747619Y-57309524D01*
X125842857Y-57404762D01*
X125985715Y-57452381D01*
X126080953Y-57452381D01*
X126223810Y-57404762D01*
X126271429Y-57357143D01*
X126271429Y-57023810D01*
X126080953Y-57023810D01*
X127033334Y-56928571D02*
X127176191Y-56976190D01*
X127223810Y-57023810D01*
X127271429Y-57119048D01*
X127271429Y-57261905D01*
X127223810Y-57357143D01*
X127176191Y-57404762D01*
X127080953Y-57452381D01*
X126700000Y-57452381D01*
X126700000Y-56452381D01*
X127033334Y-56452381D01*
X127128572Y-56500000D01*
X127176191Y-56547619D01*
X127223810Y-56642857D01*
X127223810Y-56738095D01*
X127176191Y-56833333D01*
X127128572Y-56880952D01*
X127033334Y-56928571D01*
X126700000Y-56928571D01*
X128938096Y-57452381D02*
X128461905Y-57452381D01*
X128461905Y-56452381D01*
X129271429Y-56928571D02*
X129604763Y-56928571D01*
X129747620Y-57452381D02*
X129271429Y-57452381D01*
X129271429Y-56452381D01*
X129747620Y-56452381D01*
X130176191Y-57452381D02*
X130176191Y-56452381D01*
X130414286Y-56452381D01*
X130557144Y-56500000D01*
X130652382Y-56595238D01*
X130700001Y-56690476D01*
X130747620Y-56880952D01*
X130747620Y-57023810D01*
X130700001Y-57214286D01*
X130652382Y-57309524D01*
X130557144Y-57404762D01*
X130414286Y-57452381D01*
X130176191Y-57452381D01*
D12*
X147000000Y-57000000D02*
X147000000Y-109000000D01*
X133500000Y-83500000D02*
X134000000Y-83000000D01*
X133500000Y-82500000D02*
X134000000Y-83000000D01*
D13*
X136199640Y-83000000D02*
G75*
G03X136199640Y-83000000I-2199640J0D01*
G01*
X136499360Y-85499360D02*
X131500640Y-85499360D01*
X131500640Y-85499360D02*
X131500640Y-80500640D01*
X131500640Y-80500640D02*
X136499360Y-80500640D01*
X136499360Y-80500640D02*
X136499360Y-85499360D01*
D12*
X121000000Y-99100000D02*
X120200000Y-99100000D01*
X120200000Y-99100000D02*
X120200000Y-96100000D01*
X120200000Y-96100000D02*
X121800000Y-96100000D01*
X121800000Y-96100000D02*
X121800000Y-99100000D01*
X121800000Y-99100000D02*
X121000000Y-99100000D01*
X131200000Y-64300000D02*
X131200000Y-64400000D01*
X131200000Y-64400000D02*
X132600000Y-64400000D01*
X132600000Y-64400000D02*
X132600000Y-64300000D01*
X131200000Y-64300000D02*
X131200000Y-60300000D01*
X131200000Y-60300000D02*
X132600000Y-60300000D01*
X132600000Y-60300000D02*
X132600000Y-64300000D01*
X132600000Y-64300000D02*
X131200000Y-64300000D01*
X132281000Y-62681000D02*
X131519000Y-62681000D01*
X131900000Y-61919000D02*
X131519000Y-61919000D01*
X131519000Y-61919000D02*
X131900000Y-62681000D01*
X131900000Y-62681000D02*
X132281000Y-61919000D01*
X132281000Y-61919000D02*
X131900000Y-61919000D01*
X111900000Y-73000000D02*
X111800000Y-73000000D01*
X111800000Y-73000000D02*
X111800000Y-74400000D01*
X111800000Y-74400000D02*
X111900000Y-74400000D01*
X111900000Y-73000000D02*
X115900000Y-73000000D01*
X115900000Y-73000000D02*
X115900000Y-74400000D01*
X115900000Y-74400000D02*
X111900000Y-74400000D01*
X111900000Y-74400000D02*
X111900000Y-73000000D01*
X113519000Y-74081000D02*
X113519000Y-73319000D01*
X114281000Y-73700000D02*
X114281000Y-73319000D01*
X114281000Y-73319000D02*
X113519000Y-73700000D01*
X113519000Y-73700000D02*
X114281000Y-74081000D01*
X114281000Y-74081000D02*
X114281000Y-73700000D01*
X133500000Y-63000000D02*
X133500000Y-61400000D01*
D13*
X133149660Y-63000100D02*
X133149660Y-61399900D01*
X133149660Y-61399900D02*
X136050340Y-61399900D01*
X136050340Y-61399900D02*
X136050340Y-63000100D01*
X136050340Y-63000100D02*
X133149660Y-63000100D01*
D12*
X136300000Y-97050000D02*
X136100000Y-97300000D01*
X136100000Y-97300000D02*
X136100000Y-96550000D01*
X135850000Y-95850000D02*
X135150000Y-96550000D01*
X132400000Y-96550000D02*
X128950000Y-96550000D01*
X128950000Y-96550000D02*
X128950000Y-89650000D01*
X128950000Y-89650000D02*
X135850000Y-89650000D01*
X135850000Y-89650000D02*
X135850000Y-96550000D01*
X135850000Y-96550000D02*
X132400000Y-96550000D01*
X136002000Y-70718700D02*
X137152000Y-69568700D01*
X141402000Y-69568700D02*
X141402000Y-74968700D01*
X141402000Y-74968700D02*
X136002000Y-74968700D01*
X136002000Y-74968700D02*
X136002000Y-69568700D01*
X136002000Y-69568700D02*
X141402000Y-69568700D01*
D14*
X113879100Y-72498700D02*
X113879100Y-69450700D01*
X113879100Y-69450700D02*
X114641100Y-69450700D01*
X114641100Y-69450700D02*
X114641100Y-72498700D01*
X114641100Y-72498700D02*
X113879100Y-72498700D01*
D12*
X115621897Y-63997711D02*
X112356536Y-67889217D01*
X113676144Y-62365030D02*
X110410783Y-66256536D01*
X112274902Y-67986504D02*
X112356536Y-67889217D01*
X110410783Y-66256536D02*
X110247515Y-66451111D01*
X110247515Y-66451111D02*
X112193268Y-68083792D01*
X112193268Y-68083792D02*
X112274902Y-67986504D01*
X112274902Y-67986504D02*
X110426437Y-66435458D01*
X112043464Y-64310783D02*
X113989217Y-65943464D01*
X113676144Y-62365030D02*
X115621897Y-63997711D01*
X112356536Y-67889217D02*
X110410783Y-66256536D01*
X137070000Y-78344700D02*
X141134000Y-78344700D01*
X141134000Y-78344700D02*
X141134000Y-81392700D01*
X141134000Y-81392700D02*
X137070000Y-81392700D01*
X137070000Y-81392700D02*
X137070000Y-78344700D01*
X115678000Y-97600000D02*
G75*
G03X115678000Y-97600000I-1778000J0D01*
G01*
X114648514Y-93354964D02*
X109654964Y-96851486D01*
X109654964Y-96851486D02*
X113151486Y-101845036D01*
X113151486Y-101845036D02*
X118145036Y-98348514D01*
X118145036Y-98348514D02*
X114648514Y-93354964D01*
X140600000Y-101800000D02*
X141400000Y-101800000D01*
X141400000Y-101800000D02*
X141400000Y-104800000D01*
X141400000Y-104800000D02*
X139800000Y-104800000D01*
X139800000Y-104800000D02*
X139800000Y-101800000D01*
X139800000Y-101800000D02*
X140600000Y-101800000D01*
X142300000Y-101800000D02*
X143100000Y-101800000D01*
X143100000Y-101800000D02*
X143100000Y-104800000D01*
X143100000Y-104800000D02*
X141500000Y-104800000D01*
X141500000Y-104800000D02*
X141500000Y-101800000D01*
X141500000Y-101800000D02*
X142300000Y-101800000D01*
X144000000Y-104800000D02*
X143200000Y-104800000D01*
X143200000Y-104800000D02*
X143200000Y-101800000D01*
X143200000Y-101800000D02*
X144800000Y-101800000D01*
X144800000Y-101800000D02*
X144800000Y-104800000D01*
X144800000Y-104800000D02*
X144000000Y-104800000D01*
X128100000Y-79300000D02*
X128900000Y-79300000D01*
X128900000Y-79300000D02*
X128900000Y-82300000D01*
X128900000Y-82300000D02*
X127300000Y-82300000D01*
X127300000Y-82300000D02*
X127300000Y-79300000D01*
X127300000Y-79300000D02*
X128100000Y-79300000D01*
X126400000Y-79300000D02*
X127200000Y-79300000D01*
X127200000Y-79300000D02*
X127200000Y-82300000D01*
X127200000Y-82300000D02*
X125600000Y-82300000D01*
X125600000Y-82300000D02*
X125600000Y-79300000D01*
X125600000Y-79300000D02*
X126400000Y-79300000D01*
X129800000Y-79300000D02*
X130600000Y-79300000D01*
X130600000Y-79300000D02*
X130600000Y-82300000D01*
X130600000Y-82300000D02*
X129000000Y-82300000D01*
X129000000Y-82300000D02*
X129000000Y-79300000D01*
X129000000Y-79300000D02*
X129800000Y-79300000D01*
X139502000Y-68568700D02*
X138702000Y-68568700D01*
X138702000Y-68568700D02*
X138702000Y-65568700D01*
X138702000Y-65568700D02*
X140302000Y-65568700D01*
X140302000Y-65568700D02*
X140302000Y-68568700D01*
X140302000Y-68568700D02*
X139502000Y-68568700D01*
X123000000Y-96100000D02*
X123800000Y-96100000D01*
X123800000Y-96100000D02*
X123800000Y-99100000D01*
X123800000Y-99100000D02*
X122200000Y-99100000D01*
X122200000Y-99100000D02*
X122200000Y-96100000D01*
X122200000Y-96100000D02*
X123000000Y-96100000D01*
X127500000Y-86600000D02*
X127500000Y-85800000D01*
X127500000Y-85800000D02*
X130500000Y-85800000D01*
X130500000Y-85800000D02*
X130500000Y-87400000D01*
X130500000Y-87400000D02*
X127500000Y-87400000D01*
X127500000Y-87400000D02*
X127500000Y-86600000D01*
X125700000Y-97600000D02*
X124900000Y-97600000D01*
X124900000Y-97600000D02*
X124900000Y-94600000D01*
X124900000Y-94600000D02*
X126500000Y-94600000D01*
X126500000Y-94600000D02*
X126500000Y-97600000D01*
X126500000Y-97600000D02*
X125700000Y-97600000D01*
X137302000Y-97278100D02*
X138102000Y-97278100D01*
X138102000Y-97278100D02*
X138102000Y-100278100D01*
X138102000Y-100278100D02*
X136502000Y-100278100D01*
X136502000Y-100278100D02*
X136502000Y-97278100D01*
X136502000Y-97278100D02*
X137302000Y-97278100D01*
X138900000Y-90800000D02*
X138100000Y-90800000D01*
X138100000Y-90800000D02*
X138100000Y-87800000D01*
X138100000Y-87800000D02*
X139700000Y-87800000D01*
X139700000Y-87800000D02*
X139700000Y-90800000D01*
X139700000Y-90800000D02*
X138900000Y-90800000D01*
X140500000Y-89900000D02*
X139700000Y-89900000D01*
X139700000Y-89900000D02*
X139700000Y-86900000D01*
X139700000Y-86900000D02*
X141300000Y-86900000D01*
X141300000Y-86900000D02*
X141300000Y-89900000D01*
X141300000Y-89900000D02*
X140500000Y-89900000D01*
X124600000Y-102200000D02*
X128400000Y-102200000D01*
X128400000Y-102200000D02*
X128400000Y-104200000D01*
X128400000Y-104200000D02*
X124600000Y-104200000D01*
X124600000Y-104200000D02*
X124600000Y-102200000D01*
X122800000Y-64400000D02*
X122800000Y-60600000D01*
X122800000Y-60600000D02*
X124800000Y-60600000D01*
X124800000Y-60600000D02*
X124800000Y-64400000D01*
X124800000Y-64400000D02*
X122800000Y-64400000D01*
X132900000Y-64700000D02*
X132900000Y-68500000D01*
X132900000Y-68500000D02*
X130900000Y-68500000D01*
X130900000Y-68500000D02*
X130900000Y-64700000D01*
X130900000Y-64700000D02*
X132900000Y-64700000D01*
X137300000Y-82500000D02*
X137300000Y-81700000D01*
X137300000Y-81700000D02*
X140300000Y-81700000D01*
X140300000Y-81700000D02*
X140300000Y-83300000D01*
X140300000Y-83300000D02*
X137300000Y-83300000D01*
X137300000Y-83300000D02*
X137300000Y-82500000D01*
X142302000Y-78368700D02*
X143102000Y-78368700D01*
X143102000Y-78368700D02*
X143102000Y-81368700D01*
X143102000Y-81368700D02*
X141502000Y-81368700D01*
X141502000Y-81368700D02*
X141502000Y-78368700D01*
X141502000Y-78368700D02*
X142302000Y-78368700D01*
X135000000Y-75000000D02*
X135000000Y-75800000D01*
X135000000Y-75800000D02*
X132000000Y-75800000D01*
X132000000Y-75800000D02*
X132000000Y-74200000D01*
X132000000Y-74200000D02*
X135000000Y-74200000D01*
X135000000Y-74200000D02*
X135000000Y-75000000D01*
X141102000Y-68568700D02*
X140302000Y-68568700D01*
X140302000Y-68568700D02*
X140302000Y-65568700D01*
X140302000Y-65568700D02*
X141902000Y-65568700D01*
X141902000Y-65568700D02*
X141902000Y-68568700D01*
X141902000Y-68568700D02*
X141102000Y-68568700D01*
X143374000Y-70071700D02*
X142574000Y-70071700D01*
X142574000Y-70071700D02*
X142574000Y-67071700D01*
X142574000Y-67071700D02*
X144174000Y-67071700D01*
X144174000Y-67071700D02*
X144174000Y-70071700D01*
X144174000Y-70071700D02*
X143374000Y-70071700D01*
X142300000Y-74900000D02*
X143100000Y-74900000D01*
X143100000Y-74900000D02*
X143100000Y-77900000D01*
X143100000Y-77900000D02*
X141500000Y-77900000D01*
X141500000Y-77900000D02*
X141500000Y-74900000D01*
X141500000Y-74900000D02*
X142300000Y-74900000D01*
X140300000Y-76800000D02*
X140300000Y-77600000D01*
X140300000Y-77600000D02*
X137300000Y-77600000D01*
X137300000Y-77600000D02*
X137300000Y-76000000D01*
X137300000Y-76000000D02*
X140300000Y-76000000D01*
X140300000Y-76000000D02*
X140300000Y-76800000D01*
X135000000Y-72800000D02*
X135000000Y-73600000D01*
X135000000Y-73600000D02*
X132000000Y-73600000D01*
X132000000Y-73600000D02*
X132000000Y-72000000D01*
X132000000Y-72000000D02*
X135000000Y-72000000D01*
X135000000Y-72000000D02*
X135000000Y-72800000D01*
X137902000Y-68568700D02*
X137102000Y-68568700D01*
X137102000Y-68568700D02*
X137102000Y-65568700D01*
X137102000Y-65568700D02*
X138702000Y-65568700D01*
X138702000Y-65568700D02*
X138702000Y-68568700D01*
X138702000Y-68568700D02*
X137902000Y-68568700D01*
X112600000Y-76200000D02*
X116400000Y-76200000D01*
X116400000Y-76200000D02*
X116400000Y-78200000D01*
X116400000Y-78200000D02*
X112600000Y-78200000D01*
X112600000Y-78200000D02*
X112600000Y-76200000D01*
X144600000Y-71300000D02*
X144600000Y-70200000D01*
X144600000Y-70200000D02*
X145800000Y-70200000D01*
X145800000Y-70200000D02*
X145800000Y-72400000D01*
X145800000Y-72400000D02*
X144600000Y-72400000D01*
X144600000Y-72400000D02*
X144600000Y-71300000D01*
X147000000Y-74500000D02*
X147000000Y-75600000D01*
X147000000Y-75600000D02*
X145800000Y-75600000D01*
X145800000Y-75600000D02*
X145800000Y-73400000D01*
X145800000Y-73400000D02*
X147000000Y-73400000D01*
X147000000Y-73400000D02*
X147000000Y-74500000D01*
X126800000Y-64400000D02*
X126800000Y-61200000D01*
X126800000Y-61200000D02*
X131000000Y-61200000D01*
X131000000Y-61200000D02*
X131000000Y-64400000D01*
X131000000Y-64400000D02*
X126800000Y-64400000D01*
X144600000Y-73500000D02*
X144600000Y-72400000D01*
X144600000Y-72400000D02*
X145800000Y-72400000D01*
X145800000Y-72400000D02*
X145800000Y-74600000D01*
X145800000Y-74600000D02*
X144600000Y-74600000D01*
X144600000Y-74600000D02*
X144600000Y-73500000D01*
X109500000Y-70200000D02*
X109500000Y-69400000D01*
X109500000Y-69400000D02*
X112500000Y-69400000D01*
X112500000Y-69400000D02*
X112500000Y-71000000D01*
X112500000Y-71000000D02*
X109500000Y-71000000D01*
X109500000Y-71000000D02*
X109500000Y-70200000D01*
X125800000Y-64400000D02*
X125000000Y-64400000D01*
X125000000Y-64400000D02*
X125000000Y-61400000D01*
X125000000Y-61400000D02*
X126600000Y-61400000D01*
X126600000Y-61400000D02*
X126600000Y-64400000D01*
X126600000Y-64400000D02*
X125800000Y-64400000D01*
X127500000Y-85000000D02*
X127500000Y-84200000D01*
X127500000Y-84200000D02*
X130500000Y-84200000D01*
X130500000Y-84200000D02*
X130500000Y-85800000D01*
X130500000Y-85800000D02*
X127500000Y-85800000D01*
X127500000Y-85800000D02*
X127500000Y-85000000D01*
X124600000Y-101400000D02*
X124600000Y-100600000D01*
X124600000Y-100600000D02*
X127600000Y-100600000D01*
X127600000Y-100600000D02*
X127600000Y-102200000D01*
X127600000Y-102200000D02*
X124600000Y-102200000D01*
X124600000Y-102200000D02*
X124600000Y-101400000D01*
X142100000Y-90800000D02*
X141300000Y-90800000D01*
X141300000Y-90800000D02*
X141300000Y-87800000D01*
X141300000Y-87800000D02*
X142900000Y-87800000D01*
X142900000Y-87800000D02*
X142900000Y-90800000D01*
X142900000Y-90800000D02*
X142100000Y-90800000D01*
X143700000Y-98200000D02*
X143700000Y-99000000D01*
X143700000Y-99000000D02*
X140700000Y-99000000D01*
X140700000Y-99000000D02*
X140700000Y-97400000D01*
X140700000Y-97400000D02*
X143700000Y-97400000D01*
X143700000Y-97400000D02*
X143700000Y-98200000D01*
X123000000Y-106800000D02*
X123000000Y-107600000D01*
X123000000Y-107600000D02*
X120000000Y-107600000D01*
X120000000Y-107600000D02*
X120000000Y-106000000D01*
X120000000Y-106000000D02*
X123000000Y-106000000D01*
X123000000Y-106000000D02*
X123000000Y-106800000D01*
X116900000Y-101900000D02*
X117700000Y-101900000D01*
X117700000Y-101900000D02*
X117700000Y-104900000D01*
X117700000Y-104900000D02*
X116100000Y-104900000D01*
X116100000Y-104900000D02*
X116100000Y-101900000D01*
X116100000Y-101900000D02*
X116900000Y-101900000D01*
X111700000Y-90700000D02*
X110900000Y-90700000D01*
X110900000Y-90700000D02*
X110900000Y-87700000D01*
X110900000Y-87700000D02*
X112500000Y-87700000D01*
X112500000Y-87700000D02*
X112500000Y-90700000D01*
X112500000Y-90700000D02*
X111700000Y-90700000D01*
X119200000Y-101025000D02*
X119625000Y-100600000D01*
X123200000Y-100600000D02*
X122775000Y-100600000D01*
X123200000Y-100600000D02*
X123200000Y-101025000D01*
X119200000Y-104600000D02*
X119625000Y-104600000D01*
X119200000Y-104600000D02*
X119200000Y-104175000D01*
X123200000Y-104600000D02*
X122775000Y-104600000D01*
X123200000Y-104600000D02*
X123200000Y-104175000D01*
X126200000Y-85600000D02*
X125100000Y-85600000D01*
X125100000Y-85600000D02*
X125100000Y-84400000D01*
X125100000Y-84400000D02*
X127300000Y-84400000D01*
X127300000Y-84400000D02*
X127300000Y-85600000D01*
X127300000Y-85600000D02*
X126200000Y-85600000D01*
X135200000Y-68200000D02*
X134100000Y-68200000D01*
X134100000Y-68200000D02*
X134100000Y-67000000D01*
X134100000Y-67000000D02*
X136300000Y-67000000D01*
X136300000Y-67000000D02*
X136300000Y-68200000D01*
X136300000Y-68200000D02*
X135200000Y-68200000D01*
D13*
X106899980Y-94201060D02*
X109899720Y-94201060D01*
X106899980Y-94201060D02*
X106899980Y-87398940D01*
X106899980Y-87398940D02*
X107601020Y-87398940D01*
X107550220Y-94201060D02*
X107550220Y-87398940D01*
X107601020Y-87398940D02*
X109650800Y-87398940D01*
X109650800Y-87398940D02*
X109899720Y-87398940D01*
X109899720Y-87398940D02*
X109899720Y-94201060D01*
D14*
X121524000Y-88081000D02*
X118476000Y-88081000D01*
X118476000Y-88081000D02*
X118476000Y-87319000D01*
X118476000Y-87319000D02*
X121524000Y-87319000D01*
X121524000Y-87319000D02*
X121524000Y-88081000D01*
D12*
X139800000Y-94100000D02*
X139000000Y-94100000D01*
X139000000Y-94100000D02*
X139000000Y-91100000D01*
X139000000Y-91100000D02*
X140600000Y-91100000D01*
X140600000Y-91100000D02*
X140600000Y-94100000D01*
X140600000Y-94100000D02*
X139800000Y-94100000D01*
X134700000Y-77600000D02*
X134700000Y-78400000D01*
X134700000Y-78400000D02*
X131700000Y-78400000D01*
X131700000Y-78400000D02*
X131700000Y-76800000D01*
X131700000Y-76800000D02*
X134700000Y-76800000D01*
X134700000Y-76800000D02*
X134700000Y-77600000D01*
X113500000Y-87700000D02*
X114300000Y-87700000D01*
X114300000Y-87700000D02*
X114300000Y-90700000D01*
X114300000Y-90700000D02*
X112700000Y-90700000D01*
X112700000Y-90700000D02*
X112700000Y-87700000D01*
X112700000Y-87700000D02*
X113500000Y-87700000D01*
X118100000Y-90700000D02*
X118100000Y-91500000D01*
X118100000Y-91500000D02*
X115100000Y-91500000D01*
X115100000Y-91500000D02*
X115100000Y-89900000D01*
X115100000Y-89900000D02*
X118100000Y-89900000D01*
X118100000Y-89900000D02*
X118100000Y-90700000D01*
X144505000Y-94100000D02*
X144505000Y-97148000D01*
X144505000Y-97148000D02*
X140695000Y-97148000D01*
X140695000Y-97148000D02*
X140695000Y-91052000D01*
X140695000Y-91052000D02*
X144505000Y-91052000D01*
X144505000Y-91052000D02*
X144505000Y-94100000D01*
X142450000Y-70935700D02*
X144550000Y-70935700D01*
X144550000Y-70935700D02*
X144550000Y-74135700D01*
X144550000Y-74135700D02*
X142450000Y-74135700D01*
X142450000Y-74135700D02*
X142450000Y-70935700D01*
D14*
X118124000Y-88081000D02*
X115076000Y-88081000D01*
X115076000Y-88081000D02*
X115076000Y-87319000D01*
X115076000Y-87319000D02*
X118124000Y-87319000D01*
X118124000Y-87319000D02*
X118124000Y-88081000D01*
D12*
X121500000Y-90700000D02*
X121500000Y-91500000D01*
X121500000Y-91500000D02*
X118500000Y-91500000D01*
X118500000Y-91500000D02*
X118500000Y-89900000D01*
X118500000Y-89900000D02*
X121500000Y-89900000D01*
X121500000Y-89900000D02*
X121500000Y-90700000D01*
D11*
X128599960Y-103500200D02*
X128599960Y-111899980D01*
X128599960Y-111899980D02*
X139400040Y-111899980D01*
X139400040Y-111899980D02*
X139400040Y-103500200D01*
X136799080Y-101900000D02*
X136400300Y-101900000D01*
X133799340Y-101900000D02*
X134200660Y-101900000D01*
X131200920Y-101900000D02*
X131599700Y-101900000D01*
X128599960Y-101900000D02*
X129199400Y-101900000D01*
X128599960Y-101900000D02*
X128599960Y-103500200D01*
X128599960Y-103500200D02*
X139400040Y-103500200D01*
X139400040Y-103500200D02*
X139400040Y-101900000D01*
X139400040Y-101900000D02*
X138800600Y-101900000D01*
D12*
X124950000Y-110870000D02*
X132570000Y-110870000D01*
X124950000Y-108330000D02*
X132570000Y-108330000D01*
X124950000Y-110870000D02*
X124696000Y-110870000D01*
X124696000Y-110870000D02*
X124696000Y-108330000D01*
X124696000Y-108330000D02*
X124950000Y-108330000D01*
X124950000Y-108330000D02*
X124823000Y-108330000D01*
X124823000Y-108330000D02*
X124823000Y-110870000D01*
X132570000Y-108330000D02*
X132570000Y-110870000D01*
X124950000Y-110870000D02*
X124950000Y-108330000D01*
X133210000Y-110870000D02*
X132956000Y-110870000D01*
X132956000Y-110870000D02*
X132956000Y-108330000D01*
X132956000Y-108330000D02*
X133210000Y-108330000D01*
X133210000Y-108330000D02*
X133083000Y-108330000D01*
X133083000Y-108330000D02*
X133083000Y-110870000D01*
X133210000Y-108330000D02*
X143370000Y-108330000D01*
X143370000Y-108330000D02*
X143370000Y-110870000D01*
X143370000Y-110870000D02*
X133210000Y-110870000D01*
X133210000Y-110870000D02*
X133210000Y-108330000D01*
X114081000Y-84285000D02*
X114281000Y-84285000D01*
X114081000Y-81685000D02*
X114281000Y-81685000D01*
X113081000Y-80485000D02*
X113081000Y-79985000D01*
X113081000Y-79985000D02*
X114081000Y-79985000D01*
X114081000Y-79985000D02*
X114081000Y-85485000D01*
X114081000Y-85485000D02*
X113081000Y-85485000D01*
X107781000Y-80485000D02*
X113081000Y-80485000D01*
X113081000Y-80485000D02*
X113081000Y-85485000D01*
X113081000Y-85485000D02*
X107781000Y-85485000D01*
X105281000Y-82985000D02*
G75*
G02X107781000Y-80485000I2500000J0D01*
G01*
X107781000Y-85485000D02*
G75*
G02X105281000Y-82985000I0J2500000D01*
G01*
X112600000Y-75400000D02*
X112600000Y-74600000D01*
X112600000Y-74600000D02*
X115600000Y-74600000D01*
X115600000Y-74600000D02*
X115600000Y-76200000D01*
X115600000Y-76200000D02*
X112600000Y-76200000D01*
X112600000Y-76200000D02*
X112600000Y-75400000D01*
X133100000Y-65500000D02*
X133100000Y-64700000D01*
X133100000Y-64700000D02*
X136100000Y-64700000D01*
X136100000Y-64700000D02*
X136100000Y-66300000D01*
X136100000Y-66300000D02*
X133100000Y-66300000D01*
X133100000Y-66300000D02*
X133100000Y-65500000D01*
D13*
X132928265Y-83057090D02*
X132899720Y-83114179D01*
X132842630Y-83171269D01*
X132756996Y-83256903D01*
X132728451Y-83313992D01*
X132728451Y-83371082D01*
X132871175Y-83342537D02*
X132842630Y-83399627D01*
X132785541Y-83456716D01*
X132671362Y-83485261D01*
X132471549Y-83485261D01*
X132357370Y-83456716D01*
X132300280Y-83399627D01*
X132271735Y-83342537D01*
X132271735Y-83228358D01*
X132300280Y-83171269D01*
X132357370Y-83114179D01*
X132471549Y-83085634D01*
X132671362Y-83085634D01*
X132785541Y-83114179D01*
X132842630Y-83171269D01*
X132871175Y-83228358D01*
X132871175Y-83342537D01*
X132871175Y-82514739D02*
X132871175Y-82857276D01*
X132871175Y-82686007D02*
X132271735Y-82686007D01*
X132357370Y-82743097D01*
X132414459Y-82800186D01*
X132443004Y-82857276D01*
X135771175Y-85783020D02*
X135771175Y-86068467D01*
X135171735Y-86068467D01*
X135457183Y-85583206D02*
X135457183Y-85383393D01*
X135771175Y-85297759D02*
X135771175Y-85583206D01*
X135171735Y-85583206D01*
X135171735Y-85297759D01*
X135771175Y-85040856D02*
X135171735Y-85040856D01*
X135171735Y-84898132D01*
X135200280Y-84812498D01*
X135257370Y-84755409D01*
X135314459Y-84726864D01*
X135428638Y-84698319D01*
X135514272Y-84698319D01*
X135628451Y-84726864D01*
X135685541Y-84755409D01*
X135742630Y-84812498D01*
X135771175Y-84898132D01*
X135771175Y-85040856D01*
X135828265Y-84584140D02*
X135828265Y-84127424D01*
X135771175Y-83642163D02*
X135485728Y-83841976D01*
X135771175Y-83984700D02*
X135171735Y-83984700D01*
X135171735Y-83756342D01*
X135200280Y-83699253D01*
X135228825Y-83670708D01*
X135285914Y-83642163D01*
X135371549Y-83642163D01*
X135428638Y-83670708D01*
X135457183Y-83699253D01*
X135485728Y-83756342D01*
X135485728Y-83984700D01*
X135200280Y-83071268D02*
X135171735Y-83128357D01*
X135171735Y-83213992D01*
X135200280Y-83299626D01*
X135257370Y-83356715D01*
X135314459Y-83385260D01*
X135428638Y-83413805D01*
X135514272Y-83413805D01*
X135628451Y-83385260D01*
X135685541Y-83356715D01*
X135742630Y-83299626D01*
X135771175Y-83213992D01*
X135771175Y-83156902D01*
X135742630Y-83071268D01*
X135714086Y-83042723D01*
X135514272Y-83042723D01*
X135514272Y-83156902D01*
X135457183Y-82586007D02*
X135485728Y-82500373D01*
X135514272Y-82471828D01*
X135571362Y-82443283D01*
X135656996Y-82443283D01*
X135714086Y-82471828D01*
X135742630Y-82500373D01*
X135771175Y-82557462D01*
X135771175Y-82785820D01*
X135171735Y-82785820D01*
X135171735Y-82586007D01*
X135200280Y-82528917D01*
X135228825Y-82500373D01*
X135285914Y-82471828D01*
X135343004Y-82471828D01*
X135400093Y-82500373D01*
X135428638Y-82528917D01*
X135457183Y-82586007D01*
X135457183Y-82785820D01*
X135171735Y-81444217D02*
X135171735Y-81729664D01*
X135457183Y-81758209D01*
X135428638Y-81729664D01*
X135400093Y-81672575D01*
X135400093Y-81529851D01*
X135428638Y-81472761D01*
X135457183Y-81444217D01*
X135514272Y-81415672D01*
X135656996Y-81415672D01*
X135714086Y-81444217D01*
X135742630Y-81472761D01*
X135771175Y-81529851D01*
X135771175Y-81672575D01*
X135742630Y-81729664D01*
X135714086Y-81758209D01*
X135171735Y-81044590D02*
X135171735Y-80987501D01*
X135200280Y-80930411D01*
X135228825Y-80901866D01*
X135285914Y-80873322D01*
X135400093Y-80844777D01*
X135542817Y-80844777D01*
X135656996Y-80873322D01*
X135714086Y-80901866D01*
X135742630Y-80930411D01*
X135771175Y-80987501D01*
X135771175Y-81044590D01*
X135742630Y-81101680D01*
X135714086Y-81130224D01*
X135656996Y-81158769D01*
X135542817Y-81187314D01*
X135400093Y-81187314D01*
X135285914Y-81158769D01*
X135228825Y-81130224D01*
X135200280Y-81101680D01*
X135171735Y-81044590D01*
X135171735Y-80302427D02*
X135171735Y-80587874D01*
X135457183Y-80616419D01*
X135428638Y-80587874D01*
X135400093Y-80530785D01*
X135400093Y-80388061D01*
X135428638Y-80330971D01*
X135457183Y-80302427D01*
X135514272Y-80273882D01*
X135656996Y-80273882D01*
X135714086Y-80302427D01*
X135742630Y-80330971D01*
X135771175Y-80388061D01*
X135771175Y-80530785D01*
X135742630Y-80587874D01*
X135714086Y-80616419D01*
X135171735Y-79902800D02*
X135171735Y-79845711D01*
X135200280Y-79788621D01*
X135228825Y-79760076D01*
X135285914Y-79731532D01*
X135400093Y-79702987D01*
X135542817Y-79702987D01*
X135656996Y-79731532D01*
X135714086Y-79760076D01*
X135742630Y-79788621D01*
X135771175Y-79845711D01*
X135771175Y-79902800D01*
X135742630Y-79959890D01*
X135714086Y-79988434D01*
X135656996Y-80016979D01*
X135542817Y-80045524D01*
X135400093Y-80045524D01*
X135285914Y-80016979D01*
X135228825Y-79988434D01*
X135200280Y-79959890D01*
X135171735Y-79902800D01*
D12*
X131100000Y-79742857D02*
X131100000Y-79457143D01*
X131271429Y-79800000D02*
X130671429Y-79600000D01*
X131271429Y-79400000D01*
X119871429Y-98085715D02*
X119585714Y-98285715D01*
X119871429Y-98428572D02*
X119271429Y-98428572D01*
X119271429Y-98200000D01*
X119300000Y-98142858D01*
X119328571Y-98114286D01*
X119385714Y-98085715D01*
X119471429Y-98085715D01*
X119528571Y-98114286D01*
X119557143Y-98142858D01*
X119585714Y-98200000D01*
X119585714Y-98428572D01*
X119871429Y-97514286D02*
X119871429Y-97857143D01*
X119871429Y-97685715D02*
X119271429Y-97685715D01*
X119357143Y-97742858D01*
X119414286Y-97800000D01*
X119442857Y-97857143D01*
X119871429Y-96942857D02*
X119871429Y-97285714D01*
X119871429Y-97114286D02*
X119271429Y-97114286D01*
X119357143Y-97171429D01*
X119414286Y-97228571D01*
X119442857Y-97285714D01*
X120585714Y-95471429D02*
X120585714Y-95871429D01*
X120442857Y-95242857D02*
X120300000Y-95671429D01*
X120671428Y-95671429D01*
X120900000Y-95871429D02*
X120900000Y-95271429D01*
X120957143Y-95642857D02*
X121128572Y-95871429D01*
X121128572Y-95471429D02*
X120900000Y-95700000D01*
X121328571Y-95271429D02*
X121728571Y-95271429D01*
X121471428Y-95871429D01*
D13*
X131871175Y-60042443D02*
X131271735Y-60042443D01*
X131271735Y-59899719D01*
X131300280Y-59814085D01*
X131357370Y-59756996D01*
X131414459Y-59728451D01*
X131528638Y-59699906D01*
X131614272Y-59699906D01*
X131728451Y-59728451D01*
X131785541Y-59756996D01*
X131842630Y-59814085D01*
X131871175Y-59899719D01*
X131871175Y-60042443D01*
X131871175Y-59129011D02*
X131871175Y-59471548D01*
X131871175Y-59300279D02*
X131271735Y-59300279D01*
X131357370Y-59357369D01*
X131414459Y-59414458D01*
X131443004Y-59471548D01*
X132457183Y-59841323D02*
X132485728Y-59755689D01*
X132514272Y-59727144D01*
X132571362Y-59698599D01*
X132656996Y-59698599D01*
X132714086Y-59727144D01*
X132742630Y-59755689D01*
X132771175Y-59812778D01*
X132771175Y-60041136D01*
X132171735Y-60041136D01*
X132171735Y-59841323D01*
X132200280Y-59784233D01*
X132228825Y-59755689D01*
X132285914Y-59727144D01*
X132343004Y-59727144D01*
X132400093Y-59755689D01*
X132428638Y-59784233D01*
X132457183Y-59841323D01*
X132457183Y-60041136D01*
X132599907Y-59470241D02*
X132599907Y-59184793D01*
X132771175Y-59527330D02*
X132171735Y-59327517D01*
X132771175Y-59127704D01*
X132171735Y-59013524D02*
X132171735Y-58670987D01*
X132771175Y-58842256D02*
X132171735Y-58842256D01*
X132171735Y-58185727D02*
X132171735Y-58471174D01*
X132457183Y-58499719D01*
X132428638Y-58471174D01*
X132400093Y-58414085D01*
X132400093Y-58271361D01*
X132428638Y-58214271D01*
X132457183Y-58185727D01*
X132514272Y-58157182D01*
X132656996Y-58157182D01*
X132714086Y-58185727D01*
X132742630Y-58214271D01*
X132771175Y-58271361D01*
X132771175Y-58414085D01*
X132742630Y-58471174D01*
X132714086Y-58499719D01*
X132371549Y-57643376D02*
X132771175Y-57643376D01*
X132143190Y-57786100D02*
X132571362Y-57928824D01*
X132571362Y-57557742D01*
X132171735Y-57386474D02*
X132771175Y-57243750D01*
X132343004Y-57129571D01*
X132771175Y-57015392D01*
X132171735Y-56872668D01*
X132742630Y-56672855D02*
X132771175Y-56587221D01*
X132771175Y-56444497D01*
X132742630Y-56387407D01*
X132714086Y-56358863D01*
X132656996Y-56330318D01*
X132599907Y-56330318D01*
X132542817Y-56358863D01*
X132514272Y-56387407D01*
X132485728Y-56444497D01*
X132457183Y-56558676D01*
X132428638Y-56615765D01*
X132400093Y-56644310D01*
X132343004Y-56672855D01*
X132285914Y-56672855D01*
X132228825Y-56644310D01*
X132200280Y-56615765D01*
X132171735Y-56558676D01*
X132171735Y-56415952D01*
X132200280Y-56330318D01*
X116157557Y-73671175D02*
X116157557Y-73071735D01*
X116300281Y-73071735D01*
X116385915Y-73100280D01*
X116443004Y-73157370D01*
X116471549Y-73214459D01*
X116500094Y-73328638D01*
X116500094Y-73414272D01*
X116471549Y-73528451D01*
X116443004Y-73585541D01*
X116385915Y-73642630D01*
X116300281Y-73671175D01*
X116157557Y-73671175D01*
X116728452Y-73128825D02*
X116756997Y-73100280D01*
X116814086Y-73071735D01*
X116956810Y-73071735D01*
X117013900Y-73100280D01*
X117042444Y-73128825D01*
X117070989Y-73185914D01*
X117070989Y-73243004D01*
X117042444Y-73328638D01*
X116699907Y-73671175D01*
X117070989Y-73671175D01*
X109257183Y-75241323D02*
X109285728Y-75155689D01*
X109314272Y-75127144D01*
X109371362Y-75098599D01*
X109456996Y-75098599D01*
X109514086Y-75127144D01*
X109542630Y-75155689D01*
X109571175Y-75212778D01*
X109571175Y-75441136D01*
X108971735Y-75441136D01*
X108971735Y-75241323D01*
X109000280Y-75184233D01*
X109028825Y-75155689D01*
X109085914Y-75127144D01*
X109143004Y-75127144D01*
X109200093Y-75155689D01*
X109228638Y-75184233D01*
X109257183Y-75241323D01*
X109257183Y-75441136D01*
X109399907Y-74870241D02*
X109399907Y-74584793D01*
X109571175Y-74927330D02*
X108971735Y-74727517D01*
X109571175Y-74527704D01*
X108971735Y-74413524D02*
X108971735Y-74070987D01*
X109571175Y-74242256D02*
X108971735Y-74242256D01*
X108971735Y-73585727D02*
X108971735Y-73871174D01*
X109257183Y-73899719D01*
X109228638Y-73871174D01*
X109200093Y-73814085D01*
X109200093Y-73671361D01*
X109228638Y-73614271D01*
X109257183Y-73585727D01*
X109314272Y-73557182D01*
X109456996Y-73557182D01*
X109514086Y-73585727D01*
X109542630Y-73614271D01*
X109571175Y-73671361D01*
X109571175Y-73814085D01*
X109542630Y-73871174D01*
X109514086Y-73899719D01*
X109171549Y-73043376D02*
X109571175Y-73043376D01*
X108943190Y-73186100D02*
X109371362Y-73328824D01*
X109371362Y-72957742D01*
X108971735Y-72786474D02*
X109571175Y-72643750D01*
X109143004Y-72529571D01*
X109571175Y-72415392D01*
X108971735Y-72272668D01*
X109542630Y-72072855D02*
X109571175Y-71987221D01*
X109571175Y-71844497D01*
X109542630Y-71787407D01*
X109514086Y-71758863D01*
X109456996Y-71730318D01*
X109399907Y-71730318D01*
X109342817Y-71758863D01*
X109314272Y-71787407D01*
X109285728Y-71844497D01*
X109257183Y-71958676D01*
X109228638Y-72015765D01*
X109200093Y-72044310D01*
X109143004Y-72072855D01*
X109085914Y-72072855D01*
X109028825Y-72044310D01*
X109000280Y-72015765D01*
X108971735Y-71958676D01*
X108971735Y-71815952D01*
X109000280Y-71730318D01*
D12*
X134037000Y-62502429D02*
X134037000Y-61902429D01*
X134179857Y-61902429D01*
X134265572Y-61931000D01*
X134322714Y-61988143D01*
X134351286Y-62045286D01*
X134379857Y-62159571D01*
X134379857Y-62245286D01*
X134351286Y-62359571D01*
X134322714Y-62416714D01*
X134265572Y-62473857D01*
X134179857Y-62502429D01*
X134037000Y-62502429D01*
X134608429Y-62331000D02*
X134894143Y-62331000D01*
X134551286Y-62502429D02*
X134751286Y-61902429D01*
X134951286Y-62502429D01*
X135465572Y-62502429D02*
X135122715Y-62502429D01*
X135294143Y-62502429D02*
X135294143Y-61902429D01*
X135237000Y-61988143D01*
X135179858Y-62045286D01*
X135122715Y-62073857D01*
D13*
X134987262Y-60025953D02*
X134352262Y-60025953D01*
X134987262Y-59663095D01*
X134352262Y-59663095D01*
X134926786Y-58997857D02*
X134957024Y-59028095D01*
X134987262Y-59118810D01*
X134987262Y-59179286D01*
X134957024Y-59270000D01*
X134896548Y-59330476D01*
X134836071Y-59360715D01*
X134715119Y-59390953D01*
X134624405Y-59390953D01*
X134503452Y-59360715D01*
X134442976Y-59330476D01*
X134382500Y-59270000D01*
X134352262Y-59179286D01*
X134352262Y-59118810D01*
X134382500Y-59028095D01*
X134412738Y-58997857D01*
X134987262Y-58725715D02*
X134352262Y-58725715D01*
X134352262Y-58483810D01*
X134382500Y-58423334D01*
X134412738Y-58393095D01*
X134473214Y-58362857D01*
X134563929Y-58362857D01*
X134624405Y-58393095D01*
X134654643Y-58423334D01*
X134684881Y-58483810D01*
X134684881Y-58725715D01*
X134987262Y-57758095D02*
X134987262Y-58120953D01*
X134987262Y-57939524D02*
X134352262Y-57939524D01*
X134442976Y-58000000D01*
X134503452Y-58060476D01*
X134533690Y-58120953D01*
X134563929Y-57213810D02*
X134987262Y-57213810D01*
X134322024Y-57365000D02*
X134775595Y-57516191D01*
X134775595Y-57123095D01*
X134352262Y-56760238D02*
X134352262Y-56699762D01*
X134382500Y-56639286D01*
X134412738Y-56609048D01*
X134473214Y-56578810D01*
X134594167Y-56548571D01*
X134745357Y-56548571D01*
X134866310Y-56578810D01*
X134926786Y-56609048D01*
X134957024Y-56639286D01*
X134987262Y-56699762D01*
X134987262Y-56760238D01*
X134957024Y-56820714D01*
X134926786Y-56850952D01*
X134866310Y-56881191D01*
X134745357Y-56911429D01*
X134594167Y-56911429D01*
X134473214Y-56881191D01*
X134412738Y-56850952D01*
X134382500Y-56820714D01*
X134352262Y-56760238D01*
X134352262Y-56155476D02*
X134352262Y-56095000D01*
X134382500Y-56034524D01*
X134412738Y-56004286D01*
X134473214Y-55974048D01*
X134594167Y-55943809D01*
X134745357Y-55943809D01*
X134866310Y-55974048D01*
X134926786Y-56004286D01*
X134957024Y-56034524D01*
X134987262Y-56095000D01*
X134987262Y-56155476D01*
X134957024Y-56215952D01*
X134926786Y-56246190D01*
X134866310Y-56276429D01*
X134745357Y-56306667D01*
X134594167Y-56306667D01*
X134473214Y-56276429D01*
X134412738Y-56246190D01*
X134382500Y-56215952D01*
X134352262Y-56155476D01*
X131749619Y-93559407D02*
X131749619Y-92959967D01*
X131892343Y-92959967D01*
X131977977Y-92988512D01*
X132035066Y-93045602D01*
X132063611Y-93102691D01*
X132092156Y-93216870D01*
X132092156Y-93302504D01*
X132063611Y-93416683D01*
X132035066Y-93473773D01*
X131977977Y-93530862D01*
X131892343Y-93559407D01*
X131749619Y-93559407D01*
X132349059Y-93559407D02*
X132349059Y-92959967D01*
X132491783Y-92959967D01*
X132577417Y-92988512D01*
X132634506Y-93045602D01*
X132663051Y-93102691D01*
X132691596Y-93216870D01*
X132691596Y-93302504D01*
X132663051Y-93416683D01*
X132634506Y-93473773D01*
X132577417Y-93530862D01*
X132491783Y-93559407D01*
X132349059Y-93559407D01*
X133262491Y-93559407D02*
X132919954Y-93559407D01*
X133091223Y-93559407D02*
X133091223Y-92959967D01*
X133034133Y-93045602D01*
X132977044Y-93102691D01*
X132919954Y-93131236D01*
D12*
X136345036Y-69333386D02*
X136316465Y-69361957D01*
X136230751Y-69390529D01*
X136173608Y-69390529D01*
X136087893Y-69361957D01*
X136030751Y-69304814D01*
X136002179Y-69247671D01*
X135973608Y-69133386D01*
X135973608Y-69047671D01*
X136002179Y-68933386D01*
X136030751Y-68876243D01*
X136087893Y-68819100D01*
X136173608Y-68790529D01*
X136230751Y-68790529D01*
X136316465Y-68819100D01*
X136345036Y-68847671D01*
X136945036Y-69333386D02*
X136916465Y-69361957D01*
X136830751Y-69390529D01*
X136773608Y-69390529D01*
X136687893Y-69361957D01*
X136630751Y-69304814D01*
X136602179Y-69247671D01*
X136573608Y-69133386D01*
X136573608Y-69047671D01*
X136602179Y-68933386D01*
X136630751Y-68876243D01*
X136687893Y-68819100D01*
X136773608Y-68790529D01*
X136830751Y-68790529D01*
X136916465Y-68819100D01*
X136945036Y-68847671D01*
X137516465Y-69390529D02*
X137173608Y-69390529D01*
X137345036Y-69390529D02*
X137345036Y-68790529D01*
X137287893Y-68876243D01*
X137230751Y-68933386D01*
X137173608Y-68961957D01*
X138087894Y-69390529D02*
X137745037Y-69390529D01*
X137916465Y-69390529D02*
X137916465Y-68790529D01*
X137859322Y-68876243D01*
X137802180Y-68933386D01*
X137745037Y-68961957D01*
X138459323Y-68790529D02*
X138516466Y-68790529D01*
X138573609Y-68819100D01*
X138602180Y-68847671D01*
X138630751Y-68904814D01*
X138659323Y-69019100D01*
X138659323Y-69161957D01*
X138630751Y-69276243D01*
X138602180Y-69333386D01*
X138573609Y-69361957D01*
X138516466Y-69390529D01*
X138459323Y-69390529D01*
X138402180Y-69361957D01*
X138373609Y-69333386D01*
X138345037Y-69276243D01*
X138316466Y-69161957D01*
X138316466Y-69019100D01*
X138345037Y-68904814D01*
X138373609Y-68847671D01*
X138402180Y-68819100D01*
X138459323Y-68790529D01*
X139230752Y-69390529D02*
X138887895Y-69390529D01*
X139059323Y-69390529D02*
X139059323Y-68790529D01*
X139002180Y-68876243D01*
X138945038Y-68933386D01*
X138887895Y-68961957D01*
X114142857Y-69228571D02*
X114085714Y-69200000D01*
X114028571Y-69142857D01*
X113942857Y-69057143D01*
X113885714Y-69028571D01*
X113828571Y-69028571D01*
X113857143Y-69171429D02*
X113800000Y-69142857D01*
X113742857Y-69085714D01*
X113714286Y-68971429D01*
X113714286Y-68771429D01*
X113742857Y-68657143D01*
X113800000Y-68600000D01*
X113857143Y-68571429D01*
X113971429Y-68571429D01*
X114028571Y-68600000D01*
X114085714Y-68657143D01*
X114114286Y-68771429D01*
X114114286Y-68971429D01*
X114085714Y-69085714D01*
X114028571Y-69142857D01*
X113971429Y-69171429D01*
X113857143Y-69171429D01*
X114314285Y-68571429D02*
X114685714Y-68571429D01*
X114485714Y-68800000D01*
X114571428Y-68800000D01*
X114628571Y-68828571D01*
X114657142Y-68857143D01*
X114685714Y-68914286D01*
X114685714Y-69057143D01*
X114657142Y-69114286D01*
X114628571Y-69142857D01*
X114571428Y-69171429D01*
X114400000Y-69171429D01*
X114342857Y-69142857D01*
X114314285Y-69114286D01*
D13*
X116671175Y-72412218D02*
X116071735Y-72412218D01*
X116499907Y-72212405D01*
X116071735Y-72012592D01*
X116671175Y-72012592D01*
X116671175Y-71727144D02*
X116071735Y-71727144D01*
X116499907Y-71527331D01*
X116071735Y-71327518D01*
X116671175Y-71327518D01*
X116357183Y-70842257D02*
X116385728Y-70756623D01*
X116414272Y-70728078D01*
X116471362Y-70699533D01*
X116556996Y-70699533D01*
X116614086Y-70728078D01*
X116642630Y-70756623D01*
X116671175Y-70813712D01*
X116671175Y-71042070D01*
X116071735Y-71042070D01*
X116071735Y-70842257D01*
X116100280Y-70785167D01*
X116128825Y-70756623D01*
X116185914Y-70728078D01*
X116243004Y-70728078D01*
X116300093Y-70756623D01*
X116328638Y-70785167D01*
X116357183Y-70842257D01*
X116357183Y-71042070D01*
X116071735Y-70528264D02*
X116071735Y-70185727D01*
X116671175Y-70356996D02*
X116071735Y-70356996D01*
X116128825Y-70014459D02*
X116100280Y-69985914D01*
X116071735Y-69928825D01*
X116071735Y-69786101D01*
X116100280Y-69729011D01*
X116128825Y-69700467D01*
X116185914Y-69671922D01*
X116243004Y-69671922D01*
X116328638Y-69700467D01*
X116671175Y-70043004D01*
X116671175Y-69671922D01*
X116128825Y-69443564D02*
X116100280Y-69415019D01*
X116071735Y-69357930D01*
X116071735Y-69215206D01*
X116100280Y-69158116D01*
X116128825Y-69129572D01*
X116185914Y-69101027D01*
X116243004Y-69101027D01*
X116328638Y-69129572D01*
X116671175Y-69472109D01*
X116671175Y-69101027D01*
X116128825Y-68872669D02*
X116100280Y-68844124D01*
X116071735Y-68787035D01*
X116071735Y-68644311D01*
X116100280Y-68587221D01*
X116128825Y-68558677D01*
X116185914Y-68530132D01*
X116243004Y-68530132D01*
X116328638Y-68558677D01*
X116671175Y-68901214D01*
X116671175Y-68530132D01*
X116128825Y-68301774D02*
X116100280Y-68273229D01*
X116071735Y-68216140D01*
X116071735Y-68073416D01*
X116100280Y-68016326D01*
X116128825Y-67987782D01*
X116185914Y-67959237D01*
X116243004Y-67959237D01*
X116328638Y-67987782D01*
X116671175Y-68330319D01*
X116671175Y-67959237D01*
X143244124Y-82728825D02*
X143272669Y-82700280D01*
X143329758Y-82671735D01*
X143472482Y-82671735D01*
X143529572Y-82700280D01*
X143558116Y-82728825D01*
X143586661Y-82785914D01*
X143586661Y-82843004D01*
X143558116Y-82928638D01*
X143215579Y-83271175D01*
X143586661Y-83271175D01*
X143786474Y-82671735D02*
X144186101Y-82671735D01*
X143929198Y-83271175D01*
X144414459Y-83271175D02*
X144414459Y-82671735D01*
X144614272Y-83099907D01*
X144814085Y-82671735D01*
X144814085Y-83271175D01*
X145099533Y-83271175D02*
X145099533Y-82671735D01*
X145099533Y-82957183D02*
X145442070Y-82957183D01*
X145442070Y-83271175D02*
X145442070Y-82671735D01*
X145670428Y-82871549D02*
X145984421Y-82871549D01*
X145670428Y-83271175D01*
X145984421Y-83271175D01*
D12*
X140500000Y-105371429D02*
X140300000Y-105085714D01*
X140157143Y-105371429D02*
X140157143Y-104771429D01*
X140385715Y-104771429D01*
X140442857Y-104800000D01*
X140471429Y-104828571D01*
X140500000Y-104885714D01*
X140500000Y-104971429D01*
X140471429Y-105028571D01*
X140442857Y-105057143D01*
X140385715Y-105085714D01*
X140157143Y-105085714D01*
X141071429Y-105371429D02*
X140728572Y-105371429D01*
X140900000Y-105371429D02*
X140900000Y-104771429D01*
X140842857Y-104857143D01*
X140785715Y-104914286D01*
X140728572Y-104942857D01*
X139728571Y-101171429D02*
X139728571Y-101571429D01*
X139585714Y-100942857D02*
X139442857Y-101371429D01*
X139814285Y-101371429D01*
X140042857Y-101571429D02*
X140042857Y-100971429D01*
X140385714Y-101571429D02*
X140128571Y-101228571D01*
X140385714Y-100971429D02*
X140042857Y-101314286D01*
X140585714Y-100971429D02*
X140985714Y-100971429D01*
X140728571Y-101571429D01*
X142871429Y-105600000D02*
X142585714Y-105800000D01*
X142871429Y-105942857D02*
X142271429Y-105942857D01*
X142271429Y-105714285D01*
X142300000Y-105657143D01*
X142328571Y-105628571D01*
X142385714Y-105600000D01*
X142471429Y-105600000D01*
X142528571Y-105628571D01*
X142557143Y-105657143D01*
X142585714Y-105714285D01*
X142585714Y-105942857D01*
X142328571Y-105371428D02*
X142300000Y-105342857D01*
X142271429Y-105285714D01*
X142271429Y-105142857D01*
X142300000Y-105085714D01*
X142328571Y-105057143D01*
X142385714Y-105028571D01*
X142442857Y-105028571D01*
X142528571Y-105057143D01*
X142871429Y-105400000D01*
X142871429Y-105028571D01*
X141828571Y-101171429D02*
X141828571Y-101571429D01*
X141685714Y-100942857D02*
X141542857Y-101371429D01*
X141914285Y-101371429D01*
X142142857Y-101571429D02*
X142142857Y-100971429D01*
X142485714Y-101571429D02*
X142228571Y-101228571D01*
X142485714Y-100971429D02*
X142142857Y-101314286D01*
X142685714Y-100971429D02*
X143085714Y-100971429D01*
X142828571Y-101571429D01*
X144271429Y-105600000D02*
X143985714Y-105800000D01*
X144271429Y-105942857D02*
X143671429Y-105942857D01*
X143671429Y-105714285D01*
X143700000Y-105657143D01*
X143728571Y-105628571D01*
X143785714Y-105600000D01*
X143871429Y-105600000D01*
X143928571Y-105628571D01*
X143957143Y-105657143D01*
X143985714Y-105714285D01*
X143985714Y-105942857D01*
X143671429Y-105400000D02*
X143671429Y-105028571D01*
X143900000Y-105228571D01*
X143900000Y-105142857D01*
X143928571Y-105085714D01*
X143957143Y-105057143D01*
X144014286Y-105028571D01*
X144157143Y-105028571D01*
X144214286Y-105057143D01*
X144242857Y-105085714D01*
X144271429Y-105142857D01*
X144271429Y-105314285D01*
X144242857Y-105371428D01*
X144214286Y-105400000D01*
X145671429Y-103700000D02*
X145671429Y-104042857D01*
X145671429Y-103871429D02*
X145071429Y-103871429D01*
X145157143Y-103928572D01*
X145214286Y-103985714D01*
X145242857Y-104042857D01*
X145071429Y-103157143D02*
X145071429Y-103442857D01*
X145357143Y-103471428D01*
X145328571Y-103442857D01*
X145300000Y-103385714D01*
X145300000Y-103242857D01*
X145328571Y-103185714D01*
X145357143Y-103157143D01*
X145414286Y-103128571D01*
X145557143Y-103128571D01*
X145614286Y-103157143D01*
X145642857Y-103185714D01*
X145671429Y-103242857D01*
X145671429Y-103385714D01*
X145642857Y-103442857D01*
X145614286Y-103471428D01*
X145071429Y-102757142D02*
X145071429Y-102699999D01*
X145100000Y-102642856D01*
X145128571Y-102614285D01*
X145185714Y-102585714D01*
X145300000Y-102557142D01*
X145442857Y-102557142D01*
X145557143Y-102585714D01*
X145614286Y-102614285D01*
X145642857Y-102642856D01*
X145671429Y-102699999D01*
X145671429Y-102757142D01*
X145642857Y-102814285D01*
X145614286Y-102842856D01*
X145557143Y-102871428D01*
X145442857Y-102899999D01*
X145300000Y-102899999D01*
X145185714Y-102871428D01*
X145128571Y-102842856D01*
X145100000Y-102814285D01*
X145071429Y-102757142D01*
X127971429Y-78700000D02*
X127685714Y-78900000D01*
X127971429Y-79042857D02*
X127371429Y-79042857D01*
X127371429Y-78814285D01*
X127400000Y-78757143D01*
X127428571Y-78728571D01*
X127485714Y-78700000D01*
X127571429Y-78700000D01*
X127628571Y-78728571D01*
X127657143Y-78757143D01*
X127685714Y-78814285D01*
X127685714Y-79042857D01*
X127571429Y-78185714D02*
X127971429Y-78185714D01*
X127342857Y-78328571D02*
X127771429Y-78471428D01*
X127771429Y-78100000D01*
X128171429Y-78742858D02*
X128171429Y-79028572D01*
X128457143Y-79057143D01*
X128428571Y-79028572D01*
X128400000Y-78971429D01*
X128400000Y-78828572D01*
X128428571Y-78771429D01*
X128457143Y-78742858D01*
X128514286Y-78714286D01*
X128657143Y-78714286D01*
X128714286Y-78742858D01*
X128742857Y-78771429D01*
X128771429Y-78828572D01*
X128771429Y-78971429D01*
X128742857Y-79028572D01*
X128714286Y-79057143D01*
X128771429Y-78142857D02*
X128771429Y-78485714D01*
X128771429Y-78314286D02*
X128171429Y-78314286D01*
X128257143Y-78371429D01*
X128314286Y-78428571D01*
X128342857Y-78485714D01*
X128771429Y-77542857D02*
X128485714Y-77742857D01*
X128771429Y-77885714D02*
X128171429Y-77885714D01*
X128171429Y-77657142D01*
X128200000Y-77600000D01*
X128228571Y-77571428D01*
X128285714Y-77542857D01*
X128371429Y-77542857D01*
X128428571Y-77571428D01*
X128457143Y-77600000D01*
X128485714Y-77657142D01*
X128485714Y-77885714D01*
X126971429Y-78800000D02*
X126685714Y-79000000D01*
X126971429Y-79142857D02*
X126371429Y-79142857D01*
X126371429Y-78914285D01*
X126400000Y-78857143D01*
X126428571Y-78828571D01*
X126485714Y-78800000D01*
X126571429Y-78800000D01*
X126628571Y-78828571D01*
X126657143Y-78857143D01*
X126685714Y-78914285D01*
X126685714Y-79142857D01*
X126371429Y-78257143D02*
X126371429Y-78542857D01*
X126657143Y-78571428D01*
X126628571Y-78542857D01*
X126600000Y-78485714D01*
X126600000Y-78342857D01*
X126628571Y-78285714D01*
X126657143Y-78257143D01*
X126714286Y-78228571D01*
X126857143Y-78228571D01*
X126914286Y-78257143D01*
X126942857Y-78285714D01*
X126971429Y-78342857D01*
X126971429Y-78485714D01*
X126942857Y-78542857D01*
X126914286Y-78571428D01*
X124771429Y-80542858D02*
X124771429Y-80828572D01*
X125057143Y-80857143D01*
X125028571Y-80828572D01*
X125000000Y-80771429D01*
X125000000Y-80628572D01*
X125028571Y-80571429D01*
X125057143Y-80542858D01*
X125114286Y-80514286D01*
X125257143Y-80514286D01*
X125314286Y-80542858D01*
X125342857Y-80571429D01*
X125371429Y-80628572D01*
X125371429Y-80771429D01*
X125342857Y-80828572D01*
X125314286Y-80857143D01*
X125371429Y-79942857D02*
X125371429Y-80285714D01*
X125371429Y-80114286D02*
X124771429Y-80114286D01*
X124857143Y-80171429D01*
X124914286Y-80228571D01*
X124942857Y-80285714D01*
X125371429Y-79342857D02*
X125085714Y-79542857D01*
X125371429Y-79685714D02*
X124771429Y-79685714D01*
X124771429Y-79457142D01*
X124800000Y-79400000D01*
X124828571Y-79371428D01*
X124885714Y-79342857D01*
X124971429Y-79342857D01*
X125028571Y-79371428D01*
X125057143Y-79400000D01*
X125085714Y-79457142D01*
X125085714Y-79685714D01*
X129771429Y-78700000D02*
X129485714Y-78900000D01*
X129771429Y-79042857D02*
X129171429Y-79042857D01*
X129171429Y-78814285D01*
X129200000Y-78757143D01*
X129228571Y-78728571D01*
X129285714Y-78700000D01*
X129371429Y-78700000D01*
X129428571Y-78728571D01*
X129457143Y-78757143D01*
X129485714Y-78814285D01*
X129485714Y-79042857D01*
X129171429Y-78185714D02*
X129171429Y-78300000D01*
X129200000Y-78357143D01*
X129228571Y-78385714D01*
X129314286Y-78442857D01*
X129428571Y-78471428D01*
X129657143Y-78471428D01*
X129714286Y-78442857D01*
X129742857Y-78414285D01*
X129771429Y-78357143D01*
X129771429Y-78242857D01*
X129742857Y-78185714D01*
X129714286Y-78157143D01*
X129657143Y-78128571D01*
X129514286Y-78128571D01*
X129457143Y-78157143D01*
X129428571Y-78185714D01*
X129400000Y-78242857D01*
X129400000Y-78357143D01*
X129428571Y-78414285D01*
X129457143Y-78442857D01*
X129514286Y-78471428D01*
X129971429Y-78742858D02*
X129971429Y-79028572D01*
X130257143Y-79057143D01*
X130228571Y-79028572D01*
X130200000Y-78971429D01*
X130200000Y-78828572D01*
X130228571Y-78771429D01*
X130257143Y-78742858D01*
X130314286Y-78714286D01*
X130457143Y-78714286D01*
X130514286Y-78742858D01*
X130542857Y-78771429D01*
X130571429Y-78828572D01*
X130571429Y-78971429D01*
X130542857Y-79028572D01*
X130514286Y-79057143D01*
X130571429Y-78142857D02*
X130571429Y-78485714D01*
X130571429Y-78314286D02*
X129971429Y-78314286D01*
X130057143Y-78371429D01*
X130114286Y-78428571D01*
X130142857Y-78485714D01*
X130571429Y-77542857D02*
X130285714Y-77742857D01*
X130571429Y-77885714D02*
X129971429Y-77885714D01*
X129971429Y-77657142D01*
X130000000Y-77600000D01*
X130028571Y-77571428D01*
X130085714Y-77542857D01*
X130171429Y-77542857D01*
X130228571Y-77571428D01*
X130257143Y-77600000D01*
X130285714Y-77657142D01*
X130285714Y-77885714D01*
X139771429Y-61500000D02*
X139485714Y-61700000D01*
X139771429Y-61842857D02*
X139171429Y-61842857D01*
X139171429Y-61614285D01*
X139200000Y-61557143D01*
X139228571Y-61528571D01*
X139285714Y-61500000D01*
X139371429Y-61500000D01*
X139428571Y-61528571D01*
X139457143Y-61557143D01*
X139485714Y-61614285D01*
X139485714Y-61842857D01*
X139428571Y-61157143D02*
X139400000Y-61214285D01*
X139371429Y-61242857D01*
X139314286Y-61271428D01*
X139285714Y-61271428D01*
X139228571Y-61242857D01*
X139200000Y-61214285D01*
X139171429Y-61157143D01*
X139171429Y-61042857D01*
X139200000Y-60985714D01*
X139228571Y-60957143D01*
X139285714Y-60928571D01*
X139314286Y-60928571D01*
X139371429Y-60957143D01*
X139400000Y-60985714D01*
X139428571Y-61042857D01*
X139428571Y-61157143D01*
X139457143Y-61214285D01*
X139485714Y-61242857D01*
X139542857Y-61271428D01*
X139657143Y-61271428D01*
X139714286Y-61242857D01*
X139742857Y-61214285D01*
X139771429Y-61157143D01*
X139771429Y-61042857D01*
X139742857Y-60985714D01*
X139714286Y-60957143D01*
X139657143Y-60928571D01*
X139542857Y-60928571D01*
X139485714Y-60957143D01*
X139457143Y-60985714D01*
X139428571Y-61042857D01*
X139171429Y-64985715D02*
X139171429Y-65271429D01*
X139457143Y-65300000D01*
X139428571Y-65271429D01*
X139400000Y-65214286D01*
X139400000Y-65071429D01*
X139428571Y-65014286D01*
X139457143Y-64985715D01*
X139514286Y-64957143D01*
X139657143Y-64957143D01*
X139714286Y-64985715D01*
X139742857Y-65014286D01*
X139771429Y-65071429D01*
X139771429Y-65214286D01*
X139742857Y-65271429D01*
X139714286Y-65300000D01*
X139171429Y-64442857D02*
X139171429Y-64557143D01*
X139200000Y-64614286D01*
X139228571Y-64642857D01*
X139314286Y-64700000D01*
X139428571Y-64728571D01*
X139657143Y-64728571D01*
X139714286Y-64700000D01*
X139742857Y-64671428D01*
X139771429Y-64614286D01*
X139771429Y-64500000D01*
X139742857Y-64442857D01*
X139714286Y-64414286D01*
X139657143Y-64385714D01*
X139514286Y-64385714D01*
X139457143Y-64414286D01*
X139428571Y-64442857D01*
X139400000Y-64500000D01*
X139400000Y-64614286D01*
X139428571Y-64671428D01*
X139457143Y-64700000D01*
X139514286Y-64728571D01*
X139771429Y-64128571D02*
X139171429Y-64128571D01*
X139542857Y-64071428D02*
X139771429Y-63899999D01*
X139371429Y-63899999D02*
X139600000Y-64128571D01*
X122714285Y-99871429D02*
X122514285Y-99585714D01*
X122371428Y-99871429D02*
X122371428Y-99271429D01*
X122600000Y-99271429D01*
X122657142Y-99300000D01*
X122685714Y-99328571D01*
X122714285Y-99385714D01*
X122714285Y-99471429D01*
X122685714Y-99528571D01*
X122657142Y-99557143D01*
X122600000Y-99585714D01*
X122371428Y-99585714D01*
X123285714Y-99871429D02*
X122942857Y-99871429D01*
X123114285Y-99871429D02*
X123114285Y-99271429D01*
X123057142Y-99357143D01*
X123000000Y-99414286D01*
X122942857Y-99442857D01*
X123657143Y-99271429D02*
X123714286Y-99271429D01*
X123771429Y-99300000D01*
X123800000Y-99328571D01*
X123828571Y-99385714D01*
X123857143Y-99500000D01*
X123857143Y-99642857D01*
X123828571Y-99757143D01*
X123800000Y-99814286D01*
X123771429Y-99842857D01*
X123714286Y-99871429D01*
X123657143Y-99871429D01*
X123600000Y-99842857D01*
X123571429Y-99814286D01*
X123542857Y-99757143D01*
X123514286Y-99642857D01*
X123514286Y-99500000D01*
X123542857Y-99385714D01*
X123571429Y-99328571D01*
X123600000Y-99300000D01*
X123657143Y-99271429D01*
X122585714Y-95471429D02*
X122585714Y-95871429D01*
X122442857Y-95242857D02*
X122300000Y-95671429D01*
X122671428Y-95671429D01*
X122900000Y-95871429D02*
X122900000Y-95271429D01*
X122957143Y-95642857D02*
X123128572Y-95871429D01*
X123128572Y-95471429D02*
X122900000Y-95700000D01*
X123328571Y-95271429D02*
X123728571Y-95271429D01*
X123471428Y-95871429D01*
X127200000Y-88114286D02*
X127171429Y-88142857D01*
X127085715Y-88171429D01*
X127028572Y-88171429D01*
X126942857Y-88142857D01*
X126885715Y-88085714D01*
X126857143Y-88028571D01*
X126828572Y-87914286D01*
X126828572Y-87828571D01*
X126857143Y-87714286D01*
X126885715Y-87657143D01*
X126942857Y-87600000D01*
X127028572Y-87571429D01*
X127085715Y-87571429D01*
X127171429Y-87600000D01*
X127200000Y-87628571D01*
X127428572Y-87628571D02*
X127457143Y-87600000D01*
X127514286Y-87571429D01*
X127657143Y-87571429D01*
X127714286Y-87600000D01*
X127742857Y-87628571D01*
X127771429Y-87685714D01*
X127771429Y-87742857D01*
X127742857Y-87828571D01*
X127400000Y-88171429D01*
X127771429Y-88171429D01*
X126071429Y-88371429D02*
X126128572Y-88371429D01*
X126185715Y-88400000D01*
X126214286Y-88428571D01*
X126242857Y-88485714D01*
X126271429Y-88600000D01*
X126271429Y-88742857D01*
X126242857Y-88857143D01*
X126214286Y-88914286D01*
X126185715Y-88942857D01*
X126128572Y-88971429D01*
X126071429Y-88971429D01*
X126014286Y-88942857D01*
X125985715Y-88914286D01*
X125957143Y-88857143D01*
X125928572Y-88742857D01*
X125928572Y-88600000D01*
X125957143Y-88485714D01*
X125985715Y-88428571D01*
X126014286Y-88400000D01*
X126071429Y-88371429D01*
X126528572Y-88914286D02*
X126557144Y-88942857D01*
X126528572Y-88971429D01*
X126500001Y-88942857D01*
X126528572Y-88914286D01*
X126528572Y-88971429D01*
X127128572Y-88971429D02*
X126785715Y-88971429D01*
X126957143Y-88971429D02*
X126957143Y-88371429D01*
X126900000Y-88457143D01*
X126842858Y-88514286D01*
X126785715Y-88542857D01*
X127642858Y-88571429D02*
X127642858Y-88971429D01*
X127385715Y-88571429D02*
X127385715Y-88885714D01*
X127414287Y-88942857D01*
X127471429Y-88971429D01*
X127557144Y-88971429D01*
X127614287Y-88942857D01*
X127642858Y-88914286D01*
X125314286Y-94000000D02*
X125342857Y-94028571D01*
X125371429Y-94114285D01*
X125371429Y-94171428D01*
X125342857Y-94257143D01*
X125285714Y-94314285D01*
X125228571Y-94342857D01*
X125114286Y-94371428D01*
X125028571Y-94371428D01*
X124914286Y-94342857D01*
X124857143Y-94314285D01*
X124800000Y-94257143D01*
X124771429Y-94171428D01*
X124771429Y-94114285D01*
X124800000Y-94028571D01*
X124828571Y-94000000D01*
X124771429Y-93800000D02*
X124771429Y-93428571D01*
X125000000Y-93628571D01*
X125000000Y-93542857D01*
X125028571Y-93485714D01*
X125057143Y-93457143D01*
X125114286Y-93428571D01*
X125257143Y-93428571D01*
X125314286Y-93457143D01*
X125342857Y-93485714D01*
X125371429Y-93542857D01*
X125371429Y-93714285D01*
X125342857Y-93771428D01*
X125314286Y-93800000D01*
X125971429Y-94228571D02*
X125971429Y-94171428D01*
X126000000Y-94114285D01*
X126028571Y-94085714D01*
X126085714Y-94057143D01*
X126200000Y-94028571D01*
X126342857Y-94028571D01*
X126457143Y-94057143D01*
X126514286Y-94085714D01*
X126542857Y-94114285D01*
X126571429Y-94171428D01*
X126571429Y-94228571D01*
X126542857Y-94285714D01*
X126514286Y-94314285D01*
X126457143Y-94342857D01*
X126342857Y-94371428D01*
X126200000Y-94371428D01*
X126085714Y-94342857D01*
X126028571Y-94314285D01*
X126000000Y-94285714D01*
X125971429Y-94228571D01*
X126514286Y-93771428D02*
X126542857Y-93742856D01*
X126571429Y-93771428D01*
X126542857Y-93799999D01*
X126514286Y-93771428D01*
X126571429Y-93771428D01*
X126571429Y-93171428D02*
X126571429Y-93514285D01*
X126571429Y-93342857D02*
X125971429Y-93342857D01*
X126057143Y-93400000D01*
X126114286Y-93457142D01*
X126142857Y-93514285D01*
X126171429Y-92657142D02*
X126571429Y-92657142D01*
X126171429Y-92914285D02*
X126485714Y-92914285D01*
X126542857Y-92885713D01*
X126571429Y-92828571D01*
X126571429Y-92742856D01*
X126542857Y-92685713D01*
X126514286Y-92657142D01*
X136313886Y-99800000D02*
X136342457Y-99828571D01*
X136371029Y-99914285D01*
X136371029Y-99971428D01*
X136342457Y-100057143D01*
X136285314Y-100114285D01*
X136228171Y-100142857D01*
X136113886Y-100171428D01*
X136028171Y-100171428D01*
X135913886Y-100142857D01*
X135856743Y-100114285D01*
X135799600Y-100057143D01*
X135771029Y-99971428D01*
X135771029Y-99914285D01*
X135799600Y-99828571D01*
X135828171Y-99800000D01*
X135971029Y-99285714D02*
X136371029Y-99285714D01*
X135742457Y-99428571D02*
X136171029Y-99571428D01*
X136171029Y-99200000D01*
X138271029Y-100028571D02*
X138271029Y-99971428D01*
X138299600Y-99914285D01*
X138328171Y-99885714D01*
X138385314Y-99857143D01*
X138499600Y-99828571D01*
X138642457Y-99828571D01*
X138756743Y-99857143D01*
X138813886Y-99885714D01*
X138842457Y-99914285D01*
X138871029Y-99971428D01*
X138871029Y-100028571D01*
X138842457Y-100085714D01*
X138813886Y-100114285D01*
X138756743Y-100142857D01*
X138642457Y-100171428D01*
X138499600Y-100171428D01*
X138385314Y-100142857D01*
X138328171Y-100114285D01*
X138299600Y-100085714D01*
X138271029Y-100028571D01*
X138813886Y-99571428D02*
X138842457Y-99542856D01*
X138871029Y-99571428D01*
X138842457Y-99599999D01*
X138813886Y-99571428D01*
X138871029Y-99571428D01*
X138871029Y-98971428D02*
X138871029Y-99314285D01*
X138871029Y-99142857D02*
X138271029Y-99142857D01*
X138356743Y-99200000D01*
X138413886Y-99257142D01*
X138442457Y-99314285D01*
X138471029Y-98457142D02*
X138871029Y-98457142D01*
X138471029Y-98714285D02*
X138785314Y-98714285D01*
X138842457Y-98685713D01*
X138871029Y-98628571D01*
X138871029Y-98542856D01*
X138842457Y-98485713D01*
X138813886Y-98457142D01*
X138548601Y-87137258D02*
X138577172Y-87165829D01*
X138605744Y-87251543D01*
X138605744Y-87308686D01*
X138577172Y-87394401D01*
X138520029Y-87451543D01*
X138462886Y-87480115D01*
X138348601Y-87508686D01*
X138262886Y-87508686D01*
X138148601Y-87480115D01*
X138091458Y-87451543D01*
X138034315Y-87394401D01*
X138005744Y-87308686D01*
X138005744Y-87251543D01*
X138034315Y-87165829D01*
X138062886Y-87137258D01*
X138005744Y-86594401D02*
X138005744Y-86880115D01*
X138291458Y-86908686D01*
X138262886Y-86880115D01*
X138234315Y-86822972D01*
X138234315Y-86680115D01*
X138262886Y-86622972D01*
X138291458Y-86594401D01*
X138348601Y-86565829D01*
X138491458Y-86565829D01*
X138548601Y-86594401D01*
X138577172Y-86622972D01*
X138605744Y-86680115D01*
X138605744Y-86822972D01*
X138577172Y-86880115D01*
X138548601Y-86908686D01*
X137871429Y-88885714D02*
X137871429Y-89228571D01*
X137871429Y-89057143D02*
X137271429Y-89057143D01*
X137357143Y-89114286D01*
X137414286Y-89171428D01*
X137442857Y-89228571D01*
X137271429Y-88514285D02*
X137271429Y-88457142D01*
X137300000Y-88399999D01*
X137328571Y-88371428D01*
X137385714Y-88342857D01*
X137500000Y-88314285D01*
X137642857Y-88314285D01*
X137757143Y-88342857D01*
X137814286Y-88371428D01*
X137842857Y-88399999D01*
X137871429Y-88457142D01*
X137871429Y-88514285D01*
X137842857Y-88571428D01*
X137814286Y-88599999D01*
X137757143Y-88628571D01*
X137642857Y-88657142D01*
X137500000Y-88657142D01*
X137385714Y-88628571D01*
X137328571Y-88599999D01*
X137300000Y-88571428D01*
X137271429Y-88514285D01*
X137471429Y-88057142D02*
X137871429Y-88057142D01*
X137528571Y-88057142D02*
X137500000Y-88028570D01*
X137471429Y-87971428D01*
X137471429Y-87885713D01*
X137500000Y-87828570D01*
X137557143Y-87799999D01*
X137871429Y-87799999D01*
X140290022Y-86378680D02*
X140318593Y-86407251D01*
X140347165Y-86492965D01*
X140347165Y-86550108D01*
X140318593Y-86635823D01*
X140261450Y-86692965D01*
X140204307Y-86721537D01*
X140090022Y-86750108D01*
X140004307Y-86750108D01*
X139890022Y-86721537D01*
X139832879Y-86692965D01*
X139775736Y-86635823D01*
X139747165Y-86550108D01*
X139747165Y-86492965D01*
X139775736Y-86407251D01*
X139804307Y-86378680D01*
X139747165Y-85864394D02*
X139747165Y-85978680D01*
X139775736Y-86035823D01*
X139804307Y-86064394D01*
X139890022Y-86121537D01*
X140004307Y-86150108D01*
X140232879Y-86150108D01*
X140290022Y-86121537D01*
X140318593Y-86092965D01*
X140347165Y-86035823D01*
X140347165Y-85921537D01*
X140318593Y-85864394D01*
X140290022Y-85835823D01*
X140232879Y-85807251D01*
X140090022Y-85807251D01*
X140032879Y-85835823D01*
X140004307Y-85864394D01*
X139975736Y-85921537D01*
X139975736Y-86035823D01*
X140004307Y-86092965D01*
X140032879Y-86121537D01*
X140090022Y-86150108D01*
X141071429Y-86300000D02*
X141071429Y-86642857D01*
X141071429Y-86471429D02*
X140471429Y-86471429D01*
X140557143Y-86528572D01*
X140614286Y-86585714D01*
X140642857Y-86642857D01*
X140671429Y-85785714D02*
X141071429Y-85785714D01*
X140671429Y-86042857D02*
X140985714Y-86042857D01*
X141042857Y-86014285D01*
X141071429Y-85957143D01*
X141071429Y-85871428D01*
X141042857Y-85814285D01*
X141014286Y-85785714D01*
X125000000Y-104914286D02*
X124971429Y-104942857D01*
X124885715Y-104971429D01*
X124828572Y-104971429D01*
X124742857Y-104942857D01*
X124685715Y-104885714D01*
X124657143Y-104828571D01*
X124628572Y-104714286D01*
X124628572Y-104628571D01*
X124657143Y-104514286D01*
X124685715Y-104457143D01*
X124742857Y-104400000D01*
X124828572Y-104371429D01*
X124885715Y-104371429D01*
X124971429Y-104400000D01*
X125000000Y-104428571D01*
X125200000Y-104371429D02*
X125600000Y-104371429D01*
X125342857Y-104971429D01*
X127114286Y-104971429D02*
X126771429Y-104971429D01*
X126942857Y-104971429D02*
X126942857Y-104371429D01*
X126885714Y-104457143D01*
X126828572Y-104514286D01*
X126771429Y-104542857D01*
X127485715Y-104371429D02*
X127542858Y-104371429D01*
X127600001Y-104400000D01*
X127628572Y-104428571D01*
X127657143Y-104485714D01*
X127685715Y-104600000D01*
X127685715Y-104742857D01*
X127657143Y-104857143D01*
X127628572Y-104914286D01*
X127600001Y-104942857D01*
X127542858Y-104971429D01*
X127485715Y-104971429D01*
X127428572Y-104942857D01*
X127400001Y-104914286D01*
X127371429Y-104857143D01*
X127342858Y-104742857D01*
X127342858Y-104600000D01*
X127371429Y-104485714D01*
X127400001Y-104428571D01*
X127428572Y-104400000D01*
X127485715Y-104371429D01*
X128200001Y-104571429D02*
X128200001Y-104971429D01*
X127942858Y-104571429D02*
X127942858Y-104885714D01*
X127971430Y-104942857D01*
X128028572Y-104971429D01*
X128114287Y-104971429D01*
X128171430Y-104942857D01*
X128200001Y-104914286D01*
X123663000Y-65183286D02*
X123634429Y-65211857D01*
X123548715Y-65240429D01*
X123491572Y-65240429D01*
X123405857Y-65211857D01*
X123348715Y-65154714D01*
X123320143Y-65097571D01*
X123291572Y-64983286D01*
X123291572Y-64897571D01*
X123320143Y-64783286D01*
X123348715Y-64726143D01*
X123405857Y-64669000D01*
X123491572Y-64640429D01*
X123548715Y-64640429D01*
X123634429Y-64669000D01*
X123663000Y-64697571D01*
X124005857Y-64897571D02*
X123948715Y-64869000D01*
X123920143Y-64840429D01*
X123891572Y-64783286D01*
X123891572Y-64754714D01*
X123920143Y-64697571D01*
X123948715Y-64669000D01*
X124005857Y-64640429D01*
X124120143Y-64640429D01*
X124177286Y-64669000D01*
X124205857Y-64697571D01*
X124234429Y-64754714D01*
X124234429Y-64783286D01*
X124205857Y-64840429D01*
X124177286Y-64869000D01*
X124120143Y-64897571D01*
X124005857Y-64897571D01*
X123948715Y-64926143D01*
X123920143Y-64954714D01*
X123891572Y-65011857D01*
X123891572Y-65126143D01*
X123920143Y-65183286D01*
X123948715Y-65211857D01*
X124005857Y-65240429D01*
X124120143Y-65240429D01*
X124177286Y-65211857D01*
X124205857Y-65183286D01*
X124234429Y-65126143D01*
X124234429Y-65011857D01*
X124205857Y-64954714D01*
X124177286Y-64926143D01*
X124120143Y-64897571D01*
X123414286Y-60271429D02*
X123071429Y-60271429D01*
X123242857Y-60271429D02*
X123242857Y-59671429D01*
X123185714Y-59757143D01*
X123128572Y-59814286D01*
X123071429Y-59842857D01*
X123785715Y-59671429D02*
X123842858Y-59671429D01*
X123900001Y-59700000D01*
X123928572Y-59728571D01*
X123957143Y-59785714D01*
X123985715Y-59900000D01*
X123985715Y-60042857D01*
X123957143Y-60157143D01*
X123928572Y-60214286D01*
X123900001Y-60242857D01*
X123842858Y-60271429D01*
X123785715Y-60271429D01*
X123728572Y-60242857D01*
X123700001Y-60214286D01*
X123671429Y-60157143D01*
X123642858Y-60042857D01*
X123642858Y-59900000D01*
X123671429Y-59785714D01*
X123700001Y-59728571D01*
X123728572Y-59700000D01*
X123785715Y-59671429D01*
X124500001Y-59871429D02*
X124500001Y-60271429D01*
X124242858Y-59871429D02*
X124242858Y-60185714D01*
X124271430Y-60242857D01*
X124328572Y-60271429D01*
X124414287Y-60271429D01*
X124471430Y-60242857D01*
X124500001Y-60214286D01*
X130614286Y-65885715D02*
X130642857Y-65914286D01*
X130671429Y-66000000D01*
X130671429Y-66057143D01*
X130642857Y-66142858D01*
X130585714Y-66200000D01*
X130528571Y-66228572D01*
X130414286Y-66257143D01*
X130328571Y-66257143D01*
X130214286Y-66228572D01*
X130157143Y-66200000D01*
X130100000Y-66142858D01*
X130071429Y-66057143D01*
X130071429Y-66000000D01*
X130100000Y-65914286D01*
X130128571Y-65885715D01*
X130671429Y-65314286D02*
X130671429Y-65657143D01*
X130671429Y-65485715D02*
X130071429Y-65485715D01*
X130157143Y-65542858D01*
X130214286Y-65600000D01*
X130242857Y-65657143D01*
X130071429Y-64942857D02*
X130071429Y-64885714D01*
X130100000Y-64828571D01*
X130128571Y-64800000D01*
X130185714Y-64771429D01*
X130300000Y-64742857D01*
X130442857Y-64742857D01*
X130557143Y-64771429D01*
X130614286Y-64800000D01*
X130642857Y-64828571D01*
X130671429Y-64885714D01*
X130671429Y-64942857D01*
X130642857Y-65000000D01*
X130614286Y-65028571D01*
X130557143Y-65057143D01*
X130442857Y-65085714D01*
X130300000Y-65085714D01*
X130185714Y-65057143D01*
X130128571Y-65028571D01*
X130100000Y-65000000D01*
X130071429Y-64942857D01*
X130671429Y-68185714D02*
X130671429Y-68528571D01*
X130671429Y-68357143D02*
X130071429Y-68357143D01*
X130157143Y-68414286D01*
X130214286Y-68471428D01*
X130242857Y-68528571D01*
X130071429Y-67814285D02*
X130071429Y-67757142D01*
X130100000Y-67699999D01*
X130128571Y-67671428D01*
X130185714Y-67642857D01*
X130300000Y-67614285D01*
X130442857Y-67614285D01*
X130557143Y-67642857D01*
X130614286Y-67671428D01*
X130642857Y-67699999D01*
X130671429Y-67757142D01*
X130671429Y-67814285D01*
X130642857Y-67871428D01*
X130614286Y-67899999D01*
X130557143Y-67928571D01*
X130442857Y-67957142D01*
X130300000Y-67957142D01*
X130185714Y-67928571D01*
X130128571Y-67899999D01*
X130100000Y-67871428D01*
X130071429Y-67814285D01*
X130271429Y-67099999D02*
X130671429Y-67099999D01*
X130271429Y-67357142D02*
X130585714Y-67357142D01*
X130642857Y-67328570D01*
X130671429Y-67271428D01*
X130671429Y-67185713D01*
X130642857Y-67128570D01*
X130614286Y-67099999D01*
X140814285Y-83814286D02*
X140785714Y-83842857D01*
X140700000Y-83871429D01*
X140642857Y-83871429D01*
X140557142Y-83842857D01*
X140500000Y-83785714D01*
X140471428Y-83728571D01*
X140442857Y-83614286D01*
X140442857Y-83528571D01*
X140471428Y-83414286D01*
X140500000Y-83357143D01*
X140557142Y-83300000D01*
X140642857Y-83271429D01*
X140700000Y-83271429D01*
X140785714Y-83300000D01*
X140814285Y-83328571D01*
X141385714Y-83871429D02*
X141042857Y-83871429D01*
X141214285Y-83871429D02*
X141214285Y-83271429D01*
X141157142Y-83357143D01*
X141100000Y-83414286D01*
X141042857Y-83442857D01*
X141957143Y-83871429D02*
X141614286Y-83871429D01*
X141785714Y-83871429D02*
X141785714Y-83271429D01*
X141728571Y-83357143D01*
X141671429Y-83414286D01*
X141614286Y-83442857D01*
X140857143Y-82871429D02*
X140514286Y-82871429D01*
X140685714Y-82871429D02*
X140685714Y-82271429D01*
X140628571Y-82357143D01*
X140571429Y-82414286D01*
X140514286Y-82442857D01*
X141228572Y-82271429D02*
X141285715Y-82271429D01*
X141342858Y-82300000D01*
X141371429Y-82328571D01*
X141400000Y-82385714D01*
X141428572Y-82500000D01*
X141428572Y-82642857D01*
X141400000Y-82757143D01*
X141371429Y-82814286D01*
X141342858Y-82842857D01*
X141285715Y-82871429D01*
X141228572Y-82871429D01*
X141171429Y-82842857D01*
X141142858Y-82814286D01*
X141114286Y-82757143D01*
X141085715Y-82642857D01*
X141085715Y-82500000D01*
X141114286Y-82385714D01*
X141142858Y-82328571D01*
X141171429Y-82300000D01*
X141228572Y-82271429D01*
X141685715Y-82471429D02*
X141685715Y-83071429D01*
X141685715Y-82500000D02*
X141742858Y-82471429D01*
X141857144Y-82471429D01*
X141914287Y-82500000D01*
X141942858Y-82528571D01*
X141971429Y-82585714D01*
X141971429Y-82757143D01*
X141942858Y-82814286D01*
X141914287Y-82842857D01*
X141857144Y-82871429D01*
X141742858Y-82871429D01*
X141685715Y-82842857D01*
X142428572Y-82557143D02*
X142228572Y-82557143D01*
X142228572Y-82871429D02*
X142228572Y-82271429D01*
X142514286Y-82271429D01*
X143816286Y-81054415D02*
X143844857Y-81082986D01*
X143873429Y-81168700D01*
X143873429Y-81225843D01*
X143844857Y-81311558D01*
X143787714Y-81368700D01*
X143730571Y-81397272D01*
X143616286Y-81425843D01*
X143530571Y-81425843D01*
X143416286Y-81397272D01*
X143359143Y-81368700D01*
X143302000Y-81311558D01*
X143273429Y-81225843D01*
X143273429Y-81168700D01*
X143302000Y-81082986D01*
X143330571Y-81054415D01*
X143873429Y-80482986D02*
X143873429Y-80825843D01*
X143873429Y-80654415D02*
X143273429Y-80654415D01*
X143359143Y-80711558D01*
X143416286Y-80768700D01*
X143444857Y-80825843D01*
X143330571Y-80254414D02*
X143302000Y-80225843D01*
X143273429Y-80168700D01*
X143273429Y-80025843D01*
X143302000Y-79968700D01*
X143330571Y-79940129D01*
X143387714Y-79911557D01*
X143444857Y-79911557D01*
X143530571Y-79940129D01*
X143873429Y-80282986D01*
X143873429Y-79911557D01*
X144673429Y-81011557D02*
X144673429Y-81354414D01*
X144673429Y-81182986D02*
X144073429Y-81182986D01*
X144159143Y-81240129D01*
X144216286Y-81297271D01*
X144244857Y-81354414D01*
X144073429Y-80640128D02*
X144073429Y-80582985D01*
X144102000Y-80525842D01*
X144130571Y-80497271D01*
X144187714Y-80468700D01*
X144302000Y-80440128D01*
X144444857Y-80440128D01*
X144559143Y-80468700D01*
X144616286Y-80497271D01*
X144644857Y-80525842D01*
X144673429Y-80582985D01*
X144673429Y-80640128D01*
X144644857Y-80697271D01*
X144616286Y-80725842D01*
X144559143Y-80754414D01*
X144444857Y-80782985D01*
X144302000Y-80782985D01*
X144187714Y-80754414D01*
X144130571Y-80725842D01*
X144102000Y-80697271D01*
X144073429Y-80640128D01*
X144273429Y-80182985D02*
X144873429Y-80182985D01*
X144302000Y-80182985D02*
X144273429Y-80125842D01*
X144273429Y-80011556D01*
X144302000Y-79954413D01*
X144330571Y-79925842D01*
X144387714Y-79897271D01*
X144559143Y-79897271D01*
X144616286Y-79925842D01*
X144644857Y-79954413D01*
X144673429Y-80011556D01*
X144673429Y-80125842D01*
X144644857Y-80182985D01*
X144359143Y-79440128D02*
X144359143Y-79640128D01*
X144673429Y-79640128D02*
X144073429Y-79640128D01*
X144073429Y-79354414D01*
X130914286Y-75585715D02*
X130942857Y-75614286D01*
X130971429Y-75700000D01*
X130971429Y-75757143D01*
X130942857Y-75842858D01*
X130885714Y-75900000D01*
X130828571Y-75928572D01*
X130714286Y-75957143D01*
X130628571Y-75957143D01*
X130514286Y-75928572D01*
X130457143Y-75900000D01*
X130400000Y-75842858D01*
X130371429Y-75757143D01*
X130371429Y-75700000D01*
X130400000Y-75614286D01*
X130428571Y-75585715D01*
X130971429Y-75014286D02*
X130971429Y-75357143D01*
X130971429Y-75185715D02*
X130371429Y-75185715D01*
X130457143Y-75242858D01*
X130514286Y-75300000D01*
X130542857Y-75357143D01*
X130371429Y-74814286D02*
X130371429Y-74442857D01*
X130600000Y-74642857D01*
X130600000Y-74557143D01*
X130628571Y-74500000D01*
X130657143Y-74471429D01*
X130714286Y-74442857D01*
X130857143Y-74442857D01*
X130914286Y-74471429D01*
X130942857Y-74500000D01*
X130971429Y-74557143D01*
X130971429Y-74728571D01*
X130942857Y-74785714D01*
X130914286Y-74814286D01*
X131171429Y-75728571D02*
X131171429Y-75671428D01*
X131200000Y-75614285D01*
X131228571Y-75585714D01*
X131285714Y-75557143D01*
X131400000Y-75528571D01*
X131542857Y-75528571D01*
X131657143Y-75557143D01*
X131714286Y-75585714D01*
X131742857Y-75614285D01*
X131771429Y-75671428D01*
X131771429Y-75728571D01*
X131742857Y-75785714D01*
X131714286Y-75814285D01*
X131657143Y-75842857D01*
X131542857Y-75871428D01*
X131400000Y-75871428D01*
X131285714Y-75842857D01*
X131228571Y-75814285D01*
X131200000Y-75785714D01*
X131171429Y-75728571D01*
X131714286Y-75271428D02*
X131742857Y-75242856D01*
X131771429Y-75271428D01*
X131742857Y-75299999D01*
X131714286Y-75271428D01*
X131771429Y-75271428D01*
X131771429Y-74671428D02*
X131771429Y-75014285D01*
X131771429Y-74842857D02*
X131171429Y-74842857D01*
X131257143Y-74900000D01*
X131314286Y-74957142D01*
X131342857Y-75014285D01*
X131371429Y-74157142D02*
X131771429Y-74157142D01*
X131371429Y-74414285D02*
X131685714Y-74414285D01*
X131742857Y-74385713D01*
X131771429Y-74328571D01*
X131771429Y-74242856D01*
X131742857Y-74185713D01*
X131714286Y-74157142D01*
X141414286Y-61685715D02*
X141442857Y-61714286D01*
X141471429Y-61800000D01*
X141471429Y-61857143D01*
X141442857Y-61942858D01*
X141385714Y-62000000D01*
X141328571Y-62028572D01*
X141214286Y-62057143D01*
X141128571Y-62057143D01*
X141014286Y-62028572D01*
X140957143Y-62000000D01*
X140900000Y-61942858D01*
X140871429Y-61857143D01*
X140871429Y-61800000D01*
X140900000Y-61714286D01*
X140928571Y-61685715D01*
X141471429Y-61114286D02*
X141471429Y-61457143D01*
X141471429Y-61285715D02*
X140871429Y-61285715D01*
X140957143Y-61342858D01*
X141014286Y-61400000D01*
X141042857Y-61457143D01*
X141071429Y-60600000D02*
X141471429Y-60600000D01*
X140842857Y-60742857D02*
X141271429Y-60885714D01*
X141271429Y-60514286D01*
X140828571Y-65271429D02*
X140800000Y-65242858D01*
X140771429Y-65185715D01*
X140771429Y-65042858D01*
X140800000Y-64985715D01*
X140828571Y-64957144D01*
X140885714Y-64928572D01*
X140942857Y-64928572D01*
X141028571Y-64957144D01*
X141371429Y-65300001D01*
X141371429Y-64928572D01*
X140828571Y-64700000D02*
X140800000Y-64671429D01*
X140771429Y-64614286D01*
X140771429Y-64471429D01*
X140800000Y-64414286D01*
X140828571Y-64385715D01*
X140885714Y-64357143D01*
X140942857Y-64357143D01*
X141028571Y-64385715D01*
X141371429Y-64728572D01*
X141371429Y-64357143D01*
X140771429Y-63985714D02*
X140771429Y-63928571D01*
X140800000Y-63871428D01*
X140828571Y-63842857D01*
X140885714Y-63814286D01*
X141000000Y-63785714D01*
X141142857Y-63785714D01*
X141257143Y-63814286D01*
X141314286Y-63842857D01*
X141342857Y-63871428D01*
X141371429Y-63928571D01*
X141371429Y-63985714D01*
X141342857Y-64042857D01*
X141314286Y-64071428D01*
X141257143Y-64100000D01*
X141142857Y-64128571D01*
X141000000Y-64128571D01*
X140885714Y-64100000D01*
X140828571Y-64071428D01*
X140800000Y-64042857D01*
X140771429Y-63985714D01*
X140971429Y-63528571D02*
X141571429Y-63528571D01*
X141000000Y-63528571D02*
X140971429Y-63471428D01*
X140971429Y-63357142D01*
X141000000Y-63299999D01*
X141028571Y-63271428D01*
X141085714Y-63242857D01*
X141257143Y-63242857D01*
X141314286Y-63271428D01*
X141342857Y-63299999D01*
X141371429Y-63357142D01*
X141371429Y-63471428D01*
X141342857Y-63528571D01*
X141057143Y-62785714D02*
X141057143Y-62985714D01*
X141371429Y-62985714D02*
X140771429Y-62985714D01*
X140771429Y-62700000D01*
X143114286Y-66485715D02*
X143142857Y-66514286D01*
X143171429Y-66600000D01*
X143171429Y-66657143D01*
X143142857Y-66742858D01*
X143085714Y-66800000D01*
X143028571Y-66828572D01*
X142914286Y-66857143D01*
X142828571Y-66857143D01*
X142714286Y-66828572D01*
X142657143Y-66800000D01*
X142600000Y-66742858D01*
X142571429Y-66657143D01*
X142571429Y-66600000D01*
X142600000Y-66514286D01*
X142628571Y-66485715D01*
X143171429Y-65914286D02*
X143171429Y-66257143D01*
X143171429Y-66085715D02*
X142571429Y-66085715D01*
X142657143Y-66142858D01*
X142714286Y-66200000D01*
X142742857Y-66257143D01*
X142571429Y-65371429D02*
X142571429Y-65657143D01*
X142857143Y-65685714D01*
X142828571Y-65657143D01*
X142800000Y-65600000D01*
X142800000Y-65457143D01*
X142828571Y-65400000D01*
X142857143Y-65371429D01*
X142914286Y-65342857D01*
X143057143Y-65342857D01*
X143114286Y-65371429D01*
X143142857Y-65400000D01*
X143171429Y-65457143D01*
X143171429Y-65600000D01*
X143142857Y-65657143D01*
X143114286Y-65685714D01*
X144171429Y-66485714D02*
X144171429Y-66828571D01*
X144171429Y-66657143D02*
X143571429Y-66657143D01*
X143657143Y-66714286D01*
X143714286Y-66771428D01*
X143742857Y-66828571D01*
X143571429Y-66114285D02*
X143571429Y-66057142D01*
X143600000Y-65999999D01*
X143628571Y-65971428D01*
X143685714Y-65942857D01*
X143800000Y-65914285D01*
X143942857Y-65914285D01*
X144057143Y-65942857D01*
X144114286Y-65971428D01*
X144142857Y-65999999D01*
X144171429Y-66057142D01*
X144171429Y-66114285D01*
X144142857Y-66171428D01*
X144114286Y-66199999D01*
X144057143Y-66228571D01*
X143942857Y-66257142D01*
X143800000Y-66257142D01*
X143685714Y-66228571D01*
X143628571Y-66199999D01*
X143600000Y-66171428D01*
X143571429Y-66114285D01*
X143771429Y-65657142D02*
X144171429Y-65657142D01*
X143828571Y-65657142D02*
X143800000Y-65628570D01*
X143771429Y-65571428D01*
X143771429Y-65485713D01*
X143800000Y-65428570D01*
X143857143Y-65399999D01*
X144171429Y-65399999D01*
X143814286Y-77485715D02*
X143842857Y-77514286D01*
X143871429Y-77600000D01*
X143871429Y-77657143D01*
X143842857Y-77742858D01*
X143785714Y-77800000D01*
X143728571Y-77828572D01*
X143614286Y-77857143D01*
X143528571Y-77857143D01*
X143414286Y-77828572D01*
X143357143Y-77800000D01*
X143300000Y-77742858D01*
X143271429Y-77657143D01*
X143271429Y-77600000D01*
X143300000Y-77514286D01*
X143328571Y-77485715D01*
X143871429Y-76914286D02*
X143871429Y-77257143D01*
X143871429Y-77085715D02*
X143271429Y-77085715D01*
X143357143Y-77142858D01*
X143414286Y-77200000D01*
X143442857Y-77257143D01*
X143271429Y-76400000D02*
X143271429Y-76514286D01*
X143300000Y-76571429D01*
X143328571Y-76600000D01*
X143414286Y-76657143D01*
X143528571Y-76685714D01*
X143757143Y-76685714D01*
X143814286Y-76657143D01*
X143842857Y-76628571D01*
X143871429Y-76571429D01*
X143871429Y-76457143D01*
X143842857Y-76400000D01*
X143814286Y-76371429D01*
X143757143Y-76342857D01*
X143614286Y-76342857D01*
X143557143Y-76371429D01*
X143528571Y-76400000D01*
X143500000Y-76457143D01*
X143500000Y-76571429D01*
X143528571Y-76628571D01*
X143557143Y-76657143D01*
X143614286Y-76685714D01*
X144171429Y-78657143D02*
X144171429Y-78285714D01*
X144400000Y-78485714D01*
X144400000Y-78400000D01*
X144428571Y-78342857D01*
X144457143Y-78314286D01*
X144514286Y-78285714D01*
X144657143Y-78285714D01*
X144714286Y-78314286D01*
X144742857Y-78342857D01*
X144771429Y-78400000D01*
X144771429Y-78571428D01*
X144742857Y-78628571D01*
X144714286Y-78657143D01*
X144714286Y-78028571D02*
X144742857Y-77999999D01*
X144771429Y-78028571D01*
X144742857Y-78057142D01*
X144714286Y-78028571D01*
X144771429Y-78028571D01*
X144171429Y-77800000D02*
X144171429Y-77428571D01*
X144400000Y-77628571D01*
X144400000Y-77542857D01*
X144428571Y-77485714D01*
X144457143Y-77457143D01*
X144514286Y-77428571D01*
X144657143Y-77428571D01*
X144714286Y-77457143D01*
X144742857Y-77485714D01*
X144771429Y-77542857D01*
X144771429Y-77714285D01*
X144742857Y-77771428D01*
X144714286Y-77800000D01*
X144371429Y-77171428D02*
X144971429Y-77171428D01*
X144400000Y-77171428D02*
X144371429Y-77114285D01*
X144371429Y-76999999D01*
X144400000Y-76942856D01*
X144428571Y-76914285D01*
X144485714Y-76885714D01*
X144657143Y-76885714D01*
X144714286Y-76914285D01*
X144742857Y-76942856D01*
X144771429Y-76999999D01*
X144771429Y-77114285D01*
X144742857Y-77171428D01*
X144457143Y-76428571D02*
X144457143Y-76628571D01*
X144771429Y-76628571D02*
X144171429Y-76628571D01*
X144171429Y-76342857D01*
X141014286Y-77185715D02*
X141042857Y-77214286D01*
X141071429Y-77300000D01*
X141071429Y-77357143D01*
X141042857Y-77442858D01*
X140985714Y-77500000D01*
X140928571Y-77528572D01*
X140814286Y-77557143D01*
X140728571Y-77557143D01*
X140614286Y-77528572D01*
X140557143Y-77500000D01*
X140500000Y-77442858D01*
X140471429Y-77357143D01*
X140471429Y-77300000D01*
X140500000Y-77214286D01*
X140528571Y-77185715D01*
X141071429Y-76614286D02*
X141071429Y-76957143D01*
X141071429Y-76785715D02*
X140471429Y-76785715D01*
X140557143Y-76842858D01*
X140614286Y-76900000D01*
X140642857Y-76957143D01*
X140471429Y-76414286D02*
X140471429Y-76014286D01*
X141071429Y-76271429D01*
X137071429Y-77185714D02*
X137071429Y-77528571D01*
X137071429Y-77357143D02*
X136471429Y-77357143D01*
X136557143Y-77414286D01*
X136614286Y-77471428D01*
X136642857Y-77528571D01*
X136471429Y-76814285D02*
X136471429Y-76757142D01*
X136500000Y-76699999D01*
X136528571Y-76671428D01*
X136585714Y-76642857D01*
X136700000Y-76614285D01*
X136842857Y-76614285D01*
X136957143Y-76642857D01*
X137014286Y-76671428D01*
X137042857Y-76699999D01*
X137071429Y-76757142D01*
X137071429Y-76814285D01*
X137042857Y-76871428D01*
X137014286Y-76899999D01*
X136957143Y-76928571D01*
X136842857Y-76957142D01*
X136700000Y-76957142D01*
X136585714Y-76928571D01*
X136528571Y-76899999D01*
X136500000Y-76871428D01*
X136471429Y-76814285D01*
X136671429Y-76357142D02*
X137071429Y-76357142D01*
X136728571Y-76357142D02*
X136700000Y-76328570D01*
X136671429Y-76271428D01*
X136671429Y-76185713D01*
X136700000Y-76128570D01*
X136757143Y-76099999D01*
X137071429Y-76099999D01*
X133014285Y-71714286D02*
X132985714Y-71742857D01*
X132900000Y-71771429D01*
X132842857Y-71771429D01*
X132757142Y-71742857D01*
X132700000Y-71685714D01*
X132671428Y-71628571D01*
X132642857Y-71514286D01*
X132642857Y-71428571D01*
X132671428Y-71314286D01*
X132700000Y-71257143D01*
X132757142Y-71200000D01*
X132842857Y-71171429D01*
X132900000Y-71171429D01*
X132985714Y-71200000D01*
X133014285Y-71228571D01*
X133585714Y-71771429D02*
X133242857Y-71771429D01*
X133414285Y-71771429D02*
X133414285Y-71171429D01*
X133357142Y-71257143D01*
X133300000Y-71314286D01*
X133242857Y-71342857D01*
X133928571Y-71428571D02*
X133871429Y-71400000D01*
X133842857Y-71371429D01*
X133814286Y-71314286D01*
X133814286Y-71285714D01*
X133842857Y-71228571D01*
X133871429Y-71200000D01*
X133928571Y-71171429D01*
X134042857Y-71171429D01*
X134100000Y-71200000D01*
X134128571Y-71228571D01*
X134157143Y-71285714D01*
X134157143Y-71314286D01*
X134128571Y-71371429D01*
X134100000Y-71400000D01*
X134042857Y-71428571D01*
X133928571Y-71428571D01*
X133871429Y-71457143D01*
X133842857Y-71485714D01*
X133814286Y-71542857D01*
X133814286Y-71657143D01*
X133842857Y-71714286D01*
X133871429Y-71742857D01*
X133928571Y-71771429D01*
X134042857Y-71771429D01*
X134100000Y-71742857D01*
X134128571Y-71714286D01*
X134157143Y-71657143D01*
X134157143Y-71542857D01*
X134128571Y-71485714D01*
X134100000Y-71457143D01*
X134042857Y-71428571D01*
X131171429Y-73428571D02*
X131171429Y-73371428D01*
X131200000Y-73314285D01*
X131228571Y-73285714D01*
X131285714Y-73257143D01*
X131400000Y-73228571D01*
X131542857Y-73228571D01*
X131657143Y-73257143D01*
X131714286Y-73285714D01*
X131742857Y-73314285D01*
X131771429Y-73371428D01*
X131771429Y-73428571D01*
X131742857Y-73485714D01*
X131714286Y-73514285D01*
X131657143Y-73542857D01*
X131542857Y-73571428D01*
X131400000Y-73571428D01*
X131285714Y-73542857D01*
X131228571Y-73514285D01*
X131200000Y-73485714D01*
X131171429Y-73428571D01*
X131714286Y-72971428D02*
X131742857Y-72942856D01*
X131771429Y-72971428D01*
X131742857Y-72999999D01*
X131714286Y-72971428D01*
X131771429Y-72971428D01*
X131771429Y-72371428D02*
X131771429Y-72714285D01*
X131771429Y-72542857D02*
X131171429Y-72542857D01*
X131257143Y-72600000D01*
X131314286Y-72657142D01*
X131342857Y-72714285D01*
X131371429Y-71857142D02*
X131771429Y-71857142D01*
X131371429Y-72114285D02*
X131685714Y-72114285D01*
X131742857Y-72085713D01*
X131771429Y-72028571D01*
X131771429Y-71942856D01*
X131742857Y-71885713D01*
X131714286Y-71857142D01*
X138314286Y-61585715D02*
X138342857Y-61614286D01*
X138371429Y-61700000D01*
X138371429Y-61757143D01*
X138342857Y-61842858D01*
X138285714Y-61900000D01*
X138228571Y-61928572D01*
X138114286Y-61957143D01*
X138028571Y-61957143D01*
X137914286Y-61928572D01*
X137857143Y-61900000D01*
X137800000Y-61842858D01*
X137771429Y-61757143D01*
X137771429Y-61700000D01*
X137800000Y-61614286D01*
X137828571Y-61585715D01*
X138371429Y-61014286D02*
X138371429Y-61357143D01*
X138371429Y-61185715D02*
X137771429Y-61185715D01*
X137857143Y-61242858D01*
X137914286Y-61300000D01*
X137942857Y-61357143D01*
X138371429Y-60728571D02*
X138371429Y-60614286D01*
X138342857Y-60557143D01*
X138314286Y-60528571D01*
X138228571Y-60471429D01*
X138114286Y-60442857D01*
X137885714Y-60442857D01*
X137828571Y-60471429D01*
X137800000Y-60500000D01*
X137771429Y-60557143D01*
X137771429Y-60671429D01*
X137800000Y-60728571D01*
X137828571Y-60757143D01*
X137885714Y-60785714D01*
X138028571Y-60785714D01*
X138085714Y-60757143D01*
X138114286Y-60728571D01*
X138142857Y-60671429D01*
X138142857Y-60557143D01*
X138114286Y-60500000D01*
X138085714Y-60471429D01*
X138028571Y-60442857D01*
X137828571Y-65271429D02*
X137800000Y-65242858D01*
X137771429Y-65185715D01*
X137771429Y-65042858D01*
X137800000Y-64985715D01*
X137828571Y-64957144D01*
X137885714Y-64928572D01*
X137942857Y-64928572D01*
X138028571Y-64957144D01*
X138371429Y-65300001D01*
X138371429Y-64928572D01*
X137828571Y-64700000D02*
X137800000Y-64671429D01*
X137771429Y-64614286D01*
X137771429Y-64471429D01*
X137800000Y-64414286D01*
X137828571Y-64385715D01*
X137885714Y-64357143D01*
X137942857Y-64357143D01*
X138028571Y-64385715D01*
X138371429Y-64728572D01*
X138371429Y-64357143D01*
X137771429Y-63985714D02*
X137771429Y-63928571D01*
X137800000Y-63871428D01*
X137828571Y-63842857D01*
X137885714Y-63814286D01*
X138000000Y-63785714D01*
X138142857Y-63785714D01*
X138257143Y-63814286D01*
X138314286Y-63842857D01*
X138342857Y-63871428D01*
X138371429Y-63928571D01*
X138371429Y-63985714D01*
X138342857Y-64042857D01*
X138314286Y-64071428D01*
X138257143Y-64100000D01*
X138142857Y-64128571D01*
X138000000Y-64128571D01*
X137885714Y-64100000D01*
X137828571Y-64071428D01*
X137800000Y-64042857D01*
X137771429Y-63985714D01*
X137971429Y-63528571D02*
X138571429Y-63528571D01*
X138000000Y-63528571D02*
X137971429Y-63471428D01*
X137971429Y-63357142D01*
X138000000Y-63299999D01*
X138028571Y-63271428D01*
X138085714Y-63242857D01*
X138257143Y-63242857D01*
X138314286Y-63271428D01*
X138342857Y-63299999D01*
X138371429Y-63357142D01*
X138371429Y-63471428D01*
X138342857Y-63528571D01*
X138057143Y-62785714D02*
X138057143Y-62985714D01*
X138371429Y-62985714D02*
X137771429Y-62985714D01*
X137771429Y-62700000D01*
X112314286Y-77785715D02*
X112342857Y-77814286D01*
X112371429Y-77900000D01*
X112371429Y-77957143D01*
X112342857Y-78042858D01*
X112285714Y-78100000D01*
X112228571Y-78128572D01*
X112114286Y-78157143D01*
X112028571Y-78157143D01*
X111914286Y-78128572D01*
X111857143Y-78100000D01*
X111800000Y-78042858D01*
X111771429Y-77957143D01*
X111771429Y-77900000D01*
X111800000Y-77814286D01*
X111828571Y-77785715D01*
X111828571Y-77557143D02*
X111800000Y-77528572D01*
X111771429Y-77471429D01*
X111771429Y-77328572D01*
X111800000Y-77271429D01*
X111828571Y-77242858D01*
X111885714Y-77214286D01*
X111942857Y-77214286D01*
X112028571Y-77242858D01*
X112371429Y-77585715D01*
X112371429Y-77214286D01*
X111828571Y-76985714D02*
X111800000Y-76957143D01*
X111771429Y-76900000D01*
X111771429Y-76757143D01*
X111800000Y-76700000D01*
X111828571Y-76671429D01*
X111885714Y-76642857D01*
X111942857Y-76642857D01*
X112028571Y-76671429D01*
X112371429Y-77014286D01*
X112371429Y-76642857D01*
X117014286Y-77571429D02*
X116671429Y-77571429D01*
X116842857Y-77571429D02*
X116842857Y-76971429D01*
X116785714Y-77057143D01*
X116728572Y-77114286D01*
X116671429Y-77142857D01*
X117385715Y-76971429D02*
X117442858Y-76971429D01*
X117500001Y-77000000D01*
X117528572Y-77028571D01*
X117557143Y-77085714D01*
X117585715Y-77200000D01*
X117585715Y-77342857D01*
X117557143Y-77457143D01*
X117528572Y-77514286D01*
X117500001Y-77542857D01*
X117442858Y-77571429D01*
X117385715Y-77571429D01*
X117328572Y-77542857D01*
X117300001Y-77514286D01*
X117271429Y-77457143D01*
X117242858Y-77342857D01*
X117242858Y-77200000D01*
X117271429Y-77085714D01*
X117300001Y-77028571D01*
X117328572Y-77000000D01*
X117385715Y-76971429D01*
X118100001Y-77171429D02*
X118100001Y-77571429D01*
X117842858Y-77171429D02*
X117842858Y-77485714D01*
X117871430Y-77542857D01*
X117928572Y-77571429D01*
X118014287Y-77571429D01*
X118071430Y-77542857D01*
X118100001Y-77514286D01*
X145514286Y-69685715D02*
X145542857Y-69714286D01*
X145571429Y-69800000D01*
X145571429Y-69857143D01*
X145542857Y-69942858D01*
X145485714Y-70000000D01*
X145428571Y-70028572D01*
X145314286Y-70057143D01*
X145228571Y-70057143D01*
X145114286Y-70028572D01*
X145057143Y-70000000D01*
X145000000Y-69942858D01*
X144971429Y-69857143D01*
X144971429Y-69800000D01*
X145000000Y-69714286D01*
X145028571Y-69685715D01*
X145028571Y-69457143D02*
X145000000Y-69428572D01*
X144971429Y-69371429D01*
X144971429Y-69228572D01*
X145000000Y-69171429D01*
X145028571Y-69142858D01*
X145085714Y-69114286D01*
X145142857Y-69114286D01*
X145228571Y-69142858D01*
X145571429Y-69485715D01*
X145571429Y-69114286D01*
X144971429Y-68914286D02*
X144971429Y-68542857D01*
X145200000Y-68742857D01*
X145200000Y-68657143D01*
X145228571Y-68600000D01*
X145257143Y-68571429D01*
X145314286Y-68542857D01*
X145457143Y-68542857D01*
X145514286Y-68571429D01*
X145542857Y-68600000D01*
X145571429Y-68657143D01*
X145571429Y-68828571D01*
X145542857Y-68885714D01*
X145514286Y-68914286D01*
X146614286Y-76985715D02*
X146642857Y-77014286D01*
X146671429Y-77100000D01*
X146671429Y-77157143D01*
X146642857Y-77242858D01*
X146585714Y-77300000D01*
X146528571Y-77328572D01*
X146414286Y-77357143D01*
X146328571Y-77357143D01*
X146214286Y-77328572D01*
X146157143Y-77300000D01*
X146100000Y-77242858D01*
X146071429Y-77157143D01*
X146071429Y-77100000D01*
X146100000Y-77014286D01*
X146128571Y-76985715D01*
X146128571Y-76757143D02*
X146100000Y-76728572D01*
X146071429Y-76671429D01*
X146071429Y-76528572D01*
X146100000Y-76471429D01*
X146128571Y-76442858D01*
X146185714Y-76414286D01*
X146242857Y-76414286D01*
X146328571Y-76442858D01*
X146671429Y-76785715D01*
X146671429Y-76414286D01*
X146071429Y-75871429D02*
X146071429Y-76157143D01*
X146357143Y-76185714D01*
X146328571Y-76157143D01*
X146300000Y-76100000D01*
X146300000Y-75957143D01*
X146328571Y-75900000D01*
X146357143Y-75871429D01*
X146414286Y-75842857D01*
X146557143Y-75842857D01*
X146614286Y-75871429D01*
X146642857Y-75900000D01*
X146671429Y-75957143D01*
X146671429Y-76100000D01*
X146642857Y-76157143D01*
X146614286Y-76185714D01*
X129700000Y-60871429D02*
X129414286Y-60871429D01*
X129414286Y-60271429D01*
X130214286Y-60871429D02*
X129871429Y-60871429D01*
X130042857Y-60871429D02*
X130042857Y-60271429D01*
X129985714Y-60357143D01*
X129928572Y-60414286D01*
X129871429Y-60442857D01*
X128894143Y-59459571D02*
X128922714Y-59431000D01*
X128979857Y-59402429D01*
X129122714Y-59402429D01*
X129179857Y-59431000D01*
X129208428Y-59459571D01*
X129237000Y-59516714D01*
X129237000Y-59573857D01*
X129208428Y-59659571D01*
X128865571Y-60002429D01*
X129237000Y-60002429D01*
X129465572Y-59459571D02*
X129494143Y-59431000D01*
X129551286Y-59402429D01*
X129694143Y-59402429D01*
X129751286Y-59431000D01*
X129779857Y-59459571D01*
X129808429Y-59516714D01*
X129808429Y-59573857D01*
X129779857Y-59659571D01*
X129437000Y-60002429D01*
X129808429Y-60002429D01*
X130322715Y-59602429D02*
X130322715Y-60002429D01*
X130065572Y-59602429D02*
X130065572Y-59916714D01*
X130094144Y-59973857D01*
X130151286Y-60002429D01*
X130237001Y-60002429D01*
X130294144Y-59973857D01*
X130322715Y-59945286D01*
X130608429Y-60002429D02*
X130608429Y-59402429D01*
X130608429Y-59688143D02*
X130951286Y-59688143D01*
X130951286Y-60002429D02*
X130951286Y-59402429D01*
X144971429Y-75300000D02*
X144971429Y-75585714D01*
X144371429Y-75585714D01*
X144571429Y-74842857D02*
X144971429Y-74842857D01*
X144342857Y-74985714D02*
X144771429Y-75128571D01*
X144771429Y-74757143D01*
X110514285Y-71771429D02*
X110314285Y-71485714D01*
X110171428Y-71771429D02*
X110171428Y-71171429D01*
X110400000Y-71171429D01*
X110457142Y-71200000D01*
X110485714Y-71228571D01*
X110514285Y-71285714D01*
X110514285Y-71371429D01*
X110485714Y-71428571D01*
X110457142Y-71457143D01*
X110400000Y-71485714D01*
X110171428Y-71485714D01*
X111085714Y-71771429D02*
X110742857Y-71771429D01*
X110914285Y-71771429D02*
X110914285Y-71171429D01*
X110857142Y-71257143D01*
X110800000Y-71314286D01*
X110742857Y-71342857D01*
X111285714Y-71171429D02*
X111657143Y-71171429D01*
X111457143Y-71400000D01*
X111542857Y-71400000D01*
X111600000Y-71428571D01*
X111628571Y-71457143D01*
X111657143Y-71514286D01*
X111657143Y-71657143D01*
X111628571Y-71714286D01*
X111600000Y-71742857D01*
X111542857Y-71771429D01*
X111371429Y-71771429D01*
X111314286Y-71742857D01*
X111285714Y-71714286D01*
X111028572Y-69071429D02*
X110685715Y-69071429D01*
X110857143Y-69071429D02*
X110857143Y-68471429D01*
X110800000Y-68557143D01*
X110742858Y-68614286D01*
X110685715Y-68642857D01*
X111285715Y-69071429D02*
X111285715Y-68471429D01*
X111342858Y-68842857D02*
X111514287Y-69071429D01*
X111514287Y-68671429D02*
X111285715Y-68900000D01*
X125377285Y-65183286D02*
X125348714Y-65211857D01*
X125263000Y-65240429D01*
X125205857Y-65240429D01*
X125120142Y-65211857D01*
X125063000Y-65154714D01*
X125034428Y-65097571D01*
X125005857Y-64983286D01*
X125005857Y-64897571D01*
X125034428Y-64783286D01*
X125063000Y-64726143D01*
X125120142Y-64669000D01*
X125205857Y-64640429D01*
X125263000Y-64640429D01*
X125348714Y-64669000D01*
X125377285Y-64697571D01*
X125605857Y-64697571D02*
X125634428Y-64669000D01*
X125691571Y-64640429D01*
X125834428Y-64640429D01*
X125891571Y-64669000D01*
X125920142Y-64697571D01*
X125948714Y-64754714D01*
X125948714Y-64811857D01*
X125920142Y-64897571D01*
X125577285Y-65240429D01*
X125948714Y-65240429D01*
X126320143Y-64640429D02*
X126377286Y-64640429D01*
X126434429Y-64669000D01*
X126463000Y-64697571D01*
X126491571Y-64754714D01*
X126520143Y-64869000D01*
X126520143Y-65011857D01*
X126491571Y-65126143D01*
X126463000Y-65183286D01*
X126434429Y-65211857D01*
X126377286Y-65240429D01*
X126320143Y-65240429D01*
X126263000Y-65211857D01*
X126234429Y-65183286D01*
X126205857Y-65126143D01*
X126177286Y-65011857D01*
X126177286Y-64869000D01*
X126205857Y-64754714D01*
X126234429Y-64697571D01*
X126263000Y-64669000D01*
X126320143Y-64640429D01*
X125271429Y-61028571D02*
X125271429Y-60971428D01*
X125300000Y-60914285D01*
X125328571Y-60885714D01*
X125385714Y-60857143D01*
X125500000Y-60828571D01*
X125642857Y-60828571D01*
X125757143Y-60857143D01*
X125814286Y-60885714D01*
X125842857Y-60914285D01*
X125871429Y-60971428D01*
X125871429Y-61028571D01*
X125842857Y-61085714D01*
X125814286Y-61114285D01*
X125757143Y-61142857D01*
X125642857Y-61171428D01*
X125500000Y-61171428D01*
X125385714Y-61142857D01*
X125328571Y-61114285D01*
X125300000Y-61085714D01*
X125271429Y-61028571D01*
X125814286Y-60571428D02*
X125842857Y-60542856D01*
X125871429Y-60571428D01*
X125842857Y-60599999D01*
X125814286Y-60571428D01*
X125871429Y-60571428D01*
X125871429Y-59971428D02*
X125871429Y-60314285D01*
X125871429Y-60142857D02*
X125271429Y-60142857D01*
X125357143Y-60200000D01*
X125414286Y-60257142D01*
X125442857Y-60314285D01*
X125471429Y-59457142D02*
X125871429Y-59457142D01*
X125471429Y-59714285D02*
X125785714Y-59714285D01*
X125842857Y-59685713D01*
X125871429Y-59628571D01*
X125871429Y-59542856D01*
X125842857Y-59485713D01*
X125814286Y-59457142D01*
X127600000Y-83914286D02*
X127571429Y-83942857D01*
X127485715Y-83971429D01*
X127428572Y-83971429D01*
X127342857Y-83942857D01*
X127285715Y-83885714D01*
X127257143Y-83828571D01*
X127228572Y-83714286D01*
X127228572Y-83628571D01*
X127257143Y-83514286D01*
X127285715Y-83457143D01*
X127342857Y-83400000D01*
X127428572Y-83371429D01*
X127485715Y-83371429D01*
X127571429Y-83400000D01*
X127600000Y-83428571D01*
X128171429Y-83971429D02*
X127828572Y-83971429D01*
X128000000Y-83971429D02*
X128000000Y-83371429D01*
X127942857Y-83457143D01*
X127885715Y-83514286D01*
X127828572Y-83542857D01*
X129014286Y-83571429D02*
X129014286Y-83971429D01*
X128871429Y-83342857D02*
X128728572Y-83771429D01*
X129100000Y-83771429D01*
X129328572Y-83914286D02*
X129357144Y-83942857D01*
X129328572Y-83971429D01*
X129300001Y-83942857D01*
X129328572Y-83914286D01*
X129328572Y-83971429D01*
X129557143Y-83371429D02*
X129957143Y-83371429D01*
X129700000Y-83971429D01*
X130442858Y-83571429D02*
X130442858Y-83971429D01*
X130185715Y-83571429D02*
X130185715Y-83885714D01*
X130214287Y-83942857D01*
X130271429Y-83971429D01*
X130357144Y-83971429D01*
X130414287Y-83942857D01*
X130442858Y-83914286D01*
X124800000Y-100314286D02*
X124771429Y-100342857D01*
X124685715Y-100371429D01*
X124628572Y-100371429D01*
X124542857Y-100342857D01*
X124485715Y-100285714D01*
X124457143Y-100228571D01*
X124428572Y-100114286D01*
X124428572Y-100028571D01*
X124457143Y-99914286D01*
X124485715Y-99857143D01*
X124542857Y-99800000D01*
X124628572Y-99771429D01*
X124685715Y-99771429D01*
X124771429Y-99800000D01*
X124800000Y-99828571D01*
X125085715Y-100371429D02*
X125200000Y-100371429D01*
X125257143Y-100342857D01*
X125285715Y-100314286D01*
X125342857Y-100228571D01*
X125371429Y-100114286D01*
X125371429Y-99885714D01*
X125342857Y-99828571D01*
X125314286Y-99800000D01*
X125257143Y-99771429D01*
X125142857Y-99771429D01*
X125085715Y-99800000D01*
X125057143Y-99828571D01*
X125028572Y-99885714D01*
X125028572Y-100028571D01*
X125057143Y-100085714D01*
X125085715Y-100114286D01*
X125142857Y-100142857D01*
X125257143Y-100142857D01*
X125314286Y-100114286D01*
X125342857Y-100085714D01*
X125371429Y-100028571D01*
X126571429Y-99771429D02*
X126628572Y-99771429D01*
X126685715Y-99800000D01*
X126714286Y-99828571D01*
X126742857Y-99885714D01*
X126771429Y-100000000D01*
X126771429Y-100142857D01*
X126742857Y-100257143D01*
X126714286Y-100314286D01*
X126685715Y-100342857D01*
X126628572Y-100371429D01*
X126571429Y-100371429D01*
X126514286Y-100342857D01*
X126485715Y-100314286D01*
X126457143Y-100257143D01*
X126428572Y-100142857D01*
X126428572Y-100000000D01*
X126457143Y-99885714D01*
X126485715Y-99828571D01*
X126514286Y-99800000D01*
X126571429Y-99771429D01*
X127028572Y-100314286D02*
X127057144Y-100342857D01*
X127028572Y-100371429D01*
X127000001Y-100342857D01*
X127028572Y-100314286D01*
X127028572Y-100371429D01*
X127628572Y-100371429D02*
X127285715Y-100371429D01*
X127457143Y-100371429D02*
X127457143Y-99771429D01*
X127400000Y-99857143D01*
X127342858Y-99914286D01*
X127285715Y-99942857D01*
X128142858Y-99971429D02*
X128142858Y-100371429D01*
X127885715Y-99971429D02*
X127885715Y-100285714D01*
X127914287Y-100342857D01*
X127971429Y-100371429D01*
X128057144Y-100371429D01*
X128114287Y-100342857D01*
X128142858Y-100314286D01*
X143014286Y-87185715D02*
X143042857Y-87214286D01*
X143071429Y-87300000D01*
X143071429Y-87357143D01*
X143042857Y-87442858D01*
X142985714Y-87500000D01*
X142928571Y-87528572D01*
X142814286Y-87557143D01*
X142728571Y-87557143D01*
X142614286Y-87528572D01*
X142557143Y-87500000D01*
X142500000Y-87442858D01*
X142471429Y-87357143D01*
X142471429Y-87300000D01*
X142500000Y-87214286D01*
X142528571Y-87185715D01*
X142528571Y-86957143D02*
X142500000Y-86928572D01*
X142471429Y-86871429D01*
X142471429Y-86728572D01*
X142500000Y-86671429D01*
X142528571Y-86642858D01*
X142585714Y-86614286D01*
X142642857Y-86614286D01*
X142728571Y-86642858D01*
X143071429Y-86985715D01*
X143071429Y-86614286D01*
X142671429Y-86100000D02*
X143071429Y-86100000D01*
X142442857Y-86242857D02*
X142871429Y-86385714D01*
X142871429Y-86014286D01*
X143228111Y-90186654D02*
X143199540Y-90158083D01*
X143170969Y-90100940D01*
X143170969Y-89958083D01*
X143199540Y-89900940D01*
X143228111Y-89872369D01*
X143285254Y-89843797D01*
X143342397Y-89843797D01*
X143428111Y-89872369D01*
X143770969Y-90215226D01*
X143770969Y-89843797D01*
X143170969Y-89472368D02*
X143170969Y-89415225D01*
X143199540Y-89358082D01*
X143228111Y-89329511D01*
X143285254Y-89300940D01*
X143399540Y-89272368D01*
X143542397Y-89272368D01*
X143656683Y-89300940D01*
X143713826Y-89329511D01*
X143742397Y-89358082D01*
X143770969Y-89415225D01*
X143770969Y-89472368D01*
X143742397Y-89529511D01*
X143713826Y-89558082D01*
X143656683Y-89586654D01*
X143542397Y-89615225D01*
X143399540Y-89615225D01*
X143285254Y-89586654D01*
X143228111Y-89558082D01*
X143199540Y-89529511D01*
X143170969Y-89472368D01*
X143370969Y-89015225D02*
X143970969Y-89015225D01*
X143399540Y-89015225D02*
X143370969Y-88958082D01*
X143370969Y-88843796D01*
X143399540Y-88786653D01*
X143428111Y-88758082D01*
X143485254Y-88729511D01*
X143656683Y-88729511D01*
X143713826Y-88758082D01*
X143742397Y-88786653D01*
X143770969Y-88843796D01*
X143770969Y-88958082D01*
X143742397Y-89015225D01*
X143456683Y-88272368D02*
X143456683Y-88472368D01*
X143770969Y-88472368D02*
X143170969Y-88472368D01*
X143170969Y-88186654D01*
X141877785Y-99684286D02*
X141849214Y-99712857D01*
X141763500Y-99741429D01*
X141706357Y-99741429D01*
X141620642Y-99712857D01*
X141563500Y-99655714D01*
X141534928Y-99598571D01*
X141506357Y-99484286D01*
X141506357Y-99398571D01*
X141534928Y-99284286D01*
X141563500Y-99227143D01*
X141620642Y-99170000D01*
X141706357Y-99141429D01*
X141763500Y-99141429D01*
X141849214Y-99170000D01*
X141877785Y-99198571D01*
X142106357Y-99198571D02*
X142134928Y-99170000D01*
X142192071Y-99141429D01*
X142334928Y-99141429D01*
X142392071Y-99170000D01*
X142420642Y-99198571D01*
X142449214Y-99255714D01*
X142449214Y-99312857D01*
X142420642Y-99398571D01*
X142077785Y-99741429D01*
X142449214Y-99741429D01*
X142649214Y-99141429D02*
X143049214Y-99141429D01*
X142792071Y-99741429D01*
X143914286Y-98428571D02*
X143942857Y-98400000D01*
X144000000Y-98371429D01*
X144142857Y-98371429D01*
X144200000Y-98400000D01*
X144228571Y-98428571D01*
X144257143Y-98485714D01*
X144257143Y-98542857D01*
X144228571Y-98628571D01*
X143885714Y-98971429D01*
X144257143Y-98971429D01*
X144628572Y-98371429D02*
X144685715Y-98371429D01*
X144742858Y-98400000D01*
X144771429Y-98428571D01*
X144800000Y-98485714D01*
X144828572Y-98600000D01*
X144828572Y-98742857D01*
X144800000Y-98857143D01*
X144771429Y-98914286D01*
X144742858Y-98942857D01*
X144685715Y-98971429D01*
X144628572Y-98971429D01*
X144571429Y-98942857D01*
X144542858Y-98914286D01*
X144514286Y-98857143D01*
X144485715Y-98742857D01*
X144485715Y-98600000D01*
X144514286Y-98485714D01*
X144542858Y-98428571D01*
X144571429Y-98400000D01*
X144628572Y-98371429D01*
X145085715Y-98571429D02*
X145085715Y-99171429D01*
X145085715Y-98600000D02*
X145142858Y-98571429D01*
X145257144Y-98571429D01*
X145314287Y-98600000D01*
X145342858Y-98628571D01*
X145371429Y-98685714D01*
X145371429Y-98857143D01*
X145342858Y-98914286D01*
X145314287Y-98942857D01*
X145257144Y-98971429D01*
X145142858Y-98971429D01*
X145085715Y-98942857D01*
X145828572Y-98657143D02*
X145628572Y-98657143D01*
X145628572Y-98971429D02*
X145628572Y-98371429D01*
X145914286Y-98371429D01*
X118714285Y-106314286D02*
X118685714Y-106342857D01*
X118600000Y-106371429D01*
X118542857Y-106371429D01*
X118457142Y-106342857D01*
X118400000Y-106285714D01*
X118371428Y-106228571D01*
X118342857Y-106114286D01*
X118342857Y-106028571D01*
X118371428Y-105914286D01*
X118400000Y-105857143D01*
X118457142Y-105800000D01*
X118542857Y-105771429D01*
X118600000Y-105771429D01*
X118685714Y-105800000D01*
X118714285Y-105828571D01*
X118942857Y-105828571D02*
X118971428Y-105800000D01*
X119028571Y-105771429D01*
X119171428Y-105771429D01*
X119228571Y-105800000D01*
X119257142Y-105828571D01*
X119285714Y-105885714D01*
X119285714Y-105942857D01*
X119257142Y-106028571D01*
X118914285Y-106371429D01*
X119285714Y-106371429D01*
X119628571Y-106028571D02*
X119571429Y-106000000D01*
X119542857Y-105971429D01*
X119514286Y-105914286D01*
X119514286Y-105885714D01*
X119542857Y-105828571D01*
X119571429Y-105800000D01*
X119628571Y-105771429D01*
X119742857Y-105771429D01*
X119800000Y-105800000D01*
X119828571Y-105828571D01*
X119857143Y-105885714D01*
X119857143Y-105914286D01*
X119828571Y-105971429D01*
X119800000Y-106000000D01*
X119742857Y-106028571D01*
X119628571Y-106028571D01*
X119571429Y-106057143D01*
X119542857Y-106085714D01*
X119514286Y-106142857D01*
X119514286Y-106257143D01*
X119542857Y-106314286D01*
X119571429Y-106342857D01*
X119628571Y-106371429D01*
X119742857Y-106371429D01*
X119800000Y-106342857D01*
X119828571Y-106314286D01*
X119857143Y-106257143D01*
X119857143Y-106142857D01*
X119828571Y-106085714D01*
X119800000Y-106057143D01*
X119742857Y-106028571D01*
X123385714Y-106071429D02*
X123442857Y-106071429D01*
X123500000Y-106100000D01*
X123528571Y-106128571D01*
X123557142Y-106185714D01*
X123585714Y-106300000D01*
X123585714Y-106442857D01*
X123557142Y-106557143D01*
X123528571Y-106614286D01*
X123500000Y-106642857D01*
X123442857Y-106671429D01*
X123385714Y-106671429D01*
X123328571Y-106642857D01*
X123300000Y-106614286D01*
X123271428Y-106557143D01*
X123242857Y-106442857D01*
X123242857Y-106300000D01*
X123271428Y-106185714D01*
X123300000Y-106128571D01*
X123328571Y-106100000D01*
X123385714Y-106071429D01*
X123842857Y-106614286D02*
X123871429Y-106642857D01*
X123842857Y-106671429D01*
X123814286Y-106642857D01*
X123842857Y-106614286D01*
X123842857Y-106671429D01*
X124100000Y-106128571D02*
X124128571Y-106100000D01*
X124185714Y-106071429D01*
X124328571Y-106071429D01*
X124385714Y-106100000D01*
X124414285Y-106128571D01*
X124442857Y-106185714D01*
X124442857Y-106242857D01*
X124414285Y-106328571D01*
X124071428Y-106671429D01*
X124442857Y-106671429D01*
X124671429Y-106128571D02*
X124700000Y-106100000D01*
X124757143Y-106071429D01*
X124900000Y-106071429D01*
X124957143Y-106100000D01*
X124985714Y-106128571D01*
X125014286Y-106185714D01*
X125014286Y-106242857D01*
X124985714Y-106328571D01*
X124642857Y-106671429D01*
X125014286Y-106671429D01*
X125528572Y-106271429D02*
X125528572Y-106671429D01*
X125271429Y-106271429D02*
X125271429Y-106585714D01*
X125300001Y-106642857D01*
X125357143Y-106671429D01*
X125442858Y-106671429D01*
X125500001Y-106642857D01*
X125528572Y-106614286D01*
X118414286Y-104585715D02*
X118442857Y-104614286D01*
X118471429Y-104700000D01*
X118471429Y-104757143D01*
X118442857Y-104842858D01*
X118385714Y-104900000D01*
X118328571Y-104928572D01*
X118214286Y-104957143D01*
X118128571Y-104957143D01*
X118014286Y-104928572D01*
X117957143Y-104900000D01*
X117900000Y-104842858D01*
X117871429Y-104757143D01*
X117871429Y-104700000D01*
X117900000Y-104614286D01*
X117928571Y-104585715D01*
X117928571Y-104357143D02*
X117900000Y-104328572D01*
X117871429Y-104271429D01*
X117871429Y-104128572D01*
X117900000Y-104071429D01*
X117928571Y-104042858D01*
X117985714Y-104014286D01*
X118042857Y-104014286D01*
X118128571Y-104042858D01*
X118471429Y-104385715D01*
X118471429Y-104014286D01*
X118471429Y-103728571D02*
X118471429Y-103614286D01*
X118442857Y-103557143D01*
X118414286Y-103528571D01*
X118328571Y-103471429D01*
X118214286Y-103442857D01*
X117985714Y-103442857D01*
X117928571Y-103471429D01*
X117900000Y-103500000D01*
X117871429Y-103557143D01*
X117871429Y-103671429D01*
X117900000Y-103728571D01*
X117928571Y-103757143D01*
X117985714Y-103785714D01*
X118128571Y-103785714D01*
X118185714Y-103757143D01*
X118214286Y-103728571D01*
X118242857Y-103671429D01*
X118242857Y-103557143D01*
X118214286Y-103500000D01*
X118185714Y-103471429D01*
X118128571Y-103442857D01*
X115814286Y-101271429D02*
X115814286Y-101671429D01*
X115671429Y-101042857D02*
X115528572Y-101471429D01*
X115900000Y-101471429D01*
X116128572Y-101614286D02*
X116157144Y-101642857D01*
X116128572Y-101671429D01*
X116100001Y-101642857D01*
X116128572Y-101614286D01*
X116128572Y-101671429D01*
X116357143Y-101071429D02*
X116757143Y-101071429D01*
X116500000Y-101671429D01*
X117242858Y-101271429D02*
X117242858Y-101671429D01*
X116985715Y-101271429D02*
X116985715Y-101585714D01*
X117014287Y-101642857D01*
X117071429Y-101671429D01*
X117157144Y-101671429D01*
X117214287Y-101642857D01*
X117242858Y-101614286D01*
X110914285Y-87314286D02*
X110885714Y-87342857D01*
X110800000Y-87371429D01*
X110742857Y-87371429D01*
X110657142Y-87342857D01*
X110600000Y-87285714D01*
X110571428Y-87228571D01*
X110542857Y-87114286D01*
X110542857Y-87028571D01*
X110571428Y-86914286D01*
X110600000Y-86857143D01*
X110657142Y-86800000D01*
X110742857Y-86771429D01*
X110800000Y-86771429D01*
X110885714Y-86800000D01*
X110914285Y-86828571D01*
X111114285Y-86771429D02*
X111485714Y-86771429D01*
X111285714Y-87000000D01*
X111371428Y-87000000D01*
X111428571Y-87028571D01*
X111457142Y-87057143D01*
X111485714Y-87114286D01*
X111485714Y-87257143D01*
X111457142Y-87314286D01*
X111428571Y-87342857D01*
X111371428Y-87371429D01*
X111200000Y-87371429D01*
X111142857Y-87342857D01*
X111114285Y-87314286D01*
X111857143Y-86771429D02*
X111914286Y-86771429D01*
X111971429Y-86800000D01*
X112000000Y-86828571D01*
X112028571Y-86885714D01*
X112057143Y-87000000D01*
X112057143Y-87142857D01*
X112028571Y-87257143D01*
X112000000Y-87314286D01*
X111971429Y-87342857D01*
X111914286Y-87371429D01*
X111857143Y-87371429D01*
X111800000Y-87342857D01*
X111771429Y-87314286D01*
X111742857Y-87257143D01*
X111714286Y-87142857D01*
X111714286Y-87000000D01*
X111742857Y-86885714D01*
X111771429Y-86828571D01*
X111800000Y-86800000D01*
X111857143Y-86771429D01*
X110971429Y-92528571D02*
X110971429Y-92471428D01*
X111000000Y-92414285D01*
X111028571Y-92385714D01*
X111085714Y-92357143D01*
X111200000Y-92328571D01*
X111342857Y-92328571D01*
X111457143Y-92357143D01*
X111514286Y-92385714D01*
X111542857Y-92414285D01*
X111571429Y-92471428D01*
X111571429Y-92528571D01*
X111542857Y-92585714D01*
X111514286Y-92614285D01*
X111457143Y-92642857D01*
X111342857Y-92671428D01*
X111200000Y-92671428D01*
X111085714Y-92642857D01*
X111028571Y-92614285D01*
X111000000Y-92585714D01*
X110971429Y-92528571D01*
X111514286Y-92071428D02*
X111542857Y-92042856D01*
X111571429Y-92071428D01*
X111542857Y-92099999D01*
X111514286Y-92071428D01*
X111571429Y-92071428D01*
X111571429Y-91471428D02*
X111571429Y-91814285D01*
X111571429Y-91642857D02*
X110971429Y-91642857D01*
X111057143Y-91700000D01*
X111114286Y-91757142D01*
X111142857Y-91814285D01*
X111171429Y-90957142D02*
X111571429Y-90957142D01*
X111171429Y-91214285D02*
X111485714Y-91214285D01*
X111542857Y-91185713D01*
X111571429Y-91128571D01*
X111571429Y-91042856D01*
X111542857Y-90985713D01*
X111514286Y-90957142D01*
X120357143Y-102171429D02*
X120357143Y-101571429D01*
X120500000Y-101571429D01*
X120585715Y-101600000D01*
X120642857Y-101657143D01*
X120671429Y-101714286D01*
X120700000Y-101828571D01*
X120700000Y-101914286D01*
X120671429Y-102028571D01*
X120642857Y-102085714D01*
X120585715Y-102142857D01*
X120500000Y-102171429D01*
X120357143Y-102171429D01*
X120957143Y-102171429D02*
X120957143Y-101571429D01*
X121100000Y-101571429D01*
X121185715Y-101600000D01*
X121242857Y-101657143D01*
X121271429Y-101714286D01*
X121300000Y-101828571D01*
X121300000Y-101914286D01*
X121271429Y-102028571D01*
X121242857Y-102085714D01*
X121185715Y-102142857D01*
X121100000Y-102171429D01*
X120957143Y-102171429D01*
X121500000Y-101571429D02*
X121871429Y-101571429D01*
X121671429Y-101800000D01*
X121757143Y-101800000D01*
X121814286Y-101828571D01*
X121842857Y-101857143D01*
X121871429Y-101914286D01*
X121871429Y-102057143D01*
X121842857Y-102114286D01*
X121814286Y-102142857D01*
X121757143Y-102171429D01*
X121585715Y-102171429D01*
X121528572Y-102142857D01*
X121500000Y-102114286D01*
X124471429Y-104200001D02*
X124471429Y-104485715D01*
X123871429Y-104485715D01*
X124442857Y-104028572D02*
X124471429Y-103942858D01*
X124471429Y-103800001D01*
X124442857Y-103742858D01*
X124414286Y-103714287D01*
X124357143Y-103685715D01*
X124300000Y-103685715D01*
X124242857Y-103714287D01*
X124214286Y-103742858D01*
X124185714Y-103800001D01*
X124157143Y-103914287D01*
X124128571Y-103971429D01*
X124100000Y-104000001D01*
X124042857Y-104028572D01*
X123985714Y-104028572D01*
X123928571Y-104000001D01*
X123900000Y-103971429D01*
X123871429Y-103914287D01*
X123871429Y-103771429D01*
X123900000Y-103685715D01*
X124471429Y-103428572D02*
X123871429Y-103428572D01*
X124300000Y-103228572D01*
X123871429Y-103028572D01*
X124471429Y-103028572D01*
X124471429Y-102714286D02*
X124471429Y-102600001D01*
X124442857Y-102542858D01*
X124414286Y-102514286D01*
X124328571Y-102457144D01*
X124214286Y-102428572D01*
X123985714Y-102428572D01*
X123928571Y-102457144D01*
X123900000Y-102485715D01*
X123871429Y-102542858D01*
X123871429Y-102657144D01*
X123900000Y-102714286D01*
X123928571Y-102742858D01*
X123985714Y-102771429D01*
X124128571Y-102771429D01*
X124185714Y-102742858D01*
X124214286Y-102714286D01*
X124242857Y-102657144D01*
X124242857Y-102542858D01*
X124214286Y-102485715D01*
X124185714Y-102457144D01*
X124128571Y-102428572D01*
X124471429Y-102171429D02*
X123871429Y-102171429D01*
X123871429Y-102028572D01*
X123900000Y-101942857D01*
X123957143Y-101885715D01*
X124014286Y-101857143D01*
X124128571Y-101828572D01*
X124214286Y-101828572D01*
X124328571Y-101857143D01*
X124385714Y-101885715D01*
X124442857Y-101942857D01*
X124471429Y-102028572D01*
X124471429Y-102171429D01*
X124442857Y-101600000D02*
X124471429Y-101514286D01*
X124471429Y-101371429D01*
X124442857Y-101314286D01*
X124414286Y-101285715D01*
X124357143Y-101257143D01*
X124300000Y-101257143D01*
X124242857Y-101285715D01*
X124214286Y-101314286D01*
X124185714Y-101371429D01*
X124157143Y-101485715D01*
X124128571Y-101542857D01*
X124100000Y-101571429D01*
X124042857Y-101600000D01*
X123985714Y-101600000D01*
X123928571Y-101571429D01*
X123900000Y-101542857D01*
X123871429Y-101485715D01*
X123871429Y-101342857D01*
X123900000Y-101257143D01*
X123871429Y-100885714D02*
X123871429Y-100828571D01*
X123900000Y-100771428D01*
X123928571Y-100742857D01*
X123985714Y-100714286D01*
X124100000Y-100685714D01*
X124242857Y-100685714D01*
X124357143Y-100714286D01*
X124414286Y-100742857D01*
X124442857Y-100771428D01*
X124471429Y-100828571D01*
X124471429Y-100885714D01*
X124442857Y-100942857D01*
X124414286Y-100971428D01*
X124357143Y-101000000D01*
X124242857Y-101028571D01*
X124100000Y-101028571D01*
X123985714Y-101000000D01*
X123928571Y-100971428D01*
X123900000Y-100942857D01*
X123871429Y-100885714D01*
X118471429Y-101671429D02*
X118128572Y-101671429D01*
X118300000Y-101671429D02*
X118300000Y-101071429D01*
X118242857Y-101157143D01*
X118185715Y-101214286D01*
X118128572Y-101242857D01*
X125500000Y-86371429D02*
X125214286Y-86371429D01*
X125214286Y-85771429D01*
X125671429Y-85828571D02*
X125700000Y-85800000D01*
X125757143Y-85771429D01*
X125900000Y-85771429D01*
X125957143Y-85800000D01*
X125985714Y-85828571D01*
X126014286Y-85885714D01*
X126014286Y-85942857D01*
X125985714Y-86028571D01*
X125642857Y-86371429D01*
X126014286Y-86371429D01*
X124457143Y-91614287D02*
X124485714Y-91528573D01*
X124514286Y-91500001D01*
X124571429Y-91471430D01*
X124657143Y-91471430D01*
X124714286Y-91500001D01*
X124742857Y-91528573D01*
X124771429Y-91585715D01*
X124771429Y-91814287D01*
X124171429Y-91814287D01*
X124171429Y-91614287D01*
X124200000Y-91557144D01*
X124228571Y-91528573D01*
X124285714Y-91500001D01*
X124342857Y-91500001D01*
X124400000Y-91528573D01*
X124428571Y-91557144D01*
X124457143Y-91614287D01*
X124457143Y-91814287D01*
X124771429Y-90928573D02*
X124771429Y-91214287D01*
X124171429Y-91214287D01*
X124771429Y-90728573D02*
X124171429Y-90728573D01*
X124600000Y-90528573D01*
X124171429Y-90328573D01*
X124771429Y-90328573D01*
X124771429Y-89728573D02*
X124771429Y-90071430D01*
X124771429Y-89900002D02*
X124171429Y-89900002D01*
X124257143Y-89957145D01*
X124314286Y-90014287D01*
X124342857Y-90071430D01*
X124171429Y-89185716D02*
X124171429Y-89471430D01*
X124457143Y-89500001D01*
X124428571Y-89471430D01*
X124400000Y-89414287D01*
X124400000Y-89271430D01*
X124428571Y-89214287D01*
X124457143Y-89185716D01*
X124514286Y-89157144D01*
X124657143Y-89157144D01*
X124714286Y-89185716D01*
X124742857Y-89214287D01*
X124771429Y-89271430D01*
X124771429Y-89414287D01*
X124742857Y-89471430D01*
X124714286Y-89500001D01*
X124600000Y-88928572D02*
X124600000Y-88642858D01*
X124771429Y-88985715D02*
X124171429Y-88785715D01*
X124771429Y-88585715D01*
X124200000Y-88071429D02*
X124171429Y-88128572D01*
X124171429Y-88214286D01*
X124200000Y-88300001D01*
X124257143Y-88357143D01*
X124314286Y-88385715D01*
X124428571Y-88414286D01*
X124514286Y-88414286D01*
X124628571Y-88385715D01*
X124685714Y-88357143D01*
X124742857Y-88300001D01*
X124771429Y-88214286D01*
X124771429Y-88157143D01*
X124742857Y-88071429D01*
X124714286Y-88042858D01*
X124514286Y-88042858D01*
X124514286Y-88157143D01*
X124771429Y-87471429D02*
X124771429Y-87814286D01*
X124771429Y-87642858D02*
X124171429Y-87642858D01*
X124257143Y-87700001D01*
X124314286Y-87757143D01*
X124342857Y-87814286D01*
X124171429Y-87100000D02*
X124171429Y-87042857D01*
X124200000Y-86985714D01*
X124228571Y-86957143D01*
X124285714Y-86928572D01*
X124400000Y-86900000D01*
X124542857Y-86900000D01*
X124657143Y-86928572D01*
X124714286Y-86957143D01*
X124742857Y-86985714D01*
X124771429Y-87042857D01*
X124771429Y-87100000D01*
X124742857Y-87157143D01*
X124714286Y-87185714D01*
X124657143Y-87214286D01*
X124542857Y-87242857D01*
X124400000Y-87242857D01*
X124285714Y-87214286D01*
X124228571Y-87185714D01*
X124200000Y-87157143D01*
X124171429Y-87100000D01*
X124228571Y-86671428D02*
X124200000Y-86642857D01*
X124171429Y-86585714D01*
X124171429Y-86442857D01*
X124200000Y-86385714D01*
X124228571Y-86357143D01*
X124285714Y-86328571D01*
X124342857Y-86328571D01*
X124428571Y-86357143D01*
X124771429Y-86700000D01*
X124771429Y-86328571D01*
X124742857Y-86099999D02*
X124771429Y-86014285D01*
X124771429Y-85871428D01*
X124742857Y-85814285D01*
X124714286Y-85785714D01*
X124657143Y-85757142D01*
X124600000Y-85757142D01*
X124542857Y-85785714D01*
X124514286Y-85814285D01*
X124485714Y-85871428D01*
X124457143Y-85985714D01*
X124428571Y-86042856D01*
X124400000Y-86071428D01*
X124342857Y-86099999D01*
X124285714Y-86099999D01*
X124228571Y-86071428D01*
X124200000Y-86042856D01*
X124171429Y-85985714D01*
X124171429Y-85842856D01*
X124200000Y-85757142D01*
X124771429Y-85499999D02*
X124171429Y-85499999D01*
X124771429Y-85157142D01*
X124171429Y-85157142D01*
X124771429Y-84557142D02*
X124771429Y-84899999D01*
X124771429Y-84728571D02*
X124171429Y-84728571D01*
X124257143Y-84785714D01*
X124314286Y-84842856D01*
X124342857Y-84899999D01*
X135100000Y-68971429D02*
X134814286Y-68971429D01*
X134814286Y-68371429D01*
X135242857Y-68371429D02*
X135614286Y-68371429D01*
X135414286Y-68600000D01*
X135500000Y-68600000D01*
X135557143Y-68628571D01*
X135585714Y-68657143D01*
X135614286Y-68714286D01*
X135614286Y-68857143D01*
X135585714Y-68914286D01*
X135557143Y-68942857D01*
X135500000Y-68971429D01*
X135328572Y-68971429D01*
X135271429Y-68942857D01*
X135242857Y-68914286D01*
X128157143Y-75614287D02*
X128185714Y-75528573D01*
X128214286Y-75500001D01*
X128271429Y-75471430D01*
X128357143Y-75471430D01*
X128414286Y-75500001D01*
X128442857Y-75528573D01*
X128471429Y-75585715D01*
X128471429Y-75814287D01*
X127871429Y-75814287D01*
X127871429Y-75614287D01*
X127900000Y-75557144D01*
X127928571Y-75528573D01*
X127985714Y-75500001D01*
X128042857Y-75500001D01*
X128100000Y-75528573D01*
X128128571Y-75557144D01*
X128157143Y-75614287D01*
X128157143Y-75814287D01*
X128471429Y-74928573D02*
X128471429Y-75214287D01*
X127871429Y-75214287D01*
X128471429Y-74728573D02*
X127871429Y-74728573D01*
X128300000Y-74528573D01*
X127871429Y-74328573D01*
X128471429Y-74328573D01*
X128471429Y-73728573D02*
X128471429Y-74071430D01*
X128471429Y-73900002D02*
X127871429Y-73900002D01*
X127957143Y-73957145D01*
X128014286Y-74014287D01*
X128042857Y-74071430D01*
X127871429Y-73185716D02*
X127871429Y-73471430D01*
X128157143Y-73500001D01*
X128128571Y-73471430D01*
X128100000Y-73414287D01*
X128100000Y-73271430D01*
X128128571Y-73214287D01*
X128157143Y-73185716D01*
X128214286Y-73157144D01*
X128357143Y-73157144D01*
X128414286Y-73185716D01*
X128442857Y-73214287D01*
X128471429Y-73271430D01*
X128471429Y-73414287D01*
X128442857Y-73471430D01*
X128414286Y-73500001D01*
X128300000Y-72928572D02*
X128300000Y-72642858D01*
X128471429Y-72985715D02*
X127871429Y-72785715D01*
X128471429Y-72585715D01*
X127900000Y-72071429D02*
X127871429Y-72128572D01*
X127871429Y-72214286D01*
X127900000Y-72300001D01*
X127957143Y-72357143D01*
X128014286Y-72385715D01*
X128128571Y-72414286D01*
X128214286Y-72414286D01*
X128328571Y-72385715D01*
X128385714Y-72357143D01*
X128442857Y-72300001D01*
X128471429Y-72214286D01*
X128471429Y-72157143D01*
X128442857Y-72071429D01*
X128414286Y-72042858D01*
X128214286Y-72042858D01*
X128214286Y-72157143D01*
X128471429Y-71471429D02*
X128471429Y-71814286D01*
X128471429Y-71642858D02*
X127871429Y-71642858D01*
X127957143Y-71700001D01*
X128014286Y-71757143D01*
X128042857Y-71814286D01*
X127871429Y-71100000D02*
X127871429Y-71042857D01*
X127900000Y-70985714D01*
X127928571Y-70957143D01*
X127985714Y-70928572D01*
X128100000Y-70900000D01*
X128242857Y-70900000D01*
X128357143Y-70928572D01*
X128414286Y-70957143D01*
X128442857Y-70985714D01*
X128471429Y-71042857D01*
X128471429Y-71100000D01*
X128442857Y-71157143D01*
X128414286Y-71185714D01*
X128357143Y-71214286D01*
X128242857Y-71242857D01*
X128100000Y-71242857D01*
X127985714Y-71214286D01*
X127928571Y-71185714D01*
X127900000Y-71157143D01*
X127871429Y-71100000D01*
X127928571Y-70671428D02*
X127900000Y-70642857D01*
X127871429Y-70585714D01*
X127871429Y-70442857D01*
X127900000Y-70385714D01*
X127928571Y-70357143D01*
X127985714Y-70328571D01*
X128042857Y-70328571D01*
X128128571Y-70357143D01*
X128471429Y-70700000D01*
X128471429Y-70328571D01*
X128442857Y-70099999D02*
X128471429Y-70014285D01*
X128471429Y-69871428D01*
X128442857Y-69814285D01*
X128414286Y-69785714D01*
X128357143Y-69757142D01*
X128300000Y-69757142D01*
X128242857Y-69785714D01*
X128214286Y-69814285D01*
X128185714Y-69871428D01*
X128157143Y-69985714D01*
X128128571Y-70042856D01*
X128100000Y-70071428D01*
X128042857Y-70099999D01*
X127985714Y-70099999D01*
X127928571Y-70071428D01*
X127900000Y-70042856D01*
X127871429Y-69985714D01*
X127871429Y-69842856D01*
X127900000Y-69757142D01*
X128471429Y-69499999D02*
X127871429Y-69499999D01*
X128471429Y-69157142D01*
X127871429Y-69157142D01*
X128471429Y-68557142D02*
X128471429Y-68899999D01*
X128471429Y-68728571D02*
X127871429Y-68728571D01*
X127957143Y-68785714D01*
X128014286Y-68842856D01*
X128042857Y-68899999D01*
D13*
X107839524Y-87247738D02*
X107779048Y-87217500D01*
X107718571Y-87157024D01*
X107627857Y-87066310D01*
X107567381Y-87036071D01*
X107506905Y-87036071D01*
X107537143Y-87187262D02*
X107476667Y-87157024D01*
X107416190Y-87096548D01*
X107385952Y-86975595D01*
X107385952Y-86763929D01*
X107416190Y-86642976D01*
X107476667Y-86582500D01*
X107537143Y-86552262D01*
X107658095Y-86552262D01*
X107718571Y-86582500D01*
X107779048Y-86642976D01*
X107809286Y-86763929D01*
X107809286Y-86975595D01*
X107779048Y-87096548D01*
X107718571Y-87157024D01*
X107658095Y-87187262D01*
X107537143Y-87187262D01*
X108353571Y-86763929D02*
X108353571Y-87187262D01*
X108202381Y-86522024D02*
X108051190Y-86975595D01*
X108444286Y-86975595D01*
X107681033Y-93889016D02*
X107681033Y-93526159D01*
X108316033Y-93707587D02*
X107681033Y-93707587D01*
X108285795Y-93344730D02*
X108316033Y-93254015D01*
X108316033Y-93102825D01*
X108285795Y-93042349D01*
X108255557Y-93012111D01*
X108195081Y-92981872D01*
X108134604Y-92981872D01*
X108074128Y-93012111D01*
X108043890Y-93042349D01*
X108013652Y-93102825D01*
X107983414Y-93223777D01*
X107953176Y-93284253D01*
X107922938Y-93314492D01*
X107862461Y-93344730D01*
X107801985Y-93344730D01*
X107741509Y-93314492D01*
X107711271Y-93284253D01*
X107681033Y-93223777D01*
X107681033Y-93072587D01*
X107711271Y-92981872D01*
X107681033Y-92588777D02*
X107681033Y-92467825D01*
X107711271Y-92407349D01*
X107771747Y-92346872D01*
X107892700Y-92316634D01*
X108104366Y-92316634D01*
X108225319Y-92346872D01*
X108285795Y-92407349D01*
X108316033Y-92467825D01*
X108316033Y-92588777D01*
X108285795Y-92649253D01*
X108225319Y-92709730D01*
X108104366Y-92739968D01*
X107892700Y-92739968D01*
X107771747Y-92709730D01*
X107711271Y-92649253D01*
X107681033Y-92588777D01*
X108316033Y-92044492D02*
X107681033Y-92044492D01*
X107681033Y-91802587D01*
X107711271Y-91742111D01*
X107741509Y-91711872D01*
X107801985Y-91681634D01*
X107892700Y-91681634D01*
X107953176Y-91711872D01*
X107983414Y-91742111D01*
X108013652Y-91802587D01*
X108013652Y-92044492D01*
X107681033Y-91469968D02*
X107681033Y-91046634D01*
X108316033Y-91318777D01*
X107681033Y-90502349D02*
X107681033Y-90804730D01*
X107983414Y-90834968D01*
X107953176Y-90804730D01*
X107922938Y-90744253D01*
X107922938Y-90593063D01*
X107953176Y-90532587D01*
X107983414Y-90502349D01*
X108043890Y-90472110D01*
X108195081Y-90472110D01*
X108255557Y-90502349D01*
X108285795Y-90532587D01*
X108316033Y-90593063D01*
X108316033Y-90744253D01*
X108285795Y-90804730D01*
X108255557Y-90834968D01*
X107741509Y-90230206D02*
X107711271Y-90199968D01*
X107681033Y-90139491D01*
X107681033Y-89988301D01*
X107711271Y-89927825D01*
X107741509Y-89897587D01*
X107801985Y-89867348D01*
X107862461Y-89867348D01*
X107953176Y-89897587D01*
X108316033Y-90260444D01*
X108316033Y-89867348D01*
X107681033Y-89292825D02*
X107681033Y-89595206D01*
X107983414Y-89625444D01*
X107953176Y-89595206D01*
X107922938Y-89534729D01*
X107922938Y-89383539D01*
X107953176Y-89323063D01*
X107983414Y-89292825D01*
X108043890Y-89262586D01*
X108195081Y-89262586D01*
X108255557Y-89292825D01*
X108285795Y-89323063D01*
X108316033Y-89383539D01*
X108316033Y-89534729D01*
X108285795Y-89595206D01*
X108255557Y-89625444D01*
X107681033Y-88718301D02*
X107681033Y-88839253D01*
X107711271Y-88899729D01*
X107741509Y-88929967D01*
X107832223Y-88990444D01*
X107953176Y-89020682D01*
X108195081Y-89020682D01*
X108255557Y-88990444D01*
X108285795Y-88960205D01*
X108316033Y-88899729D01*
X108316033Y-88778777D01*
X108285795Y-88718301D01*
X108255557Y-88688063D01*
X108195081Y-88657824D01*
X108043890Y-88657824D01*
X107983414Y-88688063D01*
X107953176Y-88718301D01*
X107922938Y-88778777D01*
X107922938Y-88899729D01*
X107953176Y-88960205D01*
X107983414Y-88990444D01*
X108043890Y-89020682D01*
D12*
X119942857Y-85828571D02*
X119885714Y-85800000D01*
X119828571Y-85742857D01*
X119742857Y-85657143D01*
X119685714Y-85628571D01*
X119628571Y-85628571D01*
X119657143Y-85771429D02*
X119600000Y-85742857D01*
X119542857Y-85685714D01*
X119514286Y-85571429D01*
X119514286Y-85371429D01*
X119542857Y-85257143D01*
X119600000Y-85200000D01*
X119657143Y-85171429D01*
X119771429Y-85171429D01*
X119828571Y-85200000D01*
X119885714Y-85257143D01*
X119914286Y-85371429D01*
X119914286Y-85571429D01*
X119885714Y-85685714D01*
X119828571Y-85742857D01*
X119771429Y-85771429D01*
X119657143Y-85771429D01*
X120457142Y-85171429D02*
X120171428Y-85171429D01*
X120142857Y-85457143D01*
X120171428Y-85428571D01*
X120228571Y-85400000D01*
X120371428Y-85400000D01*
X120428571Y-85428571D01*
X120457142Y-85457143D01*
X120485714Y-85514286D01*
X120485714Y-85657143D01*
X120457142Y-85714286D01*
X120428571Y-85742857D01*
X120371428Y-85771429D01*
X120228571Y-85771429D01*
X120171428Y-85742857D01*
X120142857Y-85714286D01*
D13*
X121471175Y-87012218D02*
X120871735Y-87012218D01*
X121299907Y-86812405D01*
X120871735Y-86612592D01*
X121471175Y-86612592D01*
X121471175Y-86327144D02*
X120871735Y-86327144D01*
X121299907Y-86127331D01*
X120871735Y-85927518D01*
X121471175Y-85927518D01*
X121157183Y-85442257D02*
X121185728Y-85356623D01*
X121214272Y-85328078D01*
X121271362Y-85299533D01*
X121356996Y-85299533D01*
X121414086Y-85328078D01*
X121442630Y-85356623D01*
X121471175Y-85413712D01*
X121471175Y-85642070D01*
X120871735Y-85642070D01*
X120871735Y-85442257D01*
X120900280Y-85385167D01*
X120928825Y-85356623D01*
X120985914Y-85328078D01*
X121043004Y-85328078D01*
X121100093Y-85356623D01*
X121128638Y-85385167D01*
X121157183Y-85442257D01*
X121157183Y-85642070D01*
X120871735Y-85128264D02*
X120871735Y-84785727D01*
X121471175Y-84956996D02*
X120871735Y-84956996D01*
X120928825Y-84614459D02*
X120900280Y-84585914D01*
X120871735Y-84528825D01*
X120871735Y-84386101D01*
X120900280Y-84329011D01*
X120928825Y-84300467D01*
X120985914Y-84271922D01*
X121043004Y-84271922D01*
X121128638Y-84300467D01*
X121471175Y-84643004D01*
X121471175Y-84271922D01*
X120928825Y-84043564D02*
X120900280Y-84015019D01*
X120871735Y-83957930D01*
X120871735Y-83815206D01*
X120900280Y-83758116D01*
X120928825Y-83729572D01*
X120985914Y-83701027D01*
X121043004Y-83701027D01*
X121128638Y-83729572D01*
X121471175Y-84072109D01*
X121471175Y-83701027D01*
X120928825Y-83472669D02*
X120900280Y-83444124D01*
X120871735Y-83387035D01*
X120871735Y-83244311D01*
X120900280Y-83187221D01*
X120928825Y-83158677D01*
X120985914Y-83130132D01*
X121043004Y-83130132D01*
X121128638Y-83158677D01*
X121471175Y-83501214D01*
X121471175Y-83130132D01*
X120928825Y-82901774D02*
X120900280Y-82873229D01*
X120871735Y-82816140D01*
X120871735Y-82673416D01*
X120900280Y-82616326D01*
X120928825Y-82587782D01*
X120985914Y-82559237D01*
X121043004Y-82559237D01*
X121128638Y-82587782D01*
X121471175Y-82930319D01*
X121471175Y-82559237D01*
D12*
X138771429Y-94000000D02*
X138485714Y-94200000D01*
X138771429Y-94342857D02*
X138171429Y-94342857D01*
X138171429Y-94114285D01*
X138200000Y-94057143D01*
X138228571Y-94028571D01*
X138285714Y-94000000D01*
X138371429Y-94000000D01*
X138428571Y-94028571D01*
X138457143Y-94057143D01*
X138485714Y-94114285D01*
X138485714Y-94342857D01*
X138171429Y-93800000D02*
X138171429Y-93400000D01*
X138771429Y-93657143D01*
X139628571Y-96442857D02*
X139600000Y-96414286D01*
X139571429Y-96357143D01*
X139571429Y-96214286D01*
X139600000Y-96157143D01*
X139628571Y-96128572D01*
X139685714Y-96100000D01*
X139742857Y-96100000D01*
X139828571Y-96128572D01*
X140171429Y-96471429D01*
X140171429Y-96100000D01*
X139628571Y-95871428D02*
X139600000Y-95842857D01*
X139571429Y-95785714D01*
X139571429Y-95642857D01*
X139600000Y-95585714D01*
X139628571Y-95557143D01*
X139685714Y-95528571D01*
X139742857Y-95528571D01*
X139828571Y-95557143D01*
X140171429Y-95900000D01*
X140171429Y-95528571D01*
X139571429Y-95157142D02*
X139571429Y-95099999D01*
X139600000Y-95042856D01*
X139628571Y-95014285D01*
X139685714Y-94985714D01*
X139800000Y-94957142D01*
X139942857Y-94957142D01*
X140057143Y-94985714D01*
X140114286Y-95014285D01*
X140142857Y-95042856D01*
X140171429Y-95099999D01*
X140171429Y-95157142D01*
X140142857Y-95214285D01*
X140114286Y-95242856D01*
X140057143Y-95271428D01*
X139942857Y-95299999D01*
X139800000Y-95299999D01*
X139685714Y-95271428D01*
X139628571Y-95242856D01*
X139600000Y-95214285D01*
X139571429Y-95157142D01*
X140171429Y-94357142D02*
X139885714Y-94557142D01*
X140171429Y-94699999D02*
X139571429Y-94699999D01*
X139571429Y-94471427D01*
X139600000Y-94414285D01*
X139628571Y-94385713D01*
X139685714Y-94357142D01*
X139771429Y-94357142D01*
X139828571Y-94385713D01*
X139857143Y-94414285D01*
X139885714Y-94471427D01*
X139885714Y-94699999D01*
X135300000Y-77271429D02*
X135100000Y-76985714D01*
X134957143Y-77271429D02*
X134957143Y-76671429D01*
X135185715Y-76671429D01*
X135242857Y-76700000D01*
X135271429Y-76728571D01*
X135300000Y-76785714D01*
X135300000Y-76871429D01*
X135271429Y-76928571D01*
X135242857Y-76957143D01*
X135185715Y-76985714D01*
X134957143Y-76985714D01*
X135585715Y-77271429D02*
X135700000Y-77271429D01*
X135757143Y-77242857D01*
X135785715Y-77214286D01*
X135842857Y-77128571D01*
X135871429Y-77014286D01*
X135871429Y-76785714D01*
X135842857Y-76728571D01*
X135814286Y-76700000D01*
X135757143Y-76671429D01*
X135642857Y-76671429D01*
X135585715Y-76700000D01*
X135557143Y-76728571D01*
X135528572Y-76785714D01*
X135528572Y-76928571D01*
X135557143Y-76985714D01*
X135585715Y-77014286D01*
X135642857Y-77042857D01*
X135757143Y-77042857D01*
X135814286Y-77014286D01*
X135842857Y-76985714D01*
X135871429Y-76928571D01*
X134900000Y-77828571D02*
X134928571Y-77800000D01*
X134985714Y-77771429D01*
X135128571Y-77771429D01*
X135185714Y-77800000D01*
X135214285Y-77828571D01*
X135242857Y-77885714D01*
X135242857Y-77942857D01*
X135214285Y-78028571D01*
X134871428Y-78371429D01*
X135242857Y-78371429D01*
X135614286Y-77771429D02*
X135671429Y-77771429D01*
X135728572Y-77800000D01*
X135757143Y-77828571D01*
X135785714Y-77885714D01*
X135814286Y-78000000D01*
X135814286Y-78142857D01*
X135785714Y-78257143D01*
X135757143Y-78314286D01*
X135728572Y-78342857D01*
X135671429Y-78371429D01*
X135614286Y-78371429D01*
X135557143Y-78342857D01*
X135528572Y-78314286D01*
X135500000Y-78257143D01*
X135471429Y-78142857D01*
X135471429Y-78000000D01*
X135500000Y-77885714D01*
X135528572Y-77828571D01*
X135557143Y-77800000D01*
X135614286Y-77771429D01*
X136071429Y-78371429D02*
X136071429Y-77771429D01*
X136128572Y-78142857D02*
X136300001Y-78371429D01*
X136300001Y-77971429D02*
X136071429Y-78200000D01*
X113014285Y-87371429D02*
X112814285Y-87085714D01*
X112671428Y-87371429D02*
X112671428Y-86771429D01*
X112900000Y-86771429D01*
X112957142Y-86800000D01*
X112985714Y-86828571D01*
X113014285Y-86885714D01*
X113014285Y-86971429D01*
X112985714Y-87028571D01*
X112957142Y-87057143D01*
X112900000Y-87085714D01*
X112671428Y-87085714D01*
X113585714Y-87371429D02*
X113242857Y-87371429D01*
X113414285Y-87371429D02*
X113414285Y-86771429D01*
X113357142Y-86857143D01*
X113300000Y-86914286D01*
X113242857Y-86942857D01*
X114100000Y-86971429D02*
X114100000Y-87371429D01*
X113957143Y-86742857D02*
X113814286Y-87171429D01*
X114185714Y-87171429D01*
X113100000Y-91471429D02*
X112757143Y-91471429D01*
X112928571Y-91471429D02*
X112928571Y-90871429D01*
X112871428Y-90957143D01*
X112814286Y-91014286D01*
X112757143Y-91042857D01*
X113471429Y-90871429D02*
X113528572Y-90871429D01*
X113585715Y-90900000D01*
X113614286Y-90928571D01*
X113642857Y-90985714D01*
X113671429Y-91100000D01*
X113671429Y-91242857D01*
X113642857Y-91357143D01*
X113614286Y-91414286D01*
X113585715Y-91442857D01*
X113528572Y-91471429D01*
X113471429Y-91471429D01*
X113414286Y-91442857D01*
X113385715Y-91414286D01*
X113357143Y-91357143D01*
X113328572Y-91242857D01*
X113328572Y-91100000D01*
X113357143Y-90985714D01*
X113385715Y-90928571D01*
X113414286Y-90900000D01*
X113471429Y-90871429D01*
X114042858Y-90871429D02*
X114100001Y-90871429D01*
X114157144Y-90900000D01*
X114185715Y-90928571D01*
X114214286Y-90985714D01*
X114242858Y-91100000D01*
X114242858Y-91242857D01*
X114214286Y-91357143D01*
X114185715Y-91414286D01*
X114157144Y-91442857D01*
X114100001Y-91471429D01*
X114042858Y-91471429D01*
X113985715Y-91442857D01*
X113957144Y-91414286D01*
X113928572Y-91357143D01*
X113900001Y-91242857D01*
X113900001Y-91100000D01*
X113928572Y-90985714D01*
X113957144Y-90928571D01*
X113985715Y-90900000D01*
X114042858Y-90871429D01*
X116114285Y-93271429D02*
X115914285Y-92985714D01*
X115771428Y-93271429D02*
X115771428Y-92671429D01*
X116000000Y-92671429D01*
X116057142Y-92700000D01*
X116085714Y-92728571D01*
X116114285Y-92785714D01*
X116114285Y-92871429D01*
X116085714Y-92928571D01*
X116057142Y-92957143D01*
X116000000Y-92985714D01*
X115771428Y-92985714D01*
X116685714Y-93271429D02*
X116342857Y-93271429D01*
X116514285Y-93271429D02*
X116514285Y-92671429D01*
X116457142Y-92757143D01*
X116400000Y-92814286D01*
X116342857Y-92842857D01*
X117228571Y-92671429D02*
X116942857Y-92671429D01*
X116914286Y-92957143D01*
X116942857Y-92928571D01*
X117000000Y-92900000D01*
X117142857Y-92900000D01*
X117200000Y-92928571D01*
X117228571Y-92957143D01*
X117257143Y-93014286D01*
X117257143Y-93157143D01*
X117228571Y-93214286D01*
X117200000Y-93242857D01*
X117142857Y-93271429D01*
X117000000Y-93271429D01*
X116942857Y-93242857D01*
X116914286Y-93214286D01*
X116242857Y-92271429D02*
X115900000Y-92271429D01*
X116071428Y-92271429D02*
X116071428Y-91671429D01*
X116014285Y-91757143D01*
X115957143Y-91814286D01*
X115900000Y-91842857D01*
X116614286Y-91671429D02*
X116671429Y-91671429D01*
X116728572Y-91700000D01*
X116757143Y-91728571D01*
X116785714Y-91785714D01*
X116814286Y-91900000D01*
X116814286Y-92042857D01*
X116785714Y-92157143D01*
X116757143Y-92214286D01*
X116728572Y-92242857D01*
X116671429Y-92271429D01*
X116614286Y-92271429D01*
X116557143Y-92242857D01*
X116528572Y-92214286D01*
X116500000Y-92157143D01*
X116471429Y-92042857D01*
X116471429Y-91900000D01*
X116500000Y-91785714D01*
X116528572Y-91728571D01*
X116557143Y-91700000D01*
X116614286Y-91671429D01*
X117071429Y-92271429D02*
X117071429Y-91671429D01*
X117128572Y-92042857D02*
X117300001Y-92271429D01*
X117300001Y-91871429D02*
X117071429Y-92100000D01*
X144684429Y-95314286D02*
X145284429Y-94914286D01*
X144684429Y-94914286D02*
X145284429Y-95314286D01*
X144684429Y-94771428D02*
X144684429Y-94428571D01*
X145284429Y-94600000D02*
X144684429Y-94600000D01*
X145113000Y-94257142D02*
X145113000Y-93971428D01*
X145284429Y-94314285D02*
X144684429Y-94114285D01*
X145284429Y-93914285D01*
X145284429Y-93428571D02*
X145284429Y-93714285D01*
X144684429Y-93714285D01*
X144741571Y-93257142D02*
X144713000Y-93228571D01*
X144684429Y-93171428D01*
X144684429Y-93028571D01*
X144713000Y-92971428D01*
X144741571Y-92942857D01*
X144798714Y-92914285D01*
X144855857Y-92914285D01*
X144941571Y-92942857D01*
X145284429Y-93285714D01*
X145284429Y-92914285D01*
X146171429Y-95542857D02*
X146171429Y-95885714D01*
X146171429Y-95714286D02*
X145571429Y-95714286D01*
X145657143Y-95771429D01*
X145714286Y-95828571D01*
X145742857Y-95885714D01*
X145628571Y-95314285D02*
X145600000Y-95285714D01*
X145571429Y-95228571D01*
X145571429Y-95085714D01*
X145600000Y-95028571D01*
X145628571Y-95000000D01*
X145685714Y-94971428D01*
X145742857Y-94971428D01*
X145828571Y-95000000D01*
X146171429Y-95342857D01*
X146171429Y-94971428D01*
X146114286Y-94714285D02*
X146142857Y-94685713D01*
X146171429Y-94714285D01*
X146142857Y-94742856D01*
X146114286Y-94714285D01*
X146171429Y-94714285D01*
X145571429Y-94314285D02*
X145571429Y-94257142D01*
X145600000Y-94199999D01*
X145628571Y-94171428D01*
X145685714Y-94142857D01*
X145800000Y-94114285D01*
X145942857Y-94114285D01*
X146057143Y-94142857D01*
X146114286Y-94171428D01*
X146142857Y-94199999D01*
X146171429Y-94257142D01*
X146171429Y-94314285D01*
X146142857Y-94371428D01*
X146114286Y-94399999D01*
X146057143Y-94428571D01*
X145942857Y-94457142D01*
X145800000Y-94457142D01*
X145685714Y-94428571D01*
X145628571Y-94399999D01*
X145600000Y-94371428D01*
X145571429Y-94314285D01*
X146171429Y-93857142D02*
X145571429Y-93857142D01*
X146000000Y-93657142D01*
X145571429Y-93457142D01*
X146171429Y-93457142D01*
X146171429Y-93171428D02*
X145571429Y-93171428D01*
X145857143Y-93171428D02*
X145857143Y-92828571D01*
X146171429Y-92828571D02*
X145571429Y-92828571D01*
X145771429Y-92600000D02*
X145771429Y-92285714D01*
X146171429Y-92600000D01*
X146171429Y-92285714D01*
X144371429Y-70807129D02*
X144028572Y-70807129D01*
X144200000Y-70807129D02*
X144200000Y-70207129D01*
X144142857Y-70292843D01*
X144085715Y-70349986D01*
X144028572Y-70378557D01*
X115142857Y-87128571D02*
X115085714Y-87100000D01*
X115028571Y-87042857D01*
X114942857Y-86957143D01*
X114885714Y-86928571D01*
X114828571Y-86928571D01*
X114857143Y-87071429D02*
X114800000Y-87042857D01*
X114742857Y-86985714D01*
X114714286Y-86871429D01*
X114714286Y-86671429D01*
X114742857Y-86557143D01*
X114800000Y-86500000D01*
X114857143Y-86471429D01*
X114971429Y-86471429D01*
X115028571Y-86500000D01*
X115085714Y-86557143D01*
X115114286Y-86671429D01*
X115114286Y-86871429D01*
X115085714Y-86985714D01*
X115028571Y-87042857D01*
X114971429Y-87071429D01*
X114857143Y-87071429D01*
X115342857Y-86528571D02*
X115371428Y-86500000D01*
X115428571Y-86471429D01*
X115571428Y-86471429D01*
X115628571Y-86500000D01*
X115657142Y-86528571D01*
X115685714Y-86585714D01*
X115685714Y-86642857D01*
X115657142Y-86728571D01*
X115314285Y-87071429D01*
X115685714Y-87071429D01*
D13*
X117857183Y-86913245D02*
X117885728Y-86827611D01*
X117914272Y-86799066D01*
X117971362Y-86770521D01*
X118056996Y-86770521D01*
X118114086Y-86799066D01*
X118142630Y-86827611D01*
X118171175Y-86884700D01*
X118171175Y-87113058D01*
X117571735Y-87113058D01*
X117571735Y-86913245D01*
X117600280Y-86856155D01*
X117628825Y-86827611D01*
X117685914Y-86799066D01*
X117743004Y-86799066D01*
X117800093Y-86827611D01*
X117828638Y-86856155D01*
X117857183Y-86913245D01*
X117857183Y-87113058D01*
X118114086Y-86171081D02*
X118142630Y-86199626D01*
X118171175Y-86285260D01*
X118171175Y-86342350D01*
X118142630Y-86427984D01*
X118085541Y-86485073D01*
X118028451Y-86513618D01*
X117914272Y-86542163D01*
X117828638Y-86542163D01*
X117714459Y-86513618D01*
X117657370Y-86485073D01*
X117600280Y-86427984D01*
X117571735Y-86342350D01*
X117571735Y-86285260D01*
X117600280Y-86199626D01*
X117628825Y-86171081D01*
X117828638Y-85828544D02*
X117800093Y-85885633D01*
X117771549Y-85914178D01*
X117714459Y-85942723D01*
X117685914Y-85942723D01*
X117628825Y-85914178D01*
X117600280Y-85885633D01*
X117571735Y-85828544D01*
X117571735Y-85714365D01*
X117600280Y-85657275D01*
X117628825Y-85628731D01*
X117685914Y-85600186D01*
X117714459Y-85600186D01*
X117771549Y-85628731D01*
X117800093Y-85657275D01*
X117828638Y-85714365D01*
X117828638Y-85828544D01*
X117857183Y-85885633D01*
X117885728Y-85914178D01*
X117942817Y-85942723D01*
X118056996Y-85942723D01*
X118114086Y-85914178D01*
X118142630Y-85885633D01*
X118171175Y-85828544D01*
X118171175Y-85714365D01*
X118142630Y-85657275D01*
X118114086Y-85628731D01*
X118056996Y-85600186D01*
X117942817Y-85600186D01*
X117885728Y-85628731D01*
X117857183Y-85657275D01*
X117828638Y-85714365D01*
X117771549Y-85086380D02*
X118171175Y-85086380D01*
X117543190Y-85229104D02*
X117971362Y-85371828D01*
X117971362Y-85000746D01*
X117828638Y-84686754D02*
X117800093Y-84743843D01*
X117771549Y-84772388D01*
X117714459Y-84800933D01*
X117685914Y-84800933D01*
X117628825Y-84772388D01*
X117600280Y-84743843D01*
X117571735Y-84686754D01*
X117571735Y-84572575D01*
X117600280Y-84515485D01*
X117628825Y-84486941D01*
X117685914Y-84458396D01*
X117714459Y-84458396D01*
X117771549Y-84486941D01*
X117800093Y-84515485D01*
X117828638Y-84572575D01*
X117828638Y-84686754D01*
X117857183Y-84743843D01*
X117885728Y-84772388D01*
X117942817Y-84800933D01*
X118056996Y-84800933D01*
X118114086Y-84772388D01*
X118142630Y-84743843D01*
X118171175Y-84686754D01*
X118171175Y-84572575D01*
X118142630Y-84515485D01*
X118114086Y-84486941D01*
X118056996Y-84458396D01*
X117942817Y-84458396D01*
X117885728Y-84486941D01*
X117857183Y-84515485D01*
X117828638Y-84572575D01*
D12*
X119614285Y-93271429D02*
X119414285Y-92985714D01*
X119271428Y-93271429D02*
X119271428Y-92671429D01*
X119500000Y-92671429D01*
X119557142Y-92700000D01*
X119585714Y-92728571D01*
X119614285Y-92785714D01*
X119614285Y-92871429D01*
X119585714Y-92928571D01*
X119557142Y-92957143D01*
X119500000Y-92985714D01*
X119271428Y-92985714D01*
X120185714Y-93271429D02*
X119842857Y-93271429D01*
X120014285Y-93271429D02*
X120014285Y-92671429D01*
X119957142Y-92757143D01*
X119900000Y-92814286D01*
X119842857Y-92842857D01*
X120414286Y-92728571D02*
X120442857Y-92700000D01*
X120500000Y-92671429D01*
X120642857Y-92671429D01*
X120700000Y-92700000D01*
X120728571Y-92728571D01*
X120757143Y-92785714D01*
X120757143Y-92842857D01*
X120728571Y-92928571D01*
X120385714Y-93271429D01*
X120757143Y-93271429D01*
X119928572Y-92371429D02*
X119585715Y-92371429D01*
X119757143Y-92371429D02*
X119757143Y-91771429D01*
X119700000Y-91857143D01*
X119642858Y-91914286D01*
X119585715Y-91942857D01*
X120185715Y-92371429D02*
X120185715Y-91771429D01*
X120242858Y-92142857D02*
X120414287Y-92371429D01*
X120414287Y-91971429D02*
X120185715Y-92200000D01*
X132971428Y-104271429D02*
X133371428Y-104871429D01*
X133371428Y-104271429D02*
X132971428Y-104871429D01*
X133885714Y-104871429D02*
X133600000Y-104871429D01*
X133600000Y-104271429D01*
X134342857Y-104471429D02*
X134342857Y-104871429D01*
X134200000Y-104242857D02*
X134057143Y-104671429D01*
X134428571Y-104671429D01*
X124671428Y-107471429D02*
X125071428Y-108071429D01*
X125071428Y-107471429D02*
X124671428Y-108071429D01*
X125585714Y-108071429D02*
X125300000Y-108071429D01*
X125300000Y-107471429D01*
X126100000Y-108071429D02*
X125757143Y-108071429D01*
X125928571Y-108071429D02*
X125928571Y-107471429D01*
X125871428Y-107557143D01*
X125814286Y-107614286D01*
X125757143Y-107642857D01*
X124505715Y-110052381D02*
X123934286Y-110052381D01*
X124220000Y-110052381D02*
X124220000Y-109052381D01*
X124124762Y-109195238D01*
X124029524Y-109290476D01*
X123934286Y-109338095D01*
X143571428Y-109471429D02*
X143971428Y-110071429D01*
X143971428Y-109471429D02*
X143571428Y-110071429D01*
X144485714Y-110071429D02*
X144200000Y-110071429D01*
X144200000Y-109471429D01*
X144628571Y-109471429D02*
X145000000Y-109471429D01*
X144800000Y-109700000D01*
X144885714Y-109700000D01*
X144942857Y-109728571D01*
X144971428Y-109757143D01*
X145000000Y-109814286D01*
X145000000Y-109957143D01*
X144971428Y-110014286D01*
X144942857Y-110042857D01*
X144885714Y-110071429D01*
X144714286Y-110071429D01*
X144657143Y-110042857D01*
X144628571Y-110014286D01*
X134685715Y-112052381D02*
X134114286Y-112052381D01*
X134400000Y-112052381D02*
X134400000Y-111052381D01*
X134304762Y-111195238D01*
X134209524Y-111290476D01*
X134114286Y-111338095D01*
X112314286Y-75785715D02*
X112342857Y-75814286D01*
X112371429Y-75900000D01*
X112371429Y-75957143D01*
X112342857Y-76042858D01*
X112285714Y-76100000D01*
X112228571Y-76128572D01*
X112114286Y-76157143D01*
X112028571Y-76157143D01*
X111914286Y-76128572D01*
X111857143Y-76100000D01*
X111800000Y-76042858D01*
X111771429Y-75957143D01*
X111771429Y-75900000D01*
X111800000Y-75814286D01*
X111828571Y-75785715D01*
X111828571Y-75557143D02*
X111800000Y-75528572D01*
X111771429Y-75471429D01*
X111771429Y-75328572D01*
X111800000Y-75271429D01*
X111828571Y-75242858D01*
X111885714Y-75214286D01*
X111942857Y-75214286D01*
X112028571Y-75242858D01*
X112371429Y-75585715D01*
X112371429Y-75214286D01*
X111771429Y-74700000D02*
X111771429Y-74814286D01*
X111800000Y-74871429D01*
X111828571Y-74900000D01*
X111914286Y-74957143D01*
X112028571Y-74985714D01*
X112257143Y-74985714D01*
X112314286Y-74957143D01*
X112342857Y-74928571D01*
X112371429Y-74871429D01*
X112371429Y-74757143D01*
X112342857Y-74700000D01*
X112314286Y-74671429D01*
X112257143Y-74642857D01*
X112114286Y-74642857D01*
X112057143Y-74671429D01*
X112028571Y-74700000D01*
X112000000Y-74757143D01*
X112000000Y-74871429D01*
X112028571Y-74928571D01*
X112057143Y-74957143D01*
X112114286Y-74985714D01*
X115971429Y-75071429D02*
X116028572Y-75071429D01*
X116085715Y-75100000D01*
X116114286Y-75128571D01*
X116142857Y-75185714D01*
X116171429Y-75300000D01*
X116171429Y-75442857D01*
X116142857Y-75557143D01*
X116114286Y-75614286D01*
X116085715Y-75642857D01*
X116028572Y-75671429D01*
X115971429Y-75671429D01*
X115914286Y-75642857D01*
X115885715Y-75614286D01*
X115857143Y-75557143D01*
X115828572Y-75442857D01*
X115828572Y-75300000D01*
X115857143Y-75185714D01*
X115885715Y-75128571D01*
X115914286Y-75100000D01*
X115971429Y-75071429D01*
X116428572Y-75614286D02*
X116457144Y-75642857D01*
X116428572Y-75671429D01*
X116400001Y-75642857D01*
X116428572Y-75614286D01*
X116428572Y-75671429D01*
X117028572Y-75671429D02*
X116685715Y-75671429D01*
X116857143Y-75671429D02*
X116857143Y-75071429D01*
X116800000Y-75157143D01*
X116742858Y-75214286D01*
X116685715Y-75242857D01*
X117542858Y-75271429D02*
X117542858Y-75671429D01*
X117285715Y-75271429D02*
X117285715Y-75585714D01*
X117314287Y-75642857D01*
X117371429Y-75671429D01*
X117457144Y-75671429D01*
X117514287Y-75642857D01*
X117542858Y-75614286D01*
X134214285Y-65771429D02*
X134014285Y-65485714D01*
X133871428Y-65771429D02*
X133871428Y-65171429D01*
X134100000Y-65171429D01*
X134157142Y-65200000D01*
X134185714Y-65228571D01*
X134214285Y-65285714D01*
X134214285Y-65371429D01*
X134185714Y-65428571D01*
X134157142Y-65457143D01*
X134100000Y-65485714D01*
X133871428Y-65485714D01*
X134785714Y-65771429D02*
X134442857Y-65771429D01*
X134614285Y-65771429D02*
X134614285Y-65171429D01*
X134557142Y-65257143D01*
X134500000Y-65314286D01*
X134442857Y-65342857D01*
X135300000Y-65171429D02*
X135185714Y-65171429D01*
X135128571Y-65200000D01*
X135100000Y-65228571D01*
X135042857Y-65314286D01*
X135014286Y-65428571D01*
X135014286Y-65657143D01*
X135042857Y-65714286D01*
X135071429Y-65742857D01*
X135128571Y-65771429D01*
X135242857Y-65771429D01*
X135300000Y-65742857D01*
X135328571Y-65714286D01*
X135357143Y-65657143D01*
X135357143Y-65514286D01*
X135328571Y-65457143D01*
X135300000Y-65428571D01*
X135242857Y-65400000D01*
X135128571Y-65400000D01*
X135071429Y-65428571D01*
X135042857Y-65457143D01*
X135014286Y-65514286D01*
X136871429Y-64742857D02*
X136871429Y-65085714D01*
X136871429Y-64914286D02*
X136271429Y-64914286D01*
X136357143Y-64971429D01*
X136414286Y-65028571D01*
X136442857Y-65085714D01*
X136271429Y-64371428D02*
X136271429Y-64314285D01*
X136300000Y-64257142D01*
X136328571Y-64228571D01*
X136385714Y-64200000D01*
X136500000Y-64171428D01*
X136642857Y-64171428D01*
X136757143Y-64200000D01*
X136814286Y-64228571D01*
X136842857Y-64257142D01*
X136871429Y-64314285D01*
X136871429Y-64371428D01*
X136842857Y-64428571D01*
X136814286Y-64457142D01*
X136757143Y-64485714D01*
X136642857Y-64514285D01*
X136500000Y-64514285D01*
X136385714Y-64485714D01*
X136328571Y-64457142D01*
X136300000Y-64428571D01*
X136271429Y-64371428D01*
X136271429Y-63799999D02*
X136271429Y-63742856D01*
X136300000Y-63685713D01*
X136328571Y-63657142D01*
X136385714Y-63628571D01*
X136500000Y-63599999D01*
X136642857Y-63599999D01*
X136757143Y-63628571D01*
X136814286Y-63657142D01*
X136842857Y-63685713D01*
X136871429Y-63742856D01*
X136871429Y-63799999D01*
X136842857Y-63857142D01*
X136814286Y-63885713D01*
X136757143Y-63914285D01*
X136642857Y-63942856D01*
X136500000Y-63942856D01*
X136385714Y-63914285D01*
X136328571Y-63885713D01*
X136300000Y-63857142D01*
X136271429Y-63799999D01*
X136871429Y-63342856D02*
X136271429Y-63342856D01*
X136642857Y-63285713D02*
X136871429Y-63114284D01*
X136471429Y-63114284D02*
X136700000Y-63342856D01*
M02*
