M48
;DRILL file {KiCad 4.0.1-stable} date 20.01.2016 16:08:44
;FORMAT={-:-/ absolute / metric / decimal}
FMAT,2
METRIC,TZ
T1C0.300
T2C0.400
T3C0.600
T4C0.900
T5C3.500
%
G90
G05
M71
T1
X110.151Y-71.25
X112.018Y-93.14
X118.284Y-89.939
X121.993Y-97.646
X122.598Y-99.35
X123.186Y-104.545
X124.067Y-103.414
X124.43Y-100.267
X125.129Y-93.936
X125.17Y-99.72
X125.824Y-93.334
X126.987Y-92.692
X129.281Y-92.104
X129.66Y-96.197
X130.374Y-94.485
X130.676Y-95.361
X130.974Y-96.219
X131.166Y-100.029
X131.299Y-87.507
X131.683Y-90.061
X132.286Y-99.322
X132.292Y-100.655
X133.28Y-86.851
X133.487Y-70.758
X133.698Y-64.53
X133.757Y-93.728
X134.033Y-94.629
X134.183Y-95.809
X134.364Y-91.747
X134.368Y-87.741
X134.627Y-86.861
X135.125Y-71.418
X135.276Y-75.365
X135.458Y-87.259
X135.773Y-70.785
X136.235Y-89.65
X137.012Y-70.116
X141.982Y-101.53
T2
X105.9Y-78.6
X106.1Y-87.3
X106.6Y-89.5
X107.4Y-74.3
X107.8Y-93.6
X109.3Y-78.6
X109.6Y-87.3
X110.3Y-98.4
X110.991Y-93.532
X112.9Y-68.5
X114.539Y-95.091
X115.3Y-87.4
X115.742Y-102.902
X116.2Y-67.5
X116.512Y-70.832
X116.512Y-73.332
X116.512Y-75.832
X116.512Y-78.332
X116.9Y-105.5
X118.291Y-103.6
X118.3Y-87.7
X118.8Y-95.9
X119.Y-77.7
X119.Y-106.5
X119.012Y-70.832
X119.012Y-73.332
X119.012Y-75.832
X119.012Y-83.332
X119.012Y-85.832
X119.075Y-92.75
X121.249Y-92.766
X121.512Y-68.332
X121.512Y-70.832
X121.512Y-73.332
X121.512Y-75.832
X121.512Y-78.332
X121.512Y-80.832
X121.512Y-83.332
X121.512Y-85.832
X121.512Y-108.332
X121.6Y-60.2
X121.8Y-88.2
X121.9Y-90.7
X122.44Y-63.887
X122.495Y-95.454
X123.7Y-60.3
X124.012Y-58.332
X124.012Y-65.832
X124.012Y-68.332
X124.012Y-70.832
X124.012Y-73.332
X124.012Y-75.832
X124.012Y-78.332
X124.012Y-80.832
X124.012Y-83.332
X124.012Y-85.832
X124.012Y-88.332
X124.012Y-90.832
X124.012Y-105.832
X124.012Y-108.332
X124.51Y-94.838
X125.053Y-106.038
X125.331Y-82.719
X125.9Y-58.
X126.2Y-86.1
X126.2Y-88.4
X126.512Y-55.832
X126.512Y-65.832
X126.512Y-68.332
X126.512Y-70.832
X126.512Y-73.332
X126.512Y-75.832
X126.512Y-78.332
X126.512Y-83.332
X126.928Y-95.428
X126.944Y-96.933
X127.017Y-100.292
X127.155Y-86.983
X127.5Y-104.6
X127.788Y-98.646
X128.6Y-68.4
X128.6Y-70.8
X129.Y-83.7
X129.012Y-55.832
X129.012Y-65.832
X129.012Y-73.332
X129.012Y-75.832
X129.012Y-78.332
X129.3Y-58.2
X129.4Y-60.6
X129.74Y-90.204
X129.8Y-107.9
X130.067Y-100.059
X130.2Y-111.3
X130.5Y-103.5
X130.551Y-67.757
X131.2Y-68.8
X131.262Y-93.912
X131.512Y-55.832
X131.512Y-58.332
X131.512Y-70.832
X131.512Y-83.332
X131.512Y-105.832
X131.514Y-91.358
X132.3Y-107.9
X132.799Y-96.012
X132.826Y-92.439
X132.9Y-111.3
X133.3Y-104.
X133.506Y-73.894
X133.715Y-67.608
X134.012Y-55.832
X134.012Y-58.332
X134.012Y-105.832
X134.244Y-99.753
X134.472Y-92.852
X135.Y-108.
X135.2Y-66.637
X135.284Y-98.617
X135.765Y-76.744
X135.904Y-96.634
X136.Y-111.3
X136.1Y-83.3
X136.512Y-55.832
X136.512Y-58.332
X136.512Y-60.832
X136.512Y-65.832
X136.512Y-78.332
X136.512Y-88.332
X136.512Y-105.832
X136.7Y-63.4
X136.749Y-67.468
X136.784Y-68.711
X137.9Y-65.1
X138.152Y-71.719
X138.152Y-72.819
X138.156Y-75.73
X138.4Y-111.3
X138.7Y-103.7
X138.8Y-105.3
X138.9Y-87.3
X139.Y-83.8
X139.012Y-55.832
X139.012Y-58.332
X139.012Y-60.832
X139.012Y-63.332
X139.012Y-95.832
X139.012Y-98.332
X139.252Y-71.719
X139.252Y-72.819
X139.5Y-65.1
X139.783Y-77.919
X139.881Y-69.139
X140.067Y-90.254
X140.6Y-100.2
X140.635Y-81.826
X141.Y-65.1
X141.195Y-76.341
X141.512Y-55.832
X141.512Y-58.332
X141.512Y-60.832
X141.512Y-63.332
X141.512Y-83.332
X142.1Y-87.3
X142.174Y-68.443
X142.2Y-105.7
X142.2Y-108.1
X142.3Y-81.7
X142.5Y-93.8
X143.4Y-66.5
X143.5Y-76.4
X143.793Y-70.472
X143.9Y-74.6
X144.012Y-58.332
X144.012Y-60.832
X144.012Y-63.332
X144.012Y-78.332
X144.012Y-80.832
X144.012Y-83.332
X144.012Y-85.832
X144.012Y-88.332
X144.012Y-100.832
X144.012Y-105.832
X144.1Y-90.5
X144.2Y-98.2
X144.6Y-67.8
X145.174Y-69.79
X145.3Y-75.2
X146.5Y-72.8
X146.5Y-76.2
X146.512Y-58.332
X146.512Y-60.832
X146.512Y-63.332
X146.512Y-65.832
X146.512Y-68.332
X146.512Y-70.832
X146.512Y-78.332
X146.512Y-80.832
X146.512Y-83.332
X146.512Y-85.832
X146.512Y-88.332
X146.512Y-90.832
X146.512Y-93.332
X146.512Y-95.832
X146.512Y-98.332
X146.512Y-100.832
X146.512Y-105.832
T3
X110.8Y-72.7
X110.8Y-75.2
X110.8Y-77.7
T4
X112.2Y-66.1
X113.833Y-64.154
X115.15Y-79.6
X115.989Y-81.73
X115.989Y-84.27
X118.65Y-79.6
X126.22Y-109.6
X127.5Y-59.5
X127.5Y-106.5
X128.76Y-109.6
X130.19Y-101.9
X131.3Y-109.6
X132.73Y-101.9
X134.48Y-109.6
X135.27Y-101.9
X137.02Y-109.6
X137.81Y-101.9
X139.56Y-109.6
X140.5Y-59.5
X140.5Y-106.5
X142.1Y-109.6
T5
X118.5Y-62.5
X149.5Y-103.5
T0
M30
