G04 #@! TF.FileFunction,Soldermask,Top*
%FSLAX46Y46*%
G04 Gerber Fmt 4.6, Leading zero omitted, Abs format (unit mm)*
G04 Created by KiCad (PCBNEW 4.0.1-stable) date 20.01.2016 16:11:56*
%MOMM*%
G01*
G04 APERTURE LIST*
%ADD10C,0.100000*%
%ADD11C,6.200000*%
%ADD12R,1.300000X1.800000*%
%ADD13R,1.200000X1.100000*%
%ADD14R,1.200760X1.200760*%
%ADD15R,0.835000X1.300000*%
%ADD16O,0.835000X1.300000*%
%ADD17R,1.400000X0.500000*%
%ADD18O,1.400000X0.500000*%
%ADD19O,0.500000X1.400000*%
%ADD20R,1.300000X0.480000*%
%ADD21O,1.300000X0.480000*%
%ADD22O,0.480000X1.300000*%
%ADD23R,1.300000X1.300000*%
%ADD24R,1.114400X1.114400*%
%ADD25C,1.200000*%
%ADD26C,1.700000*%
%ADD27R,1.600000X1.200000*%
%ADD28C,1.400000*%
%ADD29R,1.089000X1.216000*%
%ADD30R,1.216000X1.089000*%
%ADD31R,1.343000X1.597000*%
%ADD32R,1.597000X1.343000*%
%ADD33R,0.800000X0.800000*%
%ADD34R,1.400000X2.800000*%
%ADD35R,1.100000X1.200000*%
%ADD36C,3.000000*%
%ADD37R,1.000000X0.450000*%
%ADD38O,1.000000X0.450000*%
%ADD39O,0.450000X1.000000*%
%ADD40R,2.000860X1.000100*%
%ADD41R,1.398880X2.099920*%
%ADD42R,2.200000X2.200000*%
%ADD43C,2.200000*%
%ADD44R,0.550000X1.200000*%
%ADD45R,1.800000X1.800000*%
%ADD46C,1.800000*%
%ADD47R,1.700000X1.700000*%
%ADD48R,3.400000X1.800000*%
%ADD49O,3.400000X1.800000*%
G04 APERTURE END LIST*
D10*
D11*
X149500000Y-103500000D03*
D12*
X135600000Y-85500000D03*
X134000000Y-85500000D03*
X132400000Y-85500000D03*
X135600000Y-80500000D03*
X134000000Y-80500000D03*
X132400000Y-80500000D03*
D13*
X121000000Y-98350000D03*
X121000000Y-96850000D03*
D14*
X131900000Y-63600480D03*
X131900000Y-60999520D03*
X112599520Y-73700000D03*
X115200480Y-73700000D03*
D15*
X133650000Y-63500000D03*
D16*
X134600000Y-63500000D03*
X135550000Y-63500000D03*
X135550000Y-60900000D03*
X133650000Y-60900000D03*
D17*
X136650000Y-95850000D03*
D18*
X136650000Y-95350000D03*
X136650000Y-94850000D03*
X136650000Y-94350000D03*
X136650000Y-93850000D03*
X136650000Y-93350000D03*
X136650000Y-92850000D03*
X136650000Y-92350000D03*
X136650000Y-91850000D03*
X136650000Y-91350000D03*
X136650000Y-90850000D03*
X136650000Y-90350000D03*
D19*
X135150000Y-88850000D03*
X134650000Y-88850000D03*
X134150000Y-88850000D03*
X133650000Y-88850000D03*
X133150000Y-88850000D03*
X132650000Y-88850000D03*
X132150000Y-88850000D03*
X131650000Y-88850000D03*
X131150000Y-88850000D03*
X130650000Y-88850000D03*
X130150000Y-88850000D03*
X129650000Y-88850000D03*
D18*
X128150000Y-90350000D03*
X128150000Y-90850000D03*
X128150000Y-91350000D03*
X128150000Y-91850000D03*
X128150000Y-92350000D03*
X128150000Y-92850000D03*
X128150000Y-93350000D03*
X128150000Y-93850000D03*
X128150000Y-94350000D03*
X128150000Y-94850000D03*
X128150000Y-95350000D03*
X128150000Y-95850000D03*
D19*
X129650000Y-97350000D03*
X130150000Y-97350000D03*
X130650000Y-97350000D03*
X131150000Y-97350000D03*
X131650000Y-97350000D03*
X132150000Y-97350000D03*
X132650000Y-97350000D03*
X133150000Y-97350000D03*
X133650000Y-97350000D03*
X134150000Y-97350000D03*
X134650000Y-97350000D03*
X135150000Y-97350000D03*
D20*
X136752000Y-71268700D03*
D21*
X136752000Y-71768700D03*
X136752000Y-72268700D03*
X136752000Y-72768700D03*
X136752000Y-73268700D03*
D22*
X137702000Y-74218700D03*
X138202000Y-74218700D03*
X138702000Y-74218700D03*
X139202000Y-74218700D03*
X139702000Y-74218700D03*
D21*
X140652000Y-73268700D03*
X140652000Y-72768700D03*
X140652000Y-72268700D03*
X140652000Y-71768700D03*
X140652000Y-71268700D03*
D22*
X139702000Y-70318700D03*
X139202000Y-70318700D03*
X138702000Y-70318700D03*
X138202000Y-70318700D03*
X137702000Y-70318700D03*
D23*
X138152000Y-71718700D03*
X139252000Y-71718700D03*
X138152000Y-72818700D03*
X139252000Y-72818700D03*
D24*
X113244100Y-71863700D03*
X113244100Y-70085700D03*
X115276100Y-70974700D03*
D25*
X138232000Y-92300000D03*
X136300000Y-75600000D03*
X134200000Y-69600000D03*
D10*
G36*
X112304768Y-67297507D02*
X111002493Y-66204768D01*
X112095232Y-64902493D01*
X113397507Y-65995232D01*
X112304768Y-67297507D01*
X112304768Y-67297507D01*
G37*
D26*
X113832681Y-64154247D03*
D27*
X138002000Y-80668700D03*
X140202000Y-80668700D03*
X140202000Y-79068700D03*
X138002000Y-79068700D03*
D10*
G36*
X110922985Y-96070181D02*
X109777089Y-96872546D01*
X108744537Y-95397909D01*
X109890433Y-94595544D01*
X110922985Y-96070181D01*
X110922985Y-96070181D01*
G37*
G36*
X114626535Y-93476927D02*
X113480639Y-94279292D01*
X112448087Y-92804655D01*
X113593983Y-92002290D01*
X114626535Y-93476927D01*
X114626535Y-93476927D01*
G37*
G36*
X115351913Y-102395345D02*
X114206017Y-103197710D01*
X113173465Y-101723073D01*
X114319361Y-100920708D01*
X115351913Y-102395345D01*
X115351913Y-102395345D01*
G37*
G36*
X119055463Y-99802091D02*
X117909567Y-100604456D01*
X116877015Y-99129819D01*
X118022911Y-98327454D01*
X119055463Y-99802091D01*
X119055463Y-99802091D01*
G37*
D13*
X140600000Y-102550000D03*
X140600000Y-104050000D03*
X142300000Y-102550000D03*
X142300000Y-104050000D03*
X144000000Y-104050000D03*
X144000000Y-102550000D03*
X128100000Y-80050000D03*
X128100000Y-81550000D03*
X126400000Y-80050000D03*
X126400000Y-81550000D03*
X129800000Y-80050000D03*
X129800000Y-81550000D03*
X139502000Y-67818700D03*
X139502000Y-66318700D03*
X123000000Y-96850000D03*
X123000000Y-98350000D03*
D28*
X110800000Y-72700000D03*
X110800000Y-75200000D03*
X110800000Y-77700000D03*
D29*
X128238000Y-86600000D03*
X129762000Y-86600000D03*
D30*
X125700000Y-96862000D03*
X125700000Y-95338000D03*
X137302000Y-98016100D03*
X137302000Y-99540100D03*
X138900000Y-90062000D03*
X138900000Y-88538000D03*
X140500000Y-89162000D03*
X140500000Y-87638000D03*
D31*
X125484000Y-103200000D03*
X127516000Y-103200000D03*
D32*
X123800000Y-63516000D03*
X123800000Y-61484000D03*
X131900000Y-65584000D03*
X131900000Y-67616000D03*
D29*
X138038000Y-82500000D03*
X139562000Y-82500000D03*
D30*
X142302000Y-79106700D03*
X142302000Y-80630700D03*
D29*
X134262000Y-75000000D03*
X132738000Y-75000000D03*
D30*
X141102000Y-67830700D03*
X141102000Y-66306700D03*
X143374000Y-69333700D03*
X143374000Y-67809700D03*
X142300000Y-75638000D03*
X142300000Y-77162000D03*
D29*
X139562000Y-76800000D03*
X138038000Y-76800000D03*
X134262000Y-72800000D03*
X132738000Y-72800000D03*
D30*
X137902000Y-67830700D03*
X137902000Y-66306700D03*
D31*
X113484000Y-77200000D03*
X115516000Y-77200000D03*
D33*
X145200000Y-71800000D03*
X145200000Y-70800000D03*
X146400000Y-74000000D03*
X146400000Y-75000000D03*
D34*
X130150000Y-62800000D03*
X127650000Y-62800000D03*
D33*
X145200000Y-74000000D03*
X145200000Y-73000000D03*
D35*
X110250000Y-70200000D03*
X111750000Y-70200000D03*
D36*
X145400000Y-108200000D03*
X121600000Y-58100000D03*
D30*
X125800000Y-63662000D03*
X125800000Y-62138000D03*
D29*
X128238000Y-85000000D03*
X129762000Y-85000000D03*
X125338000Y-101400000D03*
X126862000Y-101400000D03*
D30*
X142100000Y-90062000D03*
X142100000Y-88538000D03*
D29*
X142962000Y-98200000D03*
X141438000Y-98200000D03*
X122262000Y-106800000D03*
X120738000Y-106800000D03*
D30*
X116900000Y-102638000D03*
X116900000Y-104162000D03*
X111700000Y-89962000D03*
X111700000Y-88438000D03*
D37*
X119300000Y-101350000D03*
D38*
X119300000Y-101850000D03*
X119300000Y-102350000D03*
X119300000Y-102850000D03*
X119300000Y-103350000D03*
X119300000Y-103850000D03*
D39*
X119950000Y-104500000D03*
X120450000Y-104500000D03*
X120950000Y-104500000D03*
X121450000Y-104500000D03*
X121950000Y-104500000D03*
X122450000Y-104500000D03*
D38*
X123100000Y-103850000D03*
X123100000Y-103350000D03*
X123100000Y-102850000D03*
X123100000Y-102350000D03*
X123100000Y-101850000D03*
X123100000Y-101350000D03*
D39*
X122450000Y-100700000D03*
X121950000Y-100700000D03*
X121450000Y-100700000D03*
X120950000Y-100700000D03*
X120450000Y-100700000D03*
X119950000Y-100700000D03*
D11*
X118500000Y-62500000D03*
D33*
X126700000Y-85000000D03*
X125700000Y-85000000D03*
X135700000Y-67600000D03*
X134700000Y-67600000D03*
D40*
X109600000Y-91435000D03*
X109600000Y-92705000D03*
X109600000Y-90165000D03*
X109600000Y-88895000D03*
D24*
X120889000Y-88716000D03*
X119111000Y-88716000D03*
X120000000Y-86684000D03*
D13*
X139800000Y-93350000D03*
X139800000Y-91850000D03*
D35*
X133950000Y-77600000D03*
X132450000Y-77600000D03*
D13*
X113500000Y-88450000D03*
X113500000Y-89950000D03*
D35*
X117350000Y-90700000D03*
X115850000Y-90700000D03*
D41*
X141500180Y-92250880D03*
X141500180Y-95949120D03*
X143699820Y-95949120D03*
X143699820Y-92250880D03*
D42*
X127500000Y-59500000D03*
D43*
X127500000Y-106500000D03*
D42*
X140500000Y-106500000D03*
D43*
X140500000Y-59500000D03*
D44*
X144150000Y-71635700D03*
X143500000Y-71635700D03*
X142850000Y-71635700D03*
X142850000Y-73435700D03*
X143500000Y-73435700D03*
X144150000Y-73435700D03*
D45*
X115150000Y-79600000D03*
D46*
X118650000Y-79600000D03*
D24*
X117489000Y-88716000D03*
X115711000Y-88716000D03*
X116600000Y-86684000D03*
D35*
X120750000Y-90700000D03*
X119250000Y-90700000D03*
D47*
X130190000Y-101900000D03*
D26*
X132730000Y-101900000D03*
X135270000Y-101900000D03*
X137810000Y-101900000D03*
D47*
X126220000Y-109600000D03*
D26*
X128760000Y-109600000D03*
X131300000Y-109600000D03*
D47*
X134480000Y-109600000D03*
D26*
X137020000Y-109600000D03*
X139560000Y-109600000D03*
X142100000Y-109600000D03*
D48*
X115989000Y-81730000D03*
D49*
X115989000Y-84270000D03*
D29*
X113338000Y-75400000D03*
X114862000Y-75400000D03*
D35*
X133850000Y-65500000D03*
X135350000Y-65500000D03*
M02*
