G04 #@! TF.FileFunction,Soldermask,Top*
%FSLAX46Y46*%
G04 Gerber Fmt 4.6, Leading zero omitted, Abs format (unit mm)*
G04 Created by KiCad (PCBNEW (after 2015-mar-04 BZR unknown)-product) date 12.05.2015 11:57:38*
%MOMM*%
G01*
G04 APERTURE LIST*
%ADD10C,0.100000*%
%ADD11R,2.200000X2.200000*%
%ADD12C,2.200000*%
%ADD13R,0.550000X1.200000*%
%ADD14C,1.700000*%
%ADD15R,1.200760X1.200760*%
%ADD16R,1.300000X0.835000*%
%ADD17O,1.300000X0.835000*%
%ADD18C,0.500000*%
%ADD19R,1.300000X0.480000*%
%ADD20O,1.300000X0.480000*%
%ADD21O,0.480000X1.300000*%
%ADD22R,1.300000X1.300000*%
%ADD23R,1.300000X1.800000*%
%ADD24R,1.114400X1.114400*%
%ADD25C,1.200000*%
%ADD26R,1.700000X1.700000*%
%ADD27R,1.600000X1.200000*%
%ADD28R,1.398880X1.800200*%
%ADD29R,0.499720X1.398880*%
%ADD30O,0.499720X1.398880*%
%ADD31O,1.398880X0.499720*%
%ADD32R,1.100000X1.200000*%
%ADD33R,1.200000X1.100000*%
%ADD34C,1.400000*%
%ADD35R,1.597000X1.343000*%
%ADD36R,1.343000X1.597000*%
%ADD37R,1.216000X1.089000*%
%ADD38R,1.089000X1.216000*%
%ADD39R,0.800000X0.800000*%
%ADD40R,2.800000X1.400000*%
%ADD41C,3.000000*%
G04 APERTURE END LIST*
D10*
D11*
X140283000Y-59481300D03*
D12*
X140283000Y-106481300D03*
D13*
X139552000Y-65568700D03*
X138902000Y-65568700D03*
X138252000Y-65568700D03*
X138252000Y-67368700D03*
X138902000Y-67368700D03*
X139552000Y-67368700D03*
D10*
G36*
X114359786Y-99786032D02*
X115561868Y-100988114D01*
X114359786Y-102190196D01*
X113157704Y-100988114D01*
X114359786Y-99786032D01*
X114359786Y-99786032D01*
G37*
D14*
X117188214Y-98159686D03*
D15*
X121830520Y-82463000D03*
X124431480Y-82463000D03*
X111900480Y-70000000D03*
X109299520Y-70000000D03*
D16*
X121831000Y-84113000D03*
D17*
X121831000Y-85063000D03*
X121831000Y-86013000D03*
X124431000Y-86013000D03*
X124431000Y-84113000D03*
D10*
G36*
X139269945Y-95799389D02*
X139623498Y-96152942D01*
X138633549Y-97142891D01*
X138279996Y-96789338D01*
X139269945Y-95799389D01*
X139269945Y-95799389D01*
G37*
D18*
X138916392Y-95799388D02*
X138279996Y-96435784D01*
X138562839Y-95445835D02*
X137926443Y-96082231D01*
X138209285Y-95092282D02*
X137572889Y-95728678D01*
X137855732Y-94738728D02*
X137219336Y-95375124D01*
X137502179Y-94385175D02*
X136865783Y-95021571D01*
X137148625Y-94031621D02*
X136512229Y-94668017D01*
X136795072Y-93678068D02*
X136158676Y-94314464D01*
X136441518Y-93324515D02*
X135805122Y-93960911D01*
X136087965Y-92970961D02*
X135451569Y-93607357D01*
X135734412Y-92617408D02*
X135098016Y-93253804D01*
X135380858Y-92263855D02*
X134744462Y-92900251D01*
X132623142Y-92263855D02*
X133259538Y-92900251D01*
X132269588Y-92617408D02*
X132905984Y-93253804D01*
X131916035Y-92970961D02*
X132552431Y-93607357D01*
X131562482Y-93324515D02*
X132198878Y-93960911D01*
X131208928Y-93678068D02*
X131845324Y-94314464D01*
X130855375Y-94031621D02*
X131491771Y-94668017D01*
X130501821Y-94385175D02*
X131138217Y-95021571D01*
X130148268Y-94738728D02*
X130784664Y-95375124D01*
X129794715Y-95092282D02*
X130431111Y-95728678D01*
X129441161Y-95445835D02*
X130077557Y-96082231D01*
X129087608Y-95799388D02*
X129724004Y-96435784D01*
X128734055Y-96152942D02*
X129370451Y-96789338D01*
X129370451Y-98274262D02*
X128734055Y-98910658D01*
X129724004Y-98627816D02*
X129087608Y-99264212D01*
X130077557Y-98981369D02*
X129441161Y-99617765D01*
X130431111Y-99334922D02*
X129794715Y-99971318D01*
X130784664Y-99688476D02*
X130148268Y-100324872D01*
X131138217Y-100042029D02*
X130501821Y-100678425D01*
X131491771Y-100395583D02*
X130855375Y-101031979D01*
X131845324Y-100749136D02*
X131208928Y-101385532D01*
X132198878Y-101102689D02*
X131562482Y-101739085D01*
X132552431Y-101456243D02*
X131916035Y-102092639D01*
X132905984Y-101809796D02*
X132269588Y-102446192D01*
X133259538Y-102163349D02*
X132623142Y-102799745D01*
X134744462Y-102163349D02*
X135380858Y-102799745D01*
X135098016Y-101809796D02*
X135734412Y-102446192D01*
X135451569Y-101456243D02*
X136087965Y-102092639D01*
X135805122Y-101102689D02*
X136441518Y-101739085D01*
X136158676Y-100749136D02*
X136795072Y-101385532D01*
X136512229Y-100395583D02*
X137148625Y-101031979D01*
X136865783Y-100042029D02*
X137502179Y-100678425D01*
X137219336Y-99688476D02*
X137855732Y-100324872D01*
X137572889Y-99334922D02*
X138209285Y-99971318D01*
X137926443Y-98981369D02*
X138562839Y-99617765D01*
X138279996Y-98627816D02*
X138916392Y-99264212D01*
X138633549Y-98274262D02*
X139269945Y-98910658D01*
D19*
X132552000Y-65268700D03*
D20*
X132552000Y-65768700D03*
X132552000Y-66268700D03*
X132552000Y-66768700D03*
X132552000Y-67268700D03*
D21*
X133502000Y-68218700D03*
X134002000Y-68218700D03*
X134502000Y-68218700D03*
X135002000Y-68218700D03*
X135502000Y-68218700D03*
D20*
X136452000Y-67268700D03*
X136452000Y-66768700D03*
X136452000Y-66268700D03*
X136452000Y-65768700D03*
X136452000Y-65268700D03*
D21*
X135502000Y-64318700D03*
X135002000Y-64318700D03*
X134502000Y-64318700D03*
X134002000Y-64318700D03*
X133502000Y-64318700D03*
D22*
X133952000Y-65718700D03*
X135052000Y-65718700D03*
X133952000Y-66818700D03*
X135052000Y-66818700D03*
D23*
X132400000Y-80500000D03*
X134000000Y-80500000D03*
X135600000Y-80500000D03*
X132400000Y-85500000D03*
X134000000Y-85500000D03*
X135600000Y-85500000D03*
D24*
X112784000Y-98489000D03*
X112784000Y-96711000D03*
X114816000Y-97600000D03*
X111616000Y-72111000D03*
X111616000Y-73889000D03*
X109584000Y-73000000D03*
D25*
X139177000Y-94226400D03*
X129800000Y-70400000D03*
X128000000Y-70400000D03*
D26*
X126100000Y-109600000D03*
D14*
X128640000Y-109600000D03*
X131180000Y-109600000D03*
D26*
X135200000Y-55100000D03*
D14*
X132660000Y-55100000D03*
D26*
X134600000Y-109600000D03*
D14*
X137140000Y-109600000D03*
X139680000Y-109600000D03*
X142220000Y-109600000D03*
D26*
X119146000Y-75214200D03*
D14*
X119146000Y-77754200D03*
X119146000Y-80294200D03*
X119146000Y-82834200D03*
D26*
X119146000Y-86301100D03*
D14*
X119146000Y-88841100D03*
X119146000Y-91381100D03*
X119146000Y-93921100D03*
D26*
X113086000Y-67200000D03*
D14*
X110546000Y-67200000D03*
D27*
X133802000Y-74668700D03*
X136002000Y-74668700D03*
X136002000Y-73068700D03*
X133802000Y-73068700D03*
D14*
X117400000Y-70300000D03*
X117400000Y-67200000D03*
X117400000Y-64100000D03*
D28*
X110939400Y-79739200D03*
X115460600Y-79739200D03*
X110939400Y-87460800D03*
X115460600Y-87460800D03*
D11*
X127195000Y-106481300D03*
D12*
X127195000Y-59481300D03*
D29*
X122492760Y-101701260D03*
D30*
X121992380Y-101701260D03*
X121492000Y-101701260D03*
X120991620Y-101701260D03*
X120491240Y-101701260D03*
D31*
X119990860Y-102702020D03*
X119990860Y-103202400D03*
X119990860Y-103702780D03*
D30*
X120491240Y-104703540D03*
X120991620Y-104703540D03*
X121492000Y-104703540D03*
X121992380Y-104703540D03*
X122492760Y-104703540D03*
D31*
X122993140Y-103702780D03*
X122993140Y-103202400D03*
X122993140Y-102702020D03*
D32*
X116950000Y-76000000D03*
X115450000Y-76000000D03*
X116950000Y-77600000D03*
X115450000Y-77600000D03*
X116950000Y-74400000D03*
X115450000Y-74400000D03*
D33*
X134000000Y-89350000D03*
X134000000Y-87850000D03*
X132400000Y-89350000D03*
X132400000Y-87850000D03*
X135600000Y-89350000D03*
X135600000Y-87850000D03*
X135302000Y-61618700D03*
X135302000Y-60118700D03*
X108600000Y-82850000D03*
X108600000Y-84350000D03*
X119892000Y-97652400D03*
X119892000Y-99152400D03*
X117200000Y-102550000D03*
X117200000Y-101050000D03*
D34*
X116304500Y-69700000D03*
X116304500Y-67200000D03*
X116304500Y-64700000D03*
D10*
G36*
X125071383Y-94557867D02*
X123942133Y-93428617D01*
X124891777Y-92478973D01*
X126021027Y-93608223D01*
X125071383Y-94557867D01*
X125071383Y-94557867D01*
G37*
G36*
X126508223Y-93121027D02*
X125378973Y-91991777D01*
X126328617Y-91042133D01*
X127457867Y-92171383D01*
X126508223Y-93121027D01*
X126508223Y-93121027D01*
G37*
G36*
X126579086Y-95915656D02*
X125719244Y-95055814D01*
X126489284Y-94285774D01*
X127349126Y-95145616D01*
X126579086Y-95915656D01*
X126579086Y-95915656D01*
G37*
G36*
X127656716Y-94838026D02*
X126796874Y-93978184D01*
X127566914Y-93208144D01*
X128426756Y-94067986D01*
X127656716Y-94838026D01*
X127656716Y-94838026D01*
G37*
G36*
X133293756Y-105267914D02*
X132433914Y-106127756D01*
X131663874Y-105357716D01*
X132523716Y-104497874D01*
X133293756Y-105267914D01*
X133293756Y-105267914D01*
G37*
G36*
X132216126Y-104190284D02*
X131356284Y-105050126D01*
X130586244Y-104280086D01*
X131446086Y-103420244D01*
X132216126Y-104190284D01*
X132216126Y-104190284D01*
G37*
G36*
X140293914Y-99446244D02*
X141153756Y-100306086D01*
X140383716Y-101076126D01*
X139523874Y-100216284D01*
X140293914Y-99446244D01*
X140293914Y-99446244D01*
G37*
G36*
X139216284Y-100523874D02*
X140076126Y-101383716D01*
X139306086Y-102153756D01*
X138446244Y-101293914D01*
X139216284Y-100523874D01*
X139216284Y-100523874D01*
G37*
G36*
X137846244Y-90306086D02*
X138706086Y-89446244D01*
X139476126Y-90216284D01*
X138616284Y-91076126D01*
X137846244Y-90306086D01*
X137846244Y-90306086D01*
G37*
G36*
X138923874Y-91383716D02*
X139783716Y-90523874D01*
X140553756Y-91293914D01*
X139693914Y-92153756D01*
X138923874Y-91383716D01*
X138923874Y-91383716D01*
G37*
G36*
X136646244Y-91506086D02*
X137506086Y-90646244D01*
X138276126Y-91416284D01*
X137416284Y-92276126D01*
X136646244Y-91506086D01*
X136646244Y-91506086D01*
G37*
G36*
X137723874Y-92583716D02*
X138583716Y-91723874D01*
X139353756Y-92493914D01*
X138493914Y-93353756D01*
X137723874Y-92583716D01*
X137723874Y-92583716D01*
G37*
D35*
X125492000Y-103618400D03*
X125492000Y-101586400D03*
D36*
X127747000Y-78463000D03*
X125715000Y-78463000D03*
D37*
X123092000Y-99164400D03*
X123092000Y-97640400D03*
D36*
X121915000Y-78463000D03*
X123947000Y-78463000D03*
D37*
X131702000Y-74630700D03*
X131702000Y-73106700D03*
X138102000Y-73106700D03*
X138102000Y-74630700D03*
D38*
X129664000Y-68068700D03*
X128140000Y-68068700D03*
D37*
X136902000Y-61630700D03*
X136902000Y-60106700D03*
X139174000Y-63333700D03*
X139174000Y-61809700D03*
X138102000Y-69106700D03*
X138102000Y-70630700D03*
D38*
X135336000Y-70571700D03*
X133812000Y-70571700D03*
X129664000Y-66468700D03*
X128140000Y-66468700D03*
D37*
X133702000Y-61630700D03*
X133702000Y-60106700D03*
D35*
X113800000Y-70184000D03*
X113800000Y-72216000D03*
D39*
X142774000Y-65571700D03*
X142774000Y-64571700D03*
D37*
X121492000Y-99164400D03*
X121492000Y-97640400D03*
D39*
X146174000Y-65571700D03*
X146174000Y-64571700D03*
X141574000Y-65571700D03*
X140574000Y-65571700D03*
D40*
X127131000Y-85113000D03*
X127131000Y-82613000D03*
D35*
X122131000Y-90279000D03*
X122131000Y-88247000D03*
D36*
X123947000Y-75863000D03*
X121915000Y-75863000D03*
D39*
X144974000Y-65571700D03*
X143974000Y-65571700D03*
D32*
X114550000Y-94400000D03*
X113050000Y-94400000D03*
X112350000Y-76000000D03*
X110850000Y-76000000D03*
D41*
X145000000Y-106400000D03*
X118000000Y-61000000D03*
D38*
X127893000Y-80663000D03*
X126369000Y-80663000D03*
X121769000Y-80663000D03*
X123293000Y-80663000D03*
M02*
