G04 #@! TF.FileFunction,Legend,Top*
%FSLAX46Y46*%
G04 Gerber Fmt 4.6, Leading zero omitted, Abs format (unit mm)*
G04 Created by KiCad (PCBNEW 4.0.1-stable) date 24.01.2016 23:52:11*
%MOMM*%
G01*
G04 APERTURE LIST*
%ADD10C,0.100000*%
%ADD11C,0.149860*%
%ADD12C,0.150000*%
%ADD13C,0.127000*%
G04 APERTURE END LIST*
D10*
D11*
X121099640Y-108200000D02*
G75*
G03X121099640Y-108200000I-2199640J0D01*
G01*
X116400640Y-110699360D02*
X116400640Y-105700640D01*
X116400640Y-105700640D02*
X121399360Y-105700640D01*
X121399360Y-105700640D02*
X121399360Y-110699360D01*
X121399360Y-110699360D02*
X116400640Y-110699360D01*
D12*
X106600000Y-121400000D02*
X107400000Y-121400000D01*
X107400000Y-121400000D02*
X107400000Y-124400000D01*
X107400000Y-124400000D02*
X105800000Y-124400000D01*
X105800000Y-124400000D02*
X105800000Y-121400000D01*
X105800000Y-121400000D02*
X106600000Y-121400000D01*
X131100000Y-98700000D02*
X131100000Y-98800000D01*
X131100000Y-98800000D02*
X132500000Y-98800000D01*
X132500000Y-98800000D02*
X132500000Y-98700000D01*
X131100000Y-98700000D02*
X131100000Y-94700000D01*
X131100000Y-94700000D02*
X132500000Y-94700000D01*
X132500000Y-94700000D02*
X132500000Y-98700000D01*
X132500000Y-98700000D02*
X131100000Y-98700000D01*
X132181000Y-97081000D02*
X131419000Y-97081000D01*
X131800000Y-96319000D02*
X131419000Y-96319000D01*
X131419000Y-96319000D02*
X131800000Y-97081000D01*
X131800000Y-97081000D02*
X132181000Y-96319000D01*
X132181000Y-96319000D02*
X131800000Y-96319000D01*
X103600000Y-95300000D02*
X103700000Y-95300000D01*
X103700000Y-95300000D02*
X103700000Y-93900000D01*
X103700000Y-93900000D02*
X103600000Y-93900000D01*
X103600000Y-95300000D02*
X99600000Y-95300000D01*
X99600000Y-95300000D02*
X99600000Y-93900000D01*
X99600000Y-93900000D02*
X103600000Y-93900000D01*
X103600000Y-93900000D02*
X103600000Y-95300000D01*
X101981000Y-94219000D02*
X101981000Y-94981000D01*
X101219000Y-94600000D02*
X101219000Y-94981000D01*
X101219000Y-94981000D02*
X101981000Y-94600000D01*
X101981000Y-94600000D02*
X101219000Y-94219000D01*
X101219000Y-94219000D02*
X101219000Y-94600000D01*
X133400000Y-97400000D02*
X133400000Y-95800000D01*
D11*
X133049660Y-97400100D02*
X133049660Y-95799900D01*
X133049660Y-95799900D02*
X135950340Y-95799900D01*
X135950340Y-95799900D02*
X135950340Y-97400100D01*
X135950340Y-97400100D02*
X133049660Y-97400100D01*
D12*
X135500000Y-123450000D02*
X135300000Y-123700000D01*
X135300000Y-123700000D02*
X135300000Y-122950000D01*
X135050000Y-122250000D02*
X134350000Y-122950000D01*
X131600000Y-122950000D02*
X128150000Y-122950000D01*
X128150000Y-122950000D02*
X128150000Y-116050000D01*
X128150000Y-116050000D02*
X135050000Y-116050000D01*
X135050000Y-116050000D02*
X135050000Y-122950000D01*
X135050000Y-122950000D02*
X131600000Y-122950000D01*
X141802000Y-99619000D02*
X142952000Y-98469000D01*
X147202000Y-98469000D02*
X147202000Y-103869000D01*
X147202000Y-103869000D02*
X141802000Y-103869000D01*
X141802000Y-103869000D02*
X141802000Y-98469000D01*
X141802000Y-98469000D02*
X147202000Y-98469000D01*
D13*
X98524000Y-93781000D02*
X95476000Y-93781000D01*
X95476000Y-93781000D02*
X95476000Y-93019000D01*
X95476000Y-93019000D02*
X98524000Y-93019000D01*
X98524000Y-93019000D02*
X98524000Y-93781000D01*
D12*
X99190000Y-91130000D02*
X104270000Y-91130000D01*
X99190000Y-93670000D02*
X104270000Y-93670000D01*
X104397000Y-91130000D02*
X104270000Y-91130000D01*
X104270000Y-93670000D02*
X104524000Y-93670000D01*
X104524000Y-93670000D02*
X104524000Y-91130000D01*
X104524000Y-91130000D02*
X104397000Y-91130000D01*
X104397000Y-91130000D02*
X104397000Y-93543000D01*
X101730000Y-93670000D02*
X101730000Y-91130000D01*
X99190000Y-93670000D02*
X99190000Y-91130000D01*
X104270000Y-91130000D02*
X104270000Y-93670000D01*
X142668000Y-107276000D02*
X146732000Y-107276000D01*
X146732000Y-107276000D02*
X146732000Y-110324000D01*
X146732000Y-110324000D02*
X142668000Y-110324000D01*
X142668000Y-110324000D02*
X142668000Y-107276000D01*
X120278000Y-121300000D02*
G75*
G03X120278000Y-121300000I-1778000J0D01*
G01*
X121548000Y-124348000D02*
X121548000Y-118252000D01*
X121548000Y-118252000D02*
X115452000Y-118252000D01*
X115452000Y-118252000D02*
X115452000Y-124348000D01*
X115452000Y-124348000D02*
X121548000Y-124348000D01*
X95300000Y-112900000D02*
X95300000Y-112100000D01*
X95300000Y-112100000D02*
X98300000Y-112100000D01*
X98300000Y-112100000D02*
X98300000Y-113700000D01*
X98300000Y-113700000D02*
X95300000Y-113700000D01*
X95300000Y-113700000D02*
X95300000Y-112900000D01*
X91400000Y-112900000D02*
X91400000Y-112100000D01*
X91400000Y-112100000D02*
X94400000Y-112100000D01*
X94400000Y-112100000D02*
X94400000Y-113700000D01*
X94400000Y-113700000D02*
X91400000Y-113700000D01*
X91400000Y-113700000D02*
X91400000Y-112900000D01*
X99200000Y-112900000D02*
X99200000Y-112100000D01*
X99200000Y-112100000D02*
X102200000Y-112100000D01*
X102200000Y-112100000D02*
X102200000Y-113700000D01*
X102200000Y-113700000D02*
X99200000Y-113700000D01*
X99200000Y-113700000D02*
X99200000Y-112900000D01*
X125900000Y-108200000D02*
X125900000Y-109000000D01*
X125900000Y-109000000D02*
X122900000Y-109000000D01*
X122900000Y-109000000D02*
X122900000Y-107400000D01*
X122900000Y-107400000D02*
X125900000Y-107400000D01*
X125900000Y-107400000D02*
X125900000Y-108200000D01*
X125900000Y-109800000D02*
X125900000Y-110600000D01*
X125900000Y-110600000D02*
X122900000Y-110600000D01*
X122900000Y-110600000D02*
X122900000Y-109000000D01*
X122900000Y-109000000D02*
X125900000Y-109000000D01*
X125900000Y-109000000D02*
X125900000Y-109800000D01*
X125900000Y-106600000D02*
X125900000Y-107400000D01*
X125900000Y-107400000D02*
X122900000Y-107400000D01*
X122900000Y-107400000D02*
X122900000Y-105800000D01*
X122900000Y-105800000D02*
X125900000Y-105800000D01*
X125900000Y-105800000D02*
X125900000Y-106600000D01*
X145302000Y-97468700D02*
X144502000Y-97468700D01*
X144502000Y-97468700D02*
X144502000Y-94468700D01*
X144502000Y-94468700D02*
X146102000Y-94468700D01*
X146102000Y-94468700D02*
X146102000Y-97468700D01*
X146102000Y-97468700D02*
X145302000Y-97468700D01*
X108900000Y-124400000D02*
X108100000Y-124400000D01*
X108100000Y-124400000D02*
X108100000Y-121400000D01*
X108100000Y-121400000D02*
X109700000Y-121400000D01*
X109700000Y-121400000D02*
X109700000Y-124400000D01*
X109700000Y-124400000D02*
X108900000Y-124400000D01*
X127400000Y-112900000D02*
X127400000Y-112100000D01*
X127400000Y-112100000D02*
X130400000Y-112100000D01*
X130400000Y-112100000D02*
X130400000Y-113700000D01*
X130400000Y-113700000D02*
X127400000Y-113700000D01*
X127400000Y-113700000D02*
X127400000Y-112900000D01*
X125200000Y-123000000D02*
X124400000Y-123000000D01*
X124400000Y-123000000D02*
X124400000Y-120000000D01*
X124400000Y-120000000D02*
X126000000Y-120000000D01*
X126000000Y-120000000D02*
X126000000Y-123000000D01*
X126000000Y-123000000D02*
X125200000Y-123000000D01*
X136000000Y-124000000D02*
X136000000Y-123200000D01*
X136000000Y-123200000D02*
X139000000Y-123200000D01*
X139000000Y-123200000D02*
X139000000Y-124800000D01*
X139000000Y-124800000D02*
X136000000Y-124800000D01*
X136000000Y-124800000D02*
X136000000Y-124000000D01*
X138200000Y-116600000D02*
X137400000Y-116600000D01*
X137400000Y-116600000D02*
X137400000Y-113600000D01*
X137400000Y-113600000D02*
X139000000Y-113600000D01*
X139000000Y-113600000D02*
X139000000Y-116600000D01*
X139000000Y-116600000D02*
X138200000Y-116600000D01*
X139900000Y-115300000D02*
X139100000Y-115300000D01*
X139100000Y-115300000D02*
X139100000Y-112300000D01*
X139100000Y-112300000D02*
X140700000Y-112300000D01*
X140700000Y-112300000D02*
X140700000Y-115300000D01*
X140700000Y-115300000D02*
X139900000Y-115300000D01*
X99176100Y-118897100D02*
X102976100Y-118897100D01*
X102976100Y-118897100D02*
X102976100Y-120897100D01*
X102976100Y-120897100D02*
X99176100Y-120897100D01*
X99176100Y-120897100D02*
X99176100Y-118897100D01*
X128700000Y-99100000D02*
X128700000Y-102900000D01*
X128700000Y-102900000D02*
X126700000Y-102900000D01*
X126700000Y-102900000D02*
X126700000Y-99100000D01*
X126700000Y-99100000D02*
X128700000Y-99100000D01*
X132800000Y-99100000D02*
X132800000Y-102900000D01*
X132800000Y-102900000D02*
X130800000Y-102900000D01*
X130800000Y-102900000D02*
X130800000Y-99100000D01*
X130800000Y-99100000D02*
X132800000Y-99100000D01*
X141600000Y-110300000D02*
X140800000Y-110300000D01*
X140800000Y-110300000D02*
X140800000Y-107300000D01*
X140800000Y-107300000D02*
X142400000Y-107300000D01*
X142400000Y-107300000D02*
X142400000Y-110300000D01*
X142400000Y-110300000D02*
X141600000Y-110300000D01*
X147800000Y-107300000D02*
X148600000Y-107300000D01*
X148600000Y-107300000D02*
X148600000Y-110300000D01*
X148600000Y-110300000D02*
X147000000Y-110300000D01*
X147000000Y-110300000D02*
X147000000Y-107300000D01*
X147000000Y-107300000D02*
X147800000Y-107300000D01*
X140800000Y-103900000D02*
X140800000Y-104700000D01*
X140800000Y-104700000D02*
X137800000Y-104700000D01*
X137800000Y-104700000D02*
X137800000Y-103100000D01*
X137800000Y-103100000D02*
X140800000Y-103100000D01*
X140800000Y-103100000D02*
X140800000Y-103900000D01*
X146902000Y-97468700D02*
X146102000Y-97468700D01*
X146102000Y-97468700D02*
X146102000Y-94468700D01*
X146102000Y-94468700D02*
X147702000Y-94468700D01*
X147702000Y-94468700D02*
X147702000Y-97468700D01*
X147702000Y-97468700D02*
X146902000Y-97468700D01*
X149174000Y-98971700D02*
X148374000Y-98971700D01*
X148374000Y-98971700D02*
X148374000Y-95971700D01*
X148374000Y-95971700D02*
X149974000Y-95971700D01*
X149974000Y-95971700D02*
X149974000Y-98971700D01*
X149974000Y-98971700D02*
X149174000Y-98971700D01*
X148100000Y-103800000D02*
X148900000Y-103800000D01*
X148900000Y-103800000D02*
X148900000Y-106800000D01*
X148900000Y-106800000D02*
X147300000Y-106800000D01*
X147300000Y-106800000D02*
X147300000Y-103800000D01*
X147300000Y-103800000D02*
X148100000Y-103800000D01*
X146125600Y-105846000D02*
X146125600Y-106646000D01*
X146125600Y-106646000D02*
X143125600Y-106646000D01*
X143125600Y-106646000D02*
X143125600Y-105046000D01*
X143125600Y-105046000D02*
X146125600Y-105046000D01*
X146125600Y-105046000D02*
X146125600Y-105846000D01*
X140800000Y-101700000D02*
X140800000Y-102500000D01*
X140800000Y-102500000D02*
X137800000Y-102500000D01*
X137800000Y-102500000D02*
X137800000Y-100900000D01*
X137800000Y-100900000D02*
X140800000Y-100900000D01*
X140800000Y-100900000D02*
X140800000Y-101700000D01*
X143702000Y-97468700D02*
X142902000Y-97468700D01*
X142902000Y-97468700D02*
X142902000Y-94468700D01*
X142902000Y-94468700D02*
X144502000Y-94468700D01*
X144502000Y-94468700D02*
X144502000Y-97468700D01*
X144502000Y-97468700D02*
X143702000Y-97468700D01*
X105300000Y-93400000D02*
X109100000Y-93400000D01*
X109100000Y-93400000D02*
X109100000Y-95400000D01*
X109100000Y-95400000D02*
X105300000Y-95400000D01*
X105300000Y-95400000D02*
X105300000Y-93400000D01*
X151600000Y-101100000D02*
X151600000Y-102200000D01*
X151600000Y-102200000D02*
X150400000Y-102200000D01*
X150400000Y-102200000D02*
X150400000Y-100000000D01*
X150400000Y-100000000D02*
X151600000Y-100000000D01*
X151600000Y-100000000D02*
X151600000Y-101100000D01*
X155000000Y-101100000D02*
X155000000Y-102200000D01*
X155000000Y-102200000D02*
X153800000Y-102200000D01*
X153800000Y-102200000D02*
X153800000Y-100000000D01*
X153800000Y-100000000D02*
X155000000Y-100000000D01*
X155000000Y-100000000D02*
X155000000Y-101100000D01*
X126700000Y-98800000D02*
X126700000Y-95600000D01*
X126700000Y-95600000D02*
X130900000Y-95600000D01*
X130900000Y-95600000D02*
X130900000Y-98800000D01*
X130900000Y-98800000D02*
X126700000Y-98800000D01*
X152700000Y-101200000D02*
X151600000Y-101200000D01*
X151600000Y-101200000D02*
X151600000Y-100000000D01*
X151600000Y-100000000D02*
X153800000Y-100000000D01*
X153800000Y-100000000D02*
X153800000Y-101200000D01*
X153800000Y-101200000D02*
X152700000Y-101200000D01*
X98500000Y-96200000D02*
X98500000Y-97000000D01*
X98500000Y-97000000D02*
X95500000Y-97000000D01*
X95500000Y-97000000D02*
X95500000Y-95400000D01*
X95500000Y-95400000D02*
X98500000Y-95400000D01*
X98500000Y-95400000D02*
X98500000Y-96200000D01*
X129700000Y-99500000D02*
X130500000Y-99500000D01*
X130500000Y-99500000D02*
X130500000Y-102500000D01*
X130500000Y-102500000D02*
X128900000Y-102500000D01*
X128900000Y-102500000D02*
X128900000Y-99500000D01*
X128900000Y-99500000D02*
X129700000Y-99500000D01*
X125100000Y-113000000D02*
X125900000Y-113000000D01*
X125900000Y-113000000D02*
X125900000Y-116000000D01*
X125900000Y-116000000D02*
X124300000Y-116000000D01*
X124300000Y-116000000D02*
X124300000Y-113000000D01*
X124300000Y-113000000D02*
X125100000Y-113000000D01*
X99176100Y-118097100D02*
X99176100Y-117297100D01*
X99176100Y-117297100D02*
X102176100Y-117297100D01*
X102176100Y-117297100D02*
X102176100Y-118897100D01*
X102176100Y-118897100D02*
X99176100Y-118897100D01*
X99176100Y-118897100D02*
X99176100Y-118097100D01*
X140763500Y-115858100D02*
X140763500Y-115058100D01*
X140763500Y-115058100D02*
X143763500Y-115058100D01*
X143763500Y-115058100D02*
X143763500Y-116658100D01*
X143763500Y-116658100D02*
X140763500Y-116658100D01*
X140763500Y-116658100D02*
X140763500Y-115858100D01*
X143000000Y-124000000D02*
X143000000Y-124800000D01*
X143000000Y-124800000D02*
X140000000Y-124800000D01*
X140000000Y-124800000D02*
X140000000Y-123200000D01*
X140000000Y-123200000D02*
X143000000Y-123200000D01*
X143000000Y-123200000D02*
X143000000Y-124000000D01*
X98400000Y-123600000D02*
X98400000Y-124400000D01*
X98400000Y-124400000D02*
X95400000Y-124400000D01*
X95400000Y-124400000D02*
X95400000Y-122800000D01*
X95400000Y-122800000D02*
X98400000Y-122800000D01*
X98400000Y-122800000D02*
X98400000Y-123600000D01*
X92400000Y-123600000D02*
X92400000Y-122800000D01*
X92400000Y-122800000D02*
X95400000Y-122800000D01*
X95400000Y-122800000D02*
X95400000Y-124400000D01*
X95400000Y-124400000D02*
X92400000Y-124400000D01*
X92400000Y-124400000D02*
X92400000Y-123600000D01*
X93776100Y-118122100D02*
X94201100Y-117697100D01*
X97776100Y-117697100D02*
X97351100Y-117697100D01*
X97776100Y-117697100D02*
X97776100Y-118122100D01*
X93776100Y-121697100D02*
X94201100Y-121697100D01*
X93776100Y-121697100D02*
X93776100Y-121272100D01*
X97776100Y-121697100D02*
X97351100Y-121697100D01*
X97776100Y-121697100D02*
X97776100Y-121272100D01*
X123100000Y-114200000D02*
X122000000Y-114200000D01*
X122000000Y-114200000D02*
X122000000Y-113000000D01*
X122000000Y-113000000D02*
X124200000Y-113000000D01*
X124200000Y-113000000D02*
X124200000Y-114200000D01*
X124200000Y-114200000D02*
X123100000Y-114200000D01*
X140500000Y-96600000D02*
X139400000Y-96600000D01*
X139400000Y-96600000D02*
X139400000Y-95400000D01*
X139400000Y-95400000D02*
X141600000Y-95400000D01*
X141600000Y-95400000D02*
X141600000Y-96600000D01*
X141600000Y-96600000D02*
X140500000Y-96600000D01*
D13*
X94176000Y-101619000D02*
X97224000Y-101619000D01*
X97224000Y-101619000D02*
X97224000Y-102381000D01*
X97224000Y-102381000D02*
X94176000Y-102381000D01*
X94176000Y-102381000D02*
X94176000Y-101619000D01*
D12*
X139100000Y-119900000D02*
X138300000Y-119900000D01*
X138300000Y-119900000D02*
X138300000Y-116900000D01*
X138300000Y-116900000D02*
X139900000Y-116900000D01*
X139900000Y-116900000D02*
X139900000Y-119900000D01*
X139900000Y-119900000D02*
X139100000Y-119900000D01*
X140800000Y-106300000D02*
X140800000Y-107100000D01*
X140800000Y-107100000D02*
X137800000Y-107100000D01*
X137800000Y-107100000D02*
X137800000Y-105500000D01*
X137800000Y-105500000D02*
X140800000Y-105500000D01*
X140800000Y-105500000D02*
X140800000Y-106300000D01*
X97600000Y-99000000D02*
X97600000Y-98200000D01*
X97600000Y-98200000D02*
X100600000Y-98200000D01*
X100600000Y-98200000D02*
X100600000Y-99800000D01*
X100600000Y-99800000D02*
X97600000Y-99800000D01*
X97600000Y-99800000D02*
X97600000Y-99000000D01*
X143805000Y-119900000D02*
X143805000Y-122948000D01*
X143805000Y-122948000D02*
X139995000Y-122948000D01*
X139995000Y-122948000D02*
X139995000Y-116852000D01*
X139995000Y-116852000D02*
X143805000Y-116852000D01*
X143805000Y-116852000D02*
X143805000Y-119900000D01*
X148250000Y-99836000D02*
X150350000Y-99836000D01*
X150350000Y-99836000D02*
X150350000Y-103036000D01*
X150350000Y-103036000D02*
X148250000Y-103036000D01*
X148250000Y-103036000D02*
X148250000Y-99836000D01*
D13*
X97576000Y-101619000D02*
X100624000Y-101619000D01*
X100624000Y-101619000D02*
X100624000Y-102381000D01*
X100624000Y-102381000D02*
X97576000Y-102381000D01*
X97576000Y-102381000D02*
X97576000Y-101619000D01*
D12*
X94200000Y-99000000D02*
X94200000Y-98200000D01*
X94200000Y-98200000D02*
X97200000Y-98200000D01*
X97200000Y-98200000D02*
X97200000Y-99800000D01*
X97200000Y-99800000D02*
X94200000Y-99800000D01*
X94200000Y-99800000D02*
X94200000Y-99000000D01*
X127530000Y-107570000D02*
X135150000Y-107570000D01*
X127530000Y-105030000D02*
X135150000Y-105030000D01*
X127530000Y-107570000D02*
X127276000Y-107570000D01*
X127276000Y-107570000D02*
X127276000Y-105030000D01*
X127276000Y-105030000D02*
X127530000Y-105030000D01*
X127530000Y-105030000D02*
X127403000Y-105030000D01*
X127403000Y-105030000D02*
X127403000Y-107570000D01*
X135150000Y-105030000D02*
X135150000Y-107570000D01*
X127530000Y-107570000D02*
X127530000Y-105030000D01*
X127530000Y-110970000D02*
X127276000Y-110970000D01*
X127276000Y-110970000D02*
X127276000Y-108430000D01*
X127276000Y-108430000D02*
X127530000Y-108430000D01*
X127530000Y-108430000D02*
X127403000Y-108430000D01*
X127403000Y-108430000D02*
X127403000Y-110970000D01*
X127530000Y-108430000D02*
X137690000Y-108430000D01*
X137690000Y-108430000D02*
X137690000Y-110970000D01*
X137690000Y-110970000D02*
X127530000Y-110970000D01*
X127530000Y-110970000D02*
X127530000Y-108430000D01*
X105300000Y-92600000D02*
X105300000Y-91800000D01*
X105300000Y-91800000D02*
X108300000Y-91800000D01*
X108300000Y-91800000D02*
X108300000Y-93400000D01*
X108300000Y-93400000D02*
X105300000Y-93400000D01*
X105300000Y-93400000D02*
X105300000Y-92600000D01*
X133000000Y-99900000D02*
X133000000Y-99100000D01*
X133000000Y-99100000D02*
X136000000Y-99100000D01*
X136000000Y-99100000D02*
X136000000Y-100700000D01*
X136000000Y-100700000D02*
X133000000Y-100700000D01*
X133000000Y-100700000D02*
X133000000Y-99900000D01*
X113150258Y-96332051D02*
X109339746Y-94132051D01*
X109339746Y-94132051D02*
X111339746Y-90667949D01*
X111339746Y-90667949D02*
X115150258Y-92867949D01*
X125000000Y-97400000D02*
G75*
G03X125000000Y-97400000I-6000000J0D01*
G01*
D11*
X118842910Y-107128265D02*
X118785821Y-107099720D01*
X118728731Y-107042630D01*
X118643097Y-106956996D01*
X118586008Y-106928451D01*
X118528918Y-106928451D01*
X118557463Y-107071175D02*
X118500373Y-107042630D01*
X118443284Y-106985541D01*
X118414739Y-106871362D01*
X118414739Y-106671549D01*
X118443284Y-106557370D01*
X118500373Y-106500280D01*
X118557463Y-106471735D01*
X118671642Y-106471735D01*
X118728731Y-106500280D01*
X118785821Y-106557370D01*
X118814366Y-106671549D01*
X118814366Y-106871362D01*
X118785821Y-106985541D01*
X118728731Y-107042630D01*
X118671642Y-107071175D01*
X118557463Y-107071175D01*
X119385261Y-107071175D02*
X119042724Y-107071175D01*
X119213993Y-107071175D02*
X119213993Y-106471735D01*
X119156903Y-106557370D01*
X119099814Y-106614459D01*
X119042724Y-106643004D01*
X115916980Y-111671175D02*
X115631533Y-111671175D01*
X115631533Y-111071735D01*
X116116794Y-111357183D02*
X116316607Y-111357183D01*
X116402241Y-111671175D02*
X116116794Y-111671175D01*
X116116794Y-111071735D01*
X116402241Y-111071735D01*
X116659144Y-111671175D02*
X116659144Y-111071735D01*
X116801868Y-111071735D01*
X116887502Y-111100280D01*
X116944591Y-111157370D01*
X116973136Y-111214459D01*
X117001681Y-111328638D01*
X117001681Y-111414272D01*
X116973136Y-111528451D01*
X116944591Y-111585541D01*
X116887502Y-111642630D01*
X116801868Y-111671175D01*
X116659144Y-111671175D01*
X117115860Y-111728265D02*
X117572576Y-111728265D01*
X118057837Y-111671175D02*
X117858024Y-111385728D01*
X117715300Y-111671175D02*
X117715300Y-111071735D01*
X117943658Y-111071735D01*
X118000747Y-111100280D01*
X118029292Y-111128825D01*
X118057837Y-111185914D01*
X118057837Y-111271549D01*
X118029292Y-111328638D01*
X118000747Y-111357183D01*
X117943658Y-111385728D01*
X117715300Y-111385728D01*
X118628732Y-111100280D02*
X118571643Y-111071735D01*
X118486008Y-111071735D01*
X118400374Y-111100280D01*
X118343285Y-111157370D01*
X118314740Y-111214459D01*
X118286195Y-111328638D01*
X118286195Y-111414272D01*
X118314740Y-111528451D01*
X118343285Y-111585541D01*
X118400374Y-111642630D01*
X118486008Y-111671175D01*
X118543098Y-111671175D01*
X118628732Y-111642630D01*
X118657277Y-111614086D01*
X118657277Y-111414272D01*
X118543098Y-111414272D01*
X119113993Y-111357183D02*
X119199627Y-111385728D01*
X119228172Y-111414272D01*
X119256717Y-111471362D01*
X119256717Y-111556996D01*
X119228172Y-111614086D01*
X119199627Y-111642630D01*
X119142538Y-111671175D01*
X118914180Y-111671175D01*
X118914180Y-111071735D01*
X119113993Y-111071735D01*
X119171083Y-111100280D01*
X119199627Y-111128825D01*
X119228172Y-111185914D01*
X119228172Y-111243004D01*
X119199627Y-111300093D01*
X119171083Y-111328638D01*
X119113993Y-111357183D01*
X118914180Y-111357183D01*
X120255783Y-111071735D02*
X119970336Y-111071735D01*
X119941791Y-111357183D01*
X119970336Y-111328638D01*
X120027425Y-111300093D01*
X120170149Y-111300093D01*
X120227239Y-111328638D01*
X120255783Y-111357183D01*
X120284328Y-111414272D01*
X120284328Y-111556996D01*
X120255783Y-111614086D01*
X120227239Y-111642630D01*
X120170149Y-111671175D01*
X120027425Y-111671175D01*
X119970336Y-111642630D01*
X119941791Y-111614086D01*
X120655410Y-111071735D02*
X120712499Y-111071735D01*
X120769589Y-111100280D01*
X120798134Y-111128825D01*
X120826678Y-111185914D01*
X120855223Y-111300093D01*
X120855223Y-111442817D01*
X120826678Y-111556996D01*
X120798134Y-111614086D01*
X120769589Y-111642630D01*
X120712499Y-111671175D01*
X120655410Y-111671175D01*
X120598320Y-111642630D01*
X120569776Y-111614086D01*
X120541231Y-111556996D01*
X120512686Y-111442817D01*
X120512686Y-111300093D01*
X120541231Y-111185914D01*
X120569776Y-111128825D01*
X120598320Y-111100280D01*
X120655410Y-111071735D01*
X121397573Y-111071735D02*
X121112126Y-111071735D01*
X121083581Y-111357183D01*
X121112126Y-111328638D01*
X121169215Y-111300093D01*
X121311939Y-111300093D01*
X121369029Y-111328638D01*
X121397573Y-111357183D01*
X121426118Y-111414272D01*
X121426118Y-111556996D01*
X121397573Y-111614086D01*
X121369029Y-111642630D01*
X121311939Y-111671175D01*
X121169215Y-111671175D01*
X121112126Y-111642630D01*
X121083581Y-111614086D01*
X121797200Y-111071735D02*
X121854289Y-111071735D01*
X121911379Y-111100280D01*
X121939924Y-111128825D01*
X121968468Y-111185914D01*
X121997013Y-111300093D01*
X121997013Y-111442817D01*
X121968468Y-111556996D01*
X121939924Y-111614086D01*
X121911379Y-111642630D01*
X121854289Y-111671175D01*
X121797200Y-111671175D01*
X121740110Y-111642630D01*
X121711566Y-111614086D01*
X121683021Y-111556996D01*
X121654476Y-111442817D01*
X121654476Y-111300093D01*
X121683021Y-111185914D01*
X121711566Y-111128825D01*
X121740110Y-111100280D01*
X121797200Y-111071735D01*
D12*
X122157143Y-105300000D02*
X122442857Y-105300000D01*
X122100000Y-105471429D02*
X122300000Y-104871429D01*
X122500000Y-105471429D01*
X106214285Y-125271429D02*
X106014285Y-124985714D01*
X105871428Y-125271429D02*
X105871428Y-124671429D01*
X106100000Y-124671429D01*
X106157142Y-124700000D01*
X106185714Y-124728571D01*
X106214285Y-124785714D01*
X106214285Y-124871429D01*
X106185714Y-124928571D01*
X106157142Y-124957143D01*
X106100000Y-124985714D01*
X105871428Y-124985714D01*
X106785714Y-125271429D02*
X106442857Y-125271429D01*
X106614285Y-125271429D02*
X106614285Y-124671429D01*
X106557142Y-124757143D01*
X106500000Y-124814286D01*
X106442857Y-124842857D01*
X107357143Y-125271429D02*
X107014286Y-125271429D01*
X107185714Y-125271429D02*
X107185714Y-124671429D01*
X107128571Y-124757143D01*
X107071429Y-124814286D01*
X107014286Y-124842857D01*
X106085714Y-120771429D02*
X106085714Y-121171429D01*
X105942857Y-120542857D02*
X105800000Y-120971429D01*
X106171428Y-120971429D01*
X106400000Y-121171429D02*
X106400000Y-120571429D01*
X106457143Y-120942857D02*
X106628572Y-121171429D01*
X106628572Y-120771429D02*
X106400000Y-121000000D01*
X106828571Y-120571429D02*
X107228571Y-120571429D01*
X106971428Y-121171429D01*
D11*
X131357557Y-94171175D02*
X131357557Y-93571735D01*
X131500281Y-93571735D01*
X131585915Y-93600280D01*
X131643004Y-93657370D01*
X131671549Y-93714459D01*
X131700094Y-93828638D01*
X131700094Y-93914272D01*
X131671549Y-94028451D01*
X131643004Y-94085541D01*
X131585915Y-94142630D01*
X131500281Y-94171175D01*
X131357557Y-94171175D01*
X132270989Y-94171175D02*
X131928452Y-94171175D01*
X132099721Y-94171175D02*
X132099721Y-93571735D01*
X132042631Y-93657370D01*
X131985542Y-93714459D01*
X131928452Y-93743004D01*
X130158677Y-92857183D02*
X130244311Y-92885728D01*
X130272856Y-92914272D01*
X130301401Y-92971362D01*
X130301401Y-93056996D01*
X130272856Y-93114086D01*
X130244311Y-93142630D01*
X130187222Y-93171175D01*
X129958864Y-93171175D01*
X129958864Y-92571735D01*
X130158677Y-92571735D01*
X130215767Y-92600280D01*
X130244311Y-92628825D01*
X130272856Y-92685914D01*
X130272856Y-92743004D01*
X130244311Y-92800093D01*
X130215767Y-92828638D01*
X130158677Y-92857183D01*
X129958864Y-92857183D01*
X130529759Y-92999907D02*
X130815207Y-92999907D01*
X130472670Y-93171175D02*
X130672483Y-92571735D01*
X130872296Y-93171175D01*
X130986476Y-92571735D02*
X131329013Y-92571735D01*
X131157744Y-93171175D02*
X131157744Y-92571735D01*
X131814273Y-92571735D02*
X131528826Y-92571735D01*
X131500281Y-92857183D01*
X131528826Y-92828638D01*
X131585915Y-92800093D01*
X131728639Y-92800093D01*
X131785729Y-92828638D01*
X131814273Y-92857183D01*
X131842818Y-92914272D01*
X131842818Y-93056996D01*
X131814273Y-93114086D01*
X131785729Y-93142630D01*
X131728639Y-93171175D01*
X131585915Y-93171175D01*
X131528826Y-93142630D01*
X131500281Y-93114086D01*
X132356624Y-92771549D02*
X132356624Y-93171175D01*
X132213900Y-92543190D02*
X132071176Y-92971362D01*
X132442258Y-92971362D01*
X132613526Y-92571735D02*
X132756250Y-93171175D01*
X132870429Y-92743004D01*
X132984608Y-93171175D01*
X133127332Y-92571735D01*
X133327145Y-93142630D02*
X133412779Y-93171175D01*
X133555503Y-93171175D01*
X133612593Y-93142630D01*
X133641137Y-93114086D01*
X133669682Y-93056996D01*
X133669682Y-92999907D01*
X133641137Y-92942817D01*
X133612593Y-92914272D01*
X133555503Y-92885728D01*
X133441324Y-92857183D01*
X133384235Y-92828638D01*
X133355690Y-92800093D01*
X133327145Y-92743004D01*
X133327145Y-92685914D01*
X133355690Y-92628825D01*
X133384235Y-92600280D01*
X133441324Y-92571735D01*
X133584048Y-92571735D01*
X133669682Y-92600280D01*
X98457557Y-95171175D02*
X98457557Y-94571735D01*
X98600281Y-94571735D01*
X98685915Y-94600280D01*
X98743004Y-94657370D01*
X98771549Y-94714459D01*
X98800094Y-94828638D01*
X98800094Y-94914272D01*
X98771549Y-95028451D01*
X98743004Y-95085541D01*
X98685915Y-95142630D01*
X98600281Y-95171175D01*
X98457557Y-95171175D01*
X99028452Y-94628825D02*
X99056997Y-94600280D01*
X99114086Y-94571735D01*
X99256810Y-94571735D01*
X99313900Y-94600280D01*
X99342444Y-94628825D01*
X99370989Y-94685914D01*
X99370989Y-94743004D01*
X99342444Y-94828638D01*
X98999907Y-95171175D01*
X99370989Y-95171175D01*
X101557183Y-99041323D02*
X101585728Y-98955689D01*
X101614272Y-98927144D01*
X101671362Y-98898599D01*
X101756996Y-98898599D01*
X101814086Y-98927144D01*
X101842630Y-98955689D01*
X101871175Y-99012778D01*
X101871175Y-99241136D01*
X101271735Y-99241136D01*
X101271735Y-99041323D01*
X101300280Y-98984233D01*
X101328825Y-98955689D01*
X101385914Y-98927144D01*
X101443004Y-98927144D01*
X101500093Y-98955689D01*
X101528638Y-98984233D01*
X101557183Y-99041323D01*
X101557183Y-99241136D01*
X101699907Y-98670241D02*
X101699907Y-98384793D01*
X101871175Y-98727330D02*
X101271735Y-98527517D01*
X101871175Y-98327704D01*
X101271735Y-98213524D02*
X101271735Y-97870987D01*
X101871175Y-98042256D02*
X101271735Y-98042256D01*
X101271735Y-97385727D02*
X101271735Y-97671174D01*
X101557183Y-97699719D01*
X101528638Y-97671174D01*
X101500093Y-97614085D01*
X101500093Y-97471361D01*
X101528638Y-97414271D01*
X101557183Y-97385727D01*
X101614272Y-97357182D01*
X101756996Y-97357182D01*
X101814086Y-97385727D01*
X101842630Y-97414271D01*
X101871175Y-97471361D01*
X101871175Y-97614085D01*
X101842630Y-97671174D01*
X101814086Y-97699719D01*
X101471549Y-96843376D02*
X101871175Y-96843376D01*
X101243190Y-96986100D02*
X101671362Y-97128824D01*
X101671362Y-96757742D01*
X101271735Y-96586474D02*
X101871175Y-96443750D01*
X101443004Y-96329571D01*
X101871175Y-96215392D01*
X101271735Y-96072668D01*
X101842630Y-95872855D02*
X101871175Y-95787221D01*
X101871175Y-95644497D01*
X101842630Y-95587407D01*
X101814086Y-95558863D01*
X101756996Y-95530318D01*
X101699907Y-95530318D01*
X101642817Y-95558863D01*
X101614272Y-95587407D01*
X101585728Y-95644497D01*
X101557183Y-95758676D01*
X101528638Y-95815765D01*
X101500093Y-95844310D01*
X101443004Y-95872855D01*
X101385914Y-95872855D01*
X101328825Y-95844310D01*
X101300280Y-95815765D01*
X101271735Y-95758676D01*
X101271735Y-95615952D01*
X101300280Y-95530318D01*
D12*
X133937000Y-96902429D02*
X133937000Y-96302429D01*
X134079857Y-96302429D01*
X134165572Y-96331000D01*
X134222714Y-96388143D01*
X134251286Y-96445286D01*
X134279857Y-96559571D01*
X134279857Y-96645286D01*
X134251286Y-96759571D01*
X134222714Y-96816714D01*
X134165572Y-96873857D01*
X134079857Y-96902429D01*
X133937000Y-96902429D01*
X134508429Y-96731000D02*
X134794143Y-96731000D01*
X134451286Y-96902429D02*
X134651286Y-96302429D01*
X134851286Y-96902429D01*
X135365572Y-96902429D02*
X135022715Y-96902429D01*
X135194143Y-96902429D02*
X135194143Y-96302429D01*
X135137000Y-96388143D01*
X135079858Y-96445286D01*
X135022715Y-96473857D01*
D11*
X133474047Y-94287262D02*
X133474047Y-93652262D01*
X133836905Y-94287262D01*
X133836905Y-93652262D01*
X134502143Y-94226786D02*
X134471905Y-94257024D01*
X134381190Y-94287262D01*
X134320714Y-94287262D01*
X134230000Y-94257024D01*
X134169524Y-94196548D01*
X134139285Y-94136071D01*
X134109047Y-94015119D01*
X134109047Y-93924405D01*
X134139285Y-93803452D01*
X134169524Y-93742976D01*
X134230000Y-93682500D01*
X134320714Y-93652262D01*
X134381190Y-93652262D01*
X134471905Y-93682500D01*
X134502143Y-93712738D01*
X134774285Y-94287262D02*
X134774285Y-93652262D01*
X135016190Y-93652262D01*
X135076666Y-93682500D01*
X135106905Y-93712738D01*
X135137143Y-93773214D01*
X135137143Y-93863929D01*
X135106905Y-93924405D01*
X135076666Y-93954643D01*
X135016190Y-93984881D01*
X134774285Y-93984881D01*
X135741905Y-94287262D02*
X135379047Y-94287262D01*
X135560476Y-94287262D02*
X135560476Y-93652262D01*
X135500000Y-93742976D01*
X135439524Y-93803452D01*
X135379047Y-93833690D01*
X136286190Y-93863929D02*
X136286190Y-94287262D01*
X136135000Y-93622024D02*
X135983809Y-94075595D01*
X136376905Y-94075595D01*
X136739762Y-93652262D02*
X136800238Y-93652262D01*
X136860714Y-93682500D01*
X136890952Y-93712738D01*
X136921190Y-93773214D01*
X136951429Y-93894167D01*
X136951429Y-94045357D01*
X136921190Y-94166310D01*
X136890952Y-94226786D01*
X136860714Y-94257024D01*
X136800238Y-94287262D01*
X136739762Y-94287262D01*
X136679286Y-94257024D01*
X136649048Y-94226786D01*
X136618809Y-94166310D01*
X136588571Y-94045357D01*
X136588571Y-93894167D01*
X136618809Y-93773214D01*
X136649048Y-93712738D01*
X136679286Y-93682500D01*
X136739762Y-93652262D01*
X137344524Y-93652262D02*
X137405000Y-93652262D01*
X137465476Y-93682500D01*
X137495714Y-93712738D01*
X137525952Y-93773214D01*
X137556191Y-93894167D01*
X137556191Y-94045357D01*
X137525952Y-94166310D01*
X137495714Y-94226786D01*
X137465476Y-94257024D01*
X137405000Y-94287262D01*
X137344524Y-94287262D01*
X137284048Y-94257024D01*
X137253810Y-94226786D01*
X137223571Y-94166310D01*
X137193333Y-94045357D01*
X137193333Y-93894167D01*
X137223571Y-93773214D01*
X137253810Y-93712738D01*
X137284048Y-93682500D01*
X137344524Y-93652262D01*
X130949619Y-119959407D02*
X130949619Y-119359967D01*
X131092343Y-119359967D01*
X131177977Y-119388512D01*
X131235066Y-119445602D01*
X131263611Y-119502691D01*
X131292156Y-119616870D01*
X131292156Y-119702504D01*
X131263611Y-119816683D01*
X131235066Y-119873773D01*
X131177977Y-119930862D01*
X131092343Y-119959407D01*
X130949619Y-119959407D01*
X131549059Y-119959407D02*
X131549059Y-119359967D01*
X131691783Y-119359967D01*
X131777417Y-119388512D01*
X131834506Y-119445602D01*
X131863051Y-119502691D01*
X131891596Y-119616870D01*
X131891596Y-119702504D01*
X131863051Y-119816683D01*
X131834506Y-119873773D01*
X131777417Y-119930862D01*
X131691783Y-119959407D01*
X131549059Y-119959407D01*
X132462491Y-119959407D02*
X132119954Y-119959407D01*
X132291223Y-119959407D02*
X132291223Y-119359967D01*
X132234133Y-119445602D01*
X132177044Y-119502691D01*
X132119954Y-119531236D01*
D12*
X142145036Y-98233686D02*
X142116465Y-98262257D01*
X142030751Y-98290829D01*
X141973608Y-98290829D01*
X141887893Y-98262257D01*
X141830751Y-98205114D01*
X141802179Y-98147971D01*
X141773608Y-98033686D01*
X141773608Y-97947971D01*
X141802179Y-97833686D01*
X141830751Y-97776543D01*
X141887893Y-97719400D01*
X141973608Y-97690829D01*
X142030751Y-97690829D01*
X142116465Y-97719400D01*
X142145036Y-97747971D01*
X142745036Y-98233686D02*
X142716465Y-98262257D01*
X142630751Y-98290829D01*
X142573608Y-98290829D01*
X142487893Y-98262257D01*
X142430751Y-98205114D01*
X142402179Y-98147971D01*
X142373608Y-98033686D01*
X142373608Y-97947971D01*
X142402179Y-97833686D01*
X142430751Y-97776543D01*
X142487893Y-97719400D01*
X142573608Y-97690829D01*
X142630751Y-97690829D01*
X142716465Y-97719400D01*
X142745036Y-97747971D01*
X143316465Y-98290829D02*
X142973608Y-98290829D01*
X143145036Y-98290829D02*
X143145036Y-97690829D01*
X143087893Y-97776543D01*
X143030751Y-97833686D01*
X142973608Y-97862257D01*
X143887894Y-98290829D02*
X143545037Y-98290829D01*
X143716465Y-98290829D02*
X143716465Y-97690829D01*
X143659322Y-97776543D01*
X143602180Y-97833686D01*
X143545037Y-97862257D01*
X144259323Y-97690829D02*
X144316466Y-97690829D01*
X144373609Y-97719400D01*
X144402180Y-97747971D01*
X144430751Y-97805114D01*
X144459323Y-97919400D01*
X144459323Y-98062257D01*
X144430751Y-98176543D01*
X144402180Y-98233686D01*
X144373609Y-98262257D01*
X144316466Y-98290829D01*
X144259323Y-98290829D01*
X144202180Y-98262257D01*
X144173609Y-98233686D01*
X144145037Y-98176543D01*
X144116466Y-98062257D01*
X144116466Y-97919400D01*
X144145037Y-97805114D01*
X144173609Y-97747971D01*
X144202180Y-97719400D01*
X144259323Y-97690829D01*
X145030752Y-98290829D02*
X144687895Y-98290829D01*
X144859323Y-98290829D02*
X144859323Y-97690829D01*
X144802180Y-97776543D01*
X144745038Y-97833686D01*
X144687895Y-97862257D01*
X95253871Y-93517243D02*
X95225300Y-93574386D01*
X95168157Y-93631529D01*
X95082443Y-93717243D01*
X95053871Y-93774386D01*
X95053871Y-93831529D01*
X95196729Y-93802957D02*
X95168157Y-93860100D01*
X95111014Y-93917243D01*
X94996729Y-93945814D01*
X94796729Y-93945814D01*
X94682443Y-93917243D01*
X94625300Y-93860100D01*
X94596729Y-93802957D01*
X94596729Y-93688671D01*
X94625300Y-93631529D01*
X94682443Y-93574386D01*
X94796729Y-93545814D01*
X94996729Y-93545814D01*
X95111014Y-93574386D01*
X95168157Y-93631529D01*
X95196729Y-93688671D01*
X95196729Y-93802957D01*
X94596729Y-93345815D02*
X94596729Y-92974386D01*
X94825300Y-93174386D01*
X94825300Y-93088672D01*
X94853871Y-93031529D01*
X94882443Y-93002958D01*
X94939586Y-92974386D01*
X95082443Y-92974386D01*
X95139586Y-93002958D01*
X95168157Y-93031529D01*
X95196729Y-93088672D01*
X95196729Y-93260100D01*
X95168157Y-93317243D01*
X95139586Y-93345815D01*
D11*
X94013082Y-91531275D02*
X94013082Y-90931835D01*
X94212895Y-91360007D01*
X94412708Y-90931835D01*
X94412708Y-91531275D01*
X94698156Y-91531275D02*
X94698156Y-90931835D01*
X94897969Y-91360007D01*
X95097782Y-90931835D01*
X95097782Y-91531275D01*
X95583043Y-91217283D02*
X95668677Y-91245828D01*
X95697222Y-91274372D01*
X95725767Y-91331462D01*
X95725767Y-91417096D01*
X95697222Y-91474186D01*
X95668677Y-91502730D01*
X95611588Y-91531275D01*
X95383230Y-91531275D01*
X95383230Y-90931835D01*
X95583043Y-90931835D01*
X95640133Y-90960380D01*
X95668677Y-90988925D01*
X95697222Y-91046014D01*
X95697222Y-91103104D01*
X95668677Y-91160193D01*
X95640133Y-91188738D01*
X95583043Y-91217283D01*
X95383230Y-91217283D01*
X95897036Y-90931835D02*
X96239573Y-90931835D01*
X96068304Y-91531275D02*
X96068304Y-90931835D01*
X96410841Y-90988925D02*
X96439386Y-90960380D01*
X96496475Y-90931835D01*
X96639199Y-90931835D01*
X96696289Y-90960380D01*
X96724833Y-90988925D01*
X96753378Y-91046014D01*
X96753378Y-91103104D01*
X96724833Y-91188738D01*
X96382296Y-91531275D01*
X96753378Y-91531275D01*
X96981736Y-90988925D02*
X97010281Y-90960380D01*
X97067370Y-90931835D01*
X97210094Y-90931835D01*
X97267184Y-90960380D01*
X97295728Y-90988925D01*
X97324273Y-91046014D01*
X97324273Y-91103104D01*
X97295728Y-91188738D01*
X96953191Y-91531275D01*
X97324273Y-91531275D01*
X97552631Y-90988925D02*
X97581176Y-90960380D01*
X97638265Y-90931835D01*
X97780989Y-90931835D01*
X97838079Y-90960380D01*
X97866623Y-90988925D01*
X97895168Y-91046014D01*
X97895168Y-91103104D01*
X97866623Y-91188738D01*
X97524086Y-91531275D01*
X97895168Y-91531275D01*
X98123526Y-90988925D02*
X98152071Y-90960380D01*
X98209160Y-90931835D01*
X98351884Y-90931835D01*
X98408974Y-90960380D01*
X98437518Y-90988925D01*
X98466063Y-91046014D01*
X98466063Y-91103104D01*
X98437518Y-91188738D01*
X98094981Y-91531275D01*
X98466063Y-91531275D01*
X143344124Y-110628825D02*
X143372669Y-110600280D01*
X143429758Y-110571735D01*
X143572482Y-110571735D01*
X143629572Y-110600280D01*
X143658116Y-110628825D01*
X143686661Y-110685914D01*
X143686661Y-110743004D01*
X143658116Y-110828638D01*
X143315579Y-111171175D01*
X143686661Y-111171175D01*
X143886474Y-110571735D02*
X144286101Y-110571735D01*
X144029198Y-111171175D01*
X144514459Y-111171175D02*
X144514459Y-110571735D01*
X144714272Y-110999907D01*
X144914085Y-110571735D01*
X144914085Y-111171175D01*
X145199533Y-111171175D02*
X145199533Y-110571735D01*
X145199533Y-110857183D02*
X145542070Y-110857183D01*
X145542070Y-111171175D02*
X145542070Y-110571735D01*
X145770428Y-110771549D02*
X146084421Y-110771549D01*
X145770428Y-111171175D01*
X146084421Y-111171175D01*
D12*
X97800000Y-114471429D02*
X97600000Y-114185714D01*
X97457143Y-114471429D02*
X97457143Y-113871429D01*
X97685715Y-113871429D01*
X97742857Y-113900000D01*
X97771429Y-113928571D01*
X97800000Y-113985714D01*
X97800000Y-114071429D01*
X97771429Y-114128571D01*
X97742857Y-114157143D01*
X97685715Y-114185714D01*
X97457143Y-114185714D01*
X98371429Y-114471429D02*
X98028572Y-114471429D01*
X98200000Y-114471429D02*
X98200000Y-113871429D01*
X98142857Y-113957143D01*
X98085715Y-114014286D01*
X98028572Y-114042857D01*
X95528571Y-114071429D02*
X95528571Y-114471429D01*
X95385714Y-113842857D02*
X95242857Y-114271429D01*
X95614285Y-114271429D01*
X95842857Y-114471429D02*
X95842857Y-113871429D01*
X96185714Y-114471429D02*
X95928571Y-114128571D01*
X96185714Y-113871429D02*
X95842857Y-114214286D01*
X96385714Y-113871429D02*
X96785714Y-113871429D01*
X96528571Y-114471429D01*
X94000000Y-114471429D02*
X93800000Y-114185714D01*
X93657143Y-114471429D02*
X93657143Y-113871429D01*
X93885715Y-113871429D01*
X93942857Y-113900000D01*
X93971429Y-113928571D01*
X94000000Y-113985714D01*
X94000000Y-114071429D01*
X93971429Y-114128571D01*
X93942857Y-114157143D01*
X93885715Y-114185714D01*
X93657143Y-114185714D01*
X94228572Y-113928571D02*
X94257143Y-113900000D01*
X94314286Y-113871429D01*
X94457143Y-113871429D01*
X94514286Y-113900000D01*
X94542857Y-113928571D01*
X94571429Y-113985714D01*
X94571429Y-114042857D01*
X94542857Y-114128571D01*
X94200000Y-114471429D01*
X94571429Y-114471429D01*
X91528571Y-114071429D02*
X91528571Y-114471429D01*
X91385714Y-113842857D02*
X91242857Y-114271429D01*
X91614285Y-114271429D01*
X91842857Y-114471429D02*
X91842857Y-113871429D01*
X92185714Y-114471429D02*
X91928571Y-114128571D01*
X92185714Y-113871429D02*
X91842857Y-114214286D01*
X92385714Y-113871429D02*
X92785714Y-113871429D01*
X92528571Y-114471429D01*
X102800000Y-112671429D02*
X102600000Y-112385714D01*
X102457143Y-112671429D02*
X102457143Y-112071429D01*
X102685715Y-112071429D01*
X102742857Y-112100000D01*
X102771429Y-112128571D01*
X102800000Y-112185714D01*
X102800000Y-112271429D01*
X102771429Y-112328571D01*
X102742857Y-112357143D01*
X102685715Y-112385714D01*
X102457143Y-112385714D01*
X103000000Y-112071429D02*
X103371429Y-112071429D01*
X103171429Y-112300000D01*
X103257143Y-112300000D01*
X103314286Y-112328571D01*
X103342857Y-112357143D01*
X103371429Y-112414286D01*
X103371429Y-112557143D01*
X103342857Y-112614286D01*
X103314286Y-112642857D01*
X103257143Y-112671429D01*
X103085715Y-112671429D01*
X103028572Y-112642857D01*
X103000000Y-112614286D01*
X102800000Y-113671429D02*
X102457143Y-113671429D01*
X102628571Y-113671429D02*
X102628571Y-113071429D01*
X102571428Y-113157143D01*
X102514286Y-113214286D01*
X102457143Y-113242857D01*
X103342857Y-113071429D02*
X103057143Y-113071429D01*
X103028572Y-113357143D01*
X103057143Y-113328571D01*
X103114286Y-113300000D01*
X103257143Y-113300000D01*
X103314286Y-113328571D01*
X103342857Y-113357143D01*
X103371429Y-113414286D01*
X103371429Y-113557143D01*
X103342857Y-113614286D01*
X103314286Y-113642857D01*
X103257143Y-113671429D01*
X103114286Y-113671429D01*
X103057143Y-113642857D01*
X103028572Y-113614286D01*
X103742858Y-113071429D02*
X103800001Y-113071429D01*
X103857144Y-113100000D01*
X103885715Y-113128571D01*
X103914286Y-113185714D01*
X103942858Y-113300000D01*
X103942858Y-113442857D01*
X103914286Y-113557143D01*
X103885715Y-113614286D01*
X103857144Y-113642857D01*
X103800001Y-113671429D01*
X103742858Y-113671429D01*
X103685715Y-113642857D01*
X103657144Y-113614286D01*
X103628572Y-113557143D01*
X103600001Y-113442857D01*
X103600001Y-113300000D01*
X103628572Y-113185714D01*
X103657144Y-113128571D01*
X103685715Y-113100000D01*
X103742858Y-113071429D01*
X126400000Y-109071429D02*
X126200000Y-108785714D01*
X126057143Y-109071429D02*
X126057143Y-108471429D01*
X126285715Y-108471429D01*
X126342857Y-108500000D01*
X126371429Y-108528571D01*
X126400000Y-108585714D01*
X126400000Y-108671429D01*
X126371429Y-108728571D01*
X126342857Y-108757143D01*
X126285715Y-108785714D01*
X126057143Y-108785714D01*
X126914286Y-108671429D02*
X126914286Y-109071429D01*
X126771429Y-108442857D02*
X126628572Y-108871429D01*
X127000000Y-108871429D01*
X126357142Y-107671429D02*
X126071428Y-107671429D01*
X126042857Y-107957143D01*
X126071428Y-107928571D01*
X126128571Y-107900000D01*
X126271428Y-107900000D01*
X126328571Y-107928571D01*
X126357142Y-107957143D01*
X126385714Y-108014286D01*
X126385714Y-108157143D01*
X126357142Y-108214286D01*
X126328571Y-108242857D01*
X126271428Y-108271429D01*
X126128571Y-108271429D01*
X126071428Y-108242857D01*
X126042857Y-108214286D01*
X126957143Y-108271429D02*
X126614286Y-108271429D01*
X126785714Y-108271429D02*
X126785714Y-107671429D01*
X126728571Y-107757143D01*
X126671429Y-107814286D01*
X126614286Y-107842857D01*
X127557143Y-108271429D02*
X127357143Y-107985714D01*
X127214286Y-108271429D02*
X127214286Y-107671429D01*
X127442858Y-107671429D01*
X127500000Y-107700000D01*
X127528572Y-107728571D01*
X127557143Y-107785714D01*
X127557143Y-107871429D01*
X127528572Y-107928571D01*
X127500000Y-107957143D01*
X127442858Y-107985714D01*
X127214286Y-107985714D01*
X126400000Y-110371429D02*
X126200000Y-110085714D01*
X126057143Y-110371429D02*
X126057143Y-109771429D01*
X126285715Y-109771429D01*
X126342857Y-109800000D01*
X126371429Y-109828571D01*
X126400000Y-109885714D01*
X126400000Y-109971429D01*
X126371429Y-110028571D01*
X126342857Y-110057143D01*
X126285715Y-110085714D01*
X126057143Y-110085714D01*
X126942857Y-109771429D02*
X126657143Y-109771429D01*
X126628572Y-110057143D01*
X126657143Y-110028571D01*
X126714286Y-110000000D01*
X126857143Y-110000000D01*
X126914286Y-110028571D01*
X126942857Y-110057143D01*
X126971429Y-110114286D01*
X126971429Y-110257143D01*
X126942857Y-110314286D01*
X126914286Y-110342857D01*
X126857143Y-110371429D01*
X126714286Y-110371429D01*
X126657143Y-110342857D01*
X126628572Y-110314286D01*
X123957142Y-110871429D02*
X123671428Y-110871429D01*
X123642857Y-111157143D01*
X123671428Y-111128571D01*
X123728571Y-111100000D01*
X123871428Y-111100000D01*
X123928571Y-111128571D01*
X123957142Y-111157143D01*
X123985714Y-111214286D01*
X123985714Y-111357143D01*
X123957142Y-111414286D01*
X123928571Y-111442857D01*
X123871428Y-111471429D01*
X123728571Y-111471429D01*
X123671428Y-111442857D01*
X123642857Y-111414286D01*
X124557143Y-111471429D02*
X124214286Y-111471429D01*
X124385714Y-111471429D02*
X124385714Y-110871429D01*
X124328571Y-110957143D01*
X124271429Y-111014286D01*
X124214286Y-111042857D01*
X125157143Y-111471429D02*
X124957143Y-111185714D01*
X124814286Y-111471429D02*
X124814286Y-110871429D01*
X125042858Y-110871429D01*
X125100000Y-110900000D01*
X125128572Y-110928571D01*
X125157143Y-110985714D01*
X125157143Y-111071429D01*
X125128572Y-111128571D01*
X125100000Y-111157143D01*
X125042858Y-111185714D01*
X124814286Y-111185714D01*
X126300000Y-105571429D02*
X126100000Y-105285714D01*
X125957143Y-105571429D02*
X125957143Y-104971429D01*
X126185715Y-104971429D01*
X126242857Y-105000000D01*
X126271429Y-105028571D01*
X126300000Y-105085714D01*
X126300000Y-105171429D01*
X126271429Y-105228571D01*
X126242857Y-105257143D01*
X126185715Y-105285714D01*
X125957143Y-105285714D01*
X126814286Y-104971429D02*
X126700000Y-104971429D01*
X126642857Y-105000000D01*
X126614286Y-105028571D01*
X126557143Y-105114286D01*
X126528572Y-105228571D01*
X126528572Y-105457143D01*
X126557143Y-105514286D01*
X126585715Y-105542857D01*
X126642857Y-105571429D01*
X126757143Y-105571429D01*
X126814286Y-105542857D01*
X126842857Y-105514286D01*
X126871429Y-105457143D01*
X126871429Y-105314286D01*
X126842857Y-105257143D01*
X126814286Y-105228571D01*
X126757143Y-105200000D01*
X126642857Y-105200000D01*
X126585715Y-105228571D01*
X126557143Y-105257143D01*
X126528572Y-105314286D01*
X123957142Y-104971429D02*
X123671428Y-104971429D01*
X123642857Y-105257143D01*
X123671428Y-105228571D01*
X123728571Y-105200000D01*
X123871428Y-105200000D01*
X123928571Y-105228571D01*
X123957142Y-105257143D01*
X123985714Y-105314286D01*
X123985714Y-105457143D01*
X123957142Y-105514286D01*
X123928571Y-105542857D01*
X123871428Y-105571429D01*
X123728571Y-105571429D01*
X123671428Y-105542857D01*
X123642857Y-105514286D01*
X124557143Y-105571429D02*
X124214286Y-105571429D01*
X124385714Y-105571429D02*
X124385714Y-104971429D01*
X124328571Y-105057143D01*
X124271429Y-105114286D01*
X124214286Y-105142857D01*
X125157143Y-105571429D02*
X124957143Y-105285714D01*
X124814286Y-105571429D02*
X124814286Y-104971429D01*
X125042858Y-104971429D01*
X125100000Y-105000000D01*
X125128572Y-105028571D01*
X125157143Y-105085714D01*
X125157143Y-105171429D01*
X125128572Y-105228571D01*
X125100000Y-105257143D01*
X125042858Y-105285714D01*
X124814286Y-105285714D01*
X145571429Y-91600000D02*
X145285714Y-91800000D01*
X145571429Y-91942857D02*
X144971429Y-91942857D01*
X144971429Y-91714285D01*
X145000000Y-91657143D01*
X145028571Y-91628571D01*
X145085714Y-91600000D01*
X145171429Y-91600000D01*
X145228571Y-91628571D01*
X145257143Y-91657143D01*
X145285714Y-91714285D01*
X145285714Y-91942857D01*
X145228571Y-91257143D02*
X145200000Y-91314285D01*
X145171429Y-91342857D01*
X145114286Y-91371428D01*
X145085714Y-91371428D01*
X145028571Y-91342857D01*
X145000000Y-91314285D01*
X144971429Y-91257143D01*
X144971429Y-91142857D01*
X145000000Y-91085714D01*
X145028571Y-91057143D01*
X145085714Y-91028571D01*
X145114286Y-91028571D01*
X145171429Y-91057143D01*
X145200000Y-91085714D01*
X145228571Y-91142857D01*
X145228571Y-91257143D01*
X145257143Y-91314285D01*
X145285714Y-91342857D01*
X145342857Y-91371428D01*
X145457143Y-91371428D01*
X145514286Y-91342857D01*
X145542857Y-91314285D01*
X145571429Y-91257143D01*
X145571429Y-91142857D01*
X145542857Y-91085714D01*
X145514286Y-91057143D01*
X145457143Y-91028571D01*
X145342857Y-91028571D01*
X145285714Y-91057143D01*
X145257143Y-91085714D01*
X145228571Y-91142857D01*
X144971429Y-93885715D02*
X144971429Y-94171429D01*
X145257143Y-94200000D01*
X145228571Y-94171429D01*
X145200000Y-94114286D01*
X145200000Y-93971429D01*
X145228571Y-93914286D01*
X145257143Y-93885715D01*
X145314286Y-93857143D01*
X145457143Y-93857143D01*
X145514286Y-93885715D01*
X145542857Y-93914286D01*
X145571429Y-93971429D01*
X145571429Y-94114286D01*
X145542857Y-94171429D01*
X145514286Y-94200000D01*
X144971429Y-93342857D02*
X144971429Y-93457143D01*
X145000000Y-93514286D01*
X145028571Y-93542857D01*
X145114286Y-93600000D01*
X145228571Y-93628571D01*
X145457143Y-93628571D01*
X145514286Y-93600000D01*
X145542857Y-93571428D01*
X145571429Y-93514286D01*
X145571429Y-93400000D01*
X145542857Y-93342857D01*
X145514286Y-93314286D01*
X145457143Y-93285714D01*
X145314286Y-93285714D01*
X145257143Y-93314286D01*
X145228571Y-93342857D01*
X145200000Y-93400000D01*
X145200000Y-93514286D01*
X145228571Y-93571428D01*
X145257143Y-93600000D01*
X145314286Y-93628571D01*
X145571429Y-93028571D02*
X144971429Y-93028571D01*
X145342857Y-92971428D02*
X145571429Y-92799999D01*
X145171429Y-92799999D02*
X145400000Y-93028571D01*
X108514285Y-125271429D02*
X108314285Y-124985714D01*
X108171428Y-125271429D02*
X108171428Y-124671429D01*
X108400000Y-124671429D01*
X108457142Y-124700000D01*
X108485714Y-124728571D01*
X108514285Y-124785714D01*
X108514285Y-124871429D01*
X108485714Y-124928571D01*
X108457142Y-124957143D01*
X108400000Y-124985714D01*
X108171428Y-124985714D01*
X109085714Y-125271429D02*
X108742857Y-125271429D01*
X108914285Y-125271429D02*
X108914285Y-124671429D01*
X108857142Y-124757143D01*
X108800000Y-124814286D01*
X108742857Y-124842857D01*
X109457143Y-124671429D02*
X109514286Y-124671429D01*
X109571429Y-124700000D01*
X109600000Y-124728571D01*
X109628571Y-124785714D01*
X109657143Y-124900000D01*
X109657143Y-125042857D01*
X109628571Y-125157143D01*
X109600000Y-125214286D01*
X109571429Y-125242857D01*
X109514286Y-125271429D01*
X109457143Y-125271429D01*
X109400000Y-125242857D01*
X109371429Y-125214286D01*
X109342857Y-125157143D01*
X109314286Y-125042857D01*
X109314286Y-124900000D01*
X109342857Y-124785714D01*
X109371429Y-124728571D01*
X109400000Y-124700000D01*
X109457143Y-124671429D01*
X108485714Y-120771429D02*
X108485714Y-121171429D01*
X108342857Y-120542857D02*
X108200000Y-120971429D01*
X108571428Y-120971429D01*
X108800000Y-121171429D02*
X108800000Y-120571429D01*
X108857143Y-120942857D02*
X109028572Y-121171429D01*
X109028572Y-120771429D02*
X108800000Y-121000000D01*
X109228571Y-120571429D02*
X109628571Y-120571429D01*
X109371428Y-121171429D01*
X131000000Y-112714286D02*
X130971429Y-112742857D01*
X130885715Y-112771429D01*
X130828572Y-112771429D01*
X130742857Y-112742857D01*
X130685715Y-112685714D01*
X130657143Y-112628571D01*
X130628572Y-112514286D01*
X130628572Y-112428571D01*
X130657143Y-112314286D01*
X130685715Y-112257143D01*
X130742857Y-112200000D01*
X130828572Y-112171429D01*
X130885715Y-112171429D01*
X130971429Y-112200000D01*
X131000000Y-112228571D01*
X131228572Y-112228571D02*
X131257143Y-112200000D01*
X131314286Y-112171429D01*
X131457143Y-112171429D01*
X131514286Y-112200000D01*
X131542857Y-112228571D01*
X131571429Y-112285714D01*
X131571429Y-112342857D01*
X131542857Y-112428571D01*
X131200000Y-112771429D01*
X131571429Y-112771429D01*
X130771429Y-113071429D02*
X130828572Y-113071429D01*
X130885715Y-113100000D01*
X130914286Y-113128571D01*
X130942857Y-113185714D01*
X130971429Y-113300000D01*
X130971429Y-113442857D01*
X130942857Y-113557143D01*
X130914286Y-113614286D01*
X130885715Y-113642857D01*
X130828572Y-113671429D01*
X130771429Y-113671429D01*
X130714286Y-113642857D01*
X130685715Y-113614286D01*
X130657143Y-113557143D01*
X130628572Y-113442857D01*
X130628572Y-113300000D01*
X130657143Y-113185714D01*
X130685715Y-113128571D01*
X130714286Y-113100000D01*
X130771429Y-113071429D01*
X131228572Y-113614286D02*
X131257144Y-113642857D01*
X131228572Y-113671429D01*
X131200001Y-113642857D01*
X131228572Y-113614286D01*
X131228572Y-113671429D01*
X131828572Y-113671429D02*
X131485715Y-113671429D01*
X131657143Y-113671429D02*
X131657143Y-113071429D01*
X131600000Y-113157143D01*
X131542858Y-113214286D01*
X131485715Y-113242857D01*
X132342858Y-113271429D02*
X132342858Y-113671429D01*
X132085715Y-113271429D02*
X132085715Y-113585714D01*
X132114287Y-113642857D01*
X132171429Y-113671429D01*
X132257144Y-113671429D01*
X132314287Y-113642857D01*
X132342858Y-113614286D01*
X124814286Y-119400000D02*
X124842857Y-119428571D01*
X124871429Y-119514285D01*
X124871429Y-119571428D01*
X124842857Y-119657143D01*
X124785714Y-119714285D01*
X124728571Y-119742857D01*
X124614286Y-119771428D01*
X124528571Y-119771428D01*
X124414286Y-119742857D01*
X124357143Y-119714285D01*
X124300000Y-119657143D01*
X124271429Y-119571428D01*
X124271429Y-119514285D01*
X124300000Y-119428571D01*
X124328571Y-119400000D01*
X124271429Y-119200000D02*
X124271429Y-118828571D01*
X124500000Y-119028571D01*
X124500000Y-118942857D01*
X124528571Y-118885714D01*
X124557143Y-118857143D01*
X124614286Y-118828571D01*
X124757143Y-118828571D01*
X124814286Y-118857143D01*
X124842857Y-118885714D01*
X124871429Y-118942857D01*
X124871429Y-119114285D01*
X124842857Y-119171428D01*
X124814286Y-119200000D01*
X125471429Y-119628571D02*
X125471429Y-119571428D01*
X125500000Y-119514285D01*
X125528571Y-119485714D01*
X125585714Y-119457143D01*
X125700000Y-119428571D01*
X125842857Y-119428571D01*
X125957143Y-119457143D01*
X126014286Y-119485714D01*
X126042857Y-119514285D01*
X126071429Y-119571428D01*
X126071429Y-119628571D01*
X126042857Y-119685714D01*
X126014286Y-119714285D01*
X125957143Y-119742857D01*
X125842857Y-119771428D01*
X125700000Y-119771428D01*
X125585714Y-119742857D01*
X125528571Y-119714285D01*
X125500000Y-119685714D01*
X125471429Y-119628571D01*
X126014286Y-119171428D02*
X126042857Y-119142856D01*
X126071429Y-119171428D01*
X126042857Y-119199999D01*
X126014286Y-119171428D01*
X126071429Y-119171428D01*
X126071429Y-118571428D02*
X126071429Y-118914285D01*
X126071429Y-118742857D02*
X125471429Y-118742857D01*
X125557143Y-118800000D01*
X125614286Y-118857142D01*
X125642857Y-118914285D01*
X125671429Y-118057142D02*
X126071429Y-118057142D01*
X125671429Y-118314285D02*
X125985714Y-118314285D01*
X126042857Y-118285713D01*
X126071429Y-118228571D01*
X126071429Y-118142856D01*
X126042857Y-118085713D01*
X126014286Y-118057142D01*
X135200000Y-125014286D02*
X135171429Y-125042857D01*
X135085715Y-125071429D01*
X135028572Y-125071429D01*
X134942857Y-125042857D01*
X134885715Y-124985714D01*
X134857143Y-124928571D01*
X134828572Y-124814286D01*
X134828572Y-124728571D01*
X134857143Y-124614286D01*
X134885715Y-124557143D01*
X134942857Y-124500000D01*
X135028572Y-124471429D01*
X135085715Y-124471429D01*
X135171429Y-124500000D01*
X135200000Y-124528571D01*
X135714286Y-124671429D02*
X135714286Y-125071429D01*
X135571429Y-124442857D02*
X135428572Y-124871429D01*
X135800000Y-124871429D01*
X137071429Y-122371429D02*
X137128572Y-122371429D01*
X137185715Y-122400000D01*
X137214286Y-122428571D01*
X137242857Y-122485714D01*
X137271429Y-122600000D01*
X137271429Y-122742857D01*
X137242857Y-122857143D01*
X137214286Y-122914286D01*
X137185715Y-122942857D01*
X137128572Y-122971429D01*
X137071429Y-122971429D01*
X137014286Y-122942857D01*
X136985715Y-122914286D01*
X136957143Y-122857143D01*
X136928572Y-122742857D01*
X136928572Y-122600000D01*
X136957143Y-122485714D01*
X136985715Y-122428571D01*
X137014286Y-122400000D01*
X137071429Y-122371429D01*
X137528572Y-122914286D02*
X137557144Y-122942857D01*
X137528572Y-122971429D01*
X137500001Y-122942857D01*
X137528572Y-122914286D01*
X137528572Y-122971429D01*
X138128572Y-122971429D02*
X137785715Y-122971429D01*
X137957143Y-122971429D02*
X137957143Y-122371429D01*
X137900000Y-122457143D01*
X137842858Y-122514286D01*
X137785715Y-122542857D01*
X138642858Y-122571429D02*
X138642858Y-122971429D01*
X138385715Y-122571429D02*
X138385715Y-122885714D01*
X138414287Y-122942857D01*
X138471429Y-122971429D01*
X138557144Y-122971429D01*
X138614287Y-122942857D01*
X138642858Y-122914286D01*
X137848601Y-112937258D02*
X137877172Y-112965829D01*
X137905744Y-113051543D01*
X137905744Y-113108686D01*
X137877172Y-113194401D01*
X137820029Y-113251543D01*
X137762886Y-113280115D01*
X137648601Y-113308686D01*
X137562886Y-113308686D01*
X137448601Y-113280115D01*
X137391458Y-113251543D01*
X137334315Y-113194401D01*
X137305744Y-113108686D01*
X137305744Y-113051543D01*
X137334315Y-112965829D01*
X137362886Y-112937258D01*
X137305744Y-112394401D02*
X137305744Y-112680115D01*
X137591458Y-112708686D01*
X137562886Y-112680115D01*
X137534315Y-112622972D01*
X137534315Y-112480115D01*
X137562886Y-112422972D01*
X137591458Y-112394401D01*
X137648601Y-112365829D01*
X137791458Y-112365829D01*
X137848601Y-112394401D01*
X137877172Y-112422972D01*
X137905744Y-112480115D01*
X137905744Y-112622972D01*
X137877172Y-112680115D01*
X137848601Y-112708686D01*
X137171429Y-114685714D02*
X137171429Y-115028571D01*
X137171429Y-114857143D02*
X136571429Y-114857143D01*
X136657143Y-114914286D01*
X136714286Y-114971428D01*
X136742857Y-115028571D01*
X136571429Y-114314285D02*
X136571429Y-114257142D01*
X136600000Y-114199999D01*
X136628571Y-114171428D01*
X136685714Y-114142857D01*
X136800000Y-114114285D01*
X136942857Y-114114285D01*
X137057143Y-114142857D01*
X137114286Y-114171428D01*
X137142857Y-114199999D01*
X137171429Y-114257142D01*
X137171429Y-114314285D01*
X137142857Y-114371428D01*
X137114286Y-114399999D01*
X137057143Y-114428571D01*
X136942857Y-114457142D01*
X136800000Y-114457142D01*
X136685714Y-114428571D01*
X136628571Y-114399999D01*
X136600000Y-114371428D01*
X136571429Y-114314285D01*
X136771429Y-113857142D02*
X137171429Y-113857142D01*
X136828571Y-113857142D02*
X136800000Y-113828570D01*
X136771429Y-113771428D01*
X136771429Y-113685713D01*
X136800000Y-113628570D01*
X136857143Y-113599999D01*
X137171429Y-113599999D01*
X139690022Y-111778680D02*
X139718593Y-111807251D01*
X139747165Y-111892965D01*
X139747165Y-111950108D01*
X139718593Y-112035823D01*
X139661450Y-112092965D01*
X139604307Y-112121537D01*
X139490022Y-112150108D01*
X139404307Y-112150108D01*
X139290022Y-112121537D01*
X139232879Y-112092965D01*
X139175736Y-112035823D01*
X139147165Y-111950108D01*
X139147165Y-111892965D01*
X139175736Y-111807251D01*
X139204307Y-111778680D01*
X139147165Y-111264394D02*
X139147165Y-111378680D01*
X139175736Y-111435823D01*
X139204307Y-111464394D01*
X139290022Y-111521537D01*
X139404307Y-111550108D01*
X139632879Y-111550108D01*
X139690022Y-111521537D01*
X139718593Y-111492965D01*
X139747165Y-111435823D01*
X139747165Y-111321537D01*
X139718593Y-111264394D01*
X139690022Y-111235823D01*
X139632879Y-111207251D01*
X139490022Y-111207251D01*
X139432879Y-111235823D01*
X139404307Y-111264394D01*
X139375736Y-111321537D01*
X139375736Y-111435823D01*
X139404307Y-111492965D01*
X139432879Y-111521537D01*
X139490022Y-111550108D01*
X140471429Y-111700000D02*
X140471429Y-112042857D01*
X140471429Y-111871429D02*
X139871429Y-111871429D01*
X139957143Y-111928572D01*
X140014286Y-111985714D01*
X140042857Y-112042857D01*
X140071429Y-111185714D02*
X140471429Y-111185714D01*
X140071429Y-111442857D02*
X140385714Y-111442857D01*
X140442857Y-111414285D01*
X140471429Y-111357143D01*
X140471429Y-111271428D01*
X140442857Y-111214285D01*
X140414286Y-111185714D01*
X99576100Y-121611386D02*
X99547529Y-121639957D01*
X99461815Y-121668529D01*
X99404672Y-121668529D01*
X99318957Y-121639957D01*
X99261815Y-121582814D01*
X99233243Y-121525671D01*
X99204672Y-121411386D01*
X99204672Y-121325671D01*
X99233243Y-121211386D01*
X99261815Y-121154243D01*
X99318957Y-121097100D01*
X99404672Y-121068529D01*
X99461815Y-121068529D01*
X99547529Y-121097100D01*
X99576100Y-121125671D01*
X99776100Y-121068529D02*
X100176100Y-121068529D01*
X99918957Y-121668529D01*
X101690386Y-121668529D02*
X101347529Y-121668529D01*
X101518957Y-121668529D02*
X101518957Y-121068529D01*
X101461814Y-121154243D01*
X101404672Y-121211386D01*
X101347529Y-121239957D01*
X102061815Y-121068529D02*
X102118958Y-121068529D01*
X102176101Y-121097100D01*
X102204672Y-121125671D01*
X102233243Y-121182814D01*
X102261815Y-121297100D01*
X102261815Y-121439957D01*
X102233243Y-121554243D01*
X102204672Y-121611386D01*
X102176101Y-121639957D01*
X102118958Y-121668529D01*
X102061815Y-121668529D01*
X102004672Y-121639957D01*
X101976101Y-121611386D01*
X101947529Y-121554243D01*
X101918958Y-121439957D01*
X101918958Y-121297100D01*
X101947529Y-121182814D01*
X101976101Y-121125671D01*
X102004672Y-121097100D01*
X102061815Y-121068529D01*
X102776101Y-121268529D02*
X102776101Y-121668529D01*
X102518958Y-121268529D02*
X102518958Y-121582814D01*
X102547530Y-121639957D01*
X102604672Y-121668529D01*
X102690387Y-121668529D01*
X102747530Y-121639957D01*
X102776101Y-121611386D01*
X125700000Y-101214286D02*
X125671429Y-101242857D01*
X125585715Y-101271429D01*
X125528572Y-101271429D01*
X125442857Y-101242857D01*
X125385715Y-101185714D01*
X125357143Y-101128571D01*
X125328572Y-101014286D01*
X125328572Y-100928571D01*
X125357143Y-100814286D01*
X125385715Y-100757143D01*
X125442857Y-100700000D01*
X125528572Y-100671429D01*
X125585715Y-100671429D01*
X125671429Y-100700000D01*
X125700000Y-100728571D01*
X126042857Y-100928571D02*
X125985715Y-100900000D01*
X125957143Y-100871429D01*
X125928572Y-100814286D01*
X125928572Y-100785714D01*
X125957143Y-100728571D01*
X125985715Y-100700000D01*
X126042857Y-100671429D01*
X126157143Y-100671429D01*
X126214286Y-100700000D01*
X126242857Y-100728571D01*
X126271429Y-100785714D01*
X126271429Y-100814286D01*
X126242857Y-100871429D01*
X126214286Y-100900000D01*
X126157143Y-100928571D01*
X126042857Y-100928571D01*
X125985715Y-100957143D01*
X125957143Y-100985714D01*
X125928572Y-101042857D01*
X125928572Y-101157143D01*
X125957143Y-101214286D01*
X125985715Y-101242857D01*
X126042857Y-101271429D01*
X126157143Y-101271429D01*
X126214286Y-101242857D01*
X126242857Y-101214286D01*
X126271429Y-101157143D01*
X126271429Y-101042857D01*
X126242857Y-100985714D01*
X126214286Y-100957143D01*
X126157143Y-100928571D01*
X127314286Y-103771429D02*
X126971429Y-103771429D01*
X127142857Y-103771429D02*
X127142857Y-103171429D01*
X127085714Y-103257143D01*
X127028572Y-103314286D01*
X126971429Y-103342857D01*
X127685715Y-103171429D02*
X127742858Y-103171429D01*
X127800001Y-103200000D01*
X127828572Y-103228571D01*
X127857143Y-103285714D01*
X127885715Y-103400000D01*
X127885715Y-103542857D01*
X127857143Y-103657143D01*
X127828572Y-103714286D01*
X127800001Y-103742857D01*
X127742858Y-103771429D01*
X127685715Y-103771429D01*
X127628572Y-103742857D01*
X127600001Y-103714286D01*
X127571429Y-103657143D01*
X127542858Y-103542857D01*
X127542858Y-103400000D01*
X127571429Y-103285714D01*
X127600001Y-103228571D01*
X127628572Y-103200000D01*
X127685715Y-103171429D01*
X128400001Y-103371429D02*
X128400001Y-103771429D01*
X128142858Y-103371429D02*
X128142858Y-103685714D01*
X128171430Y-103742857D01*
X128228572Y-103771429D01*
X128314287Y-103771429D01*
X128371430Y-103742857D01*
X128400001Y-103714286D01*
X131614286Y-104285715D02*
X131642857Y-104314286D01*
X131671429Y-104400000D01*
X131671429Y-104457143D01*
X131642857Y-104542858D01*
X131585714Y-104600000D01*
X131528571Y-104628572D01*
X131414286Y-104657143D01*
X131328571Y-104657143D01*
X131214286Y-104628572D01*
X131157143Y-104600000D01*
X131100000Y-104542858D01*
X131071429Y-104457143D01*
X131071429Y-104400000D01*
X131100000Y-104314286D01*
X131128571Y-104285715D01*
X131671429Y-103714286D02*
X131671429Y-104057143D01*
X131671429Y-103885715D02*
X131071429Y-103885715D01*
X131157143Y-103942858D01*
X131214286Y-104000000D01*
X131242857Y-104057143D01*
X131071429Y-103342857D02*
X131071429Y-103285714D01*
X131100000Y-103228571D01*
X131128571Y-103200000D01*
X131185714Y-103171429D01*
X131300000Y-103142857D01*
X131442857Y-103142857D01*
X131557143Y-103171429D01*
X131614286Y-103200000D01*
X131642857Y-103228571D01*
X131671429Y-103285714D01*
X131671429Y-103342857D01*
X131642857Y-103400000D01*
X131614286Y-103428571D01*
X131557143Y-103457143D01*
X131442857Y-103485714D01*
X131300000Y-103485714D01*
X131185714Y-103457143D01*
X131128571Y-103428571D01*
X131100000Y-103400000D01*
X131071429Y-103342857D01*
X132671429Y-104185714D02*
X132671429Y-104528571D01*
X132671429Y-104357143D02*
X132071429Y-104357143D01*
X132157143Y-104414286D01*
X132214286Y-104471428D01*
X132242857Y-104528571D01*
X132071429Y-103814285D02*
X132071429Y-103757142D01*
X132100000Y-103699999D01*
X132128571Y-103671428D01*
X132185714Y-103642857D01*
X132300000Y-103614285D01*
X132442857Y-103614285D01*
X132557143Y-103642857D01*
X132614286Y-103671428D01*
X132642857Y-103699999D01*
X132671429Y-103757142D01*
X132671429Y-103814285D01*
X132642857Y-103871428D01*
X132614286Y-103899999D01*
X132557143Y-103928571D01*
X132442857Y-103957142D01*
X132300000Y-103957142D01*
X132185714Y-103928571D01*
X132128571Y-103899999D01*
X132100000Y-103871428D01*
X132071429Y-103814285D01*
X132271429Y-103099999D02*
X132671429Y-103099999D01*
X132271429Y-103357142D02*
X132585714Y-103357142D01*
X132642857Y-103328570D01*
X132671429Y-103271428D01*
X132671429Y-103185713D01*
X132642857Y-103128570D01*
X132614286Y-103099999D01*
X141614286Y-106685715D02*
X141642857Y-106714286D01*
X141671429Y-106800000D01*
X141671429Y-106857143D01*
X141642857Y-106942858D01*
X141585714Y-107000000D01*
X141528571Y-107028572D01*
X141414286Y-107057143D01*
X141328571Y-107057143D01*
X141214286Y-107028572D01*
X141157143Y-107000000D01*
X141100000Y-106942858D01*
X141071429Y-106857143D01*
X141071429Y-106800000D01*
X141100000Y-106714286D01*
X141128571Y-106685715D01*
X141671429Y-106114286D02*
X141671429Y-106457143D01*
X141671429Y-106285715D02*
X141071429Y-106285715D01*
X141157143Y-106342858D01*
X141214286Y-106400000D01*
X141242857Y-106457143D01*
X141671429Y-105542857D02*
X141671429Y-105885714D01*
X141671429Y-105714286D02*
X141071429Y-105714286D01*
X141157143Y-105771429D01*
X141214286Y-105828571D01*
X141242857Y-105885714D01*
X142171429Y-112142857D02*
X142171429Y-112485714D01*
X142171429Y-112314286D02*
X141571429Y-112314286D01*
X141657143Y-112371429D01*
X141714286Y-112428571D01*
X141742857Y-112485714D01*
X141571429Y-111771428D02*
X141571429Y-111714285D01*
X141600000Y-111657142D01*
X141628571Y-111628571D01*
X141685714Y-111600000D01*
X141800000Y-111571428D01*
X141942857Y-111571428D01*
X142057143Y-111600000D01*
X142114286Y-111628571D01*
X142142857Y-111657142D01*
X142171429Y-111714285D01*
X142171429Y-111771428D01*
X142142857Y-111828571D01*
X142114286Y-111857142D01*
X142057143Y-111885714D01*
X141942857Y-111914285D01*
X141800000Y-111914285D01*
X141685714Y-111885714D01*
X141628571Y-111857142D01*
X141600000Y-111828571D01*
X141571429Y-111771428D01*
X141771429Y-111314285D02*
X142371429Y-111314285D01*
X141800000Y-111314285D02*
X141771429Y-111257142D01*
X141771429Y-111142856D01*
X141800000Y-111085713D01*
X141828571Y-111057142D01*
X141885714Y-111028571D01*
X142057143Y-111028571D01*
X142114286Y-111057142D01*
X142142857Y-111085713D01*
X142171429Y-111142856D01*
X142171429Y-111257142D01*
X142142857Y-111314285D01*
X141857143Y-110571428D02*
X141857143Y-110771428D01*
X142171429Y-110771428D02*
X141571429Y-110771428D01*
X141571429Y-110485714D01*
X147614286Y-111685715D02*
X147642857Y-111714286D01*
X147671429Y-111800000D01*
X147671429Y-111857143D01*
X147642857Y-111942858D01*
X147585714Y-112000000D01*
X147528571Y-112028572D01*
X147414286Y-112057143D01*
X147328571Y-112057143D01*
X147214286Y-112028572D01*
X147157143Y-112000000D01*
X147100000Y-111942858D01*
X147071429Y-111857143D01*
X147071429Y-111800000D01*
X147100000Y-111714286D01*
X147128571Y-111685715D01*
X147671429Y-111114286D02*
X147671429Y-111457143D01*
X147671429Y-111285715D02*
X147071429Y-111285715D01*
X147157143Y-111342858D01*
X147214286Y-111400000D01*
X147242857Y-111457143D01*
X147128571Y-110885714D02*
X147100000Y-110857143D01*
X147071429Y-110800000D01*
X147071429Y-110657143D01*
X147100000Y-110600000D01*
X147128571Y-110571429D01*
X147185714Y-110542857D01*
X147242857Y-110542857D01*
X147328571Y-110571429D01*
X147671429Y-110914286D01*
X147671429Y-110542857D01*
X148571429Y-112242857D02*
X148571429Y-112585714D01*
X148571429Y-112414286D02*
X147971429Y-112414286D01*
X148057143Y-112471429D01*
X148114286Y-112528571D01*
X148142857Y-112585714D01*
X147971429Y-111871428D02*
X147971429Y-111814285D01*
X148000000Y-111757142D01*
X148028571Y-111728571D01*
X148085714Y-111700000D01*
X148200000Y-111671428D01*
X148342857Y-111671428D01*
X148457143Y-111700000D01*
X148514286Y-111728571D01*
X148542857Y-111757142D01*
X148571429Y-111814285D01*
X148571429Y-111871428D01*
X148542857Y-111928571D01*
X148514286Y-111957142D01*
X148457143Y-111985714D01*
X148342857Y-112014285D01*
X148200000Y-112014285D01*
X148085714Y-111985714D01*
X148028571Y-111957142D01*
X148000000Y-111928571D01*
X147971429Y-111871428D01*
X148171429Y-111414285D02*
X148771429Y-111414285D01*
X148200000Y-111414285D02*
X148171429Y-111357142D01*
X148171429Y-111242856D01*
X148200000Y-111185713D01*
X148228571Y-111157142D01*
X148285714Y-111128571D01*
X148457143Y-111128571D01*
X148514286Y-111157142D01*
X148542857Y-111185713D01*
X148571429Y-111242856D01*
X148571429Y-111357142D01*
X148542857Y-111414285D01*
X148257143Y-110671428D02*
X148257143Y-110871428D01*
X148571429Y-110871428D02*
X147971429Y-110871428D01*
X147971429Y-110585714D01*
X136714286Y-104485715D02*
X136742857Y-104514286D01*
X136771429Y-104600000D01*
X136771429Y-104657143D01*
X136742857Y-104742858D01*
X136685714Y-104800000D01*
X136628571Y-104828572D01*
X136514286Y-104857143D01*
X136428571Y-104857143D01*
X136314286Y-104828572D01*
X136257143Y-104800000D01*
X136200000Y-104742858D01*
X136171429Y-104657143D01*
X136171429Y-104600000D01*
X136200000Y-104514286D01*
X136228571Y-104485715D01*
X136771429Y-103914286D02*
X136771429Y-104257143D01*
X136771429Y-104085715D02*
X136171429Y-104085715D01*
X136257143Y-104142858D01*
X136314286Y-104200000D01*
X136342857Y-104257143D01*
X136171429Y-103714286D02*
X136171429Y-103342857D01*
X136400000Y-103542857D01*
X136400000Y-103457143D01*
X136428571Y-103400000D01*
X136457143Y-103371429D01*
X136514286Y-103342857D01*
X136657143Y-103342857D01*
X136714286Y-103371429D01*
X136742857Y-103400000D01*
X136771429Y-103457143D01*
X136771429Y-103628571D01*
X136742857Y-103685714D01*
X136714286Y-103714286D01*
X136971429Y-104628571D02*
X136971429Y-104571428D01*
X137000000Y-104514285D01*
X137028571Y-104485714D01*
X137085714Y-104457143D01*
X137200000Y-104428571D01*
X137342857Y-104428571D01*
X137457143Y-104457143D01*
X137514286Y-104485714D01*
X137542857Y-104514285D01*
X137571429Y-104571428D01*
X137571429Y-104628571D01*
X137542857Y-104685714D01*
X137514286Y-104714285D01*
X137457143Y-104742857D01*
X137342857Y-104771428D01*
X137200000Y-104771428D01*
X137085714Y-104742857D01*
X137028571Y-104714285D01*
X137000000Y-104685714D01*
X136971429Y-104628571D01*
X137514286Y-104171428D02*
X137542857Y-104142856D01*
X137571429Y-104171428D01*
X137542857Y-104199999D01*
X137514286Y-104171428D01*
X137571429Y-104171428D01*
X137571429Y-103571428D02*
X137571429Y-103914285D01*
X137571429Y-103742857D02*
X136971429Y-103742857D01*
X137057143Y-103800000D01*
X137114286Y-103857142D01*
X137142857Y-103914285D01*
X137171429Y-103057142D02*
X137571429Y-103057142D01*
X137171429Y-103314285D02*
X137485714Y-103314285D01*
X137542857Y-103285713D01*
X137571429Y-103228571D01*
X137571429Y-103142856D01*
X137542857Y-103085713D01*
X137514286Y-103057142D01*
X148114286Y-92785715D02*
X148142857Y-92814286D01*
X148171429Y-92900000D01*
X148171429Y-92957143D01*
X148142857Y-93042858D01*
X148085714Y-93100000D01*
X148028571Y-93128572D01*
X147914286Y-93157143D01*
X147828571Y-93157143D01*
X147714286Y-93128572D01*
X147657143Y-93100000D01*
X147600000Y-93042858D01*
X147571429Y-92957143D01*
X147571429Y-92900000D01*
X147600000Y-92814286D01*
X147628571Y-92785715D01*
X148171429Y-92214286D02*
X148171429Y-92557143D01*
X148171429Y-92385715D02*
X147571429Y-92385715D01*
X147657143Y-92442858D01*
X147714286Y-92500000D01*
X147742857Y-92557143D01*
X147771429Y-91700000D02*
X148171429Y-91700000D01*
X147542857Y-91842857D02*
X147971429Y-91985714D01*
X147971429Y-91614286D01*
X146628571Y-94171429D02*
X146600000Y-94142858D01*
X146571429Y-94085715D01*
X146571429Y-93942858D01*
X146600000Y-93885715D01*
X146628571Y-93857144D01*
X146685714Y-93828572D01*
X146742857Y-93828572D01*
X146828571Y-93857144D01*
X147171429Y-94200001D01*
X147171429Y-93828572D01*
X146628571Y-93600000D02*
X146600000Y-93571429D01*
X146571429Y-93514286D01*
X146571429Y-93371429D01*
X146600000Y-93314286D01*
X146628571Y-93285715D01*
X146685714Y-93257143D01*
X146742857Y-93257143D01*
X146828571Y-93285715D01*
X147171429Y-93628572D01*
X147171429Y-93257143D01*
X146571429Y-92885714D02*
X146571429Y-92828571D01*
X146600000Y-92771428D01*
X146628571Y-92742857D01*
X146685714Y-92714286D01*
X146800000Y-92685714D01*
X146942857Y-92685714D01*
X147057143Y-92714286D01*
X147114286Y-92742857D01*
X147142857Y-92771428D01*
X147171429Y-92828571D01*
X147171429Y-92885714D01*
X147142857Y-92942857D01*
X147114286Y-92971428D01*
X147057143Y-93000000D01*
X146942857Y-93028571D01*
X146800000Y-93028571D01*
X146685714Y-93000000D01*
X146628571Y-92971428D01*
X146600000Y-92942857D01*
X146571429Y-92885714D01*
X146771429Y-92428571D02*
X147371429Y-92428571D01*
X146800000Y-92428571D02*
X146771429Y-92371428D01*
X146771429Y-92257142D01*
X146800000Y-92199999D01*
X146828571Y-92171428D01*
X146885714Y-92142857D01*
X147057143Y-92142857D01*
X147114286Y-92171428D01*
X147142857Y-92199999D01*
X147171429Y-92257142D01*
X147171429Y-92371428D01*
X147142857Y-92428571D01*
X146857143Y-91685714D02*
X146857143Y-91885714D01*
X147171429Y-91885714D02*
X146571429Y-91885714D01*
X146571429Y-91600000D01*
X148914286Y-95385715D02*
X148942857Y-95414286D01*
X148971429Y-95500000D01*
X148971429Y-95557143D01*
X148942857Y-95642858D01*
X148885714Y-95700000D01*
X148828571Y-95728572D01*
X148714286Y-95757143D01*
X148628571Y-95757143D01*
X148514286Y-95728572D01*
X148457143Y-95700000D01*
X148400000Y-95642858D01*
X148371429Y-95557143D01*
X148371429Y-95500000D01*
X148400000Y-95414286D01*
X148428571Y-95385715D01*
X148971429Y-94814286D02*
X148971429Y-95157143D01*
X148971429Y-94985715D02*
X148371429Y-94985715D01*
X148457143Y-95042858D01*
X148514286Y-95100000D01*
X148542857Y-95157143D01*
X148371429Y-94271429D02*
X148371429Y-94557143D01*
X148657143Y-94585714D01*
X148628571Y-94557143D01*
X148600000Y-94500000D01*
X148600000Y-94357143D01*
X148628571Y-94300000D01*
X148657143Y-94271429D01*
X148714286Y-94242857D01*
X148857143Y-94242857D01*
X148914286Y-94271429D01*
X148942857Y-94300000D01*
X148971429Y-94357143D01*
X148971429Y-94500000D01*
X148942857Y-94557143D01*
X148914286Y-94585714D01*
X149971429Y-95385714D02*
X149971429Y-95728571D01*
X149971429Y-95557143D02*
X149371429Y-95557143D01*
X149457143Y-95614286D01*
X149514286Y-95671428D01*
X149542857Y-95728571D01*
X149371429Y-95014285D02*
X149371429Y-94957142D01*
X149400000Y-94899999D01*
X149428571Y-94871428D01*
X149485714Y-94842857D01*
X149600000Y-94814285D01*
X149742857Y-94814285D01*
X149857143Y-94842857D01*
X149914286Y-94871428D01*
X149942857Y-94899999D01*
X149971429Y-94957142D01*
X149971429Y-95014285D01*
X149942857Y-95071428D01*
X149914286Y-95099999D01*
X149857143Y-95128571D01*
X149742857Y-95157142D01*
X149600000Y-95157142D01*
X149485714Y-95128571D01*
X149428571Y-95099999D01*
X149400000Y-95071428D01*
X149371429Y-95014285D01*
X149571429Y-94557142D02*
X149971429Y-94557142D01*
X149628571Y-94557142D02*
X149600000Y-94528570D01*
X149571429Y-94471428D01*
X149571429Y-94385713D01*
X149600000Y-94328570D01*
X149657143Y-94299999D01*
X149971429Y-94299999D01*
X148414286Y-105585715D02*
X148442857Y-105614286D01*
X148471429Y-105700000D01*
X148471429Y-105757143D01*
X148442857Y-105842858D01*
X148385714Y-105900000D01*
X148328571Y-105928572D01*
X148214286Y-105957143D01*
X148128571Y-105957143D01*
X148014286Y-105928572D01*
X147957143Y-105900000D01*
X147900000Y-105842858D01*
X147871429Y-105757143D01*
X147871429Y-105700000D01*
X147900000Y-105614286D01*
X147928571Y-105585715D01*
X148471429Y-105014286D02*
X148471429Y-105357143D01*
X148471429Y-105185715D02*
X147871429Y-105185715D01*
X147957143Y-105242858D01*
X148014286Y-105300000D01*
X148042857Y-105357143D01*
X147871429Y-104500000D02*
X147871429Y-104614286D01*
X147900000Y-104671429D01*
X147928571Y-104700000D01*
X148014286Y-104757143D01*
X148128571Y-104785714D01*
X148357143Y-104785714D01*
X148414286Y-104757143D01*
X148442857Y-104728571D01*
X148471429Y-104671429D01*
X148471429Y-104557143D01*
X148442857Y-104500000D01*
X148414286Y-104471429D01*
X148357143Y-104442857D01*
X148214286Y-104442857D01*
X148157143Y-104471429D01*
X148128571Y-104500000D01*
X148100000Y-104557143D01*
X148100000Y-104671429D01*
X148128571Y-104728571D01*
X148157143Y-104757143D01*
X148214286Y-104785714D01*
X149171429Y-105557143D02*
X149171429Y-105185714D01*
X149400000Y-105385714D01*
X149400000Y-105300000D01*
X149428571Y-105242857D01*
X149457143Y-105214286D01*
X149514286Y-105185714D01*
X149657143Y-105185714D01*
X149714286Y-105214286D01*
X149742857Y-105242857D01*
X149771429Y-105300000D01*
X149771429Y-105471428D01*
X149742857Y-105528571D01*
X149714286Y-105557143D01*
X149714286Y-104928571D02*
X149742857Y-104899999D01*
X149771429Y-104928571D01*
X149742857Y-104957142D01*
X149714286Y-104928571D01*
X149771429Y-104928571D01*
X149171429Y-104700000D02*
X149171429Y-104328571D01*
X149400000Y-104528571D01*
X149400000Y-104442857D01*
X149428571Y-104385714D01*
X149457143Y-104357143D01*
X149514286Y-104328571D01*
X149657143Y-104328571D01*
X149714286Y-104357143D01*
X149742857Y-104385714D01*
X149771429Y-104442857D01*
X149771429Y-104614285D01*
X149742857Y-104671428D01*
X149714286Y-104700000D01*
X149371429Y-104071428D02*
X149971429Y-104071428D01*
X149400000Y-104071428D02*
X149371429Y-104014285D01*
X149371429Y-103899999D01*
X149400000Y-103842856D01*
X149428571Y-103814285D01*
X149485714Y-103785714D01*
X149657143Y-103785714D01*
X149714286Y-103814285D01*
X149742857Y-103842856D01*
X149771429Y-103899999D01*
X149771429Y-104014285D01*
X149742857Y-104071428D01*
X149457143Y-103328571D02*
X149457143Y-103528571D01*
X149771429Y-103528571D02*
X149171429Y-103528571D01*
X149171429Y-103242857D01*
X146839886Y-106231715D02*
X146868457Y-106260286D01*
X146897029Y-106346000D01*
X146897029Y-106403143D01*
X146868457Y-106488858D01*
X146811314Y-106546000D01*
X146754171Y-106574572D01*
X146639886Y-106603143D01*
X146554171Y-106603143D01*
X146439886Y-106574572D01*
X146382743Y-106546000D01*
X146325600Y-106488858D01*
X146297029Y-106403143D01*
X146297029Y-106346000D01*
X146325600Y-106260286D01*
X146354171Y-106231715D01*
X146897029Y-105660286D02*
X146897029Y-106003143D01*
X146897029Y-105831715D02*
X146297029Y-105831715D01*
X146382743Y-105888858D01*
X146439886Y-105946000D01*
X146468457Y-106003143D01*
X146297029Y-105460286D02*
X146297029Y-105060286D01*
X146897029Y-105317429D01*
X142871429Y-106285714D02*
X142871429Y-106628571D01*
X142871429Y-106457143D02*
X142271429Y-106457143D01*
X142357143Y-106514286D01*
X142414286Y-106571428D01*
X142442857Y-106628571D01*
X142271429Y-105914285D02*
X142271429Y-105857142D01*
X142300000Y-105799999D01*
X142328571Y-105771428D01*
X142385714Y-105742857D01*
X142500000Y-105714285D01*
X142642857Y-105714285D01*
X142757143Y-105742857D01*
X142814286Y-105771428D01*
X142842857Y-105799999D01*
X142871429Y-105857142D01*
X142871429Y-105914285D01*
X142842857Y-105971428D01*
X142814286Y-105999999D01*
X142757143Y-106028571D01*
X142642857Y-106057142D01*
X142500000Y-106057142D01*
X142385714Y-106028571D01*
X142328571Y-105999999D01*
X142300000Y-105971428D01*
X142271429Y-105914285D01*
X142471429Y-105457142D02*
X142871429Y-105457142D01*
X142528571Y-105457142D02*
X142500000Y-105428570D01*
X142471429Y-105371428D01*
X142471429Y-105285713D01*
X142500000Y-105228570D01*
X142557143Y-105199999D01*
X142871429Y-105199999D01*
X138214285Y-100614286D02*
X138185714Y-100642857D01*
X138100000Y-100671429D01*
X138042857Y-100671429D01*
X137957142Y-100642857D01*
X137900000Y-100585714D01*
X137871428Y-100528571D01*
X137842857Y-100414286D01*
X137842857Y-100328571D01*
X137871428Y-100214286D01*
X137900000Y-100157143D01*
X137957142Y-100100000D01*
X138042857Y-100071429D01*
X138100000Y-100071429D01*
X138185714Y-100100000D01*
X138214285Y-100128571D01*
X138785714Y-100671429D02*
X138442857Y-100671429D01*
X138614285Y-100671429D02*
X138614285Y-100071429D01*
X138557142Y-100157143D01*
X138500000Y-100214286D01*
X138442857Y-100242857D01*
X139128571Y-100328571D02*
X139071429Y-100300000D01*
X139042857Y-100271429D01*
X139014286Y-100214286D01*
X139014286Y-100185714D01*
X139042857Y-100128571D01*
X139071429Y-100100000D01*
X139128571Y-100071429D01*
X139242857Y-100071429D01*
X139300000Y-100100000D01*
X139328571Y-100128571D01*
X139357143Y-100185714D01*
X139357143Y-100214286D01*
X139328571Y-100271429D01*
X139300000Y-100300000D01*
X139242857Y-100328571D01*
X139128571Y-100328571D01*
X139071429Y-100357143D01*
X139042857Y-100385714D01*
X139014286Y-100442857D01*
X139014286Y-100557143D01*
X139042857Y-100614286D01*
X139071429Y-100642857D01*
X139128571Y-100671429D01*
X139242857Y-100671429D01*
X139300000Y-100642857D01*
X139328571Y-100614286D01*
X139357143Y-100557143D01*
X139357143Y-100442857D01*
X139328571Y-100385714D01*
X139300000Y-100357143D01*
X139242857Y-100328571D01*
X136971429Y-102328571D02*
X136971429Y-102271428D01*
X137000000Y-102214285D01*
X137028571Y-102185714D01*
X137085714Y-102157143D01*
X137200000Y-102128571D01*
X137342857Y-102128571D01*
X137457143Y-102157143D01*
X137514286Y-102185714D01*
X137542857Y-102214285D01*
X137571429Y-102271428D01*
X137571429Y-102328571D01*
X137542857Y-102385714D01*
X137514286Y-102414285D01*
X137457143Y-102442857D01*
X137342857Y-102471428D01*
X137200000Y-102471428D01*
X137085714Y-102442857D01*
X137028571Y-102414285D01*
X137000000Y-102385714D01*
X136971429Y-102328571D01*
X137514286Y-101871428D02*
X137542857Y-101842856D01*
X137571429Y-101871428D01*
X137542857Y-101899999D01*
X137514286Y-101871428D01*
X137571429Y-101871428D01*
X137571429Y-101271428D02*
X137571429Y-101614285D01*
X137571429Y-101442857D02*
X136971429Y-101442857D01*
X137057143Y-101500000D01*
X137114286Y-101557142D01*
X137142857Y-101614285D01*
X137171429Y-100757142D02*
X137571429Y-100757142D01*
X137171429Y-101014285D02*
X137485714Y-101014285D01*
X137542857Y-100985713D01*
X137571429Y-100928571D01*
X137571429Y-100842856D01*
X137542857Y-100785713D01*
X137514286Y-100757142D01*
X143014286Y-92885715D02*
X143042857Y-92914286D01*
X143071429Y-93000000D01*
X143071429Y-93057143D01*
X143042857Y-93142858D01*
X142985714Y-93200000D01*
X142928571Y-93228572D01*
X142814286Y-93257143D01*
X142728571Y-93257143D01*
X142614286Y-93228572D01*
X142557143Y-93200000D01*
X142500000Y-93142858D01*
X142471429Y-93057143D01*
X142471429Y-93000000D01*
X142500000Y-92914286D01*
X142528571Y-92885715D01*
X143071429Y-92314286D02*
X143071429Y-92657143D01*
X143071429Y-92485715D02*
X142471429Y-92485715D01*
X142557143Y-92542858D01*
X142614286Y-92600000D01*
X142642857Y-92657143D01*
X143071429Y-92028571D02*
X143071429Y-91914286D01*
X143042857Y-91857143D01*
X143014286Y-91828571D01*
X142928571Y-91771429D01*
X142814286Y-91742857D01*
X142585714Y-91742857D01*
X142528571Y-91771429D01*
X142500000Y-91800000D01*
X142471429Y-91857143D01*
X142471429Y-91971429D01*
X142500000Y-92028571D01*
X142528571Y-92057143D01*
X142585714Y-92085714D01*
X142728571Y-92085714D01*
X142785714Y-92057143D01*
X142814286Y-92028571D01*
X142842857Y-91971429D01*
X142842857Y-91857143D01*
X142814286Y-91800000D01*
X142785714Y-91771429D01*
X142728571Y-91742857D01*
X143628571Y-94171429D02*
X143600000Y-94142858D01*
X143571429Y-94085715D01*
X143571429Y-93942858D01*
X143600000Y-93885715D01*
X143628571Y-93857144D01*
X143685714Y-93828572D01*
X143742857Y-93828572D01*
X143828571Y-93857144D01*
X144171429Y-94200001D01*
X144171429Y-93828572D01*
X143628571Y-93600000D02*
X143600000Y-93571429D01*
X143571429Y-93514286D01*
X143571429Y-93371429D01*
X143600000Y-93314286D01*
X143628571Y-93285715D01*
X143685714Y-93257143D01*
X143742857Y-93257143D01*
X143828571Y-93285715D01*
X144171429Y-93628572D01*
X144171429Y-93257143D01*
X143571429Y-92885714D02*
X143571429Y-92828571D01*
X143600000Y-92771428D01*
X143628571Y-92742857D01*
X143685714Y-92714286D01*
X143800000Y-92685714D01*
X143942857Y-92685714D01*
X144057143Y-92714286D01*
X144114286Y-92742857D01*
X144142857Y-92771428D01*
X144171429Y-92828571D01*
X144171429Y-92885714D01*
X144142857Y-92942857D01*
X144114286Y-92971428D01*
X144057143Y-93000000D01*
X143942857Y-93028571D01*
X143800000Y-93028571D01*
X143685714Y-93000000D01*
X143628571Y-92971428D01*
X143600000Y-92942857D01*
X143571429Y-92885714D01*
X143771429Y-92428571D02*
X144371429Y-92428571D01*
X143800000Y-92428571D02*
X143771429Y-92371428D01*
X143771429Y-92257142D01*
X143800000Y-92199999D01*
X143828571Y-92171428D01*
X143885714Y-92142857D01*
X144057143Y-92142857D01*
X144114286Y-92171428D01*
X144142857Y-92199999D01*
X144171429Y-92257142D01*
X144171429Y-92371428D01*
X144142857Y-92428571D01*
X143857143Y-91685714D02*
X143857143Y-91885714D01*
X144171429Y-91885714D02*
X143571429Y-91885714D01*
X143571429Y-91600000D01*
X105014286Y-94985715D02*
X105042857Y-95014286D01*
X105071429Y-95100000D01*
X105071429Y-95157143D01*
X105042857Y-95242858D01*
X104985714Y-95300000D01*
X104928571Y-95328572D01*
X104814286Y-95357143D01*
X104728571Y-95357143D01*
X104614286Y-95328572D01*
X104557143Y-95300000D01*
X104500000Y-95242858D01*
X104471429Y-95157143D01*
X104471429Y-95100000D01*
X104500000Y-95014286D01*
X104528571Y-94985715D01*
X104528571Y-94757143D02*
X104500000Y-94728572D01*
X104471429Y-94671429D01*
X104471429Y-94528572D01*
X104500000Y-94471429D01*
X104528571Y-94442858D01*
X104585714Y-94414286D01*
X104642857Y-94414286D01*
X104728571Y-94442858D01*
X105071429Y-94785715D01*
X105071429Y-94414286D01*
X104528571Y-94185714D02*
X104500000Y-94157143D01*
X104471429Y-94100000D01*
X104471429Y-93957143D01*
X104500000Y-93900000D01*
X104528571Y-93871429D01*
X104585714Y-93842857D01*
X104642857Y-93842857D01*
X104728571Y-93871429D01*
X105071429Y-94214286D01*
X105071429Y-93842857D01*
X108514286Y-96171429D02*
X108171429Y-96171429D01*
X108342857Y-96171429D02*
X108342857Y-95571429D01*
X108285714Y-95657143D01*
X108228572Y-95714286D01*
X108171429Y-95742857D01*
X108885715Y-95571429D02*
X108942858Y-95571429D01*
X109000001Y-95600000D01*
X109028572Y-95628571D01*
X109057143Y-95685714D01*
X109085715Y-95800000D01*
X109085715Y-95942857D01*
X109057143Y-96057143D01*
X109028572Y-96114286D01*
X109000001Y-96142857D01*
X108942858Y-96171429D01*
X108885715Y-96171429D01*
X108828572Y-96142857D01*
X108800001Y-96114286D01*
X108771429Y-96057143D01*
X108742858Y-95942857D01*
X108742858Y-95800000D01*
X108771429Y-95685714D01*
X108800001Y-95628571D01*
X108828572Y-95600000D01*
X108885715Y-95571429D01*
X109600001Y-95771429D02*
X109600001Y-96171429D01*
X109342858Y-95771429D02*
X109342858Y-96085714D01*
X109371430Y-96142857D01*
X109428572Y-96171429D01*
X109514287Y-96171429D01*
X109571430Y-96142857D01*
X109600001Y-96114286D01*
X151114286Y-103485715D02*
X151142857Y-103514286D01*
X151171429Y-103600000D01*
X151171429Y-103657143D01*
X151142857Y-103742858D01*
X151085714Y-103800000D01*
X151028571Y-103828572D01*
X150914286Y-103857143D01*
X150828571Y-103857143D01*
X150714286Y-103828572D01*
X150657143Y-103800000D01*
X150600000Y-103742858D01*
X150571429Y-103657143D01*
X150571429Y-103600000D01*
X150600000Y-103514286D01*
X150628571Y-103485715D01*
X150628571Y-103257143D02*
X150600000Y-103228572D01*
X150571429Y-103171429D01*
X150571429Y-103028572D01*
X150600000Y-102971429D01*
X150628571Y-102942858D01*
X150685714Y-102914286D01*
X150742857Y-102914286D01*
X150828571Y-102942858D01*
X151171429Y-103285715D01*
X151171429Y-102914286D01*
X150571429Y-102714286D02*
X150571429Y-102342857D01*
X150800000Y-102542857D01*
X150800000Y-102457143D01*
X150828571Y-102400000D01*
X150857143Y-102371429D01*
X150914286Y-102342857D01*
X151057143Y-102342857D01*
X151114286Y-102371429D01*
X151142857Y-102400000D01*
X151171429Y-102457143D01*
X151171429Y-102628571D01*
X151142857Y-102685714D01*
X151114286Y-102714286D01*
X154614286Y-103585715D02*
X154642857Y-103614286D01*
X154671429Y-103700000D01*
X154671429Y-103757143D01*
X154642857Y-103842858D01*
X154585714Y-103900000D01*
X154528571Y-103928572D01*
X154414286Y-103957143D01*
X154328571Y-103957143D01*
X154214286Y-103928572D01*
X154157143Y-103900000D01*
X154100000Y-103842858D01*
X154071429Y-103757143D01*
X154071429Y-103700000D01*
X154100000Y-103614286D01*
X154128571Y-103585715D01*
X154128571Y-103357143D02*
X154100000Y-103328572D01*
X154071429Y-103271429D01*
X154071429Y-103128572D01*
X154100000Y-103071429D01*
X154128571Y-103042858D01*
X154185714Y-103014286D01*
X154242857Y-103014286D01*
X154328571Y-103042858D01*
X154671429Y-103385715D01*
X154671429Y-103014286D01*
X154071429Y-102471429D02*
X154071429Y-102757143D01*
X154357143Y-102785714D01*
X154328571Y-102757143D01*
X154300000Y-102700000D01*
X154300000Y-102557143D01*
X154328571Y-102500000D01*
X154357143Y-102471429D01*
X154414286Y-102442857D01*
X154557143Y-102442857D01*
X154614286Y-102471429D01*
X154642857Y-102500000D01*
X154671429Y-102557143D01*
X154671429Y-102700000D01*
X154642857Y-102757143D01*
X154614286Y-102785714D01*
X127200000Y-95371429D02*
X126914286Y-95371429D01*
X126914286Y-94771429D01*
X127714286Y-95371429D02*
X127371429Y-95371429D01*
X127542857Y-95371429D02*
X127542857Y-94771429D01*
X127485714Y-94857143D01*
X127428572Y-94914286D01*
X127371429Y-94942857D01*
X126757143Y-93828571D02*
X126785714Y-93800000D01*
X126842857Y-93771429D01*
X126985714Y-93771429D01*
X127042857Y-93800000D01*
X127071428Y-93828571D01*
X127100000Y-93885714D01*
X127100000Y-93942857D01*
X127071428Y-94028571D01*
X126728571Y-94371429D01*
X127100000Y-94371429D01*
X127328572Y-93828571D02*
X127357143Y-93800000D01*
X127414286Y-93771429D01*
X127557143Y-93771429D01*
X127614286Y-93800000D01*
X127642857Y-93828571D01*
X127671429Y-93885714D01*
X127671429Y-93942857D01*
X127642857Y-94028571D01*
X127300000Y-94371429D01*
X127671429Y-94371429D01*
X128185715Y-93971429D02*
X128185715Y-94371429D01*
X127928572Y-93971429D02*
X127928572Y-94285714D01*
X127957144Y-94342857D01*
X128014286Y-94371429D01*
X128100001Y-94371429D01*
X128157144Y-94342857D01*
X128185715Y-94314286D01*
X128471429Y-94371429D02*
X128471429Y-93771429D01*
X128471429Y-94057143D02*
X128814286Y-94057143D01*
X128814286Y-94371429D02*
X128814286Y-93771429D01*
X152732000Y-99831429D02*
X152446286Y-99831429D01*
X152446286Y-99231429D01*
X153189143Y-99431429D02*
X153189143Y-99831429D01*
X153046286Y-99202857D02*
X152903429Y-99631429D01*
X153274857Y-99631429D01*
X94114285Y-95871429D02*
X93914285Y-95585714D01*
X93771428Y-95871429D02*
X93771428Y-95271429D01*
X94000000Y-95271429D01*
X94057142Y-95300000D01*
X94085714Y-95328571D01*
X94114285Y-95385714D01*
X94114285Y-95471429D01*
X94085714Y-95528571D01*
X94057142Y-95557143D01*
X94000000Y-95585714D01*
X93771428Y-95585714D01*
X94685714Y-95871429D02*
X94342857Y-95871429D01*
X94514285Y-95871429D02*
X94514285Y-95271429D01*
X94457142Y-95357143D01*
X94400000Y-95414286D01*
X94342857Y-95442857D01*
X94885714Y-95271429D02*
X95257143Y-95271429D01*
X95057143Y-95500000D01*
X95142857Y-95500000D01*
X95200000Y-95528571D01*
X95228571Y-95557143D01*
X95257143Y-95614286D01*
X95257143Y-95757143D01*
X95228571Y-95814286D01*
X95200000Y-95842857D01*
X95142857Y-95871429D01*
X94971429Y-95871429D01*
X94914286Y-95842857D01*
X94885714Y-95814286D01*
X94828572Y-96971429D02*
X94485715Y-96971429D01*
X94657143Y-96971429D02*
X94657143Y-96371429D01*
X94600000Y-96457143D01*
X94542858Y-96514286D01*
X94485715Y-96542857D01*
X95085715Y-96971429D02*
X95085715Y-96371429D01*
X95142858Y-96742857D02*
X95314287Y-96971429D01*
X95314287Y-96571429D02*
X95085715Y-96800000D01*
X129514286Y-103885715D02*
X129542857Y-103914286D01*
X129571429Y-104000000D01*
X129571429Y-104057143D01*
X129542857Y-104142858D01*
X129485714Y-104200000D01*
X129428571Y-104228572D01*
X129314286Y-104257143D01*
X129228571Y-104257143D01*
X129114286Y-104228572D01*
X129057143Y-104200000D01*
X129000000Y-104142858D01*
X128971429Y-104057143D01*
X128971429Y-104000000D01*
X129000000Y-103914286D01*
X129028571Y-103885715D01*
X129028571Y-103657143D02*
X129000000Y-103628572D01*
X128971429Y-103571429D01*
X128971429Y-103428572D01*
X129000000Y-103371429D01*
X129028571Y-103342858D01*
X129085714Y-103314286D01*
X129142857Y-103314286D01*
X129228571Y-103342858D01*
X129571429Y-103685715D01*
X129571429Y-103314286D01*
X128971429Y-102942857D02*
X128971429Y-102885714D01*
X129000000Y-102828571D01*
X129028571Y-102800000D01*
X129085714Y-102771429D01*
X129200000Y-102742857D01*
X129342857Y-102742857D01*
X129457143Y-102771429D01*
X129514286Y-102800000D01*
X129542857Y-102828571D01*
X129571429Y-102885714D01*
X129571429Y-102942857D01*
X129542857Y-103000000D01*
X129514286Y-103028571D01*
X129457143Y-103057143D01*
X129342857Y-103085714D01*
X129200000Y-103085714D01*
X129085714Y-103057143D01*
X129028571Y-103028571D01*
X129000000Y-103000000D01*
X128971429Y-102942857D01*
X129871429Y-104328571D02*
X129871429Y-104271428D01*
X129900000Y-104214285D01*
X129928571Y-104185714D01*
X129985714Y-104157143D01*
X130100000Y-104128571D01*
X130242857Y-104128571D01*
X130357143Y-104157143D01*
X130414286Y-104185714D01*
X130442857Y-104214285D01*
X130471429Y-104271428D01*
X130471429Y-104328571D01*
X130442857Y-104385714D01*
X130414286Y-104414285D01*
X130357143Y-104442857D01*
X130242857Y-104471428D01*
X130100000Y-104471428D01*
X129985714Y-104442857D01*
X129928571Y-104414285D01*
X129900000Y-104385714D01*
X129871429Y-104328571D01*
X130414286Y-103871428D02*
X130442857Y-103842856D01*
X130471429Y-103871428D01*
X130442857Y-103899999D01*
X130414286Y-103871428D01*
X130471429Y-103871428D01*
X130471429Y-103271428D02*
X130471429Y-103614285D01*
X130471429Y-103442857D02*
X129871429Y-103442857D01*
X129957143Y-103500000D01*
X130014286Y-103557142D01*
X130042857Y-103614285D01*
X130071429Y-102757142D02*
X130471429Y-102757142D01*
X130071429Y-103014285D02*
X130385714Y-103014285D01*
X130442857Y-102985713D01*
X130471429Y-102928571D01*
X130471429Y-102842856D01*
X130442857Y-102785713D01*
X130414286Y-102757142D01*
X125000000Y-112714286D02*
X124971429Y-112742857D01*
X124885715Y-112771429D01*
X124828572Y-112771429D01*
X124742857Y-112742857D01*
X124685715Y-112685714D01*
X124657143Y-112628571D01*
X124628572Y-112514286D01*
X124628572Y-112428571D01*
X124657143Y-112314286D01*
X124685715Y-112257143D01*
X124742857Y-112200000D01*
X124828572Y-112171429D01*
X124885715Y-112171429D01*
X124971429Y-112200000D01*
X125000000Y-112228571D01*
X125571429Y-112771429D02*
X125228572Y-112771429D01*
X125400000Y-112771429D02*
X125400000Y-112171429D01*
X125342857Y-112257143D01*
X125285715Y-112314286D01*
X125228572Y-112342857D01*
X123671429Y-116685714D02*
X124071429Y-116685714D01*
X123442857Y-116828571D02*
X123871429Y-116971428D01*
X123871429Y-116600000D01*
X124014286Y-116371428D02*
X124042857Y-116342856D01*
X124071429Y-116371428D01*
X124042857Y-116399999D01*
X124014286Y-116371428D01*
X124071429Y-116371428D01*
X123471429Y-116142857D02*
X123471429Y-115742857D01*
X124071429Y-116000000D01*
X123671429Y-115257142D02*
X124071429Y-115257142D01*
X123671429Y-115514285D02*
X123985714Y-115514285D01*
X124042857Y-115485713D01*
X124071429Y-115428571D01*
X124071429Y-115342856D01*
X124042857Y-115285713D01*
X124014286Y-115257142D01*
X102800000Y-117114286D02*
X102771429Y-117142857D01*
X102685715Y-117171429D01*
X102628572Y-117171429D01*
X102542857Y-117142857D01*
X102485715Y-117085714D01*
X102457143Y-117028571D01*
X102428572Y-116914286D01*
X102428572Y-116828571D01*
X102457143Y-116714286D01*
X102485715Y-116657143D01*
X102542857Y-116600000D01*
X102628572Y-116571429D01*
X102685715Y-116571429D01*
X102771429Y-116600000D01*
X102800000Y-116628571D01*
X103085715Y-117171429D02*
X103200000Y-117171429D01*
X103257143Y-117142857D01*
X103285715Y-117114286D01*
X103342857Y-117028571D01*
X103371429Y-116914286D01*
X103371429Y-116685714D01*
X103342857Y-116628571D01*
X103314286Y-116600000D01*
X103257143Y-116571429D01*
X103142857Y-116571429D01*
X103085715Y-116600000D01*
X103057143Y-116628571D01*
X103028572Y-116685714D01*
X103028572Y-116828571D01*
X103057143Y-116885714D01*
X103085715Y-116914286D01*
X103142857Y-116942857D01*
X103257143Y-116942857D01*
X103314286Y-116914286D01*
X103342857Y-116885714D01*
X103371429Y-116828571D01*
X102571429Y-117771429D02*
X102628572Y-117771429D01*
X102685715Y-117800000D01*
X102714286Y-117828571D01*
X102742857Y-117885714D01*
X102771429Y-118000000D01*
X102771429Y-118142857D01*
X102742857Y-118257143D01*
X102714286Y-118314286D01*
X102685715Y-118342857D01*
X102628572Y-118371429D01*
X102571429Y-118371429D01*
X102514286Y-118342857D01*
X102485715Y-118314286D01*
X102457143Y-118257143D01*
X102428572Y-118142857D01*
X102428572Y-118000000D01*
X102457143Y-117885714D01*
X102485715Y-117828571D01*
X102514286Y-117800000D01*
X102571429Y-117771429D01*
X103028572Y-118314286D02*
X103057144Y-118342857D01*
X103028572Y-118371429D01*
X103000001Y-118342857D01*
X103028572Y-118314286D01*
X103028572Y-118371429D01*
X103628572Y-118371429D02*
X103285715Y-118371429D01*
X103457143Y-118371429D02*
X103457143Y-117771429D01*
X103400000Y-117857143D01*
X103342858Y-117914286D01*
X103285715Y-117942857D01*
X104142858Y-117971429D02*
X104142858Y-118371429D01*
X103885715Y-117971429D02*
X103885715Y-118285714D01*
X103914287Y-118342857D01*
X103971429Y-118371429D01*
X104057144Y-118371429D01*
X104114287Y-118342857D01*
X104142858Y-118314286D01*
X144314285Y-116214286D02*
X144285714Y-116242857D01*
X144200000Y-116271429D01*
X144142857Y-116271429D01*
X144057142Y-116242857D01*
X144000000Y-116185714D01*
X143971428Y-116128571D01*
X143942857Y-116014286D01*
X143942857Y-115928571D01*
X143971428Y-115814286D01*
X144000000Y-115757143D01*
X144057142Y-115700000D01*
X144142857Y-115671429D01*
X144200000Y-115671429D01*
X144285714Y-115700000D01*
X144314285Y-115728571D01*
X144542857Y-115728571D02*
X144571428Y-115700000D01*
X144628571Y-115671429D01*
X144771428Y-115671429D01*
X144828571Y-115700000D01*
X144857142Y-115728571D01*
X144885714Y-115785714D01*
X144885714Y-115842857D01*
X144857142Y-115928571D01*
X144514285Y-116271429D01*
X144885714Y-116271429D01*
X145400000Y-115871429D02*
X145400000Y-116271429D01*
X145257143Y-115642857D02*
X145114286Y-116071429D01*
X145485714Y-116071429D01*
X141314286Y-114128571D02*
X141342857Y-114100000D01*
X141400000Y-114071429D01*
X141542857Y-114071429D01*
X141600000Y-114100000D01*
X141628571Y-114128571D01*
X141657143Y-114185714D01*
X141657143Y-114242857D01*
X141628571Y-114328571D01*
X141285714Y-114671429D01*
X141657143Y-114671429D01*
X142028572Y-114071429D02*
X142085715Y-114071429D01*
X142142858Y-114100000D01*
X142171429Y-114128571D01*
X142200000Y-114185714D01*
X142228572Y-114300000D01*
X142228572Y-114442857D01*
X142200000Y-114557143D01*
X142171429Y-114614286D01*
X142142858Y-114642857D01*
X142085715Y-114671429D01*
X142028572Y-114671429D01*
X141971429Y-114642857D01*
X141942858Y-114614286D01*
X141914286Y-114557143D01*
X141885715Y-114442857D01*
X141885715Y-114300000D01*
X141914286Y-114185714D01*
X141942858Y-114128571D01*
X141971429Y-114100000D01*
X142028572Y-114071429D01*
X142485715Y-114271429D02*
X142485715Y-114871429D01*
X142485715Y-114300000D02*
X142542858Y-114271429D01*
X142657144Y-114271429D01*
X142714287Y-114300000D01*
X142742858Y-114328571D01*
X142771429Y-114385714D01*
X142771429Y-114557143D01*
X142742858Y-114614286D01*
X142714287Y-114642857D01*
X142657144Y-114671429D01*
X142542858Y-114671429D01*
X142485715Y-114642857D01*
X143228572Y-114357143D02*
X143028572Y-114357143D01*
X143028572Y-114671429D02*
X143028572Y-114071429D01*
X143314286Y-114071429D01*
X143614285Y-123814286D02*
X143585714Y-123842857D01*
X143500000Y-123871429D01*
X143442857Y-123871429D01*
X143357142Y-123842857D01*
X143300000Y-123785714D01*
X143271428Y-123728571D01*
X143242857Y-123614286D01*
X143242857Y-123528571D01*
X143271428Y-123414286D01*
X143300000Y-123357143D01*
X143357142Y-123300000D01*
X143442857Y-123271429D01*
X143500000Y-123271429D01*
X143585714Y-123300000D01*
X143614285Y-123328571D01*
X143842857Y-123328571D02*
X143871428Y-123300000D01*
X143928571Y-123271429D01*
X144071428Y-123271429D01*
X144128571Y-123300000D01*
X144157142Y-123328571D01*
X144185714Y-123385714D01*
X144185714Y-123442857D01*
X144157142Y-123528571D01*
X143814285Y-123871429D01*
X144185714Y-123871429D01*
X144385714Y-123271429D02*
X144785714Y-123271429D01*
X144528571Y-123871429D01*
X143214286Y-124228571D02*
X143242857Y-124200000D01*
X143300000Y-124171429D01*
X143442857Y-124171429D01*
X143500000Y-124200000D01*
X143528571Y-124228571D01*
X143557143Y-124285714D01*
X143557143Y-124342857D01*
X143528571Y-124428571D01*
X143185714Y-124771429D01*
X143557143Y-124771429D01*
X143928572Y-124171429D02*
X143985715Y-124171429D01*
X144042858Y-124200000D01*
X144071429Y-124228571D01*
X144100000Y-124285714D01*
X144128572Y-124400000D01*
X144128572Y-124542857D01*
X144100000Y-124657143D01*
X144071429Y-124714286D01*
X144042858Y-124742857D01*
X143985715Y-124771429D01*
X143928572Y-124771429D01*
X143871429Y-124742857D01*
X143842858Y-124714286D01*
X143814286Y-124657143D01*
X143785715Y-124542857D01*
X143785715Y-124400000D01*
X143814286Y-124285714D01*
X143842858Y-124228571D01*
X143871429Y-124200000D01*
X143928572Y-124171429D01*
X144385715Y-124371429D02*
X144385715Y-124971429D01*
X144385715Y-124400000D02*
X144442858Y-124371429D01*
X144557144Y-124371429D01*
X144614287Y-124400000D01*
X144642858Y-124428571D01*
X144671429Y-124485714D01*
X144671429Y-124657143D01*
X144642858Y-124714286D01*
X144614287Y-124742857D01*
X144557144Y-124771429D01*
X144442858Y-124771429D01*
X144385715Y-124742857D01*
X145128572Y-124457143D02*
X144928572Y-124457143D01*
X144928572Y-124771429D02*
X144928572Y-124171429D01*
X145214286Y-124171429D01*
X99014285Y-123414286D02*
X98985714Y-123442857D01*
X98900000Y-123471429D01*
X98842857Y-123471429D01*
X98757142Y-123442857D01*
X98700000Y-123385714D01*
X98671428Y-123328571D01*
X98642857Y-123214286D01*
X98642857Y-123128571D01*
X98671428Y-123014286D01*
X98700000Y-122957143D01*
X98757142Y-122900000D01*
X98842857Y-122871429D01*
X98900000Y-122871429D01*
X98985714Y-122900000D01*
X99014285Y-122928571D01*
X99242857Y-122928571D02*
X99271428Y-122900000D01*
X99328571Y-122871429D01*
X99471428Y-122871429D01*
X99528571Y-122900000D01*
X99557142Y-122928571D01*
X99585714Y-122985714D01*
X99585714Y-123042857D01*
X99557142Y-123128571D01*
X99214285Y-123471429D01*
X99585714Y-123471429D01*
X99928571Y-123128571D02*
X99871429Y-123100000D01*
X99842857Y-123071429D01*
X99814286Y-123014286D01*
X99814286Y-122985714D01*
X99842857Y-122928571D01*
X99871429Y-122900000D01*
X99928571Y-122871429D01*
X100042857Y-122871429D01*
X100100000Y-122900000D01*
X100128571Y-122928571D01*
X100157143Y-122985714D01*
X100157143Y-123014286D01*
X100128571Y-123071429D01*
X100100000Y-123100000D01*
X100042857Y-123128571D01*
X99928571Y-123128571D01*
X99871429Y-123157143D01*
X99842857Y-123185714D01*
X99814286Y-123242857D01*
X99814286Y-123357143D01*
X99842857Y-123414286D01*
X99871429Y-123442857D01*
X99928571Y-123471429D01*
X100042857Y-123471429D01*
X100100000Y-123442857D01*
X100128571Y-123414286D01*
X100157143Y-123357143D01*
X100157143Y-123242857D01*
X100128571Y-123185714D01*
X100100000Y-123157143D01*
X100042857Y-123128571D01*
X98785714Y-123871429D02*
X98842857Y-123871429D01*
X98900000Y-123900000D01*
X98928571Y-123928571D01*
X98957142Y-123985714D01*
X98985714Y-124100000D01*
X98985714Y-124242857D01*
X98957142Y-124357143D01*
X98928571Y-124414286D01*
X98900000Y-124442857D01*
X98842857Y-124471429D01*
X98785714Y-124471429D01*
X98728571Y-124442857D01*
X98700000Y-124414286D01*
X98671428Y-124357143D01*
X98642857Y-124242857D01*
X98642857Y-124100000D01*
X98671428Y-123985714D01*
X98700000Y-123928571D01*
X98728571Y-123900000D01*
X98785714Y-123871429D01*
X99242857Y-124414286D02*
X99271429Y-124442857D01*
X99242857Y-124471429D01*
X99214286Y-124442857D01*
X99242857Y-124414286D01*
X99242857Y-124471429D01*
X99500000Y-123928571D02*
X99528571Y-123900000D01*
X99585714Y-123871429D01*
X99728571Y-123871429D01*
X99785714Y-123900000D01*
X99814285Y-123928571D01*
X99842857Y-123985714D01*
X99842857Y-124042857D01*
X99814285Y-124128571D01*
X99471428Y-124471429D01*
X99842857Y-124471429D01*
X100071429Y-123928571D02*
X100100000Y-123900000D01*
X100157143Y-123871429D01*
X100300000Y-123871429D01*
X100357143Y-123900000D01*
X100385714Y-123928571D01*
X100414286Y-123985714D01*
X100414286Y-124042857D01*
X100385714Y-124128571D01*
X100042857Y-124471429D01*
X100414286Y-124471429D01*
X100928572Y-124071429D02*
X100928572Y-124471429D01*
X100671429Y-124071429D02*
X100671429Y-124385714D01*
X100700001Y-124442857D01*
X100757143Y-124471429D01*
X100842858Y-124471429D01*
X100900001Y-124442857D01*
X100928572Y-124414286D01*
X92414285Y-122514286D02*
X92385714Y-122542857D01*
X92300000Y-122571429D01*
X92242857Y-122571429D01*
X92157142Y-122542857D01*
X92100000Y-122485714D01*
X92071428Y-122428571D01*
X92042857Y-122314286D01*
X92042857Y-122228571D01*
X92071428Y-122114286D01*
X92100000Y-122057143D01*
X92157142Y-122000000D01*
X92242857Y-121971429D01*
X92300000Y-121971429D01*
X92385714Y-122000000D01*
X92414285Y-122028571D01*
X92642857Y-122028571D02*
X92671428Y-122000000D01*
X92728571Y-121971429D01*
X92871428Y-121971429D01*
X92928571Y-122000000D01*
X92957142Y-122028571D01*
X92985714Y-122085714D01*
X92985714Y-122142857D01*
X92957142Y-122228571D01*
X92614285Y-122571429D01*
X92985714Y-122571429D01*
X93271429Y-122571429D02*
X93385714Y-122571429D01*
X93442857Y-122542857D01*
X93471429Y-122514286D01*
X93528571Y-122428571D01*
X93557143Y-122314286D01*
X93557143Y-122085714D01*
X93528571Y-122028571D01*
X93500000Y-122000000D01*
X93442857Y-121971429D01*
X93328571Y-121971429D01*
X93271429Y-122000000D01*
X93242857Y-122028571D01*
X93214286Y-122085714D01*
X93214286Y-122228571D01*
X93242857Y-122285714D01*
X93271429Y-122314286D01*
X93328571Y-122342857D01*
X93442857Y-122342857D01*
X93500000Y-122314286D01*
X93528571Y-122285714D01*
X93557143Y-122228571D01*
X93314286Y-124771429D02*
X93314286Y-125171429D01*
X93171429Y-124542857D02*
X93028572Y-124971429D01*
X93400000Y-124971429D01*
X93628572Y-125114286D02*
X93657144Y-125142857D01*
X93628572Y-125171429D01*
X93600001Y-125142857D01*
X93628572Y-125114286D01*
X93628572Y-125171429D01*
X93857143Y-124571429D02*
X94257143Y-124571429D01*
X94000000Y-125171429D01*
X94742858Y-124771429D02*
X94742858Y-125171429D01*
X94485715Y-124771429D02*
X94485715Y-125085714D01*
X94514287Y-125142857D01*
X94571429Y-125171429D01*
X94657144Y-125171429D01*
X94714287Y-125142857D01*
X94742858Y-125114286D01*
X92657143Y-117171429D02*
X92657143Y-116571429D01*
X92800000Y-116571429D01*
X92885715Y-116600000D01*
X92942857Y-116657143D01*
X92971429Y-116714286D01*
X93000000Y-116828571D01*
X93000000Y-116914286D01*
X92971429Y-117028571D01*
X92942857Y-117085714D01*
X92885715Y-117142857D01*
X92800000Y-117171429D01*
X92657143Y-117171429D01*
X93257143Y-117171429D02*
X93257143Y-116571429D01*
X93400000Y-116571429D01*
X93485715Y-116600000D01*
X93542857Y-116657143D01*
X93571429Y-116714286D01*
X93600000Y-116828571D01*
X93600000Y-116914286D01*
X93571429Y-117028571D01*
X93542857Y-117085714D01*
X93485715Y-117142857D01*
X93400000Y-117171429D01*
X93257143Y-117171429D01*
X93800000Y-116571429D02*
X94171429Y-116571429D01*
X93971429Y-116800000D01*
X94057143Y-116800000D01*
X94114286Y-116828571D01*
X94142857Y-116857143D01*
X94171429Y-116914286D01*
X94171429Y-117057143D01*
X94142857Y-117114286D01*
X94114286Y-117142857D01*
X94057143Y-117171429D01*
X93885715Y-117171429D01*
X93828572Y-117142857D01*
X93800000Y-117114286D01*
X92271429Y-121100001D02*
X92271429Y-121385715D01*
X91671429Y-121385715D01*
X92242857Y-120928572D02*
X92271429Y-120842858D01*
X92271429Y-120700001D01*
X92242857Y-120642858D01*
X92214286Y-120614287D01*
X92157143Y-120585715D01*
X92100000Y-120585715D01*
X92042857Y-120614287D01*
X92014286Y-120642858D01*
X91985714Y-120700001D01*
X91957143Y-120814287D01*
X91928571Y-120871429D01*
X91900000Y-120900001D01*
X91842857Y-120928572D01*
X91785714Y-120928572D01*
X91728571Y-120900001D01*
X91700000Y-120871429D01*
X91671429Y-120814287D01*
X91671429Y-120671429D01*
X91700000Y-120585715D01*
X92271429Y-120328572D02*
X91671429Y-120328572D01*
X92100000Y-120128572D01*
X91671429Y-119928572D01*
X92271429Y-119928572D01*
X92271429Y-119614286D02*
X92271429Y-119500001D01*
X92242857Y-119442858D01*
X92214286Y-119414286D01*
X92128571Y-119357144D01*
X92014286Y-119328572D01*
X91785714Y-119328572D01*
X91728571Y-119357144D01*
X91700000Y-119385715D01*
X91671429Y-119442858D01*
X91671429Y-119557144D01*
X91700000Y-119614286D01*
X91728571Y-119642858D01*
X91785714Y-119671429D01*
X91928571Y-119671429D01*
X91985714Y-119642858D01*
X92014286Y-119614286D01*
X92042857Y-119557144D01*
X92042857Y-119442858D01*
X92014286Y-119385715D01*
X91985714Y-119357144D01*
X91928571Y-119328572D01*
X92271429Y-119071429D02*
X91671429Y-119071429D01*
X91671429Y-118928572D01*
X91700000Y-118842857D01*
X91757143Y-118785715D01*
X91814286Y-118757143D01*
X91928571Y-118728572D01*
X92014286Y-118728572D01*
X92128571Y-118757143D01*
X92185714Y-118785715D01*
X92242857Y-118842857D01*
X92271429Y-118928572D01*
X92271429Y-119071429D01*
X92242857Y-118500000D02*
X92271429Y-118414286D01*
X92271429Y-118271429D01*
X92242857Y-118214286D01*
X92214286Y-118185715D01*
X92157143Y-118157143D01*
X92100000Y-118157143D01*
X92042857Y-118185715D01*
X92014286Y-118214286D01*
X91985714Y-118271429D01*
X91957143Y-118385715D01*
X91928571Y-118442857D01*
X91900000Y-118471429D01*
X91842857Y-118500000D01*
X91785714Y-118500000D01*
X91728571Y-118471429D01*
X91700000Y-118442857D01*
X91671429Y-118385715D01*
X91671429Y-118242857D01*
X91700000Y-118157143D01*
X91671429Y-117785714D02*
X91671429Y-117728571D01*
X91700000Y-117671428D01*
X91728571Y-117642857D01*
X91785714Y-117614286D01*
X91900000Y-117585714D01*
X92042857Y-117585714D01*
X92157143Y-117614286D01*
X92214286Y-117642857D01*
X92242857Y-117671428D01*
X92271429Y-117728571D01*
X92271429Y-117785714D01*
X92242857Y-117842857D01*
X92214286Y-117871428D01*
X92157143Y-117900000D01*
X92042857Y-117928571D01*
X91900000Y-117928571D01*
X91785714Y-117900000D01*
X91728571Y-117871428D01*
X91700000Y-117842857D01*
X91671429Y-117785714D01*
X93047529Y-118768529D02*
X92704672Y-118768529D01*
X92876100Y-118768529D02*
X92876100Y-118168529D01*
X92818957Y-118254243D01*
X92761815Y-118311386D01*
X92704672Y-118339957D01*
X123000000Y-112771429D02*
X122714286Y-112771429D01*
X122714286Y-112171429D01*
X123171429Y-112228571D02*
X123200000Y-112200000D01*
X123257143Y-112171429D01*
X123400000Y-112171429D01*
X123457143Y-112200000D01*
X123485714Y-112228571D01*
X123514286Y-112285714D01*
X123514286Y-112342857D01*
X123485714Y-112428571D01*
X123142857Y-112771429D01*
X123514286Y-112771429D01*
X114585713Y-113557143D02*
X114671427Y-113585714D01*
X114699999Y-113614286D01*
X114728570Y-113671429D01*
X114728570Y-113757143D01*
X114699999Y-113814286D01*
X114671427Y-113842857D01*
X114614285Y-113871429D01*
X114385713Y-113871429D01*
X114385713Y-113271429D01*
X114585713Y-113271429D01*
X114642856Y-113300000D01*
X114671427Y-113328571D01*
X114699999Y-113385714D01*
X114699999Y-113442857D01*
X114671427Y-113500000D01*
X114642856Y-113528571D01*
X114585713Y-113557143D01*
X114385713Y-113557143D01*
X115271427Y-113871429D02*
X114985713Y-113871429D01*
X114985713Y-113271429D01*
X115471427Y-113871429D02*
X115471427Y-113271429D01*
X115671427Y-113700000D01*
X115871427Y-113271429D01*
X115871427Y-113871429D01*
X116471427Y-113871429D02*
X116128570Y-113871429D01*
X116299998Y-113871429D02*
X116299998Y-113271429D01*
X116242855Y-113357143D01*
X116185713Y-113414286D01*
X116128570Y-113442857D01*
X117014284Y-113271429D02*
X116728570Y-113271429D01*
X116699999Y-113557143D01*
X116728570Y-113528571D01*
X116785713Y-113500000D01*
X116928570Y-113500000D01*
X116985713Y-113528571D01*
X117014284Y-113557143D01*
X117042856Y-113614286D01*
X117042856Y-113757143D01*
X117014284Y-113814286D01*
X116985713Y-113842857D01*
X116928570Y-113871429D01*
X116785713Y-113871429D01*
X116728570Y-113842857D01*
X116699999Y-113814286D01*
X117271428Y-113700000D02*
X117557142Y-113700000D01*
X117214285Y-113871429D02*
X117414285Y-113271429D01*
X117614285Y-113871429D01*
X118128571Y-113300000D02*
X118071428Y-113271429D01*
X117985714Y-113271429D01*
X117899999Y-113300000D01*
X117842857Y-113357143D01*
X117814285Y-113414286D01*
X117785714Y-113528571D01*
X117785714Y-113614286D01*
X117814285Y-113728571D01*
X117842857Y-113785714D01*
X117899999Y-113842857D01*
X117985714Y-113871429D01*
X118042857Y-113871429D01*
X118128571Y-113842857D01*
X118157142Y-113814286D01*
X118157142Y-113614286D01*
X118042857Y-113614286D01*
X118728571Y-113871429D02*
X118385714Y-113871429D01*
X118557142Y-113871429D02*
X118557142Y-113271429D01*
X118499999Y-113357143D01*
X118442857Y-113414286D01*
X118385714Y-113442857D01*
X119100000Y-113271429D02*
X119157143Y-113271429D01*
X119214286Y-113300000D01*
X119242857Y-113328571D01*
X119271428Y-113385714D01*
X119300000Y-113500000D01*
X119300000Y-113642857D01*
X119271428Y-113757143D01*
X119242857Y-113814286D01*
X119214286Y-113842857D01*
X119157143Y-113871429D01*
X119100000Y-113871429D01*
X119042857Y-113842857D01*
X119014286Y-113814286D01*
X118985714Y-113757143D01*
X118957143Y-113642857D01*
X118957143Y-113500000D01*
X118985714Y-113385714D01*
X119014286Y-113328571D01*
X119042857Y-113300000D01*
X119100000Y-113271429D01*
X119528572Y-113328571D02*
X119557143Y-113300000D01*
X119614286Y-113271429D01*
X119757143Y-113271429D01*
X119814286Y-113300000D01*
X119842857Y-113328571D01*
X119871429Y-113385714D01*
X119871429Y-113442857D01*
X119842857Y-113528571D01*
X119500000Y-113871429D01*
X119871429Y-113871429D01*
X120100001Y-113842857D02*
X120185715Y-113871429D01*
X120328572Y-113871429D01*
X120385715Y-113842857D01*
X120414286Y-113814286D01*
X120442858Y-113757143D01*
X120442858Y-113700000D01*
X120414286Y-113642857D01*
X120385715Y-113614286D01*
X120328572Y-113585714D01*
X120214286Y-113557143D01*
X120157144Y-113528571D01*
X120128572Y-113500000D01*
X120100001Y-113442857D01*
X120100001Y-113385714D01*
X120128572Y-113328571D01*
X120157144Y-113300000D01*
X120214286Y-113271429D01*
X120357144Y-113271429D01*
X120442858Y-113300000D01*
X120700001Y-113871429D02*
X120700001Y-113271429D01*
X121042858Y-113871429D01*
X121042858Y-113271429D01*
X121642858Y-113871429D02*
X121300001Y-113871429D01*
X121471429Y-113871429D02*
X121471429Y-113271429D01*
X121414286Y-113357143D01*
X121357144Y-113414286D01*
X121300001Y-113442857D01*
X140400000Y-97371429D02*
X140114286Y-97371429D01*
X140114286Y-96771429D01*
X140542857Y-96771429D02*
X140914286Y-96771429D01*
X140714286Y-97000000D01*
X140800000Y-97000000D01*
X140857143Y-97028571D01*
X140885714Y-97057143D01*
X140914286Y-97114286D01*
X140914286Y-97257143D01*
X140885714Y-97314286D01*
X140857143Y-97342857D01*
X140800000Y-97371429D01*
X140628572Y-97371429D01*
X140571429Y-97342857D01*
X140542857Y-97314286D01*
X138857143Y-98114287D02*
X138885714Y-98028573D01*
X138914286Y-98000001D01*
X138971429Y-97971430D01*
X139057143Y-97971430D01*
X139114286Y-98000001D01*
X139142857Y-98028573D01*
X139171429Y-98085715D01*
X139171429Y-98314287D01*
X138571429Y-98314287D01*
X138571429Y-98114287D01*
X138600000Y-98057144D01*
X138628571Y-98028573D01*
X138685714Y-98000001D01*
X138742857Y-98000001D01*
X138800000Y-98028573D01*
X138828571Y-98057144D01*
X138857143Y-98114287D01*
X138857143Y-98314287D01*
X139171429Y-97428573D02*
X139171429Y-97714287D01*
X138571429Y-97714287D01*
X139171429Y-97228573D02*
X138571429Y-97228573D01*
X139000000Y-97028573D01*
X138571429Y-96828573D01*
X139171429Y-96828573D01*
X139171429Y-96228573D02*
X139171429Y-96571430D01*
X139171429Y-96400002D02*
X138571429Y-96400002D01*
X138657143Y-96457145D01*
X138714286Y-96514287D01*
X138742857Y-96571430D01*
X138571429Y-95685716D02*
X138571429Y-95971430D01*
X138857143Y-96000001D01*
X138828571Y-95971430D01*
X138800000Y-95914287D01*
X138800000Y-95771430D01*
X138828571Y-95714287D01*
X138857143Y-95685716D01*
X138914286Y-95657144D01*
X139057143Y-95657144D01*
X139114286Y-95685716D01*
X139142857Y-95714287D01*
X139171429Y-95771430D01*
X139171429Y-95914287D01*
X139142857Y-95971430D01*
X139114286Y-96000001D01*
X139000000Y-95428572D02*
X139000000Y-95142858D01*
X139171429Y-95485715D02*
X138571429Y-95285715D01*
X139171429Y-95085715D01*
X138600000Y-94571429D02*
X138571429Y-94628572D01*
X138571429Y-94714286D01*
X138600000Y-94800001D01*
X138657143Y-94857143D01*
X138714286Y-94885715D01*
X138828571Y-94914286D01*
X138914286Y-94914286D01*
X139028571Y-94885715D01*
X139085714Y-94857143D01*
X139142857Y-94800001D01*
X139171429Y-94714286D01*
X139171429Y-94657143D01*
X139142857Y-94571429D01*
X139114286Y-94542858D01*
X138914286Y-94542858D01*
X138914286Y-94657143D01*
X139171429Y-93971429D02*
X139171429Y-94314286D01*
X139171429Y-94142858D02*
X138571429Y-94142858D01*
X138657143Y-94200001D01*
X138714286Y-94257143D01*
X138742857Y-94314286D01*
X138571429Y-93600000D02*
X138571429Y-93542857D01*
X138600000Y-93485714D01*
X138628571Y-93457143D01*
X138685714Y-93428572D01*
X138800000Y-93400000D01*
X138942857Y-93400000D01*
X139057143Y-93428572D01*
X139114286Y-93457143D01*
X139142857Y-93485714D01*
X139171429Y-93542857D01*
X139171429Y-93600000D01*
X139142857Y-93657143D01*
X139114286Y-93685714D01*
X139057143Y-93714286D01*
X138942857Y-93742857D01*
X138800000Y-93742857D01*
X138685714Y-93714286D01*
X138628571Y-93685714D01*
X138600000Y-93657143D01*
X138571429Y-93600000D01*
X138628571Y-93171428D02*
X138600000Y-93142857D01*
X138571429Y-93085714D01*
X138571429Y-92942857D01*
X138600000Y-92885714D01*
X138628571Y-92857143D01*
X138685714Y-92828571D01*
X138742857Y-92828571D01*
X138828571Y-92857143D01*
X139171429Y-93200000D01*
X139171429Y-92828571D01*
X139142857Y-92599999D02*
X139171429Y-92514285D01*
X139171429Y-92371428D01*
X139142857Y-92314285D01*
X139114286Y-92285714D01*
X139057143Y-92257142D01*
X139000000Y-92257142D01*
X138942857Y-92285714D01*
X138914286Y-92314285D01*
X138885714Y-92371428D01*
X138857143Y-92485714D01*
X138828571Y-92542856D01*
X138800000Y-92571428D01*
X138742857Y-92599999D01*
X138685714Y-92599999D01*
X138628571Y-92571428D01*
X138600000Y-92542856D01*
X138571429Y-92485714D01*
X138571429Y-92342856D01*
X138600000Y-92257142D01*
X139171429Y-91999999D02*
X138571429Y-91999999D01*
X139171429Y-91657142D01*
X138571429Y-91657142D01*
X139171429Y-91057142D02*
X139171429Y-91399999D01*
X139171429Y-91228571D02*
X138571429Y-91228571D01*
X138657143Y-91285714D01*
X138714286Y-91342856D01*
X138742857Y-91399999D01*
X93942857Y-103428571D02*
X93885714Y-103400000D01*
X93828571Y-103342857D01*
X93742857Y-103257143D01*
X93685714Y-103228571D01*
X93628571Y-103228571D01*
X93657143Y-103371429D02*
X93600000Y-103342857D01*
X93542857Y-103285714D01*
X93514286Y-103171429D01*
X93514286Y-102971429D01*
X93542857Y-102857143D01*
X93600000Y-102800000D01*
X93657143Y-102771429D01*
X93771429Y-102771429D01*
X93828571Y-102800000D01*
X93885714Y-102857143D01*
X93914286Y-102971429D01*
X93914286Y-103171429D01*
X93885714Y-103285714D01*
X93828571Y-103342857D01*
X93771429Y-103371429D01*
X93657143Y-103371429D01*
X94457142Y-102771429D02*
X94171428Y-102771429D01*
X94142857Y-103057143D01*
X94171428Y-103028571D01*
X94228571Y-103000000D01*
X94371428Y-103000000D01*
X94428571Y-103028571D01*
X94457142Y-103057143D01*
X94485714Y-103114286D01*
X94485714Y-103257143D01*
X94457142Y-103314286D01*
X94428571Y-103342857D01*
X94371428Y-103371429D01*
X94228571Y-103371429D01*
X94171428Y-103342857D01*
X94142857Y-103314286D01*
D11*
X92071175Y-104212218D02*
X91471735Y-104212218D01*
X91899907Y-104012405D01*
X91471735Y-103812592D01*
X92071175Y-103812592D01*
X92071175Y-103527144D02*
X91471735Y-103527144D01*
X91899907Y-103327331D01*
X91471735Y-103127518D01*
X92071175Y-103127518D01*
X91757183Y-102642257D02*
X91785728Y-102556623D01*
X91814272Y-102528078D01*
X91871362Y-102499533D01*
X91956996Y-102499533D01*
X92014086Y-102528078D01*
X92042630Y-102556623D01*
X92071175Y-102613712D01*
X92071175Y-102842070D01*
X91471735Y-102842070D01*
X91471735Y-102642257D01*
X91500280Y-102585167D01*
X91528825Y-102556623D01*
X91585914Y-102528078D01*
X91643004Y-102528078D01*
X91700093Y-102556623D01*
X91728638Y-102585167D01*
X91757183Y-102642257D01*
X91757183Y-102842070D01*
X91471735Y-102328264D02*
X91471735Y-101985727D01*
X92071175Y-102156996D02*
X91471735Y-102156996D01*
X91528825Y-101814459D02*
X91500280Y-101785914D01*
X91471735Y-101728825D01*
X91471735Y-101586101D01*
X91500280Y-101529011D01*
X91528825Y-101500467D01*
X91585914Y-101471922D01*
X91643004Y-101471922D01*
X91728638Y-101500467D01*
X92071175Y-101843004D01*
X92071175Y-101471922D01*
X91528825Y-101243564D02*
X91500280Y-101215019D01*
X91471735Y-101157930D01*
X91471735Y-101015206D01*
X91500280Y-100958116D01*
X91528825Y-100929572D01*
X91585914Y-100901027D01*
X91643004Y-100901027D01*
X91728638Y-100929572D01*
X92071175Y-101272109D01*
X92071175Y-100901027D01*
X91528825Y-100672669D02*
X91500280Y-100644124D01*
X91471735Y-100587035D01*
X91471735Y-100444311D01*
X91500280Y-100387221D01*
X91528825Y-100358677D01*
X91585914Y-100330132D01*
X91643004Y-100330132D01*
X91728638Y-100358677D01*
X92071175Y-100701214D01*
X92071175Y-100330132D01*
X91528825Y-100101774D02*
X91500280Y-100073229D01*
X91471735Y-100016140D01*
X91471735Y-99873416D01*
X91500280Y-99816326D01*
X91528825Y-99787782D01*
X91585914Y-99759237D01*
X91643004Y-99759237D01*
X91728638Y-99787782D01*
X92071175Y-100130319D01*
X92071175Y-99759237D01*
D12*
X138071429Y-117700000D02*
X137785714Y-117900000D01*
X138071429Y-118042857D02*
X137471429Y-118042857D01*
X137471429Y-117814285D01*
X137500000Y-117757143D01*
X137528571Y-117728571D01*
X137585714Y-117700000D01*
X137671429Y-117700000D01*
X137728571Y-117728571D01*
X137757143Y-117757143D01*
X137785714Y-117814285D01*
X137785714Y-118042857D01*
X137471429Y-117500000D02*
X137471429Y-117100000D01*
X138071429Y-117357143D01*
X138928571Y-122242857D02*
X138900000Y-122214286D01*
X138871429Y-122157143D01*
X138871429Y-122014286D01*
X138900000Y-121957143D01*
X138928571Y-121928572D01*
X138985714Y-121900000D01*
X139042857Y-121900000D01*
X139128571Y-121928572D01*
X139471429Y-122271429D01*
X139471429Y-121900000D01*
X138928571Y-121671428D02*
X138900000Y-121642857D01*
X138871429Y-121585714D01*
X138871429Y-121442857D01*
X138900000Y-121385714D01*
X138928571Y-121357143D01*
X138985714Y-121328571D01*
X139042857Y-121328571D01*
X139128571Y-121357143D01*
X139471429Y-121700000D01*
X139471429Y-121328571D01*
X138871429Y-120957142D02*
X138871429Y-120899999D01*
X138900000Y-120842856D01*
X138928571Y-120814285D01*
X138985714Y-120785714D01*
X139100000Y-120757142D01*
X139242857Y-120757142D01*
X139357143Y-120785714D01*
X139414286Y-120814285D01*
X139442857Y-120842856D01*
X139471429Y-120899999D01*
X139471429Y-120957142D01*
X139442857Y-121014285D01*
X139414286Y-121042856D01*
X139357143Y-121071428D01*
X139242857Y-121099999D01*
X139100000Y-121099999D01*
X138985714Y-121071428D01*
X138928571Y-121042856D01*
X138900000Y-121014285D01*
X138871429Y-120957142D01*
X139471429Y-120157142D02*
X139185714Y-120357142D01*
X139471429Y-120499999D02*
X138871429Y-120499999D01*
X138871429Y-120271427D01*
X138900000Y-120214285D01*
X138928571Y-120185713D01*
X138985714Y-120157142D01*
X139071429Y-120157142D01*
X139128571Y-120185713D01*
X139157143Y-120214285D01*
X139185714Y-120271427D01*
X139185714Y-120499999D01*
X137000000Y-106171429D02*
X136800000Y-105885714D01*
X136657143Y-106171429D02*
X136657143Y-105571429D01*
X136885715Y-105571429D01*
X136942857Y-105600000D01*
X136971429Y-105628571D01*
X137000000Y-105685714D01*
X137000000Y-105771429D01*
X136971429Y-105828571D01*
X136942857Y-105857143D01*
X136885715Y-105885714D01*
X136657143Y-105885714D01*
X137285715Y-106171429D02*
X137400000Y-106171429D01*
X137457143Y-106142857D01*
X137485715Y-106114286D01*
X137542857Y-106028571D01*
X137571429Y-105914286D01*
X137571429Y-105685714D01*
X137542857Y-105628571D01*
X137514286Y-105600000D01*
X137457143Y-105571429D01*
X137342857Y-105571429D01*
X137285715Y-105600000D01*
X137257143Y-105628571D01*
X137228572Y-105685714D01*
X137228572Y-105828571D01*
X137257143Y-105885714D01*
X137285715Y-105914286D01*
X137342857Y-105942857D01*
X137457143Y-105942857D01*
X137514286Y-105914286D01*
X137542857Y-105885714D01*
X137571429Y-105828571D01*
X136200000Y-106528571D02*
X136228571Y-106500000D01*
X136285714Y-106471429D01*
X136428571Y-106471429D01*
X136485714Y-106500000D01*
X136514285Y-106528571D01*
X136542857Y-106585714D01*
X136542857Y-106642857D01*
X136514285Y-106728571D01*
X136171428Y-107071429D01*
X136542857Y-107071429D01*
X136914286Y-106471429D02*
X136971429Y-106471429D01*
X137028572Y-106500000D01*
X137057143Y-106528571D01*
X137085714Y-106585714D01*
X137114286Y-106700000D01*
X137114286Y-106842857D01*
X137085714Y-106957143D01*
X137057143Y-107014286D01*
X137028572Y-107042857D01*
X136971429Y-107071429D01*
X136914286Y-107071429D01*
X136857143Y-107042857D01*
X136828572Y-107014286D01*
X136800000Y-106957143D01*
X136771429Y-106842857D01*
X136771429Y-106700000D01*
X136800000Y-106585714D01*
X136828572Y-106528571D01*
X136857143Y-106500000D01*
X136914286Y-106471429D01*
X137371429Y-107071429D02*
X137371429Y-106471429D01*
X137428572Y-106842857D02*
X137600001Y-107071429D01*
X137600001Y-106671429D02*
X137371429Y-106900000D01*
X101114285Y-100471429D02*
X100914285Y-100185714D01*
X100771428Y-100471429D02*
X100771428Y-99871429D01*
X101000000Y-99871429D01*
X101057142Y-99900000D01*
X101085714Y-99928571D01*
X101114285Y-99985714D01*
X101114285Y-100071429D01*
X101085714Y-100128571D01*
X101057142Y-100157143D01*
X101000000Y-100185714D01*
X100771428Y-100185714D01*
X101685714Y-100471429D02*
X101342857Y-100471429D01*
X101514285Y-100471429D02*
X101514285Y-99871429D01*
X101457142Y-99957143D01*
X101400000Y-100014286D01*
X101342857Y-100042857D01*
X102228571Y-99871429D02*
X101942857Y-99871429D01*
X101914286Y-100157143D01*
X101942857Y-100128571D01*
X102000000Y-100100000D01*
X102142857Y-100100000D01*
X102200000Y-100128571D01*
X102228571Y-100157143D01*
X102257143Y-100214286D01*
X102257143Y-100357143D01*
X102228571Y-100414286D01*
X102200000Y-100442857D01*
X102142857Y-100471429D01*
X102000000Y-100471429D01*
X101942857Y-100442857D01*
X101914286Y-100414286D01*
X99442857Y-97971429D02*
X99100000Y-97971429D01*
X99271428Y-97971429D02*
X99271428Y-97371429D01*
X99214285Y-97457143D01*
X99157143Y-97514286D01*
X99100000Y-97542857D01*
X99814286Y-97371429D02*
X99871429Y-97371429D01*
X99928572Y-97400000D01*
X99957143Y-97428571D01*
X99985714Y-97485714D01*
X100014286Y-97600000D01*
X100014286Y-97742857D01*
X99985714Y-97857143D01*
X99957143Y-97914286D01*
X99928572Y-97942857D01*
X99871429Y-97971429D01*
X99814286Y-97971429D01*
X99757143Y-97942857D01*
X99728572Y-97914286D01*
X99700000Y-97857143D01*
X99671429Y-97742857D01*
X99671429Y-97600000D01*
X99700000Y-97485714D01*
X99728572Y-97428571D01*
X99757143Y-97400000D01*
X99814286Y-97371429D01*
X100271429Y-97971429D02*
X100271429Y-97371429D01*
X100328572Y-97742857D02*
X100500001Y-97971429D01*
X100500001Y-97571429D02*
X100271429Y-97800000D01*
X143984429Y-121114286D02*
X144584429Y-120714286D01*
X143984429Y-120714286D02*
X144584429Y-121114286D01*
X143984429Y-120571428D02*
X143984429Y-120228571D01*
X144584429Y-120400000D02*
X143984429Y-120400000D01*
X144413000Y-120057142D02*
X144413000Y-119771428D01*
X144584429Y-120114285D02*
X143984429Y-119914285D01*
X144584429Y-119714285D01*
X144584429Y-119228571D02*
X144584429Y-119514285D01*
X143984429Y-119514285D01*
X144041571Y-119057142D02*
X144013000Y-119028571D01*
X143984429Y-118971428D01*
X143984429Y-118828571D01*
X144013000Y-118771428D01*
X144041571Y-118742857D01*
X144098714Y-118714285D01*
X144155857Y-118714285D01*
X144241571Y-118742857D01*
X144584429Y-119085714D01*
X144584429Y-118714285D01*
X145471429Y-121342857D02*
X145471429Y-121685714D01*
X145471429Y-121514286D02*
X144871429Y-121514286D01*
X144957143Y-121571429D01*
X145014286Y-121628571D01*
X145042857Y-121685714D01*
X144928571Y-121114285D02*
X144900000Y-121085714D01*
X144871429Y-121028571D01*
X144871429Y-120885714D01*
X144900000Y-120828571D01*
X144928571Y-120800000D01*
X144985714Y-120771428D01*
X145042857Y-120771428D01*
X145128571Y-120800000D01*
X145471429Y-121142857D01*
X145471429Y-120771428D01*
X145414286Y-120514285D02*
X145442857Y-120485713D01*
X145471429Y-120514285D01*
X145442857Y-120542856D01*
X145414286Y-120514285D01*
X145471429Y-120514285D01*
X144871429Y-120114285D02*
X144871429Y-120057142D01*
X144900000Y-119999999D01*
X144928571Y-119971428D01*
X144985714Y-119942857D01*
X145100000Y-119914285D01*
X145242857Y-119914285D01*
X145357143Y-119942857D01*
X145414286Y-119971428D01*
X145442857Y-119999999D01*
X145471429Y-120057142D01*
X145471429Y-120114285D01*
X145442857Y-120171428D01*
X145414286Y-120199999D01*
X145357143Y-120228571D01*
X145242857Y-120257142D01*
X145100000Y-120257142D01*
X144985714Y-120228571D01*
X144928571Y-120199999D01*
X144900000Y-120171428D01*
X144871429Y-120114285D01*
X145471429Y-119657142D02*
X144871429Y-119657142D01*
X145300000Y-119457142D01*
X144871429Y-119257142D01*
X145471429Y-119257142D01*
X145471429Y-118971428D02*
X144871429Y-118971428D01*
X145157143Y-118971428D02*
X145157143Y-118628571D01*
X145471429Y-118628571D02*
X144871429Y-118628571D01*
X145071429Y-118400000D02*
X145071429Y-118085714D01*
X145471429Y-118400000D01*
X145471429Y-118085714D01*
X150171429Y-99707429D02*
X149828572Y-99707429D01*
X150000000Y-99707429D02*
X150000000Y-99107429D01*
X149942857Y-99193143D01*
X149885715Y-99250286D01*
X149828572Y-99278857D01*
X100442857Y-103228571D02*
X100385714Y-103200000D01*
X100328571Y-103142857D01*
X100242857Y-103057143D01*
X100185714Y-103028571D01*
X100128571Y-103028571D01*
X100157143Y-103171429D02*
X100100000Y-103142857D01*
X100042857Y-103085714D01*
X100014286Y-102971429D01*
X100014286Y-102771429D01*
X100042857Y-102657143D01*
X100100000Y-102600000D01*
X100157143Y-102571429D01*
X100271429Y-102571429D01*
X100328571Y-102600000D01*
X100385714Y-102657143D01*
X100414286Y-102771429D01*
X100414286Y-102971429D01*
X100385714Y-103085714D01*
X100328571Y-103142857D01*
X100271429Y-103171429D01*
X100157143Y-103171429D01*
X100642857Y-102628571D02*
X100671428Y-102600000D01*
X100728571Y-102571429D01*
X100871428Y-102571429D01*
X100928571Y-102600000D01*
X100957142Y-102628571D01*
X100985714Y-102685714D01*
X100985714Y-102742857D01*
X100957142Y-102828571D01*
X100614285Y-103171429D01*
X100985714Y-103171429D01*
D11*
X101457183Y-103713245D02*
X101485728Y-103627611D01*
X101514272Y-103599066D01*
X101571362Y-103570521D01*
X101656996Y-103570521D01*
X101714086Y-103599066D01*
X101742630Y-103627611D01*
X101771175Y-103684700D01*
X101771175Y-103913058D01*
X101171735Y-103913058D01*
X101171735Y-103713245D01*
X101200280Y-103656155D01*
X101228825Y-103627611D01*
X101285914Y-103599066D01*
X101343004Y-103599066D01*
X101400093Y-103627611D01*
X101428638Y-103656155D01*
X101457183Y-103713245D01*
X101457183Y-103913058D01*
X101714086Y-102971081D02*
X101742630Y-102999626D01*
X101771175Y-103085260D01*
X101771175Y-103142350D01*
X101742630Y-103227984D01*
X101685541Y-103285073D01*
X101628451Y-103313618D01*
X101514272Y-103342163D01*
X101428638Y-103342163D01*
X101314459Y-103313618D01*
X101257370Y-103285073D01*
X101200280Y-103227984D01*
X101171735Y-103142350D01*
X101171735Y-103085260D01*
X101200280Y-102999626D01*
X101228825Y-102971081D01*
X101428638Y-102628544D02*
X101400093Y-102685633D01*
X101371549Y-102714178D01*
X101314459Y-102742723D01*
X101285914Y-102742723D01*
X101228825Y-102714178D01*
X101200280Y-102685633D01*
X101171735Y-102628544D01*
X101171735Y-102514365D01*
X101200280Y-102457275D01*
X101228825Y-102428731D01*
X101285914Y-102400186D01*
X101314459Y-102400186D01*
X101371549Y-102428731D01*
X101400093Y-102457275D01*
X101428638Y-102514365D01*
X101428638Y-102628544D01*
X101457183Y-102685633D01*
X101485728Y-102714178D01*
X101542817Y-102742723D01*
X101656996Y-102742723D01*
X101714086Y-102714178D01*
X101742630Y-102685633D01*
X101771175Y-102628544D01*
X101771175Y-102514365D01*
X101742630Y-102457275D01*
X101714086Y-102428731D01*
X101656996Y-102400186D01*
X101542817Y-102400186D01*
X101485728Y-102428731D01*
X101457183Y-102457275D01*
X101428638Y-102514365D01*
X101371549Y-101886380D02*
X101771175Y-101886380D01*
X101143190Y-102029104D02*
X101571362Y-102171828D01*
X101571362Y-101800746D01*
X101428638Y-101486754D02*
X101400093Y-101543843D01*
X101371549Y-101572388D01*
X101314459Y-101600933D01*
X101285914Y-101600933D01*
X101228825Y-101572388D01*
X101200280Y-101543843D01*
X101171735Y-101486754D01*
X101171735Y-101372575D01*
X101200280Y-101315485D01*
X101228825Y-101286941D01*
X101285914Y-101258396D01*
X101314459Y-101258396D01*
X101371549Y-101286941D01*
X101400093Y-101315485D01*
X101428638Y-101372575D01*
X101428638Y-101486754D01*
X101457183Y-101543843D01*
X101485728Y-101572388D01*
X101542817Y-101600933D01*
X101656996Y-101600933D01*
X101714086Y-101572388D01*
X101742630Y-101543843D01*
X101771175Y-101486754D01*
X101771175Y-101372575D01*
X101742630Y-101315485D01*
X101714086Y-101286941D01*
X101656996Y-101258396D01*
X101542817Y-101258396D01*
X101485728Y-101286941D01*
X101457183Y-101315485D01*
X101428638Y-101372575D01*
D12*
X92814285Y-98871429D02*
X92614285Y-98585714D01*
X92471428Y-98871429D02*
X92471428Y-98271429D01*
X92700000Y-98271429D01*
X92757142Y-98300000D01*
X92785714Y-98328571D01*
X92814285Y-98385714D01*
X92814285Y-98471429D01*
X92785714Y-98528571D01*
X92757142Y-98557143D01*
X92700000Y-98585714D01*
X92471428Y-98585714D01*
X93385714Y-98871429D02*
X93042857Y-98871429D01*
X93214285Y-98871429D02*
X93214285Y-98271429D01*
X93157142Y-98357143D01*
X93100000Y-98414286D01*
X93042857Y-98442857D01*
X93614286Y-98328571D02*
X93642857Y-98300000D01*
X93700000Y-98271429D01*
X93842857Y-98271429D01*
X93900000Y-98300000D01*
X93928571Y-98328571D01*
X93957143Y-98385714D01*
X93957143Y-98442857D01*
X93928571Y-98528571D01*
X93585714Y-98871429D01*
X93957143Y-98871429D01*
X93428572Y-99771429D02*
X93085715Y-99771429D01*
X93257143Y-99771429D02*
X93257143Y-99171429D01*
X93200000Y-99257143D01*
X93142858Y-99314286D01*
X93085715Y-99342857D01*
X93685715Y-99771429D02*
X93685715Y-99171429D01*
X93742858Y-99542857D02*
X93914287Y-99771429D01*
X93914287Y-99371429D02*
X93685715Y-99600000D01*
X135271429Y-106428572D02*
X135871429Y-106028572D01*
X135271429Y-106028572D02*
X135871429Y-106428572D01*
X135871429Y-105514286D02*
X135871429Y-105800000D01*
X135271429Y-105800000D01*
X135871429Y-105000000D02*
X135871429Y-105342857D01*
X135871429Y-105171429D02*
X135271429Y-105171429D01*
X135357143Y-105228572D01*
X135414286Y-105285714D01*
X135442857Y-105342857D01*
X127085715Y-106752381D02*
X126514286Y-106752381D01*
X126800000Y-106752381D02*
X126800000Y-105752381D01*
X126704762Y-105895238D01*
X126609524Y-105990476D01*
X126514286Y-106038095D01*
X137891428Y-109571429D02*
X138291428Y-110171429D01*
X138291428Y-109571429D02*
X137891428Y-110171429D01*
X138805714Y-110171429D02*
X138520000Y-110171429D01*
X138520000Y-109571429D01*
X138948571Y-109571429D02*
X139320000Y-109571429D01*
X139120000Y-109800000D01*
X139205714Y-109800000D01*
X139262857Y-109828571D01*
X139291428Y-109857143D01*
X139320000Y-109914286D01*
X139320000Y-110057143D01*
X139291428Y-110114286D01*
X139262857Y-110142857D01*
X139205714Y-110171429D01*
X139034286Y-110171429D01*
X138977143Y-110142857D01*
X138948571Y-110114286D01*
X129005715Y-112152381D02*
X128434286Y-112152381D01*
X128720000Y-112152381D02*
X128720000Y-111152381D01*
X128624762Y-111295238D01*
X128529524Y-111390476D01*
X128434286Y-111438095D01*
X108814285Y-91814286D02*
X108785714Y-91842857D01*
X108700000Y-91871429D01*
X108642857Y-91871429D01*
X108557142Y-91842857D01*
X108500000Y-91785714D01*
X108471428Y-91728571D01*
X108442857Y-91614286D01*
X108442857Y-91528571D01*
X108471428Y-91414286D01*
X108500000Y-91357143D01*
X108557142Y-91300000D01*
X108642857Y-91271429D01*
X108700000Y-91271429D01*
X108785714Y-91300000D01*
X108814285Y-91328571D01*
X109042857Y-91328571D02*
X109071428Y-91300000D01*
X109128571Y-91271429D01*
X109271428Y-91271429D01*
X109328571Y-91300000D01*
X109357142Y-91328571D01*
X109385714Y-91385714D01*
X109385714Y-91442857D01*
X109357142Y-91528571D01*
X109014285Y-91871429D01*
X109385714Y-91871429D01*
X109900000Y-91271429D02*
X109785714Y-91271429D01*
X109728571Y-91300000D01*
X109700000Y-91328571D01*
X109642857Y-91414286D01*
X109614286Y-91528571D01*
X109614286Y-91757143D01*
X109642857Y-91814286D01*
X109671429Y-91842857D01*
X109728571Y-91871429D01*
X109842857Y-91871429D01*
X109900000Y-91842857D01*
X109928571Y-91814286D01*
X109957143Y-91757143D01*
X109957143Y-91614286D01*
X109928571Y-91557143D01*
X109900000Y-91528571D01*
X109842857Y-91500000D01*
X109728571Y-91500000D01*
X109671429Y-91528571D01*
X109642857Y-91557143D01*
X109614286Y-91614286D01*
X108671429Y-92271429D02*
X108728572Y-92271429D01*
X108785715Y-92300000D01*
X108814286Y-92328571D01*
X108842857Y-92385714D01*
X108871429Y-92500000D01*
X108871429Y-92642857D01*
X108842857Y-92757143D01*
X108814286Y-92814286D01*
X108785715Y-92842857D01*
X108728572Y-92871429D01*
X108671429Y-92871429D01*
X108614286Y-92842857D01*
X108585715Y-92814286D01*
X108557143Y-92757143D01*
X108528572Y-92642857D01*
X108528572Y-92500000D01*
X108557143Y-92385714D01*
X108585715Y-92328571D01*
X108614286Y-92300000D01*
X108671429Y-92271429D01*
X109128572Y-92814286D02*
X109157144Y-92842857D01*
X109128572Y-92871429D01*
X109100001Y-92842857D01*
X109128572Y-92814286D01*
X109128572Y-92871429D01*
X109728572Y-92871429D02*
X109385715Y-92871429D01*
X109557143Y-92871429D02*
X109557143Y-92271429D01*
X109500000Y-92357143D01*
X109442858Y-92414286D01*
X109385715Y-92442857D01*
X110242858Y-92471429D02*
X110242858Y-92871429D01*
X109985715Y-92471429D02*
X109985715Y-92785714D01*
X110014287Y-92842857D01*
X110071429Y-92871429D01*
X110157144Y-92871429D01*
X110214287Y-92842857D01*
X110242858Y-92814286D01*
X136514285Y-99571429D02*
X136314285Y-99285714D01*
X136171428Y-99571429D02*
X136171428Y-98971429D01*
X136400000Y-98971429D01*
X136457142Y-99000000D01*
X136485714Y-99028571D01*
X136514285Y-99085714D01*
X136514285Y-99171429D01*
X136485714Y-99228571D01*
X136457142Y-99257143D01*
X136400000Y-99285714D01*
X136171428Y-99285714D01*
X137085714Y-99571429D02*
X136742857Y-99571429D01*
X136914285Y-99571429D02*
X136914285Y-98971429D01*
X136857142Y-99057143D01*
X136800000Y-99114286D01*
X136742857Y-99142857D01*
X137600000Y-98971429D02*
X137485714Y-98971429D01*
X137428571Y-99000000D01*
X137400000Y-99028571D01*
X137342857Y-99114286D01*
X137314286Y-99228571D01*
X137314286Y-99457143D01*
X137342857Y-99514286D01*
X137371429Y-99542857D01*
X137428571Y-99571429D01*
X137542857Y-99571429D01*
X137600000Y-99542857D01*
X137628571Y-99514286D01*
X137657143Y-99457143D01*
X137657143Y-99314286D01*
X137628571Y-99257143D01*
X137600000Y-99228571D01*
X137542857Y-99200000D01*
X137428571Y-99200000D01*
X137371429Y-99228571D01*
X137342857Y-99257143D01*
X137314286Y-99314286D01*
X133557143Y-101571429D02*
X133214286Y-101571429D01*
X133385714Y-101571429D02*
X133385714Y-100971429D01*
X133328571Y-101057143D01*
X133271429Y-101114286D01*
X133214286Y-101142857D01*
X133928572Y-100971429D02*
X133985715Y-100971429D01*
X134042858Y-101000000D01*
X134071429Y-101028571D01*
X134100000Y-101085714D01*
X134128572Y-101200000D01*
X134128572Y-101342857D01*
X134100000Y-101457143D01*
X134071429Y-101514286D01*
X134042858Y-101542857D01*
X133985715Y-101571429D01*
X133928572Y-101571429D01*
X133871429Y-101542857D01*
X133842858Y-101514286D01*
X133814286Y-101457143D01*
X133785715Y-101342857D01*
X133785715Y-101200000D01*
X133814286Y-101085714D01*
X133842858Y-101028571D01*
X133871429Y-101000000D01*
X133928572Y-100971429D01*
X134500001Y-100971429D02*
X134557144Y-100971429D01*
X134614287Y-101000000D01*
X134642858Y-101028571D01*
X134671429Y-101085714D01*
X134700001Y-101200000D01*
X134700001Y-101342857D01*
X134671429Y-101457143D01*
X134642858Y-101514286D01*
X134614287Y-101542857D01*
X134557144Y-101571429D01*
X134500001Y-101571429D01*
X134442858Y-101542857D01*
X134414287Y-101514286D01*
X134385715Y-101457143D01*
X134357144Y-101342857D01*
X134357144Y-101200000D01*
X134385715Y-101085714D01*
X134414287Y-101028571D01*
X134442858Y-101000000D01*
X134500001Y-100971429D01*
X134957144Y-101571429D02*
X134957144Y-100971429D01*
X135014287Y-101342857D02*
X135185716Y-101571429D01*
X135185716Y-101171429D02*
X134957144Y-101400000D01*
X118693645Y-96959194D02*
X118993645Y-96439579D01*
X118952564Y-96910733D01*
X119340055Y-96639579D01*
X119040055Y-97159194D01*
X119559670Y-97459194D02*
X119262747Y-97287766D01*
X119411208Y-97373480D02*
X119711208Y-96853865D01*
X119618864Y-96899524D01*
X119540806Y-96920440D01*
X119477033Y-96916612D01*
M02*
