G04 #@! TF.FileFunction,Copper,L2,Bot,Signal*
%FSLAX46Y46*%
G04 Gerber Fmt 4.6, Leading zero omitted, Abs format (unit mm)*
G04 Created by KiCad (PCBNEW 4.0.1-stable) date 20.01.2016 16:11:56*
%MOMM*%
G01*
G04 APERTURE LIST*
%ADD10C,0.100000*%
%ADD11C,6.000000*%
%ADD12R,1.100000X1.100000*%
%ADD13C,1.500000*%
%ADD14R,1.080000X1.000000*%
%ADD15C,1.200000*%
%ADD16R,1.270000X0.760000*%
%ADD17R,2.000000X2.000000*%
%ADD18C,2.000000*%
%ADD19R,1.600000X1.600000*%
%ADD20C,1.600000*%
%ADD21R,1.500000X1.500000*%
%ADD22R,3.200000X1.600000*%
%ADD23O,3.200000X1.600000*%
%ADD24C,0.900000*%
%ADD25C,0.700000*%
%ADD26C,1.000000*%
%ADD27C,0.500000*%
%ADD28C,0.200000*%
%ADD29C,0.400000*%
G04 APERTURE END LIST*
D10*
D11*
X149500000Y-103500000D03*
D12*
X138152000Y-71718700D03*
X139252000Y-71718700D03*
X138152000Y-72818700D03*
X139252000Y-72818700D03*
D10*
G36*
X112292443Y-67156624D02*
X111143376Y-66192443D01*
X112107557Y-65043376D01*
X113256624Y-66007557D01*
X112292443Y-67156624D01*
X112292443Y-67156624D01*
G37*
D13*
X113832681Y-64154247D03*
D14*
X117160000Y-101300000D03*
X115840000Y-101300000D03*
X117160000Y-99700000D03*
X115840000Y-99700000D03*
X117160000Y-98100000D03*
X115840000Y-98100000D03*
X117160000Y-96500000D03*
X115840000Y-96500000D03*
D15*
X110800000Y-72700000D03*
X110800000Y-75200000D03*
X110800000Y-77700000D03*
D14*
X117160000Y-94900000D03*
X115840000Y-94900000D03*
X117160000Y-93300000D03*
X115840000Y-93300000D03*
D11*
X118500000Y-62500000D03*
D16*
X112532000Y-100520000D03*
X112532000Y-99250000D03*
X112532000Y-97980000D03*
X112532000Y-96710000D03*
X112532000Y-95440000D03*
X112532000Y-94170000D03*
X120152000Y-94170000D03*
X120152000Y-95440000D03*
X120152000Y-96710000D03*
X120152000Y-97980000D03*
X120152000Y-99250000D03*
X120152000Y-100520000D03*
D17*
X127500000Y-59500000D03*
D18*
X127500000Y-106500000D03*
D17*
X140500000Y-106500000D03*
D18*
X140500000Y-59500000D03*
D19*
X115150000Y-79600000D03*
D20*
X118650000Y-79600000D03*
D21*
X130190000Y-101900000D03*
D13*
X132730000Y-101900000D03*
X135270000Y-101900000D03*
X137810000Y-101900000D03*
D21*
X126220000Y-109600000D03*
D13*
X128760000Y-109600000D03*
X131300000Y-109600000D03*
D21*
X134480000Y-109600000D03*
D13*
X137020000Y-109600000D03*
X139560000Y-109600000D03*
X142100000Y-109600000D03*
D22*
X115989000Y-81730000D03*
D23*
X115989000Y-84270000D03*
D24*
X143793100Y-70472300D03*
X145173600Y-69790100D03*
X110990700Y-93532000D03*
X138156200Y-75729700D03*
X130551400Y-67756800D03*
X118291300Y-103600000D03*
X125052900Y-106037800D03*
X126927900Y-95428400D03*
X126943700Y-96933000D03*
X127788100Y-98646200D03*
X127017000Y-100292300D03*
X132799400Y-96012400D03*
X131262000Y-93911700D03*
X131513800Y-91358300D03*
X129739900Y-90204400D03*
X134471600Y-92852100D03*
X132825800Y-92439100D03*
X134244500Y-99753400D03*
X135284500Y-98617100D03*
X133505800Y-73894200D03*
X140635100Y-81825600D03*
X139881500Y-69139300D03*
X136783500Y-68711000D03*
X135200000Y-66636600D03*
X141511800Y-55832000D03*
X139011800Y-55832000D03*
X136511800Y-55832000D03*
X134011800Y-55832000D03*
X131511800Y-55832000D03*
X129011800Y-55832000D03*
X126511800Y-55832000D03*
X146511800Y-58332000D03*
X144011800Y-58332000D03*
X141511800Y-58332000D03*
X139011800Y-58332000D03*
X136511800Y-58332000D03*
X134011800Y-58332000D03*
X131511800Y-58332000D03*
X129300000Y-58200000D03*
X125900000Y-58000000D03*
X124011800Y-58332000D03*
X146511800Y-60832000D03*
X144011800Y-60832000D03*
X141511800Y-60832000D03*
X139011800Y-60832000D03*
X136511800Y-60832000D03*
X129400000Y-60600000D03*
X123700000Y-60300000D03*
X121600000Y-60200000D03*
X146511800Y-63332000D03*
X144011800Y-63332000D03*
X141511800Y-63332000D03*
X139011800Y-63332000D03*
X136700000Y-63400000D03*
X146511800Y-65832000D03*
X143400000Y-66500000D03*
X141000000Y-65100000D03*
X139500000Y-65100000D03*
X136511800Y-65832000D03*
X129011800Y-65832000D03*
X126511800Y-65832000D03*
X124011800Y-65832000D03*
X146511800Y-68332000D03*
X144600000Y-67800000D03*
X145300000Y-75200000D03*
X131200000Y-68800000D03*
X128600000Y-68400000D03*
X126511800Y-68332000D03*
X124011800Y-68332000D03*
X121511800Y-68332000D03*
X146511800Y-70832000D03*
X137900000Y-65100000D03*
X131511800Y-70832000D03*
X128600000Y-70800000D03*
X126511800Y-70832000D03*
X124011800Y-70832000D03*
X121511800Y-70832000D03*
X119011800Y-70832000D03*
X116511800Y-70832000D03*
X146500000Y-72800000D03*
X143900000Y-74600000D03*
X129011800Y-73332000D03*
X126511800Y-73332000D03*
X124011800Y-73332000D03*
X121511800Y-73332000D03*
X119011800Y-73332000D03*
X116511800Y-73332000D03*
X146500000Y-76200000D03*
X143500000Y-76400000D03*
X129011800Y-75832000D03*
X126511800Y-75832000D03*
X124011800Y-75832000D03*
X121511800Y-75832000D03*
X119011800Y-75832000D03*
X116511800Y-75832000D03*
X146511800Y-78332000D03*
X144011800Y-78332000D03*
X136511800Y-78332000D03*
X129011800Y-78332000D03*
X126511800Y-78332000D03*
X124011800Y-78332000D03*
X121511800Y-78332000D03*
X119000000Y-77700000D03*
X116511800Y-78332000D03*
X146511800Y-80832000D03*
X144011800Y-80832000D03*
X142300000Y-81700000D03*
X112900000Y-68500000D03*
X124011800Y-80832000D03*
X121511800Y-80832000D03*
X146511800Y-83332000D03*
X144011800Y-83332000D03*
X141511800Y-83332000D03*
X139000000Y-83800000D03*
X136100000Y-83300000D03*
X131511800Y-83332000D03*
X129000000Y-83700000D03*
X126511800Y-83332000D03*
X124011800Y-83332000D03*
X121511800Y-83332000D03*
X119011800Y-83332000D03*
X146511800Y-85832000D03*
X144011800Y-85832000D03*
X126200000Y-86100000D03*
X124011800Y-85832000D03*
X121511800Y-85832000D03*
X119011800Y-85832000D03*
X146511800Y-88332000D03*
X144011800Y-88332000D03*
X142100000Y-87300000D03*
X138900000Y-87300000D03*
X136511800Y-88332000D03*
X126200000Y-88400000D03*
X124011800Y-88332000D03*
X121800000Y-88200000D03*
X118300000Y-87700000D03*
X115300000Y-87400000D03*
X146511800Y-90832000D03*
X144100000Y-90500000D03*
X124011800Y-90832000D03*
X121900000Y-90700000D03*
X146511800Y-93332000D03*
X142500000Y-93800000D03*
X121248900Y-92765700D03*
X119075100Y-92749600D03*
X146511800Y-95832000D03*
X139011800Y-95832000D03*
X107800000Y-93600000D03*
X118800000Y-95900000D03*
X106600000Y-89500000D03*
X146511800Y-98332000D03*
X144200000Y-98200000D03*
X139011800Y-98332000D03*
X107400000Y-74300000D03*
X109600000Y-87300000D03*
X146511800Y-100832000D03*
X144011800Y-100832000D03*
X140600000Y-100200000D03*
X116200000Y-67500000D03*
X106100000Y-87300000D03*
X105900000Y-78600000D03*
X110300000Y-98400000D03*
X138800000Y-105300000D03*
X138700000Y-103700000D03*
X133300000Y-104000000D03*
X130500000Y-103500000D03*
X115741900Y-102902300D03*
X146511800Y-105832000D03*
X144011800Y-105832000D03*
X138400000Y-111300000D03*
X142200000Y-105700000D03*
X136511800Y-105832000D03*
X134011800Y-105832000D03*
X131511800Y-105832000D03*
X130200000Y-111300000D03*
X127500000Y-104600000D03*
X124011800Y-105832000D03*
X119000000Y-106500000D03*
X116900000Y-105500000D03*
X142200000Y-108100000D03*
X132900000Y-111300000D03*
X135000000Y-108000000D03*
X132300000Y-107900000D03*
X129800000Y-107900000D03*
X124011800Y-108332000D03*
X121511800Y-108332000D03*
X136000000Y-111300000D03*
X109300000Y-78600000D03*
X114539300Y-95091400D03*
X124510400Y-94838300D03*
X122494900Y-95454100D03*
X133715000Y-67608000D03*
X125331400Y-82719100D03*
X122440300Y-63887500D03*
D25*
X112017900Y-93140300D03*
X134364300Y-91746600D03*
X136235000Y-89649900D03*
X133487400Y-70758000D03*
X135276500Y-75365300D03*
X135457600Y-87259200D03*
X134368300Y-87741000D03*
X135772700Y-70784700D03*
X134626800Y-86861500D03*
X135125300Y-71417800D03*
X133279900Y-86851300D03*
X137011900Y-70116300D03*
X130676000Y-95361000D03*
X130974200Y-96219100D03*
X131166500Y-100029500D03*
X132291900Y-100654600D03*
X134183200Y-95808600D03*
X110151200Y-71250100D03*
X132285800Y-99322300D03*
X141981800Y-101530000D03*
X129660200Y-96197400D03*
X134032700Y-94629500D03*
X133757400Y-93727700D03*
X125129100Y-93935700D03*
X122598300Y-99350100D03*
X130373500Y-94485000D03*
X121993300Y-97646500D03*
X129280600Y-92104100D03*
X124067100Y-103414000D03*
X124429600Y-100266700D03*
D24*
X140067000Y-90254500D03*
X127155500Y-86983000D03*
X130067200Y-100058600D03*
X135904400Y-96633600D03*
X142173900Y-68443400D03*
X136749000Y-67467700D03*
X139783300Y-77918600D03*
X141195300Y-76340600D03*
X135765000Y-76743800D03*
D25*
X131299300Y-87507000D03*
X133698400Y-64529800D03*
X125823900Y-93334000D03*
X126986700Y-92692000D03*
X131683400Y-90060700D03*
X118284200Y-89938700D03*
X123186000Y-104545000D03*
X125169800Y-99720400D03*
D26*
X146511800Y-100832000D02*
X149500000Y-103500000D01*
D27*
X115840000Y-98350000D02*
X115840000Y-98100000D01*
X115840000Y-98600000D02*
X115840000Y-98350000D01*
X115840000Y-99200000D02*
X115840000Y-98600000D01*
X115840000Y-99450000D02*
X115840000Y-99200000D01*
X115840000Y-99700000D02*
X115840000Y-99450000D01*
X115840000Y-95150000D02*
X115840000Y-94900000D01*
X115840000Y-95400000D02*
X115840000Y-95150000D01*
X115840000Y-96000000D02*
X115840000Y-95400000D01*
X115840000Y-96250000D02*
X115840000Y-96000000D01*
X115840000Y-96500000D02*
X115840000Y-96250000D01*
X127500000Y-104600000D02*
X125052900Y-106037800D01*
X121248900Y-92765700D02*
X121900000Y-90700000D01*
X116036000Y-78256700D02*
X116511800Y-78332000D01*
X115972000Y-78250000D02*
X115950000Y-78249900D01*
X116015100Y-78253400D02*
X115972000Y-78250000D01*
X116036000Y-78256700D02*
X116015100Y-78253400D01*
X114350000Y-78249900D02*
X115950000Y-78249900D01*
X114278100Y-78254100D02*
X114254400Y-78258300D01*
X114326000Y-78249900D02*
X114278100Y-78254100D01*
X114350000Y-78249900D02*
X114326000Y-78249900D01*
X110999900Y-78832600D02*
X114254400Y-78258300D01*
X110899800Y-78850200D02*
X110999900Y-78832600D01*
X110696500Y-78849900D02*
X110899800Y-78850200D01*
X110597500Y-78832100D02*
X110696500Y-78849900D01*
X109300000Y-78600000D02*
X110597500Y-78832100D01*
X124011800Y-73332000D02*
X124011800Y-70832000D01*
X136511800Y-60832000D02*
X139011800Y-60832000D01*
X109600000Y-87300000D02*
X115300000Y-87400000D01*
X116511800Y-73332000D02*
X119011800Y-73332000D01*
X118291300Y-103600000D02*
X116900000Y-105500000D01*
X114539300Y-95091400D02*
X113718100Y-95084400D01*
X116511800Y-73332000D02*
X116511800Y-70832000D01*
X124510400Y-94838300D02*
X122494900Y-95454100D01*
X146511800Y-60832000D02*
X146511800Y-63332000D01*
X119075100Y-92749600D02*
X115300000Y-87400000D01*
X106100000Y-87300000D02*
X106600000Y-89500000D01*
X137463200Y-105593000D02*
X136511800Y-105832000D01*
X137492100Y-105584100D02*
X137501300Y-105580200D01*
X137473000Y-105590500D02*
X137492100Y-105584100D01*
X137463200Y-105593000D02*
X137473000Y-105590500D01*
X137505400Y-105578500D02*
X137501300Y-105580200D01*
X119011800Y-75832000D02*
X121511800Y-75832000D01*
X136511800Y-55832000D02*
X136511800Y-58332000D01*
X144011800Y-60832000D02*
X145261800Y-59582000D01*
X139011800Y-55832000D02*
X136511800Y-55832000D01*
X139011800Y-55832000D02*
X140261800Y-57082000D01*
X131511800Y-105832000D02*
X132300000Y-107900000D01*
X121511800Y-108332000D02*
X124011800Y-108332000D01*
X116511800Y-73332000D02*
X116511800Y-75832000D01*
X136511800Y-88332000D02*
X138900000Y-87300000D01*
X119000000Y-106500000D02*
X121511800Y-108332000D01*
X131513800Y-91358300D02*
X129739900Y-90204400D01*
X106600000Y-89500000D02*
X107800000Y-93600000D01*
X143793100Y-70472300D02*
X145173600Y-69790100D01*
X116900000Y-105500000D02*
X119000000Y-106500000D01*
X130304500Y-57124700D02*
X129300000Y-58200000D01*
X131511800Y-55832000D02*
X134011800Y-55832000D01*
X121511800Y-73332000D02*
X120261800Y-72082000D01*
X139011800Y-63332000D02*
X137900000Y-65100000D01*
X126927900Y-95428400D02*
X126943700Y-96933000D01*
X121511800Y-73332000D02*
X121511800Y-75832000D01*
X145261800Y-59582000D02*
X144011800Y-58332000D01*
X106600000Y-89500000D02*
X109600000Y-87300000D01*
X131511800Y-55832000D02*
X130304500Y-57124700D01*
D26*
X146511800Y-105832000D02*
X149500000Y-103500000D01*
D27*
X130304500Y-57124700D02*
X129011800Y-55832000D01*
X130745300Y-93674600D02*
X131262000Y-93911700D01*
X130118300Y-93603900D02*
X129930900Y-93711000D01*
X130549200Y-93584600D02*
X130118300Y-93603900D01*
X130745300Y-93674600D02*
X130549200Y-93584600D01*
X126927900Y-95428400D02*
X129930900Y-93711000D01*
X113620400Y-95578200D02*
X113617100Y-95571900D01*
X113624000Y-95585000D02*
X113620400Y-95578200D01*
X113727700Y-95786700D02*
X113624000Y-95585000D01*
X113812700Y-95952000D02*
X113727700Y-95786700D01*
X113776300Y-96321400D02*
X113812700Y-95952000D01*
X113661000Y-96466800D02*
X113776300Y-96321400D01*
X113613800Y-96526300D02*
X113661000Y-96466800D01*
X141511800Y-58332000D02*
X140500000Y-59500000D01*
X145261800Y-59582000D02*
X146511800Y-58332000D01*
X139011800Y-63332000D02*
X141511800Y-63332000D01*
X138800000Y-105300000D02*
X138700000Y-103700000D01*
X140261800Y-57082000D02*
X139011800Y-58332000D01*
X146511800Y-60832000D02*
X145261800Y-59582000D01*
X142200000Y-105700000D02*
X142851500Y-106321000D01*
X111804100Y-98118600D02*
X110300000Y-98400000D01*
X111826600Y-98114400D02*
X111804100Y-98118600D01*
X111873200Y-98110000D02*
X111826600Y-98114400D01*
X111897000Y-98110000D02*
X111873200Y-98110000D01*
X112147000Y-98110000D02*
X111897000Y-98110000D01*
X112532000Y-97980000D02*
X112147000Y-98110000D01*
X141511800Y-60832000D02*
X140500000Y-59500000D01*
X146511800Y-105832000D02*
X144011800Y-105832000D01*
X119011800Y-73332000D02*
X120261800Y-72082000D01*
X142851500Y-106321000D02*
X144011800Y-105832000D01*
X144011800Y-63332000D02*
X146511800Y-63332000D01*
X124011800Y-73332000D02*
X121511800Y-73332000D01*
X120261800Y-72082000D02*
X121511800Y-70832000D01*
X139011800Y-63332000D02*
X139500000Y-65100000D01*
X142200000Y-108100000D02*
X142851500Y-106321000D01*
X131511800Y-58332000D02*
X130304500Y-57124700D01*
X141511800Y-55832000D02*
X140261800Y-57082000D01*
X134011800Y-58332000D02*
X134011800Y-55832000D01*
X124011800Y-75832000D02*
X124011800Y-73332000D01*
X115741900Y-102902300D02*
X118291300Y-103600000D01*
X131262000Y-93911700D02*
X132799400Y-96012400D01*
X112900000Y-68500000D02*
X116200000Y-67500000D01*
X140261800Y-57082000D02*
X141511800Y-58332000D01*
X115840000Y-96750000D02*
X115840000Y-96500000D01*
X115840000Y-97000000D02*
X115840000Y-96750000D01*
X115840000Y-97600000D02*
X115840000Y-97000000D01*
X115840000Y-97850000D02*
X115840000Y-97600000D01*
X115840000Y-98100000D02*
X115840000Y-97850000D01*
X120261800Y-72082000D02*
X119011800Y-70832000D01*
X115550000Y-97930700D02*
X115840000Y-98100000D01*
X115300000Y-97930700D02*
X115550000Y-97930700D01*
X113797500Y-97930700D02*
X115300000Y-97930700D01*
X134471600Y-92852100D02*
X132825800Y-92439100D01*
X115840000Y-99950000D02*
X115840000Y-99700000D01*
X115840000Y-100200000D02*
X115840000Y-99950000D01*
X115840000Y-100800000D02*
X115840000Y-100200000D01*
X115840000Y-101050000D02*
X115840000Y-100800000D01*
X115840000Y-101300000D02*
X115840000Y-101050000D01*
X115741900Y-101800000D02*
X115741900Y-102902300D01*
X115741900Y-101550000D02*
X115741900Y-101800000D01*
X115840000Y-101300000D02*
X115741900Y-101550000D01*
X115840000Y-93550000D02*
X115840000Y-93300000D01*
X115840000Y-93800000D02*
X115840000Y-93550000D01*
X115840000Y-94400000D02*
X115840000Y-93800000D01*
X115840000Y-94650000D02*
X115840000Y-94400000D01*
X115840000Y-94900000D02*
X115840000Y-94650000D01*
X112917000Y-94300000D02*
X112532000Y-94170000D01*
X113167000Y-94300000D02*
X112917000Y-94300000D01*
X113256200Y-94300100D02*
X113167000Y-94300000D01*
X113422700Y-94360600D02*
X113256200Y-94300100D01*
X113559300Y-94474800D02*
X113422700Y-94360600D01*
X113648200Y-94628100D02*
X113559300Y-94474800D01*
X113664000Y-94715700D02*
X113648200Y-94628100D01*
X113708400Y-94962700D02*
X113664000Y-94715700D01*
X113715600Y-95002700D02*
X113708400Y-94962700D01*
X113718100Y-95084400D02*
X113715600Y-95002700D01*
X113713300Y-95124500D02*
X113718100Y-95084400D01*
X136511800Y-103332000D02*
X135270000Y-101900000D01*
X137505400Y-105578500D02*
X136511800Y-103332000D01*
X124011800Y-105832000D02*
X125052900Y-106037800D01*
X139011800Y-80832000D02*
X140635100Y-81825600D01*
X136511800Y-78332000D02*
X139011800Y-80832000D01*
X137852000Y-73118700D02*
X138152000Y-72818700D01*
X137602000Y-73118700D02*
X137852000Y-73118700D01*
X137566700Y-73120900D02*
X137555200Y-73123100D01*
X137590200Y-73118700D02*
X137566700Y-73120900D01*
X137602000Y-73118700D02*
X137590200Y-73118700D01*
X136511800Y-73332000D02*
X137555200Y-73123100D01*
X134011800Y-73332000D02*
X136511800Y-73332000D01*
X133505800Y-73894200D02*
X134011800Y-73332000D01*
X135861600Y-67958800D02*
X135200000Y-66636600D01*
X135922600Y-68080900D02*
X135861600Y-67958800D01*
X136300000Y-68400000D02*
X135922600Y-68080900D01*
X136783500Y-68711000D02*
X136300000Y-68400000D01*
X113797500Y-98615000D02*
X113797500Y-97930700D01*
X113797500Y-98644300D02*
X113797500Y-98615000D01*
X113792100Y-98702500D02*
X113797500Y-98644300D01*
X113786800Y-98730600D02*
X113792100Y-98702500D01*
X113695800Y-99218600D02*
X113786800Y-98730600D01*
X113686000Y-99271100D02*
X113695800Y-99218600D01*
X113646800Y-99369000D02*
X113686000Y-99271100D01*
X113618000Y-99413200D02*
X113646800Y-99369000D01*
X113615300Y-99417300D02*
X113618000Y-99413200D01*
X113637000Y-99462900D02*
X113615300Y-99417300D01*
X113661100Y-99561700D02*
X113637000Y-99462900D01*
X113662900Y-99612900D02*
X113661100Y-99561700D01*
X113671700Y-99867600D02*
X113662900Y-99612900D01*
X113675300Y-99970100D02*
X113671700Y-99867600D01*
X113601600Y-100161900D02*
X113675300Y-99970100D01*
X113458900Y-100309700D02*
X113601600Y-100161900D01*
X113269700Y-100390000D02*
X113458900Y-100309700D01*
X113167000Y-100390000D02*
X113269700Y-100390000D01*
X112917000Y-100390000D02*
X113167000Y-100390000D01*
X112532000Y-100520000D02*
X112917000Y-100390000D01*
X113684200Y-95371000D02*
X113713300Y-95124500D01*
X113678000Y-95424100D02*
X113684200Y-95371000D01*
X113644200Y-95525400D02*
X113678000Y-95424100D01*
X113617200Y-95571900D02*
X113644200Y-95525400D01*
X113617100Y-95571900D02*
X113617200Y-95571900D01*
X138576700Y-108000500D02*
X137505400Y-105578500D01*
X139011800Y-108332000D02*
X138576700Y-108000500D01*
X139560000Y-109600000D02*
X139011800Y-108332000D01*
X113779000Y-97193400D02*
X113613800Y-96526300D01*
X113788300Y-97231000D02*
X113779000Y-97193400D01*
X113797500Y-97306400D02*
X113788300Y-97231000D01*
X113797500Y-97345000D02*
X113797500Y-97306400D01*
X113797500Y-97930700D02*
X113797500Y-97345000D01*
X139011800Y-68332000D02*
X136783500Y-68711000D01*
X139881500Y-69139300D02*
X139011800Y-68332000D01*
X134244500Y-99753400D02*
X135284500Y-98617100D01*
X136656400Y-78645200D02*
X136511800Y-78332000D01*
X139552000Y-71418700D02*
X139252000Y-71718700D01*
X139552000Y-71168700D02*
X139552000Y-71418700D01*
X139552000Y-71158600D02*
X139552000Y-71168700D01*
X139553700Y-71138100D02*
X139552000Y-71158600D01*
X139011800Y-70832000D02*
X139553700Y-71138100D01*
X139881500Y-69139300D02*
X139011800Y-70832000D01*
X138156200Y-73118700D02*
X138152000Y-72818700D01*
X138156200Y-73368700D02*
X138156200Y-73118700D01*
X138156200Y-75729700D02*
X138156200Y-73368700D01*
X122918000Y-105408400D02*
X124011800Y-105832000D01*
X122899100Y-105402700D02*
X122918000Y-105408400D01*
X122862000Y-105390000D02*
X122899100Y-105402700D01*
X122844400Y-105383100D02*
X122862000Y-105390000D01*
X119011800Y-103332000D02*
X122844400Y-105383100D01*
X118291300Y-103600000D02*
X119011800Y-103332000D01*
X112917000Y-96580000D02*
X112532000Y-96710000D01*
X113167000Y-96580000D02*
X112917000Y-96580000D01*
X113190100Y-96579100D02*
X113197900Y-96578100D01*
X113174900Y-96580000D02*
X113190100Y-96579100D01*
X113167000Y-96580000D02*
X113174900Y-96580000D01*
X113613800Y-96526300D02*
X113197900Y-96578100D01*
X112917000Y-95570000D02*
X112532000Y-95440000D01*
X113167000Y-95570000D02*
X112917000Y-95570000D01*
X113169100Y-95570000D02*
X113167000Y-95570000D01*
X113617100Y-95571900D02*
X113169100Y-95570000D01*
X112147000Y-94040000D02*
X112532000Y-94170000D01*
X111897000Y-94040000D02*
X112147000Y-94040000D01*
X111878400Y-94040000D02*
X111897000Y-94040000D01*
X111841700Y-94034500D02*
X111878400Y-94040000D01*
X111823700Y-94029000D02*
X111841700Y-94034500D01*
X111760000Y-94009500D02*
X111823700Y-94029000D01*
X111694500Y-93989400D02*
X111760000Y-94009500D01*
X111571600Y-93930100D02*
X111694500Y-93989400D01*
X111516000Y-93891900D02*
X111571600Y-93930100D01*
X110990700Y-93532000D02*
X111516000Y-93891900D01*
X112917000Y-97930700D02*
X112532000Y-97980000D01*
X113167000Y-97930700D02*
X112917000Y-97930700D01*
X113797500Y-97930700D02*
X113167000Y-97930700D01*
X127788100Y-98646200D02*
X127017000Y-100292300D01*
X112917000Y-99380000D02*
X112532000Y-99250000D01*
X113167000Y-99380000D02*
X112917000Y-99380000D01*
X113172500Y-99380000D02*
X113167000Y-99380000D01*
X113183000Y-99380500D02*
X113172500Y-99380000D01*
X113188200Y-99380900D02*
X113183000Y-99380500D01*
X113615300Y-99417300D02*
X113188200Y-99380900D01*
X121909000Y-77414200D02*
X122951100Y-77865200D01*
X121776000Y-77366300D02*
X121731000Y-77356200D01*
X121865700Y-77395500D02*
X121776000Y-77366300D01*
X121909000Y-77414200D02*
X121865700Y-77395500D01*
X119204700Y-76788700D02*
X121731000Y-77356200D01*
X119033600Y-76764800D02*
X118975000Y-76766300D01*
X119149000Y-76776100D02*
X119033600Y-76764800D01*
X119204700Y-76788700D02*
X119149000Y-76776100D01*
X116538600Y-76831600D02*
X118975000Y-76766300D01*
X116460400Y-76833700D02*
X116538600Y-76831600D01*
X116306000Y-76813700D02*
X116460400Y-76833700D01*
X116230500Y-76791600D02*
X116306000Y-76813700D01*
X110800000Y-75200000D02*
X116230500Y-76791600D01*
X124999000Y-80671700D02*
X125331400Y-82719100D01*
X124767400Y-80148700D02*
X124611800Y-80031800D01*
X124967800Y-80479800D02*
X124767400Y-80148700D01*
X124999000Y-80671700D02*
X124967800Y-80479800D01*
X123411800Y-79132200D02*
X124611800Y-80031800D01*
X123246900Y-79008500D02*
X123411800Y-79132200D01*
X123041700Y-78650800D02*
X123246900Y-79008500D01*
X123018300Y-78446800D02*
X123041700Y-78650800D01*
X122951100Y-77865200D02*
X123018300Y-78446800D01*
X131924500Y-69489500D02*
X133715000Y-67608000D01*
X131851600Y-69566200D02*
X131924500Y-69489500D01*
X131674900Y-69686600D02*
X131851600Y-69566200D01*
X131575900Y-69726800D02*
X131674900Y-69686600D01*
X131135900Y-69905200D02*
X131575900Y-69726800D01*
X130875500Y-70053900D02*
X130804600Y-70124800D01*
X131043400Y-69942700D02*
X130875500Y-70053900D01*
X131135900Y-69905200D02*
X131043400Y-69942700D01*
X128304600Y-72624800D02*
X130804600Y-70124800D01*
X128233000Y-72703600D02*
X128211600Y-72732000D01*
X128279900Y-72649500D02*
X128233000Y-72703600D01*
X128304600Y-72624800D02*
X128279900Y-72649500D01*
X127312000Y-73932000D02*
X128211600Y-72732000D01*
X127269300Y-73989000D02*
X127312000Y-73932000D01*
X127169100Y-74089200D02*
X127269300Y-73989000D01*
X127111800Y-74132200D02*
X127169100Y-74089200D01*
X125911800Y-75031800D02*
X127111800Y-74132200D01*
X125754300Y-75175000D02*
X125711600Y-75232000D01*
X125854500Y-75074800D02*
X125754300Y-75175000D01*
X125911800Y-75031800D02*
X125854500Y-75074800D01*
X124812000Y-76432000D02*
X125711600Y-75232000D01*
X124768500Y-76490000D02*
X124812000Y-76432000D01*
X124665600Y-76592300D02*
X124768500Y-76490000D01*
X124608000Y-76635000D02*
X124665600Y-76592300D01*
X122951100Y-77865200D02*
X124608000Y-76635000D01*
X112904400Y-66038400D02*
X112200000Y-66100000D01*
X113065100Y-65846900D02*
X112904400Y-66038400D01*
X113103300Y-65801500D02*
X113065100Y-65846900D01*
X113211800Y-65754600D02*
X113103300Y-65801500D01*
X113270800Y-65758000D02*
X113211800Y-65754600D01*
X118298100Y-66044400D02*
X113270800Y-65758000D01*
X120469800Y-65471600D02*
X120724200Y-65267000D01*
X119895300Y-65780800D02*
X120469800Y-65471600D01*
X119274100Y-65980100D02*
X119895300Y-65780800D01*
X118626900Y-66062900D02*
X119274100Y-65980100D01*
X118298100Y-66044400D02*
X118626900Y-66062900D01*
X122440300Y-63887500D02*
X120724200Y-65267000D01*
D28*
X115210800Y-92410000D02*
X112017900Y-93140300D01*
X115232500Y-92405000D02*
X115210800Y-92410000D01*
X115277600Y-92399900D02*
X115232500Y-92405000D01*
X115300000Y-92399900D02*
X115277600Y-92399900D01*
X116380000Y-92399900D02*
X115300000Y-92399900D01*
X116404300Y-92400600D02*
X116380000Y-92399900D01*
X117719400Y-92480600D02*
X116404300Y-92400600D01*
X117790400Y-92484900D02*
X117719400Y-92480600D01*
X117915600Y-92553100D02*
X117790400Y-92484900D01*
X117957600Y-92610200D02*
X117915600Y-92553100D01*
X118417300Y-93234200D02*
X117957600Y-92610200D01*
X119268200Y-93555400D02*
X119394500Y-93501600D01*
X118992500Y-93574100D02*
X119268200Y-93555400D01*
X118726000Y-93501000D02*
X118992500Y-93574100D01*
X118499300Y-93345400D02*
X118726000Y-93501000D01*
X118417300Y-93234200D02*
X118499300Y-93345400D01*
X119394500Y-93501500D02*
X119394500Y-93501600D01*
X119418800Y-93491200D02*
X119394500Y-93501500D01*
X119470000Y-93479000D02*
X119418800Y-93491200D01*
X119496300Y-93477300D02*
X119470000Y-93479000D01*
X119595900Y-93470700D02*
X119496300Y-93477300D01*
X119617000Y-93470000D02*
X119595900Y-93470700D01*
X120162400Y-93470000D02*
X119617000Y-93470000D01*
X120162600Y-93470000D02*
X120162400Y-93470000D01*
X120687200Y-93470300D02*
X120162600Y-93470000D01*
X120692900Y-93470300D02*
X120687200Y-93470300D01*
X120704600Y-93470700D02*
X120692900Y-93470300D01*
X120710700Y-93471200D02*
X120704600Y-93470700D01*
X120810100Y-93478600D02*
X120710700Y-93471200D01*
X120836900Y-93480600D02*
X120810100Y-93478600D01*
X120888800Y-93493600D02*
X120836900Y-93480600D01*
X120913300Y-93504400D02*
X120888800Y-93493600D01*
X120920700Y-93507700D02*
X120913300Y-93504400D01*
X121358600Y-93583600D02*
X121501800Y-93536600D01*
X121058200Y-93568500D02*
X121358600Y-93583600D01*
X120920700Y-93507700D02*
X121058200Y-93568500D01*
X124658400Y-92500900D02*
X121501800Y-93536600D01*
X124687500Y-92491400D02*
X124658400Y-92500900D01*
X124743200Y-92475600D02*
X124687500Y-92491400D01*
X124771400Y-92468700D02*
X124743200Y-92475600D01*
X125565700Y-92275000D02*
X124771400Y-92468700D01*
X125578500Y-92272000D02*
X125565700Y-92275000D01*
X129129700Y-91451300D02*
X125578500Y-92272000D01*
X129229100Y-91428300D02*
X129129700Y-91451300D01*
X129433600Y-91443800D02*
X129229100Y-91428300D01*
X129528800Y-91481800D02*
X129433600Y-91443800D01*
X131199000Y-92147800D02*
X129528800Y-91481800D01*
X132080200Y-92006100D02*
X132165800Y-91903400D01*
X131852200Y-92149400D02*
X132080200Y-92006100D01*
X131591200Y-92215300D02*
X131852200Y-92149400D01*
X131324100Y-92197600D02*
X131591200Y-92215300D01*
X131199000Y-92147800D02*
X131324100Y-92197600D01*
X132173800Y-91894000D02*
X132165800Y-91903400D01*
X132309900Y-91731100D02*
X132173800Y-91894000D01*
X132704200Y-91571600D02*
X132309900Y-91731100D01*
X132914900Y-91593900D02*
X132704200Y-91571600D01*
X134364300Y-91746600D02*
X132914900Y-91593900D01*
X134022200Y-88314700D02*
X136235000Y-89649900D01*
X134001600Y-88302200D02*
X134022200Y-88314700D01*
X133962400Y-88274500D02*
X134001600Y-88302200D01*
X133944300Y-88259700D02*
X133962400Y-88274500D01*
X132855900Y-87370000D02*
X133944300Y-88259700D01*
X132748700Y-87282500D02*
X132855900Y-87370000D01*
X132621100Y-87036100D02*
X132748700Y-87282500D01*
X132611500Y-86897700D02*
X132621100Y-87036100D01*
X132359900Y-83273100D02*
X132611500Y-86897700D01*
X132359900Y-83273100D02*
X132357300Y-83244000D01*
X131407000Y-74112600D02*
X132357300Y-83244000D01*
X131384100Y-73892400D02*
X131407000Y-74112600D01*
X131430900Y-73451400D02*
X131384100Y-73892400D01*
X131566800Y-73033000D02*
X131430900Y-73451400D01*
X131788200Y-72648700D02*
X131566800Y-73033000D01*
X131936400Y-72483700D02*
X131788200Y-72648700D01*
X133487400Y-70758000D02*
X131936400Y-72483700D01*
X134947900Y-76509100D02*
X135276500Y-75365300D01*
X134912400Y-76716600D02*
X134916000Y-76787200D01*
X134928600Y-76576300D02*
X134912400Y-76716600D01*
X134947900Y-76509100D02*
X134928600Y-76576300D01*
X135251000Y-83343400D02*
X134916000Y-76787200D01*
X135251100Y-83344800D02*
X135251000Y-83343400D01*
X135457600Y-87259200D02*
X135251100Y-83344800D01*
X134050000Y-87202400D02*
X134368300Y-87741000D01*
X134012400Y-87138700D02*
X134050000Y-87202400D01*
X133966700Y-86998000D02*
X134012400Y-87138700D01*
X133959800Y-86924400D02*
X133966700Y-86998000D01*
X133946900Y-86788400D02*
X133959800Y-86924400D01*
X133946900Y-86788400D02*
X133944000Y-86762600D01*
X132246900Y-74062400D02*
X133944000Y-86762600D01*
X132226200Y-73908100D02*
X132246900Y-74062400D01*
X132260800Y-73598200D02*
X132226200Y-73908100D01*
X132370500Y-73303800D02*
X132260800Y-73598200D01*
X132547000Y-73046700D02*
X132370500Y-73303800D01*
X132663800Y-72943300D02*
X132547000Y-73046700D01*
X134210000Y-71574000D02*
X132663800Y-72943300D01*
X134415200Y-71339400D02*
X134462100Y-71245800D01*
X134288500Y-71504400D02*
X134415200Y-71339400D01*
X134210000Y-71574000D02*
X134288500Y-71504400D01*
X134526100Y-71117900D02*
X134462100Y-71245800D01*
X134616000Y-70938400D02*
X134526100Y-71117900D01*
X134964000Y-70737200D02*
X134616000Y-70938400D01*
X135164600Y-70749000D02*
X134964000Y-70737200D01*
X135772700Y-70784700D02*
X135164600Y-70749000D01*
X132665400Y-74022600D02*
X134626800Y-86861500D01*
X132631900Y-73802600D02*
X132665400Y-74022600D01*
X132788500Y-73386700D02*
X132631900Y-73802600D01*
X132958000Y-73244100D02*
X132788500Y-73386700D01*
X135125300Y-71417800D02*
X132958000Y-73244100D01*
X131826500Y-74085400D02*
X133279900Y-86851300D01*
X131803500Y-73883100D02*
X131826500Y-74085400D01*
X131854500Y-73480300D02*
X131803500Y-73883100D01*
X132001000Y-73098300D02*
X131854500Y-73480300D01*
X132232300Y-72764600D02*
X132001000Y-73098300D01*
X132385300Y-72628900D02*
X132232300Y-72764600D01*
X133931600Y-71259600D02*
X132385300Y-72628900D01*
X134057700Y-71115400D02*
X134086600Y-71057900D01*
X133979900Y-71216800D02*
X134057700Y-71115400D01*
X133931600Y-71259600D02*
X133979900Y-71216800D01*
X134150600Y-70930000D02*
X134086600Y-71057900D01*
X134251500Y-70728400D02*
X134150600Y-70930000D01*
X134595500Y-70439000D02*
X134251500Y-70728400D01*
X134811600Y-70373900D02*
X134595500Y-70439000D01*
X135579900Y-70143000D02*
X134811600Y-70373900D01*
X135627000Y-70128900D02*
X135579900Y-70143000D01*
X135724400Y-70114600D02*
X135627000Y-70128900D01*
X135773600Y-70114700D02*
X135724400Y-70114600D01*
X137011900Y-70116300D02*
X135773600Y-70114700D01*
X128898600Y-106563900D02*
X128760000Y-109600000D01*
X128899900Y-106461300D02*
X128898200Y-106426300D01*
X128900200Y-106529700D02*
X128899900Y-106461300D01*
X128898600Y-106563900D02*
X128900200Y-106529700D01*
X128701000Y-102689000D02*
X128898200Y-106426300D01*
X128700000Y-102650000D02*
X128701000Y-102689000D01*
X128700000Y-101150000D02*
X128700000Y-102650000D01*
X128700000Y-101133500D02*
X128700000Y-101150000D01*
X128701400Y-101101200D02*
X128700000Y-101133500D01*
X128702800Y-101085800D02*
X128701400Y-101101200D01*
X128801900Y-99948400D02*
X128702800Y-101085800D01*
X128810800Y-99845100D02*
X128801900Y-99948400D01*
X128862600Y-99642800D02*
X128810800Y-99845100D01*
X128904600Y-99547200D02*
X128862600Y-99642800D01*
X130261700Y-96462000D02*
X128904600Y-99547200D01*
X130316200Y-96273800D02*
X130317200Y-96208300D01*
X130288100Y-96402000D02*
X130316200Y-96273800D01*
X130261700Y-96462000D02*
X130288100Y-96402000D01*
X130317200Y-96208200D02*
X130317200Y-96208300D01*
X130318400Y-96133200D02*
X130317200Y-96208200D01*
X130354900Y-95986800D02*
X130318400Y-96133200D01*
X130389600Y-95919100D02*
X130354900Y-95986800D01*
X130676000Y-95361000D02*
X130389600Y-95919100D01*
X129134900Y-102746400D02*
X131300000Y-109600000D01*
X129127500Y-102723300D02*
X129134900Y-102746400D01*
X129120000Y-102674600D02*
X129127500Y-102723300D01*
X129120000Y-102650000D02*
X129120000Y-102674600D01*
X129120000Y-101150000D02*
X129120000Y-102650000D01*
X129120000Y-101142800D02*
X129120000Y-101150000D01*
X129120600Y-101128900D02*
X129120000Y-101142800D01*
X129121200Y-101122200D02*
X129120600Y-101128900D01*
X129220300Y-99984800D02*
X129121200Y-101122200D01*
X129226900Y-99908400D02*
X129220300Y-99984800D01*
X129267800Y-99759200D02*
X129226900Y-99908400D01*
X129301400Y-99689500D02*
X129267800Y-99759200D01*
X130974200Y-96219100D02*
X129301400Y-99689500D01*
X132267300Y-99988900D02*
X131166500Y-100029500D01*
X132372100Y-99984900D02*
X132267300Y-99988900D01*
X132575100Y-100042500D02*
X132372100Y-99984900D01*
X132662800Y-100101200D02*
X132575100Y-100042500D01*
X133541000Y-100689700D02*
X132662800Y-100101200D01*
X133569900Y-100709600D02*
X133541000Y-100689700D01*
X134231900Y-100947600D02*
X134465400Y-100902600D01*
X133764400Y-100846900D02*
X134231900Y-100947600D01*
X133569900Y-100709600D02*
X133764400Y-100846900D01*
X135056400Y-100788900D02*
X134465400Y-100902600D01*
X135239600Y-100753800D02*
X135056400Y-100788900D01*
X135606700Y-100804000D02*
X135239600Y-100753800D01*
X135940400Y-100969800D02*
X135606700Y-100804000D01*
X136203200Y-101233800D02*
X135940400Y-100969800D01*
X136285000Y-101400100D02*
X136203200Y-101233800D01*
X137095000Y-103044800D02*
X136285000Y-101400100D01*
X137106300Y-103069000D02*
X137095000Y-103044800D01*
X137819500Y-104681500D02*
X137106300Y-103069000D01*
X137827200Y-104698800D02*
X137819500Y-104681500D01*
X137840300Y-104733900D02*
X137827200Y-104698800D01*
X137845700Y-104751200D02*
X137840300Y-104733900D01*
X138085800Y-105522400D02*
X137845700Y-104751200D01*
X138141200Y-105657600D02*
X138167300Y-105698900D01*
X138100200Y-105568600D02*
X138141200Y-105657600D01*
X138085800Y-105522400D02*
X138100200Y-105568600D01*
X138435800Y-106124800D02*
X138167300Y-105698900D01*
X138445200Y-106139800D02*
X138435800Y-106124800D01*
X138463000Y-106171900D02*
X138445200Y-106139800D01*
X138470700Y-106187900D02*
X138463000Y-106171900D01*
X139178100Y-107655200D02*
X138470700Y-106187900D01*
X139273300Y-107781300D02*
X139319100Y-107808300D01*
X139201300Y-107703300D02*
X139273300Y-107781300D01*
X139178100Y-107655200D02*
X139201300Y-107703300D01*
X139319200Y-107808100D02*
X139319100Y-107808300D01*
X139340900Y-107821500D02*
X139319200Y-107808100D01*
X142100000Y-109600000D02*
X139340900Y-107821500D01*
X133050100Y-100896400D02*
X132291900Y-100654600D01*
X133273500Y-100967800D02*
X133050100Y-100896400D01*
X133616500Y-101284800D02*
X133273500Y-100967800D01*
X133704900Y-101501000D02*
X133616500Y-101284800D01*
X137020000Y-109600000D02*
X133704900Y-101501000D01*
X109833600Y-72442600D02*
X110151200Y-71250100D01*
X109799900Y-72635100D02*
X109799900Y-72700000D01*
X109816900Y-72505100D02*
X109799900Y-72635100D01*
X109833600Y-72442600D02*
X109816900Y-72505100D01*
X109799900Y-75200000D02*
X109799900Y-72700000D01*
X110411800Y-76137200D02*
X110578300Y-76175200D01*
X110123800Y-75956200D02*
X110411800Y-76137200D01*
X109911900Y-75690300D02*
X110123800Y-75956200D01*
X109799800Y-75369200D02*
X109911900Y-75690300D01*
X109799900Y-75200000D02*
X109799800Y-75369200D01*
X116146000Y-77440900D02*
X110578300Y-76175200D01*
X116419300Y-77481900D02*
X116511800Y-77482000D01*
X116236000Y-77461400D02*
X116419300Y-77481900D01*
X116146000Y-77440900D02*
X116236000Y-77461400D01*
X116606900Y-77482000D02*
X116511800Y-77482000D01*
X116791400Y-77523700D02*
X116606900Y-77482000D01*
X116877500Y-77564700D02*
X116791400Y-77523700D01*
X118659700Y-78414100D02*
X116877500Y-77564700D01*
X118805800Y-78468600D02*
X118856700Y-78477900D01*
X118707100Y-78436700D02*
X118805800Y-78468600D01*
X118659700Y-78414100D02*
X118707100Y-78436700D01*
X118986100Y-78501700D02*
X118856700Y-78477900D01*
X119226300Y-78606400D02*
X118986100Y-78501700D01*
X119437900Y-78764300D02*
X119226300Y-78606400D01*
X119606800Y-78964600D02*
X119437900Y-78764300D01*
X119666800Y-79082200D02*
X119606800Y-78964600D01*
X120754300Y-81217800D02*
X119666800Y-79082200D01*
X120858600Y-81379900D02*
X120903100Y-81425400D01*
X120783300Y-81274800D02*
X120858600Y-81379900D01*
X120754300Y-81217800D02*
X120783300Y-81274800D01*
X124620500Y-85238600D02*
X120903100Y-81425400D01*
X124650700Y-85269600D02*
X124620500Y-85238600D01*
X124705100Y-85338300D02*
X124650700Y-85269600D01*
X124728300Y-85374600D02*
X124705100Y-85338300D01*
X125483500Y-86557400D02*
X124728300Y-85374600D01*
X125582700Y-86686900D02*
X125623000Y-86724300D01*
X125513100Y-86603700D02*
X125582700Y-86686900D01*
X125483500Y-86557400D02*
X125513100Y-86603700D01*
X126578500Y-87607300D02*
X125623000Y-86724300D01*
X126804400Y-87762600D02*
X126891600Y-87791100D01*
X126646400Y-87669900D02*
X126804400Y-87762600D01*
X126578500Y-87607300D02*
X126646400Y-87669900D01*
X131891400Y-89423800D02*
X126891600Y-87791100D01*
X131930100Y-89436400D02*
X131891400Y-89423800D01*
X132005400Y-89471700D02*
X131930100Y-89436400D01*
X132040100Y-89493500D02*
X132005400Y-89471700D01*
X134721000Y-91179400D02*
X132040100Y-89493500D01*
X134828700Y-91247300D02*
X134721000Y-91179400D01*
X134979400Y-91452200D02*
X134828700Y-91247300D01*
X135011800Y-91574600D02*
X134979400Y-91452200D01*
X135293200Y-92633900D02*
X135011800Y-91574600D01*
X135326200Y-92758000D02*
X135293200Y-92633900D01*
X135315800Y-93014900D02*
X135326200Y-92758000D01*
X135272900Y-93136100D02*
X135315800Y-93014900D01*
X134664200Y-94853300D02*
X135272900Y-93136100D01*
X134656700Y-94874400D02*
X134664200Y-94853300D01*
X134639600Y-94914200D02*
X134656700Y-94874400D01*
X134629500Y-94934000D02*
X134639600Y-94914200D01*
X134183200Y-95808600D02*
X134629500Y-94934000D01*
X135542900Y-100376600D02*
X141981800Y-101530000D01*
X135092800Y-100355100D02*
X134944100Y-100387100D01*
X135393500Y-100349900D02*
X135092800Y-100355100D01*
X135542900Y-100376600D02*
X135393500Y-100349900D01*
X134406000Y-100503000D02*
X134944100Y-100387100D01*
X134248500Y-100536900D02*
X134406000Y-100503000D01*
X133933300Y-100472500D02*
X134248500Y-100536900D01*
X133802400Y-100380000D02*
X133933300Y-100472500D01*
X133802500Y-100379900D02*
X133802400Y-100380000D01*
X133795000Y-100374700D02*
X133802500Y-100379900D01*
X132915900Y-99760900D02*
X133795000Y-100374700D01*
X132914600Y-99760000D02*
X132915900Y-99760900D01*
X132285800Y-99322300D02*
X132914600Y-99760000D01*
D26*
X120927800Y-66407400D02*
X110800000Y-72700000D01*
X120927800Y-66407400D02*
X121066900Y-66317400D01*
X123137900Y-64924900D02*
X121066900Y-66317400D01*
X123318500Y-64780600D02*
X123369300Y-64724000D01*
X123201400Y-64882300D02*
X123318500Y-64780600D01*
X123137900Y-64924900D02*
X123201400Y-64882300D01*
X126871600Y-60834600D02*
X123369300Y-64724000D01*
X127000000Y-60592700D02*
X127000000Y-60500000D01*
X126933600Y-60765700D02*
X127000000Y-60592700D01*
X126871600Y-60834600D02*
X126933600Y-60765700D01*
X127000000Y-60000000D02*
X127000000Y-60500000D01*
X127500000Y-59500000D02*
X127000000Y-60000000D01*
D28*
X127677000Y-97826000D02*
X129660200Y-96197400D01*
X127614400Y-97877400D02*
X127677000Y-97826000D01*
X127478200Y-97960600D02*
X127614400Y-97877400D01*
X127404100Y-97992800D02*
X127478200Y-97960600D01*
X122865300Y-99964600D02*
X127404100Y-97992800D01*
X122820300Y-99984100D02*
X122865300Y-99964600D01*
X122726500Y-100009600D02*
X122820300Y-99984100D01*
X122677600Y-100015400D02*
X122726500Y-100009600D01*
X120798800Y-100239300D02*
X122677600Y-100015400D01*
X120795900Y-100239600D02*
X120798800Y-100239300D01*
X120790000Y-100240000D02*
X120795900Y-100239600D01*
X120787000Y-100240000D02*
X120790000Y-100240000D01*
X120687000Y-100240000D02*
X120787000Y-100240000D01*
X120152000Y-100520000D02*
X120687000Y-100240000D01*
X117600000Y-100900000D02*
X117160000Y-101300000D01*
X117700000Y-100900000D02*
X117600000Y-100900000D01*
X117705500Y-100899800D02*
X117700000Y-100900000D01*
X119511500Y-100800200D02*
X117705500Y-100899800D01*
X119517000Y-100800000D02*
X119511500Y-100800200D01*
X119617000Y-100800000D02*
X119517000Y-100800000D01*
X120152000Y-100520000D02*
X119617000Y-100800000D01*
X120687000Y-98970000D02*
X120152000Y-99250000D01*
X120787000Y-98970000D02*
X120687000Y-98970000D01*
X120800200Y-98969200D02*
X120804700Y-98968400D01*
X120791400Y-98970000D02*
X120800200Y-98969200D01*
X120787000Y-98970000D02*
X120791400Y-98970000D01*
X122186700Y-98719200D02*
X120804700Y-98968400D01*
X122577600Y-98577200D02*
X122685700Y-98488400D01*
X122324100Y-98694400D02*
X122577600Y-98577200D01*
X122186700Y-98719200D02*
X122324100Y-98694400D01*
X125564800Y-96120400D02*
X122685700Y-98488400D01*
X126058800Y-95494500D02*
X126123100Y-95231900D01*
X125772500Y-95949700D02*
X126058800Y-95494500D01*
X125564800Y-96120400D02*
X125772500Y-95949700D01*
X126123000Y-95231900D02*
X126123100Y-95231900D01*
X126166200Y-95055100D02*
X126123000Y-95231900D01*
X126393100Y-94770000D02*
X126166200Y-95055100D01*
X126555800Y-94688200D02*
X126393100Y-94770000D01*
X129684900Y-93115200D02*
X126555800Y-94688200D01*
X129889500Y-93012200D02*
X129684900Y-93115200D01*
X130344000Y-92935000D02*
X129889500Y-93012200D01*
X130571200Y-92964600D02*
X130344000Y-92935000D01*
X131371600Y-93068700D02*
X130571200Y-92964600D01*
X131482400Y-93083000D02*
X131371600Y-93068700D01*
X131690600Y-93169000D02*
X131482400Y-93083000D01*
X131779400Y-93237200D02*
X131690600Y-93169000D01*
X132052800Y-93446900D02*
X131779400Y-93237200D01*
X132126600Y-93499900D02*
X132153500Y-93516700D01*
X132077400Y-93465800D02*
X132126600Y-93499900D01*
X132052800Y-93446900D02*
X132077400Y-93465800D01*
X133402700Y-94296100D02*
X132153500Y-93516700D01*
X133434900Y-94315100D02*
X133445500Y-94320700D01*
X133413600Y-94302900D02*
X133434900Y-94315100D01*
X133402700Y-94296100D02*
X133413600Y-94302900D01*
X134032700Y-94629500D02*
X133445500Y-94320700D01*
X117600000Y-99475000D02*
X117160000Y-99700000D01*
X117700000Y-99475000D02*
X117600000Y-99475000D01*
X119517000Y-99475000D02*
X117700000Y-99475000D01*
X119617000Y-99475000D02*
X119517000Y-99475000D01*
X120152000Y-99250000D02*
X119617000Y-99475000D01*
X120687000Y-98260000D02*
X120152000Y-97980000D01*
X120787000Y-98260000D02*
X120687000Y-98260000D01*
X120791800Y-98260100D02*
X120787000Y-98260000D01*
X121961500Y-98315700D02*
X120791800Y-98260100D01*
X122322400Y-98243200D02*
X122418300Y-98164500D01*
X122085500Y-98321600D02*
X122322400Y-98243200D01*
X121961500Y-98315700D02*
X122085500Y-98321600D01*
X125299700Y-95800200D02*
X122418300Y-98164500D01*
X125671400Y-95329400D02*
X125719300Y-95133400D01*
X125455600Y-95672400D02*
X125671400Y-95329400D01*
X125299700Y-95800200D02*
X125455600Y-95672400D01*
X125719000Y-95133300D02*
X125719300Y-95133400D01*
X125783500Y-94868600D02*
X125719000Y-95133300D01*
X126123900Y-94440200D02*
X125783500Y-94868600D01*
X126368200Y-94317100D02*
X126123900Y-94440200D01*
X129495700Y-92742000D02*
X126368200Y-94317100D01*
X129756900Y-92610700D02*
X129495700Y-92742000D01*
X130331800Y-92512300D02*
X129756900Y-92610700D01*
X130621100Y-92549300D02*
X130331800Y-92512300D01*
X131423200Y-92651900D02*
X130621100Y-92549300D01*
X131591200Y-92673500D02*
X131423200Y-92651900D01*
X131902400Y-92802000D02*
X131591200Y-92673500D01*
X132035000Y-92903900D02*
X131902400Y-92802000D01*
X132308400Y-93113600D02*
X132035000Y-92903900D01*
X132456400Y-93206900D02*
X132509900Y-93228300D01*
X132354400Y-93148900D02*
X132456400Y-93206900D01*
X132308400Y-93113600D02*
X132354400Y-93148900D01*
X133757400Y-93727700D02*
X132509900Y-93228300D01*
X117600000Y-98040000D02*
X117160000Y-98100000D01*
X117700000Y-98040000D02*
X117600000Y-98040000D01*
X119517000Y-98040000D02*
X117700000Y-98040000D01*
X119617000Y-98040000D02*
X119517000Y-98040000D01*
X120152000Y-97980000D02*
X119617000Y-98040000D01*
X124442300Y-93990900D02*
X125129100Y-93935700D01*
X124306000Y-94011800D02*
X124262000Y-94025300D01*
X124396400Y-93994600D02*
X124306000Y-94011800D01*
X124442300Y-93990900D02*
X124396400Y-93994600D01*
X122246500Y-94641100D02*
X124262000Y-94025300D01*
X121864800Y-94864300D02*
X121783400Y-94988900D01*
X122103200Y-94685000D02*
X121864800Y-94864300D01*
X122246500Y-94641100D02*
X122103200Y-94685000D01*
X120870700Y-96384700D02*
X121783400Y-94988900D01*
X120856800Y-96405900D02*
X120870700Y-96384700D01*
X120812300Y-96430000D02*
X120856800Y-96405900D01*
X120787000Y-96430000D02*
X120812300Y-96430000D01*
X120687000Y-96430000D02*
X120787000Y-96430000D01*
X120152000Y-96710000D02*
X120687000Y-96430000D01*
X117600000Y-96750100D02*
X117160000Y-96500000D01*
X117700000Y-96750100D02*
X117600000Y-96750100D01*
X119517000Y-96750100D02*
X117700000Y-96750100D01*
X119617000Y-96750100D02*
X119517000Y-96750100D01*
X120152000Y-96710000D02*
X119617000Y-96750100D01*
X127206200Y-97640400D02*
X122598300Y-99350100D01*
X127426200Y-97519200D02*
X127484900Y-97458700D01*
X127285500Y-97610900D02*
X127426200Y-97519200D01*
X127206200Y-97640400D02*
X127285500Y-97610900D01*
X130373500Y-94485000D02*
X127484900Y-97458700D01*
X124990800Y-95513300D02*
X121993300Y-97646500D01*
X125279700Y-95180200D02*
X125315300Y-95034800D01*
X125112300Y-95426900D02*
X125279700Y-95180200D01*
X124990800Y-95513300D02*
X125112300Y-95426900D01*
X125315200Y-95034800D02*
X125315300Y-95034800D01*
X125355100Y-94872000D02*
X125315200Y-95034800D01*
X125496100Y-94572100D02*
X125355100Y-94872000D01*
X125695600Y-94303800D02*
X125496100Y-94572100D01*
X125944600Y-94080700D02*
X125695600Y-94303800D01*
X126087500Y-93996900D02*
X125944600Y-94080700D01*
X127325900Y-93269800D02*
X126087500Y-93996900D01*
X127329900Y-93267400D02*
X127325900Y-93269800D01*
X129280600Y-92104100D02*
X127329900Y-93267400D01*
X124429600Y-100266700D02*
X124067100Y-103414000D01*
X133830000Y-108950000D02*
X134480000Y-109600000D01*
X133830000Y-108850000D02*
X133830000Y-108950000D01*
X133827400Y-108826100D02*
X133824900Y-108818400D01*
X133830000Y-108842000D02*
X133827400Y-108826100D01*
X133830000Y-108850000D02*
X133830000Y-108842000D01*
X131639000Y-102263900D02*
X133824900Y-108818400D01*
X131632600Y-102244500D02*
X131639000Y-102263900D01*
X131621200Y-102205900D02*
X131632600Y-102244500D01*
X131616200Y-102186500D02*
X131621200Y-102205900D01*
X131324100Y-101051200D02*
X131616200Y-102186500D01*
X131130400Y-100783900D02*
X131018600Y-100761300D01*
X131295800Y-100941000D02*
X131130400Y-100783900D01*
X131324100Y-101051200D02*
X131295800Y-100941000D01*
X130923300Y-100742100D02*
X131018600Y-100761300D01*
X130748300Y-100655600D02*
X130923300Y-100742100D01*
X130674300Y-100590900D02*
X130748300Y-100655600D01*
X130067200Y-100058600D02*
X130674300Y-100590900D01*
D27*
X130416300Y-99532100D02*
X130067200Y-100058600D01*
X130469200Y-99452400D02*
X130416300Y-99532100D01*
X130605700Y-99319100D02*
X130469200Y-99452400D01*
X130685700Y-99268600D02*
X130605700Y-99319100D01*
X131805000Y-98561400D02*
X130685700Y-99268600D01*
X131828800Y-98546400D02*
X131805000Y-98561400D01*
X131878400Y-98519200D02*
X131828800Y-98546400D01*
X131904000Y-98507200D02*
X131878400Y-98519200D01*
X135904400Y-96633600D02*
X131904000Y-98507200D01*
X140067000Y-90254500D02*
X136521600Y-91735700D01*
X136521600Y-91735700D02*
X135904400Y-96633600D01*
X132140400Y-88822200D02*
X127155500Y-86983000D01*
X132205500Y-88846300D02*
X132140400Y-88822200D01*
X132327500Y-88906400D02*
X132205500Y-88846300D01*
X132386100Y-88943200D02*
X132327500Y-88906400D01*
X135067000Y-90629100D02*
X132386100Y-88943200D01*
X135091900Y-90644700D02*
X135067000Y-90629100D01*
X135143000Y-90680200D02*
X135091900Y-90644700D01*
X135166800Y-90698400D02*
X135143000Y-90680200D01*
X136521600Y-91735700D02*
X135166800Y-90698400D01*
X139034400Y-67532200D02*
X136749000Y-67467700D01*
X139086800Y-67533700D02*
X139034400Y-67532200D01*
X139190400Y-67550300D02*
X139086800Y-67533700D01*
X139241300Y-67565500D02*
X139190400Y-67550300D01*
X142173900Y-68443400D02*
X139241300Y-67565500D01*
X139783300Y-77918600D02*
X141195300Y-76340600D01*
X135765000Y-76743800D02*
X139783300Y-77918600D01*
D28*
X130671800Y-83462300D02*
X131299300Y-87507000D01*
X130665600Y-83422400D02*
X130671800Y-83462300D01*
X130660900Y-83343900D02*
X130665600Y-83422400D01*
X130662200Y-83303800D02*
X130660900Y-83343900D01*
X130977100Y-73810300D02*
X130662200Y-83303800D01*
X130989400Y-73445900D02*
X130977100Y-73810300D01*
X131216300Y-72757700D02*
X130989400Y-73445900D01*
X131423200Y-72457500D02*
X131216300Y-72757700D01*
X132211500Y-71314700D02*
X131423200Y-72457500D01*
X132213700Y-71311600D02*
X132211500Y-71314700D01*
X134416900Y-68087600D02*
X132213700Y-71311600D01*
X134584500Y-67549400D02*
X134529900Y-67365800D01*
X134525100Y-67929500D02*
X134584500Y-67549400D01*
X134416900Y-68087600D02*
X134525100Y-67929500D01*
X134385100Y-66878800D02*
X134529900Y-67365800D01*
X134384100Y-66875100D02*
X134385100Y-66878800D01*
X133698400Y-64529800D02*
X134384100Y-66875100D01*
X120687000Y-95160000D02*
X120152000Y-95440000D01*
X120787000Y-95160000D02*
X120687000Y-95160000D01*
X120835900Y-95148900D02*
X120849100Y-95138300D01*
X120803900Y-95160000D02*
X120835900Y-95148900D01*
X120787000Y-95160000D02*
X120803900Y-95160000D01*
X121705600Y-94459000D02*
X120849100Y-95138300D01*
X121791700Y-94390700D02*
X121705600Y-94459000D01*
X121985000Y-94285700D02*
X121791700Y-94390700D01*
X122090300Y-94250200D02*
X121985000Y-94285700D01*
X124915700Y-93300600D02*
X122090300Y-94250200D01*
X124983300Y-93277900D02*
X124915700Y-93300600D01*
X125126800Y-93261900D02*
X124983300Y-93277900D01*
X125198000Y-93269300D02*
X125126800Y-93261900D01*
X125823900Y-93334000D02*
X125198000Y-93269300D01*
X117600000Y-95049900D02*
X117160000Y-94900000D01*
X117700000Y-95049900D02*
X117600000Y-95049900D01*
X118800000Y-95049900D02*
X117700000Y-95049900D01*
X118836100Y-95049900D02*
X118800000Y-95049900D01*
X118908600Y-95056100D02*
X118836100Y-95049900D01*
X118945200Y-95062400D02*
X118908600Y-95056100D01*
X119499900Y-95158500D02*
X118945200Y-95062400D01*
X119512700Y-95160000D02*
X119517000Y-95160000D01*
X119504200Y-95159200D02*
X119512700Y-95160000D01*
X119499900Y-95158500D02*
X119504200Y-95159200D01*
X119617000Y-95160000D02*
X119517000Y-95160000D01*
X120152000Y-95440000D02*
X119617000Y-95160000D01*
X120687000Y-94035800D02*
X120152000Y-94170000D01*
X120787000Y-94035800D02*
X120687000Y-94035800D01*
X121248900Y-94035800D02*
X120787000Y-94035800D01*
X121615600Y-93988000D02*
X121731400Y-93940600D01*
X121373400Y-94035800D02*
X121615600Y-93988000D01*
X121248900Y-94035800D02*
X121373400Y-94035800D01*
X121852800Y-93890700D02*
X121731400Y-93940600D01*
X121956500Y-93852100D02*
X121852800Y-93890700D01*
X124781900Y-92902500D02*
X121956500Y-93852100D01*
X124803000Y-92895300D02*
X124781900Y-92902500D01*
X124848700Y-92882100D02*
X124803000Y-92895300D01*
X124870900Y-92876700D02*
X124848700Y-92882100D01*
X125665200Y-92683100D02*
X124870900Y-92876700D01*
X125708300Y-92672600D02*
X125665200Y-92683100D01*
X125795600Y-92663100D02*
X125708300Y-92672600D01*
X125840100Y-92664200D02*
X125795600Y-92663100D01*
X126986700Y-92692000D02*
X125840100Y-92664200D01*
X117600000Y-93700000D02*
X117160000Y-93300000D01*
X117700000Y-93700000D02*
X117600000Y-93700000D01*
X117705400Y-93700000D02*
X117700000Y-93700000D01*
X117716300Y-93701200D02*
X117705400Y-93700000D01*
X117721600Y-93702400D02*
X117716300Y-93701200D01*
X118810500Y-93943600D02*
X117721600Y-93702400D01*
X119342700Y-93956300D02*
X119509800Y-93892700D01*
X118984700Y-93982300D02*
X119342700Y-93956300D01*
X118810500Y-93943600D02*
X118984700Y-93982300D01*
X119517000Y-93890000D02*
X119509800Y-93892700D01*
X119617000Y-93890000D02*
X119517000Y-93890000D01*
X120152000Y-94170000D02*
X119617000Y-93890000D01*
X129696500Y-89355400D02*
X118284200Y-89938700D01*
X129788100Y-89350800D02*
X129696500Y-89355400D01*
X129968900Y-89380600D02*
X129788100Y-89350800D01*
X130053300Y-89414200D02*
X129968900Y-89380600D01*
X131683400Y-90060700D02*
X130053300Y-89414200D01*
X124732600Y-103491200D02*
X125169800Y-99720400D01*
X124712400Y-103666600D02*
X124732600Y-103491200D01*
X124503400Y-103952300D02*
X124712400Y-103666600D01*
X124342000Y-104025000D02*
X124503400Y-103952300D01*
X123186000Y-104545000D02*
X124342000Y-104025000D01*
D29*
G36*
X137140925Y-54173007D02*
X142680297Y-55332087D01*
X146800000Y-57082349D01*
X146800000Y-108932145D01*
X142714916Y-110631072D01*
X142842368Y-110550188D01*
X143012789Y-110387898D01*
X143148442Y-110195598D01*
X143244160Y-109980612D01*
X143296298Y-109751128D01*
X143300051Y-109482334D01*
X143254342Y-109251484D01*
X143164664Y-109033908D01*
X143034433Y-108837895D01*
X142868610Y-108670911D01*
X142673511Y-108539314D01*
X142456567Y-108448120D01*
X142226041Y-108400800D01*
X141990715Y-108399157D01*
X141759551Y-108443253D01*
X141541355Y-108531410D01*
X141499685Y-108558678D01*
X140558781Y-107952177D01*
X141500000Y-107952177D01*
X141571661Y-107946463D01*
X141693205Y-107908822D01*
X141799451Y-107838811D01*
X141881986Y-107741972D01*
X141934275Y-107625974D01*
X141952177Y-107500000D01*
X141952177Y-105500000D01*
X141946463Y-105428339D01*
X141908822Y-105306795D01*
X141838811Y-105200549D01*
X141741972Y-105118014D01*
X141625974Y-105065725D01*
X141500000Y-105047823D01*
X139500000Y-105047823D01*
X139428339Y-105053537D01*
X139306795Y-105091178D01*
X139200549Y-105161189D01*
X139118014Y-105258028D01*
X139065725Y-105374026D01*
X139047823Y-105500000D01*
X139047823Y-106118500D01*
X138966329Y-105949464D01*
X138966296Y-105949394D01*
X138958596Y-105933395D01*
X138952318Y-105923070D01*
X138947675Y-105911920D01*
X138943998Y-105905178D01*
X138926198Y-105873078D01*
X138920006Y-105864105D01*
X138915282Y-105854278D01*
X138911250Y-105847742D01*
X138901850Y-105832742D01*
X138901797Y-105832673D01*
X138901060Y-105831486D01*
X138632560Y-105405586D01*
X138632538Y-105405558D01*
X138632239Y-105405077D01*
X138625544Y-105394482D01*
X138614668Y-105370875D01*
X138610885Y-105358737D01*
X138370838Y-104587707D01*
X138370829Y-104587686D01*
X138370718Y-104587321D01*
X138365318Y-104570022D01*
X138360945Y-104559687D01*
X138358217Y-104548800D01*
X138355582Y-104541587D01*
X138342482Y-104506487D01*
X138336716Y-104494700D01*
X138332750Y-104482192D01*
X138329676Y-104475154D01*
X138322170Y-104458289D01*
X137720719Y-103098444D01*
X137902508Y-103102252D01*
X138134265Y-103061387D01*
X138353671Y-102976285D01*
X138552368Y-102850188D01*
X138722789Y-102687898D01*
X138858442Y-102495598D01*
X138954160Y-102280612D01*
X139006298Y-102051128D01*
X139010051Y-101782334D01*
X138964342Y-101551484D01*
X138962897Y-101547979D01*
X141312893Y-101968933D01*
X141351812Y-102029323D01*
X141460795Y-102142179D01*
X141589624Y-102231717D01*
X141733390Y-102294527D01*
X141886618Y-102328216D01*
X142043472Y-102331502D01*
X142197977Y-102304258D01*
X142344247Y-102247524D01*
X142476712Y-102163459D01*
X142590326Y-102055266D01*
X142680762Y-101927066D01*
X142744574Y-101783741D01*
X142779332Y-101630752D01*
X142781834Y-101451556D01*
X142751361Y-101297656D01*
X142691576Y-101152605D01*
X142604755Y-101021930D01*
X142494207Y-100910607D01*
X142364141Y-100822876D01*
X142219511Y-100762079D01*
X142065827Y-100730533D01*
X141908943Y-100729437D01*
X141754834Y-100758835D01*
X141609370Y-100817607D01*
X141505082Y-100885851D01*
X135639878Y-99835217D01*
X135639864Y-99835216D01*
X135639660Y-99835178D01*
X135490260Y-99808478D01*
X135440942Y-99804569D01*
X135391669Y-99799903D01*
X135383990Y-99799982D01*
X135083290Y-99805182D01*
X135033965Y-99810881D01*
X134984608Y-99815847D01*
X134977090Y-99817409D01*
X134828390Y-99849409D01*
X134828385Y-99849411D01*
X134828292Y-99849430D01*
X134290193Y-99965330D01*
X134290190Y-99965331D01*
X134245561Y-99974937D01*
X134156461Y-99956732D01*
X134123122Y-99933173D01*
X134122158Y-99932331D01*
X134115879Y-99927911D01*
X134108963Y-99923116D01*
X133230764Y-99309944D01*
X133230662Y-99309887D01*
X133228965Y-99308694D01*
X133228350Y-99308268D01*
X133077844Y-99203503D01*
X133055361Y-99089956D01*
X132995576Y-98944905D01*
X132908755Y-98814230D01*
X132905610Y-98811063D01*
X135688530Y-97507674D01*
X135797321Y-97531593D01*
X135973781Y-97535290D01*
X136147599Y-97504641D01*
X136312153Y-97440814D01*
X136461177Y-97346241D01*
X136588992Y-97224524D01*
X136690732Y-97080299D01*
X136762521Y-96919059D01*
X136801624Y-96746946D01*
X136804439Y-96545350D01*
X136770157Y-96372213D01*
X136702898Y-96209031D01*
X136669729Y-96159107D01*
X137165434Y-92225352D01*
X139811524Y-91119866D01*
X139959921Y-91152493D01*
X140136381Y-91156190D01*
X140310199Y-91125541D01*
X140474753Y-91061714D01*
X140623777Y-90967141D01*
X140751592Y-90845424D01*
X140853332Y-90701199D01*
X140925121Y-90539959D01*
X140964224Y-90367846D01*
X140967039Y-90166250D01*
X140932757Y-89993113D01*
X140865498Y-89829931D01*
X140767825Y-89682921D01*
X140643458Y-89557682D01*
X140497133Y-89458985D01*
X140334425Y-89390589D01*
X140161531Y-89355099D01*
X139985036Y-89353867D01*
X139811663Y-89386940D01*
X139648016Y-89453057D01*
X139500328Y-89549702D01*
X139374224Y-89673192D01*
X139274508Y-89818824D01*
X139270263Y-89828728D01*
X136625520Y-90933651D01*
X135895252Y-90374522D01*
X135986590Y-90414427D01*
X136139818Y-90448116D01*
X136296672Y-90451402D01*
X136451177Y-90424158D01*
X136597447Y-90367424D01*
X136729912Y-90283359D01*
X136843526Y-90175166D01*
X136933962Y-90046966D01*
X136997774Y-89903641D01*
X137032532Y-89750652D01*
X137035034Y-89571456D01*
X137004561Y-89417556D01*
X136944776Y-89272505D01*
X136857955Y-89141830D01*
X136747407Y-89030507D01*
X136617341Y-88942776D01*
X136472711Y-88881979D01*
X136319027Y-88850433D01*
X136162143Y-88849337D01*
X136018302Y-88876776D01*
X134985691Y-88253700D01*
X135067262Y-88138066D01*
X135131074Y-87994741D01*
X135132137Y-87990063D01*
X135209190Y-88023727D01*
X135362418Y-88057416D01*
X135519272Y-88060702D01*
X135673777Y-88033458D01*
X135820047Y-87976724D01*
X135952512Y-87892659D01*
X136066126Y-87784466D01*
X136156562Y-87656266D01*
X136220374Y-87512941D01*
X136255132Y-87359952D01*
X136257634Y-87180756D01*
X136227161Y-87026856D01*
X136167376Y-86881805D01*
X136080555Y-86751130D01*
X135976008Y-86645850D01*
X135800336Y-83315826D01*
X135800292Y-83315535D01*
X135800283Y-83315333D01*
X135800188Y-83313475D01*
X135800196Y-83313278D01*
X135800109Y-83311931D01*
X135508708Y-77608987D01*
X135657921Y-77641793D01*
X135834381Y-77645490D01*
X136008199Y-77614841D01*
X136112038Y-77574564D01*
X139043084Y-78431492D01*
X139074563Y-78480338D01*
X139197170Y-78607301D01*
X139342102Y-78708031D01*
X139503839Y-78778693D01*
X139676221Y-78816593D01*
X139852681Y-78820290D01*
X140026499Y-78789641D01*
X140191053Y-78725814D01*
X140340077Y-78631241D01*
X140467892Y-78509524D01*
X140569632Y-78365299D01*
X140641421Y-78204059D01*
X140680524Y-78031946D01*
X140681464Y-77964599D01*
X141339612Y-77229078D01*
X141438499Y-77211641D01*
X141603053Y-77147814D01*
X141752077Y-77053241D01*
X141879892Y-76931524D01*
X141981632Y-76787299D01*
X142053421Y-76626059D01*
X142092524Y-76453946D01*
X142095339Y-76252350D01*
X142061057Y-76079213D01*
X141993798Y-75916031D01*
X141896125Y-75769021D01*
X141771758Y-75643782D01*
X141625433Y-75545085D01*
X141462725Y-75476689D01*
X141289831Y-75441199D01*
X141113336Y-75439967D01*
X140939963Y-75473040D01*
X140776316Y-75539157D01*
X140628628Y-75635802D01*
X140502524Y-75759292D01*
X140402808Y-75904924D01*
X140333277Y-76067150D01*
X140296581Y-76239793D01*
X140295795Y-76296099D01*
X139639271Y-77029807D01*
X139527963Y-77051040D01*
X139436626Y-77087942D01*
X136504720Y-76230763D01*
X136465825Y-76172221D01*
X136341458Y-76046982D01*
X136195133Y-75948285D01*
X136032425Y-75879889D01*
X135910249Y-75854810D01*
X135975462Y-75762366D01*
X136039274Y-75619041D01*
X136074032Y-75466052D01*
X136076534Y-75286856D01*
X136046061Y-75132956D01*
X135986276Y-74987905D01*
X135899455Y-74857230D01*
X135788907Y-74745907D01*
X135658841Y-74658176D01*
X135514211Y-74597379D01*
X135360527Y-74565833D01*
X135203643Y-74564737D01*
X135049534Y-74594135D01*
X134904070Y-74652907D01*
X134772791Y-74738813D01*
X134660699Y-74848582D01*
X134572062Y-74978032D01*
X134510258Y-75122234D01*
X134477639Y-75275693D01*
X134475448Y-75432566D01*
X134503770Y-75586877D01*
X134561524Y-75732748D01*
X134587230Y-75772636D01*
X134419282Y-76357234D01*
X134419270Y-76357276D01*
X134399970Y-76424476D01*
X134392474Y-76465226D01*
X134383165Y-76505590D01*
X134382230Y-76513213D01*
X134366030Y-76653512D01*
X134365311Y-76695280D01*
X134362777Y-76736937D01*
X134363114Y-76744609D01*
X134366714Y-76815209D01*
X134366717Y-76815267D01*
X134701717Y-83371466D01*
X134701777Y-83371863D01*
X134701864Y-83373774D01*
X134701913Y-83374702D01*
X134701904Y-83374923D01*
X134702017Y-83376683D01*
X134729030Y-83888724D01*
X133209092Y-73939540D01*
X133209092Y-73939538D01*
X133197269Y-73861898D01*
X133252568Y-73715033D01*
X133312076Y-73664969D01*
X133312100Y-73664944D01*
X133312411Y-73664686D01*
X135031536Y-72216046D01*
X135186972Y-72219302D01*
X135341477Y-72192058D01*
X135487747Y-72135324D01*
X135620212Y-72051259D01*
X135733826Y-71943066D01*
X135824262Y-71814866D01*
X135888074Y-71671541D01*
X135910513Y-71572776D01*
X135988877Y-71558958D01*
X136135147Y-71502224D01*
X136267612Y-71418159D01*
X136381226Y-71309966D01*
X136471662Y-71181766D01*
X136535474Y-71038441D01*
X136570232Y-70885452D01*
X136571640Y-70784598D01*
X136619724Y-70818017D01*
X136763490Y-70880827D01*
X136916718Y-70914516D01*
X137073572Y-70917802D01*
X137228077Y-70890558D01*
X137374347Y-70833824D01*
X137506812Y-70749759D01*
X137620426Y-70641566D01*
X137710862Y-70513366D01*
X137774674Y-70370041D01*
X137809432Y-70217052D01*
X137811934Y-70037856D01*
X137781461Y-69883956D01*
X137721676Y-69738905D01*
X137634855Y-69608230D01*
X137524307Y-69496907D01*
X137394241Y-69409176D01*
X137249611Y-69348379D01*
X137095927Y-69316833D01*
X136939043Y-69315737D01*
X136784934Y-69345135D01*
X136639470Y-69403907D01*
X136508191Y-69489813D01*
X136430853Y-69565548D01*
X135774311Y-69564700D01*
X135774309Y-69564700D01*
X135725518Y-69564601D01*
X135688882Y-69568118D01*
X135652112Y-69569372D01*
X135644507Y-69570434D01*
X135547107Y-69584734D01*
X135512113Y-69593428D01*
X135476638Y-69599853D01*
X135469266Y-69602003D01*
X135422167Y-69616103D01*
X135422131Y-69616118D01*
X135421601Y-69616273D01*
X134653301Y-69847173D01*
X134653280Y-69847182D01*
X134652955Y-69847277D01*
X134436855Y-69912377D01*
X134436371Y-69912576D01*
X134435860Y-69912678D01*
X134386916Y-69932925D01*
X134337588Y-69953221D01*
X134337151Y-69953511D01*
X134336670Y-69953710D01*
X134292573Y-69983089D01*
X134248145Y-70012568D01*
X134247773Y-70012937D01*
X134247339Y-70013226D01*
X134241429Y-70018128D01*
X134044601Y-70183715D01*
X133999807Y-70138607D01*
X133869741Y-70050876D01*
X133770045Y-70008968D01*
X134870752Y-68398274D01*
X134870784Y-68398228D01*
X134978984Y-68240128D01*
X134984330Y-68230399D01*
X134991108Y-68221623D01*
X135010124Y-68183452D01*
X135030674Y-68146052D01*
X135034027Y-68135475D01*
X135038974Y-68125544D01*
X135050220Y-68084385D01*
X135063107Y-68043727D01*
X135064341Y-68032705D01*
X135067266Y-68021999D01*
X135068505Y-68014420D01*
X135127905Y-67634321D01*
X135128524Y-67623530D01*
X135130812Y-67612981D01*
X135131590Y-67570048D01*
X135133119Y-67543374D01*
X135847817Y-67543374D01*
X135879678Y-67716974D01*
X135944652Y-67881079D01*
X136040263Y-68029438D01*
X136162870Y-68156401D01*
X136307802Y-68257131D01*
X136469539Y-68327793D01*
X136641921Y-68365693D01*
X136818381Y-68369390D01*
X136992199Y-68338741D01*
X137156753Y-68274914D01*
X137300721Y-68183549D01*
X139014472Y-68231916D01*
X139021133Y-68232107D01*
X139034200Y-68234200D01*
X139040551Y-68236097D01*
X141430658Y-68951597D01*
X141465163Y-69005138D01*
X141587770Y-69132101D01*
X141732702Y-69232831D01*
X141894439Y-69303493D01*
X142066821Y-69341393D01*
X142243281Y-69345090D01*
X142417099Y-69314441D01*
X142581653Y-69250614D01*
X142730677Y-69156041D01*
X142858492Y-69034324D01*
X142960232Y-68890099D01*
X143032021Y-68728859D01*
X143071124Y-68556746D01*
X143073939Y-68355150D01*
X143039657Y-68182013D01*
X142972398Y-68018831D01*
X142874725Y-67871821D01*
X142750358Y-67746582D01*
X142604033Y-67647885D01*
X142441325Y-67579489D01*
X142268431Y-67543999D01*
X142091936Y-67542767D01*
X141918563Y-67575840D01*
X141832649Y-67610551D01*
X139442049Y-66894903D01*
X139442018Y-66894897D01*
X139441597Y-66894768D01*
X139390697Y-66879568D01*
X139350371Y-66871710D01*
X139310789Y-66860730D01*
X139301149Y-66859116D01*
X139197549Y-66842517D01*
X139156916Y-66840029D01*
X139116598Y-66834334D01*
X139106829Y-66833987D01*
X139054430Y-66832487D01*
X139054412Y-66832488D01*
X139054148Y-66832479D01*
X137338544Y-66784060D01*
X137325458Y-66770882D01*
X137179133Y-66672185D01*
X137016425Y-66603789D01*
X136843531Y-66568299D01*
X136667036Y-66567067D01*
X136493663Y-66600140D01*
X136330016Y-66666257D01*
X136182328Y-66762902D01*
X136056224Y-66886392D01*
X135956508Y-67032024D01*
X135886977Y-67194250D01*
X135850281Y-67366893D01*
X135847817Y-67543374D01*
X135133119Y-67543374D01*
X135134050Y-67527155D01*
X135132562Y-67516458D01*
X135132758Y-67505657D01*
X135125180Y-67463384D01*
X135119263Y-67420837D01*
X135115724Y-67410627D01*
X135113819Y-67400000D01*
X135111682Y-67392624D01*
X135057082Y-67209024D01*
X134914105Y-66728154D01*
X134914103Y-66728143D01*
X134912000Y-66720757D01*
X134390401Y-64936733D01*
X134397362Y-64926866D01*
X134461174Y-64783541D01*
X134495932Y-64630552D01*
X134498434Y-64451356D01*
X134467961Y-64297456D01*
X134408176Y-64152405D01*
X134321355Y-64021730D01*
X134210807Y-63910407D01*
X134080741Y-63822676D01*
X133936111Y-63761879D01*
X133782427Y-63730333D01*
X133625543Y-63729237D01*
X133471434Y-63758635D01*
X133325970Y-63817407D01*
X133194691Y-63903313D01*
X133082599Y-64013082D01*
X132993962Y-64142532D01*
X132932158Y-64286734D01*
X132899539Y-64440193D01*
X132897348Y-64597066D01*
X132925670Y-64751377D01*
X132983424Y-64897248D01*
X133068412Y-65029123D01*
X133177395Y-65141979D01*
X133306224Y-65231517D01*
X133334097Y-65243694D01*
X133762298Y-66708269D01*
X133633036Y-66707367D01*
X133459663Y-66740440D01*
X133296016Y-66806557D01*
X133148328Y-66903202D01*
X133022224Y-67026692D01*
X132922508Y-67172324D01*
X132852977Y-67334550D01*
X132816281Y-67507193D01*
X132815859Y-67537421D01*
X131417414Y-69006940D01*
X131417394Y-69006965D01*
X131417116Y-69007254D01*
X131395692Y-69029795D01*
X131342402Y-69066106D01*
X131312897Y-69078087D01*
X131312879Y-69078094D01*
X130872912Y-69256480D01*
X130872906Y-69256483D01*
X130780406Y-69293983D01*
X130722842Y-69324163D01*
X130665063Y-69353751D01*
X130659552Y-69357346D01*
X130659412Y-69357419D01*
X130659296Y-69357513D01*
X130656876Y-69359091D01*
X130488976Y-69470291D01*
X130438398Y-69511419D01*
X130387485Y-69552062D01*
X130383104Y-69556382D01*
X130382981Y-69556482D01*
X130382884Y-69556599D01*
X130380525Y-69558925D01*
X127784925Y-72154525D01*
X127772186Y-72170034D01*
X127757436Y-72183634D01*
X127750982Y-72190974D01*
X127704082Y-72245074D01*
X127693023Y-72260681D01*
X127679883Y-72274576D01*
X127673946Y-72282341D01*
X127652546Y-72310741D01*
X127652493Y-72310827D01*
X127651510Y-72312120D01*
X126751910Y-73512119D01*
X126751898Y-73512138D01*
X126751764Y-73512315D01*
X126739011Y-73529339D01*
X126709231Y-73559119D01*
X126691973Y-73572070D01*
X126691919Y-73572110D01*
X125491919Y-74471710D01*
X125491898Y-74471729D01*
X125491644Y-74471917D01*
X125434344Y-74514917D01*
X125401402Y-74545088D01*
X125366484Y-74572962D01*
X125359525Y-74579825D01*
X125259325Y-74680025D01*
X125230781Y-74714776D01*
X125199979Y-74747533D01*
X125194064Y-74755315D01*
X125151515Y-74812113D01*
X125151510Y-74812120D01*
X124251910Y-76012119D01*
X124251907Y-76012124D01*
X124238965Y-76029380D01*
X124208015Y-76060150D01*
X124191131Y-76072666D01*
X124191113Y-76072683D01*
X124190713Y-76072975D01*
X122858264Y-77062280D01*
X122187026Y-76771781D01*
X122186992Y-76771770D01*
X122186533Y-76771568D01*
X122143234Y-76752869D01*
X122116865Y-76744424D01*
X122091652Y-76732970D01*
X122082379Y-76729880D01*
X121992679Y-76700680D01*
X121965313Y-76694647D01*
X121938820Y-76685499D01*
X121929298Y-76683292D01*
X121884297Y-76673192D01*
X121884298Y-76673192D01*
X119358529Y-76105811D01*
X119303446Y-76093351D01*
X119264925Y-76088521D01*
X119226939Y-76080452D01*
X119217218Y-76079432D01*
X119101818Y-76068132D01*
X119063568Y-76068137D01*
X119025460Y-76064847D01*
X119015688Y-76065029D01*
X118957088Y-76066529D01*
X118957037Y-76066535D01*
X118956246Y-76066551D01*
X116519845Y-76131851D01*
X116519842Y-76131851D01*
X116519809Y-76131852D01*
X116496178Y-76132487D01*
X116450160Y-76126526D01*
X116427149Y-76119790D01*
X116427150Y-76119790D01*
X111749826Y-74748935D01*
X111731581Y-74704669D01*
X111617629Y-74533158D01*
X111472534Y-74387046D01*
X111301822Y-74271900D01*
X111111996Y-74192104D01*
X110910286Y-74150699D01*
X110704375Y-74149261D01*
X110502107Y-74187846D01*
X110349900Y-74249341D01*
X110349900Y-73649240D01*
X110473962Y-73703442D01*
X110675074Y-73747659D01*
X110880945Y-73751971D01*
X111083732Y-73716215D01*
X111275712Y-73641750D01*
X111449573Y-73531415D01*
X111598691Y-73389412D01*
X111683108Y-73269744D01*
X121429161Y-67214331D01*
X121430819Y-67213061D01*
X121432678Y-67212134D01*
X121443865Y-67205007D01*
X121582965Y-67115007D01*
X121584353Y-67113903D01*
X121585921Y-67113086D01*
X121596980Y-67105763D01*
X123667401Y-65713651D01*
X123730657Y-65671215D01*
X123771115Y-65637916D01*
X123814254Y-65608185D01*
X123824330Y-65599558D01*
X123941430Y-65497857D01*
X123977448Y-65459804D01*
X124016569Y-65424959D01*
X124025498Y-65415150D01*
X124075858Y-65359040D01*
X127577564Y-61470301D01*
X127577581Y-61470279D01*
X127577780Y-61470060D01*
X127639781Y-61401160D01*
X127683930Y-61341240D01*
X127730359Y-61283073D01*
X127738834Y-61266721D01*
X127749760Y-61251892D01*
X127781434Y-61184528D01*
X127815676Y-61118462D01*
X127820516Y-61106112D01*
X127879599Y-60952177D01*
X128500000Y-60952177D01*
X128571661Y-60946463D01*
X128693205Y-60908822D01*
X128799451Y-60838811D01*
X128881986Y-60741972D01*
X128934275Y-60625974D01*
X128952177Y-60500000D01*
X128952177Y-58500000D01*
X128946463Y-58428339D01*
X128908822Y-58306795D01*
X128838811Y-58200549D01*
X128741972Y-58118014D01*
X128625974Y-58065725D01*
X128500000Y-58047823D01*
X126500000Y-58047823D01*
X126428339Y-58053537D01*
X126306795Y-58091178D01*
X126200549Y-58161189D01*
X126118014Y-58258028D01*
X126065725Y-58374026D01*
X126047823Y-58500000D01*
X126047823Y-60329735D01*
X123233561Y-63455049D01*
X123141125Y-63315921D01*
X123016758Y-63190682D01*
X122870433Y-63091985D01*
X122707725Y-63023589D01*
X122534831Y-62988099D01*
X122358336Y-62986867D01*
X122184963Y-63019940D01*
X122021316Y-63086057D01*
X121873628Y-63182702D01*
X121747524Y-63306192D01*
X121647808Y-63451824D01*
X121578277Y-63614050D01*
X121560776Y-63696385D01*
X120285631Y-64721420D01*
X120285623Y-64721428D01*
X120285503Y-64721523D01*
X120081313Y-64885742D01*
X119620200Y-65133916D01*
X119121486Y-65293919D01*
X118601937Y-65360388D01*
X118337423Y-65345505D01*
X118337422Y-65345505D01*
X114536397Y-65128965D01*
X114575049Y-65104435D01*
X114745470Y-64942145D01*
X114881123Y-64749845D01*
X114976841Y-64534859D01*
X115028979Y-64305375D01*
X115032732Y-64036581D01*
X114987023Y-63805731D01*
X114897345Y-63588155D01*
X114767114Y-63392142D01*
X114601291Y-63225158D01*
X114406192Y-63093561D01*
X114189248Y-63002367D01*
X113958722Y-62955047D01*
X113723396Y-62953404D01*
X113492232Y-62997500D01*
X113274036Y-63085657D01*
X113077118Y-63214517D01*
X112908980Y-63379170D01*
X112776025Y-63573346D01*
X112683318Y-63789648D01*
X112634390Y-64019837D01*
X112631104Y-64255146D01*
X112673586Y-64486612D01*
X112760217Y-64705418D01*
X112887699Y-64903231D01*
X113051174Y-65072514D01*
X113053895Y-65074405D01*
X113028598Y-65082128D01*
X112982726Y-65093143D01*
X112963402Y-65102032D01*
X112943056Y-65108243D01*
X112934057Y-65112059D01*
X112906876Y-65123808D01*
X112398211Y-64696988D01*
X112339642Y-64655303D01*
X112222339Y-64606010D01*
X112095947Y-64591348D01*
X111970475Y-64612479D01*
X111855857Y-64667728D01*
X111761169Y-64752722D01*
X110796988Y-65901789D01*
X110755303Y-65960358D01*
X110706010Y-66077661D01*
X110691348Y-66204053D01*
X110712479Y-66329525D01*
X110767728Y-66444143D01*
X110852722Y-66538831D01*
X112001789Y-67503012D01*
X112060358Y-67544697D01*
X112177661Y-67593990D01*
X112304053Y-67608652D01*
X112429525Y-67587521D01*
X112544143Y-67532272D01*
X112638831Y-67447278D01*
X113458985Y-66469856D01*
X118258286Y-66743267D01*
X118258315Y-66743266D01*
X118258777Y-66743295D01*
X118559824Y-66760233D01*
X110909722Y-71513392D01*
X110913974Y-71503841D01*
X110948732Y-71350852D01*
X110951234Y-71171656D01*
X110920761Y-71017756D01*
X110860976Y-70872705D01*
X110774155Y-70742030D01*
X110663607Y-70630707D01*
X110533541Y-70542976D01*
X110388911Y-70482179D01*
X110235227Y-70450633D01*
X110078343Y-70449537D01*
X109924234Y-70478935D01*
X109778770Y-70537707D01*
X109647491Y-70623613D01*
X109535399Y-70733382D01*
X109446762Y-70862832D01*
X109384958Y-71007034D01*
X109352339Y-71160493D01*
X109350148Y-71317366D01*
X109378470Y-71471677D01*
X109436224Y-71617548D01*
X109470146Y-71670184D01*
X109302241Y-72300621D01*
X109285541Y-72363121D01*
X109280302Y-72394906D01*
X109272592Y-72426177D01*
X109271543Y-72433784D01*
X109254543Y-72563784D01*
X109253512Y-72595698D01*
X109249954Y-72627421D01*
X109249900Y-72635100D01*
X109249900Y-75199675D01*
X109249800Y-75368875D01*
X109253188Y-75403642D01*
X109254191Y-75438560D01*
X109258383Y-75456946D01*
X109260212Y-75475710D01*
X109270288Y-75509154D01*
X109278054Y-75543214D01*
X109280534Y-75550482D01*
X109392634Y-75871582D01*
X109407371Y-75903410D01*
X109419909Y-75936155D01*
X109429870Y-75952002D01*
X109437735Y-75968989D01*
X109458368Y-75997341D01*
X109477032Y-76027034D01*
X109481776Y-76033073D01*
X109693676Y-76298972D01*
X109718077Y-76324106D01*
X109740716Y-76350847D01*
X109755384Y-76362535D01*
X109768446Y-76375989D01*
X109797264Y-76395905D01*
X109824666Y-76417739D01*
X109831139Y-76421871D01*
X110119138Y-76602871D01*
X110150447Y-76618514D01*
X110180611Y-76636251D01*
X110198353Y-76642449D01*
X110215162Y-76650847D01*
X110248905Y-76660108D01*
X110281947Y-76671651D01*
X110289421Y-76673412D01*
X110448162Y-76709641D01*
X110311185Y-76764983D01*
X110138882Y-76877735D01*
X109991761Y-77021807D01*
X109875425Y-77191711D01*
X109794307Y-77380975D01*
X109751494Y-77582391D01*
X109748619Y-77788287D01*
X109785791Y-77990820D01*
X109861594Y-78182275D01*
X109973140Y-78355361D01*
X110116181Y-78503485D01*
X110285269Y-78621003D01*
X110473962Y-78703442D01*
X110675074Y-78747659D01*
X110880945Y-78751971D01*
X111083732Y-78716215D01*
X111275712Y-78641750D01*
X111449573Y-78531415D01*
X111598691Y-78389412D01*
X111717388Y-78221149D01*
X111801141Y-78033035D01*
X111846761Y-77832237D01*
X111850046Y-77597042D01*
X111810050Y-77395048D01*
X111731581Y-77204669D01*
X111617629Y-77033158D01*
X111543682Y-76958692D01*
X116024080Y-77977217D01*
X116024088Y-77977218D01*
X116113851Y-77997664D01*
X116140778Y-78001081D01*
X116167245Y-78007085D01*
X116174870Y-78007992D01*
X116358170Y-78028492D01*
X116384685Y-78028854D01*
X116411026Y-78031837D01*
X116418705Y-78031900D01*
X116511205Y-78032000D01*
X116511245Y-78031996D01*
X116511800Y-78032000D01*
X116545521Y-78032000D01*
X116610319Y-78046645D01*
X116640813Y-78061166D01*
X116640870Y-78061194D01*
X118423070Y-78910594D01*
X118423072Y-78910595D01*
X118470393Y-78933157D01*
X118501001Y-78944232D01*
X118530664Y-78957632D01*
X118537954Y-78960045D01*
X118636654Y-78991945D01*
X118668347Y-78998861D01*
X118699401Y-79008210D01*
X118706945Y-79009643D01*
X118757186Y-79018823D01*
X118757210Y-79018827D01*
X118824358Y-79031177D01*
X118948289Y-79085197D01*
X119058237Y-79167242D01*
X119145598Y-79270844D01*
X119176687Y-79331778D01*
X120264077Y-81467160D01*
X120264097Y-81467201D01*
X120293097Y-81524201D01*
X120313384Y-81555964D01*
X120331779Y-81588851D01*
X120336207Y-81595125D01*
X120411507Y-81700225D01*
X120436629Y-81728901D01*
X120460064Y-81758936D01*
X120465394Y-81764464D01*
X120509608Y-81809671D01*
X124226509Y-85622359D01*
X124226541Y-85622392D01*
X124237039Y-85633168D01*
X124256646Y-85657929D01*
X124264707Y-85670541D01*
X124264732Y-85670581D01*
X125019932Y-86853381D01*
X125019944Y-86853397D01*
X125020105Y-86853652D01*
X125049705Y-86899952D01*
X125069070Y-86924568D01*
X125086358Y-86950674D01*
X125091244Y-86956599D01*
X125160844Y-87039799D01*
X125182851Y-87061415D01*
X125202975Y-87084780D01*
X125208567Y-87090043D01*
X125248867Y-87127443D01*
X125248921Y-87127484D01*
X125249718Y-87128231D01*
X126205218Y-88011231D01*
X126205247Y-88011253D01*
X126205693Y-88011670D01*
X126273594Y-88074270D01*
X126274645Y-88075064D01*
X126275530Y-88076047D01*
X126317480Y-88107430D01*
X126359237Y-88138981D01*
X126360426Y-88139558D01*
X126361481Y-88140347D01*
X126368077Y-88144280D01*
X126526077Y-88236980D01*
X126527397Y-88237590D01*
X126528576Y-88238437D01*
X126576041Y-88260067D01*
X126623518Y-88282005D01*
X126624932Y-88282347D01*
X126626253Y-88282949D01*
X126633535Y-88285386D01*
X126720735Y-88313886D01*
X126720739Y-88313887D01*
X126720868Y-88313930D01*
X128423017Y-88869772D01*
X118836758Y-89359740D01*
X118796607Y-89319307D01*
X118666541Y-89231576D01*
X118521911Y-89170779D01*
X118368227Y-89139233D01*
X118211343Y-89138137D01*
X118057234Y-89167535D01*
X117911770Y-89226307D01*
X117780491Y-89312213D01*
X117668399Y-89421982D01*
X117579762Y-89551432D01*
X117517958Y-89695634D01*
X117485339Y-89849093D01*
X117483148Y-90005966D01*
X117511470Y-90160277D01*
X117569224Y-90306148D01*
X117654212Y-90438023D01*
X117763195Y-90550879D01*
X117892024Y-90640417D01*
X118035790Y-90703227D01*
X118189018Y-90736916D01*
X118345872Y-90740202D01*
X118500377Y-90712958D01*
X118646647Y-90656224D01*
X118779112Y-90572159D01*
X118892726Y-90463966D01*
X118896861Y-90458104D01*
X129724135Y-89904705D01*
X129756815Y-89903064D01*
X129820749Y-89913602D01*
X129849870Y-89925195D01*
X129849911Y-89925207D01*
X129850534Y-89925459D01*
X130940557Y-90357764D01*
X130968424Y-90428148D01*
X131053412Y-90560023D01*
X131162395Y-90672879D01*
X131291224Y-90762417D01*
X131434990Y-90825227D01*
X131588218Y-90858916D01*
X131745072Y-90862202D01*
X131899577Y-90834958D01*
X132045847Y-90778224D01*
X132178312Y-90694159D01*
X132291926Y-90585966D01*
X132382362Y-90457766D01*
X132416909Y-90380171D01*
X133578738Y-91110794D01*
X132972526Y-91046927D01*
X132972523Y-91046927D01*
X132762087Y-91024655D01*
X132738706Y-91024475D01*
X132715487Y-91021716D01*
X132685160Y-91024062D01*
X132654749Y-91023828D01*
X132631780Y-91028192D01*
X132608466Y-91029996D01*
X132579175Y-91038188D01*
X132549295Y-91043865D01*
X132527607Y-91052609D01*
X132505091Y-91058906D01*
X132497952Y-91061736D01*
X132103652Y-91221235D01*
X132082797Y-91232149D01*
X132060874Y-91240706D01*
X132035358Y-91256975D01*
X132008547Y-91271006D01*
X131990212Y-91285760D01*
X131970365Y-91298415D01*
X131948494Y-91319331D01*
X131924920Y-91338302D01*
X131909797Y-91356340D01*
X131892790Y-91372605D01*
X131887825Y-91378463D01*
X131753372Y-91539393D01*
X131746953Y-91546935D01*
X131746888Y-91547029D01*
X131743312Y-91551258D01*
X131713609Y-91586895D01*
X131633194Y-91637437D01*
X131540835Y-91660756D01*
X131446974Y-91654537D01*
X131402419Y-91636800D01*
X131402414Y-91636799D01*
X129732739Y-90971008D01*
X129732695Y-90970990D01*
X129637495Y-90932990D01*
X129612461Y-90925736D01*
X129588284Y-90916000D01*
X129561034Y-90910834D01*
X129534395Y-90903115D01*
X129508430Y-90900862D01*
X129482821Y-90896007D01*
X129475168Y-90895373D01*
X129270668Y-90879873D01*
X129244906Y-90880442D01*
X129219229Y-90878389D01*
X129191384Y-90881625D01*
X129163353Y-90882244D01*
X129138196Y-90887805D01*
X129112606Y-90890779D01*
X129105112Y-90892458D01*
X129005944Y-90915404D01*
X129005856Y-90915424D01*
X125454656Y-91736124D01*
X125454565Y-91736155D01*
X125452995Y-91736511D01*
X125440195Y-91739511D01*
X125440072Y-91739553D01*
X125435394Y-91740659D01*
X124641094Y-91934359D01*
X124641065Y-91934369D01*
X124640682Y-91934460D01*
X124612482Y-91941360D01*
X124606631Y-91943415D01*
X124600510Y-91944432D01*
X124593108Y-91946476D01*
X124537407Y-91962276D01*
X124530932Y-91964818D01*
X124524128Y-91966225D01*
X124516812Y-91968556D01*
X124487712Y-91978056D01*
X124487668Y-91978075D01*
X124486935Y-91978310D01*
X121330335Y-93014010D01*
X121330327Y-93014014D01*
X121330285Y-93014027D01*
X121284164Y-93029164D01*
X121187505Y-93024306D01*
X121143828Y-93004993D01*
X121137306Y-93002084D01*
X121137200Y-93002049D01*
X121135151Y-93001128D01*
X121110650Y-92990328D01*
X121069978Y-92976965D01*
X121029872Y-92962000D01*
X121022436Y-92960082D01*
X120970536Y-92947082D01*
X120927854Y-92940732D01*
X120885485Y-92932751D01*
X120877831Y-92932125D01*
X120851031Y-92930125D01*
X120851022Y-92930125D01*
X120850933Y-92930118D01*
X120753647Y-92922875D01*
X120749531Y-92922538D01*
X120740248Y-92922686D01*
X120731065Y-92921337D01*
X120723393Y-92921021D01*
X120711692Y-92920621D01*
X120706121Y-92920976D01*
X120700579Y-92920354D01*
X120692900Y-92920300D01*
X120687514Y-92920300D01*
X120162915Y-92920000D01*
X120162894Y-92920002D01*
X120162600Y-92920000D01*
X119617000Y-92920000D01*
X119611722Y-92920518D01*
X119606441Y-92920102D01*
X119598764Y-92920302D01*
X119577664Y-92921002D01*
X119572446Y-92921689D01*
X119567199Y-92921450D01*
X119559534Y-92921904D01*
X119460833Y-92928444D01*
X119460823Y-92928445D01*
X119434523Y-92930145D01*
X119392372Y-92937047D01*
X119349996Y-92942252D01*
X119342514Y-92943979D01*
X119291315Y-92956179D01*
X119251558Y-92969871D01*
X119211249Y-92981865D01*
X119204158Y-92984812D01*
X119179858Y-92995112D01*
X119179017Y-92995570D01*
X119178957Y-92995595D01*
X119138206Y-93012954D01*
X119048186Y-93019059D01*
X118960847Y-92995103D01*
X118886956Y-92944386D01*
X118860111Y-92907981D01*
X118400692Y-92284363D01*
X118400654Y-92284311D01*
X118358654Y-92227211D01*
X118352581Y-92220451D01*
X118347692Y-92212813D01*
X118316783Y-92180605D01*
X118286917Y-92147362D01*
X118279654Y-92141916D01*
X118273368Y-92135366D01*
X118236772Y-92109762D01*
X118201036Y-92082966D01*
X118192853Y-92079034D01*
X118185416Y-92073831D01*
X118178698Y-92070110D01*
X118053498Y-92001910D01*
X118045016Y-91998314D01*
X118037232Y-91993399D01*
X117995686Y-91977396D01*
X117954674Y-91960006D01*
X117945657Y-91958126D01*
X117937064Y-91954816D01*
X117893191Y-91947186D01*
X117849593Y-91938095D01*
X117840384Y-91938002D01*
X117831311Y-91936424D01*
X117823649Y-91935906D01*
X117752649Y-91931606D01*
X117752648Y-91931606D01*
X116437696Y-91851615D01*
X116432730Y-91851799D01*
X116427811Y-91851103D01*
X116420137Y-91850828D01*
X116395837Y-91850128D01*
X116391748Y-91850410D01*
X116387679Y-91849954D01*
X116380000Y-91849900D01*
X115277600Y-91849900D01*
X115250579Y-91852549D01*
X115223435Y-91852574D01*
X115215798Y-91853383D01*
X115170699Y-91858483D01*
X115143807Y-91864225D01*
X115116503Y-91867372D01*
X115109008Y-91869043D01*
X115087483Y-91874003D01*
X112461653Y-92474599D01*
X112400241Y-92433176D01*
X112255611Y-92372379D01*
X112101927Y-92340833D01*
X111945043Y-92339737D01*
X111790934Y-92369135D01*
X111645470Y-92427907D01*
X111514191Y-92513813D01*
X111402099Y-92623582D01*
X111313462Y-92753032D01*
X111251658Y-92897234D01*
X111219039Y-93050693D01*
X111216848Y-93207566D01*
X111245170Y-93361877D01*
X111302924Y-93507748D01*
X111387912Y-93639623D01*
X111496895Y-93752479D01*
X111625724Y-93842017D01*
X111769490Y-93904827D01*
X111922718Y-93938516D01*
X112079572Y-93941802D01*
X112234077Y-93914558D01*
X112380347Y-93857824D01*
X112512812Y-93773759D01*
X112626426Y-93665566D01*
X112710750Y-93546030D01*
X115317055Y-92949900D01*
X116167823Y-92949900D01*
X116167823Y-93800000D01*
X116173537Y-93871661D01*
X116211178Y-93993205D01*
X116281189Y-94099451D01*
X116285099Y-94102783D01*
X116238014Y-94158028D01*
X116185725Y-94274026D01*
X116167823Y-94400000D01*
X116167823Y-95400000D01*
X116173537Y-95471661D01*
X116211178Y-95593205D01*
X116281189Y-95699451D01*
X116285099Y-95702783D01*
X116238014Y-95758028D01*
X116185725Y-95874026D01*
X116167823Y-96000000D01*
X116167823Y-97000000D01*
X116173537Y-97071661D01*
X116211178Y-97193205D01*
X116281189Y-97299451D01*
X116285099Y-97302783D01*
X116238014Y-97358028D01*
X116185725Y-97474026D01*
X116167823Y-97600000D01*
X116167823Y-98600000D01*
X116173537Y-98671661D01*
X116211178Y-98793205D01*
X116281189Y-98899451D01*
X116285099Y-98902783D01*
X116238014Y-98958028D01*
X116185725Y-99074026D01*
X116167823Y-99200000D01*
X116167823Y-100200000D01*
X116173537Y-100271661D01*
X116211178Y-100393205D01*
X116281189Y-100499451D01*
X116285099Y-100502783D01*
X116238014Y-100558028D01*
X116185725Y-100674026D01*
X116167823Y-100800000D01*
X116167823Y-101800000D01*
X116173537Y-101871661D01*
X116211178Y-101993205D01*
X116281189Y-102099451D01*
X116378028Y-102181986D01*
X116494026Y-102234275D01*
X116620000Y-102252177D01*
X117700000Y-102252177D01*
X117771661Y-102246463D01*
X117893205Y-102208822D01*
X117999451Y-102138811D01*
X118081986Y-102041972D01*
X118134275Y-101925974D01*
X118152177Y-101800000D01*
X118152177Y-101426001D01*
X119000000Y-101379245D01*
X119000000Y-104600000D01*
X119013678Y-104672691D01*
X119056638Y-104739454D01*
X119122189Y-104784243D01*
X119200000Y-104800000D01*
X122426503Y-104800000D01*
X122471024Y-104912448D01*
X122556012Y-105044323D01*
X122664995Y-105157179D01*
X122793824Y-105246717D01*
X122937590Y-105309527D01*
X123090818Y-105343216D01*
X123247672Y-105346502D01*
X123402177Y-105319258D01*
X123548447Y-105262524D01*
X123680912Y-105178459D01*
X123794526Y-105070266D01*
X123884962Y-104942066D01*
X123945308Y-104806525D01*
X124567628Y-104526589D01*
X124567644Y-104526580D01*
X124567881Y-104526475D01*
X124729282Y-104453775D01*
X124755795Y-104438561D01*
X124783481Y-104425643D01*
X124802225Y-104411918D01*
X124822384Y-104400350D01*
X124845435Y-104380278D01*
X124870087Y-104362227D01*
X124885807Y-104345123D01*
X124903336Y-104329860D01*
X124922053Y-104305688D01*
X124942725Y-104283197D01*
X124947303Y-104277031D01*
X125156303Y-103991331D01*
X125171980Y-103964808D01*
X125189816Y-103939682D01*
X125199229Y-103918708D01*
X125210922Y-103898925D01*
X125221148Y-103869867D01*
X125233766Y-103841750D01*
X125238925Y-103819350D01*
X125246554Y-103797670D01*
X125250942Y-103767168D01*
X125257856Y-103737147D01*
X125258789Y-103729525D01*
X125278989Y-103554125D01*
X125278989Y-103554122D01*
X125648873Y-100363910D01*
X125664712Y-100353859D01*
X125778326Y-100245666D01*
X125868762Y-100117466D01*
X125932574Y-99974141D01*
X125967332Y-99821152D01*
X125969834Y-99641956D01*
X125939361Y-99488056D01*
X125879576Y-99343005D01*
X125834079Y-99274527D01*
X127623251Y-98497253D01*
X127623252Y-98497252D01*
X127623300Y-98497232D01*
X127697400Y-98465032D01*
X127727318Y-98448388D01*
X127758333Y-98433913D01*
X127764914Y-98429956D01*
X127901114Y-98346756D01*
X127928590Y-98326037D01*
X127957451Y-98307302D01*
X127963420Y-98302471D01*
X128026020Y-98251071D01*
X128026027Y-98251064D01*
X128026048Y-98251047D01*
X129353333Y-97161084D01*
X128401153Y-99325747D01*
X128401149Y-99325760D01*
X128401052Y-99325976D01*
X128359053Y-99421576D01*
X128346293Y-99460576D01*
X128331747Y-99498945D01*
X128329790Y-99506371D01*
X128277989Y-99708671D01*
X128271678Y-99749620D01*
X128263543Y-99790242D01*
X128262830Y-99797888D01*
X128253976Y-99900660D01*
X128154964Y-101037050D01*
X128153659Y-101051405D01*
X128153724Y-101060613D01*
X128152302Y-101069714D01*
X128151916Y-101077384D01*
X128150516Y-101109683D01*
X128150957Y-101117773D01*
X128150054Y-101125821D01*
X128150000Y-101133500D01*
X128150000Y-102650000D01*
X128150315Y-102653211D01*
X128150038Y-102656420D01*
X128150181Y-102664098D01*
X128151181Y-102703098D01*
X128151627Y-102706692D01*
X128151413Y-102710309D01*
X128151764Y-102717981D01*
X128287044Y-105281777D01*
X128192992Y-105218338D01*
X127930851Y-105108144D01*
X127652300Y-105050966D01*
X127367947Y-105048980D01*
X127088624Y-105102264D01*
X126824970Y-105208787D01*
X126587028Y-105364492D01*
X126383861Y-105563448D01*
X126223207Y-105798077D01*
X126111186Y-106059442D01*
X126052064Y-106337588D01*
X126048094Y-106621920D01*
X126099426Y-106901608D01*
X126204106Y-107165999D01*
X126358146Y-107405022D01*
X126555679Y-107609573D01*
X126789181Y-107771861D01*
X127049757Y-107885705D01*
X127327484Y-107946767D01*
X127611781Y-107952722D01*
X127891820Y-107903343D01*
X128156936Y-107800512D01*
X128295592Y-107712518D01*
X128259277Y-108508008D01*
X128201355Y-108531410D01*
X128004437Y-108660270D01*
X127836299Y-108824923D01*
X127703344Y-109019099D01*
X127610637Y-109235401D01*
X127561709Y-109465590D01*
X127558423Y-109700899D01*
X127600905Y-109932365D01*
X127687536Y-110151171D01*
X127815018Y-110348984D01*
X127978493Y-110518267D01*
X128171736Y-110652575D01*
X128387385Y-110746790D01*
X128617228Y-110797324D01*
X128852508Y-110802252D01*
X129084265Y-110761387D01*
X129303671Y-110676285D01*
X129502368Y-110550188D01*
X129672789Y-110387898D01*
X129808442Y-110195598D01*
X129904160Y-109980612D01*
X129956298Y-109751128D01*
X129960051Y-109482334D01*
X129914342Y-109251484D01*
X129824664Y-109033908D01*
X129694433Y-108837895D01*
X129528610Y-108670911D01*
X129358233Y-108555989D01*
X129448028Y-106588982D01*
X129449599Y-106555403D01*
X129449076Y-106545158D01*
X129450174Y-106534967D01*
X129450195Y-106527288D01*
X129449895Y-106458888D01*
X129449045Y-106450598D01*
X129449571Y-106442289D01*
X129449252Y-106434617D01*
X129447552Y-106399617D01*
X129447536Y-106399510D01*
X129447436Y-106397319D01*
X129394494Y-105393970D01*
X130454243Y-108748595D01*
X130376299Y-108824923D01*
X130243344Y-109019099D01*
X130150637Y-109235401D01*
X130101709Y-109465590D01*
X130098423Y-109700899D01*
X130140905Y-109932365D01*
X130227536Y-110151171D01*
X130355018Y-110348984D01*
X130518493Y-110518267D01*
X130711736Y-110652575D01*
X130927385Y-110746790D01*
X131157228Y-110797324D01*
X131392508Y-110802252D01*
X131624265Y-110761387D01*
X131843671Y-110676285D01*
X132042368Y-110550188D01*
X132212789Y-110387898D01*
X132348442Y-110195598D01*
X132444160Y-109980612D01*
X132496298Y-109751128D01*
X132500051Y-109482334D01*
X132454342Y-109251484D01*
X132364664Y-109033908D01*
X132234433Y-108837895D01*
X132068610Y-108670911D01*
X131873511Y-108539314D01*
X131656567Y-108448120D01*
X131502943Y-108416586D01*
X129824084Y-103102177D01*
X130940000Y-103102177D01*
X131011661Y-103096463D01*
X131133205Y-103058822D01*
X131239451Y-102988811D01*
X131283672Y-102936926D01*
X133277823Y-108916458D01*
X133277823Y-110350000D01*
X133283537Y-110421661D01*
X133321178Y-110543205D01*
X133391189Y-110649451D01*
X133488028Y-110731986D01*
X133604026Y-110784275D01*
X133730000Y-110802177D01*
X135230000Y-110802177D01*
X135301661Y-110796463D01*
X135423205Y-110758822D01*
X135529451Y-110688811D01*
X135611986Y-110591972D01*
X135664275Y-110475974D01*
X135682177Y-110350000D01*
X135682177Y-108850000D01*
X135676463Y-108778339D01*
X135638822Y-108656795D01*
X135568811Y-108550549D01*
X135471972Y-108468014D01*
X135355974Y-108415725D01*
X135230000Y-108397823D01*
X134264418Y-108397823D01*
X132489561Y-103075851D01*
X132587228Y-103097324D01*
X132822508Y-103102252D01*
X133054265Y-103061387D01*
X133273671Y-102976285D01*
X133472368Y-102850188D01*
X133609434Y-102719662D01*
X136104975Y-108816427D01*
X136096299Y-108824923D01*
X135963344Y-109019099D01*
X135870637Y-109235401D01*
X135821709Y-109465590D01*
X135818423Y-109700899D01*
X135860905Y-109932365D01*
X135947536Y-110151171D01*
X136075018Y-110348984D01*
X136238493Y-110518267D01*
X136431736Y-110652575D01*
X136647385Y-110746790D01*
X136877228Y-110797324D01*
X137112508Y-110802252D01*
X137344265Y-110761387D01*
X137563671Y-110676285D01*
X137762368Y-110550188D01*
X137932789Y-110387898D01*
X138068442Y-110195598D01*
X138164160Y-109980612D01*
X138216298Y-109751128D01*
X138220051Y-109482334D01*
X138174342Y-109251484D01*
X138084664Y-109033908D01*
X137954433Y-108837895D01*
X137788610Y-108670911D01*
X137593511Y-108539314D01*
X137376567Y-108448120D01*
X137146041Y-108400800D01*
X137123368Y-108400642D01*
X134295372Y-101491669D01*
X134328430Y-101489062D01*
X134329637Y-101488838D01*
X134329714Y-101488832D01*
X134329796Y-101488809D01*
X134335981Y-101487662D01*
X134569246Y-101442707D01*
X134569307Y-101442696D01*
X135160307Y-101328996D01*
X135160308Y-101328996D01*
X135254478Y-101310953D01*
X135442781Y-101336703D01*
X135614529Y-101422037D01*
X135749595Y-101557719D01*
X135791473Y-101642857D01*
X135791482Y-101642871D01*
X135791592Y-101643099D01*
X136599068Y-103282673D01*
X136605572Y-103296602D01*
X137316503Y-104903973D01*
X137316538Y-104904034D01*
X137317023Y-104905146D01*
X137317843Y-104906987D01*
X137319761Y-104912128D01*
X137320562Y-104914693D01*
X137560662Y-105685893D01*
X137560667Y-105685904D01*
X137560715Y-105686063D01*
X137575115Y-105732263D01*
X137587493Y-105761549D01*
X137597494Y-105791729D01*
X137600658Y-105798726D01*
X137641658Y-105887726D01*
X137658044Y-105915729D01*
X137672205Y-105944903D01*
X137676261Y-105951423D01*
X137702315Y-105992650D01*
X137970053Y-106417342D01*
X137971344Y-106419401D01*
X137974293Y-106424720D01*
X137975104Y-106426405D01*
X137975118Y-106426429D01*
X137975271Y-106426751D01*
X138682671Y-107894051D01*
X138682713Y-107894139D01*
X138705913Y-107942239D01*
X138718317Y-107962601D01*
X138728428Y-107984176D01*
X138746166Y-108008315D01*
X138761758Y-108033910D01*
X138777878Y-108051471D01*
X138791989Y-108070675D01*
X138797158Y-108076354D01*
X138869158Y-108154354D01*
X138886279Y-108169603D01*
X138901583Y-108186672D01*
X138926260Y-108205213D01*
X138949315Y-108225748D01*
X138969075Y-108237383D01*
X138987399Y-108251151D01*
X138993987Y-108255098D01*
X139039787Y-108282098D01*
X139040613Y-108282482D01*
X139047354Y-108286644D01*
X140901483Y-109481804D01*
X140898423Y-109700899D01*
X140940905Y-109932365D01*
X141027536Y-110151171D01*
X141155018Y-110348984D01*
X141318493Y-110518267D01*
X141511736Y-110652575D01*
X141727385Y-110746790D01*
X141957228Y-110797324D01*
X142132675Y-110800999D01*
X136921179Y-111850089D01*
X131261871Y-111868039D01*
X125706852Y-110786412D01*
X120467717Y-108646409D01*
X115744024Y-105529543D01*
X111715694Y-101554534D01*
X108536169Y-96872788D01*
X106326177Y-91661747D01*
X105314036Y-86900000D01*
X114000000Y-86900000D01*
X114046817Y-86895410D01*
X114093691Y-86891144D01*
X114095373Y-86890649D01*
X114097117Y-86890478D01*
X114142155Y-86876880D01*
X114187303Y-86863592D01*
X114188857Y-86862780D01*
X114190535Y-86862273D01*
X114232104Y-86840171D01*
X114273782Y-86818382D01*
X114275147Y-86817285D01*
X114276696Y-86816461D01*
X114313164Y-86786718D01*
X114349832Y-86757236D01*
X114350960Y-86755892D01*
X114352317Y-86754785D01*
X114382265Y-86718585D01*
X114412557Y-86682484D01*
X114413403Y-86680945D01*
X114414519Y-86679596D01*
X114436888Y-86638227D01*
X114459568Y-86596971D01*
X114460098Y-86595301D01*
X114460932Y-86593758D01*
X114474852Y-86548789D01*
X114489074Y-86503956D01*
X114489269Y-86502215D01*
X114489788Y-86500539D01*
X114494712Y-86453694D01*
X114499951Y-86406981D01*
X114499975Y-86403618D01*
X114499988Y-86403491D01*
X114499976Y-86403363D01*
X114500000Y-86400000D01*
X114500000Y-85316306D01*
X114686654Y-85418919D01*
X114919191Y-85492685D01*
X115161628Y-85519878D01*
X115179081Y-85520000D01*
X116798919Y-85520000D01*
X117041712Y-85496194D01*
X117275257Y-85425683D01*
X117490658Y-85311152D01*
X117679712Y-85156963D01*
X117835216Y-84968991D01*
X117951248Y-84754394D01*
X118023388Y-84521347D01*
X118048889Y-84278727D01*
X118026778Y-84035773D01*
X117957899Y-83801742D01*
X117844874Y-83585546D01*
X117692010Y-83395421D01*
X117505128Y-83238608D01*
X117291346Y-83121081D01*
X117058809Y-83047315D01*
X116816372Y-83020122D01*
X116798919Y-83020000D01*
X115179081Y-83020000D01*
X114936288Y-83043806D01*
X114702743Y-83114317D01*
X114500000Y-83222118D01*
X114500000Y-82982177D01*
X117589000Y-82982177D01*
X117660661Y-82976463D01*
X117782205Y-82938822D01*
X117888451Y-82868811D01*
X117970986Y-82771972D01*
X118023275Y-82655974D01*
X118041177Y-82530000D01*
X118041177Y-80930000D01*
X118035463Y-80858339D01*
X117997822Y-80736795D01*
X117927811Y-80630549D01*
X117830972Y-80548014D01*
X117714974Y-80495725D01*
X117589000Y-80477823D01*
X116391118Y-80477823D01*
X116402177Y-80400000D01*
X116402177Y-78800000D01*
X116396463Y-78728339D01*
X116358822Y-78606795D01*
X116288811Y-78500549D01*
X116191972Y-78418014D01*
X116075974Y-78365725D01*
X115950000Y-78347823D01*
X114350000Y-78347823D01*
X114278339Y-78353537D01*
X114156795Y-78391178D01*
X114050549Y-78461189D01*
X113968014Y-78558028D01*
X113915725Y-78674026D01*
X113897823Y-78800000D01*
X113897823Y-79100000D01*
X105316446Y-79100000D01*
X106393362Y-74126756D01*
X108642613Y-68933590D01*
X111857722Y-64276206D01*
X115916220Y-60332008D01*
X120663528Y-57251224D01*
X125918815Y-55151204D01*
X131481913Y-54111937D01*
X137140925Y-54173007D01*
X137140925Y-54173007D01*
G37*
X137140925Y-54173007D02*
X142680297Y-55332087D01*
X146800000Y-57082349D01*
X146800000Y-108932145D01*
X142714916Y-110631072D01*
X142842368Y-110550188D01*
X143012789Y-110387898D01*
X143148442Y-110195598D01*
X143244160Y-109980612D01*
X143296298Y-109751128D01*
X143300051Y-109482334D01*
X143254342Y-109251484D01*
X143164664Y-109033908D01*
X143034433Y-108837895D01*
X142868610Y-108670911D01*
X142673511Y-108539314D01*
X142456567Y-108448120D01*
X142226041Y-108400800D01*
X141990715Y-108399157D01*
X141759551Y-108443253D01*
X141541355Y-108531410D01*
X141499685Y-108558678D01*
X140558781Y-107952177D01*
X141500000Y-107952177D01*
X141571661Y-107946463D01*
X141693205Y-107908822D01*
X141799451Y-107838811D01*
X141881986Y-107741972D01*
X141934275Y-107625974D01*
X141952177Y-107500000D01*
X141952177Y-105500000D01*
X141946463Y-105428339D01*
X141908822Y-105306795D01*
X141838811Y-105200549D01*
X141741972Y-105118014D01*
X141625974Y-105065725D01*
X141500000Y-105047823D01*
X139500000Y-105047823D01*
X139428339Y-105053537D01*
X139306795Y-105091178D01*
X139200549Y-105161189D01*
X139118014Y-105258028D01*
X139065725Y-105374026D01*
X139047823Y-105500000D01*
X139047823Y-106118500D01*
X138966329Y-105949464D01*
X138966296Y-105949394D01*
X138958596Y-105933395D01*
X138952318Y-105923070D01*
X138947675Y-105911920D01*
X138943998Y-105905178D01*
X138926198Y-105873078D01*
X138920006Y-105864105D01*
X138915282Y-105854278D01*
X138911250Y-105847742D01*
X138901850Y-105832742D01*
X138901797Y-105832673D01*
X138901060Y-105831486D01*
X138632560Y-105405586D01*
X138632538Y-105405558D01*
X138632239Y-105405077D01*
X138625544Y-105394482D01*
X138614668Y-105370875D01*
X138610885Y-105358737D01*
X138370838Y-104587707D01*
X138370829Y-104587686D01*
X138370718Y-104587321D01*
X138365318Y-104570022D01*
X138360945Y-104559687D01*
X138358217Y-104548800D01*
X138355582Y-104541587D01*
X138342482Y-104506487D01*
X138336716Y-104494700D01*
X138332750Y-104482192D01*
X138329676Y-104475154D01*
X138322170Y-104458289D01*
X137720719Y-103098444D01*
X137902508Y-103102252D01*
X138134265Y-103061387D01*
X138353671Y-102976285D01*
X138552368Y-102850188D01*
X138722789Y-102687898D01*
X138858442Y-102495598D01*
X138954160Y-102280612D01*
X139006298Y-102051128D01*
X139010051Y-101782334D01*
X138964342Y-101551484D01*
X138962897Y-101547979D01*
X141312893Y-101968933D01*
X141351812Y-102029323D01*
X141460795Y-102142179D01*
X141589624Y-102231717D01*
X141733390Y-102294527D01*
X141886618Y-102328216D01*
X142043472Y-102331502D01*
X142197977Y-102304258D01*
X142344247Y-102247524D01*
X142476712Y-102163459D01*
X142590326Y-102055266D01*
X142680762Y-101927066D01*
X142744574Y-101783741D01*
X142779332Y-101630752D01*
X142781834Y-101451556D01*
X142751361Y-101297656D01*
X142691576Y-101152605D01*
X142604755Y-101021930D01*
X142494207Y-100910607D01*
X142364141Y-100822876D01*
X142219511Y-100762079D01*
X142065827Y-100730533D01*
X141908943Y-100729437D01*
X141754834Y-100758835D01*
X141609370Y-100817607D01*
X141505082Y-100885851D01*
X135639878Y-99835217D01*
X135639864Y-99835216D01*
X135639660Y-99835178D01*
X135490260Y-99808478D01*
X135440942Y-99804569D01*
X135391669Y-99799903D01*
X135383990Y-99799982D01*
X135083290Y-99805182D01*
X135033965Y-99810881D01*
X134984608Y-99815847D01*
X134977090Y-99817409D01*
X134828390Y-99849409D01*
X134828385Y-99849411D01*
X134828292Y-99849430D01*
X134290193Y-99965330D01*
X134290190Y-99965331D01*
X134245561Y-99974937D01*
X134156461Y-99956732D01*
X134123122Y-99933173D01*
X134122158Y-99932331D01*
X134115879Y-99927911D01*
X134108963Y-99923116D01*
X133230764Y-99309944D01*
X133230662Y-99309887D01*
X133228965Y-99308694D01*
X133228350Y-99308268D01*
X133077844Y-99203503D01*
X133055361Y-99089956D01*
X132995576Y-98944905D01*
X132908755Y-98814230D01*
X132905610Y-98811063D01*
X135688530Y-97507674D01*
X135797321Y-97531593D01*
X135973781Y-97535290D01*
X136147599Y-97504641D01*
X136312153Y-97440814D01*
X136461177Y-97346241D01*
X136588992Y-97224524D01*
X136690732Y-97080299D01*
X136762521Y-96919059D01*
X136801624Y-96746946D01*
X136804439Y-96545350D01*
X136770157Y-96372213D01*
X136702898Y-96209031D01*
X136669729Y-96159107D01*
X137165434Y-92225352D01*
X139811524Y-91119866D01*
X139959921Y-91152493D01*
X140136381Y-91156190D01*
X140310199Y-91125541D01*
X140474753Y-91061714D01*
X140623777Y-90967141D01*
X140751592Y-90845424D01*
X140853332Y-90701199D01*
X140925121Y-90539959D01*
X140964224Y-90367846D01*
X140967039Y-90166250D01*
X140932757Y-89993113D01*
X140865498Y-89829931D01*
X140767825Y-89682921D01*
X140643458Y-89557682D01*
X140497133Y-89458985D01*
X140334425Y-89390589D01*
X140161531Y-89355099D01*
X139985036Y-89353867D01*
X139811663Y-89386940D01*
X139648016Y-89453057D01*
X139500328Y-89549702D01*
X139374224Y-89673192D01*
X139274508Y-89818824D01*
X139270263Y-89828728D01*
X136625520Y-90933651D01*
X135895252Y-90374522D01*
X135986590Y-90414427D01*
X136139818Y-90448116D01*
X136296672Y-90451402D01*
X136451177Y-90424158D01*
X136597447Y-90367424D01*
X136729912Y-90283359D01*
X136843526Y-90175166D01*
X136933962Y-90046966D01*
X136997774Y-89903641D01*
X137032532Y-89750652D01*
X137035034Y-89571456D01*
X137004561Y-89417556D01*
X136944776Y-89272505D01*
X136857955Y-89141830D01*
X136747407Y-89030507D01*
X136617341Y-88942776D01*
X136472711Y-88881979D01*
X136319027Y-88850433D01*
X136162143Y-88849337D01*
X136018302Y-88876776D01*
X134985691Y-88253700D01*
X135067262Y-88138066D01*
X135131074Y-87994741D01*
X135132137Y-87990063D01*
X135209190Y-88023727D01*
X135362418Y-88057416D01*
X135519272Y-88060702D01*
X135673777Y-88033458D01*
X135820047Y-87976724D01*
X135952512Y-87892659D01*
X136066126Y-87784466D01*
X136156562Y-87656266D01*
X136220374Y-87512941D01*
X136255132Y-87359952D01*
X136257634Y-87180756D01*
X136227161Y-87026856D01*
X136167376Y-86881805D01*
X136080555Y-86751130D01*
X135976008Y-86645850D01*
X135800336Y-83315826D01*
X135800292Y-83315535D01*
X135800283Y-83315333D01*
X135800188Y-83313475D01*
X135800196Y-83313278D01*
X135800109Y-83311931D01*
X135508708Y-77608987D01*
X135657921Y-77641793D01*
X135834381Y-77645490D01*
X136008199Y-77614841D01*
X136112038Y-77574564D01*
X139043084Y-78431492D01*
X139074563Y-78480338D01*
X139197170Y-78607301D01*
X139342102Y-78708031D01*
X139503839Y-78778693D01*
X139676221Y-78816593D01*
X139852681Y-78820290D01*
X140026499Y-78789641D01*
X140191053Y-78725814D01*
X140340077Y-78631241D01*
X140467892Y-78509524D01*
X140569632Y-78365299D01*
X140641421Y-78204059D01*
X140680524Y-78031946D01*
X140681464Y-77964599D01*
X141339612Y-77229078D01*
X141438499Y-77211641D01*
X141603053Y-77147814D01*
X141752077Y-77053241D01*
X141879892Y-76931524D01*
X141981632Y-76787299D01*
X142053421Y-76626059D01*
X142092524Y-76453946D01*
X142095339Y-76252350D01*
X142061057Y-76079213D01*
X141993798Y-75916031D01*
X141896125Y-75769021D01*
X141771758Y-75643782D01*
X141625433Y-75545085D01*
X141462725Y-75476689D01*
X141289831Y-75441199D01*
X141113336Y-75439967D01*
X140939963Y-75473040D01*
X140776316Y-75539157D01*
X140628628Y-75635802D01*
X140502524Y-75759292D01*
X140402808Y-75904924D01*
X140333277Y-76067150D01*
X140296581Y-76239793D01*
X140295795Y-76296099D01*
X139639271Y-77029807D01*
X139527963Y-77051040D01*
X139436626Y-77087942D01*
X136504720Y-76230763D01*
X136465825Y-76172221D01*
X136341458Y-76046982D01*
X136195133Y-75948285D01*
X136032425Y-75879889D01*
X135910249Y-75854810D01*
X135975462Y-75762366D01*
X136039274Y-75619041D01*
X136074032Y-75466052D01*
X136076534Y-75286856D01*
X136046061Y-75132956D01*
X135986276Y-74987905D01*
X135899455Y-74857230D01*
X135788907Y-74745907D01*
X135658841Y-74658176D01*
X135514211Y-74597379D01*
X135360527Y-74565833D01*
X135203643Y-74564737D01*
X135049534Y-74594135D01*
X134904070Y-74652907D01*
X134772791Y-74738813D01*
X134660699Y-74848582D01*
X134572062Y-74978032D01*
X134510258Y-75122234D01*
X134477639Y-75275693D01*
X134475448Y-75432566D01*
X134503770Y-75586877D01*
X134561524Y-75732748D01*
X134587230Y-75772636D01*
X134419282Y-76357234D01*
X134419270Y-76357276D01*
X134399970Y-76424476D01*
X134392474Y-76465226D01*
X134383165Y-76505590D01*
X134382230Y-76513213D01*
X134366030Y-76653512D01*
X134365311Y-76695280D01*
X134362777Y-76736937D01*
X134363114Y-76744609D01*
X134366714Y-76815209D01*
X134366717Y-76815267D01*
X134701717Y-83371466D01*
X134701777Y-83371863D01*
X134701864Y-83373774D01*
X134701913Y-83374702D01*
X134701904Y-83374923D01*
X134702017Y-83376683D01*
X134729030Y-83888724D01*
X133209092Y-73939540D01*
X133209092Y-73939538D01*
X133197269Y-73861898D01*
X133252568Y-73715033D01*
X133312076Y-73664969D01*
X133312100Y-73664944D01*
X133312411Y-73664686D01*
X135031536Y-72216046D01*
X135186972Y-72219302D01*
X135341477Y-72192058D01*
X135487747Y-72135324D01*
X135620212Y-72051259D01*
X135733826Y-71943066D01*
X135824262Y-71814866D01*
X135888074Y-71671541D01*
X135910513Y-71572776D01*
X135988877Y-71558958D01*
X136135147Y-71502224D01*
X136267612Y-71418159D01*
X136381226Y-71309966D01*
X136471662Y-71181766D01*
X136535474Y-71038441D01*
X136570232Y-70885452D01*
X136571640Y-70784598D01*
X136619724Y-70818017D01*
X136763490Y-70880827D01*
X136916718Y-70914516D01*
X137073572Y-70917802D01*
X137228077Y-70890558D01*
X137374347Y-70833824D01*
X137506812Y-70749759D01*
X137620426Y-70641566D01*
X137710862Y-70513366D01*
X137774674Y-70370041D01*
X137809432Y-70217052D01*
X137811934Y-70037856D01*
X137781461Y-69883956D01*
X137721676Y-69738905D01*
X137634855Y-69608230D01*
X137524307Y-69496907D01*
X137394241Y-69409176D01*
X137249611Y-69348379D01*
X137095927Y-69316833D01*
X136939043Y-69315737D01*
X136784934Y-69345135D01*
X136639470Y-69403907D01*
X136508191Y-69489813D01*
X136430853Y-69565548D01*
X135774311Y-69564700D01*
X135774309Y-69564700D01*
X135725518Y-69564601D01*
X135688882Y-69568118D01*
X135652112Y-69569372D01*
X135644507Y-69570434D01*
X135547107Y-69584734D01*
X135512113Y-69593428D01*
X135476638Y-69599853D01*
X135469266Y-69602003D01*
X135422167Y-69616103D01*
X135422131Y-69616118D01*
X135421601Y-69616273D01*
X134653301Y-69847173D01*
X134653280Y-69847182D01*
X134652955Y-69847277D01*
X134436855Y-69912377D01*
X134436371Y-69912576D01*
X134435860Y-69912678D01*
X134386916Y-69932925D01*
X134337588Y-69953221D01*
X134337151Y-69953511D01*
X134336670Y-69953710D01*
X134292573Y-69983089D01*
X134248145Y-70012568D01*
X134247773Y-70012937D01*
X134247339Y-70013226D01*
X134241429Y-70018128D01*
X134044601Y-70183715D01*
X133999807Y-70138607D01*
X133869741Y-70050876D01*
X133770045Y-70008968D01*
X134870752Y-68398274D01*
X134870784Y-68398228D01*
X134978984Y-68240128D01*
X134984330Y-68230399D01*
X134991108Y-68221623D01*
X135010124Y-68183452D01*
X135030674Y-68146052D01*
X135034027Y-68135475D01*
X135038974Y-68125544D01*
X135050220Y-68084385D01*
X135063107Y-68043727D01*
X135064341Y-68032705D01*
X135067266Y-68021999D01*
X135068505Y-68014420D01*
X135127905Y-67634321D01*
X135128524Y-67623530D01*
X135130812Y-67612981D01*
X135131590Y-67570048D01*
X135133119Y-67543374D01*
X135847817Y-67543374D01*
X135879678Y-67716974D01*
X135944652Y-67881079D01*
X136040263Y-68029438D01*
X136162870Y-68156401D01*
X136307802Y-68257131D01*
X136469539Y-68327793D01*
X136641921Y-68365693D01*
X136818381Y-68369390D01*
X136992199Y-68338741D01*
X137156753Y-68274914D01*
X137300721Y-68183549D01*
X139014472Y-68231916D01*
X139021133Y-68232107D01*
X139034200Y-68234200D01*
X139040551Y-68236097D01*
X141430658Y-68951597D01*
X141465163Y-69005138D01*
X141587770Y-69132101D01*
X141732702Y-69232831D01*
X141894439Y-69303493D01*
X142066821Y-69341393D01*
X142243281Y-69345090D01*
X142417099Y-69314441D01*
X142581653Y-69250614D01*
X142730677Y-69156041D01*
X142858492Y-69034324D01*
X142960232Y-68890099D01*
X143032021Y-68728859D01*
X143071124Y-68556746D01*
X143073939Y-68355150D01*
X143039657Y-68182013D01*
X142972398Y-68018831D01*
X142874725Y-67871821D01*
X142750358Y-67746582D01*
X142604033Y-67647885D01*
X142441325Y-67579489D01*
X142268431Y-67543999D01*
X142091936Y-67542767D01*
X141918563Y-67575840D01*
X141832649Y-67610551D01*
X139442049Y-66894903D01*
X139442018Y-66894897D01*
X139441597Y-66894768D01*
X139390697Y-66879568D01*
X139350371Y-66871710D01*
X139310789Y-66860730D01*
X139301149Y-66859116D01*
X139197549Y-66842517D01*
X139156916Y-66840029D01*
X139116598Y-66834334D01*
X139106829Y-66833987D01*
X139054430Y-66832487D01*
X139054412Y-66832488D01*
X139054148Y-66832479D01*
X137338544Y-66784060D01*
X137325458Y-66770882D01*
X137179133Y-66672185D01*
X137016425Y-66603789D01*
X136843531Y-66568299D01*
X136667036Y-66567067D01*
X136493663Y-66600140D01*
X136330016Y-66666257D01*
X136182328Y-66762902D01*
X136056224Y-66886392D01*
X135956508Y-67032024D01*
X135886977Y-67194250D01*
X135850281Y-67366893D01*
X135847817Y-67543374D01*
X135133119Y-67543374D01*
X135134050Y-67527155D01*
X135132562Y-67516458D01*
X135132758Y-67505657D01*
X135125180Y-67463384D01*
X135119263Y-67420837D01*
X135115724Y-67410627D01*
X135113819Y-67400000D01*
X135111682Y-67392624D01*
X135057082Y-67209024D01*
X134914105Y-66728154D01*
X134914103Y-66728143D01*
X134912000Y-66720757D01*
X134390401Y-64936733D01*
X134397362Y-64926866D01*
X134461174Y-64783541D01*
X134495932Y-64630552D01*
X134498434Y-64451356D01*
X134467961Y-64297456D01*
X134408176Y-64152405D01*
X134321355Y-64021730D01*
X134210807Y-63910407D01*
X134080741Y-63822676D01*
X133936111Y-63761879D01*
X133782427Y-63730333D01*
X133625543Y-63729237D01*
X133471434Y-63758635D01*
X133325970Y-63817407D01*
X133194691Y-63903313D01*
X133082599Y-64013082D01*
X132993962Y-64142532D01*
X132932158Y-64286734D01*
X132899539Y-64440193D01*
X132897348Y-64597066D01*
X132925670Y-64751377D01*
X132983424Y-64897248D01*
X133068412Y-65029123D01*
X133177395Y-65141979D01*
X133306224Y-65231517D01*
X133334097Y-65243694D01*
X133762298Y-66708269D01*
X133633036Y-66707367D01*
X133459663Y-66740440D01*
X133296016Y-66806557D01*
X133148328Y-66903202D01*
X133022224Y-67026692D01*
X132922508Y-67172324D01*
X132852977Y-67334550D01*
X132816281Y-67507193D01*
X132815859Y-67537421D01*
X131417414Y-69006940D01*
X131417394Y-69006965D01*
X131417116Y-69007254D01*
X131395692Y-69029795D01*
X131342402Y-69066106D01*
X131312897Y-69078087D01*
X131312879Y-69078094D01*
X130872912Y-69256480D01*
X130872906Y-69256483D01*
X130780406Y-69293983D01*
X130722842Y-69324163D01*
X130665063Y-69353751D01*
X130659552Y-69357346D01*
X130659412Y-69357419D01*
X130659296Y-69357513D01*
X130656876Y-69359091D01*
X130488976Y-69470291D01*
X130438398Y-69511419D01*
X130387485Y-69552062D01*
X130383104Y-69556382D01*
X130382981Y-69556482D01*
X130382884Y-69556599D01*
X130380525Y-69558925D01*
X127784925Y-72154525D01*
X127772186Y-72170034D01*
X127757436Y-72183634D01*
X127750982Y-72190974D01*
X127704082Y-72245074D01*
X127693023Y-72260681D01*
X127679883Y-72274576D01*
X127673946Y-72282341D01*
X127652546Y-72310741D01*
X127652493Y-72310827D01*
X127651510Y-72312120D01*
X126751910Y-73512119D01*
X126751898Y-73512138D01*
X126751764Y-73512315D01*
X126739011Y-73529339D01*
X126709231Y-73559119D01*
X126691973Y-73572070D01*
X126691919Y-73572110D01*
X125491919Y-74471710D01*
X125491898Y-74471729D01*
X125491644Y-74471917D01*
X125434344Y-74514917D01*
X125401402Y-74545088D01*
X125366484Y-74572962D01*
X125359525Y-74579825D01*
X125259325Y-74680025D01*
X125230781Y-74714776D01*
X125199979Y-74747533D01*
X125194064Y-74755315D01*
X125151515Y-74812113D01*
X125151510Y-74812120D01*
X124251910Y-76012119D01*
X124251907Y-76012124D01*
X124238965Y-76029380D01*
X124208015Y-76060150D01*
X124191131Y-76072666D01*
X124191113Y-76072683D01*
X124190713Y-76072975D01*
X122858264Y-77062280D01*
X122187026Y-76771781D01*
X122186992Y-76771770D01*
X122186533Y-76771568D01*
X122143234Y-76752869D01*
X122116865Y-76744424D01*
X122091652Y-76732970D01*
X122082379Y-76729880D01*
X121992679Y-76700680D01*
X121965313Y-76694647D01*
X121938820Y-76685499D01*
X121929298Y-76683292D01*
X121884297Y-76673192D01*
X121884298Y-76673192D01*
X119358529Y-76105811D01*
X119303446Y-76093351D01*
X119264925Y-76088521D01*
X119226939Y-76080452D01*
X119217218Y-76079432D01*
X119101818Y-76068132D01*
X119063568Y-76068137D01*
X119025460Y-76064847D01*
X119015688Y-76065029D01*
X118957088Y-76066529D01*
X118957037Y-76066535D01*
X118956246Y-76066551D01*
X116519845Y-76131851D01*
X116519842Y-76131851D01*
X116519809Y-76131852D01*
X116496178Y-76132487D01*
X116450160Y-76126526D01*
X116427149Y-76119790D01*
X116427150Y-76119790D01*
X111749826Y-74748935D01*
X111731581Y-74704669D01*
X111617629Y-74533158D01*
X111472534Y-74387046D01*
X111301822Y-74271900D01*
X111111996Y-74192104D01*
X110910286Y-74150699D01*
X110704375Y-74149261D01*
X110502107Y-74187846D01*
X110349900Y-74249341D01*
X110349900Y-73649240D01*
X110473962Y-73703442D01*
X110675074Y-73747659D01*
X110880945Y-73751971D01*
X111083732Y-73716215D01*
X111275712Y-73641750D01*
X111449573Y-73531415D01*
X111598691Y-73389412D01*
X111683108Y-73269744D01*
X121429161Y-67214331D01*
X121430819Y-67213061D01*
X121432678Y-67212134D01*
X121443865Y-67205007D01*
X121582965Y-67115007D01*
X121584353Y-67113903D01*
X121585921Y-67113086D01*
X121596980Y-67105763D01*
X123667401Y-65713651D01*
X123730657Y-65671215D01*
X123771115Y-65637916D01*
X123814254Y-65608185D01*
X123824330Y-65599558D01*
X123941430Y-65497857D01*
X123977448Y-65459804D01*
X124016569Y-65424959D01*
X124025498Y-65415150D01*
X124075858Y-65359040D01*
X127577564Y-61470301D01*
X127577581Y-61470279D01*
X127577780Y-61470060D01*
X127639781Y-61401160D01*
X127683930Y-61341240D01*
X127730359Y-61283073D01*
X127738834Y-61266721D01*
X127749760Y-61251892D01*
X127781434Y-61184528D01*
X127815676Y-61118462D01*
X127820516Y-61106112D01*
X127879599Y-60952177D01*
X128500000Y-60952177D01*
X128571661Y-60946463D01*
X128693205Y-60908822D01*
X128799451Y-60838811D01*
X128881986Y-60741972D01*
X128934275Y-60625974D01*
X128952177Y-60500000D01*
X128952177Y-58500000D01*
X128946463Y-58428339D01*
X128908822Y-58306795D01*
X128838811Y-58200549D01*
X128741972Y-58118014D01*
X128625974Y-58065725D01*
X128500000Y-58047823D01*
X126500000Y-58047823D01*
X126428339Y-58053537D01*
X126306795Y-58091178D01*
X126200549Y-58161189D01*
X126118014Y-58258028D01*
X126065725Y-58374026D01*
X126047823Y-58500000D01*
X126047823Y-60329735D01*
X123233561Y-63455049D01*
X123141125Y-63315921D01*
X123016758Y-63190682D01*
X122870433Y-63091985D01*
X122707725Y-63023589D01*
X122534831Y-62988099D01*
X122358336Y-62986867D01*
X122184963Y-63019940D01*
X122021316Y-63086057D01*
X121873628Y-63182702D01*
X121747524Y-63306192D01*
X121647808Y-63451824D01*
X121578277Y-63614050D01*
X121560776Y-63696385D01*
X120285631Y-64721420D01*
X120285623Y-64721428D01*
X120285503Y-64721523D01*
X120081313Y-64885742D01*
X119620200Y-65133916D01*
X119121486Y-65293919D01*
X118601937Y-65360388D01*
X118337423Y-65345505D01*
X118337422Y-65345505D01*
X114536397Y-65128965D01*
X114575049Y-65104435D01*
X114745470Y-64942145D01*
X114881123Y-64749845D01*
X114976841Y-64534859D01*
X115028979Y-64305375D01*
X115032732Y-64036581D01*
X114987023Y-63805731D01*
X114897345Y-63588155D01*
X114767114Y-63392142D01*
X114601291Y-63225158D01*
X114406192Y-63093561D01*
X114189248Y-63002367D01*
X113958722Y-62955047D01*
X113723396Y-62953404D01*
X113492232Y-62997500D01*
X113274036Y-63085657D01*
X113077118Y-63214517D01*
X112908980Y-63379170D01*
X112776025Y-63573346D01*
X112683318Y-63789648D01*
X112634390Y-64019837D01*
X112631104Y-64255146D01*
X112673586Y-64486612D01*
X112760217Y-64705418D01*
X112887699Y-64903231D01*
X113051174Y-65072514D01*
X113053895Y-65074405D01*
X113028598Y-65082128D01*
X112982726Y-65093143D01*
X112963402Y-65102032D01*
X112943056Y-65108243D01*
X112934057Y-65112059D01*
X112906876Y-65123808D01*
X112398211Y-64696988D01*
X112339642Y-64655303D01*
X112222339Y-64606010D01*
X112095947Y-64591348D01*
X111970475Y-64612479D01*
X111855857Y-64667728D01*
X111761169Y-64752722D01*
X110796988Y-65901789D01*
X110755303Y-65960358D01*
X110706010Y-66077661D01*
X110691348Y-66204053D01*
X110712479Y-66329525D01*
X110767728Y-66444143D01*
X110852722Y-66538831D01*
X112001789Y-67503012D01*
X112060358Y-67544697D01*
X112177661Y-67593990D01*
X112304053Y-67608652D01*
X112429525Y-67587521D01*
X112544143Y-67532272D01*
X112638831Y-67447278D01*
X113458985Y-66469856D01*
X118258286Y-66743267D01*
X118258315Y-66743266D01*
X118258777Y-66743295D01*
X118559824Y-66760233D01*
X110909722Y-71513392D01*
X110913974Y-71503841D01*
X110948732Y-71350852D01*
X110951234Y-71171656D01*
X110920761Y-71017756D01*
X110860976Y-70872705D01*
X110774155Y-70742030D01*
X110663607Y-70630707D01*
X110533541Y-70542976D01*
X110388911Y-70482179D01*
X110235227Y-70450633D01*
X110078343Y-70449537D01*
X109924234Y-70478935D01*
X109778770Y-70537707D01*
X109647491Y-70623613D01*
X109535399Y-70733382D01*
X109446762Y-70862832D01*
X109384958Y-71007034D01*
X109352339Y-71160493D01*
X109350148Y-71317366D01*
X109378470Y-71471677D01*
X109436224Y-71617548D01*
X109470146Y-71670184D01*
X109302241Y-72300621D01*
X109285541Y-72363121D01*
X109280302Y-72394906D01*
X109272592Y-72426177D01*
X109271543Y-72433784D01*
X109254543Y-72563784D01*
X109253512Y-72595698D01*
X109249954Y-72627421D01*
X109249900Y-72635100D01*
X109249900Y-75199675D01*
X109249800Y-75368875D01*
X109253188Y-75403642D01*
X109254191Y-75438560D01*
X109258383Y-75456946D01*
X109260212Y-75475710D01*
X109270288Y-75509154D01*
X109278054Y-75543214D01*
X109280534Y-75550482D01*
X109392634Y-75871582D01*
X109407371Y-75903410D01*
X109419909Y-75936155D01*
X109429870Y-75952002D01*
X109437735Y-75968989D01*
X109458368Y-75997341D01*
X109477032Y-76027034D01*
X109481776Y-76033073D01*
X109693676Y-76298972D01*
X109718077Y-76324106D01*
X109740716Y-76350847D01*
X109755384Y-76362535D01*
X109768446Y-76375989D01*
X109797264Y-76395905D01*
X109824666Y-76417739D01*
X109831139Y-76421871D01*
X110119138Y-76602871D01*
X110150447Y-76618514D01*
X110180611Y-76636251D01*
X110198353Y-76642449D01*
X110215162Y-76650847D01*
X110248905Y-76660108D01*
X110281947Y-76671651D01*
X110289421Y-76673412D01*
X110448162Y-76709641D01*
X110311185Y-76764983D01*
X110138882Y-76877735D01*
X109991761Y-77021807D01*
X109875425Y-77191711D01*
X109794307Y-77380975D01*
X109751494Y-77582391D01*
X109748619Y-77788287D01*
X109785791Y-77990820D01*
X109861594Y-78182275D01*
X109973140Y-78355361D01*
X110116181Y-78503485D01*
X110285269Y-78621003D01*
X110473962Y-78703442D01*
X110675074Y-78747659D01*
X110880945Y-78751971D01*
X111083732Y-78716215D01*
X111275712Y-78641750D01*
X111449573Y-78531415D01*
X111598691Y-78389412D01*
X111717388Y-78221149D01*
X111801141Y-78033035D01*
X111846761Y-77832237D01*
X111850046Y-77597042D01*
X111810050Y-77395048D01*
X111731581Y-77204669D01*
X111617629Y-77033158D01*
X111543682Y-76958692D01*
X116024080Y-77977217D01*
X116024088Y-77977218D01*
X116113851Y-77997664D01*
X116140778Y-78001081D01*
X116167245Y-78007085D01*
X116174870Y-78007992D01*
X116358170Y-78028492D01*
X116384685Y-78028854D01*
X116411026Y-78031837D01*
X116418705Y-78031900D01*
X116511205Y-78032000D01*
X116511245Y-78031996D01*
X116511800Y-78032000D01*
X116545521Y-78032000D01*
X116610319Y-78046645D01*
X116640813Y-78061166D01*
X116640870Y-78061194D01*
X118423070Y-78910594D01*
X118423072Y-78910595D01*
X118470393Y-78933157D01*
X118501001Y-78944232D01*
X118530664Y-78957632D01*
X118537954Y-78960045D01*
X118636654Y-78991945D01*
X118668347Y-78998861D01*
X118699401Y-79008210D01*
X118706945Y-79009643D01*
X118757186Y-79018823D01*
X118757210Y-79018827D01*
X118824358Y-79031177D01*
X118948289Y-79085197D01*
X119058237Y-79167242D01*
X119145598Y-79270844D01*
X119176687Y-79331778D01*
X120264077Y-81467160D01*
X120264097Y-81467201D01*
X120293097Y-81524201D01*
X120313384Y-81555964D01*
X120331779Y-81588851D01*
X120336207Y-81595125D01*
X120411507Y-81700225D01*
X120436629Y-81728901D01*
X120460064Y-81758936D01*
X120465394Y-81764464D01*
X120509608Y-81809671D01*
X124226509Y-85622359D01*
X124226541Y-85622392D01*
X124237039Y-85633168D01*
X124256646Y-85657929D01*
X124264707Y-85670541D01*
X124264732Y-85670581D01*
X125019932Y-86853381D01*
X125019944Y-86853397D01*
X125020105Y-86853652D01*
X125049705Y-86899952D01*
X125069070Y-86924568D01*
X125086358Y-86950674D01*
X125091244Y-86956599D01*
X125160844Y-87039799D01*
X125182851Y-87061415D01*
X125202975Y-87084780D01*
X125208567Y-87090043D01*
X125248867Y-87127443D01*
X125248921Y-87127484D01*
X125249718Y-87128231D01*
X126205218Y-88011231D01*
X126205247Y-88011253D01*
X126205693Y-88011670D01*
X126273594Y-88074270D01*
X126274645Y-88075064D01*
X126275530Y-88076047D01*
X126317480Y-88107430D01*
X126359237Y-88138981D01*
X126360426Y-88139558D01*
X126361481Y-88140347D01*
X126368077Y-88144280D01*
X126526077Y-88236980D01*
X126527397Y-88237590D01*
X126528576Y-88238437D01*
X126576041Y-88260067D01*
X126623518Y-88282005D01*
X126624932Y-88282347D01*
X126626253Y-88282949D01*
X126633535Y-88285386D01*
X126720735Y-88313886D01*
X126720739Y-88313887D01*
X126720868Y-88313930D01*
X128423017Y-88869772D01*
X118836758Y-89359740D01*
X118796607Y-89319307D01*
X118666541Y-89231576D01*
X118521911Y-89170779D01*
X118368227Y-89139233D01*
X118211343Y-89138137D01*
X118057234Y-89167535D01*
X117911770Y-89226307D01*
X117780491Y-89312213D01*
X117668399Y-89421982D01*
X117579762Y-89551432D01*
X117517958Y-89695634D01*
X117485339Y-89849093D01*
X117483148Y-90005966D01*
X117511470Y-90160277D01*
X117569224Y-90306148D01*
X117654212Y-90438023D01*
X117763195Y-90550879D01*
X117892024Y-90640417D01*
X118035790Y-90703227D01*
X118189018Y-90736916D01*
X118345872Y-90740202D01*
X118500377Y-90712958D01*
X118646647Y-90656224D01*
X118779112Y-90572159D01*
X118892726Y-90463966D01*
X118896861Y-90458104D01*
X129724135Y-89904705D01*
X129756815Y-89903064D01*
X129820749Y-89913602D01*
X129849870Y-89925195D01*
X129849911Y-89925207D01*
X129850534Y-89925459D01*
X130940557Y-90357764D01*
X130968424Y-90428148D01*
X131053412Y-90560023D01*
X131162395Y-90672879D01*
X131291224Y-90762417D01*
X131434990Y-90825227D01*
X131588218Y-90858916D01*
X131745072Y-90862202D01*
X131899577Y-90834958D01*
X132045847Y-90778224D01*
X132178312Y-90694159D01*
X132291926Y-90585966D01*
X132382362Y-90457766D01*
X132416909Y-90380171D01*
X133578738Y-91110794D01*
X132972526Y-91046927D01*
X132972523Y-91046927D01*
X132762087Y-91024655D01*
X132738706Y-91024475D01*
X132715487Y-91021716D01*
X132685160Y-91024062D01*
X132654749Y-91023828D01*
X132631780Y-91028192D01*
X132608466Y-91029996D01*
X132579175Y-91038188D01*
X132549295Y-91043865D01*
X132527607Y-91052609D01*
X132505091Y-91058906D01*
X132497952Y-91061736D01*
X132103652Y-91221235D01*
X132082797Y-91232149D01*
X132060874Y-91240706D01*
X132035358Y-91256975D01*
X132008547Y-91271006D01*
X131990212Y-91285760D01*
X131970365Y-91298415D01*
X131948494Y-91319331D01*
X131924920Y-91338302D01*
X131909797Y-91356340D01*
X131892790Y-91372605D01*
X131887825Y-91378463D01*
X131753372Y-91539393D01*
X131746953Y-91546935D01*
X131746888Y-91547029D01*
X131743312Y-91551258D01*
X131713609Y-91586895D01*
X131633194Y-91637437D01*
X131540835Y-91660756D01*
X131446974Y-91654537D01*
X131402419Y-91636800D01*
X131402414Y-91636799D01*
X129732739Y-90971008D01*
X129732695Y-90970990D01*
X129637495Y-90932990D01*
X129612461Y-90925736D01*
X129588284Y-90916000D01*
X129561034Y-90910834D01*
X129534395Y-90903115D01*
X129508430Y-90900862D01*
X129482821Y-90896007D01*
X129475168Y-90895373D01*
X129270668Y-90879873D01*
X129244906Y-90880442D01*
X129219229Y-90878389D01*
X129191384Y-90881625D01*
X129163353Y-90882244D01*
X129138196Y-90887805D01*
X129112606Y-90890779D01*
X129105112Y-90892458D01*
X129005944Y-90915404D01*
X129005856Y-90915424D01*
X125454656Y-91736124D01*
X125454565Y-91736155D01*
X125452995Y-91736511D01*
X125440195Y-91739511D01*
X125440072Y-91739553D01*
X125435394Y-91740659D01*
X124641094Y-91934359D01*
X124641065Y-91934369D01*
X124640682Y-91934460D01*
X124612482Y-91941360D01*
X124606631Y-91943415D01*
X124600510Y-91944432D01*
X124593108Y-91946476D01*
X124537407Y-91962276D01*
X124530932Y-91964818D01*
X124524128Y-91966225D01*
X124516812Y-91968556D01*
X124487712Y-91978056D01*
X124487668Y-91978075D01*
X124486935Y-91978310D01*
X121330335Y-93014010D01*
X121330327Y-93014014D01*
X121330285Y-93014027D01*
X121284164Y-93029164D01*
X121187505Y-93024306D01*
X121143828Y-93004993D01*
X121137306Y-93002084D01*
X121137200Y-93002049D01*
X121135151Y-93001128D01*
X121110650Y-92990328D01*
X121069978Y-92976965D01*
X121029872Y-92962000D01*
X121022436Y-92960082D01*
X120970536Y-92947082D01*
X120927854Y-92940732D01*
X120885485Y-92932751D01*
X120877831Y-92932125D01*
X120851031Y-92930125D01*
X120851022Y-92930125D01*
X120850933Y-92930118D01*
X120753647Y-92922875D01*
X120749531Y-92922538D01*
X120740248Y-92922686D01*
X120731065Y-92921337D01*
X120723393Y-92921021D01*
X120711692Y-92920621D01*
X120706121Y-92920976D01*
X120700579Y-92920354D01*
X120692900Y-92920300D01*
X120687514Y-92920300D01*
X120162915Y-92920000D01*
X120162894Y-92920002D01*
X120162600Y-92920000D01*
X119617000Y-92920000D01*
X119611722Y-92920518D01*
X119606441Y-92920102D01*
X119598764Y-92920302D01*
X119577664Y-92921002D01*
X119572446Y-92921689D01*
X119567199Y-92921450D01*
X119559534Y-92921904D01*
X119460833Y-92928444D01*
X119460823Y-92928445D01*
X119434523Y-92930145D01*
X119392372Y-92937047D01*
X119349996Y-92942252D01*
X119342514Y-92943979D01*
X119291315Y-92956179D01*
X119251558Y-92969871D01*
X119211249Y-92981865D01*
X119204158Y-92984812D01*
X119179858Y-92995112D01*
X119179017Y-92995570D01*
X119178957Y-92995595D01*
X119138206Y-93012954D01*
X119048186Y-93019059D01*
X118960847Y-92995103D01*
X118886956Y-92944386D01*
X118860111Y-92907981D01*
X118400692Y-92284363D01*
X118400654Y-92284311D01*
X118358654Y-92227211D01*
X118352581Y-92220451D01*
X118347692Y-92212813D01*
X118316783Y-92180605D01*
X118286917Y-92147362D01*
X118279654Y-92141916D01*
X118273368Y-92135366D01*
X118236772Y-92109762D01*
X118201036Y-92082966D01*
X118192853Y-92079034D01*
X118185416Y-92073831D01*
X118178698Y-92070110D01*
X118053498Y-92001910D01*
X118045016Y-91998314D01*
X118037232Y-91993399D01*
X117995686Y-91977396D01*
X117954674Y-91960006D01*
X117945657Y-91958126D01*
X117937064Y-91954816D01*
X117893191Y-91947186D01*
X117849593Y-91938095D01*
X117840384Y-91938002D01*
X117831311Y-91936424D01*
X117823649Y-91935906D01*
X117752649Y-91931606D01*
X117752648Y-91931606D01*
X116437696Y-91851615D01*
X116432730Y-91851799D01*
X116427811Y-91851103D01*
X116420137Y-91850828D01*
X116395837Y-91850128D01*
X116391748Y-91850410D01*
X116387679Y-91849954D01*
X116380000Y-91849900D01*
X115277600Y-91849900D01*
X115250579Y-91852549D01*
X115223435Y-91852574D01*
X115215798Y-91853383D01*
X115170699Y-91858483D01*
X115143807Y-91864225D01*
X115116503Y-91867372D01*
X115109008Y-91869043D01*
X115087483Y-91874003D01*
X112461653Y-92474599D01*
X112400241Y-92433176D01*
X112255611Y-92372379D01*
X112101927Y-92340833D01*
X111945043Y-92339737D01*
X111790934Y-92369135D01*
X111645470Y-92427907D01*
X111514191Y-92513813D01*
X111402099Y-92623582D01*
X111313462Y-92753032D01*
X111251658Y-92897234D01*
X111219039Y-93050693D01*
X111216848Y-93207566D01*
X111245170Y-93361877D01*
X111302924Y-93507748D01*
X111387912Y-93639623D01*
X111496895Y-93752479D01*
X111625724Y-93842017D01*
X111769490Y-93904827D01*
X111922718Y-93938516D01*
X112079572Y-93941802D01*
X112234077Y-93914558D01*
X112380347Y-93857824D01*
X112512812Y-93773759D01*
X112626426Y-93665566D01*
X112710750Y-93546030D01*
X115317055Y-92949900D01*
X116167823Y-92949900D01*
X116167823Y-93800000D01*
X116173537Y-93871661D01*
X116211178Y-93993205D01*
X116281189Y-94099451D01*
X116285099Y-94102783D01*
X116238014Y-94158028D01*
X116185725Y-94274026D01*
X116167823Y-94400000D01*
X116167823Y-95400000D01*
X116173537Y-95471661D01*
X116211178Y-95593205D01*
X116281189Y-95699451D01*
X116285099Y-95702783D01*
X116238014Y-95758028D01*
X116185725Y-95874026D01*
X116167823Y-96000000D01*
X116167823Y-97000000D01*
X116173537Y-97071661D01*
X116211178Y-97193205D01*
X116281189Y-97299451D01*
X116285099Y-97302783D01*
X116238014Y-97358028D01*
X116185725Y-97474026D01*
X116167823Y-97600000D01*
X116167823Y-98600000D01*
X116173537Y-98671661D01*
X116211178Y-98793205D01*
X116281189Y-98899451D01*
X116285099Y-98902783D01*
X116238014Y-98958028D01*
X116185725Y-99074026D01*
X116167823Y-99200000D01*
X116167823Y-100200000D01*
X116173537Y-100271661D01*
X116211178Y-100393205D01*
X116281189Y-100499451D01*
X116285099Y-100502783D01*
X116238014Y-100558028D01*
X116185725Y-100674026D01*
X116167823Y-100800000D01*
X116167823Y-101800000D01*
X116173537Y-101871661D01*
X116211178Y-101993205D01*
X116281189Y-102099451D01*
X116378028Y-102181986D01*
X116494026Y-102234275D01*
X116620000Y-102252177D01*
X117700000Y-102252177D01*
X117771661Y-102246463D01*
X117893205Y-102208822D01*
X117999451Y-102138811D01*
X118081986Y-102041972D01*
X118134275Y-101925974D01*
X118152177Y-101800000D01*
X118152177Y-101426001D01*
X119000000Y-101379245D01*
X119000000Y-104600000D01*
X119013678Y-104672691D01*
X119056638Y-104739454D01*
X119122189Y-104784243D01*
X119200000Y-104800000D01*
X122426503Y-104800000D01*
X122471024Y-104912448D01*
X122556012Y-105044323D01*
X122664995Y-105157179D01*
X122793824Y-105246717D01*
X122937590Y-105309527D01*
X123090818Y-105343216D01*
X123247672Y-105346502D01*
X123402177Y-105319258D01*
X123548447Y-105262524D01*
X123680912Y-105178459D01*
X123794526Y-105070266D01*
X123884962Y-104942066D01*
X123945308Y-104806525D01*
X124567628Y-104526589D01*
X124567644Y-104526580D01*
X124567881Y-104526475D01*
X124729282Y-104453775D01*
X124755795Y-104438561D01*
X124783481Y-104425643D01*
X124802225Y-104411918D01*
X124822384Y-104400350D01*
X124845435Y-104380278D01*
X124870087Y-104362227D01*
X124885807Y-104345123D01*
X124903336Y-104329860D01*
X124922053Y-104305688D01*
X124942725Y-104283197D01*
X124947303Y-104277031D01*
X125156303Y-103991331D01*
X125171980Y-103964808D01*
X125189816Y-103939682D01*
X125199229Y-103918708D01*
X125210922Y-103898925D01*
X125221148Y-103869867D01*
X125233766Y-103841750D01*
X125238925Y-103819350D01*
X125246554Y-103797670D01*
X125250942Y-103767168D01*
X125257856Y-103737147D01*
X125258789Y-103729525D01*
X125278989Y-103554125D01*
X125278989Y-103554122D01*
X125648873Y-100363910D01*
X125664712Y-100353859D01*
X125778326Y-100245666D01*
X125868762Y-100117466D01*
X125932574Y-99974141D01*
X125967332Y-99821152D01*
X125969834Y-99641956D01*
X125939361Y-99488056D01*
X125879576Y-99343005D01*
X125834079Y-99274527D01*
X127623251Y-98497253D01*
X127623252Y-98497252D01*
X127623300Y-98497232D01*
X127697400Y-98465032D01*
X127727318Y-98448388D01*
X127758333Y-98433913D01*
X127764914Y-98429956D01*
X127901114Y-98346756D01*
X127928590Y-98326037D01*
X127957451Y-98307302D01*
X127963420Y-98302471D01*
X128026020Y-98251071D01*
X128026027Y-98251064D01*
X128026048Y-98251047D01*
X129353333Y-97161084D01*
X128401153Y-99325747D01*
X128401149Y-99325760D01*
X128401052Y-99325976D01*
X128359053Y-99421576D01*
X128346293Y-99460576D01*
X128331747Y-99498945D01*
X128329790Y-99506371D01*
X128277989Y-99708671D01*
X128271678Y-99749620D01*
X128263543Y-99790242D01*
X128262830Y-99797888D01*
X128253976Y-99900660D01*
X128154964Y-101037050D01*
X128153659Y-101051405D01*
X128153724Y-101060613D01*
X128152302Y-101069714D01*
X128151916Y-101077384D01*
X128150516Y-101109683D01*
X128150957Y-101117773D01*
X128150054Y-101125821D01*
X128150000Y-101133500D01*
X128150000Y-102650000D01*
X128150315Y-102653211D01*
X128150038Y-102656420D01*
X128150181Y-102664098D01*
X128151181Y-102703098D01*
X128151627Y-102706692D01*
X128151413Y-102710309D01*
X128151764Y-102717981D01*
X128287044Y-105281777D01*
X128192992Y-105218338D01*
X127930851Y-105108144D01*
X127652300Y-105050966D01*
X127367947Y-105048980D01*
X127088624Y-105102264D01*
X126824970Y-105208787D01*
X126587028Y-105364492D01*
X126383861Y-105563448D01*
X126223207Y-105798077D01*
X126111186Y-106059442D01*
X126052064Y-106337588D01*
X126048094Y-106621920D01*
X126099426Y-106901608D01*
X126204106Y-107165999D01*
X126358146Y-107405022D01*
X126555679Y-107609573D01*
X126789181Y-107771861D01*
X127049757Y-107885705D01*
X127327484Y-107946767D01*
X127611781Y-107952722D01*
X127891820Y-107903343D01*
X128156936Y-107800512D01*
X128295592Y-107712518D01*
X128259277Y-108508008D01*
X128201355Y-108531410D01*
X128004437Y-108660270D01*
X127836299Y-108824923D01*
X127703344Y-109019099D01*
X127610637Y-109235401D01*
X127561709Y-109465590D01*
X127558423Y-109700899D01*
X127600905Y-109932365D01*
X127687536Y-110151171D01*
X127815018Y-110348984D01*
X127978493Y-110518267D01*
X128171736Y-110652575D01*
X128387385Y-110746790D01*
X128617228Y-110797324D01*
X128852508Y-110802252D01*
X129084265Y-110761387D01*
X129303671Y-110676285D01*
X129502368Y-110550188D01*
X129672789Y-110387898D01*
X129808442Y-110195598D01*
X129904160Y-109980612D01*
X129956298Y-109751128D01*
X129960051Y-109482334D01*
X129914342Y-109251484D01*
X129824664Y-109033908D01*
X129694433Y-108837895D01*
X129528610Y-108670911D01*
X129358233Y-108555989D01*
X129448028Y-106588982D01*
X129449599Y-106555403D01*
X129449076Y-106545158D01*
X129450174Y-106534967D01*
X129450195Y-106527288D01*
X129449895Y-106458888D01*
X129449045Y-106450598D01*
X129449571Y-106442289D01*
X129449252Y-106434617D01*
X129447552Y-106399617D01*
X129447536Y-106399510D01*
X129447436Y-106397319D01*
X129394494Y-105393970D01*
X130454243Y-108748595D01*
X130376299Y-108824923D01*
X130243344Y-109019099D01*
X130150637Y-109235401D01*
X130101709Y-109465590D01*
X130098423Y-109700899D01*
X130140905Y-109932365D01*
X130227536Y-110151171D01*
X130355018Y-110348984D01*
X130518493Y-110518267D01*
X130711736Y-110652575D01*
X130927385Y-110746790D01*
X131157228Y-110797324D01*
X131392508Y-110802252D01*
X131624265Y-110761387D01*
X131843671Y-110676285D01*
X132042368Y-110550188D01*
X132212789Y-110387898D01*
X132348442Y-110195598D01*
X132444160Y-109980612D01*
X132496298Y-109751128D01*
X132500051Y-109482334D01*
X132454342Y-109251484D01*
X132364664Y-109033908D01*
X132234433Y-108837895D01*
X132068610Y-108670911D01*
X131873511Y-108539314D01*
X131656567Y-108448120D01*
X131502943Y-108416586D01*
X129824084Y-103102177D01*
X130940000Y-103102177D01*
X131011661Y-103096463D01*
X131133205Y-103058822D01*
X131239451Y-102988811D01*
X131283672Y-102936926D01*
X133277823Y-108916458D01*
X133277823Y-110350000D01*
X133283537Y-110421661D01*
X133321178Y-110543205D01*
X133391189Y-110649451D01*
X133488028Y-110731986D01*
X133604026Y-110784275D01*
X133730000Y-110802177D01*
X135230000Y-110802177D01*
X135301661Y-110796463D01*
X135423205Y-110758822D01*
X135529451Y-110688811D01*
X135611986Y-110591972D01*
X135664275Y-110475974D01*
X135682177Y-110350000D01*
X135682177Y-108850000D01*
X135676463Y-108778339D01*
X135638822Y-108656795D01*
X135568811Y-108550549D01*
X135471972Y-108468014D01*
X135355974Y-108415725D01*
X135230000Y-108397823D01*
X134264418Y-108397823D01*
X132489561Y-103075851D01*
X132587228Y-103097324D01*
X132822508Y-103102252D01*
X133054265Y-103061387D01*
X133273671Y-102976285D01*
X133472368Y-102850188D01*
X133609434Y-102719662D01*
X136104975Y-108816427D01*
X136096299Y-108824923D01*
X135963344Y-109019099D01*
X135870637Y-109235401D01*
X135821709Y-109465590D01*
X135818423Y-109700899D01*
X135860905Y-109932365D01*
X135947536Y-110151171D01*
X136075018Y-110348984D01*
X136238493Y-110518267D01*
X136431736Y-110652575D01*
X136647385Y-110746790D01*
X136877228Y-110797324D01*
X137112508Y-110802252D01*
X137344265Y-110761387D01*
X137563671Y-110676285D01*
X137762368Y-110550188D01*
X137932789Y-110387898D01*
X138068442Y-110195598D01*
X138164160Y-109980612D01*
X138216298Y-109751128D01*
X138220051Y-109482334D01*
X138174342Y-109251484D01*
X138084664Y-109033908D01*
X137954433Y-108837895D01*
X137788610Y-108670911D01*
X137593511Y-108539314D01*
X137376567Y-108448120D01*
X137146041Y-108400800D01*
X137123368Y-108400642D01*
X134295372Y-101491669D01*
X134328430Y-101489062D01*
X134329637Y-101488838D01*
X134329714Y-101488832D01*
X134329796Y-101488809D01*
X134335981Y-101487662D01*
X134569246Y-101442707D01*
X134569307Y-101442696D01*
X135160307Y-101328996D01*
X135160308Y-101328996D01*
X135254478Y-101310953D01*
X135442781Y-101336703D01*
X135614529Y-101422037D01*
X135749595Y-101557719D01*
X135791473Y-101642857D01*
X135791482Y-101642871D01*
X135791592Y-101643099D01*
X136599068Y-103282673D01*
X136605572Y-103296602D01*
X137316503Y-104903973D01*
X137316538Y-104904034D01*
X137317023Y-104905146D01*
X137317843Y-104906987D01*
X137319761Y-104912128D01*
X137320562Y-104914693D01*
X137560662Y-105685893D01*
X137560667Y-105685904D01*
X137560715Y-105686063D01*
X137575115Y-105732263D01*
X137587493Y-105761549D01*
X137597494Y-105791729D01*
X137600658Y-105798726D01*
X137641658Y-105887726D01*
X137658044Y-105915729D01*
X137672205Y-105944903D01*
X137676261Y-105951423D01*
X137702315Y-105992650D01*
X137970053Y-106417342D01*
X137971344Y-106419401D01*
X137974293Y-106424720D01*
X137975104Y-106426405D01*
X137975118Y-106426429D01*
X137975271Y-106426751D01*
X138682671Y-107894051D01*
X138682713Y-107894139D01*
X138705913Y-107942239D01*
X138718317Y-107962601D01*
X138728428Y-107984176D01*
X138746166Y-108008315D01*
X138761758Y-108033910D01*
X138777878Y-108051471D01*
X138791989Y-108070675D01*
X138797158Y-108076354D01*
X138869158Y-108154354D01*
X138886279Y-108169603D01*
X138901583Y-108186672D01*
X138926260Y-108205213D01*
X138949315Y-108225748D01*
X138969075Y-108237383D01*
X138987399Y-108251151D01*
X138993987Y-108255098D01*
X139039787Y-108282098D01*
X139040613Y-108282482D01*
X139047354Y-108286644D01*
X140901483Y-109481804D01*
X140898423Y-109700899D01*
X140940905Y-109932365D01*
X141027536Y-110151171D01*
X141155018Y-110348984D01*
X141318493Y-110518267D01*
X141511736Y-110652575D01*
X141727385Y-110746790D01*
X141957228Y-110797324D01*
X142132675Y-110800999D01*
X136921179Y-111850089D01*
X131261871Y-111868039D01*
X125706852Y-110786412D01*
X120467717Y-108646409D01*
X115744024Y-105529543D01*
X111715694Y-101554534D01*
X108536169Y-96872788D01*
X106326177Y-91661747D01*
X105314036Y-86900000D01*
X114000000Y-86900000D01*
X114046817Y-86895410D01*
X114093691Y-86891144D01*
X114095373Y-86890649D01*
X114097117Y-86890478D01*
X114142155Y-86876880D01*
X114187303Y-86863592D01*
X114188857Y-86862780D01*
X114190535Y-86862273D01*
X114232104Y-86840171D01*
X114273782Y-86818382D01*
X114275147Y-86817285D01*
X114276696Y-86816461D01*
X114313164Y-86786718D01*
X114349832Y-86757236D01*
X114350960Y-86755892D01*
X114352317Y-86754785D01*
X114382265Y-86718585D01*
X114412557Y-86682484D01*
X114413403Y-86680945D01*
X114414519Y-86679596D01*
X114436888Y-86638227D01*
X114459568Y-86596971D01*
X114460098Y-86595301D01*
X114460932Y-86593758D01*
X114474852Y-86548789D01*
X114489074Y-86503956D01*
X114489269Y-86502215D01*
X114489788Y-86500539D01*
X114494712Y-86453694D01*
X114499951Y-86406981D01*
X114499975Y-86403618D01*
X114499988Y-86403491D01*
X114499976Y-86403363D01*
X114500000Y-86400000D01*
X114500000Y-85316306D01*
X114686654Y-85418919D01*
X114919191Y-85492685D01*
X115161628Y-85519878D01*
X115179081Y-85520000D01*
X116798919Y-85520000D01*
X117041712Y-85496194D01*
X117275257Y-85425683D01*
X117490658Y-85311152D01*
X117679712Y-85156963D01*
X117835216Y-84968991D01*
X117951248Y-84754394D01*
X118023388Y-84521347D01*
X118048889Y-84278727D01*
X118026778Y-84035773D01*
X117957899Y-83801742D01*
X117844874Y-83585546D01*
X117692010Y-83395421D01*
X117505128Y-83238608D01*
X117291346Y-83121081D01*
X117058809Y-83047315D01*
X116816372Y-83020122D01*
X116798919Y-83020000D01*
X115179081Y-83020000D01*
X114936288Y-83043806D01*
X114702743Y-83114317D01*
X114500000Y-83222118D01*
X114500000Y-82982177D01*
X117589000Y-82982177D01*
X117660661Y-82976463D01*
X117782205Y-82938822D01*
X117888451Y-82868811D01*
X117970986Y-82771972D01*
X118023275Y-82655974D01*
X118041177Y-82530000D01*
X118041177Y-80930000D01*
X118035463Y-80858339D01*
X117997822Y-80736795D01*
X117927811Y-80630549D01*
X117830972Y-80548014D01*
X117714974Y-80495725D01*
X117589000Y-80477823D01*
X116391118Y-80477823D01*
X116402177Y-80400000D01*
X116402177Y-78800000D01*
X116396463Y-78728339D01*
X116358822Y-78606795D01*
X116288811Y-78500549D01*
X116191972Y-78418014D01*
X116075974Y-78365725D01*
X115950000Y-78347823D01*
X114350000Y-78347823D01*
X114278339Y-78353537D01*
X114156795Y-78391178D01*
X114050549Y-78461189D01*
X113968014Y-78558028D01*
X113915725Y-78674026D01*
X113897823Y-78800000D01*
X113897823Y-79100000D01*
X105316446Y-79100000D01*
X106393362Y-74126756D01*
X108642613Y-68933590D01*
X111857722Y-64276206D01*
X115916220Y-60332008D01*
X120663528Y-57251224D01*
X125918815Y-55151204D01*
X131481913Y-54111937D01*
X137140925Y-54173007D01*
G36*
X130500145Y-93509991D02*
X130500158Y-93509991D01*
X130500264Y-93510006D01*
X131300664Y-93614106D01*
X131300693Y-93614107D01*
X131301200Y-93614176D01*
X131339753Y-93619152D01*
X131413331Y-93649544D01*
X131444391Y-93673399D01*
X131444413Y-93673413D01*
X131444669Y-93673612D01*
X131717716Y-93883041D01*
X131742316Y-93901941D01*
X131750527Y-93907059D01*
X131757815Y-93913422D01*
X131764096Y-93917840D01*
X131813296Y-93951940D01*
X131821453Y-93956485D01*
X131828772Y-93962283D01*
X131835256Y-93966396D01*
X131862156Y-93983196D01*
X131862165Y-93983200D01*
X131862363Y-93983326D01*
X133111563Y-94762726D01*
X133111570Y-94762729D01*
X133111585Y-94762739D01*
X133122485Y-94769539D01*
X133128339Y-94772440D01*
X133133605Y-94776294D01*
X133140241Y-94780158D01*
X133161541Y-94792357D01*
X133166616Y-94794638D01*
X133171219Y-94797772D01*
X133177983Y-94801406D01*
X133188583Y-94807006D01*
X133188640Y-94807029D01*
X133189503Y-94807491D01*
X133258644Y-94843851D01*
X133259970Y-94851077D01*
X133317724Y-94996948D01*
X133402712Y-95128823D01*
X133511695Y-95241679D01*
X133574260Y-95285163D01*
X133567399Y-95291882D01*
X133478762Y-95421332D01*
X133416958Y-95565534D01*
X133384339Y-95718993D01*
X133382148Y-95875866D01*
X133410470Y-96030177D01*
X133468224Y-96176048D01*
X133553212Y-96307923D01*
X133662195Y-96420779D01*
X133791024Y-96510317D01*
X133934790Y-96573127D01*
X134088018Y-96606816D01*
X134244872Y-96610102D01*
X134339975Y-96593332D01*
X131607103Y-97873282D01*
X131607090Y-97873290D01*
X131606896Y-97873379D01*
X131581296Y-97885379D01*
X131566425Y-97894214D01*
X131550420Y-97900791D01*
X131541818Y-97905431D01*
X131492217Y-97932631D01*
X131478656Y-97941896D01*
X131463872Y-97949049D01*
X131455567Y-97954203D01*
X131431767Y-97969203D01*
X131431726Y-97969235D01*
X131431102Y-97969623D01*
X130438754Y-98596611D01*
X131216423Y-96983256D01*
X131336647Y-96936624D01*
X131469112Y-96852559D01*
X131582726Y-96744366D01*
X131673162Y-96616166D01*
X131736974Y-96472841D01*
X131771732Y-96319852D01*
X131774234Y-96140656D01*
X131743761Y-95986756D01*
X131683976Y-95841705D01*
X131597155Y-95711030D01*
X131486607Y-95599707D01*
X131448092Y-95573728D01*
X131473532Y-95461752D01*
X131476034Y-95282556D01*
X131445561Y-95128656D01*
X131385776Y-94983605D01*
X131298955Y-94852930D01*
X131188407Y-94741607D01*
X131142637Y-94710735D01*
X131171032Y-94585752D01*
X131173534Y-94406556D01*
X131143061Y-94252656D01*
X131083276Y-94107605D01*
X130996455Y-93976930D01*
X130885907Y-93865607D01*
X130755841Y-93777876D01*
X130611211Y-93717079D01*
X130457527Y-93685533D01*
X130300643Y-93684437D01*
X130146534Y-93713835D01*
X130001070Y-93772607D01*
X129869791Y-93858513D01*
X129757699Y-93968282D01*
X129669062Y-94097732D01*
X129607258Y-94241934D01*
X129574639Y-94395393D01*
X129572901Y-94519826D01*
X127090387Y-97075477D01*
X127090369Y-97075500D01*
X127090164Y-97075708D01*
X127074326Y-97092031D01*
X127036425Y-97116733D01*
X127014555Y-97124869D01*
X123725698Y-98345155D01*
X125913946Y-96545367D01*
X125914016Y-96545310D01*
X126121716Y-96374610D01*
X126143501Y-96352813D01*
X126167015Y-96332920D01*
X126181345Y-96314949D01*
X126197597Y-96298688D01*
X126214728Y-96273083D01*
X126233936Y-96248994D01*
X126238070Y-96242522D01*
X126524370Y-95787322D01*
X126538133Y-95759799D01*
X126554148Y-95733520D01*
X126562084Y-95711903D01*
X126572379Y-95691315D01*
X126580534Y-95661645D01*
X126591140Y-95632754D01*
X126593018Y-95625308D01*
X126657318Y-95362708D01*
X126657459Y-95361725D01*
X126671798Y-95303039D01*
X126748163Y-95207087D01*
X126802780Y-95179627D01*
X126802829Y-95179603D01*
X129931928Y-93606603D01*
X129931943Y-93606594D01*
X129932211Y-93606461D01*
X130063034Y-93540602D01*
X130354759Y-93491050D01*
X130500145Y-93509991D01*
X130500145Y-93509991D01*
G37*
X130500145Y-93509991D02*
X130500158Y-93509991D01*
X130500264Y-93510006D01*
X131300664Y-93614106D01*
X131300693Y-93614107D01*
X131301200Y-93614176D01*
X131339753Y-93619152D01*
X131413331Y-93649544D01*
X131444391Y-93673399D01*
X131444413Y-93673413D01*
X131444669Y-93673612D01*
X131717716Y-93883041D01*
X131742316Y-93901941D01*
X131750527Y-93907059D01*
X131757815Y-93913422D01*
X131764096Y-93917840D01*
X131813296Y-93951940D01*
X131821453Y-93956485D01*
X131828772Y-93962283D01*
X131835256Y-93966396D01*
X131862156Y-93983196D01*
X131862165Y-93983200D01*
X131862363Y-93983326D01*
X133111563Y-94762726D01*
X133111570Y-94762729D01*
X133111585Y-94762739D01*
X133122485Y-94769539D01*
X133128339Y-94772440D01*
X133133605Y-94776294D01*
X133140241Y-94780158D01*
X133161541Y-94792357D01*
X133166616Y-94794638D01*
X133171219Y-94797772D01*
X133177983Y-94801406D01*
X133188583Y-94807006D01*
X133188640Y-94807029D01*
X133189503Y-94807491D01*
X133258644Y-94843851D01*
X133259970Y-94851077D01*
X133317724Y-94996948D01*
X133402712Y-95128823D01*
X133511695Y-95241679D01*
X133574260Y-95285163D01*
X133567399Y-95291882D01*
X133478762Y-95421332D01*
X133416958Y-95565534D01*
X133384339Y-95718993D01*
X133382148Y-95875866D01*
X133410470Y-96030177D01*
X133468224Y-96176048D01*
X133553212Y-96307923D01*
X133662195Y-96420779D01*
X133791024Y-96510317D01*
X133934790Y-96573127D01*
X134088018Y-96606816D01*
X134244872Y-96610102D01*
X134339975Y-96593332D01*
X131607103Y-97873282D01*
X131607090Y-97873290D01*
X131606896Y-97873379D01*
X131581296Y-97885379D01*
X131566425Y-97894214D01*
X131550420Y-97900791D01*
X131541818Y-97905431D01*
X131492217Y-97932631D01*
X131478656Y-97941896D01*
X131463872Y-97949049D01*
X131455567Y-97954203D01*
X131431767Y-97969203D01*
X131431726Y-97969235D01*
X131431102Y-97969623D01*
X130438754Y-98596611D01*
X131216423Y-96983256D01*
X131336647Y-96936624D01*
X131469112Y-96852559D01*
X131582726Y-96744366D01*
X131673162Y-96616166D01*
X131736974Y-96472841D01*
X131771732Y-96319852D01*
X131774234Y-96140656D01*
X131743761Y-95986756D01*
X131683976Y-95841705D01*
X131597155Y-95711030D01*
X131486607Y-95599707D01*
X131448092Y-95573728D01*
X131473532Y-95461752D01*
X131476034Y-95282556D01*
X131445561Y-95128656D01*
X131385776Y-94983605D01*
X131298955Y-94852930D01*
X131188407Y-94741607D01*
X131142637Y-94710735D01*
X131171032Y-94585752D01*
X131173534Y-94406556D01*
X131143061Y-94252656D01*
X131083276Y-94107605D01*
X130996455Y-93976930D01*
X130885907Y-93865607D01*
X130755841Y-93777876D01*
X130611211Y-93717079D01*
X130457527Y-93685533D01*
X130300643Y-93684437D01*
X130146534Y-93713835D01*
X130001070Y-93772607D01*
X129869791Y-93858513D01*
X129757699Y-93968282D01*
X129669062Y-94097732D01*
X129607258Y-94241934D01*
X129574639Y-94395393D01*
X129572901Y-94519826D01*
X127090387Y-97075477D01*
X127090369Y-97075500D01*
X127090164Y-97075708D01*
X127074326Y-97092031D01*
X127036425Y-97116733D01*
X127014555Y-97124869D01*
X123725698Y-98345155D01*
X125913946Y-96545367D01*
X125914016Y-96545310D01*
X126121716Y-96374610D01*
X126143501Y-96352813D01*
X126167015Y-96332920D01*
X126181345Y-96314949D01*
X126197597Y-96298688D01*
X126214728Y-96273083D01*
X126233936Y-96248994D01*
X126238070Y-96242522D01*
X126524370Y-95787322D01*
X126538133Y-95759799D01*
X126554148Y-95733520D01*
X126562084Y-95711903D01*
X126572379Y-95691315D01*
X126580534Y-95661645D01*
X126591140Y-95632754D01*
X126593018Y-95625308D01*
X126657318Y-95362708D01*
X126657459Y-95361725D01*
X126671798Y-95303039D01*
X126748163Y-95207087D01*
X126802780Y-95179627D01*
X126802829Y-95179603D01*
X129931928Y-93606603D01*
X129931943Y-93606594D01*
X129932211Y-93606461D01*
X130063034Y-93540602D01*
X130354759Y-93491050D01*
X130500145Y-93509991D01*
G36*
X124608095Y-94547879D02*
X124736924Y-94637417D01*
X124841343Y-94683036D01*
X124840316Y-94685923D01*
X124822790Y-94733632D01*
X124821431Y-94739013D01*
X124821393Y-94739121D01*
X124821377Y-94739227D01*
X124820910Y-94741078D01*
X124781010Y-94903877D01*
X124780868Y-94904866D01*
X124769017Y-94953270D01*
X124712816Y-95036094D01*
X124672062Y-95065075D01*
X124672052Y-95065084D01*
X124671899Y-95065191D01*
X122147791Y-96861497D01*
X122077327Y-96847033D01*
X121920443Y-96845937D01*
X121766334Y-96875335D01*
X121620870Y-96934107D01*
X121489591Y-97020013D01*
X121377499Y-97129782D01*
X121288862Y-97259232D01*
X121227058Y-97403434D01*
X121213921Y-97465238D01*
X121195822Y-97406795D01*
X121156314Y-97346840D01*
X121168986Y-97331972D01*
X121221275Y-97215974D01*
X121239177Y-97090000D01*
X121239177Y-96800436D01*
X121244000Y-96796510D01*
X121262662Y-96773993D01*
X121283255Y-96753227D01*
X121296829Y-96732766D01*
X121312495Y-96713864D01*
X121316751Y-96707471D01*
X121330651Y-96686271D01*
X121330671Y-96686232D01*
X121331024Y-96685701D01*
X122243724Y-95289901D01*
X122243732Y-95289887D01*
X122243850Y-95289708D01*
X122272489Y-95245871D01*
X122356623Y-95182594D01*
X122407174Y-95167107D01*
X122407209Y-95167097D01*
X124422709Y-94551297D01*
X124422753Y-94551279D01*
X124423327Y-94551107D01*
X124438461Y-94546464D01*
X124470107Y-94540443D01*
X124486492Y-94539122D01*
X124486496Y-94539121D01*
X124591489Y-94530683D01*
X124608095Y-94547879D01*
X124608095Y-94547879D01*
G37*
X124608095Y-94547879D02*
X124736924Y-94637417D01*
X124841343Y-94683036D01*
X124840316Y-94685923D01*
X124822790Y-94733632D01*
X124821431Y-94739013D01*
X124821393Y-94739121D01*
X124821377Y-94739227D01*
X124820910Y-94741078D01*
X124781010Y-94903877D01*
X124780868Y-94904866D01*
X124769017Y-94953270D01*
X124712816Y-95036094D01*
X124672062Y-95065075D01*
X124672052Y-95065084D01*
X124671899Y-95065191D01*
X122147791Y-96861497D01*
X122077327Y-96847033D01*
X121920443Y-96845937D01*
X121766334Y-96875335D01*
X121620870Y-96934107D01*
X121489591Y-97020013D01*
X121377499Y-97129782D01*
X121288862Y-97259232D01*
X121227058Y-97403434D01*
X121213921Y-97465238D01*
X121195822Y-97406795D01*
X121156314Y-97346840D01*
X121168986Y-97331972D01*
X121221275Y-97215974D01*
X121239177Y-97090000D01*
X121239177Y-96800436D01*
X121244000Y-96796510D01*
X121262662Y-96773993D01*
X121283255Y-96753227D01*
X121296829Y-96732766D01*
X121312495Y-96713864D01*
X121316751Y-96707471D01*
X121330651Y-96686271D01*
X121330671Y-96686232D01*
X121331024Y-96685701D01*
X122243724Y-95289901D01*
X122243732Y-95289887D01*
X122243850Y-95289708D01*
X122272489Y-95245871D01*
X122356623Y-95182594D01*
X122407174Y-95167107D01*
X122407209Y-95167097D01*
X124422709Y-94551297D01*
X124422753Y-94551279D01*
X124423327Y-94551107D01*
X124438461Y-94546464D01*
X124470107Y-94540443D01*
X124486492Y-94539122D01*
X124486496Y-94539121D01*
X124591489Y-94530683D01*
X124608095Y-94547879D01*
G36*
X118838389Y-95602103D02*
X118851900Y-95604429D01*
X118851903Y-95604429D01*
X119064823Y-95641317D01*
X119064823Y-95820000D01*
X119070537Y-95891661D01*
X119108178Y-96013205D01*
X119147686Y-96073160D01*
X119135014Y-96088028D01*
X119084495Y-96200100D01*
X118152177Y-96200100D01*
X118152177Y-96000000D01*
X118146463Y-95928339D01*
X118108822Y-95806795D01*
X118038811Y-95700549D01*
X118034901Y-95697217D01*
X118081986Y-95641972D01*
X118100951Y-95599900D01*
X118812624Y-95599900D01*
X118838389Y-95602103D01*
X118838389Y-95602103D01*
G37*
X118838389Y-95602103D02*
X118851900Y-95604429D01*
X118851903Y-95604429D01*
X119064823Y-95641317D01*
X119064823Y-95820000D01*
X119070537Y-95891661D01*
X119108178Y-96013205D01*
X119147686Y-96073160D01*
X119135014Y-96088028D01*
X119084495Y-96200100D01*
X118152177Y-96200100D01*
X118152177Y-96000000D01*
X118146463Y-95928339D01*
X118108822Y-95806795D01*
X118038811Y-95700549D01*
X118034901Y-95697217D01*
X118081986Y-95641972D01*
X118100951Y-95599900D01*
X118812624Y-95599900D01*
X118838389Y-95602103D01*
G36*
X132857013Y-92140845D02*
X132857026Y-92140845D01*
X132857274Y-92140873D01*
X133725565Y-92232351D01*
X133734312Y-92245923D01*
X133843295Y-92358779D01*
X133972124Y-92448317D01*
X134115890Y-92511127D01*
X134269118Y-92544816D01*
X134425972Y-92548102D01*
X134580477Y-92520858D01*
X134683482Y-92480905D01*
X134761636Y-92775108D01*
X134761638Y-92775114D01*
X134761671Y-92775241D01*
X134773284Y-92818911D01*
X134769609Y-92909669D01*
X134754421Y-92952579D01*
X134754419Y-92952586D01*
X134539527Y-93558818D01*
X134526961Y-93495356D01*
X134467176Y-93350305D01*
X134380355Y-93219630D01*
X134269807Y-93108307D01*
X134139741Y-93020576D01*
X133995111Y-92959779D01*
X133841427Y-92928233D01*
X133684543Y-92927137D01*
X133530434Y-92956535D01*
X133421188Y-93000674D01*
X132714306Y-92717694D01*
X132714293Y-92717690D01*
X132714165Y-92717638D01*
X132695581Y-92710204D01*
X132659187Y-92689510D01*
X132643236Y-92677269D01*
X132643231Y-92677266D01*
X132643131Y-92677188D01*
X132374083Y-92470826D01*
X132395808Y-92454005D01*
X132420241Y-92438386D01*
X132438140Y-92421228D01*
X132457747Y-92406047D01*
X132476793Y-92384176D01*
X132497730Y-92364106D01*
X132502688Y-92358242D01*
X132586480Y-92257712D01*
X132592646Y-92250466D01*
X132592722Y-92250357D01*
X132595875Y-92246636D01*
X132643732Y-92189355D01*
X132783015Y-92133013D01*
X132857013Y-92140845D01*
X132857013Y-92140845D01*
G37*
X132857013Y-92140845D02*
X132857026Y-92140845D01*
X132857274Y-92140873D01*
X133725565Y-92232351D01*
X133734312Y-92245923D01*
X133843295Y-92358779D01*
X133972124Y-92448317D01*
X134115890Y-92511127D01*
X134269118Y-92544816D01*
X134425972Y-92548102D01*
X134580477Y-92520858D01*
X134683482Y-92480905D01*
X134761636Y-92775108D01*
X134761638Y-92775114D01*
X134761671Y-92775241D01*
X134773284Y-92818911D01*
X134769609Y-92909669D01*
X134754421Y-92952579D01*
X134754419Y-92952586D01*
X134539527Y-93558818D01*
X134526961Y-93495356D01*
X134467176Y-93350305D01*
X134380355Y-93219630D01*
X134269807Y-93108307D01*
X134139741Y-93020576D01*
X133995111Y-92959779D01*
X133841427Y-92928233D01*
X133684543Y-92927137D01*
X133530434Y-92956535D01*
X133421188Y-93000674D01*
X132714306Y-92717694D01*
X132714293Y-92717690D01*
X132714165Y-92717638D01*
X132695581Y-92710204D01*
X132659187Y-92689510D01*
X132643236Y-92677269D01*
X132643231Y-92677266D01*
X132643131Y-92677188D01*
X132374083Y-92470826D01*
X132395808Y-92454005D01*
X132420241Y-92438386D01*
X132438140Y-92421228D01*
X132457747Y-92406047D01*
X132476793Y-92384176D01*
X132497730Y-92364106D01*
X132502688Y-92358242D01*
X132586480Y-92257712D01*
X132592646Y-92250466D01*
X132592722Y-92250357D01*
X132595875Y-92246636D01*
X132643732Y-92189355D01*
X132783015Y-92133013D01*
X132857013Y-92140845D01*
G36*
X131809839Y-83296946D02*
X131811597Y-83316620D01*
X132062818Y-86935751D01*
X132062818Y-86935759D01*
X132072418Y-87074159D01*
X132072587Y-87075161D01*
X132072562Y-87076167D01*
X132081493Y-87127996D01*
X132090261Y-87180007D01*
X132090619Y-87180950D01*
X132090791Y-87181950D01*
X132109649Y-87231132D01*
X132128322Y-87280374D01*
X132128859Y-87281234D01*
X132129220Y-87282176D01*
X132132703Y-87289020D01*
X132260303Y-87535420D01*
X132260830Y-87536232D01*
X132261189Y-87537122D01*
X132289966Y-87581136D01*
X132318730Y-87625466D01*
X132319402Y-87626158D01*
X132319930Y-87626965D01*
X132356720Y-87664563D01*
X132393535Y-87702450D01*
X132394332Y-87703000D01*
X132395003Y-87703686D01*
X132400917Y-87708584D01*
X132507793Y-87795818D01*
X132507809Y-87795832D01*
X133596147Y-88685481D01*
X133614248Y-88700282D01*
X133627164Y-88708887D01*
X133638759Y-88719198D01*
X133644999Y-88723673D01*
X133684199Y-88751373D01*
X133697565Y-88758980D01*
X133709744Y-88768376D01*
X133716281Y-88772405D01*
X133736881Y-88784906D01*
X133736952Y-88784940D01*
X133738051Y-88785614D01*
X135452885Y-89820342D01*
X135462270Y-89871477D01*
X135520024Y-90017348D01*
X135605012Y-90149223D01*
X135616415Y-90161031D01*
X135592345Y-90142602D01*
X135592325Y-90142590D01*
X135592015Y-90142349D01*
X135568215Y-90124150D01*
X135558753Y-90118282D01*
X135550371Y-90110947D01*
X135542382Y-90105314D01*
X135491282Y-90069814D01*
X135481005Y-90064073D01*
X135471788Y-90056750D01*
X135463541Y-90051503D01*
X135439431Y-90036398D01*
X132758741Y-88350630D01*
X132758717Y-88350618D01*
X132758372Y-88350398D01*
X132699771Y-88313598D01*
X132671857Y-88299663D01*
X132645576Y-88282839D01*
X132636838Y-88278459D01*
X132514838Y-88218359D01*
X132485583Y-88207348D01*
X132457664Y-88193297D01*
X132448522Y-88189839D01*
X132383422Y-88165739D01*
X132383375Y-88165727D01*
X132382702Y-88165473D01*
X131931336Y-87998939D01*
X131998262Y-87904066D01*
X132062074Y-87760741D01*
X132096832Y-87607752D01*
X132099334Y-87428556D01*
X132068861Y-87274656D01*
X132009076Y-87129605D01*
X131922255Y-86998930D01*
X131811707Y-86887607D01*
X131753718Y-86848493D01*
X131215298Y-83377981D01*
X131215297Y-83377976D01*
X131215278Y-83377850D01*
X131213065Y-83363609D01*
X131211433Y-83336355D01*
X131211896Y-83322084D01*
X131211898Y-83322034D01*
X131357048Y-78946092D01*
X131809839Y-83296946D01*
X131809839Y-83296946D01*
G37*
X131809839Y-83296946D02*
X131811597Y-83316620D01*
X132062818Y-86935751D01*
X132062818Y-86935759D01*
X132072418Y-87074159D01*
X132072587Y-87075161D01*
X132072562Y-87076167D01*
X132081493Y-87127996D01*
X132090261Y-87180007D01*
X132090619Y-87180950D01*
X132090791Y-87181950D01*
X132109649Y-87231132D01*
X132128322Y-87280374D01*
X132128859Y-87281234D01*
X132129220Y-87282176D01*
X132132703Y-87289020D01*
X132260303Y-87535420D01*
X132260830Y-87536232D01*
X132261189Y-87537122D01*
X132289966Y-87581136D01*
X132318730Y-87625466D01*
X132319402Y-87626158D01*
X132319930Y-87626965D01*
X132356720Y-87664563D01*
X132393535Y-87702450D01*
X132394332Y-87703000D01*
X132395003Y-87703686D01*
X132400917Y-87708584D01*
X132507793Y-87795818D01*
X132507809Y-87795832D01*
X133596147Y-88685481D01*
X133614248Y-88700282D01*
X133627164Y-88708887D01*
X133638759Y-88719198D01*
X133644999Y-88723673D01*
X133684199Y-88751373D01*
X133697565Y-88758980D01*
X133709744Y-88768376D01*
X133716281Y-88772405D01*
X133736881Y-88784906D01*
X133736952Y-88784940D01*
X133738051Y-88785614D01*
X135452885Y-89820342D01*
X135462270Y-89871477D01*
X135520024Y-90017348D01*
X135605012Y-90149223D01*
X135616415Y-90161031D01*
X135592345Y-90142602D01*
X135592325Y-90142590D01*
X135592015Y-90142349D01*
X135568215Y-90124150D01*
X135558753Y-90118282D01*
X135550371Y-90110947D01*
X135542382Y-90105314D01*
X135491282Y-90069814D01*
X135481005Y-90064073D01*
X135471788Y-90056750D01*
X135463541Y-90051503D01*
X135439431Y-90036398D01*
X132758741Y-88350630D01*
X132758717Y-88350618D01*
X132758372Y-88350398D01*
X132699771Y-88313598D01*
X132671857Y-88299663D01*
X132645576Y-88282839D01*
X132636838Y-88278459D01*
X132514838Y-88218359D01*
X132485583Y-88207348D01*
X132457664Y-88193297D01*
X132448522Y-88189839D01*
X132383422Y-88165739D01*
X132383375Y-88165727D01*
X132382702Y-88165473D01*
X131931336Y-87998939D01*
X131998262Y-87904066D01*
X132062074Y-87760741D01*
X132096832Y-87607752D01*
X132099334Y-87428556D01*
X132068861Y-87274656D01*
X132009076Y-87129605D01*
X131922255Y-86998930D01*
X131811707Y-86887607D01*
X131753718Y-86848493D01*
X131215298Y-83377981D01*
X131215297Y-83377976D01*
X131215278Y-83377850D01*
X131213065Y-83363609D01*
X131211433Y-83336355D01*
X131211896Y-83322084D01*
X131211898Y-83322034D01*
X131357048Y-78946092D01*
X131809839Y-83296946D01*
G36*
X131761881Y-70997950D02*
X131758763Y-71002404D01*
X130970463Y-72145203D01*
X130970454Y-72145219D01*
X130970338Y-72145385D01*
X130763438Y-72445584D01*
X130753358Y-72463787D01*
X130741178Y-72480646D01*
X130727423Y-72510623D01*
X130711439Y-72539490D01*
X130705086Y-72559306D01*
X130696414Y-72578207D01*
X130693958Y-72585483D01*
X130467058Y-73273683D01*
X130462517Y-73293920D01*
X130455583Y-73313465D01*
X130450792Y-73346172D01*
X130443556Y-73378420D01*
X130443032Y-73399150D01*
X130440026Y-73419673D01*
X130439713Y-73427345D01*
X130427413Y-73791746D01*
X130427414Y-73791764D01*
X130427402Y-73792067D01*
X130112502Y-83285566D01*
X130112504Y-83285598D01*
X130112489Y-83285979D01*
X130111189Y-83326079D01*
X130112596Y-83347582D01*
X130111478Y-83369103D01*
X130111883Y-83376771D01*
X130116583Y-83455271D01*
X130120057Y-83477137D01*
X130120996Y-83499254D01*
X130122122Y-83506850D01*
X130128302Y-83546619D01*
X130666425Y-87015218D01*
X130594862Y-87119732D01*
X130533058Y-87263934D01*
X130500439Y-87417393D01*
X130499694Y-87470729D01*
X127930280Y-86522733D01*
X127856325Y-86411421D01*
X127731958Y-86286182D01*
X127585633Y-86187485D01*
X127422925Y-86119089D01*
X127250031Y-86083599D01*
X127073536Y-86082367D01*
X126900163Y-86115440D01*
X126736516Y-86181557D01*
X126588828Y-86278202D01*
X126462724Y-86401692D01*
X126363008Y-86547324D01*
X126328640Y-86627509D01*
X125996986Y-86321020D01*
X125982280Y-86307372D01*
X125957538Y-86277795D01*
X125946895Y-86261148D01*
X125191868Y-85078619D01*
X125191857Y-85078606D01*
X125191735Y-85078411D01*
X125168535Y-85042110D01*
X125153707Y-85023256D01*
X125141012Y-85002919D01*
X125136287Y-84996865D01*
X125081887Y-84928165D01*
X125064949Y-84910609D01*
X125049979Y-84891346D01*
X125044659Y-84885808D01*
X125014459Y-84854808D01*
X125014447Y-84854798D01*
X125014324Y-84854670D01*
X121296924Y-81041470D01*
X121296884Y-81041436D01*
X121296306Y-81040837D01*
X121281204Y-81025396D01*
X121254631Y-80988306D01*
X121244503Y-80968399D01*
X121244496Y-80968389D01*
X121244413Y-80968222D01*
X120156913Y-78832622D01*
X120156899Y-78832600D01*
X120156719Y-78832241D01*
X120096719Y-78714641D01*
X120093839Y-78710144D01*
X120091794Y-78705215D01*
X120064932Y-78664996D01*
X120038838Y-78624243D01*
X120035140Y-78620391D01*
X120032176Y-78615953D01*
X120027267Y-78610047D01*
X119858367Y-78409747D01*
X119854463Y-78405943D01*
X119851291Y-78401523D01*
X119816077Y-78368534D01*
X119781493Y-78334831D01*
X119776930Y-78331861D01*
X119772955Y-78328137D01*
X119766833Y-78323501D01*
X119555232Y-78165601D01*
X119550366Y-78162662D01*
X119546090Y-78158925D01*
X119504464Y-78134939D01*
X119463349Y-78110107D01*
X119458010Y-78108171D01*
X119453085Y-78105333D01*
X119446067Y-78102215D01*
X119205867Y-77997515D01*
X119200687Y-77995837D01*
X119195881Y-77993279D01*
X119149694Y-77979316D01*
X119103752Y-77964431D01*
X119098340Y-77963790D01*
X119093133Y-77962216D01*
X119085591Y-77960773D01*
X118956190Y-77936973D01*
X118956146Y-77936969D01*
X118955555Y-77936857D01*
X118940388Y-77934086D01*
X118910913Y-77924560D01*
X118896407Y-77917643D01*
X118896404Y-77917642D01*
X118896330Y-77917606D01*
X118004509Y-77492563D01*
X118993405Y-77466058D01*
X119008353Y-77465676D01*
X119037234Y-77468504D01*
X119050254Y-77471449D01*
X119050316Y-77471457D01*
X119051278Y-77471680D01*
X121577577Y-78039180D01*
X121577588Y-78039181D01*
X121577703Y-78039208D01*
X121590604Y-78042104D01*
X121618059Y-78051041D01*
X121630922Y-78056596D01*
X121630974Y-78056619D01*
X122302120Y-78347078D01*
X122322860Y-78526571D01*
X122346260Y-78730571D01*
X122346386Y-78731157D01*
X122346397Y-78731759D01*
X122360730Y-78797819D01*
X122374999Y-78864130D01*
X122375238Y-78864685D01*
X122375365Y-78865268D01*
X122402228Y-78927222D01*
X122429132Y-78989564D01*
X122429472Y-78990058D01*
X122429711Y-78990609D01*
X122434516Y-78999120D01*
X122639716Y-79356821D01*
X122640011Y-79357236D01*
X122640222Y-79357702D01*
X122679486Y-79412697D01*
X122718935Y-79468123D01*
X122719309Y-79468476D01*
X122719603Y-79468888D01*
X122768962Y-79515362D01*
X122818265Y-79561918D01*
X122818694Y-79562187D01*
X122819068Y-79562540D01*
X122826846Y-79568459D01*
X122991746Y-79692159D01*
X122991750Y-79692161D01*
X122991919Y-79692290D01*
X124191727Y-80591746D01*
X124238669Y-80627013D01*
X124298657Y-80726124D01*
X124308047Y-80783878D01*
X124549088Y-82268556D01*
X124538908Y-82283424D01*
X124469377Y-82445650D01*
X124432681Y-82618293D01*
X124430217Y-82794774D01*
X124462078Y-82968374D01*
X124527052Y-83132479D01*
X124622663Y-83280838D01*
X124745270Y-83407801D01*
X124890202Y-83508531D01*
X125051939Y-83579193D01*
X125224321Y-83617093D01*
X125400781Y-83620790D01*
X125574599Y-83590141D01*
X125739153Y-83526314D01*
X125888177Y-83431741D01*
X126015992Y-83310024D01*
X126117732Y-83165799D01*
X126189521Y-83004559D01*
X126228624Y-82832446D01*
X126231439Y-82630850D01*
X126197157Y-82457713D01*
X126129898Y-82294531D01*
X126032225Y-82147521D01*
X125931262Y-82045850D01*
X125689953Y-80559522D01*
X125689951Y-80559515D01*
X125689928Y-80559366D01*
X125658728Y-80367466D01*
X125643182Y-80308772D01*
X125628925Y-80249771D01*
X125625713Y-80242815D01*
X125623750Y-80235403D01*
X125597102Y-80180851D01*
X125571655Y-80125739D01*
X125566652Y-80117342D01*
X125366252Y-79786242D01*
X125330089Y-79737874D01*
X125295031Y-79688694D01*
X125289226Y-79683221D01*
X125284446Y-79676827D01*
X125239575Y-79636404D01*
X125195634Y-79594971D01*
X125187860Y-79589045D01*
X125032260Y-79472145D01*
X125032219Y-79472120D01*
X125031680Y-79471710D01*
X123831681Y-78572110D01*
X123831672Y-78572105D01*
X123782320Y-78535083D01*
X123720695Y-78427659D01*
X123713740Y-78367029D01*
X123713733Y-78366995D01*
X123713674Y-78366454D01*
X123692860Y-78186313D01*
X125025287Y-77197025D01*
X125025292Y-77197020D01*
X125082469Y-77154634D01*
X125116345Y-77123971D01*
X125152146Y-77095563D01*
X125159125Y-77088720D01*
X125262025Y-76986420D01*
X125291194Y-76951120D01*
X125322581Y-76917778D01*
X125328500Y-76910000D01*
X125372000Y-76852000D01*
X125372002Y-76851997D01*
X125372090Y-76851881D01*
X126271690Y-75651881D01*
X126271702Y-75651862D01*
X126271836Y-75651685D01*
X126284589Y-75634661D01*
X126314369Y-75604881D01*
X126331627Y-75591930D01*
X126331681Y-75591890D01*
X127531680Y-74692290D01*
X127531696Y-74692275D01*
X127531956Y-74692083D01*
X127589256Y-74649083D01*
X127622202Y-74618908D01*
X127657115Y-74591038D01*
X127664075Y-74584175D01*
X127764275Y-74483975D01*
X127792819Y-74449224D01*
X127823621Y-74416467D01*
X127829536Y-74408685D01*
X127872036Y-74351952D01*
X127872090Y-74351881D01*
X128771233Y-73152491D01*
X128777625Y-73144007D01*
X128792494Y-73126856D01*
X131320706Y-70598644D01*
X131371422Y-70565055D01*
X131398893Y-70553918D01*
X131398900Y-70553914D01*
X131398921Y-70553906D01*
X131838921Y-70375506D01*
X131838944Y-70375494D01*
X131839258Y-70375369D01*
X131938259Y-70335169D01*
X131939183Y-70334684D01*
X131940178Y-70334386D01*
X131999606Y-70302961D01*
X132059218Y-70271664D01*
X132060028Y-70271011D01*
X132060948Y-70270524D01*
X132069063Y-70265077D01*
X132245763Y-70144677D01*
X132246636Y-70143948D01*
X132247632Y-70143399D01*
X132299090Y-70100137D01*
X132350616Y-70057100D01*
X132351330Y-70056217D01*
X132352201Y-70055484D01*
X132358984Y-70048446D01*
X132431884Y-69971747D01*
X132431885Y-69971746D01*
X132542842Y-69855150D01*
X131761881Y-70997950D01*
X131761881Y-70997950D01*
G37*
X131761881Y-70997950D02*
X131758763Y-71002404D01*
X130970463Y-72145203D01*
X130970454Y-72145219D01*
X130970338Y-72145385D01*
X130763438Y-72445584D01*
X130753358Y-72463787D01*
X130741178Y-72480646D01*
X130727423Y-72510623D01*
X130711439Y-72539490D01*
X130705086Y-72559306D01*
X130696414Y-72578207D01*
X130693958Y-72585483D01*
X130467058Y-73273683D01*
X130462517Y-73293920D01*
X130455583Y-73313465D01*
X130450792Y-73346172D01*
X130443556Y-73378420D01*
X130443032Y-73399150D01*
X130440026Y-73419673D01*
X130439713Y-73427345D01*
X130427413Y-73791746D01*
X130427414Y-73791764D01*
X130427402Y-73792067D01*
X130112502Y-83285566D01*
X130112504Y-83285598D01*
X130112489Y-83285979D01*
X130111189Y-83326079D01*
X130112596Y-83347582D01*
X130111478Y-83369103D01*
X130111883Y-83376771D01*
X130116583Y-83455271D01*
X130120057Y-83477137D01*
X130120996Y-83499254D01*
X130122122Y-83506850D01*
X130128302Y-83546619D01*
X130666425Y-87015218D01*
X130594862Y-87119732D01*
X130533058Y-87263934D01*
X130500439Y-87417393D01*
X130499694Y-87470729D01*
X127930280Y-86522733D01*
X127856325Y-86411421D01*
X127731958Y-86286182D01*
X127585633Y-86187485D01*
X127422925Y-86119089D01*
X127250031Y-86083599D01*
X127073536Y-86082367D01*
X126900163Y-86115440D01*
X126736516Y-86181557D01*
X126588828Y-86278202D01*
X126462724Y-86401692D01*
X126363008Y-86547324D01*
X126328640Y-86627509D01*
X125996986Y-86321020D01*
X125982280Y-86307372D01*
X125957538Y-86277795D01*
X125946895Y-86261148D01*
X125191868Y-85078619D01*
X125191857Y-85078606D01*
X125191735Y-85078411D01*
X125168535Y-85042110D01*
X125153707Y-85023256D01*
X125141012Y-85002919D01*
X125136287Y-84996865D01*
X125081887Y-84928165D01*
X125064949Y-84910609D01*
X125049979Y-84891346D01*
X125044659Y-84885808D01*
X125014459Y-84854808D01*
X125014447Y-84854798D01*
X125014324Y-84854670D01*
X121296924Y-81041470D01*
X121296884Y-81041436D01*
X121296306Y-81040837D01*
X121281204Y-81025396D01*
X121254631Y-80988306D01*
X121244503Y-80968399D01*
X121244496Y-80968389D01*
X121244413Y-80968222D01*
X120156913Y-78832622D01*
X120156899Y-78832600D01*
X120156719Y-78832241D01*
X120096719Y-78714641D01*
X120093839Y-78710144D01*
X120091794Y-78705215D01*
X120064932Y-78664996D01*
X120038838Y-78624243D01*
X120035140Y-78620391D01*
X120032176Y-78615953D01*
X120027267Y-78610047D01*
X119858367Y-78409747D01*
X119854463Y-78405943D01*
X119851291Y-78401523D01*
X119816077Y-78368534D01*
X119781493Y-78334831D01*
X119776930Y-78331861D01*
X119772955Y-78328137D01*
X119766833Y-78323501D01*
X119555232Y-78165601D01*
X119550366Y-78162662D01*
X119546090Y-78158925D01*
X119504464Y-78134939D01*
X119463349Y-78110107D01*
X119458010Y-78108171D01*
X119453085Y-78105333D01*
X119446067Y-78102215D01*
X119205867Y-77997515D01*
X119200687Y-77995837D01*
X119195881Y-77993279D01*
X119149694Y-77979316D01*
X119103752Y-77964431D01*
X119098340Y-77963790D01*
X119093133Y-77962216D01*
X119085591Y-77960773D01*
X118956190Y-77936973D01*
X118956146Y-77936969D01*
X118955555Y-77936857D01*
X118940388Y-77934086D01*
X118910913Y-77924560D01*
X118896407Y-77917643D01*
X118896404Y-77917642D01*
X118896330Y-77917606D01*
X118004509Y-77492563D01*
X118993405Y-77466058D01*
X119008353Y-77465676D01*
X119037234Y-77468504D01*
X119050254Y-77471449D01*
X119050316Y-77471457D01*
X119051278Y-77471680D01*
X121577577Y-78039180D01*
X121577588Y-78039181D01*
X121577703Y-78039208D01*
X121590604Y-78042104D01*
X121618059Y-78051041D01*
X121630922Y-78056596D01*
X121630974Y-78056619D01*
X122302120Y-78347078D01*
X122322860Y-78526571D01*
X122346260Y-78730571D01*
X122346386Y-78731157D01*
X122346397Y-78731759D01*
X122360730Y-78797819D01*
X122374999Y-78864130D01*
X122375238Y-78864685D01*
X122375365Y-78865268D01*
X122402228Y-78927222D01*
X122429132Y-78989564D01*
X122429472Y-78990058D01*
X122429711Y-78990609D01*
X122434516Y-78999120D01*
X122639716Y-79356821D01*
X122640011Y-79357236D01*
X122640222Y-79357702D01*
X122679486Y-79412697D01*
X122718935Y-79468123D01*
X122719309Y-79468476D01*
X122719603Y-79468888D01*
X122768962Y-79515362D01*
X122818265Y-79561918D01*
X122818694Y-79562187D01*
X122819068Y-79562540D01*
X122826846Y-79568459D01*
X122991746Y-79692159D01*
X122991750Y-79692161D01*
X122991919Y-79692290D01*
X124191727Y-80591746D01*
X124238669Y-80627013D01*
X124298657Y-80726124D01*
X124308047Y-80783878D01*
X124549088Y-82268556D01*
X124538908Y-82283424D01*
X124469377Y-82445650D01*
X124432681Y-82618293D01*
X124430217Y-82794774D01*
X124462078Y-82968374D01*
X124527052Y-83132479D01*
X124622663Y-83280838D01*
X124745270Y-83407801D01*
X124890202Y-83508531D01*
X125051939Y-83579193D01*
X125224321Y-83617093D01*
X125400781Y-83620790D01*
X125574599Y-83590141D01*
X125739153Y-83526314D01*
X125888177Y-83431741D01*
X126015992Y-83310024D01*
X126117732Y-83165799D01*
X126189521Y-83004559D01*
X126228624Y-82832446D01*
X126231439Y-82630850D01*
X126197157Y-82457713D01*
X126129898Y-82294531D01*
X126032225Y-82147521D01*
X125931262Y-82045850D01*
X125689953Y-80559522D01*
X125689951Y-80559515D01*
X125689928Y-80559366D01*
X125658728Y-80367466D01*
X125643182Y-80308772D01*
X125628925Y-80249771D01*
X125625713Y-80242815D01*
X125623750Y-80235403D01*
X125597102Y-80180851D01*
X125571655Y-80125739D01*
X125566652Y-80117342D01*
X125366252Y-79786242D01*
X125330089Y-79737874D01*
X125295031Y-79688694D01*
X125289226Y-79683221D01*
X125284446Y-79676827D01*
X125239575Y-79636404D01*
X125195634Y-79594971D01*
X125187860Y-79589045D01*
X125032260Y-79472145D01*
X125032219Y-79472120D01*
X125031680Y-79471710D01*
X123831681Y-78572110D01*
X123831672Y-78572105D01*
X123782320Y-78535083D01*
X123720695Y-78427659D01*
X123713740Y-78367029D01*
X123713733Y-78366995D01*
X123713674Y-78366454D01*
X123692860Y-78186313D01*
X125025287Y-77197025D01*
X125025292Y-77197020D01*
X125082469Y-77154634D01*
X125116345Y-77123971D01*
X125152146Y-77095563D01*
X125159125Y-77088720D01*
X125262025Y-76986420D01*
X125291194Y-76951120D01*
X125322581Y-76917778D01*
X125328500Y-76910000D01*
X125372000Y-76852000D01*
X125372002Y-76851997D01*
X125372090Y-76851881D01*
X126271690Y-75651881D01*
X126271702Y-75651862D01*
X126271836Y-75651685D01*
X126284589Y-75634661D01*
X126314369Y-75604881D01*
X126331627Y-75591930D01*
X126331681Y-75591890D01*
X127531680Y-74692290D01*
X127531696Y-74692275D01*
X127531956Y-74692083D01*
X127589256Y-74649083D01*
X127622202Y-74618908D01*
X127657115Y-74591038D01*
X127664075Y-74584175D01*
X127764275Y-74483975D01*
X127792819Y-74449224D01*
X127823621Y-74416467D01*
X127829536Y-74408685D01*
X127872036Y-74351952D01*
X127872090Y-74351881D01*
X128771233Y-73152491D01*
X128777625Y-73144007D01*
X128792494Y-73126856D01*
X131320706Y-70598644D01*
X131371422Y-70565055D01*
X131398893Y-70553918D01*
X131398900Y-70553914D01*
X131398921Y-70553906D01*
X131838921Y-70375506D01*
X131838944Y-70375494D01*
X131839258Y-70375369D01*
X131938259Y-70335169D01*
X131939183Y-70334684D01*
X131940178Y-70334386D01*
X131999606Y-70302961D01*
X132059218Y-70271664D01*
X132060028Y-70271011D01*
X132060948Y-70270524D01*
X132069063Y-70265077D01*
X132245763Y-70144677D01*
X132246636Y-70143948D01*
X132247632Y-70143399D01*
X132299090Y-70100137D01*
X132350616Y-70057100D01*
X132351330Y-70056217D01*
X132352201Y-70055484D01*
X132358984Y-70048446D01*
X132431884Y-69971747D01*
X132431885Y-69971746D01*
X132542842Y-69855150D01*
X131761881Y-70997950D01*
M02*
