G04 #@! TF.FileFunction,Soldermask,Bot*
%FSLAX46Y46*%
G04 Gerber Fmt 4.6, Leading zero omitted, Abs format (unit mm)*
G04 Created by KiCad (PCBNEW 4.0.1-stable) date 20.01.2016 16:11:56*
%MOMM*%
G01*
G04 APERTURE LIST*
%ADD10C,0.100000*%
%ADD11C,6.200000*%
%ADD12C,1.700000*%
%ADD13R,1.280000X1.200000*%
%ADD14C,1.400000*%
%ADD15R,1.470000X0.960000*%
%ADD16R,2.200000X2.200000*%
%ADD17C,2.200000*%
%ADD18R,1.800000X1.800000*%
%ADD19C,1.800000*%
%ADD20R,1.700000X1.700000*%
%ADD21R,3.400000X1.800000*%
%ADD22O,3.400000X1.800000*%
G04 APERTURE END LIST*
D10*
D11*
X149500000Y-103500000D03*
D10*
G36*
X112304768Y-67297507D02*
X111002493Y-66204768D01*
X112095232Y-64902493D01*
X113397507Y-65995232D01*
X112304768Y-67297507D01*
X112304768Y-67297507D01*
G37*
D12*
X113832681Y-64154247D03*
D13*
X117160000Y-101300000D03*
X115840000Y-101300000D03*
X117160000Y-99700000D03*
X115840000Y-99700000D03*
X117160000Y-98100000D03*
X115840000Y-98100000D03*
X117160000Y-96500000D03*
X115840000Y-96500000D03*
D14*
X110800000Y-72700000D03*
X110800000Y-75200000D03*
X110800000Y-77700000D03*
D13*
X117160000Y-94900000D03*
X115840000Y-94900000D03*
X117160000Y-93300000D03*
X115840000Y-93300000D03*
D11*
X118500000Y-62500000D03*
D15*
X112532000Y-100520000D03*
X112532000Y-99250000D03*
X112532000Y-97980000D03*
X112532000Y-96710000D03*
X112532000Y-95440000D03*
X112532000Y-94170000D03*
X120152000Y-94170000D03*
X120152000Y-95440000D03*
X120152000Y-96710000D03*
X120152000Y-97980000D03*
X120152000Y-99250000D03*
X120152000Y-100520000D03*
D16*
X127500000Y-59500000D03*
D17*
X127500000Y-106500000D03*
D16*
X140500000Y-106500000D03*
D17*
X140500000Y-59500000D03*
D18*
X115150000Y-79600000D03*
D19*
X118650000Y-79600000D03*
D20*
X130190000Y-101900000D03*
D12*
X132730000Y-101900000D03*
X135270000Y-101900000D03*
X137810000Y-101900000D03*
D20*
X126220000Y-109600000D03*
D12*
X128760000Y-109600000D03*
X131300000Y-109600000D03*
D20*
X134480000Y-109600000D03*
D12*
X137020000Y-109600000D03*
X139560000Y-109600000D03*
X142100000Y-109600000D03*
D21*
X115989000Y-81730000D03*
D22*
X115989000Y-84270000D03*
M02*
