G04 #@! TF.FileFunction,Legend,Bot*
%FSLAX46Y46*%
G04 Gerber Fmt 4.6, Leading zero omitted, Abs format (unit mm)*
G04 Created by KiCad (PCBNEW (after 2015-mar-04 BZR unknown)-product) date 12.05.2015 11:57:38*
%MOMM*%
G01*
G04 APERTURE LIST*
%ADD10C,0.100000*%
%ADD11C,0.200000*%
%ADD12C,0.150000*%
%ADD13C,0.500380*%
%ADD14C,0.149860*%
G04 APERTURE END LIST*
D10*
D11*
X117652381Y-81676190D02*
X116652381Y-81676190D01*
X116652381Y-82057143D01*
X116700000Y-82152381D01*
X116747619Y-82200000D01*
X116842857Y-82247619D01*
X116985714Y-82247619D01*
X117080952Y-82200000D01*
X117128571Y-82152381D01*
X117176190Y-82057143D01*
X117176190Y-81676190D01*
X117652381Y-82676190D02*
X116985714Y-82676190D01*
X116652381Y-82676190D02*
X116700000Y-82628571D01*
X116747619Y-82676190D01*
X116700000Y-82723809D01*
X116652381Y-82676190D01*
X116747619Y-82676190D01*
X117652381Y-83295237D02*
X117604762Y-83199999D01*
X117509524Y-83152380D01*
X116652381Y-83152380D01*
X117652381Y-83819047D02*
X117604762Y-83723809D01*
X117509524Y-83676190D01*
X116652381Y-83676190D01*
X124095238Y-108252381D02*
X124095238Y-109061905D01*
X124047619Y-109157143D01*
X124000000Y-109204762D01*
X123904762Y-109252381D01*
X123714285Y-109252381D01*
X123619047Y-109204762D01*
X123571428Y-109157143D01*
X123523809Y-109061905D01*
X123523809Y-108252381D01*
X123095238Y-108966667D02*
X122619047Y-108966667D01*
X123190476Y-109252381D02*
X122857143Y-108252381D01*
X122523809Y-109252381D01*
X121619047Y-109252381D02*
X121952381Y-108776190D01*
X122190476Y-109252381D02*
X122190476Y-108252381D01*
X121809523Y-108252381D01*
X121714285Y-108300000D01*
X121666666Y-108347619D01*
X121619047Y-108442857D01*
X121619047Y-108585714D01*
X121666666Y-108680952D01*
X121714285Y-108728571D01*
X121809523Y-108776190D01*
X122190476Y-108776190D01*
X121333333Y-108252381D02*
X120761904Y-108252381D01*
X121047619Y-109252381D02*
X121047619Y-108252381D01*
X146457143Y-109304762D02*
X146314286Y-109352381D01*
X146076190Y-109352381D01*
X145980952Y-109304762D01*
X145933333Y-109257143D01*
X145885714Y-109161905D01*
X145885714Y-109066667D01*
X145933333Y-108971429D01*
X145980952Y-108923810D01*
X146076190Y-108876190D01*
X146266667Y-108828571D01*
X146361905Y-108780952D01*
X146409524Y-108733333D01*
X146457143Y-108638095D01*
X146457143Y-108542857D01*
X146409524Y-108447619D01*
X146361905Y-108400000D01*
X146266667Y-108352381D01*
X146028571Y-108352381D01*
X145885714Y-108400000D01*
X145552381Y-108352381D02*
X145314286Y-109352381D01*
X145123809Y-108638095D01*
X144933333Y-109352381D01*
X144695238Y-108352381D01*
X144314286Y-109352381D02*
X144314286Y-108352381D01*
X144076191Y-108352381D01*
X143933333Y-108400000D01*
X143838095Y-108495238D01*
X143790476Y-108590476D01*
X143742857Y-108780952D01*
X143742857Y-108923810D01*
X143790476Y-109114286D01*
X143838095Y-109209524D01*
X143933333Y-109304762D01*
X144076191Y-109352381D01*
X144314286Y-109352381D01*
X117200000Y-78200000D02*
G75*
G03X117200000Y-78200000I-6000000J0D01*
G01*
D12*
X133783000Y-107981300D02*
X146783000Y-107981300D01*
X146783000Y-107981300D02*
X146783000Y-57981300D01*
X146783000Y-57981300D02*
X133783000Y-57981300D01*
X133783000Y-57981300D02*
X133783000Y-107981300D01*
D13*
X147283360Y-107481880D02*
X147283360Y-105480360D01*
X149284120Y-60481480D02*
X147282600Y-60481480D01*
X148283360Y-61482240D02*
X148283360Y-59483260D01*
D12*
X111353918Y-103993982D02*
X109586604Y-102226668D01*
X109586604Y-102226668D02*
X111143780Y-100669491D01*
X111353918Y-103993982D02*
X113121232Y-105761296D01*
X113121232Y-105761296D02*
X114712534Y-104169995D01*
X120523800Y-99573900D02*
G75*
G03X120523800Y-99573900I-4749800J0D01*
G01*
X124703000Y-108330000D02*
X124830000Y-108330000D01*
X124576000Y-110870000D02*
X124703000Y-110870000D01*
X124830000Y-110870000D02*
X132450000Y-110870000D01*
X132450000Y-108330000D02*
X124830000Y-108330000D01*
X124195000Y-108838000D02*
X124195000Y-110362000D01*
X124195000Y-110362000D02*
X123941000Y-109981000D01*
X127370000Y-108330000D02*
X127370000Y-110870000D01*
X132450000Y-108330000D02*
X132450000Y-110870000D01*
X124576000Y-110870000D02*
X124576000Y-108330000D01*
X124576000Y-108330000D02*
X124703000Y-108330000D01*
X124703000Y-108330000D02*
X124703000Y-110870000D01*
X124703000Y-110870000D02*
X124830000Y-110870000D01*
X124830000Y-110870000D02*
X124830000Y-108330000D01*
X131390000Y-56370000D02*
X136470000Y-56370000D01*
X131390000Y-53830000D02*
X136470000Y-53830000D01*
X136597000Y-56370000D02*
X136470000Y-56370000D01*
X136470000Y-53830000D02*
X136724000Y-53830000D01*
X136724000Y-53830000D02*
X136724000Y-56370000D01*
X136724000Y-56370000D02*
X136597000Y-56370000D01*
X136597000Y-56370000D02*
X136597000Y-53957000D01*
X133930000Y-53830000D02*
X133930000Y-56370000D01*
X131390000Y-53830000D02*
X131390000Y-56370000D01*
X136470000Y-56370000D02*
X136470000Y-53830000D01*
X132695000Y-108838000D02*
X132695000Y-110362000D01*
X132695000Y-110362000D02*
X132441000Y-109981000D01*
X135870000Y-108330000D02*
X135870000Y-110870000D01*
X133076000Y-108330000D02*
X143490000Y-108330000D01*
X143490000Y-108330000D02*
X143490000Y-110870000D01*
X143490000Y-110870000D02*
X133076000Y-110870000D01*
X133076000Y-110870000D02*
X133076000Y-108330000D01*
X133076000Y-108330000D02*
X133203000Y-108330000D01*
X133203000Y-108330000D02*
X133203000Y-110870000D01*
X133203000Y-110870000D02*
X133330000Y-110870000D01*
X133330000Y-110870000D02*
X133330000Y-108330000D01*
X119908000Y-73309200D02*
X118384000Y-73309200D01*
X118384000Y-73309200D02*
X118765000Y-73055200D01*
X120416000Y-76484200D02*
X117876000Y-76484200D01*
X120416000Y-73690200D02*
X120416000Y-84104200D01*
X120416000Y-84104200D02*
X117876000Y-84104200D01*
X117876000Y-84104200D02*
X117876000Y-73690200D01*
X117876000Y-73690200D02*
X120416000Y-73690200D01*
X120416000Y-73690200D02*
X120416000Y-73817200D01*
X120416000Y-73817200D02*
X117876000Y-73817200D01*
X117876000Y-73817200D02*
X117876000Y-73944200D01*
X117876000Y-73944200D02*
X120416000Y-73944200D01*
X119908000Y-84396100D02*
X118384000Y-84396100D01*
X118384000Y-84396100D02*
X118765000Y-84142100D01*
X120416000Y-87571100D02*
X117876000Y-87571100D01*
X120416000Y-84777100D02*
X120416000Y-95191100D01*
X120416000Y-95191100D02*
X117876000Y-95191100D01*
X117876000Y-95191100D02*
X117876000Y-84777100D01*
X117876000Y-84777100D02*
X120416000Y-84777100D01*
X120416000Y-84777100D02*
X120416000Y-84904100D01*
X120416000Y-84904100D02*
X117876000Y-84904100D01*
X117876000Y-84904100D02*
X117876000Y-85031100D01*
X117876000Y-85031100D02*
X120416000Y-85031100D01*
X111816000Y-68470000D02*
X111816000Y-65930000D01*
X114610000Y-68470000D02*
X109276000Y-68470000D01*
X109276000Y-68470000D02*
X109276000Y-65930000D01*
X109276000Y-65930000D02*
X114610000Y-65930000D01*
X114610000Y-65930000D02*
X114610000Y-68470000D01*
X114610000Y-68470000D02*
X114483000Y-68470000D01*
X114483000Y-68470000D02*
X114483000Y-65930000D01*
X114483000Y-65930000D02*
X114356000Y-65930000D01*
X114356000Y-65930000D02*
X114356000Y-68470000D01*
X114500000Y-61500000D02*
X114500000Y-72900000D01*
X114500000Y-72900000D02*
X117400000Y-72900000D01*
X117400000Y-72900000D02*
X120300000Y-72900000D01*
X120300000Y-72900000D02*
X120300000Y-61500000D01*
X120300000Y-61500000D02*
X114500000Y-61500000D01*
X133695000Y-57981300D02*
X120695000Y-57981300D01*
X120695000Y-57981300D02*
X120695000Y-107981300D01*
X120695000Y-107981300D02*
X133695000Y-107981300D01*
X133695000Y-107981300D02*
X133695000Y-57981300D01*
D13*
X120194640Y-58480720D02*
X120194640Y-60482240D01*
X118193880Y-105481120D02*
X120195400Y-105481120D01*
X119194640Y-104480360D02*
X119194640Y-106479340D01*
D12*
X108200000Y-91100000D02*
X109000000Y-91100000D01*
X109000000Y-91100000D02*
X109000000Y-88100000D01*
X109000000Y-88100000D02*
X107400000Y-88100000D01*
X107400000Y-88100000D02*
X107400000Y-91100000D01*
X107400000Y-91100000D02*
X108200000Y-91100000D01*
X110800000Y-91100000D02*
X111600000Y-91100000D01*
X111600000Y-91100000D02*
X111600000Y-88100000D01*
X111600000Y-88100000D02*
X110000000Y-88100000D01*
X110000000Y-88100000D02*
X110000000Y-91100000D01*
X110000000Y-91100000D02*
X110800000Y-91100000D01*
X113400000Y-91100000D02*
X114200000Y-91100000D01*
X114200000Y-91100000D02*
X114200000Y-88100000D01*
X114200000Y-88100000D02*
X112600000Y-88100000D01*
X112600000Y-88100000D02*
X112600000Y-91100000D01*
X112600000Y-91100000D02*
X113400000Y-91100000D01*
X116000000Y-91100000D02*
X116800000Y-91100000D01*
X116800000Y-91100000D02*
X116800000Y-88100000D01*
X116800000Y-88100000D02*
X115200000Y-88100000D01*
X115200000Y-88100000D02*
X115200000Y-91100000D01*
X115200000Y-91100000D02*
X116000000Y-91100000D01*
X118104500Y-62900000D02*
X114504500Y-62900000D01*
X114504500Y-62900000D02*
X114504500Y-71500000D01*
X114504500Y-71500000D02*
X118104500Y-71500000D01*
X118104500Y-71500000D02*
X118104500Y-62900000D01*
D11*
X109500000Y-79000000D02*
X109500000Y-83700000D01*
X109500000Y-83700000D02*
X114100000Y-83700000D01*
X114100000Y-83700000D02*
X114100000Y-79000000D01*
X111800000Y-68200000D02*
X109500000Y-68200000D01*
X109500000Y-68200000D02*
X109500000Y-79000000D01*
X109500000Y-79000000D02*
X114100000Y-79000000D01*
X114100000Y-79000000D02*
X114100000Y-68200000D01*
X114100000Y-68200000D02*
X111800000Y-68200000D01*
D12*
X117600000Y-92700000D02*
X117600000Y-86500000D01*
X117600000Y-86500000D02*
X106400000Y-86500000D01*
X106400000Y-86500000D02*
X106400000Y-92700000D01*
X106400000Y-92700000D02*
X117600000Y-92700000D01*
X135739263Y-82038063D02*
X135767834Y-82123777D01*
X135796406Y-82152349D01*
X135853549Y-82180920D01*
X135939263Y-82180920D01*
X135996406Y-82152349D01*
X136024977Y-82123777D01*
X136053549Y-82066635D01*
X136053549Y-81838063D01*
X135453549Y-81838063D01*
X135453549Y-82038063D01*
X135482120Y-82095206D01*
X135510691Y-82123777D01*
X135567834Y-82152349D01*
X135624977Y-82152349D01*
X135682120Y-82123777D01*
X135710691Y-82095206D01*
X135739263Y-82038063D01*
X135739263Y-81838063D01*
X135882120Y-82409492D02*
X135882120Y-82695206D01*
X136053549Y-82352349D02*
X135453549Y-82552349D01*
X136053549Y-82752349D01*
X135453549Y-82866635D02*
X135453549Y-83209492D01*
X136053549Y-83038063D02*
X135453549Y-83038063D01*
D14*
X114807810Y-97932737D02*
X114767442Y-98013474D01*
X114767442Y-98053842D01*
X114787626Y-98114395D01*
X114848178Y-98174948D01*
X114908731Y-98195132D01*
X114949099Y-98195131D01*
X115009652Y-98174948D01*
X115171125Y-98013474D01*
X114747257Y-97589606D01*
X114605968Y-97730895D01*
X114585784Y-97791448D01*
X114585784Y-97831816D01*
X114605968Y-97892369D01*
X114646337Y-97932737D01*
X114706889Y-97952921D01*
X114747257Y-97952922D01*
X114807810Y-97932737D01*
X114949099Y-97791448D01*
X114363758Y-97973105D02*
X114081179Y-98255684D01*
X114787626Y-98396973D01*
X114505047Y-98679552D01*
X114121548Y-99063052D02*
X114363758Y-98820841D01*
X114242652Y-98941947D02*
X113818784Y-98518079D01*
X113919706Y-98538263D01*
X114000442Y-98538263D01*
X114060995Y-98518079D01*
X118158129Y-100099887D02*
X118117761Y-100180623D01*
X118117760Y-100220991D01*
X118137945Y-100281545D01*
X118198497Y-100342097D01*
X118259050Y-100362281D01*
X118299418Y-100362281D01*
X118359970Y-100342097D01*
X118521444Y-100180623D01*
X118097576Y-99756755D01*
X117956287Y-99898044D01*
X117936102Y-99958598D01*
X117936103Y-99998966D01*
X117956287Y-100059518D01*
X117996655Y-100099887D01*
X118057208Y-100120070D01*
X118097576Y-100120071D01*
X118158129Y-100099887D01*
X118299418Y-99958598D01*
X117673708Y-100180623D02*
X118016839Y-100523755D01*
X118037023Y-100584308D01*
X118037023Y-100624675D01*
X118016839Y-100685228D01*
X117936102Y-100765965D01*
X117875550Y-100786149D01*
X117835182Y-100786149D01*
X117774629Y-100765965D01*
X117431498Y-100422834D01*
X117270024Y-100584307D02*
X116987445Y-100866886D01*
X117693892Y-101008175D01*
X117411313Y-101290754D01*
X116866340Y-100987991D02*
X116583761Y-101270570D01*
X117290208Y-101411859D01*
X117007629Y-101694438D01*
X116624130Y-101633886D02*
X116482841Y-101775175D01*
X116644314Y-102057753D02*
X116846156Y-101855911D01*
X116422288Y-101432043D01*
X116220446Y-101633885D01*
X116220446Y-102481621D02*
X116159894Y-102138490D01*
X116462657Y-102239411D02*
X116038788Y-101815543D01*
X115877315Y-101977016D01*
X115857131Y-102037569D01*
X115857131Y-102077937D01*
X115877315Y-102138490D01*
X115937868Y-102199043D01*
X115998420Y-102219226D01*
X116038789Y-102219226D01*
X116099342Y-102199043D01*
X116260815Y-102037569D01*
D12*
X138528572Y-54871429D02*
X138128572Y-55471429D01*
X138128572Y-54871429D02*
X138528572Y-55471429D01*
X137614286Y-55471429D02*
X137900000Y-55471429D01*
X137900000Y-54871429D01*
X137442857Y-54928571D02*
X137414286Y-54900000D01*
X137357143Y-54871429D01*
X137214286Y-54871429D01*
X137157143Y-54900000D01*
X137128572Y-54928571D01*
X137100000Y-54985714D01*
X137100000Y-55042857D01*
X137128572Y-55128571D01*
X137471429Y-55471429D01*
X137100000Y-55471429D01*
X120042857Y-69400000D02*
X120071429Y-69485714D01*
X120071429Y-69628571D01*
X120042857Y-69685714D01*
X120014286Y-69714285D01*
X119957143Y-69742857D01*
X119900000Y-69742857D01*
X119842857Y-69714285D01*
X119814286Y-69685714D01*
X119785714Y-69628571D01*
X119757143Y-69514285D01*
X119728571Y-69457143D01*
X119700000Y-69428571D01*
X119642857Y-69400000D01*
X119585714Y-69400000D01*
X119528571Y-69428571D01*
X119500000Y-69457143D01*
X119471429Y-69514285D01*
X119471429Y-69657143D01*
X119500000Y-69742857D01*
X119471429Y-69942857D02*
X120071429Y-70085714D01*
X119642857Y-70200000D01*
X120071429Y-70314286D01*
X119471429Y-70457143D01*
X120071429Y-71000000D02*
X120071429Y-70657143D01*
X120071429Y-70828571D02*
X119471429Y-70828571D01*
X119557143Y-70771428D01*
X119614286Y-70714286D01*
X119642857Y-70657143D01*
X120055857Y-65827001D02*
X120084429Y-65912715D01*
X120084429Y-66055572D01*
X120055857Y-66112715D01*
X120027286Y-66141286D01*
X119970143Y-66169858D01*
X119913000Y-66169858D01*
X119855857Y-66141286D01*
X119827286Y-66112715D01*
X119798714Y-66055572D01*
X119770143Y-65941286D01*
X119741571Y-65884144D01*
X119713000Y-65855572D01*
X119655857Y-65827001D01*
X119598714Y-65827001D01*
X119541571Y-65855572D01*
X119513000Y-65884144D01*
X119484429Y-65941286D01*
X119484429Y-66084144D01*
X119513000Y-66169858D01*
X119484429Y-66369858D02*
X120084429Y-66512715D01*
X119655857Y-66627001D01*
X120084429Y-66741287D01*
X119484429Y-66884144D01*
X120084429Y-67112715D02*
X119484429Y-67112715D01*
X119484429Y-67312715D02*
X119484429Y-67655572D01*
X120084429Y-67484143D02*
X119484429Y-67484143D01*
X120027286Y-68198429D02*
X120055857Y-68169858D01*
X120084429Y-68084144D01*
X120084429Y-68027001D01*
X120055857Y-67941286D01*
X119998714Y-67884144D01*
X119941571Y-67855572D01*
X119827286Y-67827001D01*
X119741571Y-67827001D01*
X119627286Y-67855572D01*
X119570143Y-67884144D01*
X119513000Y-67941286D01*
X119484429Y-68027001D01*
X119484429Y-68084144D01*
X119513000Y-68169858D01*
X119541571Y-68198429D01*
X120084429Y-68455572D02*
X119484429Y-68455572D01*
X119770143Y-68455572D02*
X119770143Y-68798429D01*
X120084429Y-68798429D02*
X119484429Y-68798429D01*
X131653023Y-83038823D02*
X131681594Y-83124537D01*
X131710166Y-83153109D01*
X131767309Y-83181680D01*
X131853023Y-83181680D01*
X131910166Y-83153109D01*
X131938737Y-83124537D01*
X131967309Y-83067395D01*
X131967309Y-82838823D01*
X131367309Y-82838823D01*
X131367309Y-83038823D01*
X131395880Y-83095966D01*
X131424451Y-83124537D01*
X131481594Y-83153109D01*
X131538737Y-83153109D01*
X131595880Y-83124537D01*
X131624451Y-83095966D01*
X131653023Y-83038823D01*
X131653023Y-82838823D01*
X131795880Y-83410252D02*
X131795880Y-83695966D01*
X131967309Y-83353109D02*
X131367309Y-83553109D01*
X131967309Y-83753109D01*
X131367309Y-83867395D02*
X131367309Y-84210252D01*
X131967309Y-84038823D02*
X131367309Y-84038823D01*
X108400000Y-87557143D02*
X108600000Y-87557143D01*
X108600000Y-87871429D02*
X108600000Y-87271429D01*
X108314286Y-87271429D01*
X107771428Y-87871429D02*
X108114285Y-87871429D01*
X107942857Y-87871429D02*
X107942857Y-87271429D01*
X108000000Y-87357143D01*
X108057142Y-87414286D01*
X108114285Y-87442857D01*
X111000000Y-87557143D02*
X111200000Y-87557143D01*
X111200000Y-87871429D02*
X111200000Y-87271429D01*
X110914286Y-87271429D01*
X110714285Y-87328571D02*
X110685714Y-87300000D01*
X110628571Y-87271429D01*
X110485714Y-87271429D01*
X110428571Y-87300000D01*
X110400000Y-87328571D01*
X110371428Y-87385714D01*
X110371428Y-87442857D01*
X110400000Y-87528571D01*
X110742857Y-87871429D01*
X110371428Y-87871429D01*
X113600000Y-87557143D02*
X113800000Y-87557143D01*
X113800000Y-87871429D02*
X113800000Y-87271429D01*
X113514286Y-87271429D01*
X113342857Y-87271429D02*
X112971428Y-87271429D01*
X113171428Y-87500000D01*
X113085714Y-87500000D01*
X113028571Y-87528571D01*
X113000000Y-87557143D01*
X112971428Y-87614286D01*
X112971428Y-87757143D01*
X113000000Y-87814286D01*
X113028571Y-87842857D01*
X113085714Y-87871429D01*
X113257142Y-87871429D01*
X113314285Y-87842857D01*
X113342857Y-87814286D01*
X116200000Y-87557143D02*
X116400000Y-87557143D01*
X116400000Y-87871429D02*
X116400000Y-87271429D01*
X116114286Y-87271429D01*
X115628571Y-87471429D02*
X115628571Y-87871429D01*
X115771428Y-87242857D02*
X115914285Y-87671429D01*
X115542857Y-87671429D01*
X119147357Y-69400000D02*
X119175929Y-69485714D01*
X119175929Y-69628571D01*
X119147357Y-69685714D01*
X119118786Y-69714285D01*
X119061643Y-69742857D01*
X119004500Y-69742857D01*
X118947357Y-69714285D01*
X118918786Y-69685714D01*
X118890214Y-69628571D01*
X118861643Y-69514285D01*
X118833071Y-69457143D01*
X118804500Y-69428571D01*
X118747357Y-69400000D01*
X118690214Y-69400000D01*
X118633071Y-69428571D01*
X118604500Y-69457143D01*
X118575929Y-69514285D01*
X118575929Y-69657143D01*
X118604500Y-69742857D01*
X118575929Y-69942857D02*
X119175929Y-70085714D01*
X118747357Y-70200000D01*
X119175929Y-70314286D01*
X118575929Y-70457143D01*
X118775929Y-70942857D02*
X119175929Y-70942857D01*
X118547357Y-70800000D02*
X118975929Y-70657143D01*
X118975929Y-71028571D01*
X109071429Y-80314286D02*
X108471429Y-80314286D01*
X108900000Y-80514286D01*
X108471429Y-80714286D01*
X109071429Y-80714286D01*
X109071429Y-81314286D02*
X109071429Y-80971429D01*
X109071429Y-81142857D02*
X108471429Y-81142857D01*
X108557143Y-81085714D01*
X108614286Y-81028572D01*
X108642857Y-80971429D01*
X109071429Y-73757143D02*
X108471429Y-73757143D01*
X108900000Y-73957143D01*
X108471429Y-74157143D01*
X109071429Y-74157143D01*
X108471429Y-74557143D02*
X108471429Y-74671429D01*
X108500000Y-74728571D01*
X108557143Y-74785714D01*
X108671429Y-74814286D01*
X108871429Y-74814286D01*
X108985714Y-74785714D01*
X109042857Y-74728571D01*
X109071429Y-74671429D01*
X109071429Y-74557143D01*
X109042857Y-74500000D01*
X108985714Y-74442857D01*
X108871429Y-74414286D01*
X108671429Y-74414286D01*
X108557143Y-74442857D01*
X108500000Y-74500000D01*
X108471429Y-74557143D01*
X108471429Y-74985714D02*
X108471429Y-75328571D01*
X109071429Y-75157142D02*
X108471429Y-75157142D01*
X108471429Y-75642857D02*
X108471429Y-75757143D01*
X108500000Y-75814285D01*
X108557143Y-75871428D01*
X108671429Y-75900000D01*
X108871429Y-75900000D01*
X108985714Y-75871428D01*
X109042857Y-75814285D01*
X109071429Y-75757143D01*
X109071429Y-75642857D01*
X109042857Y-75585714D01*
X108985714Y-75528571D01*
X108871429Y-75500000D01*
X108671429Y-75500000D01*
X108557143Y-75528571D01*
X108500000Y-75585714D01*
X108471429Y-75642857D01*
X109071429Y-76499999D02*
X108785714Y-76299999D01*
X109071429Y-76157142D02*
X108471429Y-76157142D01*
X108471429Y-76385714D01*
X108500000Y-76442856D01*
X108528571Y-76471428D01*
X108585714Y-76499999D01*
X108671429Y-76499999D01*
X108728571Y-76471428D01*
X108757143Y-76442856D01*
X108785714Y-76385714D01*
X108785714Y-76157142D01*
X109128571Y-76614285D02*
X109128571Y-77071428D01*
X109071429Y-77214285D02*
X108471429Y-77214285D01*
X108471429Y-77442857D01*
X108500000Y-77499999D01*
X108528571Y-77528571D01*
X108585714Y-77557142D01*
X108671429Y-77557142D01*
X108728571Y-77528571D01*
X108757143Y-77499999D01*
X108785714Y-77442857D01*
X108785714Y-77214285D01*
X108900000Y-77785714D02*
X108900000Y-78071428D01*
X109071429Y-77728571D02*
X108471429Y-77928571D01*
X109071429Y-78128571D01*
X109071429Y-78328571D02*
X108471429Y-78328571D01*
X108471429Y-78471428D01*
X108500000Y-78557143D01*
X108557143Y-78614285D01*
X108614286Y-78642857D01*
X108728571Y-78671428D01*
X108814286Y-78671428D01*
X108928571Y-78642857D01*
X108985714Y-78614285D01*
X109042857Y-78557143D01*
X109071429Y-78471428D01*
X109071429Y-78328571D01*
X106042857Y-86600000D02*
X106071429Y-86685714D01*
X106071429Y-86828571D01*
X106042857Y-86885714D01*
X106014286Y-86914285D01*
X105957143Y-86942857D01*
X105900000Y-86942857D01*
X105842857Y-86914285D01*
X105814286Y-86885714D01*
X105785714Y-86828571D01*
X105757143Y-86714285D01*
X105728571Y-86657143D01*
X105700000Y-86628571D01*
X105642857Y-86600000D01*
X105585714Y-86600000D01*
X105528571Y-86628571D01*
X105500000Y-86657143D01*
X105471429Y-86714285D01*
X105471429Y-86857143D01*
X105500000Y-86942857D01*
X105471429Y-87142857D02*
X106071429Y-87285714D01*
X105642857Y-87400000D01*
X106071429Y-87514286D01*
X105471429Y-87657143D01*
X105471429Y-87828571D02*
X105471429Y-88200000D01*
X105700000Y-88000000D01*
X105700000Y-88085714D01*
X105728571Y-88142857D01*
X105757143Y-88171428D01*
X105814286Y-88200000D01*
X105957143Y-88200000D01*
X106014286Y-88171428D01*
X106042857Y-88142857D01*
X106071429Y-88085714D01*
X106071429Y-87914286D01*
X106042857Y-87857143D01*
X106014286Y-87828571D01*
X106071429Y-83671429D02*
X105471429Y-83671429D01*
X105471429Y-83814286D01*
X105500000Y-83900001D01*
X105557143Y-83957143D01*
X105614286Y-83985715D01*
X105728571Y-84014286D01*
X105814286Y-84014286D01*
X105928571Y-83985715D01*
X105985714Y-83957143D01*
X106042857Y-83900001D01*
X106071429Y-83814286D01*
X106071429Y-83671429D01*
X106071429Y-84271429D02*
X105471429Y-84271429D01*
X106071429Y-84557143D02*
X105471429Y-84557143D01*
X105471429Y-84785715D01*
X105500000Y-84842857D01*
X105528571Y-84871429D01*
X105585714Y-84900000D01*
X105671429Y-84900000D01*
X105728571Y-84871429D01*
X105757143Y-84842857D01*
X105785714Y-84785715D01*
X105785714Y-84557143D01*
X106071429Y-85100000D02*
X105671429Y-85414286D01*
X105671429Y-85100000D02*
X106071429Y-85414286D01*
X105671429Y-85900000D02*
X106071429Y-85900000D01*
X105442857Y-85757143D02*
X105871429Y-85614286D01*
X105871429Y-85985714D01*
M02*
