M48
;DRILL file {kicad (after 2015-mar-04 BZR unknown)-product} date 12.05.2015 11:57:45
;FORMAT={-:-/ absolute / metric / decimal}
FMAT,2
METRIC,TZ
T1C0.400
T2C0.600
T3C0.900
%
G90
G05
M71
T1
X106.2Y-81.6
X106.2Y-87.6
X106.99Y-84.55
X107.6Y-77.8
X107.8Y-73.6
X109.4Y-80.8
X109.4Y-91.8
X112.2Y-81.6
X113.Y-64.4
X114.414Y-73.432
X114.6Y-91.8
X116.Y-61.6
X116.809Y-86.864
X117.055Y-84.849
X117.11Y-94.44
X117.689Y-82.468
X118.2Y-106.4
X118.534Y-101.895
X118.725Y-103.08
X118.797Y-98.381
X119.2Y-64.
X119.691Y-101.578
X120.Y-59.
X120.4Y-67.8
X120.593Y-78.914
X120.6Y-61.8
X121.082Y-100.448
X121.4Y-108.2
X121.646Y-103.049
X122.709Y-96.558
X122.8Y-57.8
X123.2Y-69.8
X123.6Y-66.
X123.8Y-61.2
X123.999Y-91.881
X124.143Y-101.356
X124.218Y-99.157
X124.402Y-85.117
X124.48Y-74.516
X124.506Y-80.195
X124.8Y-59.2
X124.8Y-106.6
X125.Y-71.8
X125.4Y-64.
X125.4Y-76.8
X126.Y-56.4
X126.039Y-96.137
X126.217Y-99.092
X126.71Y-104.731
X127.39Y-89.698
X127.447Y-73.618
X127.8Y-87.
X127.943Y-101.546
X128.4Y-97.4
X128.461Y-69.225
X128.636Y-72.365
X129.Y-57.6
X129.2Y-55.2
X129.231Y-76.059
X129.448Y-73.426
X129.591Y-104.066
X129.6Y-92.6
X129.8Y-61.6
X129.983Y-65.323
X130.389Y-97.529
X130.508Y-105.191
X130.582Y-71.503
X130.587Y-103.355
X131.333Y-96.27
X131.336Y-98.237
X131.4Y-68.4
X131.737Y-107.752
X131.8Y-76.4
X131.926Y-99.607
X131.975Y-81.938
X132.2Y-60.2
X132.717Y-70.757
X132.874Y-62.662
X132.955Y-96.186
X133.227Y-90.499
X133.303Y-91.702
X133.59Y-101.32
X133.6Y-59.
X133.729Y-102.825
X133.8Y-78.6
X133.952Y-65.719
X133.952Y-66.819
X134.2Y-83.2
X134.285Y-94.545
X134.642Y-95.701
X134.8Y-76.4
X135.017Y-71.718
X135.052Y-65.719
X135.052Y-66.819
X135.065Y-96.798
X135.38Y-91.392
X135.655Y-94.948
X135.906Y-97.562
X135.923Y-103.518
X136.2Y-58.
X136.601Y-99.17
X136.775Y-102.674
X136.8Y-69.4
X137.004Y-97.703
X137.344Y-90.149
X137.4Y-71.8
X137.469Y-93.121
X137.6Y-107.6
X137.644Y-88.568
X137.65Y-77.95
X137.65Y-80.85
X137.65Y-83.75
X137.65Y-86.65
X137.719Y-75.713
X137.877Y-101.988
X137.912Y-103.618
X137.952Y-62.434
X138.101Y-97.551
X138.2Y-60.2
X138.6Y-55.6
X138.913Y-64.508
X139.264Y-97.316
X139.4Y-71.
X139.567Y-68.614
X140.175Y-102.453
X140.32Y-63.014
X140.491Y-97.343
X140.55Y-72.15
X140.55Y-75.05
X140.55Y-77.95
X140.55Y-80.85
X140.55Y-83.75
X140.55Y-86.65
X140.55Y-89.55
X140.576Y-95.215
X140.6Y-66.8
X140.678Y-92.288
X141.Y-62.
X141.144Y-104.287
X141.4Y-55.4
X141.749Y-64.532
X142.8Y-63.6
X142.8Y-66.8
X142.8Y-107.4
X143.4Y-69.2
X143.45Y-57.65
X143.45Y-60.55
X143.45Y-72.15
X143.45Y-75.05
X143.45Y-77.95
X143.45Y-80.85
X143.45Y-83.75
X143.45Y-86.65
X143.45Y-89.55
X143.45Y-92.45
X143.45Y-95.35
X143.45Y-98.25
X143.45Y-101.15
X143.8Y-104.8
X143.94Y-109.95
X144.474Y-64.549
X144.6Y-66.8
X146.2Y-57.6
X146.2Y-60.6
X146.2Y-63.6
X146.2Y-69.2
X146.2Y-72.2
X146.2Y-75.
X146.2Y-78.
X146.2Y-80.8
X146.2Y-83.8
X146.2Y-86.6
X146.2Y-89.6
X146.2Y-92.4
X146.2Y-95.4
X146.2Y-98.4
X146.2Y-101.2
X146.2Y-104.2
X146.2Y-108.
X146.226Y-66.834
T2
X116.304Y-64.7
X116.304Y-67.2
X116.304Y-69.7
T3
X110.546Y-67.2
X113.086Y-67.2
X114.36Y-100.988
X117.188Y-98.16
X117.4Y-64.1
X117.4Y-67.2
X117.4Y-70.3
X119.146Y-75.214
X119.146Y-77.754
X119.146Y-80.294
X119.146Y-82.834
X119.146Y-86.301
X119.146Y-88.841
X119.146Y-91.381
X119.146Y-93.921
X126.1Y-109.6
X127.195Y-59.481
X127.195Y-106.481
X128.64Y-109.6
X131.18Y-109.6
X132.66Y-55.1
X134.6Y-109.6
X135.2Y-55.1
X137.14Y-109.6
X139.68Y-109.6
X140.283Y-59.481
X140.283Y-106.481
X142.22Y-109.6
T0
M30
