G04 #@! TF.FileFunction,Legend,Bot*
%FSLAX46Y46*%
G04 Gerber Fmt 4.6, Leading zero omitted, Abs format (unit mm)*
G04 Created by KiCad (PCBNEW 4.0.1-stable) date 20.01.2016 16:11:56*
%MOMM*%
G01*
G04 APERTURE LIST*
%ADD10C,0.100000*%
%ADD11C,0.300000*%
%ADD12C,0.200000*%
%ADD13C,0.150000*%
G04 APERTURE END LIST*
D10*
D11*
X115271428Y-102478571D02*
X115128571Y-102478571D01*
X114985714Y-102550000D01*
X114914285Y-102621429D01*
X114842856Y-102764286D01*
X114771428Y-103050000D01*
X114771428Y-103407143D01*
X114842856Y-103692857D01*
X114914285Y-103835714D01*
X114985714Y-103907143D01*
X115128571Y-103978571D01*
X115271428Y-103978571D01*
X115414285Y-103907143D01*
X115485714Y-103835714D01*
X115557142Y-103692857D01*
X115628571Y-103407143D01*
X115628571Y-103050000D01*
X115557142Y-102764286D01*
X115485714Y-102621429D01*
X115414285Y-102550000D01*
X115271428Y-102478571D01*
X117571428Y-103978571D02*
X118428571Y-103978571D01*
X117999999Y-103978571D02*
X117999999Y-102478571D01*
X118142856Y-102692857D01*
X118285714Y-102835714D01*
X118428571Y-102907143D01*
D12*
X124095238Y-108252381D02*
X124095238Y-109061905D01*
X124047619Y-109157143D01*
X124000000Y-109204762D01*
X123904762Y-109252381D01*
X123714285Y-109252381D01*
X123619047Y-109204762D01*
X123571428Y-109157143D01*
X123523809Y-109061905D01*
X123523809Y-108252381D01*
X123095238Y-108966667D02*
X122619047Y-108966667D01*
X123190476Y-109252381D02*
X122857143Y-108252381D01*
X122523809Y-109252381D01*
X121619047Y-109252381D02*
X121952381Y-108776190D01*
X122190476Y-109252381D02*
X122190476Y-108252381D01*
X121809523Y-108252381D01*
X121714285Y-108300000D01*
X121666666Y-108347619D01*
X121619047Y-108442857D01*
X121619047Y-108585714D01*
X121666666Y-108680952D01*
X121714285Y-108728571D01*
X121809523Y-108776190D01*
X122190476Y-108776190D01*
X121333333Y-108252381D02*
X120761904Y-108252381D01*
X121047619Y-109252381D02*
X121047619Y-108252381D01*
X146457143Y-109304762D02*
X146314286Y-109352381D01*
X146076190Y-109352381D01*
X145980952Y-109304762D01*
X145933333Y-109257143D01*
X145885714Y-109161905D01*
X145885714Y-109066667D01*
X145933333Y-108971429D01*
X145980952Y-108923810D01*
X146076190Y-108876190D01*
X146266667Y-108828571D01*
X146361905Y-108780952D01*
X146409524Y-108733333D01*
X146457143Y-108638095D01*
X146457143Y-108542857D01*
X146409524Y-108447619D01*
X146361905Y-108400000D01*
X146266667Y-108352381D01*
X146028571Y-108352381D01*
X145885714Y-108400000D01*
X145552381Y-108352381D02*
X145314286Y-109352381D01*
X145123809Y-108638095D01*
X144933333Y-109352381D01*
X144695238Y-108352381D01*
X144314286Y-109352381D02*
X144314286Y-108352381D01*
X144076191Y-108352381D01*
X143933333Y-108400000D01*
X143838095Y-108495238D01*
X143790476Y-108590476D01*
X143742857Y-108780952D01*
X143742857Y-108923810D01*
X143790476Y-109114286D01*
X143838095Y-109209524D01*
X143933333Y-109304762D01*
X144076191Y-109352381D01*
X144314286Y-109352381D01*
D13*
X112043464Y-64310783D02*
X113989217Y-65943464D01*
X110247515Y-66451111D02*
X113676144Y-62365030D01*
X113676144Y-62365030D02*
X115621897Y-63997711D01*
X115621897Y-63997711D02*
X112193268Y-68083792D01*
X112193268Y-68083792D02*
X110247515Y-66451111D01*
X110247515Y-66451111D02*
X110329149Y-66353824D01*
X110329149Y-66353824D02*
X112274902Y-67986504D01*
X112274902Y-67986504D02*
X112356536Y-67889217D01*
X112356536Y-67889217D02*
X110410783Y-66256536D01*
X118000000Y-101300000D02*
X118000000Y-100500000D01*
X118000000Y-100500000D02*
X115000000Y-100500000D01*
X115000000Y-100500000D02*
X115000000Y-102100000D01*
X115000000Y-102100000D02*
X118000000Y-102100000D01*
X118000000Y-102100000D02*
X118000000Y-101300000D01*
X118000000Y-99700000D02*
X118000000Y-98900000D01*
X118000000Y-98900000D02*
X115000000Y-98900000D01*
X115000000Y-98900000D02*
X115000000Y-100500000D01*
X115000000Y-100500000D02*
X118000000Y-100500000D01*
X118000000Y-100500000D02*
X118000000Y-99700000D01*
X118000000Y-98100000D02*
X118000000Y-97300000D01*
X118000000Y-97300000D02*
X115000000Y-97300000D01*
X115000000Y-97300000D02*
X115000000Y-98900000D01*
X115000000Y-98900000D02*
X118000000Y-98900000D01*
X118000000Y-98900000D02*
X118000000Y-98100000D01*
X118000000Y-96500000D02*
X118000000Y-95700000D01*
X118000000Y-95700000D02*
X115000000Y-95700000D01*
X115000000Y-95700000D02*
X115000000Y-97300000D01*
X115000000Y-97300000D02*
X118000000Y-97300000D01*
X118000000Y-97300000D02*
X118000000Y-96500000D01*
X109000000Y-79500000D02*
X112600000Y-79500000D01*
X112600000Y-79500000D02*
X112600000Y-70900000D01*
X112600000Y-70900000D02*
X109000000Y-70900000D01*
X109000000Y-70900000D02*
X109000000Y-79500000D01*
X118000000Y-94900000D02*
X118000000Y-94100000D01*
X118000000Y-94100000D02*
X115000000Y-94100000D01*
X115000000Y-94100000D02*
X115000000Y-95700000D01*
X115000000Y-95700000D02*
X118000000Y-95700000D01*
X118000000Y-95700000D02*
X118000000Y-94900000D01*
X118000000Y-93300000D02*
X118000000Y-92500000D01*
X118000000Y-92500000D02*
X115000000Y-92500000D01*
X115000000Y-92500000D02*
X115000000Y-94100000D01*
X115000000Y-94100000D02*
X118000000Y-94100000D01*
X118000000Y-94100000D02*
X118000000Y-93300000D01*
D12*
X113642000Y-100545000D02*
X115042000Y-101945000D01*
X113642000Y-101955000D02*
X119042000Y-101955000D01*
X119042000Y-101955000D02*
X119042000Y-92735000D01*
X119042000Y-92735000D02*
X113642000Y-92735000D01*
X113642000Y-92735000D02*
X113642000Y-101955000D01*
D13*
X121000000Y-108000000D02*
X134000000Y-108000000D01*
X134000000Y-108000000D02*
X134000000Y-58000000D01*
X134000000Y-58000000D02*
X121000000Y-58000000D01*
X121000000Y-58000000D02*
X121000000Y-108000000D01*
X147000000Y-58000000D02*
X134000000Y-58000000D01*
X134000000Y-58000000D02*
X134000000Y-108000000D01*
X134000000Y-108000000D02*
X147000000Y-108000000D01*
X147000000Y-108000000D02*
X147000000Y-58000000D01*
X116900000Y-78600000D02*
X120900000Y-78600000D01*
X120900000Y-78600000D02*
X120900000Y-65600000D01*
X120900000Y-65600000D02*
X112900000Y-65600000D01*
X112900000Y-65600000D02*
X112900000Y-78600000D01*
X112900000Y-78600000D02*
X116900000Y-78600000D01*
X118650000Y-78850000D02*
X118650000Y-78600000D01*
X115150000Y-78600000D02*
X115150000Y-78850000D01*
X124823000Y-108330000D02*
X124950000Y-108330000D01*
X124696000Y-110870000D02*
X124823000Y-110870000D01*
X124950000Y-110870000D02*
X132570000Y-110870000D01*
X132570000Y-108330000D02*
X124950000Y-108330000D01*
X132570000Y-108330000D02*
X132570000Y-110870000D01*
X124696000Y-110870000D02*
X124696000Y-108330000D01*
X124696000Y-108330000D02*
X124823000Y-108330000D01*
X124823000Y-108330000D02*
X124823000Y-110870000D01*
X124823000Y-110870000D02*
X124950000Y-110870000D01*
X124950000Y-110870000D02*
X124950000Y-108330000D01*
X132956000Y-108330000D02*
X143370000Y-108330000D01*
X143370000Y-108330000D02*
X143370000Y-110870000D01*
X143370000Y-110870000D02*
X132956000Y-110870000D01*
X132956000Y-110870000D02*
X132956000Y-108330000D01*
X132956000Y-108330000D02*
X133083000Y-108330000D01*
X133083000Y-108330000D02*
X133083000Y-110870000D01*
X133083000Y-110870000D02*
X133210000Y-110870000D01*
X133210000Y-110870000D02*
X133210000Y-108330000D01*
X118514743Y-101054700D02*
X118514743Y-100854700D01*
X118829029Y-100854700D02*
X118229029Y-100854700D01*
X118229029Y-101140414D01*
X118829029Y-101683272D02*
X118829029Y-101340415D01*
X118829029Y-101511843D02*
X118229029Y-101511843D01*
X118314743Y-101454700D01*
X118371886Y-101397558D01*
X118400457Y-101340415D01*
X118514743Y-99454700D02*
X118514743Y-99254700D01*
X118829029Y-99254700D02*
X118229029Y-99254700D01*
X118229029Y-99540414D01*
X118286171Y-99740415D02*
X118257600Y-99768986D01*
X118229029Y-99826129D01*
X118229029Y-99968986D01*
X118257600Y-100026129D01*
X118286171Y-100054700D01*
X118343314Y-100083272D01*
X118400457Y-100083272D01*
X118486171Y-100054700D01*
X118829029Y-99711843D01*
X118829029Y-100083272D01*
X118514743Y-97855000D02*
X118514743Y-97655000D01*
X118829029Y-97655000D02*
X118229029Y-97655000D01*
X118229029Y-97940714D01*
X118229029Y-98112143D02*
X118229029Y-98483572D01*
X118457600Y-98283572D01*
X118457600Y-98369286D01*
X118486171Y-98426429D01*
X118514743Y-98455000D01*
X118571886Y-98483572D01*
X118714743Y-98483572D01*
X118771886Y-98455000D01*
X118800457Y-98426429D01*
X118829029Y-98369286D01*
X118829029Y-98197858D01*
X118800457Y-98140715D01*
X118771886Y-98112143D01*
X118514743Y-96355000D02*
X118514743Y-96155000D01*
X118829029Y-96155000D02*
X118229029Y-96155000D01*
X118229029Y-96440714D01*
X118429029Y-96926429D02*
X118829029Y-96926429D01*
X118200457Y-96783572D02*
X118629029Y-96640715D01*
X118629029Y-97012143D01*
X108642857Y-74800000D02*
X108671429Y-74885714D01*
X108671429Y-75028571D01*
X108642857Y-75085714D01*
X108614286Y-75114285D01*
X108557143Y-75142857D01*
X108500000Y-75142857D01*
X108442857Y-75114285D01*
X108414286Y-75085714D01*
X108385714Y-75028571D01*
X108357143Y-74914285D01*
X108328571Y-74857143D01*
X108300000Y-74828571D01*
X108242857Y-74800000D01*
X108185714Y-74800000D01*
X108128571Y-74828571D01*
X108100000Y-74857143D01*
X108071429Y-74914285D01*
X108071429Y-75057143D01*
X108100000Y-75142857D01*
X108071429Y-75342857D02*
X108671429Y-75485714D01*
X108242857Y-75600000D01*
X108671429Y-75714286D01*
X108071429Y-75857143D01*
X108271429Y-76342857D02*
X108671429Y-76342857D01*
X108042857Y-76200000D02*
X108471429Y-76057143D01*
X108471429Y-76428571D01*
X118514743Y-94655000D02*
X118514743Y-94455000D01*
X118829029Y-94455000D02*
X118229029Y-94455000D01*
X118229029Y-94740714D01*
X118229029Y-95255000D02*
X118229029Y-94969286D01*
X118514743Y-94940715D01*
X118486171Y-94969286D01*
X118457600Y-95026429D01*
X118457600Y-95169286D01*
X118486171Y-95226429D01*
X118514743Y-95255000D01*
X118571886Y-95283572D01*
X118714743Y-95283572D01*
X118771886Y-95255000D01*
X118800457Y-95226429D01*
X118829029Y-95169286D01*
X118829029Y-95026429D01*
X118800457Y-94969286D01*
X118771886Y-94940715D01*
X118514743Y-93155000D02*
X118514743Y-92955000D01*
X118829029Y-92955000D02*
X118229029Y-92955000D01*
X118229029Y-93240714D01*
X118229029Y-93726429D02*
X118229029Y-93612143D01*
X118257600Y-93555000D01*
X118286171Y-93526429D01*
X118371886Y-93469286D01*
X118486171Y-93440715D01*
X118714743Y-93440715D01*
X118771886Y-93469286D01*
X118800457Y-93497858D01*
X118829029Y-93555000D01*
X118829029Y-93669286D01*
X118800457Y-93726429D01*
X118771886Y-93755000D01*
X118714743Y-93783572D01*
X118571886Y-93783572D01*
X118514743Y-93755000D01*
X118486171Y-93726429D01*
X118457600Y-93669286D01*
X118457600Y-93555000D01*
X118486171Y-93497858D01*
X118514743Y-93469286D01*
X118571886Y-93440715D01*
X114542857Y-96400000D02*
X114571429Y-96485714D01*
X114571429Y-96628571D01*
X114542857Y-96685714D01*
X114514286Y-96714285D01*
X114457143Y-96742857D01*
X114400000Y-96742857D01*
X114342857Y-96714285D01*
X114314286Y-96685714D01*
X114285714Y-96628571D01*
X114257143Y-96514285D01*
X114228571Y-96457143D01*
X114200000Y-96428571D01*
X114142857Y-96400000D01*
X114085714Y-96400000D01*
X114028571Y-96428571D01*
X114000000Y-96457143D01*
X113971429Y-96514285D01*
X113971429Y-96657143D01*
X114000000Y-96742857D01*
X113971429Y-96942857D02*
X114571429Y-97085714D01*
X114142857Y-97200000D01*
X114571429Y-97314286D01*
X113971429Y-97457143D01*
X114571429Y-98000000D02*
X114571429Y-97657143D01*
X114571429Y-97828571D02*
X113971429Y-97828571D01*
X114057143Y-97771428D01*
X114114286Y-97714286D01*
X114142857Y-97657143D01*
X114571029Y-93471429D02*
X113971029Y-93471429D01*
X113971029Y-93614286D01*
X113999600Y-93700001D01*
X114056743Y-93757143D01*
X114113886Y-93785715D01*
X114228171Y-93814286D01*
X114313886Y-93814286D01*
X114428171Y-93785715D01*
X114485314Y-93757143D01*
X114542457Y-93700001D01*
X114571029Y-93614286D01*
X114571029Y-93471429D01*
X114571029Y-94071429D02*
X113971029Y-94071429D01*
X114571029Y-94357143D02*
X113971029Y-94357143D01*
X113971029Y-94585715D01*
X113999600Y-94642857D01*
X114028171Y-94671429D01*
X114085314Y-94700000D01*
X114171029Y-94700000D01*
X114228171Y-94671429D01*
X114256743Y-94642857D01*
X114285314Y-94585715D01*
X114285314Y-94357143D01*
X114571029Y-94900000D02*
X114171029Y-95214286D01*
X114171029Y-94900000D02*
X114571029Y-95214286D01*
X113971029Y-95700000D02*
X113971029Y-95585714D01*
X113999600Y-95528571D01*
X114028171Y-95500000D01*
X114113886Y-95442857D01*
X114228171Y-95414286D01*
X114456743Y-95414286D01*
X114513886Y-95442857D01*
X114542457Y-95471429D01*
X114571029Y-95528571D01*
X114571029Y-95642857D01*
X114542457Y-95700000D01*
X114513886Y-95728571D01*
X114456743Y-95757143D01*
X114313886Y-95757143D01*
X114256743Y-95728571D01*
X114228171Y-95700000D01*
X114199600Y-95642857D01*
X114199600Y-95528571D01*
X114228171Y-95471429D01*
X114256743Y-95442857D01*
X114313886Y-95414286D01*
X112970571Y-101816429D02*
X113313428Y-101816429D01*
X113142000Y-101816429D02*
X113142000Y-101216429D01*
X113199143Y-101302143D01*
X113256285Y-101359286D01*
X113313428Y-101387857D01*
X122956263Y-82056763D02*
X122984834Y-82142477D01*
X123013406Y-82171049D01*
X123070549Y-82199620D01*
X123156263Y-82199620D01*
X123213406Y-82171049D01*
X123241977Y-82142477D01*
X123270549Y-82085335D01*
X123270549Y-81856763D01*
X122670549Y-81856763D01*
X122670549Y-82056763D01*
X122699120Y-82113906D01*
X122727691Y-82142477D01*
X122784834Y-82171049D01*
X122841977Y-82171049D01*
X122899120Y-82142477D01*
X122927691Y-82113906D01*
X122956263Y-82056763D01*
X122956263Y-81856763D01*
X123099120Y-82428192D02*
X123099120Y-82713906D01*
X123270549Y-82371049D02*
X122670549Y-82571049D01*
X123270549Y-82771049D01*
X122670549Y-82885335D02*
X122670549Y-83228192D01*
X123270549Y-83056763D02*
X122670549Y-83056763D01*
X131542857Y-105538095D02*
X131542857Y-107061905D01*
X131442857Y-58738095D02*
X131442857Y-60261905D01*
X132204762Y-59500000D02*
X130680952Y-59500000D01*
X144958023Y-83057523D02*
X144986594Y-83143237D01*
X145015166Y-83171809D01*
X145072309Y-83200380D01*
X145158023Y-83200380D01*
X145215166Y-83171809D01*
X145243737Y-83143237D01*
X145272309Y-83086095D01*
X145272309Y-82857523D01*
X144672309Y-82857523D01*
X144672309Y-83057523D01*
X144700880Y-83114666D01*
X144729451Y-83143237D01*
X144786594Y-83171809D01*
X144843737Y-83171809D01*
X144900880Y-83143237D01*
X144929451Y-83114666D01*
X144958023Y-83057523D01*
X144958023Y-82857523D01*
X145100880Y-83428952D02*
X145100880Y-83714666D01*
X145272309Y-83371809D02*
X144672309Y-83571809D01*
X145272309Y-83771809D01*
X144672309Y-83886095D02*
X144672309Y-84228952D01*
X145272309Y-84057523D02*
X144672309Y-84057523D01*
X136742857Y-58938095D02*
X136742857Y-60461905D01*
X136842857Y-105738095D02*
X136842857Y-107261905D01*
X137604762Y-106500000D02*
X136080952Y-106500000D01*
X117035715Y-75314286D02*
X117064286Y-75342857D01*
X117150000Y-75371429D01*
X117207143Y-75371429D01*
X117292858Y-75342857D01*
X117350000Y-75285714D01*
X117378572Y-75228571D01*
X117407143Y-75114286D01*
X117407143Y-75028571D01*
X117378572Y-74914286D01*
X117350000Y-74857143D01*
X117292858Y-74800000D01*
X117207143Y-74771429D01*
X117150000Y-74771429D01*
X117064286Y-74800000D01*
X117035715Y-74828571D01*
X116807143Y-74828571D02*
X116778572Y-74800000D01*
X116721429Y-74771429D01*
X116578572Y-74771429D01*
X116521429Y-74800000D01*
X116492858Y-74828571D01*
X116464286Y-74885714D01*
X116464286Y-74942857D01*
X116492858Y-75028571D01*
X116835715Y-75371429D01*
X116464286Y-75371429D01*
X115892857Y-75371429D02*
X116235714Y-75371429D01*
X116064286Y-75371429D02*
X116064286Y-74771429D01*
X116121429Y-74857143D01*
X116178571Y-74914286D01*
X116235714Y-74942857D01*
X118885715Y-76371429D02*
X119228572Y-76371429D01*
X119057144Y-76371429D02*
X119057144Y-75771429D01*
X119114287Y-75857143D01*
X119171429Y-75914286D01*
X119228572Y-75942857D01*
X118514286Y-75771429D02*
X118457143Y-75771429D01*
X118400000Y-75800000D01*
X118371429Y-75828571D01*
X118342858Y-75885714D01*
X118314286Y-76000000D01*
X118314286Y-76142857D01*
X118342858Y-76257143D01*
X118371429Y-76314286D01*
X118400000Y-76342857D01*
X118457143Y-76371429D01*
X118514286Y-76371429D01*
X118571429Y-76342857D01*
X118600000Y-76314286D01*
X118628572Y-76257143D01*
X118657143Y-76142857D01*
X118657143Y-76000000D01*
X118628572Y-75885714D01*
X118600000Y-75828571D01*
X118571429Y-75800000D01*
X118514286Y-75771429D01*
X117942857Y-75771429D02*
X117885714Y-75771429D01*
X117828571Y-75800000D01*
X117800000Y-75828571D01*
X117771429Y-75885714D01*
X117742857Y-76000000D01*
X117742857Y-76142857D01*
X117771429Y-76257143D01*
X117800000Y-76314286D01*
X117828571Y-76342857D01*
X117885714Y-76371429D01*
X117942857Y-76371429D01*
X118000000Y-76342857D01*
X118028571Y-76314286D01*
X118057143Y-76257143D01*
X118085714Y-76142857D01*
X118085714Y-76000000D01*
X118057143Y-75885714D01*
X118028571Y-75828571D01*
X118000000Y-75800000D01*
X117942857Y-75771429D01*
X117371428Y-75771429D02*
X117314285Y-75771429D01*
X117257142Y-75800000D01*
X117228571Y-75828571D01*
X117200000Y-75885714D01*
X117171428Y-76000000D01*
X117171428Y-76142857D01*
X117200000Y-76257143D01*
X117228571Y-76314286D01*
X117257142Y-76342857D01*
X117314285Y-76371429D01*
X117371428Y-76371429D01*
X117428571Y-76342857D01*
X117457142Y-76314286D01*
X117485714Y-76257143D01*
X117514285Y-76142857D01*
X117514285Y-76000000D01*
X117485714Y-75885714D01*
X117457142Y-75828571D01*
X117428571Y-75800000D01*
X117371428Y-75771429D01*
X116657142Y-75971429D02*
X116657142Y-76371429D01*
X116914285Y-75971429D02*
X116914285Y-76285714D01*
X116885713Y-76342857D01*
X116828571Y-76371429D01*
X116742856Y-76371429D01*
X116685713Y-76342857D01*
X116657142Y-76314286D01*
X115657142Y-75771429D02*
X115771428Y-75771429D01*
X115828571Y-75800000D01*
X115857142Y-75828571D01*
X115914285Y-75914286D01*
X115942856Y-76028571D01*
X115942856Y-76257143D01*
X115914285Y-76314286D01*
X115885713Y-76342857D01*
X115828571Y-76371429D01*
X115714285Y-76371429D01*
X115657142Y-76342857D01*
X115628571Y-76314286D01*
X115599999Y-76257143D01*
X115599999Y-76114286D01*
X115628571Y-76057143D01*
X115657142Y-76028571D01*
X115714285Y-76000000D01*
X115828571Y-76000000D01*
X115885713Y-76028571D01*
X115914285Y-76057143D01*
X115942856Y-76114286D01*
X115399999Y-75971429D02*
X115257142Y-76371429D01*
X115114284Y-75971429D01*
X114942856Y-75771429D02*
X114571427Y-75771429D01*
X114771427Y-76000000D01*
X114685713Y-76000000D01*
X114628570Y-76028571D01*
X114599999Y-76057143D01*
X114571427Y-76114286D01*
X114571427Y-76257143D01*
X114599999Y-76314286D01*
X114628570Y-76342857D01*
X114685713Y-76371429D01*
X114857141Y-76371429D01*
X114914284Y-76342857D01*
X114942856Y-76314286D01*
D11*
X115771428Y-77707143D02*
X114628571Y-77707143D01*
X115200000Y-78278571D02*
X115200000Y-77135714D01*
D13*
X123914285Y-110452381D02*
X124485714Y-110452381D01*
X124200000Y-110452381D02*
X124200000Y-109452381D01*
X124295238Y-109595238D01*
X124390476Y-109690476D01*
X124485714Y-109738095D01*
X134114285Y-112052381D02*
X134685714Y-112052381D01*
X134400000Y-112052381D02*
X134400000Y-111052381D01*
X134495238Y-111195238D01*
X134590476Y-111290476D01*
X134685714Y-111338095D01*
M02*
